G04 Layer_Color=8388736*
%FSLAX25Y25*%
%MOIN*%
G70*
G01*
G75*
%ADD27R,0.04343X0.04737*%
%ADD28R,0.04737X0.04343*%
G04:AMPARAMS|DCode=29|XSize=47.37mil|YSize=43.43mil|CornerRadius=0mil|HoleSize=0mil|Usage=FLASHONLY|Rotation=225.000|XOffset=0mil|YOffset=0mil|HoleType=Round|Shape=Rectangle|*
%AMROTATEDRECTD29*
4,1,4,0.00139,0.03210,0.03210,0.00139,-0.00139,-0.03210,-0.03210,-0.00139,0.00139,0.03210,0.0*
%
%ADD29ROTATEDRECTD29*%

%ADD30R,0.03713X0.10249*%
%ADD31R,0.10249X0.03713*%
G04:AMPARAMS|DCode=32|XSize=47.37mil|YSize=43.43mil|CornerRadius=0mil|HoleSize=0mil|Usage=FLASHONLY|Rotation=315.000|XOffset=0mil|YOffset=0mil|HoleType=Round|Shape=Rectangle|*
%AMROTATEDRECTD32*
4,1,4,-0.03210,0.00139,-0.00139,0.03210,0.03210,-0.00139,0.00139,-0.03210,-0.03210,0.00139,0.0*
%
%ADD32ROTATEDRECTD32*%

%ADD33C,0.08674*%
%ADD34C,0.20485*%
D27*
X-3150Y362205D02*
D03*
X3150D02*
D03*
X327559Y362205D02*
D03*
X333858D02*
D03*
X286220Y362205D02*
D03*
X292520D02*
D03*
X244882Y362205D02*
D03*
X251181D02*
D03*
X203543Y362205D02*
D03*
X209842D02*
D03*
X162205Y362205D02*
D03*
X168504D02*
D03*
X120866Y362205D02*
D03*
X127165D02*
D03*
X79527Y362205D02*
D03*
X85827D02*
D03*
X38189Y362205D02*
D03*
X44488D02*
D03*
X-251181Y362106D02*
D03*
X-244882Y362106D02*
D03*
X-209843Y362008D02*
D03*
X-203543Y362008D02*
D03*
X-168504Y361910D02*
D03*
X-162205Y361909D02*
D03*
X-127165Y361811D02*
D03*
X-120866Y361811D02*
D03*
X-85827Y361713D02*
D03*
X-79528Y361713D02*
D03*
X-44488Y361614D02*
D03*
X-38189Y361614D02*
D03*
X-333858Y362303D02*
D03*
X-327559Y362303D02*
D03*
X-292520Y362205D02*
D03*
X-286221Y362205D02*
D03*
X-38189Y-362205D02*
D03*
X-44488D02*
D03*
X-79527Y-362205D02*
D03*
X-85827D02*
D03*
X-120866Y-362205D02*
D03*
X-127165D02*
D03*
X-162205Y-362205D02*
D03*
X-168504D02*
D03*
X-203543Y-362205D02*
D03*
X-209842D02*
D03*
X-244882Y-362205D02*
D03*
X-251181D02*
D03*
X-286220Y-362205D02*
D03*
X-292520D02*
D03*
X-327559Y-362205D02*
D03*
X-333858D02*
D03*
X3150Y-362205D02*
D03*
X-3150D02*
D03*
X251181Y-362106D02*
D03*
X244882Y-362106D02*
D03*
X209843Y-362008D02*
D03*
X203543Y-362008D02*
D03*
X168504Y-361910D02*
D03*
X162205Y-361909D02*
D03*
X127165Y-361811D02*
D03*
X120866Y-361811D02*
D03*
X85827Y-361713D02*
D03*
X79528Y-361713D02*
D03*
X44488Y-361614D02*
D03*
X38189Y-361614D02*
D03*
X333858Y-362303D02*
D03*
X327559Y-362303D02*
D03*
X292520Y-362205D02*
D03*
X286221Y-362205D02*
D03*
D28*
X362205Y292520D02*
D03*
X362205Y286221D02*
D03*
X362303Y333858D02*
D03*
X362303Y327559D02*
D03*
X361614Y44488D02*
D03*
X361614Y38189D02*
D03*
X361713Y85827D02*
D03*
X361713Y79528D02*
D03*
X361811Y127165D02*
D03*
X361811Y120866D02*
D03*
X361910Y168504D02*
D03*
X361909Y162205D02*
D03*
X362008Y209843D02*
D03*
X362008Y203543D02*
D03*
X362106Y251181D02*
D03*
X362106Y244882D02*
D03*
X-362205Y38189D02*
D03*
Y44488D02*
D03*
X-362205Y79527D02*
D03*
Y85827D02*
D03*
X-362205Y120866D02*
D03*
Y127165D02*
D03*
X-362205Y162205D02*
D03*
Y168504D02*
D03*
X-362205Y203543D02*
D03*
Y209842D02*
D03*
X-362205Y244882D02*
D03*
Y251181D02*
D03*
X-362205Y286220D02*
D03*
Y292520D02*
D03*
X-362205Y327559D02*
D03*
Y333858D02*
D03*
X-362205Y-3150D02*
D03*
Y3150D02*
D03*
X-362106Y-251181D02*
D03*
X-362106Y-244882D02*
D03*
X-362008Y-209843D02*
D03*
X-362008Y-203543D02*
D03*
X-361910Y-168504D02*
D03*
X-361909Y-162205D02*
D03*
X-361811Y-127165D02*
D03*
X-361811Y-120866D02*
D03*
X-361713Y-85827D02*
D03*
X-361713Y-79528D02*
D03*
X-361614Y-44488D02*
D03*
X-361614Y-38189D02*
D03*
X-362303Y-333858D02*
D03*
X-362303Y-327559D02*
D03*
X-362205Y-292520D02*
D03*
X-362205Y-286221D02*
D03*
X362205Y-38189D02*
D03*
Y-44488D02*
D03*
X362205Y-79527D02*
D03*
Y-85827D02*
D03*
X362205Y-120866D02*
D03*
Y-127165D02*
D03*
X362205Y-162205D02*
D03*
Y-168504D02*
D03*
X362205Y-203543D02*
D03*
Y-209842D02*
D03*
X362205Y-244882D02*
D03*
Y-251181D02*
D03*
X362205Y-286220D02*
D03*
Y-292520D02*
D03*
X362205Y-327559D02*
D03*
Y-333858D02*
D03*
X362205Y3150D02*
D03*
Y-3150D02*
D03*
D29*
X339855Y45498D02*
D03*
X335401Y49952D02*
D03*
X298516Y45498D02*
D03*
X294062Y49952D02*
D03*
X299205Y334868D02*
D03*
X294751Y339322D02*
D03*
X340179Y335412D02*
D03*
X335725Y339867D02*
D03*
X257867Y334868D02*
D03*
X253412Y339322D02*
D03*
X216528Y334868D02*
D03*
X212074Y339322D02*
D03*
X175189Y334868D02*
D03*
X170735Y339322D02*
D03*
X133851Y334868D02*
D03*
X129397Y339322D02*
D03*
X92512Y334868D02*
D03*
X88058Y339322D02*
D03*
X51174Y334868D02*
D03*
X46720Y339322D02*
D03*
X9835Y334868D02*
D03*
X5381Y339322D02*
D03*
X299107Y293529D02*
D03*
X294652Y297983D02*
D03*
X340080Y294074D02*
D03*
X335626Y298528D02*
D03*
X257768Y293529D02*
D03*
X253314Y297983D02*
D03*
X216429Y293529D02*
D03*
X211975Y297983D02*
D03*
X175091Y293529D02*
D03*
X170637Y297983D02*
D03*
X133752Y293529D02*
D03*
X129298Y297983D02*
D03*
X92414Y293529D02*
D03*
X87960Y297983D02*
D03*
X51075Y293529D02*
D03*
X46621Y297983D02*
D03*
X9737Y293529D02*
D03*
X5283Y297983D02*
D03*
X299008Y252190D02*
D03*
X294554Y256645D02*
D03*
X339982Y252735D02*
D03*
X335528Y257189D02*
D03*
X257670Y252190D02*
D03*
X253216Y256645D02*
D03*
X216331Y252190D02*
D03*
X211877Y256645D02*
D03*
X174993Y252190D02*
D03*
X170538Y256645D02*
D03*
X133654Y252190D02*
D03*
X129200Y256645D02*
D03*
X92315Y252190D02*
D03*
X87861Y256645D02*
D03*
X50977Y252190D02*
D03*
X46523Y256645D02*
D03*
X9638Y252190D02*
D03*
X5184Y256645D02*
D03*
X298910Y210852D02*
D03*
X294456Y215306D02*
D03*
X339883Y211397D02*
D03*
X335429Y215851D02*
D03*
X257571Y210852D02*
D03*
X253117Y215306D02*
D03*
X216233Y210852D02*
D03*
X211778Y215306D02*
D03*
X174894Y210852D02*
D03*
X170440Y215306D02*
D03*
X133555Y210852D02*
D03*
X129101Y215306D02*
D03*
X92217Y210852D02*
D03*
X87763Y215306D02*
D03*
X50878Y210852D02*
D03*
X46424Y215306D02*
D03*
X9540Y210852D02*
D03*
X5086Y215306D02*
D03*
X298811Y169513D02*
D03*
X294357Y173968D02*
D03*
X339785Y170058D02*
D03*
X335331Y174512D02*
D03*
X257473Y169513D02*
D03*
X253019Y173968D02*
D03*
X216134Y169513D02*
D03*
X211680Y173968D02*
D03*
X174796Y169513D02*
D03*
X170342Y173968D02*
D03*
X133457Y169513D02*
D03*
X129003Y173968D02*
D03*
X92119Y169513D02*
D03*
X87664Y173968D02*
D03*
X50780Y169513D02*
D03*
X46326Y173968D02*
D03*
X9441Y169513D02*
D03*
X4987Y173968D02*
D03*
X298713Y128175D02*
D03*
X294259Y132629D02*
D03*
X339687Y128719D02*
D03*
X335232Y133174D02*
D03*
X257374Y128175D02*
D03*
X252920Y132629D02*
D03*
X216036Y128175D02*
D03*
X211582Y132629D02*
D03*
X174697Y128175D02*
D03*
X170243Y132629D02*
D03*
X133359Y128175D02*
D03*
X128904Y132629D02*
D03*
X92020Y128175D02*
D03*
X87566Y132629D02*
D03*
X50682Y128175D02*
D03*
X46227Y132629D02*
D03*
X9343Y128175D02*
D03*
X4889Y132629D02*
D03*
X298615Y86836D02*
D03*
X294160Y91290D02*
D03*
X339588Y87381D02*
D03*
X335134Y91835D02*
D03*
X257276Y86836D02*
D03*
X252822Y91290D02*
D03*
X215937Y86836D02*
D03*
X211483Y91290D02*
D03*
X174599Y86836D02*
D03*
X170145Y91290D02*
D03*
X133260Y86836D02*
D03*
X128806Y91290D02*
D03*
X91922Y86836D02*
D03*
X87467Y91290D02*
D03*
X50583Y86836D02*
D03*
X46129Y91290D02*
D03*
X9245Y86836D02*
D03*
X4790Y91290D02*
D03*
X9146Y45498D02*
D03*
X4692Y49952D02*
D03*
X50485Y45498D02*
D03*
X46031Y49952D02*
D03*
X91823Y45498D02*
D03*
X87369Y49952D02*
D03*
X133162Y45498D02*
D03*
X128708Y49952D02*
D03*
X174500Y45498D02*
D03*
X170046Y49952D02*
D03*
X215839Y45498D02*
D03*
X211385Y49952D02*
D03*
X257178Y45498D02*
D03*
X252723Y49952D02*
D03*
X-257178Y-45498D02*
D03*
X-252723Y-49952D02*
D03*
X-215839Y-45498D02*
D03*
X-211385Y-49952D02*
D03*
X-174500Y-45498D02*
D03*
X-170046Y-49952D02*
D03*
X-133162Y-45498D02*
D03*
X-128708Y-49952D02*
D03*
X-91823Y-45498D02*
D03*
X-87369Y-49952D02*
D03*
X-50485Y-45498D02*
D03*
X-46031Y-49952D02*
D03*
X-9146Y-45498D02*
D03*
X-4692Y-49952D02*
D03*
X-9245Y-86836D02*
D03*
X-4790Y-91290D02*
D03*
X-50583Y-86836D02*
D03*
X-46129Y-91290D02*
D03*
X-91922Y-86836D02*
D03*
X-87467Y-91290D02*
D03*
X-133260Y-86836D02*
D03*
X-128806Y-91290D02*
D03*
X-174599Y-86836D02*
D03*
X-170145Y-91290D02*
D03*
X-215937Y-86836D02*
D03*
X-211483Y-91290D02*
D03*
X-257276Y-86836D02*
D03*
X-252822Y-91290D02*
D03*
X-339588Y-87381D02*
D03*
X-335134Y-91835D02*
D03*
X-298615Y-86836D02*
D03*
X-294160Y-91290D02*
D03*
X-9343Y-128175D02*
D03*
X-4889Y-132629D02*
D03*
X-50682Y-128175D02*
D03*
X-46227Y-132629D02*
D03*
X-92020Y-128175D02*
D03*
X-87566Y-132629D02*
D03*
X-133359Y-128175D02*
D03*
X-128904Y-132629D02*
D03*
X-174697Y-128175D02*
D03*
X-170243Y-132629D02*
D03*
X-216036Y-128175D02*
D03*
X-211582Y-132629D02*
D03*
X-257374Y-128175D02*
D03*
X-252920Y-132629D02*
D03*
X-339687Y-128719D02*
D03*
X-335232Y-133174D02*
D03*
X-298713Y-128175D02*
D03*
X-294259Y-132629D02*
D03*
X-9441Y-169513D02*
D03*
X-4987Y-173968D02*
D03*
X-50780Y-169513D02*
D03*
X-46326Y-173968D02*
D03*
X-92119Y-169513D02*
D03*
X-87664Y-173968D02*
D03*
X-133457Y-169513D02*
D03*
X-129003Y-173968D02*
D03*
X-174796Y-169513D02*
D03*
X-170342Y-173968D02*
D03*
X-216134Y-169513D02*
D03*
X-211680Y-173968D02*
D03*
X-257473Y-169513D02*
D03*
X-253019Y-173968D02*
D03*
X-339785Y-170058D02*
D03*
X-335331Y-174512D02*
D03*
X-298811Y-169513D02*
D03*
X-294357Y-173968D02*
D03*
X-9540Y-210852D02*
D03*
X-5086Y-215306D02*
D03*
X-50878Y-210852D02*
D03*
X-46424Y-215306D02*
D03*
X-92217Y-210852D02*
D03*
X-87763Y-215306D02*
D03*
X-133555Y-210852D02*
D03*
X-129101Y-215306D02*
D03*
X-174894Y-210852D02*
D03*
X-170440Y-215306D02*
D03*
X-216233Y-210852D02*
D03*
X-211778Y-215306D02*
D03*
X-257571Y-210852D02*
D03*
X-253117Y-215306D02*
D03*
X-339883Y-211397D02*
D03*
X-335429Y-215851D02*
D03*
X-298910Y-210852D02*
D03*
X-294456Y-215306D02*
D03*
X-9638Y-252190D02*
D03*
X-5184Y-256645D02*
D03*
X-50977Y-252190D02*
D03*
X-46523Y-256645D02*
D03*
X-92315Y-252190D02*
D03*
X-87861Y-256645D02*
D03*
X-133654Y-252190D02*
D03*
X-129200Y-256645D02*
D03*
X-174993Y-252190D02*
D03*
X-170538Y-256645D02*
D03*
X-216331Y-252190D02*
D03*
X-211877Y-256645D02*
D03*
X-257670Y-252190D02*
D03*
X-253216Y-256645D02*
D03*
X-339982Y-252735D02*
D03*
X-335528Y-257189D02*
D03*
X-299008Y-252190D02*
D03*
X-294554Y-256645D02*
D03*
X-9737Y-293529D02*
D03*
X-5283Y-297983D02*
D03*
X-51075Y-293529D02*
D03*
X-46621Y-297983D02*
D03*
X-92414Y-293529D02*
D03*
X-87960Y-297983D02*
D03*
X-133752Y-293529D02*
D03*
X-129298Y-297983D02*
D03*
X-175091Y-293529D02*
D03*
X-170637Y-297983D02*
D03*
X-216429Y-293529D02*
D03*
X-211975Y-297983D02*
D03*
X-257768Y-293529D02*
D03*
X-253314Y-297983D02*
D03*
X-340080Y-294074D02*
D03*
X-335626Y-298528D02*
D03*
X-299107Y-293529D02*
D03*
X-294652Y-297983D02*
D03*
X-9835Y-334868D02*
D03*
X-5381Y-339322D02*
D03*
X-51174Y-334868D02*
D03*
X-46720Y-339322D02*
D03*
X-92512Y-334868D02*
D03*
X-88058Y-339322D02*
D03*
X-133851Y-334868D02*
D03*
X-129397Y-339322D02*
D03*
X-175189Y-334868D02*
D03*
X-170735Y-339322D02*
D03*
X-216528Y-334868D02*
D03*
X-212074Y-339322D02*
D03*
X-257867Y-334868D02*
D03*
X-253412Y-339322D02*
D03*
X-340179Y-335412D02*
D03*
X-335725Y-339867D02*
D03*
X-299205Y-334868D02*
D03*
X-294751Y-339322D02*
D03*
X-298516Y-45498D02*
D03*
X-294062Y-49952D02*
D03*
X-339855Y-45498D02*
D03*
X-335401Y-49952D02*
D03*
D30*
X74350Y386023D02*
D03*
X79350D02*
D03*
X84350D02*
D03*
X89350D02*
D03*
X94350D02*
D03*
X99350D02*
D03*
X104350D02*
D03*
X109350D02*
D03*
X114350D02*
D03*
X119350D02*
D03*
X124350D02*
D03*
X129350D02*
D03*
X134350D02*
D03*
X139350D02*
D03*
X144350D02*
D03*
X149350D02*
D03*
X154350D02*
D03*
X159350D02*
D03*
X164350D02*
D03*
X169350D02*
D03*
X174350D02*
D03*
X179350D02*
D03*
X184350D02*
D03*
X189350D02*
D03*
X194350D02*
D03*
X199350D02*
D03*
X204350D02*
D03*
X209350D02*
D03*
X214350D02*
D03*
X219350D02*
D03*
X224350D02*
D03*
X229350D02*
D03*
X234350D02*
D03*
X239350D02*
D03*
X244350D02*
D03*
X249350D02*
D03*
X254350D02*
D03*
X259350D02*
D03*
X264350D02*
D03*
X269350D02*
D03*
X274350D02*
D03*
X279350D02*
D03*
X284350D02*
D03*
X289350D02*
D03*
X294350D02*
D03*
X299350D02*
D03*
X304350D02*
D03*
X309350D02*
D03*
X314350D02*
D03*
X319350D02*
D03*
X74350Y401378D02*
D03*
X79350D02*
D03*
X84350D02*
D03*
X89350D02*
D03*
X94350D02*
D03*
X99350D02*
D03*
X104350D02*
D03*
X109350D02*
D03*
X114350D02*
D03*
X119350D02*
D03*
X124350D02*
D03*
X129350D02*
D03*
X134350D02*
D03*
X139350D02*
D03*
X144350D02*
D03*
X149350D02*
D03*
X154350D02*
D03*
X159350D02*
D03*
X164350D02*
D03*
X169350D02*
D03*
X174350D02*
D03*
X179350D02*
D03*
X184350D02*
D03*
X189350D02*
D03*
X194350D02*
D03*
X199350D02*
D03*
X204350D02*
D03*
X209350D02*
D03*
X214350D02*
D03*
X219350D02*
D03*
X224350D02*
D03*
X229350D02*
D03*
X234350D02*
D03*
X239350D02*
D03*
X244350D02*
D03*
X249350D02*
D03*
X254350D02*
D03*
X259350D02*
D03*
X264350D02*
D03*
X269350D02*
D03*
X274350D02*
D03*
X279350D02*
D03*
X284350D02*
D03*
X289350D02*
D03*
X294350D02*
D03*
X299350D02*
D03*
X304350D02*
D03*
X309350D02*
D03*
X314350D02*
D03*
X319350D02*
D03*
X-74350Y401378D02*
D03*
X-79350D02*
D03*
X-84350D02*
D03*
X-89350D02*
D03*
X-94350D02*
D03*
X-99350D02*
D03*
X-104350D02*
D03*
X-109350D02*
D03*
X-114350D02*
D03*
X-119350D02*
D03*
X-124350D02*
D03*
X-129350D02*
D03*
X-134350D02*
D03*
X-139350D02*
D03*
X-144350D02*
D03*
X-149350D02*
D03*
X-154350D02*
D03*
X-159350D02*
D03*
X-164350D02*
D03*
X-169350D02*
D03*
X-174350D02*
D03*
X-179350D02*
D03*
X-184350D02*
D03*
X-189350D02*
D03*
X-194350D02*
D03*
X-199350D02*
D03*
X-204350D02*
D03*
X-209350D02*
D03*
X-214350D02*
D03*
X-219350D02*
D03*
X-224350D02*
D03*
X-229350D02*
D03*
X-234350D02*
D03*
X-239350D02*
D03*
X-244350D02*
D03*
X-249350D02*
D03*
X-254350D02*
D03*
X-259350D02*
D03*
X-264350D02*
D03*
X-269350D02*
D03*
X-274350D02*
D03*
X-279350D02*
D03*
X-284350D02*
D03*
X-289350D02*
D03*
X-294350D02*
D03*
X-299350D02*
D03*
X-304350D02*
D03*
X-309350D02*
D03*
X-314350D02*
D03*
X-319350D02*
D03*
X-74350Y386024D02*
D03*
X-79350D02*
D03*
X-84350D02*
D03*
X-89350D02*
D03*
X-94350D02*
D03*
X-99350D02*
D03*
X-104350D02*
D03*
X-109350D02*
D03*
X-114350D02*
D03*
X-119350D02*
D03*
X-124350D02*
D03*
X-129350D02*
D03*
X-134350D02*
D03*
X-139350D02*
D03*
X-144350D02*
D03*
X-149350D02*
D03*
X-154350D02*
D03*
X-159350D02*
D03*
X-164350D02*
D03*
X-169350D02*
D03*
X-174350D02*
D03*
X-179350D02*
D03*
X-184350D02*
D03*
X-189350D02*
D03*
X-194350D02*
D03*
X-199350D02*
D03*
X-204350D02*
D03*
X-209350D02*
D03*
X-214350D02*
D03*
X-219350D02*
D03*
X-224350D02*
D03*
X-229350D02*
D03*
X-234350D02*
D03*
X-239350D02*
D03*
X-244350D02*
D03*
X-249350D02*
D03*
X-254350D02*
D03*
X-259350D02*
D03*
X-264350D02*
D03*
X-269350D02*
D03*
X-274350D02*
D03*
X-279350D02*
D03*
X-284350D02*
D03*
X-289350D02*
D03*
X-294350D02*
D03*
X-299350D02*
D03*
X-304350D02*
D03*
X-309350D02*
D03*
X-314350D02*
D03*
X-319350D02*
D03*
X-74350Y-386023D02*
D03*
X-79350D02*
D03*
X-84350D02*
D03*
X-89350D02*
D03*
X-94350D02*
D03*
X-99350D02*
D03*
X-104350D02*
D03*
X-109350D02*
D03*
X-114350D02*
D03*
X-119350D02*
D03*
X-124350D02*
D03*
X-129350D02*
D03*
X-134350D02*
D03*
X-139350D02*
D03*
X-144350D02*
D03*
X-149350D02*
D03*
X-154350D02*
D03*
X-159350D02*
D03*
X-164350D02*
D03*
X-169350D02*
D03*
X-174350D02*
D03*
X-179350D02*
D03*
X-184350D02*
D03*
X-189350D02*
D03*
X-194350D02*
D03*
X-199350D02*
D03*
X-204350D02*
D03*
X-209350D02*
D03*
X-214350D02*
D03*
X-219350D02*
D03*
X-224350D02*
D03*
X-229350D02*
D03*
X-234350D02*
D03*
X-239350D02*
D03*
X-244350D02*
D03*
X-249350D02*
D03*
X-254350D02*
D03*
X-259350D02*
D03*
X-264350D02*
D03*
X-269350D02*
D03*
X-274350D02*
D03*
X-279350D02*
D03*
X-284350D02*
D03*
X-289350D02*
D03*
X-294350D02*
D03*
X-299350D02*
D03*
X-304350D02*
D03*
X-309350D02*
D03*
X-314350D02*
D03*
X-319350D02*
D03*
X-74350Y-401378D02*
D03*
X-79350D02*
D03*
X-84350D02*
D03*
X-89350D02*
D03*
X-94350D02*
D03*
X-99350D02*
D03*
X-104350D02*
D03*
X-109350D02*
D03*
X-114350D02*
D03*
X-119350D02*
D03*
X-124350D02*
D03*
X-129350D02*
D03*
X-134350D02*
D03*
X-139350D02*
D03*
X-144350D02*
D03*
X-149350D02*
D03*
X-154350D02*
D03*
X-159350D02*
D03*
X-164350D02*
D03*
X-169350D02*
D03*
X-174350D02*
D03*
X-179350D02*
D03*
X-184350D02*
D03*
X-189350D02*
D03*
X-194350D02*
D03*
X-199350D02*
D03*
X-204350D02*
D03*
X-209350D02*
D03*
X-214350D02*
D03*
X-219350D02*
D03*
X-224350D02*
D03*
X-229350D02*
D03*
X-234350D02*
D03*
X-239350D02*
D03*
X-244350D02*
D03*
X-249350D02*
D03*
X-254350D02*
D03*
X-259350D02*
D03*
X-264350D02*
D03*
X-269350D02*
D03*
X-274350D02*
D03*
X-279350D02*
D03*
X-284350D02*
D03*
X-289350D02*
D03*
X-294350D02*
D03*
X-299350D02*
D03*
X-304350D02*
D03*
X-309350D02*
D03*
X-314350D02*
D03*
X-319350D02*
D03*
X74350Y-401378D02*
D03*
X79350D02*
D03*
X84350D02*
D03*
X89350D02*
D03*
X94350D02*
D03*
X99350D02*
D03*
X104350D02*
D03*
X109350D02*
D03*
X114350D02*
D03*
X119350D02*
D03*
X124350D02*
D03*
X129350D02*
D03*
X134350D02*
D03*
X139350D02*
D03*
X144350D02*
D03*
X149350D02*
D03*
X154350D02*
D03*
X159350D02*
D03*
X164350D02*
D03*
X169350D02*
D03*
X174350D02*
D03*
X179350D02*
D03*
X184350D02*
D03*
X189350D02*
D03*
X194350D02*
D03*
X199350D02*
D03*
X204350D02*
D03*
X209350D02*
D03*
X214350D02*
D03*
X219350D02*
D03*
X224350D02*
D03*
X229350D02*
D03*
X234350D02*
D03*
X239350D02*
D03*
X244350D02*
D03*
X249350D02*
D03*
X254350D02*
D03*
X259350D02*
D03*
X264350D02*
D03*
X269350D02*
D03*
X274350D02*
D03*
X279350D02*
D03*
X284350D02*
D03*
X289350D02*
D03*
X294350D02*
D03*
X299350D02*
D03*
X304350D02*
D03*
X309350D02*
D03*
X314350D02*
D03*
X319350D02*
D03*
X74350Y-386024D02*
D03*
X79350D02*
D03*
X84350D02*
D03*
X89350D02*
D03*
X94350D02*
D03*
X99350D02*
D03*
X104350D02*
D03*
X109350D02*
D03*
X114350D02*
D03*
X119350D02*
D03*
X124350D02*
D03*
X129350D02*
D03*
X134350D02*
D03*
X139350D02*
D03*
X144350D02*
D03*
X149350D02*
D03*
X154350D02*
D03*
X159350D02*
D03*
X164350D02*
D03*
X169350D02*
D03*
X174350D02*
D03*
X179350D02*
D03*
X184350D02*
D03*
X189350D02*
D03*
X194350D02*
D03*
X199350D02*
D03*
X204350D02*
D03*
X209350D02*
D03*
X214350D02*
D03*
X219350D02*
D03*
X224350D02*
D03*
X229350D02*
D03*
X234350D02*
D03*
X239350D02*
D03*
X244350D02*
D03*
X249350D02*
D03*
X254350D02*
D03*
X259350D02*
D03*
X264350D02*
D03*
X269350D02*
D03*
X274350D02*
D03*
X279350D02*
D03*
X284350D02*
D03*
X289350D02*
D03*
X294350D02*
D03*
X299350D02*
D03*
X304350D02*
D03*
X309350D02*
D03*
X314350D02*
D03*
X319350D02*
D03*
D31*
X401378Y74350D02*
D03*
Y79350D02*
D03*
Y84350D02*
D03*
Y89350D02*
D03*
Y94350D02*
D03*
Y99350D02*
D03*
Y104350D02*
D03*
Y109350D02*
D03*
Y114350D02*
D03*
Y119350D02*
D03*
Y124350D02*
D03*
Y129350D02*
D03*
Y134350D02*
D03*
Y139350D02*
D03*
Y144350D02*
D03*
Y149350D02*
D03*
Y154350D02*
D03*
Y159350D02*
D03*
Y164350D02*
D03*
Y169350D02*
D03*
Y174350D02*
D03*
Y179350D02*
D03*
Y184350D02*
D03*
Y189350D02*
D03*
Y194350D02*
D03*
Y199350D02*
D03*
Y204350D02*
D03*
Y209350D02*
D03*
Y214350D02*
D03*
Y219350D02*
D03*
Y224350D02*
D03*
Y229350D02*
D03*
Y234350D02*
D03*
Y239350D02*
D03*
Y244350D02*
D03*
Y249350D02*
D03*
Y254350D02*
D03*
Y259350D02*
D03*
Y264350D02*
D03*
Y269350D02*
D03*
Y274350D02*
D03*
Y279350D02*
D03*
Y284350D02*
D03*
Y289350D02*
D03*
Y294350D02*
D03*
Y299350D02*
D03*
Y304350D02*
D03*
Y309350D02*
D03*
Y314350D02*
D03*
Y319350D02*
D03*
X386024Y74350D02*
D03*
Y79350D02*
D03*
Y84350D02*
D03*
Y89350D02*
D03*
Y94350D02*
D03*
Y99350D02*
D03*
Y104350D02*
D03*
Y109350D02*
D03*
Y114350D02*
D03*
Y119350D02*
D03*
Y124350D02*
D03*
Y129350D02*
D03*
Y134350D02*
D03*
Y139350D02*
D03*
Y144350D02*
D03*
Y149350D02*
D03*
Y154350D02*
D03*
Y159350D02*
D03*
Y164350D02*
D03*
Y169350D02*
D03*
Y174350D02*
D03*
Y179350D02*
D03*
Y184350D02*
D03*
Y189350D02*
D03*
Y194350D02*
D03*
Y199350D02*
D03*
Y204350D02*
D03*
Y209350D02*
D03*
Y214350D02*
D03*
Y219350D02*
D03*
Y224350D02*
D03*
Y229350D02*
D03*
Y234350D02*
D03*
Y239350D02*
D03*
Y244350D02*
D03*
Y249350D02*
D03*
Y254350D02*
D03*
Y259350D02*
D03*
Y264350D02*
D03*
Y269350D02*
D03*
Y274350D02*
D03*
Y279350D02*
D03*
Y284350D02*
D03*
Y289350D02*
D03*
Y294350D02*
D03*
Y299350D02*
D03*
Y304350D02*
D03*
Y309350D02*
D03*
Y314350D02*
D03*
Y319350D02*
D03*
X-386023Y74350D02*
D03*
Y79350D02*
D03*
Y84350D02*
D03*
Y89350D02*
D03*
Y94350D02*
D03*
Y99350D02*
D03*
Y104350D02*
D03*
Y109350D02*
D03*
Y114350D02*
D03*
Y119350D02*
D03*
Y124350D02*
D03*
Y129350D02*
D03*
Y134350D02*
D03*
Y139350D02*
D03*
Y144350D02*
D03*
Y149350D02*
D03*
Y154350D02*
D03*
Y159350D02*
D03*
Y164350D02*
D03*
Y169350D02*
D03*
Y174350D02*
D03*
Y179350D02*
D03*
Y184350D02*
D03*
Y189350D02*
D03*
Y194350D02*
D03*
Y199350D02*
D03*
Y204350D02*
D03*
Y209350D02*
D03*
Y214350D02*
D03*
Y219350D02*
D03*
Y224350D02*
D03*
Y229350D02*
D03*
Y234350D02*
D03*
Y239350D02*
D03*
Y244350D02*
D03*
Y249350D02*
D03*
Y254350D02*
D03*
Y259350D02*
D03*
Y264350D02*
D03*
Y269350D02*
D03*
Y274350D02*
D03*
Y279350D02*
D03*
Y284350D02*
D03*
Y289350D02*
D03*
Y294350D02*
D03*
Y299350D02*
D03*
Y304350D02*
D03*
Y309350D02*
D03*
Y314350D02*
D03*
Y319350D02*
D03*
X-401378Y74350D02*
D03*
Y79350D02*
D03*
Y84350D02*
D03*
Y89350D02*
D03*
Y94350D02*
D03*
Y99350D02*
D03*
Y104350D02*
D03*
Y109350D02*
D03*
Y114350D02*
D03*
Y119350D02*
D03*
Y124350D02*
D03*
Y129350D02*
D03*
Y134350D02*
D03*
Y139350D02*
D03*
Y144350D02*
D03*
Y149350D02*
D03*
Y154350D02*
D03*
Y159350D02*
D03*
Y164350D02*
D03*
Y169350D02*
D03*
Y174350D02*
D03*
Y179350D02*
D03*
Y184350D02*
D03*
Y189350D02*
D03*
Y194350D02*
D03*
Y199350D02*
D03*
Y204350D02*
D03*
Y209350D02*
D03*
Y214350D02*
D03*
Y219350D02*
D03*
Y224350D02*
D03*
Y229350D02*
D03*
Y234350D02*
D03*
Y239350D02*
D03*
Y244350D02*
D03*
Y249350D02*
D03*
Y254350D02*
D03*
Y259350D02*
D03*
Y264350D02*
D03*
Y269350D02*
D03*
Y274350D02*
D03*
Y279350D02*
D03*
Y284350D02*
D03*
Y289350D02*
D03*
Y294350D02*
D03*
Y299350D02*
D03*
Y304350D02*
D03*
Y309350D02*
D03*
Y314350D02*
D03*
Y319350D02*
D03*
X-401378Y-74350D02*
D03*
Y-79350D02*
D03*
Y-84350D02*
D03*
Y-89350D02*
D03*
Y-94350D02*
D03*
Y-99350D02*
D03*
Y-104350D02*
D03*
Y-109350D02*
D03*
Y-114350D02*
D03*
Y-119350D02*
D03*
Y-124350D02*
D03*
Y-129350D02*
D03*
Y-134350D02*
D03*
Y-139350D02*
D03*
Y-144350D02*
D03*
Y-149350D02*
D03*
Y-154350D02*
D03*
Y-159350D02*
D03*
Y-164350D02*
D03*
Y-169350D02*
D03*
Y-174350D02*
D03*
Y-179350D02*
D03*
Y-184350D02*
D03*
Y-189350D02*
D03*
Y-194350D02*
D03*
Y-199350D02*
D03*
Y-204350D02*
D03*
Y-209350D02*
D03*
Y-214350D02*
D03*
Y-219350D02*
D03*
Y-224350D02*
D03*
Y-229350D02*
D03*
Y-234350D02*
D03*
Y-239350D02*
D03*
Y-244350D02*
D03*
Y-249350D02*
D03*
Y-254350D02*
D03*
Y-259350D02*
D03*
Y-264350D02*
D03*
Y-269350D02*
D03*
Y-274350D02*
D03*
Y-279350D02*
D03*
Y-284350D02*
D03*
Y-289350D02*
D03*
Y-294350D02*
D03*
Y-299350D02*
D03*
Y-304350D02*
D03*
Y-309350D02*
D03*
Y-314350D02*
D03*
Y-319350D02*
D03*
X-386024Y-74350D02*
D03*
Y-79350D02*
D03*
Y-84350D02*
D03*
Y-89350D02*
D03*
Y-94350D02*
D03*
Y-99350D02*
D03*
Y-104350D02*
D03*
Y-109350D02*
D03*
Y-114350D02*
D03*
Y-119350D02*
D03*
Y-124350D02*
D03*
Y-129350D02*
D03*
Y-134350D02*
D03*
Y-139350D02*
D03*
Y-144350D02*
D03*
Y-149350D02*
D03*
Y-154350D02*
D03*
Y-159350D02*
D03*
Y-164350D02*
D03*
Y-169350D02*
D03*
Y-174350D02*
D03*
Y-179350D02*
D03*
Y-184350D02*
D03*
Y-189350D02*
D03*
Y-194350D02*
D03*
Y-199350D02*
D03*
Y-204350D02*
D03*
Y-209350D02*
D03*
Y-214350D02*
D03*
Y-219350D02*
D03*
Y-224350D02*
D03*
Y-229350D02*
D03*
Y-234350D02*
D03*
Y-239350D02*
D03*
Y-244350D02*
D03*
Y-249350D02*
D03*
Y-254350D02*
D03*
Y-259350D02*
D03*
Y-264350D02*
D03*
Y-269350D02*
D03*
Y-274350D02*
D03*
Y-279350D02*
D03*
Y-284350D02*
D03*
Y-289350D02*
D03*
Y-294350D02*
D03*
Y-299350D02*
D03*
Y-304350D02*
D03*
Y-309350D02*
D03*
Y-314350D02*
D03*
Y-319350D02*
D03*
X386023Y-74350D02*
D03*
Y-79350D02*
D03*
Y-84350D02*
D03*
Y-89350D02*
D03*
Y-94350D02*
D03*
Y-99350D02*
D03*
Y-104350D02*
D03*
Y-109350D02*
D03*
Y-114350D02*
D03*
Y-119350D02*
D03*
Y-124350D02*
D03*
Y-129350D02*
D03*
Y-134350D02*
D03*
Y-139350D02*
D03*
Y-144350D02*
D03*
Y-149350D02*
D03*
Y-154350D02*
D03*
Y-159350D02*
D03*
Y-164350D02*
D03*
Y-169350D02*
D03*
Y-174350D02*
D03*
Y-179350D02*
D03*
Y-184350D02*
D03*
Y-189350D02*
D03*
Y-194350D02*
D03*
Y-199350D02*
D03*
Y-204350D02*
D03*
Y-209350D02*
D03*
Y-214350D02*
D03*
Y-219350D02*
D03*
Y-224350D02*
D03*
Y-229350D02*
D03*
Y-234350D02*
D03*
Y-239350D02*
D03*
Y-244350D02*
D03*
Y-249350D02*
D03*
Y-254350D02*
D03*
Y-259350D02*
D03*
Y-264350D02*
D03*
Y-269350D02*
D03*
Y-274350D02*
D03*
Y-279350D02*
D03*
Y-284350D02*
D03*
Y-289350D02*
D03*
Y-294350D02*
D03*
Y-299350D02*
D03*
Y-304350D02*
D03*
Y-309350D02*
D03*
Y-314350D02*
D03*
Y-319350D02*
D03*
X401378Y-74350D02*
D03*
Y-79350D02*
D03*
Y-84350D02*
D03*
Y-89350D02*
D03*
Y-94350D02*
D03*
Y-99350D02*
D03*
Y-104350D02*
D03*
Y-109350D02*
D03*
Y-114350D02*
D03*
Y-119350D02*
D03*
Y-124350D02*
D03*
Y-129350D02*
D03*
Y-134350D02*
D03*
Y-139350D02*
D03*
Y-144350D02*
D03*
Y-149350D02*
D03*
Y-154350D02*
D03*
Y-159350D02*
D03*
Y-164350D02*
D03*
Y-169350D02*
D03*
Y-174350D02*
D03*
Y-179350D02*
D03*
Y-184350D02*
D03*
Y-189350D02*
D03*
Y-194350D02*
D03*
Y-199350D02*
D03*
Y-204350D02*
D03*
Y-209350D02*
D03*
Y-214350D02*
D03*
Y-219350D02*
D03*
Y-224350D02*
D03*
Y-229350D02*
D03*
Y-234350D02*
D03*
Y-239350D02*
D03*
Y-244350D02*
D03*
Y-249350D02*
D03*
Y-254350D02*
D03*
Y-259350D02*
D03*
Y-264350D02*
D03*
Y-269350D02*
D03*
Y-274350D02*
D03*
Y-279350D02*
D03*
Y-284350D02*
D03*
Y-289350D02*
D03*
Y-294350D02*
D03*
Y-299350D02*
D03*
Y-304350D02*
D03*
Y-309350D02*
D03*
Y-314350D02*
D03*
Y-319350D02*
D03*
D32*
X-45498Y257178D02*
D03*
X-49952Y252723D02*
D03*
X-45498Y215839D02*
D03*
X-49952Y211385D02*
D03*
X-45498Y174500D02*
D03*
X-49952Y170046D02*
D03*
X-45498Y133162D02*
D03*
X-49952Y128708D02*
D03*
X-45498Y91823D02*
D03*
X-49952Y87369D02*
D03*
X-45498Y50485D02*
D03*
X-49952Y46031D02*
D03*
X-45498Y9146D02*
D03*
X-49952Y4692D02*
D03*
X-86836Y9245D02*
D03*
X-91290Y4790D02*
D03*
X-86836Y50583D02*
D03*
X-91290Y46129D02*
D03*
X-86836Y91922D02*
D03*
X-91290Y87467D02*
D03*
X-86836Y133260D02*
D03*
X-91290Y128806D02*
D03*
X-86836Y174599D02*
D03*
X-91290Y170145D02*
D03*
X-86836Y215937D02*
D03*
X-91290Y211483D02*
D03*
X-86836Y257276D02*
D03*
X-91290Y252822D02*
D03*
X-87381Y339588D02*
D03*
X-91835Y335134D02*
D03*
X-86836Y298615D02*
D03*
X-91290Y294160D02*
D03*
X-128175Y9343D02*
D03*
X-132629Y4889D02*
D03*
X-128175Y50682D02*
D03*
X-132629Y46227D02*
D03*
X-128175Y92020D02*
D03*
X-132629Y87566D02*
D03*
X-128175Y133359D02*
D03*
X-132629Y128904D02*
D03*
X-128175Y174697D02*
D03*
X-132629Y170243D02*
D03*
X-128175Y216036D02*
D03*
X-132629Y211582D02*
D03*
X-128175Y257374D02*
D03*
X-132629Y252920D02*
D03*
X-128719Y339687D02*
D03*
X-133174Y335232D02*
D03*
X-128175Y298713D02*
D03*
X-132629Y294259D02*
D03*
X-169513Y9441D02*
D03*
X-173968Y4987D02*
D03*
X-169513Y50780D02*
D03*
X-173968Y46326D02*
D03*
X-169513Y92119D02*
D03*
X-173968Y87664D02*
D03*
X-169513Y133457D02*
D03*
X-173968Y129003D02*
D03*
X-169513Y174796D02*
D03*
X-173968Y170342D02*
D03*
X-169513Y216134D02*
D03*
X-173968Y211680D02*
D03*
X-169513Y257473D02*
D03*
X-173968Y253019D02*
D03*
X-170058Y339785D02*
D03*
X-174512Y335331D02*
D03*
X-169513Y298811D02*
D03*
X-173968Y294357D02*
D03*
X-210852Y9540D02*
D03*
X-215306Y5086D02*
D03*
X-210852Y50878D02*
D03*
X-215306Y46424D02*
D03*
X-210852Y92217D02*
D03*
X-215306Y87763D02*
D03*
X-210852Y133555D02*
D03*
X-215306Y129101D02*
D03*
X-210852Y174894D02*
D03*
X-215306Y170440D02*
D03*
X-210852Y216233D02*
D03*
X-215306Y211778D02*
D03*
X-210852Y257571D02*
D03*
X-215306Y253117D02*
D03*
X-211397Y339883D02*
D03*
X-215851Y335429D02*
D03*
X-210852Y298910D02*
D03*
X-215306Y294456D02*
D03*
X-252190Y9638D02*
D03*
X-256645Y5184D02*
D03*
X-252190Y50977D02*
D03*
X-256645Y46523D02*
D03*
X-252190Y92315D02*
D03*
X-256645Y87861D02*
D03*
X-252190Y133654D02*
D03*
X-256645Y129200D02*
D03*
X-252190Y174993D02*
D03*
X-256645Y170538D02*
D03*
X-252190Y216331D02*
D03*
X-256645Y211877D02*
D03*
X-252190Y257670D02*
D03*
X-256645Y253216D02*
D03*
X-252735Y339982D02*
D03*
X-257189Y335528D02*
D03*
X-252190Y299008D02*
D03*
X-256645Y294554D02*
D03*
X-293529Y9737D02*
D03*
X-297983Y5283D02*
D03*
X-293529Y51075D02*
D03*
X-297983Y46621D02*
D03*
X-293529Y92414D02*
D03*
X-297983Y87960D02*
D03*
X-293529Y133752D02*
D03*
X-297983Y129298D02*
D03*
X-293529Y175091D02*
D03*
X-297983Y170637D02*
D03*
X-293529Y216429D02*
D03*
X-297983Y211975D02*
D03*
X-293529Y257768D02*
D03*
X-297983Y253314D02*
D03*
X-294074Y340080D02*
D03*
X-298528Y335626D02*
D03*
X-293529Y299107D02*
D03*
X-297983Y294652D02*
D03*
X-334868Y9835D02*
D03*
X-339322Y5381D02*
D03*
X-334868Y51174D02*
D03*
X-339322Y46720D02*
D03*
X-334868Y92512D02*
D03*
X-339322Y88058D02*
D03*
X-334868Y133851D02*
D03*
X-339322Y129397D02*
D03*
X-334868Y175189D02*
D03*
X-339322Y170735D02*
D03*
X-334868Y216528D02*
D03*
X-339322Y212074D02*
D03*
X-334868Y257867D02*
D03*
X-339322Y253412D02*
D03*
X-335412Y340179D02*
D03*
X-339867Y335725D02*
D03*
X-334868Y299205D02*
D03*
X-339322Y294751D02*
D03*
X-45498Y298516D02*
D03*
X-49952Y294062D02*
D03*
X-45498Y339855D02*
D03*
X-49952Y335401D02*
D03*
X45498Y-257178D02*
D03*
X49952Y-252723D02*
D03*
X45498Y-215839D02*
D03*
X49952Y-211385D02*
D03*
X45498Y-174500D02*
D03*
X49952Y-170046D02*
D03*
X45498Y-133162D02*
D03*
X49952Y-128708D02*
D03*
X45498Y-91823D02*
D03*
X49952Y-87369D02*
D03*
X45498Y-50485D02*
D03*
X49952Y-46031D02*
D03*
X45498Y-9146D02*
D03*
X49952Y-4692D02*
D03*
X86836Y-9245D02*
D03*
X91290Y-4790D02*
D03*
X86836Y-50583D02*
D03*
X91290Y-46129D02*
D03*
X86836Y-91922D02*
D03*
X91290Y-87467D02*
D03*
X86836Y-133260D02*
D03*
X91290Y-128806D02*
D03*
X86836Y-174599D02*
D03*
X91290Y-170145D02*
D03*
X86836Y-215937D02*
D03*
X91290Y-211483D02*
D03*
X86836Y-257276D02*
D03*
X91290Y-252822D02*
D03*
X87381Y-339588D02*
D03*
X91835Y-335134D02*
D03*
X86836Y-298615D02*
D03*
X91290Y-294160D02*
D03*
X128175Y-9343D02*
D03*
X132629Y-4889D02*
D03*
X128175Y-50682D02*
D03*
X132629Y-46227D02*
D03*
X128175Y-92020D02*
D03*
X132629Y-87566D02*
D03*
X128175Y-133359D02*
D03*
X132629Y-128904D02*
D03*
X128175Y-174697D02*
D03*
X132629Y-170243D02*
D03*
X128175Y-216036D02*
D03*
X132629Y-211582D02*
D03*
X128175Y-257374D02*
D03*
X132629Y-252920D02*
D03*
X128719Y-339687D02*
D03*
X133174Y-335232D02*
D03*
X128175Y-298713D02*
D03*
X132629Y-294259D02*
D03*
X169513Y-9441D02*
D03*
X173968Y-4987D02*
D03*
X169513Y-50780D02*
D03*
X173968Y-46326D02*
D03*
X169513Y-92119D02*
D03*
X173968Y-87664D02*
D03*
X169513Y-133457D02*
D03*
X173968Y-129003D02*
D03*
X169513Y-174796D02*
D03*
X173968Y-170342D02*
D03*
X169513Y-216134D02*
D03*
X173968Y-211680D02*
D03*
X169513Y-257473D02*
D03*
X173968Y-253019D02*
D03*
X170058Y-339785D02*
D03*
X174512Y-335331D02*
D03*
X169513Y-298811D02*
D03*
X173968Y-294357D02*
D03*
X210852Y-9540D02*
D03*
X215306Y-5086D02*
D03*
X210852Y-50878D02*
D03*
X215306Y-46424D02*
D03*
X210852Y-92217D02*
D03*
X215306Y-87763D02*
D03*
X210852Y-133555D02*
D03*
X215306Y-129101D02*
D03*
X210852Y-174894D02*
D03*
X215306Y-170440D02*
D03*
X210852Y-216233D02*
D03*
X215306Y-211778D02*
D03*
X210852Y-257571D02*
D03*
X215306Y-253117D02*
D03*
X211397Y-339883D02*
D03*
X215851Y-335429D02*
D03*
X210852Y-298910D02*
D03*
X215306Y-294456D02*
D03*
X252190Y-9638D02*
D03*
X256645Y-5184D02*
D03*
X252190Y-50977D02*
D03*
X256645Y-46523D02*
D03*
X252190Y-92315D02*
D03*
X256645Y-87861D02*
D03*
X252190Y-133654D02*
D03*
X256645Y-129200D02*
D03*
X252190Y-174993D02*
D03*
X256645Y-170538D02*
D03*
X252190Y-216331D02*
D03*
X256645Y-211877D02*
D03*
X252190Y-257670D02*
D03*
X256645Y-253216D02*
D03*
X252735Y-339982D02*
D03*
X257189Y-335528D02*
D03*
X252190Y-299008D02*
D03*
X256645Y-294554D02*
D03*
X293529Y-9737D02*
D03*
X297983Y-5283D02*
D03*
X293529Y-51075D02*
D03*
X297983Y-46621D02*
D03*
X293529Y-92414D02*
D03*
X297983Y-87960D02*
D03*
X293529Y-133752D02*
D03*
X297983Y-129298D02*
D03*
X293529Y-175091D02*
D03*
X297983Y-170637D02*
D03*
X293529Y-216429D02*
D03*
X297983Y-211975D02*
D03*
X293529Y-257768D02*
D03*
X297983Y-253314D02*
D03*
X294074Y-340080D02*
D03*
X298528Y-335626D02*
D03*
X293529Y-299107D02*
D03*
X297983Y-294652D02*
D03*
X334868Y-9835D02*
D03*
X339322Y-5381D02*
D03*
X334868Y-51174D02*
D03*
X339322Y-46720D02*
D03*
X334868Y-92512D02*
D03*
X339322Y-88058D02*
D03*
X334868Y-133851D02*
D03*
X339322Y-129397D02*
D03*
X334868Y-175189D02*
D03*
X339322Y-170735D02*
D03*
X334868Y-216528D02*
D03*
X339322Y-212074D02*
D03*
X334868Y-257867D02*
D03*
X339322Y-253412D02*
D03*
X335412Y-340179D02*
D03*
X339867Y-335725D02*
D03*
X334868Y-299205D02*
D03*
X339322Y-294751D02*
D03*
X45498Y-298516D02*
D03*
X49952Y-294062D02*
D03*
X45498Y-339855D02*
D03*
X49952Y-335401D02*
D03*
X-4159Y9048D02*
D03*
X-8613Y4594D02*
D03*
D33*
X-9843Y372047D02*
D03*
X9843D02*
D03*
X372047Y299213D02*
D03*
Y279528D02*
D03*
X337668Y34379D02*
D03*
X323749Y48298D02*
D03*
X296330Y34379D02*
D03*
X282410Y48298D02*
D03*
X320866Y372047D02*
D03*
X340551D02*
D03*
X279527Y372047D02*
D03*
X299213D02*
D03*
X238189Y372047D02*
D03*
X257874D02*
D03*
X196850Y372047D02*
D03*
X216535D02*
D03*
X155512Y372047D02*
D03*
X175197D02*
D03*
X114173Y372047D02*
D03*
X133858D02*
D03*
X72835Y372047D02*
D03*
X92520D02*
D03*
X31496Y372047D02*
D03*
X51181D02*
D03*
X297019Y323749D02*
D03*
X283099Y337668D02*
D03*
X338357Y323749D02*
D03*
X324438Y337668D02*
D03*
X255680Y323749D02*
D03*
X241761Y337668D02*
D03*
X214342Y323749D02*
D03*
X200422Y337668D02*
D03*
X173003Y323749D02*
D03*
X159084Y337668D02*
D03*
X131665Y323749D02*
D03*
X117745Y337668D02*
D03*
X90326Y323749D02*
D03*
X76407Y337668D02*
D03*
X48987Y323749D02*
D03*
X35068Y337668D02*
D03*
X7649Y323749D02*
D03*
X-6271Y337668D02*
D03*
X296920Y282410D02*
D03*
X283001Y296330D02*
D03*
X338259Y282410D02*
D03*
X324340Y296330D02*
D03*
X255582Y282410D02*
D03*
X241662Y296330D02*
D03*
X214243Y282410D02*
D03*
X200324Y296330D02*
D03*
X172905Y282410D02*
D03*
X158985Y296330D02*
D03*
X131566Y282410D02*
D03*
X117647Y296330D02*
D03*
X90228Y282410D02*
D03*
X76308Y296330D02*
D03*
X48889Y282410D02*
D03*
X34969Y296330D02*
D03*
X7550Y282410D02*
D03*
X-6369Y296330D02*
D03*
X296822Y241072D02*
D03*
X282903Y254991D02*
D03*
X338160Y241072D02*
D03*
X324241Y254991D02*
D03*
X255483Y241072D02*
D03*
X241564Y254991D02*
D03*
X214145Y241072D02*
D03*
X200225Y254991D02*
D03*
X172806Y241072D02*
D03*
X158887Y254991D02*
D03*
X131468Y241072D02*
D03*
X117548Y254991D02*
D03*
X90129Y241072D02*
D03*
X76210Y254991D02*
D03*
X48790Y241072D02*
D03*
X34871Y254991D02*
D03*
X7452Y241072D02*
D03*
X-6468Y254991D02*
D03*
X296724Y199733D02*
D03*
X282804Y213653D02*
D03*
X338062Y199733D02*
D03*
X324143Y213653D02*
D03*
X255385Y199733D02*
D03*
X241465Y213653D02*
D03*
X214046Y199733D02*
D03*
X200127Y213653D02*
D03*
X172708Y199733D02*
D03*
X158788Y213653D02*
D03*
X131369Y199733D02*
D03*
X117450Y213653D02*
D03*
X90031Y199733D02*
D03*
X76111Y213653D02*
D03*
X48692Y199733D02*
D03*
X34773Y213653D02*
D03*
X7354Y199733D02*
D03*
X-6566Y213653D02*
D03*
X296625Y158395D02*
D03*
X282706Y172314D02*
D03*
X337964Y158395D02*
D03*
X324044Y172314D02*
D03*
X255287Y158395D02*
D03*
X241367Y172314D02*
D03*
X213948Y158395D02*
D03*
X200028Y172314D02*
D03*
X172609Y158395D02*
D03*
X158690Y172314D02*
D03*
X131271Y158395D02*
D03*
X117351Y172314D02*
D03*
X89932Y158395D02*
D03*
X76013Y172314D02*
D03*
X48594Y158395D02*
D03*
X34674Y172314D02*
D03*
X7255Y158395D02*
D03*
X-6664Y172314D02*
D03*
X296527Y117056D02*
D03*
X282607Y130975D02*
D03*
X337865Y117056D02*
D03*
X323946Y130975D02*
D03*
X255188Y117056D02*
D03*
X241269Y130975D02*
D03*
X213849Y117056D02*
D03*
X199930Y130975D02*
D03*
X172511Y117056D02*
D03*
X158591Y130975D02*
D03*
X131172Y117056D02*
D03*
X117253Y130975D02*
D03*
X89834Y117056D02*
D03*
X75914Y130975D02*
D03*
X48495Y117056D02*
D03*
X34576Y130975D02*
D03*
X7157Y117056D02*
D03*
X-6763Y130975D02*
D03*
X296428Y75717D02*
D03*
X282509Y89637D02*
D03*
X337767Y75717D02*
D03*
X323847Y89637D02*
D03*
X255090Y75718D02*
D03*
X241170Y89637D02*
D03*
X213751Y75718D02*
D03*
X199832Y89637D02*
D03*
X172413Y75718D02*
D03*
X158493Y89637D02*
D03*
X131074Y75718D02*
D03*
X117155Y89637D02*
D03*
X89735Y75718D02*
D03*
X75816Y89637D02*
D03*
X48397Y75718D02*
D03*
X34477Y89637D02*
D03*
X7058Y75718D02*
D03*
X-6861Y89637D02*
D03*
X6960Y34379D02*
D03*
X-6960Y48298D02*
D03*
X48298Y34379D02*
D03*
X34379Y48298D02*
D03*
X89637Y34379D02*
D03*
X75718Y48298D02*
D03*
X130975Y34379D02*
D03*
X117056Y48298D02*
D03*
X172314Y34379D02*
D03*
X158395Y48298D02*
D03*
X213653Y34379D02*
D03*
X199733Y48298D02*
D03*
X254991Y34379D02*
D03*
X241072Y48298D02*
D03*
X372146Y340551D02*
D03*
Y320866D02*
D03*
X371457Y51181D02*
D03*
Y31496D02*
D03*
X371555Y92520D02*
D03*
Y72835D02*
D03*
X371654Y133858D02*
D03*
Y114173D02*
D03*
X371752Y175197D02*
D03*
Y155512D02*
D03*
X371850Y216535D02*
D03*
Y196850D02*
D03*
X371949Y257874D02*
D03*
Y238189D02*
D03*
X-257874Y371949D02*
D03*
X-238189D02*
D03*
X-216535Y371850D02*
D03*
X-196850D02*
D03*
X-175197Y371752D02*
D03*
X-155512D02*
D03*
X-133858Y371654D02*
D03*
X-114173D02*
D03*
X-92520Y371555D02*
D03*
X-72835D02*
D03*
X-51181Y371457D02*
D03*
X-31496D02*
D03*
X-340551Y372146D02*
D03*
X-320866D02*
D03*
X-34379Y254991D02*
D03*
X-48298Y241072D02*
D03*
X-34379Y213653D02*
D03*
X-48298Y199733D02*
D03*
X-34379Y172314D02*
D03*
X-48298Y158395D02*
D03*
X-34379Y130975D02*
D03*
X-48298Y117056D02*
D03*
X-34379Y89637D02*
D03*
X-48298Y75718D02*
D03*
X-34379Y48298D02*
D03*
X-48298Y34379D02*
D03*
X-34379Y6960D02*
D03*
X-48298Y-6960D02*
D03*
X-75718Y7058D02*
D03*
X-89637Y-6861D02*
D03*
X-75718Y48397D02*
D03*
X-89637Y34477D02*
D03*
X-75718Y89735D02*
D03*
X-89637Y75816D02*
D03*
X-75718Y131074D02*
D03*
X-89637Y117155D02*
D03*
X-75718Y172413D02*
D03*
X-89637Y158493D02*
D03*
X-75718Y213751D02*
D03*
X-89637Y199832D02*
D03*
X-75718Y255090D02*
D03*
X-89637Y241170D02*
D03*
X-75717Y337767D02*
D03*
X-89637Y323847D02*
D03*
X-75717Y296428D02*
D03*
X-89637Y282509D02*
D03*
X-117056Y7157D02*
D03*
X-130975Y-6763D02*
D03*
X-117056Y48495D02*
D03*
X-130975Y34576D02*
D03*
X-117056Y89834D02*
D03*
X-130975Y75914D02*
D03*
X-117056Y131172D02*
D03*
X-130975Y117253D02*
D03*
X-117056Y172511D02*
D03*
X-130975Y158591D02*
D03*
X-117056Y213849D02*
D03*
X-130975Y199930D02*
D03*
X-117056Y255188D02*
D03*
X-130975Y241269D02*
D03*
X-117056Y337865D02*
D03*
X-130975Y323946D02*
D03*
X-117056Y296527D02*
D03*
X-130975Y282607D02*
D03*
X-158395Y7255D02*
D03*
X-172314Y-6664D02*
D03*
X-158395Y48594D02*
D03*
X-172314Y34674D02*
D03*
X-158395Y89932D02*
D03*
X-172314Y76013D02*
D03*
X-158395Y131271D02*
D03*
X-172314Y117351D02*
D03*
X-158395Y172609D02*
D03*
X-172314Y158690D02*
D03*
X-158395Y213948D02*
D03*
X-172314Y200028D02*
D03*
X-158395Y255287D02*
D03*
X-172314Y241367D02*
D03*
X-158395Y337964D02*
D03*
X-172314Y324044D02*
D03*
X-158395Y296625D02*
D03*
X-172314Y282706D02*
D03*
X-199733Y7354D02*
D03*
X-213653Y-6566D02*
D03*
X-199733Y48692D02*
D03*
X-213653Y34773D02*
D03*
X-199733Y90031D02*
D03*
X-213653Y76111D02*
D03*
X-199733Y131369D02*
D03*
X-213653Y117450D02*
D03*
X-199733Y172708D02*
D03*
X-213653Y158788D02*
D03*
X-199733Y214046D02*
D03*
X-213653Y200127D02*
D03*
X-199733Y255385D02*
D03*
X-213653Y241465D02*
D03*
X-199733Y338062D02*
D03*
X-213653Y324143D02*
D03*
X-199733Y296724D02*
D03*
X-213653Y282804D02*
D03*
X-241072Y7452D02*
D03*
X-254991Y-6468D02*
D03*
X-241072Y48790D02*
D03*
X-254991Y34871D02*
D03*
X-241072Y90129D02*
D03*
X-254991Y76210D02*
D03*
X-241072Y131468D02*
D03*
X-254991Y117548D02*
D03*
X-241072Y172806D02*
D03*
X-254991Y158887D02*
D03*
X-241072Y214145D02*
D03*
X-254991Y200225D02*
D03*
X-241072Y255483D02*
D03*
X-254991Y241564D02*
D03*
X-241072Y338160D02*
D03*
X-254991Y324241D02*
D03*
X-241072Y296822D02*
D03*
X-254991Y282903D02*
D03*
X-282410Y7550D02*
D03*
X-296330Y-6369D02*
D03*
X-282410Y48889D02*
D03*
X-296330Y34969D02*
D03*
X-282410Y90228D02*
D03*
X-296330Y76308D02*
D03*
X-282410Y131566D02*
D03*
X-296330Y117647D02*
D03*
X-282410Y172905D02*
D03*
X-296330Y158985D02*
D03*
X-282410Y214243D02*
D03*
X-296330Y200324D02*
D03*
X-282410Y255582D02*
D03*
X-296330Y241662D02*
D03*
X-282410Y338259D02*
D03*
X-296330Y324340D02*
D03*
X-282410Y296920D02*
D03*
X-296330Y283001D02*
D03*
X-323749Y7649D02*
D03*
X-337668Y-6271D02*
D03*
X-323749Y48987D02*
D03*
X-337668Y35068D02*
D03*
X-323749Y90326D02*
D03*
X-337668Y76407D02*
D03*
X-323749Y131665D02*
D03*
X-337668Y117745D02*
D03*
X-323749Y173003D02*
D03*
X-337668Y159084D02*
D03*
X-323749Y214342D02*
D03*
X-337668Y200422D02*
D03*
X-323749Y255680D02*
D03*
X-337668Y241761D02*
D03*
X-323749Y338357D02*
D03*
X-337668Y324438D02*
D03*
X-323749Y297019D02*
D03*
X-337668Y283099D02*
D03*
X-372047Y31496D02*
D03*
Y51181D02*
D03*
X-372047Y72835D02*
D03*
Y92520D02*
D03*
X-372047Y114173D02*
D03*
Y133858D02*
D03*
X-372047Y155512D02*
D03*
Y175197D02*
D03*
X-372047Y196850D02*
D03*
Y216535D02*
D03*
X-372047Y238189D02*
D03*
Y257874D02*
D03*
X-372047Y279527D02*
D03*
Y299213D02*
D03*
X-372047Y320866D02*
D03*
Y340551D02*
D03*
X-34379Y296330D02*
D03*
X-48298Y282410D02*
D03*
X-34379Y337668D02*
D03*
X-48298Y323749D02*
D03*
X-299213Y372047D02*
D03*
X-279528D02*
D03*
X-372047Y-9843D02*
D03*
Y9843D02*
D03*
X-371949Y-257874D02*
D03*
Y-238189D02*
D03*
X-371850Y-216535D02*
D03*
Y-196850D02*
D03*
X-371752Y-175197D02*
D03*
Y-155512D02*
D03*
X-371654Y-133858D02*
D03*
Y-114173D02*
D03*
X-371555Y-92520D02*
D03*
Y-72835D02*
D03*
X-371457Y-51181D02*
D03*
Y-31496D02*
D03*
X-372146Y-340551D02*
D03*
Y-320866D02*
D03*
X-254991Y-34379D02*
D03*
X-241072Y-48298D02*
D03*
X-213653Y-34379D02*
D03*
X-199733Y-48298D02*
D03*
X-172314Y-34379D02*
D03*
X-158395Y-48298D02*
D03*
X-130975Y-34379D02*
D03*
X-117056Y-48298D02*
D03*
X-89637Y-34379D02*
D03*
X-75718Y-48298D02*
D03*
X-48298Y-34379D02*
D03*
X-34379Y-48298D02*
D03*
X-6960Y-34379D02*
D03*
X6960Y-48298D02*
D03*
X-7058Y-75718D02*
D03*
X6861Y-89637D02*
D03*
X-48397Y-75718D02*
D03*
X-34477Y-89637D02*
D03*
X-89735Y-75718D02*
D03*
X-75816Y-89637D02*
D03*
X-131074Y-75718D02*
D03*
X-117155Y-89637D02*
D03*
X-172413Y-75718D02*
D03*
X-158493Y-89637D02*
D03*
X-213751Y-75718D02*
D03*
X-199832Y-89637D02*
D03*
X-255090Y-75718D02*
D03*
X-241170Y-89637D02*
D03*
X-337767Y-75717D02*
D03*
X-323847Y-89637D02*
D03*
X-296428Y-75717D02*
D03*
X-282509Y-89637D02*
D03*
X-7157Y-117056D02*
D03*
X6763Y-130975D02*
D03*
X-48495Y-117056D02*
D03*
X-34576Y-130975D02*
D03*
X-89834Y-117056D02*
D03*
X-75914Y-130975D02*
D03*
X-131172Y-117056D02*
D03*
X-117253Y-130975D02*
D03*
X-172511Y-117056D02*
D03*
X-158591Y-130975D02*
D03*
X-213849Y-117056D02*
D03*
X-199930Y-130975D02*
D03*
X-255188Y-117056D02*
D03*
X-241269Y-130975D02*
D03*
X-337865Y-117056D02*
D03*
X-323946Y-130975D02*
D03*
X-296527Y-117056D02*
D03*
X-282607Y-130975D02*
D03*
X-7255Y-158395D02*
D03*
X6664Y-172314D02*
D03*
X-48594Y-158395D02*
D03*
X-34674Y-172314D02*
D03*
X-89932Y-158395D02*
D03*
X-76013Y-172314D02*
D03*
X-131271Y-158395D02*
D03*
X-117351Y-172314D02*
D03*
X-172609Y-158395D02*
D03*
X-158690Y-172314D02*
D03*
X-213948Y-158395D02*
D03*
X-200028Y-172314D02*
D03*
X-255287Y-158395D02*
D03*
X-241367Y-172314D02*
D03*
X-337964Y-158395D02*
D03*
X-324044Y-172314D02*
D03*
X-296625Y-158395D02*
D03*
X-282706Y-172314D02*
D03*
X-7354Y-199733D02*
D03*
X6566Y-213653D02*
D03*
X-48692Y-199733D02*
D03*
X-34773Y-213653D02*
D03*
X-90031Y-199733D02*
D03*
X-76111Y-213653D02*
D03*
X-131369Y-199733D02*
D03*
X-117450Y-213653D02*
D03*
X-172708Y-199733D02*
D03*
X-158788Y-213653D02*
D03*
X-214046Y-199733D02*
D03*
X-200127Y-213653D02*
D03*
X-255385Y-199733D02*
D03*
X-241465Y-213653D02*
D03*
X-338062Y-199733D02*
D03*
X-324143Y-213653D02*
D03*
X-296724Y-199733D02*
D03*
X-282804Y-213653D02*
D03*
X-7452Y-241072D02*
D03*
X6468Y-254991D02*
D03*
X-48790Y-241072D02*
D03*
X-34871Y-254991D02*
D03*
X-90129Y-241072D02*
D03*
X-76210Y-254991D02*
D03*
X-131468Y-241072D02*
D03*
X-117548Y-254991D02*
D03*
X-172806Y-241072D02*
D03*
X-158887Y-254991D02*
D03*
X-214145Y-241072D02*
D03*
X-200225Y-254991D02*
D03*
X-255483Y-241072D02*
D03*
X-241564Y-254991D02*
D03*
X-338160Y-241072D02*
D03*
X-324241Y-254991D02*
D03*
X-296822Y-241072D02*
D03*
X-282903Y-254991D02*
D03*
X-7550Y-282410D02*
D03*
X6369Y-296330D02*
D03*
X-48889Y-282410D02*
D03*
X-34969Y-296330D02*
D03*
X-90228Y-282410D02*
D03*
X-76308Y-296330D02*
D03*
X-131566Y-282410D02*
D03*
X-117647Y-296330D02*
D03*
X-172905Y-282410D02*
D03*
X-158985Y-296330D02*
D03*
X-214243Y-282410D02*
D03*
X-200324Y-296330D02*
D03*
X-255582Y-282410D02*
D03*
X-241662Y-296330D02*
D03*
X-338259Y-282410D02*
D03*
X-324340Y-296330D02*
D03*
X-296920Y-282410D02*
D03*
X-283001Y-296330D02*
D03*
X-7649Y-323749D02*
D03*
X6271Y-337668D02*
D03*
X-48987Y-323749D02*
D03*
X-35068Y-337668D02*
D03*
X-90326Y-323749D02*
D03*
X-76407Y-337668D02*
D03*
X-131665Y-323749D02*
D03*
X-117745Y-337668D02*
D03*
X-173003Y-323749D02*
D03*
X-159084Y-337668D02*
D03*
X-214342Y-323749D02*
D03*
X-200422Y-337668D02*
D03*
X-255680Y-323749D02*
D03*
X-241761Y-337668D02*
D03*
X-338357Y-323749D02*
D03*
X-324438Y-337668D02*
D03*
X-297019Y-323749D02*
D03*
X-283099Y-337668D02*
D03*
X-31496Y-372047D02*
D03*
X-51181D02*
D03*
X-72835Y-372047D02*
D03*
X-92520D02*
D03*
X-114173Y-372047D02*
D03*
X-133858D02*
D03*
X-155512Y-372047D02*
D03*
X-175197D02*
D03*
X-196850Y-372047D02*
D03*
X-216535D02*
D03*
X-238189Y-372047D02*
D03*
X-257874D02*
D03*
X-279527Y-372047D02*
D03*
X-299213D02*
D03*
X-320866Y-372047D02*
D03*
X-340551D02*
D03*
X-296330Y-34379D02*
D03*
X-282410Y-48298D02*
D03*
X-337668Y-34379D02*
D03*
X-323749Y-48298D02*
D03*
X-372047Y-299213D02*
D03*
Y-279528D02*
D03*
X9843Y-372047D02*
D03*
X-9843D02*
D03*
X257874Y-371949D02*
D03*
X238189D02*
D03*
X216535Y-371850D02*
D03*
X196850D02*
D03*
X175197Y-371752D02*
D03*
X155512D02*
D03*
X133858Y-371654D02*
D03*
X114173D02*
D03*
X92520Y-371555D02*
D03*
X72835D02*
D03*
X51181Y-371457D02*
D03*
X31496D02*
D03*
X340551Y-372146D02*
D03*
X320866D02*
D03*
X34379Y-254991D02*
D03*
X48298Y-241072D02*
D03*
X34379Y-213653D02*
D03*
X48298Y-199733D02*
D03*
X34379Y-172314D02*
D03*
X48298Y-158395D02*
D03*
X34379Y-130975D02*
D03*
X48298Y-117056D02*
D03*
X34379Y-89637D02*
D03*
X48298Y-75718D02*
D03*
X34379Y-48298D02*
D03*
X48298Y-34379D02*
D03*
X34379Y-6960D02*
D03*
X48298Y6960D02*
D03*
X75718Y-7058D02*
D03*
X89637Y6861D02*
D03*
X75718Y-48397D02*
D03*
X89637Y-34477D02*
D03*
X75718Y-89735D02*
D03*
X89637Y-75816D02*
D03*
X75718Y-131074D02*
D03*
X89637Y-117155D02*
D03*
X75718Y-172413D02*
D03*
X89637Y-158493D02*
D03*
X75718Y-213751D02*
D03*
X89637Y-199832D02*
D03*
X75718Y-255090D02*
D03*
X89637Y-241170D02*
D03*
X75717Y-337767D02*
D03*
X89637Y-323847D02*
D03*
X75717Y-296428D02*
D03*
X89637Y-282509D02*
D03*
X117056Y-7157D02*
D03*
X130975Y6763D02*
D03*
X117056Y-48495D02*
D03*
X130975Y-34576D02*
D03*
X117056Y-89834D02*
D03*
X130975Y-75914D02*
D03*
X117056Y-131172D02*
D03*
X130975Y-117253D02*
D03*
X117056Y-172511D02*
D03*
X130975Y-158591D02*
D03*
X117056Y-213849D02*
D03*
X130975Y-199930D02*
D03*
X117056Y-255188D02*
D03*
X130975Y-241269D02*
D03*
X117056Y-337865D02*
D03*
X130975Y-323946D02*
D03*
X117056Y-296527D02*
D03*
X130975Y-282607D02*
D03*
X158395Y-7255D02*
D03*
X172314Y6664D02*
D03*
X158395Y-48594D02*
D03*
X172314Y-34674D02*
D03*
X158395Y-89932D02*
D03*
X172314Y-76013D02*
D03*
X158395Y-131271D02*
D03*
X172314Y-117351D02*
D03*
X158395Y-172609D02*
D03*
X172314Y-158690D02*
D03*
X158395Y-213948D02*
D03*
X172314Y-200028D02*
D03*
X158395Y-255287D02*
D03*
X172314Y-241367D02*
D03*
X158395Y-337964D02*
D03*
X172314Y-324044D02*
D03*
X158395Y-296625D02*
D03*
X172314Y-282706D02*
D03*
X199733Y-7354D02*
D03*
X213653Y6566D02*
D03*
X199733Y-48692D02*
D03*
X213653Y-34773D02*
D03*
X199733Y-90031D02*
D03*
X213653Y-76111D02*
D03*
X199733Y-131369D02*
D03*
X213653Y-117450D02*
D03*
X199733Y-172708D02*
D03*
X213653Y-158788D02*
D03*
X199733Y-214046D02*
D03*
X213653Y-200127D02*
D03*
X199733Y-255385D02*
D03*
X213653Y-241465D02*
D03*
X199733Y-338062D02*
D03*
X213653Y-324143D02*
D03*
X199733Y-296724D02*
D03*
X213653Y-282804D02*
D03*
X241072Y-7452D02*
D03*
X254991Y6468D02*
D03*
X241072Y-48790D02*
D03*
X254991Y-34871D02*
D03*
X241072Y-90129D02*
D03*
X254991Y-76210D02*
D03*
X241072Y-131468D02*
D03*
X254991Y-117548D02*
D03*
X241072Y-172806D02*
D03*
X254991Y-158887D02*
D03*
X241072Y-214145D02*
D03*
X254991Y-200225D02*
D03*
X241072Y-255483D02*
D03*
X254991Y-241564D02*
D03*
X241072Y-338160D02*
D03*
X254991Y-324241D02*
D03*
X241072Y-296822D02*
D03*
X254991Y-282903D02*
D03*
X282410Y-7550D02*
D03*
X296330Y6369D02*
D03*
X282410Y-48889D02*
D03*
X296330Y-34969D02*
D03*
X282410Y-90228D02*
D03*
X296330Y-76308D02*
D03*
X282410Y-131566D02*
D03*
X296330Y-117647D02*
D03*
X282410Y-172905D02*
D03*
X296330Y-158985D02*
D03*
X282410Y-214243D02*
D03*
X296330Y-200324D02*
D03*
X282410Y-255582D02*
D03*
X296330Y-241662D02*
D03*
X282410Y-338259D02*
D03*
X296330Y-324340D02*
D03*
X282410Y-296920D02*
D03*
X296330Y-283001D02*
D03*
X323749Y-7649D02*
D03*
X337668Y6271D02*
D03*
X323749Y-48987D02*
D03*
X337668Y-35068D02*
D03*
X323749Y-90326D02*
D03*
X337668Y-76407D02*
D03*
X323749Y-131665D02*
D03*
X337668Y-117745D02*
D03*
X323749Y-173003D02*
D03*
X337668Y-159084D02*
D03*
X323749Y-214342D02*
D03*
X337668Y-200422D02*
D03*
X323749Y-255680D02*
D03*
X337668Y-241761D02*
D03*
X323749Y-338357D02*
D03*
X337668Y-324438D02*
D03*
X323749Y-297019D02*
D03*
X337668Y-283099D02*
D03*
X372047Y-31496D02*
D03*
Y-51181D02*
D03*
X372047Y-72835D02*
D03*
Y-92520D02*
D03*
X372047Y-114173D02*
D03*
Y-133858D02*
D03*
X372047Y-155512D02*
D03*
Y-175197D02*
D03*
X372047Y-196850D02*
D03*
Y-216535D02*
D03*
X372047Y-238189D02*
D03*
Y-257874D02*
D03*
X372047Y-279527D02*
D03*
Y-299213D02*
D03*
X372047Y-320866D02*
D03*
Y-340551D02*
D03*
X34379Y-296330D02*
D03*
X48298Y-282410D02*
D03*
X34379Y-337668D02*
D03*
X48298Y-323749D02*
D03*
X299213Y-372047D02*
D03*
X279528D02*
D03*
X372047Y9843D02*
D03*
Y-9843D02*
D03*
X6960Y6861D02*
D03*
X-6960Y-7058D02*
D03*
D34*
X393701Y393701D02*
D03*
X-393701D02*
D03*
X393701Y-393701D02*
D03*
X-393701D02*
D03*
M02*
