G04 Layer_Color=255*
%FSLAX25Y25*%
%MOIN*%
G70*
G01*
G75*
%ADD19C,0.07874*%
%ADD20C,0.19685*%
D19*
X-9843Y372047D02*
D03*
X9843D02*
D03*
X372047Y299213D02*
D03*
Y279528D02*
D03*
X337668Y34379D02*
D03*
X323749Y48298D02*
D03*
X296330Y34379D02*
D03*
X282410Y48298D02*
D03*
X320866Y372047D02*
D03*
X340551D02*
D03*
X279527Y372047D02*
D03*
X299213D02*
D03*
X238189Y372047D02*
D03*
X257874D02*
D03*
X196850Y372047D02*
D03*
X216535D02*
D03*
X155512Y372047D02*
D03*
X175197D02*
D03*
X114173Y372047D02*
D03*
X133858D02*
D03*
X72835Y372047D02*
D03*
X92520D02*
D03*
X31496Y372047D02*
D03*
X51181D02*
D03*
X297019Y323749D02*
D03*
X283099Y337668D02*
D03*
X338357Y323749D02*
D03*
X324438Y337668D02*
D03*
X255680Y323749D02*
D03*
X241761Y337668D02*
D03*
X214342Y323749D02*
D03*
X200422Y337668D02*
D03*
X173003Y323749D02*
D03*
X159084Y337668D02*
D03*
X131665Y323749D02*
D03*
X117745Y337668D02*
D03*
X90326Y323749D02*
D03*
X76407Y337668D02*
D03*
X48987Y323749D02*
D03*
X35068Y337668D02*
D03*
X7649Y323749D02*
D03*
X-6271Y337668D02*
D03*
X296920Y282410D02*
D03*
X283001Y296330D02*
D03*
X338259Y282410D02*
D03*
X324340Y296330D02*
D03*
X255582Y282410D02*
D03*
X241662Y296330D02*
D03*
X214243Y282410D02*
D03*
X200324Y296330D02*
D03*
X172905Y282410D02*
D03*
X158985Y296330D02*
D03*
X131566Y282410D02*
D03*
X117647Y296330D02*
D03*
X90228Y282410D02*
D03*
X76308Y296330D02*
D03*
X48889Y282410D02*
D03*
X34969Y296330D02*
D03*
X7550Y282410D02*
D03*
X-6369Y296330D02*
D03*
X296822Y241072D02*
D03*
X282903Y254991D02*
D03*
X338160Y241072D02*
D03*
X324241Y254991D02*
D03*
X255483Y241072D02*
D03*
X241564Y254991D02*
D03*
X214145Y241072D02*
D03*
X200225Y254991D02*
D03*
X172806Y241072D02*
D03*
X158887Y254991D02*
D03*
X131468Y241072D02*
D03*
X117548Y254991D02*
D03*
X90129Y241072D02*
D03*
X76210Y254991D02*
D03*
X48790Y241072D02*
D03*
X34871Y254991D02*
D03*
X7452Y241072D02*
D03*
X-6468Y254991D02*
D03*
X296724Y199733D02*
D03*
X282804Y213653D02*
D03*
X338062Y199733D02*
D03*
X324143Y213653D02*
D03*
X255385Y199733D02*
D03*
X241465Y213653D02*
D03*
X214046Y199733D02*
D03*
X200127Y213653D02*
D03*
X172708Y199733D02*
D03*
X158788Y213653D02*
D03*
X131369Y199733D02*
D03*
X117450Y213653D02*
D03*
X90031Y199733D02*
D03*
X76111Y213653D02*
D03*
X48692Y199733D02*
D03*
X34773Y213653D02*
D03*
X7354Y199733D02*
D03*
X-6566Y213653D02*
D03*
X296625Y158395D02*
D03*
X282706Y172314D02*
D03*
X337964Y158395D02*
D03*
X324044Y172314D02*
D03*
X255287Y158395D02*
D03*
X241367Y172314D02*
D03*
X213948Y158395D02*
D03*
X200028Y172314D02*
D03*
X172609Y158395D02*
D03*
X158690Y172314D02*
D03*
X131271Y158395D02*
D03*
X117351Y172314D02*
D03*
X89932Y158395D02*
D03*
X76013Y172314D02*
D03*
X48594Y158395D02*
D03*
X34674Y172314D02*
D03*
X7255Y158395D02*
D03*
X-6664Y172314D02*
D03*
X296527Y117056D02*
D03*
X282607Y130975D02*
D03*
X337865Y117056D02*
D03*
X323946Y130975D02*
D03*
X255188Y117056D02*
D03*
X241269Y130975D02*
D03*
X213849Y117056D02*
D03*
X199930Y130975D02*
D03*
X172511Y117056D02*
D03*
X158591Y130975D02*
D03*
X131172Y117056D02*
D03*
X117253Y130975D02*
D03*
X89834Y117056D02*
D03*
X75914Y130975D02*
D03*
X48495Y117056D02*
D03*
X34576Y130975D02*
D03*
X7157Y117056D02*
D03*
X-6763Y130975D02*
D03*
X296428Y75717D02*
D03*
X282509Y89637D02*
D03*
X337767Y75717D02*
D03*
X323847Y89637D02*
D03*
X255090Y75718D02*
D03*
X241170Y89637D02*
D03*
X213751Y75718D02*
D03*
X199832Y89637D02*
D03*
X172413Y75718D02*
D03*
X158493Y89637D02*
D03*
X131074Y75718D02*
D03*
X117155Y89637D02*
D03*
X89735Y75718D02*
D03*
X75816Y89637D02*
D03*
X48397Y75718D02*
D03*
X34477Y89637D02*
D03*
X7058Y75718D02*
D03*
X-6861Y89637D02*
D03*
X6960Y34379D02*
D03*
X-6960Y48298D02*
D03*
X48298Y34379D02*
D03*
X34379Y48298D02*
D03*
X89637Y34379D02*
D03*
X75718Y48298D02*
D03*
X130975Y34379D02*
D03*
X117056Y48298D02*
D03*
X172314Y34379D02*
D03*
X158395Y48298D02*
D03*
X213653Y34379D02*
D03*
X199733Y48298D02*
D03*
X254991Y34379D02*
D03*
X241072Y48298D02*
D03*
X372146Y340551D02*
D03*
Y320866D02*
D03*
X371457Y51181D02*
D03*
Y31496D02*
D03*
X371555Y92520D02*
D03*
Y72835D02*
D03*
X371654Y133858D02*
D03*
Y114173D02*
D03*
X371752Y175197D02*
D03*
Y155512D02*
D03*
X371850Y216535D02*
D03*
Y196850D02*
D03*
X371949Y257874D02*
D03*
Y238189D02*
D03*
X-257874Y371949D02*
D03*
X-238189D02*
D03*
X-216535Y371850D02*
D03*
X-196850D02*
D03*
X-175197Y371752D02*
D03*
X-155512D02*
D03*
X-133858Y371654D02*
D03*
X-114173D02*
D03*
X-92520Y371555D02*
D03*
X-72835D02*
D03*
X-51181Y371457D02*
D03*
X-31496D02*
D03*
X-340551Y372146D02*
D03*
X-320866D02*
D03*
X-34379Y254991D02*
D03*
X-48298Y241072D02*
D03*
X-34379Y213653D02*
D03*
X-48298Y199733D02*
D03*
X-34379Y172314D02*
D03*
X-48298Y158395D02*
D03*
X-34379Y130975D02*
D03*
X-48298Y117056D02*
D03*
X-34379Y89637D02*
D03*
X-48298Y75718D02*
D03*
X-34379Y48298D02*
D03*
X-48298Y34379D02*
D03*
X-34379Y6960D02*
D03*
X-48298Y-6960D02*
D03*
X-75718Y7058D02*
D03*
X-89637Y-6861D02*
D03*
X-75718Y48397D02*
D03*
X-89637Y34477D02*
D03*
X-75718Y89735D02*
D03*
X-89637Y75816D02*
D03*
X-75718Y131074D02*
D03*
X-89637Y117155D02*
D03*
X-75718Y172413D02*
D03*
X-89637Y158493D02*
D03*
X-75718Y213751D02*
D03*
X-89637Y199832D02*
D03*
X-75718Y255090D02*
D03*
X-89637Y241170D02*
D03*
X-75717Y337767D02*
D03*
X-89637Y323847D02*
D03*
X-75717Y296428D02*
D03*
X-89637Y282509D02*
D03*
X-117056Y7157D02*
D03*
X-130975Y-6763D02*
D03*
X-117056Y48495D02*
D03*
X-130975Y34576D02*
D03*
X-117056Y89834D02*
D03*
X-130975Y75914D02*
D03*
X-117056Y131172D02*
D03*
X-130975Y117253D02*
D03*
X-117056Y172511D02*
D03*
X-130975Y158591D02*
D03*
X-117056Y213849D02*
D03*
X-130975Y199930D02*
D03*
X-117056Y255188D02*
D03*
X-130975Y241269D02*
D03*
X-117056Y337865D02*
D03*
X-130975Y323946D02*
D03*
X-117056Y296527D02*
D03*
X-130975Y282607D02*
D03*
X-158395Y7255D02*
D03*
X-172314Y-6664D02*
D03*
X-158395Y48594D02*
D03*
X-172314Y34674D02*
D03*
X-158395Y89932D02*
D03*
X-172314Y76013D02*
D03*
X-158395Y131271D02*
D03*
X-172314Y117351D02*
D03*
X-158395Y172609D02*
D03*
X-172314Y158690D02*
D03*
X-158395Y213948D02*
D03*
X-172314Y200028D02*
D03*
X-158395Y255287D02*
D03*
X-172314Y241367D02*
D03*
X-158395Y337964D02*
D03*
X-172314Y324044D02*
D03*
X-158395Y296625D02*
D03*
X-172314Y282706D02*
D03*
X-199733Y7354D02*
D03*
X-213653Y-6566D02*
D03*
X-199733Y48692D02*
D03*
X-213653Y34773D02*
D03*
X-199733Y90031D02*
D03*
X-213653Y76111D02*
D03*
X-199733Y131369D02*
D03*
X-213653Y117450D02*
D03*
X-199733Y172708D02*
D03*
X-213653Y158788D02*
D03*
X-199733Y214046D02*
D03*
X-213653Y200127D02*
D03*
X-199733Y255385D02*
D03*
X-213653Y241465D02*
D03*
X-199733Y338062D02*
D03*
X-213653Y324143D02*
D03*
X-199733Y296724D02*
D03*
X-213653Y282804D02*
D03*
X-241072Y7452D02*
D03*
X-254991Y-6468D02*
D03*
X-241072Y48790D02*
D03*
X-254991Y34871D02*
D03*
X-241072Y90129D02*
D03*
X-254991Y76210D02*
D03*
X-241072Y131468D02*
D03*
X-254991Y117548D02*
D03*
X-241072Y172806D02*
D03*
X-254991Y158887D02*
D03*
X-241072Y214145D02*
D03*
X-254991Y200225D02*
D03*
X-241072Y255483D02*
D03*
X-254991Y241564D02*
D03*
X-241072Y338160D02*
D03*
X-254991Y324241D02*
D03*
X-241072Y296822D02*
D03*
X-254991Y282903D02*
D03*
X-282410Y7550D02*
D03*
X-296330Y-6369D02*
D03*
X-282410Y48889D02*
D03*
X-296330Y34969D02*
D03*
X-282410Y90228D02*
D03*
X-296330Y76308D02*
D03*
X-282410Y131566D02*
D03*
X-296330Y117647D02*
D03*
X-282410Y172905D02*
D03*
X-296330Y158985D02*
D03*
X-282410Y214243D02*
D03*
X-296330Y200324D02*
D03*
X-282410Y255582D02*
D03*
X-296330Y241662D02*
D03*
X-282410Y338259D02*
D03*
X-296330Y324340D02*
D03*
X-282410Y296920D02*
D03*
X-296330Y283001D02*
D03*
X-323749Y7649D02*
D03*
X-337668Y-6271D02*
D03*
X-323749Y48987D02*
D03*
X-337668Y35068D02*
D03*
X-323749Y90326D02*
D03*
X-337668Y76407D02*
D03*
X-323749Y131665D02*
D03*
X-337668Y117745D02*
D03*
X-323749Y173003D02*
D03*
X-337668Y159084D02*
D03*
X-323749Y214342D02*
D03*
X-337668Y200422D02*
D03*
X-323749Y255680D02*
D03*
X-337668Y241761D02*
D03*
X-323749Y338357D02*
D03*
X-337668Y324438D02*
D03*
X-323749Y297019D02*
D03*
X-337668Y283099D02*
D03*
X-372047Y31496D02*
D03*
Y51181D02*
D03*
X-372047Y72835D02*
D03*
Y92520D02*
D03*
X-372047Y114173D02*
D03*
Y133858D02*
D03*
X-372047Y155512D02*
D03*
Y175197D02*
D03*
X-372047Y196850D02*
D03*
Y216535D02*
D03*
X-372047Y238189D02*
D03*
Y257874D02*
D03*
X-372047Y279527D02*
D03*
Y299213D02*
D03*
X-372047Y320866D02*
D03*
Y340551D02*
D03*
X-34379Y296330D02*
D03*
X-48298Y282410D02*
D03*
X-34379Y337668D02*
D03*
X-48298Y323749D02*
D03*
X-299213Y372047D02*
D03*
X-279528D02*
D03*
X-372047Y-9843D02*
D03*
Y9843D02*
D03*
X-371949Y-257874D02*
D03*
Y-238189D02*
D03*
X-371850Y-216535D02*
D03*
Y-196850D02*
D03*
X-371752Y-175197D02*
D03*
Y-155512D02*
D03*
X-371654Y-133858D02*
D03*
Y-114173D02*
D03*
X-371555Y-92520D02*
D03*
Y-72835D02*
D03*
X-371457Y-51181D02*
D03*
Y-31496D02*
D03*
X-372146Y-340551D02*
D03*
Y-320866D02*
D03*
X-254991Y-34379D02*
D03*
X-241072Y-48298D02*
D03*
X-213653Y-34379D02*
D03*
X-199733Y-48298D02*
D03*
X-172314Y-34379D02*
D03*
X-158395Y-48298D02*
D03*
X-130975Y-34379D02*
D03*
X-117056Y-48298D02*
D03*
X-89637Y-34379D02*
D03*
X-75718Y-48298D02*
D03*
X-48298Y-34379D02*
D03*
X-34379Y-48298D02*
D03*
X-6960Y-34379D02*
D03*
X6960Y-48298D02*
D03*
X-7058Y-75718D02*
D03*
X6861Y-89637D02*
D03*
X-48397Y-75718D02*
D03*
X-34477Y-89637D02*
D03*
X-89735Y-75718D02*
D03*
X-75816Y-89637D02*
D03*
X-131074Y-75718D02*
D03*
X-117155Y-89637D02*
D03*
X-172413Y-75718D02*
D03*
X-158493Y-89637D02*
D03*
X-213751Y-75718D02*
D03*
X-199832Y-89637D02*
D03*
X-255090Y-75718D02*
D03*
X-241170Y-89637D02*
D03*
X-337767Y-75717D02*
D03*
X-323847Y-89637D02*
D03*
X-296428Y-75717D02*
D03*
X-282509Y-89637D02*
D03*
X-7157Y-117056D02*
D03*
X6763Y-130975D02*
D03*
X-48495Y-117056D02*
D03*
X-34576Y-130975D02*
D03*
X-89834Y-117056D02*
D03*
X-75914Y-130975D02*
D03*
X-131172Y-117056D02*
D03*
X-117253Y-130975D02*
D03*
X-172511Y-117056D02*
D03*
X-158591Y-130975D02*
D03*
X-213849Y-117056D02*
D03*
X-199930Y-130975D02*
D03*
X-255188Y-117056D02*
D03*
X-241269Y-130975D02*
D03*
X-337865Y-117056D02*
D03*
X-323946Y-130975D02*
D03*
X-296527Y-117056D02*
D03*
X-282607Y-130975D02*
D03*
X-7255Y-158395D02*
D03*
X6664Y-172314D02*
D03*
X-48594Y-158395D02*
D03*
X-34674Y-172314D02*
D03*
X-89932Y-158395D02*
D03*
X-76013Y-172314D02*
D03*
X-131271Y-158395D02*
D03*
X-117351Y-172314D02*
D03*
X-172609Y-158395D02*
D03*
X-158690Y-172314D02*
D03*
X-213948Y-158395D02*
D03*
X-200028Y-172314D02*
D03*
X-255287Y-158395D02*
D03*
X-241367Y-172314D02*
D03*
X-337964Y-158395D02*
D03*
X-324044Y-172314D02*
D03*
X-296625Y-158395D02*
D03*
X-282706Y-172314D02*
D03*
X-7354Y-199733D02*
D03*
X6566Y-213653D02*
D03*
X-48692Y-199733D02*
D03*
X-34773Y-213653D02*
D03*
X-90031Y-199733D02*
D03*
X-76111Y-213653D02*
D03*
X-131369Y-199733D02*
D03*
X-117450Y-213653D02*
D03*
X-172708Y-199733D02*
D03*
X-158788Y-213653D02*
D03*
X-214046Y-199733D02*
D03*
X-200127Y-213653D02*
D03*
X-255385Y-199733D02*
D03*
X-241465Y-213653D02*
D03*
X-338062Y-199733D02*
D03*
X-324143Y-213653D02*
D03*
X-296724Y-199733D02*
D03*
X-282804Y-213653D02*
D03*
X-7452Y-241072D02*
D03*
X6468Y-254991D02*
D03*
X-48790Y-241072D02*
D03*
X-34871Y-254991D02*
D03*
X-90129Y-241072D02*
D03*
X-76210Y-254991D02*
D03*
X-131468Y-241072D02*
D03*
X-117548Y-254991D02*
D03*
X-172806Y-241072D02*
D03*
X-158887Y-254991D02*
D03*
X-214145Y-241072D02*
D03*
X-200225Y-254991D02*
D03*
X-255483Y-241072D02*
D03*
X-241564Y-254991D02*
D03*
X-338160Y-241072D02*
D03*
X-324241Y-254991D02*
D03*
X-296822Y-241072D02*
D03*
X-282903Y-254991D02*
D03*
X-7550Y-282410D02*
D03*
X6369Y-296330D02*
D03*
X-48889Y-282410D02*
D03*
X-34969Y-296330D02*
D03*
X-90228Y-282410D02*
D03*
X-76308Y-296330D02*
D03*
X-131566Y-282410D02*
D03*
X-117647Y-296330D02*
D03*
X-172905Y-282410D02*
D03*
X-158985Y-296330D02*
D03*
X-214243Y-282410D02*
D03*
X-200324Y-296330D02*
D03*
X-255582Y-282410D02*
D03*
X-241662Y-296330D02*
D03*
X-338259Y-282410D02*
D03*
X-324340Y-296330D02*
D03*
X-296920Y-282410D02*
D03*
X-283001Y-296330D02*
D03*
X-7649Y-323749D02*
D03*
X6271Y-337668D02*
D03*
X-48987Y-323749D02*
D03*
X-35068Y-337668D02*
D03*
X-90326Y-323749D02*
D03*
X-76407Y-337668D02*
D03*
X-131665Y-323749D02*
D03*
X-117745Y-337668D02*
D03*
X-173003Y-323749D02*
D03*
X-159084Y-337668D02*
D03*
X-214342Y-323749D02*
D03*
X-200422Y-337668D02*
D03*
X-255680Y-323749D02*
D03*
X-241761Y-337668D02*
D03*
X-338357Y-323749D02*
D03*
X-324438Y-337668D02*
D03*
X-297019Y-323749D02*
D03*
X-283099Y-337668D02*
D03*
X-31496Y-372047D02*
D03*
X-51181D02*
D03*
X-72835Y-372047D02*
D03*
X-92520D02*
D03*
X-114173Y-372047D02*
D03*
X-133858D02*
D03*
X-155512Y-372047D02*
D03*
X-175197D02*
D03*
X-196850Y-372047D02*
D03*
X-216535D02*
D03*
X-238189Y-372047D02*
D03*
X-257874D02*
D03*
X-279527Y-372047D02*
D03*
X-299213D02*
D03*
X-320866Y-372047D02*
D03*
X-340551D02*
D03*
X-296330Y-34379D02*
D03*
X-282410Y-48298D02*
D03*
X-337668Y-34379D02*
D03*
X-323749Y-48298D02*
D03*
X-372047Y-299213D02*
D03*
Y-279528D02*
D03*
X9843Y-372047D02*
D03*
X-9843D02*
D03*
X257874Y-371949D02*
D03*
X238189D02*
D03*
X216535Y-371850D02*
D03*
X196850D02*
D03*
X175197Y-371752D02*
D03*
X155512D02*
D03*
X133858Y-371654D02*
D03*
X114173D02*
D03*
X92520Y-371555D02*
D03*
X72835D02*
D03*
X51181Y-371457D02*
D03*
X31496D02*
D03*
X340551Y-372146D02*
D03*
X320866D02*
D03*
X34379Y-254991D02*
D03*
X48298Y-241072D02*
D03*
X34379Y-213653D02*
D03*
X48298Y-199733D02*
D03*
X34379Y-172314D02*
D03*
X48298Y-158395D02*
D03*
X34379Y-130975D02*
D03*
X48298Y-117056D02*
D03*
X34379Y-89637D02*
D03*
X48298Y-75718D02*
D03*
X34379Y-48298D02*
D03*
X48298Y-34379D02*
D03*
X34379Y-6960D02*
D03*
X48298Y6960D02*
D03*
X75718Y-7058D02*
D03*
X89637Y6861D02*
D03*
X75718Y-48397D02*
D03*
X89637Y-34477D02*
D03*
X75718Y-89735D02*
D03*
X89637Y-75816D02*
D03*
X75718Y-131074D02*
D03*
X89637Y-117155D02*
D03*
X75718Y-172413D02*
D03*
X89637Y-158493D02*
D03*
X75718Y-213751D02*
D03*
X89637Y-199832D02*
D03*
X75718Y-255090D02*
D03*
X89637Y-241170D02*
D03*
X75717Y-337767D02*
D03*
X89637Y-323847D02*
D03*
X75717Y-296428D02*
D03*
X89637Y-282509D02*
D03*
X117056Y-7157D02*
D03*
X130975Y6763D02*
D03*
X117056Y-48495D02*
D03*
X130975Y-34576D02*
D03*
X117056Y-89834D02*
D03*
X130975Y-75914D02*
D03*
X117056Y-131172D02*
D03*
X130975Y-117253D02*
D03*
X117056Y-172511D02*
D03*
X130975Y-158591D02*
D03*
X117056Y-213849D02*
D03*
X130975Y-199930D02*
D03*
X117056Y-255188D02*
D03*
X130975Y-241269D02*
D03*
X117056Y-337865D02*
D03*
X130975Y-323946D02*
D03*
X117056Y-296527D02*
D03*
X130975Y-282607D02*
D03*
X158395Y-7255D02*
D03*
X172314Y6664D02*
D03*
X158395Y-48594D02*
D03*
X172314Y-34674D02*
D03*
X158395Y-89932D02*
D03*
X172314Y-76013D02*
D03*
X158395Y-131271D02*
D03*
X172314Y-117351D02*
D03*
X158395Y-172609D02*
D03*
X172314Y-158690D02*
D03*
X158395Y-213948D02*
D03*
X172314Y-200028D02*
D03*
X158395Y-255287D02*
D03*
X172314Y-241367D02*
D03*
X158395Y-337964D02*
D03*
X172314Y-324044D02*
D03*
X158395Y-296625D02*
D03*
X172314Y-282706D02*
D03*
X199733Y-7354D02*
D03*
X213653Y6566D02*
D03*
X199733Y-48692D02*
D03*
X213653Y-34773D02*
D03*
X199733Y-90031D02*
D03*
X213653Y-76111D02*
D03*
X199733Y-131369D02*
D03*
X213653Y-117450D02*
D03*
X199733Y-172708D02*
D03*
X213653Y-158788D02*
D03*
X199733Y-214046D02*
D03*
X213653Y-200127D02*
D03*
X199733Y-255385D02*
D03*
X213653Y-241465D02*
D03*
X199733Y-338062D02*
D03*
X213653Y-324143D02*
D03*
X199733Y-296724D02*
D03*
X213653Y-282804D02*
D03*
X241072Y-7452D02*
D03*
X254991Y6468D02*
D03*
X241072Y-48790D02*
D03*
X254991Y-34871D02*
D03*
X241072Y-90129D02*
D03*
X254991Y-76210D02*
D03*
X241072Y-131468D02*
D03*
X254991Y-117548D02*
D03*
X241072Y-172806D02*
D03*
X254991Y-158887D02*
D03*
X241072Y-214145D02*
D03*
X254991Y-200225D02*
D03*
X241072Y-255483D02*
D03*
X254991Y-241564D02*
D03*
X241072Y-338160D02*
D03*
X254991Y-324241D02*
D03*
X241072Y-296822D02*
D03*
X254991Y-282903D02*
D03*
X282410Y-7550D02*
D03*
X296330Y6369D02*
D03*
X282410Y-48889D02*
D03*
X296330Y-34969D02*
D03*
X282410Y-90228D02*
D03*
X296330Y-76308D02*
D03*
X282410Y-131566D02*
D03*
X296330Y-117647D02*
D03*
X282410Y-172905D02*
D03*
X296330Y-158985D02*
D03*
X282410Y-214243D02*
D03*
X296330Y-200324D02*
D03*
X282410Y-255582D02*
D03*
X296330Y-241662D02*
D03*
X282410Y-338259D02*
D03*
X296330Y-324340D02*
D03*
X282410Y-296920D02*
D03*
X296330Y-283001D02*
D03*
X323749Y-7649D02*
D03*
X337668Y6271D02*
D03*
X323749Y-48987D02*
D03*
X337668Y-35068D02*
D03*
X323749Y-90326D02*
D03*
X337668Y-76407D02*
D03*
X323749Y-131665D02*
D03*
X337668Y-117745D02*
D03*
X323749Y-173003D02*
D03*
X337668Y-159084D02*
D03*
X323749Y-214342D02*
D03*
X337668Y-200422D02*
D03*
X323749Y-255680D02*
D03*
X337668Y-241761D02*
D03*
X323749Y-338357D02*
D03*
X337668Y-324438D02*
D03*
X323749Y-297019D02*
D03*
X337668Y-283099D02*
D03*
X372047Y-31496D02*
D03*
Y-51181D02*
D03*
X372047Y-72835D02*
D03*
Y-92520D02*
D03*
X372047Y-114173D02*
D03*
Y-133858D02*
D03*
X372047Y-155512D02*
D03*
Y-175197D02*
D03*
X372047Y-196850D02*
D03*
Y-216535D02*
D03*
X372047Y-238189D02*
D03*
Y-257874D02*
D03*
X372047Y-279527D02*
D03*
Y-299213D02*
D03*
X372047Y-320866D02*
D03*
Y-340551D02*
D03*
X34379Y-296330D02*
D03*
X48298Y-282410D02*
D03*
X34379Y-337668D02*
D03*
X48298Y-323749D02*
D03*
X299213Y-372047D02*
D03*
X279528D02*
D03*
X372047Y9843D02*
D03*
Y-9843D02*
D03*
X6960Y6861D02*
D03*
X-6960Y-7058D02*
D03*
D20*
X393701Y393701D02*
D03*
X-393701D02*
D03*
X393701Y-393701D02*
D03*
X-393701D02*
D03*
M02*
