M48
;Layer_Color=9474304
;FILE_FORMAT=2:5
INCH,TZ
;TYPE=PLATED
T1F00S00C0.01181
T2F00S00C0.01575
T3F00S00C0.03543
T4F00S00C0.12598
%
T01
X-400024Y-384024
X-384276
X-368528
Y-399772
X-352780
Y-384024
X-337032
Y-399772
X-69315
Y-384024
X-53567
Y-399772
X-37819
X-22071
Y-384024
X-6323Y-399772
X9425
Y-384024
X25173
Y-399772
X40921
Y-384024
X56669
Y-399772
X324386Y-384024
X340134
X355882
Y-399772
X371630
Y-384024
X387378
X403126
Y-368276
X387378
Y-352528
Y-336780
X403126
Y-352528
X371630
X355882
X340134
X324386
X355882Y-368276
X371630
X355882Y-321031
X308638Y-289535
X261394
X245646Y-273787
X324386Y-242291
X198401Y-226543
Y-289535
X166905
Y-305283
X119661Y-321031
Y-289535
X88165Y-273787
X119661Y-242291
X56669
X40921
X25173
X9425
Y-226543
X-6323
X-37819
X-69315
Y-258039
X-53567Y-289535
X-37819Y-305283
Y-321031
Y-352528
X-53567
X-69315Y-336780
X-6323Y-352528
X9425
X25173
Y-368276
X40921
Y-352528
Y-336780
X25173
Y-321031
X9425
Y-305283
X-6323
Y-289535
X-22071
X-37819Y-273787
X-22071Y-258039
X-6323Y-273787
X9425
Y-289535
X25173
Y-305283
Y-273787
Y-258039
Y-226543
X40921
X72417
X56669Y-258039
X40921Y-273787
Y-289535
X56669
X72417
Y-305283
Y-273787
X40921Y-321031
X56669Y-336780
Y-368276
X72417Y-352528
X-85063Y-321031
Y-289535
X-100811
X-85063Y-273787
X-179551Y-289535
X-195299
X-211047Y-273787
X-195299Y-226543
X-163803Y-352528
X-242543Y-321031
X-289787Y-305283
Y-258039
Y-242291
X-274039Y-226543
X-258291
X-352780Y-321031
Y-336780
X-384276
Y-368276
X-368528
X-352780
X-337032Y-352528
X-321284
X-400024
Y-368276
Y-69063
X-384276
X-368528Y-84811
X-352780Y-69063
X-305536
X-289787
Y-84811
X-274039
Y-69063
Y-116307
X-289787
X-305536
X-258291Y-100559
X-242543Y-179299
X-305536Y-210795
X-226795Y-195047
X-211047Y-179299
X-195299Y-163551
X-179551Y-147803
X-226795
X-211047Y-100559
Y-84811
X-195299
Y-116307
X-179551Y-100559
X-163803
Y-116307
X-148055
Y-84811
X-163803
X-179551Y-69063
X-148055
X-132307Y-100559
X-116559
X-100811Y-116307
Y-147803
Y-163551
X-116559
Y-195047
X-85063
Y-179299
Y-147803
Y-84811
X-100811
Y-69063
X-85063
X-226795
X-69315
Y-84811
Y-100559
X-53567
X-37819
Y-116307
X-22071
Y-132055
X-37819Y-147803
X-53567
Y-163551
X-69315
Y-179299
X-37819
Y-195047
X-22071
Y-210795
Y-179299
X-6323
X9425
Y-195047
X25173
Y-210795
X40921
Y-195047
X25173Y-179299
Y-163551
X9425
Y-147803
X-6323
X25173
Y-132055
Y-116307
X9425
Y-100559
X-6323
X-22071Y-84811
X-37819
Y-69063
X-53567
X-22071
X-6323
X9425
X25173
Y-84811
Y-100559
X40921
Y-116307
X56669
Y-132055
X40921Y-147803
Y-163551
X56669
Y-179299
Y-210795
X72417Y-195047
Y-147803
Y-100559
Y-84811
X56669
X40921
Y-69063
X56669
X135409Y-84811
X151157
Y-100559
X166905Y-69063
X182653
Y-84811
X198401Y-116307
X103913Y-132055
X88165Y-147803
X103913Y-163551
Y-179299
X119661Y-195047
Y-147803
X135409Y-163551
X166905Y-195047
X182653Y-210795
X277142
X292890Y-195047
X277142Y-163551
X261394
X245646Y-100559
X229898Y-84811
X245646Y-69063
X261394
Y-84811
X277142
X292890Y-100559
X308638Y-69063
X403126
Y-53315
Y-37567
Y-21819
X387378
Y9677
Y25425
Y41173
Y56921
X403126
Y41173
Y25425
Y9677
Y-6071
X355882
Y9677
Y25425
X340134
X324386
X308638
X292890
X277142
X261394
X245646
X229898
Y9677
Y-6071
Y-37567
X245646Y-53315
X261394Y-37567
X277142
Y9677
X261394
X245646
Y41173
X229898
Y72669
X245646Y56921
X261394
X277142Y41173
X292890
Y56921
X277142Y72669
X308638
Y41173
X324386
Y56921
X340134
X355882Y41173
X371630
Y25425
X324386Y9677
X308638
Y-6071
X324386Y-37567
X355882
Y72669
X214149Y56921
X198401
Y41173
X182653
X166905
X151157
X135409
X119661
X103913
Y25425
X88165
Y56921
X103913Y72669
Y88417
X119661Y56921
X135409
X151157
Y72669
Y88417
X166905Y56921
Y25425
X151157
X135409
X119661
Y9677
X103913
Y-6071
Y-21819
X88165
X119661
Y-37567
X135409Y-21819
X151157Y-37567
Y-53315
X166905
Y-37567
X182653
Y-53315
Y-6071
Y9677
X166905
X151157
Y-6071
X182653Y25425
X198401
Y9677
Y-21819
X214149
Y25425
Y41173
X182653Y72669
X72417
X56669
X40921
X25173
Y88417
X56669
Y56921
Y41173
X40921
X25173
Y25425
X9425
X-6323
X-22071
X-37819
X-53567
Y41173
X-69315
Y56921
Y88417
X-53567Y72669
X-37819
Y56921
Y41173
X-22071
Y56921
Y72669
Y88417
X-6323Y72669
Y56921
Y41173
X9425Y56921
Y-6071
Y-21819
X-6323
X-22071
X-37819
X-53567
X-69315
Y-37567
Y-53315
X-53567
Y-37567
X-37819
Y-53315
X-22071
Y-37567
Y-6071
X-37819
X-69315
Y9677
X-22071
X25173
Y-6071
Y-21819
Y-37567
X9425
X25173Y-53315
X40921
Y-37567
Y-21819
Y9677
Y25425
X56669
Y9677
Y-6071
X72417Y-21819
Y-37567
Y9677
Y25425
Y41173
Y56921
X-85063
X-116559
Y41173
Y25425
X-132307
X-148055Y9677
Y-6071
X-163803
X-179551
X-195299
Y-21819
X-211047
X-226795
Y-37567
Y-6071
Y9677
Y41173
Y72669
X-179551
Y88417
X-163803Y72669
Y56921
X-148055
Y41173
X-179551
X-195299
Y25425
X-211047
X-179551Y9677
Y-21819
Y-37567
X-195299
Y-53315
X-163803
Y-37567
Y-21819
X-148055
Y-37567
Y-53315
X-132307
Y-21819
X-116559
Y-37567
X-100811
Y-21819
Y-6071
X-116559
X-100811Y9677
X-85063Y25425
Y-21819
Y-53315
X-100811Y72669
Y88417
X-148055
X-274039
Y72669
X-289787
Y56921
X-321284
X-352780
X-384276
Y25425
X-368528
X-352780Y9677
Y-6071
Y-21819
X-368528
X-384276
Y-37567
Y-53315
X-368528Y-37567
X-352780
X-337032Y-21819
X-321284
Y-37567
X-305536
Y-21819
Y-6071
X-321284
X-305536Y9677
Y41173
X-289787Y25425
Y-6071
Y-21819
Y-37567
Y-53315
X-274039Y-37567
Y-21819
Y-6071
Y9677
Y41173
X-258291
X-242543
Y56921
Y-6071
Y-21819
X-258291
Y-53315
X-242543Y-37567
X-384276Y-6071
X-400024
Y-21819
Y-37567
Y-53315
Y9677
Y25425
Y41173
Y56921
X-352780Y230150
X-305536Y198653
X-258291Y151409
X-226795
Y214402
X-195299Y230150
X-179551Y214402
X-163803Y198653
X-148055Y182905
X-179551Y167157
X-195299Y119913
X-163803Y104165
X-148055Y119913
X-132307Y104165
X-116559
X-100811Y119913
Y135661
X-116559Y151409
X-132307
X-100811Y167157
Y198653
X-116559
Y230150
X-148055
X-100811Y214402
X-85063Y230150
Y182905
Y151409
Y104165
X-69315
X-53567
Y119913
X-37819
Y104165
X-22071
Y119913
Y135661
X-37819
Y151409
X-53567
Y167157
X-37819
Y182905
Y198653
X-22071
Y182905
Y167157
Y151409
X-6323
X9425
Y182905
X-6323
Y198653
X-22071Y214402
Y230150
X-37819
X-69315
X-53567Y214402
X-69315Y182905
X25173
Y198653
Y214402
X9425Y230150
X-6323
X40921
Y198653
Y182905
Y151409
Y135661
X25173
Y119913
X40921
X56669
Y104165
X72417
X9425
X-6323
Y119913
X56669Y151409
Y167157
X72417
Y182905
Y230150
X88165Y182905
Y151409
X103913
Y119913
X119661Y104165
X135409
X151157Y119913
X166905
Y104165
X182653
X198401Y119913
X214149Y135661
X166905
X182653Y151409
Y198653
X151157
X119661
X151157Y230150
X214149Y182905
X229898Y198653
X245646
X261394Y214402
X277142Y167157
X292890
X308638
X277142Y119913
X261394Y104165
X245646Y135661
X229898Y151409
X387378Y340386
Y356134
Y371882
X403126
Y356134
X371630
X355882
X340134
X324386
X355882Y340386
Y371882
Y387630
X371630
Y371882
X292890Y308890
X324386Y277394
X229898Y261646
X166905Y277394
X151157Y245898
X135409
Y340386
X56669Y324638
X40921Y308890
X9425
X-6323
X-22071
X-37819
Y324638
X-22071
Y340386
Y356134
X-37819
Y371882
Y387630
X-53567
X-69315
Y356134
X-53567Y340386
X-69315Y308890
Y293142
Y277394
Y245898
X-53567
X-37819
X-22071
Y261646
Y277394
X-37819
X-22071Y293142
X-6323Y277394
Y261646
Y245898
X25173Y261646
X40921
Y277394
X25173Y293142
X56669
Y245898
X72417Y261646
X-6323Y324638
Y356134
X9425
X25173
Y387630
X-6323
X-22071
Y371882
X-85063
Y356134
X-100811Y340386
X-132307Y308890
X-116559Y277394
X-85063
Y293142
Y245898
X-179551
X-163803Y277394
X-211047
X-305536Y293142
X-321284Y356134
X-337032
X-368528
X-384276
Y340386
Y324638
Y371882
X-368528
Y387630
X-337032
X-352780Y340386
X-400024
Y324638
Y356134
Y371882
Y403378
X-384276
X-368528
X-352780
X-69315
X-53567
X-37819
X-22071
X-6323
X9425
X25173
X40921
X56669
X340134
X355882
X371630
X387378
X403126
T02
X-306700Y-393600
X-297500Y-393900
X-291200Y-393100
X-284500Y-393700
X-279600Y-393800
X-274600Y-394000
X-269800Y-393800
X-265800Y-394000
X-259500Y-393900
X-254500Y-393700
X-250600
X-244300Y-393900
X-239500Y-394200
X-234400Y-393700
X-228500Y-393900
X-224400Y-394400
X-219500Y-393900
X-214900
X-208100Y-393300
X-204200Y-398600
X-199200Y-396700
X-194500Y-394700
X-189400Y-398200
X-184600Y-393600
X-179700Y-394000
X-175700Y-393800
X-169400Y-393400
X-164300Y-398200
X-159500Y-404400
X-154400Y-393800
X-148900Y-394000
X-144400Y-393700
X-139300Y-393900
X-134300Y-393600
X-129600Y-393700
X-124300Y-393400
X-124350Y-401378
X-119300Y-398700
X-114350Y-401378
X-109350
X-104350
X-99300Y-400500
X-94300Y-401100
X-113600Y-393600
X-209400Y-406300
X-239200Y-381500
X93800Y-393800
X98800Y-393600
X104300Y-394000
X109400Y-393700
X114700Y-393900
X124500Y-393600
X129500Y-393700
X133900Y-394100
X141200Y-393600
X145000Y-393500
X148800Y-393400
X152700Y-393600
X164100Y-393800
X169100Y-393400
X172900Y-393800
X177700Y-393600
X185500Y-393800
X189400Y-393900
X199500Y-393800
X204300Y-393600
X209200Y-393700
X214100Y-393500
X221100Y-393600
X227500Y-394400
X219100Y-406900
X159700Y-405800
X119900Y-409300
X229300Y-407300
X235900Y-393500
X239700Y-393900
X244400Y-393600
X249300Y-393900
X253100Y-393800
X257500Y-393000
X261600Y-394300
X271900Y-394500
X275700Y-393200
X279500Y-393800
X284700Y-393900
X289500
X294200
X299400
X304400Y-393800
X332400Y-404200
X276800Y-408200
X393600Y-306700
X393900Y-297500
X393100Y-291200
X393700Y-284500
X393800Y-279600
X394000Y-274600
X393800Y-269800
X394000Y-265800
X393900Y-259500
X393700Y-254500
Y-250600
X393900Y-244300
X394200Y-239500
X393700Y-234400
X393900Y-228500
X394400Y-224400
X381500Y-239200
X379400Y-252900
X361900Y-244900
X358900Y-230700
X333100Y-248300
X308000Y-245700
X300200Y-264600
X291900Y-268900
X318900Y-270100
X351600Y-279100
X362400Y-284400
X366600Y-283200
X379000Y-289500
X378600Y-294700
X345700Y-293200
X347700Y-345100
X332500Y-369500
X287600Y-371400
X289400Y-375500
X281800Y-378900
X280500Y-359300
X281600Y-352300
X285100Y-348500
X276200Y-346400
X274900Y-321800
X282500Y-320500
X320900Y-325500
X299300Y-352500
X238600Y-359500
X239400Y-379500
X243600Y-378700
X247400Y-329000
X250700Y-332200
X238500Y-328100
X236700Y-323200
X237300Y-318800
X236900Y-268500
X264500Y-287100
X268400Y-291100
X377300Y-331900
X224200Y-329000
X223300Y-316200
X209700Y-317700
X197200Y-311200
X197100Y-306200
X194700Y-324200
X192300Y-350600
Y-354800
X203800Y-351200
X207600Y-353000
X205300Y-367700
X203900Y-378800
X164200Y-378400
X158500Y-365400
X150600Y-354300
X161071Y-343917
X164700Y-340100
X156500Y-331800
X163800Y-319700
X141500Y-310300
X159900Y-286900
X182000Y-288800
X178500Y-344500
X130500Y-345900
X124100Y-345200
X122600Y-367700
X120300Y-377700
X133400Y-377800
X132500Y-364100
X99700Y-317700
X104300Y-239400
X145400Y-232400
X65300Y-279100
X-61200Y-305000
X-82400Y-368900
X-161400Y-369300
X-159200Y-377000
X-200400Y-377300
X-200100Y-366400
X-193100Y-360700
X-198500Y-353400
X-197700Y-330600
X-166500Y-334300
X-169200Y-289200
X-176200Y-259600
X-181500Y-224900
X-223100Y-262300
X-222400Y-299200
X-230700Y-358900
X-244900Y-361900
X-252900Y-379400
X-289500Y-379000
X-294700Y-378600
X-283200Y-366600
X-284400Y-362400
X-279100Y-351600
X-293200Y-345700
X-270100Y-318900
X-264600Y-300200
X-268900Y-291900
X-245700Y-308000
X-248300Y-333100
X-325500Y-320900
X-320500Y-282500
X-321800Y-274900
X-346400Y-276200
X-348500Y-285100
X-352300Y-281600
X-359300Y-280500
X-371400Y-287600
X-375500Y-289400
X-378900Y-281800
X-393800Y-279500
X-393200Y-275700
X-394500Y-271900
X-394300Y-261600
X-393000Y-257500
X-393800Y-253100
X-393900Y-249300
X-393600Y-244400
X-393900Y-239700
X-393500Y-235900
X-394400Y-227500
X-379500Y-239400
X-378700Y-243600
X-359500Y-238600
X-328100Y-238500
X-323200Y-236700
X-318800Y-237300
X-329000Y-247400
X-332200Y-250700
X-329000Y-224200
X-268500Y-236900
X-287100Y-264500
X-291100Y-268400
X-352500Y-299300
X-393900Y-299400
X-393800Y-304400
X-393900Y-294200
Y-289500
Y-284700
X-369500Y-332500
X-345100Y-347700
X-331900Y-377300
X-404200Y-332400
X-408200Y-276800
X-407300Y-229300
X-406900Y-219100
X-405800Y-159700
X-409300Y-119900
X-393600Y-124500
X-393700Y-129500
X-394100Y-133900
X-393600Y-141200
X-393500Y-145000
X-393400Y-148800
X-393600Y-152700
X-393800Y-164100
X-393400Y-169100
X-393800Y-172900
X-393600Y-177700
X-393800Y-185500
X-393900Y-189400
X-393800Y-199500
X-393600Y-204300
X-393700Y-209200
X-393500Y-214100
X-393600Y-221100
X-378800Y-203900
X-367700Y-205300
X-353000Y-207600
X-351200Y-203800
X-350600Y-192300
X-354800
X-344500Y-178500
X-343917Y-161071
X-340100Y-164700
X-331800Y-156500
X-319700Y-163800
X-310300Y-141500
X-286900Y-159900
X-288800Y-182000
X-306200Y-197100
X-311200Y-197200
X-324200Y-194700
X-317700Y-209700
X-316200Y-223300
X-354300Y-150600
X-365400Y-158500
X-378400Y-164200
X-377800Y-133400
X-377700Y-120300
X-367700Y-122600
X-364100Y-132500
X-345900Y-130500
X-345200Y-124100
X-317700Y-99700
X-393600Y-98800
X-393800Y-93800
X-394000Y-104300
X-393700Y-109400
X-393900Y-114700
X-239400Y-104300
X-197700Y-110500
X-182500Y-136200
X-232400Y-145400
X-203000Y-189600
X-159500Y-220800
X-139100Y-218500
X-124700Y-183600
X-107500Y-180600
X-58300Y-220200
X-21100Y-176000
X-17500Y-95400
X180600Y-107500
X183600Y-124700
X218500Y-139100
X220800Y-159500
X224900Y-181500
X189600Y-203000
X136200Y-182500
X110500Y-197700
X259600Y-176200
X289200Y-169200
X334300Y-166500
X330600Y-197700
X353400Y-198500
X360700Y-193100
X366400Y-200100
X377300Y-200400
X377000Y-159200
X369300Y-161400
X368900Y-82400
X299200Y-222400
X262300Y-223100
X393900Y-219500
Y-214900
X393300Y-208100
X398600Y-204200
X396700Y-199200
X394700Y-194500
X398200Y-189400
X393600Y-184600
X394000Y-179700
X393800Y-175700
X393400Y-169400
X398200Y-164300
X404400Y-159500
X393800Y-154400
X394000Y-148900
X393700Y-144400
X393900Y-139300
X393600Y-134300
X393700Y-129600
X393400Y-124300
X401378Y-124350
X398700Y-119300
X401378Y-114350
Y-109350
Y-104350
X400500Y-99300
X401100Y-94300
X393600Y-113600
X406300Y-209400
X305000Y-61200
X279100Y65300
X220200Y-58300
X176000Y-21100
X95400Y-17500
X56600Y-27500
X27500Y56600
X-56600Y27500
X-27500Y-56600
X-95400Y17500
X-176000Y21100
X-220200Y58300
X-305000Y61200
X-368900Y82400
X-279100Y-65300
X-401100Y94300
X-400500Y99300
X-401378Y104350
Y109350
Y114350
X-398700Y119300
X-401378Y124350
X-404400Y159500
X-398200Y164300
Y189400
X-396700Y199200
X-398600Y204200
X-406300Y209400
X-393300Y208100
X-393900Y214900
Y219500
X-394400Y224400
X-393900Y228500
X-393700Y234400
X-394200Y239500
X-393900Y244300
X-381500Y239200
X-358900Y230700
X-353400Y198500
X-360700Y193100
X-366400Y200100
X-377300Y200400
X-394700Y194500
X-393600Y184600
X-394000Y179700
X-393800Y175700
X-393400Y169400
X-393800Y154400
X-394000Y148900
X-393700Y144400
X-393900Y139300
X-393600Y134300
X-393700Y129600
X-393400Y124300
X-393600Y113600
X-377000Y159200
X-369300Y161400
X-334300Y166500
X-330600Y197700
X-299200Y222400
X-262300Y223100
X-259600Y176200
X-289200Y169200
X-224900Y181500
X-220800Y159500
X-218500Y139100
X-183600Y124700
X-180600Y107500
X-189600Y203000
X-145400Y232400
X-104300Y239400
X-110500Y197700
X-136200Y182500
X21100Y176000
X58300Y220200
X17500Y95400
X107500Y180600
X124700Y183600
X139100Y218500
X159500Y220800
X181500Y224900
X203000Y189600
X182500Y136200
X197700Y110500
X239400Y104300
X232400Y145400
X286900Y159900
X288800Y182000
X306200Y197100
X311200Y197200
X324200Y194700
X317700Y209700
X316200Y223300
X329000Y224200
X328100Y238500
X323200Y236700
X318800Y237300
X359500Y238600
X379500Y239400
X378700Y243600
X378800Y203900
X367700Y205300
X353000Y207600
X351200Y203800
X350600Y192300
X354800
X344500Y178500
X343917Y161071
X340100Y164700
X331800Y156500
X319700Y163800
X310300Y141500
X345900Y130500
X345200Y124100
X367700Y122600
X377700Y120300
X377800Y133400
X364100Y132500
X365400Y158500
X378400Y164200
X354300Y150600
X317700Y99700
X268500Y236900
X393500Y235900
X393900Y239700
X393600Y244400
X394400Y227500
X393600Y221100
X393500Y214100
X393700Y209200
X393600Y204300
X393800Y199500
X393900Y189400
X393800Y185500
X393600Y177700
X393800Y172900
X393400Y169100
X393800Y164100
X393600Y152700
X393400Y148800
X393500Y145000
X393600Y141200
X394100Y133900
X393700Y129500
X393600Y124500
X393900Y114700
X393700Y109400
X394000Y104300
X393600Y98800
X393800Y93800
X409300Y119900
X405800Y159700
X406900Y219100
X407300Y229300
X393900Y249300
X393800Y253100
X393000Y257500
X394300Y261600
X394500Y271900
X393200Y275700
X393800Y279500
X393900Y284700
Y289500
Y294200
Y299400
X393800Y304400
X404200Y332400
X408200Y276800
X378900Y281800
X375500Y289400
X371400Y287600
X359300Y280500
X352300Y281600
X348500Y285100
X346400Y276200
X321800Y274900
X320500Y282500
X325500Y320900
X345100Y347700
X369500Y332500
X352500Y299300
X332200Y250700
X329000Y247400
X291100Y268400
X287100Y264500
X268900Y291900
X264600Y300200
X270100Y318900
X245700Y308000
X248300Y333100
X244900Y361900
X230700Y358900
X239200Y381500
X239500Y394200
X244300Y393900
X250600Y393700
X254500
X259500Y393900
X265800Y394000
X269800Y393800
X274600Y394000
X279600Y393800
X284500Y393700
X291200Y393100
X297500Y393900
X306700Y393600
X294700Y378600
X289500Y379000
X283200Y366600
X284400Y362400
X279100Y351600
X293200Y345700
X331900Y377300
X252900Y379400
X234400Y393700
X228500Y393900
X224400Y394400
X219500Y393900
X214900
X208100Y393300
X204200Y398600
X199200Y396700
X194500Y394700
X189400Y398200
X184600Y393600
X179700Y394000
X175700Y393800
X169400Y393400
X164300Y398200
X154400Y393800
X148900Y394000
X144400Y393700
X139300Y393900
X134300Y393600
X129600Y393700
X124300Y393400
X119300Y398700
X113600Y393600
X99300Y400500
X94300Y401100
X82400Y368900
X161400Y369300
X159200Y377000
X200400Y377300
X200100Y366400
X193100Y360700
X198500Y353400
X197700Y330600
X166500Y334300
X169200Y289200
X176200Y259600
X223100Y262300
X222400Y299200
X61200Y305000
X-65300Y279100
X-99700Y317700
X-141500Y310300
X-163800Y319700
X-156500Y331800
X-164700Y340100
X-161071Y343917
X-178500Y344500
X-192300Y350600
Y354800
X-203800Y351200
X-207600Y353000
X-205300Y367700
X-203900Y378800
X-204300Y393600
X-209200Y393700
X-214100Y393500
X-221100Y393600
X-227500Y394400
X-235900Y393500
X-239700Y393900
X-239400Y379500
X-238600Y359500
X-238500Y328100
X-236700Y323200
X-237300Y318800
X-223300Y316200
X-224200Y329000
X-209700Y317700
X-197200Y311200
X-197100Y306200
X-194700Y324200
X-182000Y288800
X-159900Y286900
X-150600Y354300
X-158500Y365400
X-164200Y378400
X-164100Y393800
X-169100Y393400
X-172900Y393800
X-177700Y393600
X-185500Y393800
X-189400Y393900
X-199500Y393800
X-152700Y393600
X-148800Y393400
X-145000Y393500
X-141200Y393600
X-133900Y394100
X-129500Y393700
X-124500Y393600
X-114700Y393900
X-109400Y393700
X-104300Y394000
X-98800Y393600
X-93800Y393800
X-120300Y377700
X-122600Y367700
X-132500Y364100
X-133400Y377800
X-130500Y345900
X-124100Y345200
X-236900Y268500
X-264500Y287100
X-268400Y291100
X-274900Y321800
X-282500Y320500
X-285100Y348500
X-281600Y352300
X-280500Y359300
X-276200Y346400
X-299300Y352500
X-287600Y371400
X-289400Y375500
X-281800Y378900
X-279500Y393800
X-275700Y393200
X-271900Y394500
X-261600Y394300
X-257500Y393000
X-253100Y393800
X-249300Y393900
X-244400Y393600
X-243600Y378700
X-247400Y329000
X-250700Y332200
X-320900Y325500
X-347700Y345100
X-332500Y369500
X-304400Y393800
X-299400Y393900
X-294200
X-289500
X-284700
X-291900Y268900
X-300200Y264600
X-318900Y270100
X-308000Y245700
X-333100Y248300
X-361900Y244900
X-379400Y252900
X-393700Y254500
Y250600
X-393900Y259500
X-394000Y265800
X-393800Y269800
X-394000Y274600
X-393800Y279600
X-393700Y284500
X-393100Y291200
X-393900Y297500
X-393600Y306700
X-378600Y294700
X-379000Y289500
X-366600Y283200
X-362400Y284400
X-351600Y279100
X-345700Y293200
X-377300Y331900
X-332400Y404200
X-276800Y408200
X-229300Y407300
X-219100Y406900
X-159700Y405800
X-119900Y409300
X104350Y401378
X109350
X114350
X124350
X159500Y404400
X209400Y406300
T03
X238189Y-371949
X257874
X279528Y-372047
X299213
X320866Y-372146
X340551
X323749Y-338357
X337668Y-324438
X372047Y-320866
Y-340551
X372047Y-299213
Y-279527
X372047Y-257874
Y-238189
X337668Y-241761
X323749Y-255680
X337668Y-283099
X323749Y-297019
X296330Y-283001
X282410Y-296920
X296330Y-324340
X282410Y-338259
X241072Y-338160
X254991Y-324241
X241072Y-296822
X254991Y-282903
X241072Y-255483
X254991Y-241564
X282410Y-255582
X296330Y-241662
X213653Y-241465
X199733Y-255385
X213653Y-282804
X199733Y-296724
X213653Y-324143
X199733Y-338062
X196850Y-371850
X216535
X175197Y-371752
X155512
X133858Y-371654
X114173
X92520Y-371555
X72835
X75717Y-337767
X89637Y-323847
X75717Y-296428
X89637Y-282509
X75718Y-255090
X89637Y-241170
X117056Y-255188
X130975Y-241269
X130975Y-282607
X117056Y-296527
X130975Y-323946
X117056Y-337865
X158395Y-337964
X172314Y-324044
X158395Y-296625
X172314Y-282706
X158395Y-255287
X172314Y-241367
X48298Y-241072
X34379Y-254991
X6468Y-254991
X-7452Y-241072
X-34871Y-254991
X-48790Y-241072
X-76210Y-254991
X-76308Y-296330
X-48889Y-282410
X-34969Y-296330
X-7550Y-282410
X6369Y-296330
X34379Y-296330
X48298Y-282410
X48298Y-323749
X34379Y-337668
X6271Y-337668
X-7649Y-323749
X-35068Y-337668
X-48987Y-323749
X-76407Y-337668
X-72835Y-372047
X-51181Y-372047
X-31496
X-9843Y-372047
X9843
X31496Y-371457
X51181
X-92520Y-372047
X-114173Y-372047
X-133858
X-155512Y-372047
X-175197
X-196850Y-372047
X-216535
X-238189Y-372047
X-200422Y-337668
X-214342Y-323749
X-173003Y-323749
X-159084Y-337668
X-131665Y-323749
X-117745Y-337668
X-90326Y-323749
X-90228Y-282410
X-117647Y-296330
X-131566Y-282410
X-158985Y-296330
X-172905Y-282410
X-200324Y-296330
X-214243Y-282410
X-200225Y-254991
X-214145Y-241072
X-172806Y-241072
X-158887Y-254991
X-131468Y-241072
X-117548Y-254991
X-90129Y-241072
X-241564Y-254991
X-255483Y-241072
X-282903Y-254991
X-296822Y-241072
X-324241Y-254991
X-338160Y-241072
X-371949Y-238189
Y-257874
X-372047Y-279528
Y-299213
X-372146Y-320866
Y-340551
X-338357Y-323749
X-324438Y-337668
X-320866Y-372047
X-340551
X-299213Y-372047
X-279527
X-257874Y-372047
X-241761Y-337668
X-255680Y-323749
X-283099Y-337668
X-297019Y-323749
X-283001Y-296330
X-296920Y-282410
X-324340Y-296330
X-338259Y-282410
X-255582Y-282410
X-241662Y-296330
X-241465Y-213653
X-255385Y-199733
X-282804Y-213653
X-296724Y-199733
X-324143Y-213653
X-338062Y-199733
X-371850Y-196850
Y-216535
X-371752Y-175197
Y-155512
X-371654Y-133858
Y-114173
X-371555Y-92520
Y-72835
X-337767Y-75717
X-323847Y-89637
X-296428Y-75717
X-282509Y-89637
X-255090Y-75718
X-241170Y-89637
X-255188Y-117056
X-241269Y-130975
X-282607Y-130975
X-296527Y-117056
X-323946Y-130975
X-337865Y-117056
X-337964Y-158395
X-324044Y-172314
X-296625Y-158395
X-282706Y-172314
X-255287Y-158395
X-241367Y-172314
X-213948Y-158395
X-200028Y-172314
X-172609Y-158395
X-158690Y-172314
X-131271Y-158395
X-117351Y-172314
X-89932Y-158395
X-89834Y-117056
X-117253Y-130975
X-131172Y-117056
X-158591Y-130975
X-172511Y-117056
X-199930Y-130975
X-213849Y-117056
X-199832Y-89637
X-213751Y-75718
X-172413Y-75718
X-158493Y-89637
X-131074Y-75718
X-117155Y-89637
X-89735Y-75718
X-90031Y-199733
X-117450Y-213653
X-131369Y-199733
X-158788Y-213653
X-172708Y-199733
X-200127Y-213653
X-214046Y-199733
X-76111Y-213653
X-48692Y-199733
X-34773Y-213653
X-7354Y-199733
X6566Y-213653
X34379Y-213653
X48298Y-199733
X34379Y-172314
X6664Y-172314
X-7255Y-158395
X-34674Y-172314
X-48594Y-158395
X-76013Y-172314
X-75914Y-130975
X-48495Y-117056
X-34576Y-130975
X-7157Y-117056
X6763Y-130975
X34379Y-130975
X48298Y-117056
X34379Y-89637
X6861Y-89637
X-7058Y-75718
X-34477Y-89637
X-48397Y-75718
X-75816Y-89637
X48298Y-75718
X48298Y-158395
X75718Y-172413
X89637Y-158493
X75718Y-131074
X89637Y-117155
X75718Y-89735
X89637Y-75816
X117056Y-89834
X130975Y-75914
X130975Y-117253
X117056Y-131172
X130975Y-158591
X117056Y-172511
X130975Y-199930
X117056Y-213849
X89637Y-199832
X75718Y-213751
X158395Y-213948
X172314Y-200028
X158395Y-172609
X172314Y-158690
X158395Y-131271
X172314Y-117351
X158395Y-89932
X172314Y-76013
X199733Y-90031
X213653Y-76111
X213653Y-117450
X199733Y-131369
X213653Y-158788
X199733Y-172708
X213653Y-200127
X199733Y-214046
X241072Y-214145
X254991Y-200225
X241072Y-172806
X254991Y-158887
X241072Y-131468
X254991Y-117548
X241072Y-90129
X254991Y-76210
X282410Y-90228
X296330Y-76308
X296330Y-117647
X282410Y-131566
X296330Y-158985
X282410Y-172905
X296330Y-200324
X282410Y-214243
X323749Y-214342
X337668Y-200422
X372047Y-196850
Y-216535
X372047Y-175197
Y-155512
X372047Y-133858
Y-114173
X372047Y-92520
Y-72835
X337668Y-76407
X323749Y-90326
X337668Y-117745
X323749Y-131665
X337668Y-159084
X323749Y-173003
X323749Y-48987
X337668Y-35068
X372047Y-31496
Y-51181
X372047Y-9843
Y9843
X371457Y31496
Y51181
X371555Y72835
X337767Y75717
X296428Y75717
X255090Y75718
X241072Y48298
X254991Y34379
X254991Y6468
X241072Y-7452
X254991Y-34871
X241072Y-48790
X282410Y-48889
X296330Y-34969
X282410Y-7550
X296330Y6369
X296330Y34379
X282410Y48298
X323749Y48298
X337668Y34379
X337668Y6271
X323749Y-7649
X213653Y6566
X213653Y34379
X199733Y48298
X172314Y34379
X172314Y6664
X158395Y-7255
X172314Y-34674
X158395Y-48594
X130975Y-34576
X117056Y-48495
X117056Y-7157
X130975Y6763
X130975Y34379
X117056Y48298
X89637Y34379
X89637Y6861
X75718Y-7058
X89637Y-34477
X75718Y-48397
X75718Y48298
X89735Y75718
X131074Y75718
X172413Y75718
X213751Y75718
X158395Y48298
X199733Y-7354
X213653Y-34773
X199733Y-48692
X48298Y-34379
X34379Y-48298
X6960
X-6960Y-34379
X-6960Y-7058
X6960Y6861
X6960Y34379
X-6960Y48298
X-34379
X-48298Y34379
X-34379Y6960
X-48298Y-6960
Y-34379
X-34379Y-48298
X-75718Y-48298
Y7058
X-75718Y48397
X-48298Y75718
X7058
X48397Y75718
X34379Y48298
X48298Y34379
Y6960
X34379Y-6960
X-89637Y-6861
X-89637Y-34379
X-117056Y-48298
X-130975Y-34379
X-130975Y-6763
X-117056Y7157
X-130975Y34576
X-117056Y48495
X-130975Y75914
X-89637Y75816
X-89637Y34477
X-158395Y48594
X-172314Y34674
X-158395Y7255
X-172314Y-6664
X-172314Y-34379
X-158395Y-48298
X-199733Y-48298
X-213653Y-34379
X-213653Y-6566
X-199733Y7354
X-213653Y34773
X-199733Y48692
X-213653Y76111
X-172314Y76013
X-254991Y76210
X-241072Y48790
X-254991Y34871
X-241072Y7452
X-254991Y-6468
X-254991Y-34379
X-241072Y-48298
X-282410Y-48298
X-296330Y-34379
X-296330Y-6369
X-282410Y7550
X-296330Y34969
X-282410Y48889
X-296330Y76308
X-337668Y76407
X-372047Y72835
X-372047Y51181
Y31496
X-372047Y9843
Y-9843
X-371457Y-31496
Y-51181
X-323749Y-48298
X-337668Y-34379
X-337668Y-6271
X-323749Y7649
X-337668Y35068
X-323749Y48987
X-323749Y90326
X-337668Y117745
X-323749Y131665
X-337668Y159084
X-323749Y173003
X-337668Y200422
X-323749Y214342
X-337668Y241761
X-372047Y238189
X-372047Y216535
Y196850
X-372047Y175197
Y155512
X-372047Y133858
Y114173
X-372047Y92520
X-282410Y90228
X-296330Y117647
X-282410Y131566
X-296330Y158985
X-282410Y172905
X-296330Y200324
X-282410Y214243
X-296330Y241662
X-254991Y241564
X-241072Y214145
X-254991Y200225
X-241072Y172806
X-254991Y158887
X-241072Y131468
X-254991Y117548
X-241072Y90129
X-199733Y90031
X-213653Y117450
X-199733Y131369
X-213653Y158788
X-199733Y172708
X-213653Y200127
X-199733Y214046
X-213653Y241465
X-172314Y241367
X-158395Y213948
X-172314Y200028
X-158395Y172609
X-172314Y158690
X-158395Y131271
X-172314Y117351
X-158395Y89932
X-117056Y89834
X-130975Y117253
X-117056Y131172
X-130975Y158591
X-117056Y172511
X-130975Y199930
X-117056Y213849
X-130975Y241269
X-89637Y241170
X-89637Y199832
X-89637Y158493
X-89637Y117155
X-75718Y131074
X-75718Y89735
X-34379Y89637
X-6861Y89637
X34477Y89637
X48495Y117056
X34576Y130975
X7157Y117056
X-6763Y130975
X-34379Y130975
X-48298Y117056
X-48298Y158395
X-34379Y172314
X-6664Y172314
X7255Y158395
X34674Y172314
X48594Y158395
X48692Y199733
X34773Y213653
X7354Y199733
X-6566Y213653
X-34379Y213653
X-48298Y199733
X-48298Y241072
X-75718Y213751
X-75718Y172413
X7452Y241072
X48790Y241072
X90129Y241072
X131468Y241072
X172806Y241072
X214145Y241072
X200127Y213653
X214046Y199733
X172708Y199733
X158788Y213653
X131369Y199733
X117450Y213653
X90031Y199733
X76111Y213653
X76013Y172314
X89932Y158395
X117351Y172314
X131271Y158395
X158690Y172314
X172609Y158395
X200028Y172314
X213948Y158395
X199930Y130975
X213849Y117056
X172511Y117056
X158591Y130975
X131172Y117056
X117253Y130975
X89834Y117056
X75914Y130975
X75816Y89637
X117155Y89637
X158493Y89637
X199832Y89637
X241170Y89637
X282509Y89637
X323847Y89637
X337865Y117056
X323946Y130975
X296527Y117056
X282607Y130975
X255188Y117056
X241269Y130975
X255287Y158395
X241367Y172314
X282706Y172314
X296625Y158395
X324044Y172314
X337964Y158395
X371752Y155512
Y175197
X371850Y196850
Y216535
X371949Y238189
X338160Y241072
X296822Y241072
X255483Y241072
X241465Y213653
X255385Y199733
X282804Y213653
X296724Y199733
X324143Y213653
X338062Y199733
X371654Y133858
Y114173
X371555Y92520
X371949Y257874
X372047Y279528
Y299213
X372146Y320866
Y340551
X338357Y323749
X324438Y337668
X320866Y372047
X340551
X299213Y372047
X279527
X257874Y372047
X238189
X241761Y337668
X255680Y323749
X283099Y337668
X297019Y323749
X283001Y296330
X296920Y282410
X324340Y296330
X338259Y282410
X324241Y254991
X282903Y254991
X241564Y254991
X255582Y282410
X241662Y296330
X214243Y282410
X200324Y296330
X172905Y282410
X158985Y296330
X131566Y282410
X117647Y296330
X90228Y282410
X76308Y296330
X90326Y323749
X76407Y337668
X72835Y372047
X92520
X114173Y372047
X133858
X155512Y372047
X175197
X196850Y372047
X216535
X200422Y337668
X214342Y323749
X173003Y323749
X159084Y337668
X131665Y323749
X117745Y337668
X117548Y254991
X158887Y254991
X200225Y254991
X76210Y254991
X34871Y254991
X-6468Y254991
X-34379Y254991
X-48298Y282410
X-34379Y296330
X-6369Y296330
X7550Y282410
X34969Y296330
X48889Y282410
X48987Y323749
X35068Y337668
X31496Y372047
X51181
X9843Y372047
X-9843
X-31496Y371457
X-51181
X-72835Y371555
X-75717Y337767
X-75717Y296428
X-75718Y255090
X-48298Y323749
X-34379Y337668
X-6271Y337668
X7649Y323749
X-89637Y323847
X-89637Y282509
X-117056Y296527
X-130975Y282607
X-117056Y255188
X-158395Y255287
X-172314Y282706
X-158395Y296625
X-172314Y324044
X-158395Y337964
X-155512Y371752
X-175197
X-196850Y371850
X-216535
X-238189Y371949
X-199733Y338062
X-213653Y324143
X-199733Y296724
X-213653Y282804
X-199733Y255385
X-130975Y323946
X-117056Y337865
X-114173Y371654
X-133858
X-92520Y371555
X-257874Y371949
X-279528Y372047
X-299213
X-320866Y372146
X-340551
X-323749Y338357
X-337668Y324438
X-372047Y320866
Y340551
X-372047Y299213
Y279527
X-372047Y257874
X-323749Y255680
X-337668Y283099
X-323749Y297019
X-296330Y283001
X-282410Y296920
X-296330Y324340
X-282410Y338259
X-241072Y338160
X-254991Y324241
X-241072Y296822
X-254991Y282903
X-241072Y255483
X-282410Y255582
T04
X-393701Y-393701
X393701
Y393701
X-393701
M30
