G04 Layer_Color=65535*
%FSLAX25Y25*%
%MOIN*%
G70*
G01*
G75*
%ADD17C,0.00787*%
%ADD23C,0.01000*%
%ADD24C,0.03937*%
%ADD25C,0.00984*%
%ADD26C,0.00000*%
G36*
X19460Y-392558D02*
Y-392572D01*
Y-392585D01*
Y-392626D01*
Y-392680D01*
Y-392816D01*
X19447Y-392993D01*
Y-393224D01*
X19433Y-393482D01*
X19406Y-393767D01*
X19379Y-394079D01*
X19352Y-394419D01*
X19311Y-394758D01*
X19202Y-395464D01*
X19134Y-395817D01*
X19053Y-396157D01*
X18958Y-396483D01*
X18849Y-396781D01*
Y-396795D01*
X18822Y-396849D01*
X18781Y-396931D01*
X18727Y-397040D01*
X18659Y-397175D01*
X18577Y-397325D01*
X18469Y-397501D01*
X18360Y-397678D01*
X18211Y-397882D01*
X18061Y-398085D01*
X17885Y-398303D01*
X17681Y-398506D01*
X17464Y-398724D01*
X17220Y-398927D01*
X16961Y-399131D01*
X16676Y-399321D01*
X16663Y-399335D01*
X16608Y-399362D01*
X16513Y-399416D01*
X16391Y-399470D01*
X16242Y-399552D01*
X16052Y-399633D01*
X15834Y-399715D01*
X15576Y-399810D01*
X15291Y-399905D01*
X14992Y-399986D01*
X14653Y-400068D01*
X14286Y-400149D01*
X13892Y-400204D01*
X13471Y-400258D01*
X13023Y-400285D01*
X12562Y-400299D01*
X12317D01*
X12154Y-400285D01*
X11937Y-400272D01*
X11692Y-400258D01*
X11421Y-400231D01*
X11122Y-400190D01*
X10810Y-400149D01*
X10484Y-400095D01*
X10144Y-400027D01*
X9805Y-399946D01*
X9465Y-399851D01*
X9126Y-399728D01*
X8813Y-399606D01*
X8501Y-399457D01*
X8488Y-399443D01*
X8433Y-399416D01*
X8352Y-399362D01*
X8243Y-399294D01*
X8121Y-399212D01*
X7971Y-399104D01*
X7808Y-398968D01*
X7632Y-398832D01*
X7442Y-398656D01*
X7265Y-398479D01*
X7075Y-398275D01*
X6885Y-398058D01*
X6708Y-397814D01*
X6546Y-397556D01*
X6383Y-397284D01*
X6247Y-396985D01*
X6233Y-396972D01*
X6220Y-396904D01*
X6193Y-396822D01*
X6138Y-396687D01*
X6097Y-396523D01*
X6043Y-396320D01*
X5975Y-396089D01*
X5921Y-395817D01*
X5853Y-395519D01*
X5799Y-395193D01*
X5731Y-394826D01*
X5690Y-394432D01*
X5649Y-394011D01*
X5609Y-393549D01*
X5595Y-393074D01*
X5581Y-392558D01*
Y-382360D01*
X7917D01*
Y-392545D01*
Y-392572D01*
Y-392640D01*
Y-392762D01*
X7931Y-392925D01*
Y-393115D01*
X7944Y-393332D01*
X7958Y-393563D01*
X7971Y-393835D01*
X8026Y-394378D01*
X8094Y-394948D01*
X8148Y-395220D01*
X8202Y-395478D01*
X8270Y-395722D01*
X8338Y-395940D01*
Y-395953D01*
X8365Y-395980D01*
X8379Y-396048D01*
X8420Y-396116D01*
X8474Y-396211D01*
X8528Y-396320D01*
X8678Y-396551D01*
X8881Y-396822D01*
X9139Y-397108D01*
X9275Y-397243D01*
X9438Y-397365D01*
X9615Y-397501D01*
X9805Y-397610D01*
X9818D01*
X9859Y-397637D01*
X9913Y-397664D01*
X9995Y-397705D01*
X10090Y-397746D01*
X10212Y-397800D01*
X10362Y-397841D01*
X10511Y-397895D01*
X10688Y-397949D01*
X10891Y-398004D01*
X11095Y-398058D01*
X11326Y-398099D01*
X11557Y-398140D01*
X11815Y-398167D01*
X12086Y-398180D01*
X12358Y-398194D01*
X12466D01*
X12602Y-398180D01*
X12779D01*
X12982Y-398153D01*
X13227Y-398126D01*
X13498Y-398099D01*
X13784Y-398044D01*
X14083Y-397990D01*
X14381Y-397909D01*
X14694Y-397814D01*
X14992Y-397705D01*
X15278Y-397569D01*
X15549Y-397420D01*
X15807Y-397243D01*
X16024Y-397040D01*
X16038Y-397026D01*
X16079Y-396985D01*
X16133Y-396904D01*
X16201Y-396809D01*
X16282Y-396673D01*
X16377Y-396496D01*
X16473Y-396279D01*
X16581Y-396035D01*
X16676Y-395749D01*
X16771Y-395424D01*
X16866Y-395057D01*
X16948Y-394650D01*
X17029Y-394188D01*
X17084Y-393699D01*
X17111Y-393142D01*
X17124Y-392545D01*
Y-382360D01*
X19460D01*
Y-392558D01*
D02*
G37*
G36*
X36014Y-384437D02*
X30175D01*
Y-400000D01*
X27839D01*
Y-384437D01*
X22027D01*
Y-382360D01*
X36014D01*
Y-384437D01*
D02*
G37*
G36*
X-3653Y-382373D02*
X-3463D01*
X-3259Y-382387D01*
X-2825Y-382400D01*
X-2376Y-382428D01*
X-1956Y-382482D01*
X-1752Y-382509D01*
X-1575Y-382536D01*
X-1562D01*
X-1521Y-382550D01*
X-1453Y-382563D01*
X-1358Y-382577D01*
X-1249Y-382604D01*
X-1114Y-382631D01*
X-964Y-382672D01*
X-815Y-382726D01*
X-462Y-382835D01*
X-109Y-382971D01*
X258Y-383147D01*
X611Y-383365D01*
X625D01*
X652Y-383392D01*
X693Y-383432D01*
X760Y-383473D01*
X924Y-383609D01*
X1114Y-383799D01*
X1344Y-384044D01*
X1575Y-384329D01*
X1806Y-384668D01*
X2023Y-385062D01*
Y-385076D01*
X2051Y-385116D01*
X2078Y-385171D01*
X2105Y-385252D01*
X2146Y-385361D01*
X2200Y-385483D01*
X2241Y-385619D01*
X2295Y-385768D01*
X2349Y-385945D01*
X2390Y-386135D01*
X2485Y-386542D01*
X2540Y-386990D01*
X2567Y-387466D01*
Y-387493D01*
Y-387561D01*
X2553Y-387683D01*
X2540Y-387846D01*
X2526Y-388036D01*
X2485Y-388267D01*
X2444Y-388511D01*
X2390Y-388783D01*
X2309Y-389082D01*
X2214Y-389394D01*
X2105Y-389706D01*
X1956Y-390032D01*
X1793Y-390345D01*
X1602Y-390670D01*
X1385Y-390983D01*
X1127Y-391282D01*
X1114Y-391295D01*
X1059Y-391350D01*
X978Y-391417D01*
X842Y-391526D01*
X679Y-391635D01*
X475Y-391771D01*
X231Y-391906D01*
X-54Y-392056D01*
X-380Y-392205D01*
X-760Y-392341D01*
X-1182Y-392477D01*
X-1657Y-392585D01*
X-2173Y-392680D01*
X-2743Y-392762D01*
X-3368Y-392816D01*
X-3707Y-392830D01*
X-8569D01*
Y-400000D01*
X-10905D01*
Y-382360D01*
X-3816D01*
X-3653Y-382373D01*
D02*
G37*
G36*
X-14829Y-400000D02*
X-17233D01*
X-26495Y-386162D01*
Y-400000D01*
X-28735D01*
Y-382360D01*
X-26345D01*
X-17070Y-396211D01*
Y-382360D01*
X-14829D01*
Y-400000D01*
D02*
G37*
G36*
X-392531Y-43931D02*
X-394704D01*
Y-37277D01*
X-392531D01*
Y-43931D01*
D02*
G37*
G36*
X43931Y-394704D02*
X37277D01*
Y-392531D01*
X43931D01*
Y-394704D01*
D02*
G37*
G36*
X-38228D02*
X-44882D01*
Y-392531D01*
X-38228D01*
Y-394704D01*
D02*
G37*
G36*
X-32823Y-400000D02*
X-35159D01*
Y-382360D01*
X-32823D01*
Y-400000D01*
D02*
G37*
G36*
X400000Y-17233D02*
X386162Y-26495D01*
X400000D01*
Y-28735D01*
X382360D01*
Y-26345D01*
X396211Y-17070D01*
X382360D01*
Y-14829D01*
X400000D01*
Y-17233D01*
D02*
G37*
G36*
Y-35159D02*
X382360D01*
Y-32823D01*
X400000D01*
Y-35159D01*
D02*
G37*
G36*
X394704Y-44882D02*
X392531D01*
Y-38228D01*
X394704D01*
Y-44882D01*
D02*
G37*
G36*
X387683Y2553D02*
X387846Y2540D01*
X388036Y2526D01*
X388267Y2485D01*
X388511Y2444D01*
X388783Y2390D01*
X389082Y2309D01*
X389394Y2214D01*
X389706Y2105D01*
X390032Y1956D01*
X390345Y1793D01*
X390670Y1602D01*
X390983Y1385D01*
X391282Y1127D01*
X391295Y1114D01*
X391350Y1059D01*
X391417Y978D01*
X391526Y842D01*
X391635Y679D01*
X391771Y475D01*
X391906Y231D01*
X392056Y-54D01*
X392205Y-380D01*
X392341Y-760D01*
X392477Y-1182D01*
X392585Y-1657D01*
X392680Y-2173D01*
X392762Y-2743D01*
X392816Y-3368D01*
X392830Y-3707D01*
Y-4047D01*
Y-8569D01*
X400000D01*
Y-10905D01*
X382360D01*
Y-4250D01*
Y-4237D01*
Y-4169D01*
Y-4088D01*
Y-3965D01*
Y-3816D01*
X382373Y-3653D01*
Y-3463D01*
X382387Y-3259D01*
X382400Y-2825D01*
X382428Y-2376D01*
X382482Y-1956D01*
X382509Y-1752D01*
X382536Y-1575D01*
Y-1562D01*
X382550Y-1521D01*
X382563Y-1453D01*
X382577Y-1358D01*
X382604Y-1249D01*
X382631Y-1114D01*
X382672Y-964D01*
X382726Y-815D01*
X382835Y-462D01*
X382971Y-109D01*
X383147Y258D01*
X383365Y611D01*
Y625D01*
X383392Y652D01*
X383432Y693D01*
X383473Y760D01*
X383609Y924D01*
X383799Y1114D01*
X384044Y1344D01*
X384329Y1575D01*
X384668Y1806D01*
X385062Y2023D01*
X385076D01*
X385116Y2051D01*
X385171Y2078D01*
X385252Y2105D01*
X385361Y2146D01*
X385483Y2200D01*
X385619Y2241D01*
X385768Y2295D01*
X385945Y2349D01*
X386135Y2390D01*
X386542Y2485D01*
X386990Y2540D01*
X387466Y2567D01*
X387561D01*
X387683Y2553D01*
D02*
G37*
G36*
X394704Y37277D02*
X392531D01*
Y43931D01*
X394704D01*
Y37277D01*
D02*
G37*
G36*
X384437Y30175D02*
X400000D01*
Y27839D01*
X384437D01*
Y22027D01*
X382360D01*
Y36014D01*
X384437D01*
Y30175D01*
D02*
G37*
G36*
X392993Y19447D02*
X393224D01*
X393482Y19433D01*
X393767Y19406D01*
X394079Y19379D01*
X394419Y19352D01*
X394758Y19311D01*
X395464Y19202D01*
X395817Y19134D01*
X396157Y19053D01*
X396483Y18958D01*
X396781Y18849D01*
X396795D01*
X396849Y18822D01*
X396931Y18781D01*
X397040Y18727D01*
X397175Y18659D01*
X397325Y18577D01*
X397501Y18469D01*
X397678Y18360D01*
X397882Y18211D01*
X398085Y18061D01*
X398303Y17885D01*
X398506Y17681D01*
X398724Y17464D01*
X398927Y17220D01*
X399131Y16961D01*
X399321Y16676D01*
X399335Y16663D01*
X399362Y16608D01*
X399416Y16513D01*
X399470Y16391D01*
X399552Y16242D01*
X399633Y16052D01*
X399715Y15834D01*
X399810Y15576D01*
X399905Y15291D01*
X399986Y14992D01*
X400068Y14653D01*
X400149Y14286D01*
X400204Y13892D01*
X400258Y13471D01*
X400285Y13023D01*
X400299Y12562D01*
Y12534D01*
Y12453D01*
Y12317D01*
X400285Y12154D01*
X400272Y11937D01*
X400258Y11692D01*
X400231Y11421D01*
X400190Y11122D01*
X400149Y10810D01*
X400095Y10484D01*
X400027Y10144D01*
X399946Y9805D01*
X399851Y9465D01*
X399728Y9126D01*
X399606Y8813D01*
X399457Y8501D01*
X399443Y8488D01*
X399416Y8433D01*
X399362Y8352D01*
X399294Y8243D01*
X399212Y8121D01*
X399104Y7971D01*
X398968Y7808D01*
X398832Y7632D01*
X398656Y7442D01*
X398479Y7265D01*
X398275Y7075D01*
X398058Y6885D01*
X397814Y6708D01*
X397556Y6546D01*
X397284Y6383D01*
X396985Y6247D01*
X396972Y6233D01*
X396904Y6220D01*
X396822Y6193D01*
X396687Y6138D01*
X396523Y6097D01*
X396320Y6043D01*
X396089Y5975D01*
X395817Y5921D01*
X395519Y5853D01*
X395193Y5799D01*
X394826Y5731D01*
X394432Y5690D01*
X394011Y5649D01*
X393549Y5609D01*
X393074Y5595D01*
X392558Y5581D01*
X382360D01*
Y7917D01*
X392762D01*
X392925Y7931D01*
X393115D01*
X393332Y7944D01*
X393563Y7958D01*
X393835Y7971D01*
X394378Y8026D01*
X394948Y8094D01*
X395220Y8148D01*
X395478Y8202D01*
X395722Y8270D01*
X395940Y8338D01*
X395953D01*
X395980Y8365D01*
X396048Y8379D01*
X396116Y8420D01*
X396211Y8474D01*
X396320Y8528D01*
X396551Y8678D01*
X396822Y8881D01*
X397108Y9139D01*
X397243Y9275D01*
X397365Y9438D01*
X397501Y9615D01*
X397610Y9805D01*
Y9818D01*
X397637Y9859D01*
X397664Y9913D01*
X397705Y9995D01*
X397746Y10090D01*
X397800Y10212D01*
X397841Y10362D01*
X397895Y10511D01*
X397949Y10688D01*
X398004Y10891D01*
X398058Y11095D01*
X398099Y11326D01*
X398140Y11557D01*
X398167Y11815D01*
X398180Y12086D01*
X398194Y12358D01*
Y12371D01*
Y12385D01*
Y12466D01*
X398180Y12602D01*
Y12779D01*
X398153Y12982D01*
X398126Y13227D01*
X398099Y13498D01*
X398044Y13784D01*
X397990Y14083D01*
X397909Y14381D01*
X397814Y14694D01*
X397705Y14992D01*
X397569Y15278D01*
X397420Y15549D01*
X397243Y15807D01*
X397040Y16024D01*
X397026Y16038D01*
X396985Y16079D01*
X396904Y16133D01*
X396809Y16201D01*
X396673Y16282D01*
X396496Y16377D01*
X396279Y16473D01*
X396035Y16581D01*
X395749Y16676D01*
X395424Y16771D01*
X395057Y16866D01*
X394650Y16948D01*
X394188Y17029D01*
X393699Y17084D01*
X393142Y17111D01*
X392545Y17124D01*
X382360D01*
Y19460D01*
X392816D01*
X392993Y19447D01*
D02*
G37*
G36*
X10905Y382360D02*
X3816D01*
X3653Y382373D01*
X3463D01*
X3259Y382387D01*
X2825Y382400D01*
X2376Y382428D01*
X1956Y382482D01*
X1752Y382509D01*
X1575Y382536D01*
X1562D01*
X1521Y382550D01*
X1453Y382563D01*
X1358Y382577D01*
X1249Y382604D01*
X1114Y382631D01*
X964Y382672D01*
X815Y382726D01*
X462Y382835D01*
X109Y382971D01*
X-258Y383147D01*
X-611Y383365D01*
X-625D01*
X-652Y383392D01*
X-693Y383432D01*
X-760Y383473D01*
X-924Y383609D01*
X-1114Y383799D01*
X-1344Y384044D01*
X-1575Y384329D01*
X-1806Y384668D01*
X-2023Y385062D01*
Y385076D01*
X-2051Y385116D01*
X-2078Y385171D01*
X-2105Y385252D01*
X-2146Y385361D01*
X-2200Y385483D01*
X-2241Y385619D01*
X-2295Y385768D01*
X-2349Y385945D01*
X-2390Y386135D01*
X-2485Y386542D01*
X-2540Y386990D01*
X-2567Y387466D01*
Y387493D01*
Y387561D01*
X-2553Y387683D01*
X-2540Y387846D01*
X-2526Y388036D01*
X-2485Y388267D01*
X-2444Y388511D01*
X-2390Y388783D01*
X-2309Y389082D01*
X-2214Y389394D01*
X-2105Y389706D01*
X-1956Y390032D01*
X-1793Y390345D01*
X-1602Y390670D01*
X-1385Y390983D01*
X-1127Y391282D01*
X-1114Y391295D01*
X-1059Y391350D01*
X-978Y391417D01*
X-842Y391526D01*
X-679Y391635D01*
X-475Y391771D01*
X-231Y391906D01*
X54Y392056D01*
X380Y392205D01*
X760Y392341D01*
X1182Y392477D01*
X1657Y392585D01*
X2173Y392680D01*
X2743Y392762D01*
X3368Y392816D01*
X3707Y392830D01*
X8569D01*
Y400000D01*
X10905D01*
Y382360D01*
D02*
G37*
G36*
X-12154Y400285D02*
X-11937Y400272D01*
X-11692Y400258D01*
X-11421Y400231D01*
X-11122Y400190D01*
X-10810Y400149D01*
X-10484Y400095D01*
X-10144Y400027D01*
X-9805Y399946D01*
X-9465Y399851D01*
X-9126Y399728D01*
X-8813Y399606D01*
X-8501Y399457D01*
X-8488Y399443D01*
X-8433Y399416D01*
X-8352Y399362D01*
X-8243Y399294D01*
X-8121Y399212D01*
X-7971Y399104D01*
X-7808Y398968D01*
X-7632Y398832D01*
X-7442Y398656D01*
X-7265Y398479D01*
X-7075Y398275D01*
X-6885Y398058D01*
X-6708Y397814D01*
X-6546Y397556D01*
X-6383Y397284D01*
X-6247Y396985D01*
X-6233Y396972D01*
X-6220Y396904D01*
X-6193Y396822D01*
X-6138Y396687D01*
X-6097Y396523D01*
X-6043Y396320D01*
X-5975Y396089D01*
X-5921Y395817D01*
X-5853Y395519D01*
X-5799Y395193D01*
X-5731Y394826D01*
X-5690Y394432D01*
X-5649Y394011D01*
X-5609Y393549D01*
X-5595Y393074D01*
X-5581Y392558D01*
Y382360D01*
X-7917D01*
Y392545D01*
Y392572D01*
Y392640D01*
Y392762D01*
X-7931Y392925D01*
Y393115D01*
X-7944Y393332D01*
X-7958Y393563D01*
X-7971Y393835D01*
X-8026Y394378D01*
X-8094Y394948D01*
X-8148Y395220D01*
X-8202Y395478D01*
X-8270Y395722D01*
X-8338Y395940D01*
Y395953D01*
X-8365Y395980D01*
X-8379Y396048D01*
X-8420Y396116D01*
X-8474Y396211D01*
X-8528Y396320D01*
X-8678Y396551D01*
X-8881Y396822D01*
X-9139Y397108D01*
X-9275Y397243D01*
X-9438Y397365D01*
X-9615Y397501D01*
X-9805Y397610D01*
X-9818D01*
X-9859Y397637D01*
X-9913Y397664D01*
X-9995Y397705D01*
X-10090Y397746D01*
X-10212Y397800D01*
X-10362Y397841D01*
X-10511Y397895D01*
X-10688Y397949D01*
X-10891Y398004D01*
X-11095Y398058D01*
X-11326Y398099D01*
X-11557Y398140D01*
X-11815Y398167D01*
X-12086Y398180D01*
X-12358Y398194D01*
X-12466D01*
X-12602Y398180D01*
X-12779D01*
X-12982Y398153D01*
X-13227Y398126D01*
X-13498Y398099D01*
X-13784Y398044D01*
X-14083Y397990D01*
X-14381Y397909D01*
X-14694Y397814D01*
X-14992Y397705D01*
X-15278Y397569D01*
X-15549Y397420D01*
X-15807Y397243D01*
X-16024Y397040D01*
X-16038Y397026D01*
X-16079Y396985D01*
X-16133Y396904D01*
X-16201Y396809D01*
X-16282Y396673D01*
X-16377Y396496D01*
X-16473Y396279D01*
X-16581Y396035D01*
X-16676Y395749D01*
X-16771Y395424D01*
X-16866Y395057D01*
X-16948Y394650D01*
X-17029Y394188D01*
X-17084Y393699D01*
X-17111Y393142D01*
X-17124Y392545D01*
Y382360D01*
X-19460D01*
Y392558D01*
Y392572D01*
Y392585D01*
Y392626D01*
Y392680D01*
Y392816D01*
X-19447Y392993D01*
Y393224D01*
X-19433Y393482D01*
X-19406Y393767D01*
X-19379Y394079D01*
X-19352Y394419D01*
X-19311Y394758D01*
X-19202Y395464D01*
X-19134Y395817D01*
X-19053Y396157D01*
X-18958Y396483D01*
X-18849Y396781D01*
Y396795D01*
X-18822Y396849D01*
X-18781Y396931D01*
X-18727Y397040D01*
X-18659Y397175D01*
X-18577Y397325D01*
X-18469Y397501D01*
X-18360Y397678D01*
X-18211Y397882D01*
X-18061Y398085D01*
X-17885Y398303D01*
X-17681Y398506D01*
X-17464Y398724D01*
X-17220Y398927D01*
X-16961Y399131D01*
X-16676Y399321D01*
X-16663Y399335D01*
X-16608Y399362D01*
X-16513Y399416D01*
X-16391Y399470D01*
X-16242Y399552D01*
X-16052Y399633D01*
X-15834Y399715D01*
X-15576Y399810D01*
X-15291Y399905D01*
X-14992Y399986D01*
X-14653Y400068D01*
X-14286Y400149D01*
X-13892Y400204D01*
X-13471Y400258D01*
X-13023Y400285D01*
X-12562Y400299D01*
X-12317D01*
X-12154Y400285D01*
D02*
G37*
G36*
X-27839Y384437D02*
X-22027D01*
Y382360D01*
X-36014D01*
Y384437D01*
X-30175D01*
Y400000D01*
X-27839D01*
Y384437D01*
D02*
G37*
G36*
X35159Y382360D02*
X32823D01*
Y400000D01*
X35159D01*
Y382360D01*
D02*
G37*
G36*
X44882Y392531D02*
X38228D01*
Y394704D01*
X44882D01*
Y392531D01*
D02*
G37*
G36*
X-37277D02*
X-43931D01*
Y394704D01*
X-37277D01*
Y392531D01*
D02*
G37*
G36*
X28735Y382360D02*
X26345D01*
X17070Y396211D01*
Y382360D01*
X14829D01*
Y400000D01*
X17233D01*
X26495Y386162D01*
Y400000D01*
X28735D01*
Y382360D01*
D02*
G37*
G36*
X-392531Y38228D02*
X-394704D01*
Y44882D01*
X-392531D01*
Y38228D01*
D02*
G37*
G36*
X-382360Y4250D02*
Y4237D01*
Y4169D01*
Y4088D01*
Y3965D01*
Y3816D01*
X-382373Y3653D01*
Y3463D01*
X-382387Y3259D01*
X-382400Y2825D01*
X-382428Y2376D01*
X-382482Y1956D01*
X-382509Y1752D01*
X-382536Y1575D01*
Y1562D01*
X-382550Y1521D01*
X-382563Y1453D01*
X-382577Y1358D01*
X-382604Y1249D01*
X-382631Y1114D01*
X-382672Y964D01*
X-382726Y815D01*
X-382835Y462D01*
X-382971Y109D01*
X-383147Y-258D01*
X-383365Y-611D01*
Y-625D01*
X-383392Y-652D01*
X-383432Y-693D01*
X-383473Y-760D01*
X-383609Y-924D01*
X-383799Y-1114D01*
X-384044Y-1344D01*
X-384329Y-1575D01*
X-384668Y-1806D01*
X-385062Y-2023D01*
X-385076D01*
X-385116Y-2051D01*
X-385171Y-2078D01*
X-385252Y-2105D01*
X-385361Y-2146D01*
X-385483Y-2200D01*
X-385619Y-2241D01*
X-385768Y-2295D01*
X-385945Y-2349D01*
X-386135Y-2390D01*
X-386542Y-2485D01*
X-386990Y-2540D01*
X-387466Y-2567D01*
X-387561D01*
X-387683Y-2553D01*
X-387846Y-2540D01*
X-388036Y-2526D01*
X-388267Y-2485D01*
X-388511Y-2444D01*
X-388783Y-2390D01*
X-389082Y-2309D01*
X-389394Y-2214D01*
X-389706Y-2105D01*
X-390032Y-1956D01*
X-390345Y-1793D01*
X-390670Y-1602D01*
X-390983Y-1385D01*
X-391282Y-1127D01*
X-391295Y-1114D01*
X-391350Y-1059D01*
X-391417Y-978D01*
X-391526Y-842D01*
X-391635Y-679D01*
X-391771Y-475D01*
X-391906Y-231D01*
X-392056Y54D01*
X-392205Y380D01*
X-392341Y760D01*
X-392477Y1182D01*
X-392585Y1657D01*
X-392680Y2173D01*
X-392762Y2743D01*
X-392816Y3368D01*
X-392830Y3707D01*
Y4047D01*
Y8569D01*
X-400000D01*
Y10905D01*
X-382360D01*
Y4250D01*
D02*
G37*
G36*
Y-7917D02*
X-392762D01*
X-392925Y-7931D01*
X-393115D01*
X-393332Y-7944D01*
X-393563Y-7958D01*
X-393835Y-7971D01*
X-394378Y-8026D01*
X-394948Y-8094D01*
X-395220Y-8148D01*
X-395478Y-8202D01*
X-395722Y-8270D01*
X-395940Y-8338D01*
X-395953D01*
X-395980Y-8365D01*
X-396048Y-8379D01*
X-396116Y-8420D01*
X-396211Y-8474D01*
X-396320Y-8528D01*
X-396551Y-8678D01*
X-396822Y-8881D01*
X-397108Y-9139D01*
X-397243Y-9275D01*
X-397365Y-9438D01*
X-397501Y-9615D01*
X-397610Y-9805D01*
Y-9818D01*
X-397637Y-9859D01*
X-397664Y-9913D01*
X-397705Y-9995D01*
X-397746Y-10090D01*
X-397800Y-10212D01*
X-397841Y-10362D01*
X-397895Y-10511D01*
X-397949Y-10688D01*
X-398004Y-10891D01*
X-398058Y-11095D01*
X-398099Y-11326D01*
X-398140Y-11557D01*
X-398167Y-11815D01*
X-398180Y-12086D01*
X-398194Y-12358D01*
Y-12371D01*
Y-12385D01*
Y-12466D01*
X-398180Y-12602D01*
Y-12779D01*
X-398153Y-12982D01*
X-398126Y-13227D01*
X-398099Y-13498D01*
X-398044Y-13784D01*
X-397990Y-14083D01*
X-397909Y-14381D01*
X-397814Y-14694D01*
X-397705Y-14992D01*
X-397569Y-15278D01*
X-397420Y-15549D01*
X-397243Y-15807D01*
X-397040Y-16024D01*
X-397026Y-16038D01*
X-396985Y-16079D01*
X-396904Y-16133D01*
X-396809Y-16201D01*
X-396673Y-16282D01*
X-396496Y-16377D01*
X-396279Y-16473D01*
X-396035Y-16581D01*
X-395749Y-16676D01*
X-395424Y-16771D01*
X-395057Y-16866D01*
X-394650Y-16948D01*
X-394188Y-17029D01*
X-393699Y-17084D01*
X-393142Y-17111D01*
X-392545Y-17124D01*
X-382360D01*
Y-19460D01*
X-392816D01*
X-392993Y-19447D01*
X-393224D01*
X-393482Y-19433D01*
X-393767Y-19406D01*
X-394079Y-19379D01*
X-394419Y-19352D01*
X-394758Y-19311D01*
X-395464Y-19202D01*
X-395817Y-19134D01*
X-396157Y-19053D01*
X-396483Y-18958D01*
X-396781Y-18849D01*
X-396795D01*
X-396849Y-18822D01*
X-396931Y-18781D01*
X-397040Y-18727D01*
X-397175Y-18659D01*
X-397325Y-18577D01*
X-397501Y-18469D01*
X-397678Y-18360D01*
X-397882Y-18211D01*
X-398085Y-18061D01*
X-398303Y-17885D01*
X-398506Y-17681D01*
X-398724Y-17464D01*
X-398927Y-17220D01*
X-399131Y-16961D01*
X-399321Y-16676D01*
X-399335Y-16663D01*
X-399362Y-16608D01*
X-399416Y-16513D01*
X-399470Y-16391D01*
X-399552Y-16242D01*
X-399633Y-16052D01*
X-399715Y-15834D01*
X-399810Y-15576D01*
X-399905Y-15291D01*
X-399986Y-14992D01*
X-400068Y-14653D01*
X-400149Y-14286D01*
X-400204Y-13892D01*
X-400258Y-13471D01*
X-400285Y-13023D01*
X-400299Y-12562D01*
Y-12534D01*
Y-12453D01*
Y-12317D01*
X-400285Y-12154D01*
X-400272Y-11937D01*
X-400258Y-11692D01*
X-400231Y-11421D01*
X-400190Y-11122D01*
X-400149Y-10810D01*
X-400095Y-10484D01*
X-400027Y-10144D01*
X-399946Y-9805D01*
X-399851Y-9465D01*
X-399728Y-9126D01*
X-399606Y-8813D01*
X-399457Y-8501D01*
X-399443Y-8488D01*
X-399416Y-8433D01*
X-399362Y-8352D01*
X-399294Y-8243D01*
X-399212Y-8121D01*
X-399104Y-7971D01*
X-398968Y-7808D01*
X-398832Y-7632D01*
X-398656Y-7442D01*
X-398479Y-7265D01*
X-398275Y-7075D01*
X-398058Y-6885D01*
X-397814Y-6708D01*
X-397556Y-6546D01*
X-397284Y-6383D01*
X-396985Y-6247D01*
X-396972Y-6233D01*
X-396904Y-6220D01*
X-396822Y-6193D01*
X-396687Y-6138D01*
X-396523Y-6097D01*
X-396320Y-6043D01*
X-396089Y-5975D01*
X-395817Y-5921D01*
X-395519Y-5853D01*
X-395193Y-5799D01*
X-394826Y-5731D01*
X-394432Y-5690D01*
X-394011Y-5649D01*
X-393549Y-5609D01*
X-393074Y-5595D01*
X-392558Y-5581D01*
X-382360D01*
Y-7917D01*
D02*
G37*
G36*
Y-36014D02*
X-384437D01*
Y-30175D01*
X-400000D01*
Y-27839D01*
X-384437D01*
Y-22027D01*
X-382360D01*
Y-36014D01*
D02*
G37*
G36*
Y32823D02*
X-400000D01*
Y35159D01*
X-382360D01*
Y32823D01*
D02*
G37*
G36*
Y26345D02*
X-396211Y17070D01*
X-382360D01*
Y14829D01*
X-400000D01*
Y17233D01*
X-386162Y26495D01*
X-400000D01*
Y28735D01*
X-382360D01*
Y26345D01*
D02*
G37*
%LPC*%
G36*
X-3504Y-384437D02*
X-8569D01*
Y-390752D01*
X-3789D01*
X-3639Y-390738D01*
X-3449Y-390725D01*
X-3246Y-390711D01*
X-3015Y-390684D01*
X-2757Y-390643D01*
X-2227Y-390548D01*
X-1969Y-390480D01*
X-1698Y-390399D01*
X-1453Y-390304D01*
X-1209Y-390182D01*
X-991Y-390059D01*
X-801Y-389910D01*
X-788Y-389896D01*
X-760Y-389869D01*
X-706Y-389829D01*
X-652Y-389761D01*
X-584Y-389666D01*
X-502Y-389557D01*
X-407Y-389435D01*
X-312Y-389299D01*
X-231Y-389136D01*
X-136Y-388960D01*
X-54Y-388769D01*
X14Y-388552D01*
X68Y-388335D01*
X122Y-388090D01*
X149Y-387819D01*
X163Y-387547D01*
Y-387534D01*
Y-387493D01*
Y-387439D01*
X149Y-387357D01*
Y-387262D01*
X136Y-387153D01*
X95Y-386895D01*
X27Y-386596D01*
X-81Y-386271D01*
X-217Y-385958D01*
X-407Y-385646D01*
Y-385632D01*
X-435Y-385605D01*
X-462Y-385564D01*
X-502Y-385524D01*
X-625Y-385388D01*
X-801Y-385225D01*
X-1005Y-385048D01*
X-1263Y-384872D01*
X-1548Y-384722D01*
X-1874Y-384600D01*
X-1901Y-384587D01*
X-1942D01*
X-1996Y-384573D01*
X-2064Y-384559D01*
X-2146Y-384546D01*
X-2254Y-384532D01*
X-2376Y-384519D01*
X-2512Y-384505D01*
X-2675Y-384492D01*
X-2852Y-384478D01*
X-3042Y-384465D01*
X-3273Y-384451D01*
X-3504Y-384437D01*
D02*
G37*
G36*
X387547Y163D02*
X387439D01*
X387357Y149D01*
X387262D01*
X387153Y136D01*
X386895Y95D01*
X386596Y27D01*
X386271Y-81D01*
X385958Y-217D01*
X385646Y-407D01*
X385632D01*
X385605Y-435D01*
X385564Y-462D01*
X385524Y-502D01*
X385388Y-625D01*
X385225Y-801D01*
X385048Y-1005D01*
X384872Y-1263D01*
X384722Y-1548D01*
X384600Y-1874D01*
X384587Y-1901D01*
Y-1942D01*
X384573Y-1996D01*
X384559Y-2064D01*
X384546Y-2146D01*
X384532Y-2254D01*
X384519Y-2376D01*
X384505Y-2512D01*
X384492Y-2675D01*
X384478Y-2852D01*
X384465Y-3042D01*
X384451Y-3273D01*
X384437Y-3504D01*
Y-3775D01*
Y-4060D01*
Y-8569D01*
X390752D01*
Y-4006D01*
Y-3979D01*
Y-3911D01*
Y-3789D01*
X390738Y-3639D01*
X390725Y-3449D01*
X390711Y-3246D01*
X390684Y-3015D01*
X390643Y-2757D01*
X390548Y-2227D01*
X390480Y-1969D01*
X390399Y-1698D01*
X390304Y-1453D01*
X390182Y-1209D01*
X390059Y-991D01*
X389910Y-801D01*
X389896Y-788D01*
X389869Y-760D01*
X389829Y-706D01*
X389761Y-652D01*
X389666Y-584D01*
X389557Y-502D01*
X389435Y-407D01*
X389299Y-312D01*
X389136Y-231D01*
X388960Y-136D01*
X388769Y-54D01*
X388552Y14D01*
X388335Y68D01*
X388090Y122D01*
X387819Y149D01*
X387547Y163D01*
D02*
G37*
G36*
X8569Y390752D02*
X3789D01*
X3639Y390738D01*
X3449Y390725D01*
X3246Y390711D01*
X3015Y390684D01*
X2757Y390643D01*
X2227Y390548D01*
X1969Y390480D01*
X1698Y390399D01*
X1453Y390304D01*
X1209Y390182D01*
X991Y390059D01*
X801Y389910D01*
X788Y389896D01*
X760Y389869D01*
X706Y389829D01*
X652Y389761D01*
X584Y389666D01*
X502Y389557D01*
X407Y389435D01*
X312Y389299D01*
X231Y389136D01*
X136Y388960D01*
X54Y388769D01*
X-14Y388552D01*
X-68Y388335D01*
X-122Y388090D01*
X-149Y387819D01*
X-163Y387547D01*
Y387534D01*
Y387493D01*
Y387439D01*
X-149Y387357D01*
Y387262D01*
X-136Y387153D01*
X-95Y386895D01*
X-27Y386596D01*
X81Y386271D01*
X217Y385958D01*
X407Y385646D01*
Y385632D01*
X435Y385605D01*
X462Y385564D01*
X502Y385524D01*
X625Y385388D01*
X801Y385225D01*
X1005Y385048D01*
X1263Y384872D01*
X1548Y384722D01*
X1874Y384600D01*
X1901Y384587D01*
X1942D01*
X1996Y384573D01*
X2064Y384559D01*
X2146Y384546D01*
X2254Y384532D01*
X2376Y384519D01*
X2512Y384505D01*
X2675Y384492D01*
X2852Y384478D01*
X3042Y384465D01*
X3273Y384451D01*
X3504Y384437D01*
X8569D01*
Y390752D01*
D02*
G37*
G36*
X-384437Y8569D02*
X-390752D01*
Y4006D01*
Y3979D01*
Y3911D01*
Y3789D01*
X-390738Y3639D01*
X-390725Y3449D01*
X-390711Y3246D01*
X-390684Y3015D01*
X-390643Y2757D01*
X-390548Y2227D01*
X-390480Y1969D01*
X-390399Y1698D01*
X-390304Y1453D01*
X-390182Y1209D01*
X-390059Y991D01*
X-389910Y801D01*
X-389896Y788D01*
X-389869Y760D01*
X-389829Y706D01*
X-389761Y652D01*
X-389666Y584D01*
X-389557Y502D01*
X-389435Y407D01*
X-389299Y312D01*
X-389136Y231D01*
X-388960Y136D01*
X-388769Y54D01*
X-388552Y-14D01*
X-388335Y-68D01*
X-388090Y-122D01*
X-387819Y-149D01*
X-387547Y-163D01*
X-387439D01*
X-387357Y-149D01*
X-387262D01*
X-387153Y-136D01*
X-386895Y-95D01*
X-386596Y-27D01*
X-386271Y81D01*
X-385958Y217D01*
X-385646Y407D01*
X-385632D01*
X-385605Y435D01*
X-385564Y462D01*
X-385524Y502D01*
X-385388Y625D01*
X-385225Y801D01*
X-385048Y1005D01*
X-384872Y1263D01*
X-384722Y1548D01*
X-384600Y1874D01*
X-384587Y1901D01*
Y1942D01*
X-384573Y1996D01*
X-384559Y2064D01*
X-384546Y2146D01*
X-384532Y2254D01*
X-384519Y2376D01*
X-384505Y2512D01*
X-384492Y2675D01*
X-384478Y2852D01*
X-384465Y3042D01*
X-384451Y3273D01*
X-384437Y3504D01*
Y3775D01*
Y4060D01*
Y8569D01*
D02*
G37*
%LPD*%
D17*
X-197Y360630D02*
X197D01*
X-197Y363779D02*
X197D01*
X360630Y289173D02*
Y289567D01*
X363779Y289173D02*
Y289567D01*
X338602Y48977D02*
X338880Y48699D01*
X336375Y46750D02*
X336653Y46472D01*
X297263Y48977D02*
X297542Y48699D01*
X295036Y46750D02*
X295315Y46472D01*
X330512Y360630D02*
X330905D01*
X330512Y363779D02*
X330905D01*
X289173Y360630D02*
X289567D01*
X289173Y363779D02*
X289567D01*
X247835Y360630D02*
X248228D01*
X247835Y363779D02*
X248228D01*
X206496Y360630D02*
X206890D01*
X206496Y363779D02*
X206890D01*
X165157Y360630D02*
X165551D01*
X165157Y363779D02*
X165551D01*
X123819Y360630D02*
X124213D01*
X123819Y363779D02*
X124213D01*
X82480Y360630D02*
X82874D01*
X82480Y363779D02*
X82874D01*
X41142Y360630D02*
X41535D01*
X41142Y363779D02*
X41535D01*
X297952Y338347D02*
X298231Y338069D01*
X295725Y336120D02*
X296004Y335842D01*
X338926Y338892D02*
X339204Y338614D01*
X336699Y336665D02*
X336977Y336387D01*
X256614Y338347D02*
X256892Y338069D01*
X254387Y336120D02*
X254665Y335842D01*
X215275Y338347D02*
X215554Y338069D01*
X213048Y336120D02*
X213327Y335842D01*
X173937Y338348D02*
X174215Y338069D01*
X171710Y336120D02*
X171988Y335842D01*
X132598Y338348D02*
X132876Y338069D01*
X130371Y336120D02*
X130649Y335842D01*
X91259Y338348D02*
X91538Y338069D01*
X89032Y336120D02*
X89311Y335842D01*
X49921Y338348D02*
X50199Y338069D01*
X47694Y336120D02*
X47972Y335842D01*
X8582Y338348D02*
X8861Y338069D01*
X6355Y336120D02*
X6634Y335842D01*
X297854Y297009D02*
X298132Y296730D01*
X295627Y294782D02*
X295905Y294503D01*
X338828Y297554D02*
X339106Y297275D01*
X336600Y295327D02*
X336879Y295048D01*
X256515Y297009D02*
X256794Y296730D01*
X254288Y294782D02*
X254567Y294503D01*
X215177Y297009D02*
X215455Y296730D01*
X212950Y294782D02*
X213228Y294503D01*
X173838Y297009D02*
X174117Y296730D01*
X171611Y294782D02*
X171889Y294503D01*
X132500Y297009D02*
X132778Y296730D01*
X130272Y294782D02*
X130551Y294503D01*
X91161Y297009D02*
X91439Y296730D01*
X88934Y294782D02*
X89212Y294503D01*
X49823Y297009D02*
X50101Y296730D01*
X47595Y294782D02*
X47874Y294503D01*
X8484Y297009D02*
X8762Y296730D01*
X6257Y294782D02*
X6535Y294503D01*
X297756Y255670D02*
X298034Y255392D01*
X295528Y253443D02*
X295807Y253165D01*
X338729Y256215D02*
X339008Y255937D01*
X336502Y253988D02*
X336781Y253710D01*
X256417Y255670D02*
X256695Y255392D01*
X254190Y253443D02*
X254468Y253165D01*
X215078Y255670D02*
X215357Y255392D01*
X212851Y253443D02*
X213130Y253165D01*
X173740Y255670D02*
X174018Y255392D01*
X171513Y253443D02*
X171791Y253165D01*
X132401Y255670D02*
X132680Y255392D01*
X130174Y253443D02*
X130453Y253165D01*
X91063Y255670D02*
X91341Y255392D01*
X88836Y253443D02*
X89114Y253165D01*
X49724Y255670D02*
X50002Y255392D01*
X47497Y253443D02*
X47775Y253165D01*
X8386Y255670D02*
X8664Y255392D01*
X6158Y253443D02*
X6437Y253165D01*
X297657Y214332D02*
X297936Y214053D01*
X295430Y212105D02*
X295708Y211826D01*
X338631Y214877D02*
X338909Y214598D01*
X336404Y212649D02*
X336682Y212371D01*
X256318Y214332D02*
X256597Y214053D01*
X254091Y212105D02*
X254370Y211826D01*
X214980Y214332D02*
X215258Y214053D01*
X212753Y212105D02*
X213031Y211826D01*
X173641Y214332D02*
X173920Y214053D01*
X171414Y212105D02*
X171693Y211826D01*
X132303Y214332D02*
X132581Y214053D01*
X130076Y212105D02*
X130354Y211826D01*
X90964Y214332D02*
X91243Y214053D01*
X88737Y212105D02*
X89016Y211826D01*
X49626Y214332D02*
X49904Y214053D01*
X47399Y212105D02*
X47677Y211826D01*
X8287Y214332D02*
X8565Y214053D01*
X6060Y212105D02*
X6338Y211826D01*
X297559Y172993D02*
X297837Y172715D01*
X295332Y170766D02*
X295610Y170488D01*
X338532Y173538D02*
X338811Y173259D01*
X336305Y171311D02*
X336584Y171032D01*
X256220Y172993D02*
X256499Y172715D01*
X253993Y170766D02*
X254271Y170488D01*
X214881Y172993D02*
X215160Y172715D01*
X212654Y170766D02*
X212933Y170488D01*
X173543Y172993D02*
X173821Y172715D01*
X171316Y170766D02*
X171594Y170488D01*
X132204Y172993D02*
X132483Y172715D01*
X129977Y170766D02*
X130256Y170488D01*
X90866Y172993D02*
X91144Y172715D01*
X88639Y170766D02*
X88917Y170488D01*
X49527Y172993D02*
X49806Y172715D01*
X47300Y170766D02*
X47578Y170488D01*
X8189Y172993D02*
X8467Y172715D01*
X5962Y170766D02*
X6240Y170488D01*
X297460Y131655D02*
X297739Y131376D01*
X295233Y129427D02*
X295512Y129149D01*
X338434Y132199D02*
X338712Y131921D01*
X336207Y129972D02*
X336485Y129694D01*
X256122Y131655D02*
X256400Y131376D01*
X253895Y129427D02*
X254173Y129149D01*
X214783Y131655D02*
X215061Y131376D01*
X212556Y129427D02*
X212834Y129149D01*
X173444Y131655D02*
X173723Y131376D01*
X171217Y129427D02*
X171496Y129149D01*
X132106Y131655D02*
X132384Y131376D01*
X129879Y129428D02*
X130157Y129149D01*
X90767Y131655D02*
X91046Y131376D01*
X88540Y129428D02*
X88819Y129149D01*
X49429Y131655D02*
X49707Y131376D01*
X47202Y129428D02*
X47480Y129149D01*
X8090Y131655D02*
X8369Y131376D01*
X5863Y129428D02*
X6142Y129149D01*
X297362Y90316D02*
X297640Y90038D01*
X295135Y88089D02*
X295413Y87810D01*
X338335Y90861D02*
X338614Y90582D01*
X336108Y88634D02*
X336387Y88355D01*
X256023Y90316D02*
X256302Y90038D01*
X253796Y88089D02*
X254075Y87810D01*
X214685Y90316D02*
X214963Y90038D01*
X212458Y88089D02*
X212736Y87810D01*
X173346Y90316D02*
X173625Y90038D01*
X171119Y88089D02*
X171397Y87810D01*
X132008Y90316D02*
X132286Y90038D01*
X129780Y88089D02*
X130059Y87810D01*
X90669Y90316D02*
X90947Y90038D01*
X88442Y88089D02*
X88720Y87810D01*
X49330Y90316D02*
X49609Y90038D01*
X47103Y88089D02*
X47382Y87810D01*
X7992Y90316D02*
X8270Y90038D01*
X5765Y88089D02*
X6043Y87810D01*
X7893Y48977D02*
X8172Y48699D01*
X5666Y46750D02*
X5945Y46472D01*
X49232Y48977D02*
X49510Y48699D01*
X47005Y46750D02*
X47283Y46472D01*
X90571Y48977D02*
X90849Y48699D01*
X88343Y46750D02*
X88622Y46472D01*
X131909Y48977D02*
X132187Y48699D01*
X129682Y46750D02*
X129960Y46472D01*
X173248Y48977D02*
X173526Y48699D01*
X171021Y46750D02*
X171299Y46472D01*
X214586Y48977D02*
X214865Y48699D01*
X212359Y46750D02*
X212637Y46472D01*
X255925Y48977D02*
X256203Y48699D01*
X253698Y46750D02*
X253976Y46472D01*
X360728Y330512D02*
Y330906D01*
X363878Y330512D02*
Y330906D01*
X360039Y41142D02*
Y41535D01*
X363189Y41142D02*
Y41535D01*
X360138Y82480D02*
Y82874D01*
X363287Y82480D02*
Y82874D01*
X360236Y123819D02*
Y124213D01*
X363386Y123819D02*
Y124213D01*
X360335Y165157D02*
Y165551D01*
X363484Y165157D02*
Y165551D01*
X360433Y206496D02*
Y206890D01*
X363583Y206496D02*
Y206890D01*
X360531Y247835D02*
Y248228D01*
X363681Y247835D02*
Y248228D01*
X-248228Y360531D02*
X-247835D01*
X-248228Y363681D02*
X-247835D01*
X-206890Y360433D02*
X-206496D01*
X-206890Y363583D02*
X-206496D01*
X-165551Y360335D02*
X-165157D01*
X-165551Y363484D02*
X-165157D01*
X-124213Y360236D02*
X-123819D01*
X-124213Y363386D02*
X-123819D01*
X-82874Y360138D02*
X-82480D01*
X-82874Y363287D02*
X-82480D01*
X-41535Y360039D02*
X-41142D01*
X-41535Y363189D02*
X-41142D01*
X-330906Y360728D02*
X-330512D01*
X-330906Y363878D02*
X-330512D01*
X-48977Y255925D02*
X-48699Y256203D01*
X-46750Y253698D02*
X-46472Y253976D01*
X-48977Y214586D02*
X-48699Y214865D01*
X-46750Y212359D02*
X-46472Y212637D01*
X-48977Y173248D02*
X-48699Y173526D01*
X-46750Y171021D02*
X-46472Y171299D01*
X-48977Y131909D02*
X-48699Y132187D01*
X-46750Y129682D02*
X-46472Y129960D01*
X-48977Y90571D02*
X-48699Y90849D01*
X-46750Y88343D02*
X-46472Y88622D01*
X-48977Y49232D02*
X-48699Y49510D01*
X-46750Y47005D02*
X-46472Y47283D01*
X-48977Y7893D02*
X-48699Y8172D01*
X-46750Y5666D02*
X-46472Y5945D01*
X-90316Y7992D02*
X-90038Y8270D01*
X-88089Y5765D02*
X-87810Y6043D01*
X-90316Y49330D02*
X-90038Y49609D01*
X-88089Y47103D02*
X-87810Y47382D01*
X-90316Y90669D02*
X-90038Y90947D01*
X-88089Y88442D02*
X-87810Y88720D01*
X-90316Y132008D02*
X-90038Y132286D01*
X-88089Y129780D02*
X-87810Y130059D01*
X-90316Y173346D02*
X-90038Y173625D01*
X-88089Y171119D02*
X-87810Y171397D01*
X-90316Y214685D02*
X-90038Y214963D01*
X-88089Y212458D02*
X-87810Y212736D01*
X-90316Y256023D02*
X-90038Y256302D01*
X-88089Y253796D02*
X-87810Y254075D01*
X-90861Y338335D02*
X-90582Y338614D01*
X-88634Y336108D02*
X-88355Y336387D01*
X-90316Y297362D02*
X-90038Y297640D01*
X-88089Y295135D02*
X-87810Y295413D01*
X-131655Y8090D02*
X-131376Y8369D01*
X-129428Y5863D02*
X-129149Y6142D01*
X-131655Y49429D02*
X-131376Y49707D01*
X-129428Y47202D02*
X-129149Y47480D01*
X-131655Y90767D02*
X-131376Y91046D01*
X-129428Y88540D02*
X-129149Y88819D01*
X-131655Y132106D02*
X-131376Y132384D01*
X-129428Y129879D02*
X-129149Y130157D01*
X-131655Y173444D02*
X-131376Y173723D01*
X-129427Y171217D02*
X-129149Y171496D01*
X-131655Y214783D02*
X-131376Y215061D01*
X-129427Y212556D02*
X-129149Y212834D01*
X-131655Y256122D02*
X-131376Y256400D01*
X-129427Y253895D02*
X-129149Y254173D01*
X-132199Y338434D02*
X-131921Y338712D01*
X-129972Y336207D02*
X-129694Y336485D01*
X-131655Y297460D02*
X-131376Y297739D01*
X-129427Y295233D02*
X-129149Y295512D01*
X-172993Y8189D02*
X-172715Y8467D01*
X-170766Y5962D02*
X-170488Y6240D01*
X-172993Y49527D02*
X-172715Y49806D01*
X-170766Y47300D02*
X-170488Y47578D01*
X-172993Y90866D02*
X-172715Y91144D01*
X-170766Y88639D02*
X-170488Y88917D01*
X-172993Y132204D02*
X-172715Y132483D01*
X-170766Y129977D02*
X-170488Y130256D01*
X-172993Y173543D02*
X-172715Y173821D01*
X-170766Y171316D02*
X-170488Y171594D01*
X-172993Y214881D02*
X-172715Y215160D01*
X-170766Y212654D02*
X-170488Y212933D01*
X-172993Y256220D02*
X-172715Y256499D01*
X-170766Y253993D02*
X-170488Y254271D01*
X-173538Y338532D02*
X-173259Y338811D01*
X-171311Y336305D02*
X-171032Y336584D01*
X-172993Y297559D02*
X-172715Y297837D01*
X-170766Y295332D02*
X-170488Y295610D01*
X-214332Y8287D02*
X-214053Y8565D01*
X-212105Y6060D02*
X-211826Y6338D01*
X-214332Y49626D02*
X-214053Y49904D01*
X-212105Y47399D02*
X-211826Y47677D01*
X-214332Y90964D02*
X-214053Y91243D01*
X-212105Y88737D02*
X-211826Y89016D01*
X-214332Y132303D02*
X-214053Y132581D01*
X-212105Y130076D02*
X-211826Y130354D01*
X-214332Y173641D02*
X-214053Y173920D01*
X-212105Y171414D02*
X-211826Y171693D01*
X-214332Y214980D02*
X-214053Y215258D01*
X-212105Y212753D02*
X-211826Y213031D01*
X-214332Y256318D02*
X-214053Y256597D01*
X-212105Y254091D02*
X-211826Y254370D01*
X-214877Y338631D02*
X-214598Y338909D01*
X-212649Y336404D02*
X-212371Y336682D01*
X-214332Y297657D02*
X-214053Y297936D01*
X-212105Y295430D02*
X-211826Y295708D01*
X-255670Y8386D02*
X-255392Y8664D01*
X-253443Y6158D02*
X-253165Y6437D01*
X-255670Y49724D02*
X-255392Y50002D01*
X-253443Y47497D02*
X-253165Y47775D01*
X-255670Y91063D02*
X-255392Y91341D01*
X-253443Y88836D02*
X-253165Y89114D01*
X-255670Y132401D02*
X-255392Y132680D01*
X-253443Y130174D02*
X-253165Y130453D01*
X-255670Y173740D02*
X-255392Y174018D01*
X-253443Y171513D02*
X-253165Y171791D01*
X-255670Y215078D02*
X-255392Y215357D01*
X-253443Y212851D02*
X-253165Y213130D01*
X-255670Y256417D02*
X-255392Y256695D01*
X-253443Y254190D02*
X-253165Y254468D01*
X-256215Y338729D02*
X-255937Y339008D01*
X-253988Y336502D02*
X-253710Y336781D01*
X-255670Y297756D02*
X-255392Y298034D01*
X-253443Y295528D02*
X-253165Y295807D01*
X-297009Y8484D02*
X-296730Y8762D01*
X-294782Y6257D02*
X-294503Y6535D01*
X-297009Y49823D02*
X-296730Y50101D01*
X-294782Y47595D02*
X-294503Y47874D01*
X-297009Y91161D02*
X-296730Y91439D01*
X-294782Y88934D02*
X-294503Y89212D01*
X-297009Y132500D02*
X-296730Y132778D01*
X-294782Y130272D02*
X-294503Y130551D01*
X-297009Y173838D02*
X-296730Y174117D01*
X-294782Y171611D02*
X-294503Y171889D01*
X-297009Y215177D02*
X-296730Y215455D01*
X-294782Y212950D02*
X-294503Y213228D01*
X-297009Y256515D02*
X-296730Y256794D01*
X-294782Y254288D02*
X-294503Y254567D01*
X-297554Y338828D02*
X-297275Y339106D01*
X-295327Y336600D02*
X-295048Y336879D01*
X-297009Y297854D02*
X-296730Y298132D01*
X-294782Y295627D02*
X-294503Y295905D01*
X-338348Y8582D02*
X-338069Y8861D01*
X-336120Y6355D02*
X-335842Y6634D01*
X-338348Y49921D02*
X-338069Y50199D01*
X-336120Y47694D02*
X-335842Y47972D01*
X-338348Y91259D02*
X-338069Y91538D01*
X-336120Y89032D02*
X-335842Y89311D01*
X-338348Y132598D02*
X-338069Y132876D01*
X-336120Y130371D02*
X-335842Y130649D01*
X-338348Y173937D02*
X-338069Y174215D01*
X-336120Y171710D02*
X-335842Y171988D01*
X-338347Y215275D02*
X-338069Y215554D01*
X-336120Y213048D02*
X-335842Y213327D01*
X-338347Y256614D02*
X-338069Y256892D01*
X-336120Y254387D02*
X-335842Y254665D01*
X-338892Y338926D02*
X-338614Y339204D01*
X-336665Y336699D02*
X-336387Y336977D01*
X-338347Y297952D02*
X-338069Y298231D01*
X-336120Y295725D02*
X-335842Y296004D01*
X-360630Y41142D02*
Y41535D01*
X-363779Y41142D02*
Y41535D01*
X-360630Y82480D02*
Y82874D01*
X-363779Y82480D02*
Y82874D01*
X-360630Y123819D02*
Y124213D01*
X-363779Y123819D02*
Y124213D01*
X-360630Y165157D02*
Y165551D01*
X-363779Y165157D02*
Y165551D01*
X-360630Y206496D02*
Y206890D01*
X-363779Y206496D02*
Y206890D01*
X-360630Y247835D02*
Y248228D01*
X-363779Y247835D02*
Y248228D01*
X-360630Y289173D02*
Y289567D01*
X-363779Y289173D02*
Y289567D01*
X-360630Y330512D02*
Y330905D01*
X-363779Y330512D02*
Y330905D01*
X-48977Y297263D02*
X-48699Y297542D01*
X-46750Y295036D02*
X-46472Y295315D01*
X-48977Y338602D02*
X-48699Y338880D01*
X-46750Y336375D02*
X-46472Y336653D01*
X-289567Y360630D02*
X-289173D01*
X-289567Y363779D02*
X-289173D01*
X-360630Y-197D02*
Y197D01*
X-363779Y-197D02*
Y197D01*
X-360531Y-248228D02*
Y-247835D01*
X-363681Y-248228D02*
Y-247835D01*
X-360433Y-206890D02*
Y-206496D01*
X-363583Y-206890D02*
Y-206496D01*
X-360335Y-165551D02*
Y-165157D01*
X-363484Y-165551D02*
Y-165157D01*
X-360236Y-124213D02*
Y-123819D01*
X-363386Y-124213D02*
Y-123819D01*
X-360138Y-82874D02*
Y-82480D01*
X-363287Y-82874D02*
Y-82480D01*
X-360039Y-41535D02*
Y-41142D01*
X-363189Y-41535D02*
Y-41142D01*
X-360728Y-330906D02*
Y-330512D01*
X-363878Y-330906D02*
Y-330512D01*
X-256203Y-48699D02*
X-255925Y-48977D01*
X-253976Y-46472D02*
X-253698Y-46750D01*
X-214865Y-48699D02*
X-214586Y-48977D01*
X-212637Y-46472D02*
X-212359Y-46750D01*
X-173526Y-48699D02*
X-173248Y-48977D01*
X-171299Y-46472D02*
X-171021Y-46750D01*
X-132187Y-48699D02*
X-131909Y-48977D01*
X-129960Y-46472D02*
X-129682Y-46750D01*
X-90849Y-48699D02*
X-90571Y-48977D01*
X-88622Y-46472D02*
X-88343Y-46750D01*
X-49510Y-48699D02*
X-49232Y-48977D01*
X-47283Y-46472D02*
X-47005Y-46750D01*
X-8172Y-48699D02*
X-7893Y-48977D01*
X-5945Y-46472D02*
X-5666Y-46750D01*
X-8270Y-90038D02*
X-7992Y-90316D01*
X-6043Y-87810D02*
X-5765Y-88089D01*
X-49609Y-90038D02*
X-49330Y-90316D01*
X-47382Y-87810D02*
X-47103Y-88089D01*
X-90947Y-90038D02*
X-90669Y-90316D01*
X-88720Y-87810D02*
X-88442Y-88089D01*
X-132286Y-90038D02*
X-132008Y-90316D01*
X-130059Y-87810D02*
X-129780Y-88089D01*
X-173625Y-90038D02*
X-173346Y-90316D01*
X-171397Y-87810D02*
X-171119Y-88089D01*
X-214963Y-90038D02*
X-214685Y-90316D01*
X-212736Y-87810D02*
X-212458Y-88089D01*
X-256302Y-90038D02*
X-256023Y-90316D01*
X-254075Y-87810D02*
X-253796Y-88089D01*
X-338614Y-90582D02*
X-338335Y-90861D01*
X-336387Y-88355D02*
X-336108Y-88634D01*
X-297640Y-90038D02*
X-297362Y-90316D01*
X-295413Y-87810D02*
X-295135Y-88089D01*
X-8369Y-131376D02*
X-8090Y-131655D01*
X-6142Y-129149D02*
X-5863Y-129428D01*
X-49707Y-131376D02*
X-49429Y-131655D01*
X-47480Y-129149D02*
X-47202Y-129428D01*
X-91046Y-131376D02*
X-90767Y-131655D01*
X-88819Y-129149D02*
X-88540Y-129428D01*
X-132384Y-131376D02*
X-132106Y-131655D01*
X-130157Y-129149D02*
X-129879Y-129428D01*
X-173723Y-131376D02*
X-173444Y-131655D01*
X-171496Y-129149D02*
X-171217Y-129427D01*
X-215061Y-131376D02*
X-214783Y-131655D01*
X-212834Y-129149D02*
X-212556Y-129427D01*
X-256400Y-131376D02*
X-256122Y-131655D01*
X-254173Y-129149D02*
X-253895Y-129427D01*
X-338712Y-131921D02*
X-338434Y-132199D01*
X-336485Y-129694D02*
X-336207Y-129972D01*
X-297739Y-131376D02*
X-297460Y-131655D01*
X-295512Y-129149D02*
X-295233Y-129427D01*
X-8467Y-172715D02*
X-8189Y-172993D01*
X-6240Y-170488D02*
X-5962Y-170766D01*
X-49806Y-172715D02*
X-49527Y-172993D01*
X-47578Y-170488D02*
X-47300Y-170766D01*
X-91144Y-172715D02*
X-90866Y-172993D01*
X-88917Y-170488D02*
X-88639Y-170766D01*
X-132483Y-172715D02*
X-132204Y-172993D01*
X-130256Y-170488D02*
X-129977Y-170766D01*
X-173821Y-172715D02*
X-173543Y-172993D01*
X-171594Y-170488D02*
X-171316Y-170766D01*
X-215160Y-172715D02*
X-214881Y-172993D01*
X-212933Y-170488D02*
X-212654Y-170766D01*
X-256499Y-172715D02*
X-256220Y-172993D01*
X-254271Y-170488D02*
X-253993Y-170766D01*
X-338811Y-173259D02*
X-338532Y-173538D01*
X-336584Y-171032D02*
X-336305Y-171311D01*
X-297837Y-172715D02*
X-297559Y-172993D01*
X-295610Y-170488D02*
X-295332Y-170766D01*
X-8565Y-214053D02*
X-8287Y-214332D01*
X-6338Y-211826D02*
X-6060Y-212105D01*
X-49904Y-214053D02*
X-49626Y-214332D01*
X-47677Y-211826D02*
X-47399Y-212105D01*
X-91243Y-214053D02*
X-90964Y-214332D01*
X-89016Y-211826D02*
X-88737Y-212105D01*
X-132581Y-214053D02*
X-132303Y-214332D01*
X-130354Y-211826D02*
X-130076Y-212105D01*
X-173920Y-214053D02*
X-173641Y-214332D01*
X-171693Y-211826D02*
X-171414Y-212105D01*
X-215258Y-214053D02*
X-214980Y-214332D01*
X-213031Y-211826D02*
X-212753Y-212105D01*
X-256597Y-214053D02*
X-256318Y-214332D01*
X-254370Y-211826D02*
X-254091Y-212105D01*
X-338909Y-214598D02*
X-338631Y-214877D01*
X-336682Y-212371D02*
X-336404Y-212649D01*
X-297936Y-214053D02*
X-297657Y-214332D01*
X-295708Y-211826D02*
X-295430Y-212105D01*
X-8664Y-255392D02*
X-8386Y-255670D01*
X-6437Y-253165D02*
X-6158Y-253443D01*
X-50002Y-255392D02*
X-49724Y-255670D01*
X-47775Y-253165D02*
X-47497Y-253443D01*
X-91341Y-255392D02*
X-91063Y-255670D01*
X-89114Y-253165D02*
X-88836Y-253443D01*
X-132680Y-255392D02*
X-132401Y-255670D01*
X-130453Y-253165D02*
X-130174Y-253443D01*
X-174018Y-255392D02*
X-173740Y-255670D01*
X-171791Y-253165D02*
X-171513Y-253443D01*
X-215357Y-255392D02*
X-215078Y-255670D01*
X-213130Y-253165D02*
X-212851Y-253443D01*
X-256695Y-255392D02*
X-256417Y-255670D01*
X-254468Y-253165D02*
X-254190Y-253443D01*
X-339008Y-255937D02*
X-338729Y-256215D01*
X-336781Y-253710D02*
X-336502Y-253988D01*
X-298034Y-255392D02*
X-297756Y-255670D01*
X-295807Y-253165D02*
X-295528Y-253443D01*
X-8762Y-296730D02*
X-8484Y-297009D01*
X-6535Y-294503D02*
X-6257Y-294782D01*
X-50101Y-296730D02*
X-49823Y-297009D01*
X-47874Y-294503D02*
X-47595Y-294782D01*
X-91439Y-296730D02*
X-91161Y-297009D01*
X-89212Y-294503D02*
X-88934Y-294782D01*
X-132778Y-296730D02*
X-132500Y-297009D01*
X-130551Y-294503D02*
X-130272Y-294782D01*
X-174117Y-296730D02*
X-173838Y-297009D01*
X-171889Y-294503D02*
X-171611Y-294782D01*
X-215455Y-296730D02*
X-215177Y-297009D01*
X-213228Y-294503D02*
X-212950Y-294782D01*
X-256794Y-296730D02*
X-256515Y-297009D01*
X-254567Y-294503D02*
X-254288Y-294782D01*
X-339106Y-297275D02*
X-338828Y-297554D01*
X-336879Y-295048D02*
X-336600Y-295327D01*
X-298132Y-296730D02*
X-297854Y-297009D01*
X-295905Y-294503D02*
X-295627Y-294782D01*
X-8861Y-338069D02*
X-8582Y-338348D01*
X-6634Y-335842D02*
X-6355Y-336120D01*
X-50199Y-338069D02*
X-49921Y-338348D01*
X-47972Y-335842D02*
X-47694Y-336120D01*
X-91538Y-338069D02*
X-91259Y-338348D01*
X-89311Y-335842D02*
X-89032Y-336120D01*
X-132876Y-338069D02*
X-132598Y-338348D01*
X-130649Y-335842D02*
X-130371Y-336120D01*
X-174215Y-338069D02*
X-173937Y-338348D01*
X-171988Y-335842D02*
X-171710Y-336120D01*
X-215554Y-338069D02*
X-215275Y-338347D01*
X-213327Y-335842D02*
X-213048Y-336120D01*
X-256892Y-338069D02*
X-256614Y-338347D01*
X-254665Y-335842D02*
X-254387Y-336120D01*
X-339204Y-338614D02*
X-338926Y-338892D01*
X-336977Y-336387D02*
X-336699Y-336665D01*
X-298231Y-338069D02*
X-297952Y-338347D01*
X-296004Y-335842D02*
X-295725Y-336120D01*
X-41535Y-360630D02*
X-41142D01*
X-41535Y-363779D02*
X-41142D01*
X-82874Y-360630D02*
X-82480D01*
X-82874Y-363779D02*
X-82480D01*
X-124213Y-360630D02*
X-123819D01*
X-124213Y-363779D02*
X-123819D01*
X-165551Y-360630D02*
X-165157D01*
X-165551Y-363779D02*
X-165157D01*
X-206890Y-360630D02*
X-206496D01*
X-206890Y-363779D02*
X-206496D01*
X-248228Y-360630D02*
X-247835D01*
X-248228Y-363779D02*
X-247835D01*
X-289567Y-360630D02*
X-289173D01*
X-289567Y-363779D02*
X-289173D01*
X-330905Y-360630D02*
X-330512D01*
X-330905Y-363779D02*
X-330512D01*
X-297542Y-48699D02*
X-297263Y-48977D01*
X-295315Y-46472D02*
X-295036Y-46750D01*
X-338880Y-48699D02*
X-338602Y-48977D01*
X-336653Y-46472D02*
X-336375Y-46750D01*
X-360630Y-289567D02*
Y-289173D01*
X-363779Y-289567D02*
Y-289173D01*
X-197Y-360630D02*
X197D01*
X-197Y-363779D02*
X197D01*
X247835Y-360531D02*
X248228D01*
X247835Y-363681D02*
X248228D01*
X206496Y-360433D02*
X206890D01*
X206496Y-363583D02*
X206890D01*
X165157Y-360335D02*
X165551D01*
X165157Y-363484D02*
X165551D01*
X123819Y-360236D02*
X124213D01*
X123819Y-363386D02*
X124213D01*
X82480Y-360138D02*
X82874D01*
X82480Y-363287D02*
X82874D01*
X41142Y-360039D02*
X41535D01*
X41142Y-363189D02*
X41535D01*
X330512Y-360728D02*
X330906D01*
X330512Y-363878D02*
X330906D01*
X48699Y-256203D02*
X48977Y-255925D01*
X46472Y-253976D02*
X46750Y-253698D01*
X48699Y-214865D02*
X48977Y-214586D01*
X46472Y-212637D02*
X46750Y-212359D01*
X48699Y-173526D02*
X48977Y-173248D01*
X46472Y-171299D02*
X46750Y-171021D01*
X48699Y-132187D02*
X48977Y-131909D01*
X46472Y-129960D02*
X46750Y-129682D01*
X48699Y-90849D02*
X48977Y-90571D01*
X46472Y-88622D02*
X46750Y-88343D01*
X48699Y-49510D02*
X48977Y-49232D01*
X46472Y-47283D02*
X46750Y-47005D01*
X48699Y-8172D02*
X48977Y-7893D01*
X46472Y-5945D02*
X46750Y-5666D01*
X90038Y-8270D02*
X90316Y-7992D01*
X87810Y-6043D02*
X88089Y-5765D01*
X90038Y-49609D02*
X90316Y-49330D01*
X87810Y-47382D02*
X88089Y-47103D01*
X90038Y-90947D02*
X90316Y-90669D01*
X87810Y-88720D02*
X88089Y-88442D01*
X90038Y-132286D02*
X90316Y-132008D01*
X87810Y-130059D02*
X88089Y-129780D01*
X90038Y-173625D02*
X90316Y-173346D01*
X87810Y-171397D02*
X88089Y-171119D01*
X90038Y-214963D02*
X90316Y-214685D01*
X87810Y-212736D02*
X88089Y-212458D01*
X90038Y-256302D02*
X90316Y-256023D01*
X87810Y-254075D02*
X88089Y-253796D01*
X90582Y-338614D02*
X90861Y-338335D01*
X88355Y-336387D02*
X88634Y-336108D01*
X90038Y-297640D02*
X90316Y-297362D01*
X87810Y-295413D02*
X88089Y-295135D01*
X131376Y-8369D02*
X131655Y-8090D01*
X129149Y-6142D02*
X129428Y-5863D01*
X131376Y-49707D02*
X131655Y-49429D01*
X129149Y-47480D02*
X129428Y-47202D01*
X131376Y-91046D02*
X131655Y-90767D01*
X129149Y-88819D02*
X129428Y-88540D01*
X131376Y-132384D02*
X131655Y-132106D01*
X129149Y-130157D02*
X129428Y-129879D01*
X131376Y-173723D02*
X131655Y-173444D01*
X129149Y-171496D02*
X129427Y-171217D01*
X131376Y-215061D02*
X131655Y-214783D01*
X129149Y-212834D02*
X129427Y-212556D01*
X131376Y-256400D02*
X131655Y-256122D01*
X129149Y-254173D02*
X129427Y-253895D01*
X131921Y-338712D02*
X132199Y-338434D01*
X129694Y-336485D02*
X129972Y-336207D01*
X131376Y-297739D02*
X131655Y-297460D01*
X129149Y-295512D02*
X129427Y-295233D01*
X172715Y-8467D02*
X172993Y-8189D01*
X170488Y-6240D02*
X170766Y-5962D01*
X172715Y-49806D02*
X172993Y-49527D01*
X170488Y-47578D02*
X170766Y-47300D01*
X172715Y-91144D02*
X172993Y-90866D01*
X170488Y-88917D02*
X170766Y-88639D01*
X172715Y-132483D02*
X172993Y-132204D01*
X170488Y-130256D02*
X170766Y-129977D01*
X172715Y-173821D02*
X172993Y-173543D01*
X170488Y-171594D02*
X170766Y-171316D01*
X172715Y-215160D02*
X172993Y-214881D01*
X170488Y-212933D02*
X170766Y-212654D01*
X172715Y-256499D02*
X172993Y-256220D01*
X170488Y-254271D02*
X170766Y-253993D01*
X173259Y-338811D02*
X173538Y-338532D01*
X171032Y-336584D02*
X171311Y-336305D01*
X172715Y-297837D02*
X172993Y-297559D01*
X170488Y-295610D02*
X170766Y-295332D01*
X214053Y-8565D02*
X214332Y-8287D01*
X211826Y-6338D02*
X212105Y-6060D01*
X214053Y-49904D02*
X214332Y-49626D01*
X211826Y-47677D02*
X212105Y-47399D01*
X214053Y-91243D02*
X214332Y-90964D01*
X211826Y-89016D02*
X212105Y-88737D01*
X214053Y-132581D02*
X214332Y-132303D01*
X211826Y-130354D02*
X212105Y-130076D01*
X214053Y-173920D02*
X214332Y-173641D01*
X211826Y-171693D02*
X212105Y-171414D01*
X214053Y-215258D02*
X214332Y-214980D01*
X211826Y-213031D02*
X212105Y-212753D01*
X214053Y-256597D02*
X214332Y-256318D01*
X211826Y-254370D02*
X212105Y-254091D01*
X214598Y-338909D02*
X214877Y-338631D01*
X212371Y-336682D02*
X212649Y-336404D01*
X214053Y-297936D02*
X214332Y-297657D01*
X211826Y-295708D02*
X212105Y-295430D01*
X255392Y-8664D02*
X255670Y-8386D01*
X253165Y-6437D02*
X253443Y-6158D01*
X255392Y-50002D02*
X255670Y-49724D01*
X253165Y-47775D02*
X253443Y-47497D01*
X255392Y-91341D02*
X255670Y-91063D01*
X253165Y-89114D02*
X253443Y-88836D01*
X255392Y-132680D02*
X255670Y-132401D01*
X253165Y-130453D02*
X253443Y-130174D01*
X255392Y-174018D02*
X255670Y-173740D01*
X253165Y-171791D02*
X253443Y-171513D01*
X255392Y-215357D02*
X255670Y-215078D01*
X253165Y-213130D02*
X253443Y-212851D01*
X255392Y-256695D02*
X255670Y-256417D01*
X253165Y-254468D02*
X253443Y-254190D01*
X255937Y-339008D02*
X256215Y-338729D01*
X253710Y-336781D02*
X253988Y-336502D01*
X255392Y-298034D02*
X255670Y-297756D01*
X253165Y-295807D02*
X253443Y-295528D01*
X296730Y-8762D02*
X297009Y-8484D01*
X294503Y-6535D02*
X294782Y-6257D01*
X296730Y-50101D02*
X297009Y-49823D01*
X294503Y-47874D02*
X294782Y-47595D01*
X296730Y-91439D02*
X297009Y-91161D01*
X294503Y-89212D02*
X294782Y-88934D01*
X296730Y-132778D02*
X297009Y-132500D01*
X294503Y-130551D02*
X294782Y-130272D01*
X296730Y-174117D02*
X297009Y-173838D01*
X294503Y-171889D02*
X294782Y-171611D01*
X296730Y-215455D02*
X297009Y-215177D01*
X294503Y-213228D02*
X294782Y-212950D01*
X296730Y-256794D02*
X297009Y-256515D01*
X294503Y-254567D02*
X294782Y-254288D01*
X297275Y-339106D02*
X297554Y-338828D01*
X295048Y-336879D02*
X295327Y-336600D01*
X296730Y-298132D02*
X297009Y-297854D01*
X294503Y-295905D02*
X294782Y-295627D01*
X338069Y-8861D02*
X338348Y-8582D01*
X335842Y-6634D02*
X336120Y-6355D01*
X338069Y-50199D02*
X338348Y-49921D01*
X335842Y-47972D02*
X336120Y-47694D01*
X338069Y-91538D02*
X338348Y-91259D01*
X335842Y-89311D02*
X336120Y-89032D01*
X338069Y-132876D02*
X338348Y-132598D01*
X335842Y-130649D02*
X336120Y-130371D01*
X338069Y-174215D02*
X338348Y-173937D01*
X335842Y-171988D02*
X336120Y-171710D01*
X338069Y-215554D02*
X338347Y-215275D01*
X335842Y-213327D02*
X336120Y-213048D01*
X338069Y-256892D02*
X338347Y-256614D01*
X335842Y-254665D02*
X336120Y-254387D01*
X338614Y-339204D02*
X338892Y-338926D01*
X336387Y-336977D02*
X336665Y-336699D01*
X338069Y-298231D02*
X338347Y-297952D01*
X335842Y-296004D02*
X336120Y-295725D01*
X360630Y-41535D02*
Y-41142D01*
X363779Y-41535D02*
Y-41142D01*
X360630Y-82874D02*
Y-82480D01*
X363779Y-82874D02*
Y-82480D01*
X360630Y-124213D02*
Y-123819D01*
X363779Y-124213D02*
Y-123819D01*
X360630Y-165551D02*
Y-165157D01*
X363779Y-165551D02*
Y-165157D01*
X360630Y-206890D02*
Y-206496D01*
X363779Y-206890D02*
Y-206496D01*
X360630Y-248228D02*
Y-247835D01*
X363779Y-248228D02*
Y-247835D01*
X360630Y-289567D02*
Y-289173D01*
X363779Y-289567D02*
Y-289173D01*
X360630Y-330905D02*
Y-330512D01*
X363779Y-330905D02*
Y-330512D01*
X48699Y-297542D02*
X48977Y-297263D01*
X46472Y-295315D02*
X46750Y-295036D01*
X48699Y-338880D02*
X48977Y-338602D01*
X46472Y-336653D02*
X46750Y-336375D01*
X289173Y-360630D02*
X289567D01*
X289173Y-363779D02*
X289567D01*
X360630Y-197D02*
Y197D01*
X363779Y-197D02*
Y197D01*
X-7639Y7795D02*
X-7361Y8073D01*
X-5412Y5568D02*
X-5133Y5846D01*
D23*
X14773Y372047D02*
G03*
X14773Y372047I-4930J0D01*
G01*
X376977Y279528D02*
G03*
X376977Y279528I-4930J0D01*
G01*
X328679Y48298D02*
G03*
X328679Y48298I-4930J0D01*
G01*
X287340Y48298D02*
G03*
X287340Y48298I-4930J0D01*
G01*
X345481Y372047D02*
G03*
X345481Y372047I-4930J0D01*
G01*
X304143Y372047D02*
G03*
X304143Y372047I-4930J0D01*
G01*
X262804Y372047D02*
G03*
X262804Y372047I-4930J0D01*
G01*
X221465Y372047D02*
G03*
X221465Y372047I-4930J0D01*
G01*
X180127Y372047D02*
G03*
X180127Y372047I-4930J0D01*
G01*
X138788Y372047D02*
G03*
X138788Y372047I-4930J0D01*
G01*
X97450Y372047D02*
G03*
X97450Y372047I-4930J0D01*
G01*
X56111Y372047D02*
G03*
X56111Y372047I-4930J0D01*
G01*
X288029Y337668D02*
G03*
X288029Y337668I-4930J0D01*
G01*
X329368Y337668D02*
G03*
X329368Y337668I-4930J0D01*
G01*
X246691Y337668D02*
G03*
X246691Y337668I-4930J0D01*
G01*
X205352Y337668D02*
G03*
X205352Y337668I-4930J0D01*
G01*
X164014Y337668D02*
G03*
X164014Y337668I-4930J0D01*
G01*
X122675Y337668D02*
G03*
X122675Y337668I-4930J0D01*
G01*
X81337Y337668D02*
G03*
X81337Y337668I-4930J0D01*
G01*
X39998Y337668D02*
G03*
X39998Y337668I-4930J0D01*
G01*
X-1341Y337668D02*
G03*
X-1341Y337668I-4930J0D01*
G01*
X287931Y296330D02*
G03*
X287931Y296330I-4930J0D01*
G01*
X329270Y296330D02*
G03*
X329270Y296330I-4930J0D01*
G01*
X246592Y296330D02*
G03*
X246592Y296330I-4930J0D01*
G01*
X205254Y296330D02*
G03*
X205254Y296330I-4930J0D01*
G01*
X163915Y296330D02*
G03*
X163915Y296330I-4930J0D01*
G01*
X122577Y296330D02*
G03*
X122577Y296330I-4930J0D01*
G01*
X81238Y296330D02*
G03*
X81238Y296330I-4930J0D01*
G01*
X39900Y296330D02*
G03*
X39900Y296330I-4930J0D01*
G01*
X-1439Y296330D02*
G03*
X-1439Y296330I-4930J0D01*
G01*
X287833Y254991D02*
G03*
X287833Y254991I-4930J0D01*
G01*
X329171Y254991D02*
G03*
X329171Y254991I-4930J0D01*
G01*
X246494Y254991D02*
G03*
X246494Y254991I-4930J0D01*
G01*
X205155Y254991D02*
G03*
X205155Y254991I-4930J0D01*
G01*
X163817Y254991D02*
G03*
X163817Y254991I-4930J0D01*
G01*
X122478Y254991D02*
G03*
X122478Y254991I-4930J0D01*
G01*
X81140Y254991D02*
G03*
X81140Y254991I-4930J0D01*
G01*
X39801Y254991D02*
G03*
X39801Y254991I-4930J0D01*
G01*
X-1537Y254991D02*
G03*
X-1537Y254991I-4930J0D01*
G01*
X287734Y213653D02*
G03*
X287734Y213653I-4930J0D01*
G01*
X329073Y213653D02*
G03*
X329073Y213653I-4930J0D01*
G01*
X246396Y213653D02*
G03*
X246396Y213653I-4930J0D01*
G01*
X205057Y213653D02*
G03*
X205057Y213653I-4930J0D01*
G01*
X163718Y213653D02*
G03*
X163718Y213653I-4930J0D01*
G01*
X122380Y213653D02*
G03*
X122380Y213653I-4930J0D01*
G01*
X81041Y213653D02*
G03*
X81041Y213653I-4930J0D01*
G01*
X39703Y213653D02*
G03*
X39703Y213653I-4930J0D01*
G01*
X-1636Y213653D02*
G03*
X-1636Y213653I-4930J0D01*
G01*
X287636Y172314D02*
G03*
X287636Y172314I-4930J0D01*
G01*
X328974Y172314D02*
G03*
X328974Y172314I-4930J0D01*
G01*
X246297Y172314D02*
G03*
X246297Y172314I-4930J0D01*
G01*
X204959Y172314D02*
G03*
X204959Y172314I-4930J0D01*
G01*
X163620Y172314D02*
G03*
X163620Y172314I-4930J0D01*
G01*
X122282Y172314D02*
G03*
X122282Y172314I-4930J0D01*
G01*
X80943Y172314D02*
G03*
X80943Y172314I-4930J0D01*
G01*
X39604Y172314D02*
G03*
X39604Y172314I-4930J0D01*
G01*
X-1734Y172314D02*
G03*
X-1734Y172314I-4930J0D01*
G01*
X287537Y130975D02*
G03*
X287537Y130975I-4930J0D01*
G01*
X328876Y130975D02*
G03*
X328876Y130975I-4930J0D01*
G01*
X246199Y130975D02*
G03*
X246199Y130975I-4930J0D01*
G01*
X204860Y130975D02*
G03*
X204860Y130975I-4930J0D01*
G01*
X163522Y130975D02*
G03*
X163522Y130975I-4930J0D01*
G01*
X122183Y130975D02*
G03*
X122183Y130975I-4930J0D01*
G01*
X80844Y130975D02*
G03*
X80844Y130975I-4930J0D01*
G01*
X39506Y130975D02*
G03*
X39506Y130975I-4930J0D01*
G01*
X-1833Y130975D02*
G03*
X-1833Y130975I-4930J0D01*
G01*
X287439Y89637D02*
G03*
X287439Y89637I-4930J0D01*
G01*
X328778Y89637D02*
G03*
X328778Y89637I-4930J0D01*
G01*
X246100Y89637D02*
G03*
X246100Y89637I-4930J0D01*
G01*
X204762Y89637D02*
G03*
X204762Y89637I-4930J0D01*
G01*
X163423Y89637D02*
G03*
X163423Y89637I-4930J0D01*
G01*
X122085Y89637D02*
G03*
X122085Y89637I-4930J0D01*
G01*
X80746Y89637D02*
G03*
X80746Y89637I-4930J0D01*
G01*
X39408Y89637D02*
G03*
X39408Y89637I-4930J0D01*
G01*
X-1931Y89637D02*
G03*
X-1931Y89637I-4930J0D01*
G01*
X-2029Y48298D02*
G03*
X-2029Y48298I-4930J0D01*
G01*
X39309Y48298D02*
G03*
X39309Y48298I-4930J0D01*
G01*
X80648Y48298D02*
G03*
X80648Y48298I-4930J0D01*
G01*
X121986Y48298D02*
G03*
X121986Y48298I-4930J0D01*
G01*
X163325Y48298D02*
G03*
X163325Y48298I-4930J0D01*
G01*
X204663Y48298D02*
G03*
X204663Y48298I-4930J0D01*
G01*
X246002Y48298D02*
G03*
X246002Y48298I-4930J0D01*
G01*
X377076Y320866D02*
G03*
X377076Y320866I-4930J0D01*
G01*
X376387Y31496D02*
G03*
X376387Y31496I-4930J0D01*
G01*
X376485Y72835D02*
G03*
X376485Y72835I-4930J0D01*
G01*
X376584Y114173D02*
G03*
X376584Y114173I-4930J0D01*
G01*
X376682Y155512D02*
G03*
X376682Y155512I-4930J0D01*
G01*
X376781Y196850D02*
G03*
X376781Y196850I-4930J0D01*
G01*
X376879Y238189D02*
G03*
X376879Y238189I-4930J0D01*
G01*
X-233259Y371949D02*
G03*
X-233259Y371949I-4930J0D01*
G01*
X-191920Y371850D02*
G03*
X-191920Y371850I-4930J0D01*
G01*
X-150582Y371752D02*
G03*
X-150582Y371752I-4930J0D01*
G01*
X-109243Y371654D02*
G03*
X-109243Y371654I-4930J0D01*
G01*
X-67905Y371555D02*
G03*
X-67905Y371555I-4930J0D01*
G01*
X-26566Y371457D02*
G03*
X-26566Y371457I-4930J0D01*
G01*
X-315936Y372146D02*
G03*
X-315936Y372146I-4930J0D01*
G01*
X-43368Y241072D02*
G03*
X-43368Y241072I-4930J0D01*
G01*
X-43368Y199733D02*
G03*
X-43368Y199733I-4930J0D01*
G01*
X-43368Y158395D02*
G03*
X-43368Y158395I-4930J0D01*
G01*
X-43368Y117056D02*
G03*
X-43368Y117056I-4930J0D01*
G01*
X-43368Y75718D02*
G03*
X-43368Y75718I-4930J0D01*
G01*
X-43368Y34379D02*
G03*
X-43368Y34379I-4930J0D01*
G01*
X-43368Y-6960D02*
G03*
X-43368Y-6960I-4930J0D01*
G01*
X-84707Y-6861D02*
G03*
X-84707Y-6861I-4930J0D01*
G01*
X-84707Y34477D02*
G03*
X-84707Y34477I-4930J0D01*
G01*
X-84707Y75816D02*
G03*
X-84707Y75816I-4930J0D01*
G01*
X-84707Y117155D02*
G03*
X-84707Y117155I-4930J0D01*
G01*
X-84707Y158493D02*
G03*
X-84707Y158493I-4930J0D01*
G01*
X-84707Y199832D02*
G03*
X-84707Y199832I-4930J0D01*
G01*
X-84707Y241170D02*
G03*
X-84707Y241170I-4930J0D01*
G01*
X-84707Y323847D02*
G03*
X-84707Y323847I-4930J0D01*
G01*
X-84707Y282509D02*
G03*
X-84707Y282509I-4930J0D01*
G01*
X-126045Y-6763D02*
G03*
X-126045Y-6763I-4930J0D01*
G01*
X-126045Y34576D02*
G03*
X-126045Y34576I-4930J0D01*
G01*
X-126045Y75914D02*
G03*
X-126045Y75914I-4930J0D01*
G01*
X-126045Y117253D02*
G03*
X-126045Y117253I-4930J0D01*
G01*
X-126045Y158591D02*
G03*
X-126045Y158591I-4930J0D01*
G01*
X-126045Y199930D02*
G03*
X-126045Y199930I-4930J0D01*
G01*
X-126045Y241269D02*
G03*
X-126045Y241269I-4930J0D01*
G01*
X-126045Y323946D02*
G03*
X-126045Y323946I-4930J0D01*
G01*
X-126045Y282607D02*
G03*
X-126045Y282607I-4930J0D01*
G01*
X-167384Y-6664D02*
G03*
X-167384Y-6664I-4930J0D01*
G01*
X-167384Y34674D02*
G03*
X-167384Y34674I-4930J0D01*
G01*
X-167384Y76013D02*
G03*
X-167384Y76013I-4930J0D01*
G01*
X-167384Y117351D02*
G03*
X-167384Y117351I-4930J0D01*
G01*
X-167384Y158690D02*
G03*
X-167384Y158690I-4930J0D01*
G01*
X-167384Y200028D02*
G03*
X-167384Y200028I-4930J0D01*
G01*
X-167384Y241367D02*
G03*
X-167384Y241367I-4930J0D01*
G01*
X-167384Y324044D02*
G03*
X-167384Y324044I-4930J0D01*
G01*
X-167384Y282706D02*
G03*
X-167384Y282706I-4930J0D01*
G01*
X-208723Y-6566D02*
G03*
X-208723Y-6566I-4930J0D01*
G01*
X-208723Y34773D02*
G03*
X-208723Y34773I-4930J0D01*
G01*
X-208723Y76111D02*
G03*
X-208723Y76111I-4930J0D01*
G01*
X-208723Y117450D02*
G03*
X-208723Y117450I-4930J0D01*
G01*
X-208722Y158788D02*
G03*
X-208722Y158788I-4930J0D01*
G01*
X-208722Y200127D02*
G03*
X-208722Y200127I-4930J0D01*
G01*
X-208722Y241465D02*
G03*
X-208722Y241465I-4930J0D01*
G01*
X-208722Y324143D02*
G03*
X-208722Y324143I-4930J0D01*
G01*
X-208722Y282804D02*
G03*
X-208722Y282804I-4930J0D01*
G01*
X-250061Y-6468D02*
G03*
X-250061Y-6468I-4930J0D01*
G01*
X-250061Y34871D02*
G03*
X-250061Y34871I-4930J0D01*
G01*
X-250061Y76210D02*
G03*
X-250061Y76210I-4930J0D01*
G01*
X-250061Y117548D02*
G03*
X-250061Y117548I-4930J0D01*
G01*
X-250061Y158887D02*
G03*
X-250061Y158887I-4930J0D01*
G01*
X-250061Y200225D02*
G03*
X-250061Y200225I-4930J0D01*
G01*
X-250061Y241564D02*
G03*
X-250061Y241564I-4930J0D01*
G01*
X-250061Y324241D02*
G03*
X-250061Y324241I-4930J0D01*
G01*
X-250061Y282903D02*
G03*
X-250061Y282903I-4930J0D01*
G01*
X-291400Y-6369D02*
G03*
X-291400Y-6369I-4930J0D01*
G01*
X-291400Y34969D02*
G03*
X-291400Y34969I-4930J0D01*
G01*
X-291400Y76308D02*
G03*
X-291400Y76308I-4930J0D01*
G01*
X-291400Y117647D02*
G03*
X-291400Y117647I-4930J0D01*
G01*
X-291400Y158985D02*
G03*
X-291400Y158985I-4930J0D01*
G01*
X-291400Y200324D02*
G03*
X-291400Y200324I-4930J0D01*
G01*
X-291400Y241662D02*
G03*
X-291400Y241662I-4930J0D01*
G01*
X-291400Y324340D02*
G03*
X-291400Y324340I-4930J0D01*
G01*
X-291400Y283001D02*
G03*
X-291400Y283001I-4930J0D01*
G01*
X-332738Y-6271D02*
G03*
X-332738Y-6271I-4930J0D01*
G01*
X-332738Y35068D02*
G03*
X-332738Y35068I-4930J0D01*
G01*
X-332738Y76407D02*
G03*
X-332738Y76407I-4930J0D01*
G01*
X-332738Y117745D02*
G03*
X-332738Y117745I-4930J0D01*
G01*
X-332738Y159084D02*
G03*
X-332738Y159084I-4930J0D01*
G01*
X-332738Y200422D02*
G03*
X-332738Y200422I-4930J0D01*
G01*
X-332738Y241761D02*
G03*
X-332738Y241761I-4930J0D01*
G01*
X-332738Y324438D02*
G03*
X-332738Y324438I-4930J0D01*
G01*
X-332738Y283099D02*
G03*
X-332738Y283099I-4930J0D01*
G01*
X-367117Y51181D02*
G03*
X-367117Y51181I-4930J0D01*
G01*
X-367117Y92520D02*
G03*
X-367117Y92520I-4930J0D01*
G01*
X-367117Y133858D02*
G03*
X-367117Y133858I-4930J0D01*
G01*
X-367117Y175197D02*
G03*
X-367117Y175197I-4930J0D01*
G01*
X-367117Y216535D02*
G03*
X-367117Y216535I-4930J0D01*
G01*
X-367117Y257874D02*
G03*
X-367117Y257874I-4930J0D01*
G01*
X-367117Y299213D02*
G03*
X-367117Y299213I-4930J0D01*
G01*
X-367117Y340551D02*
G03*
X-367117Y340551I-4930J0D01*
G01*
X-43368Y282410D02*
G03*
X-43368Y282410I-4930J0D01*
G01*
X-43368Y323749D02*
G03*
X-43368Y323749I-4930J0D01*
G01*
X-274598Y372047D02*
G03*
X-274598Y372047I-4930J0D01*
G01*
X-367117Y9843D02*
G03*
X-367117Y9843I-4930J0D01*
G01*
X-367019Y-238189D02*
G03*
X-367019Y-238189I-4930J0D01*
G01*
X-366920Y-196850D02*
G03*
X-366920Y-196850I-4930J0D01*
G01*
X-366822Y-155512D02*
G03*
X-366822Y-155512I-4930J0D01*
G01*
X-366723Y-114173D02*
G03*
X-366723Y-114173I-4930J0D01*
G01*
X-366625Y-72835D02*
G03*
X-366625Y-72835I-4930J0D01*
G01*
X-366527Y-31496D02*
G03*
X-366527Y-31496I-4930J0D01*
G01*
X-367215Y-320866D02*
G03*
X-367215Y-320866I-4930J0D01*
G01*
X-236142Y-48298D02*
G03*
X-236142Y-48298I-4930J0D01*
G01*
X-194803Y-48298D02*
G03*
X-194803Y-48298I-4930J0D01*
G01*
X-153465Y-48298D02*
G03*
X-153465Y-48298I-4930J0D01*
G01*
X-112126Y-48298D02*
G03*
X-112126Y-48298I-4930J0D01*
G01*
X-70787Y-48298D02*
G03*
X-70787Y-48298I-4930J0D01*
G01*
X-29449Y-48298D02*
G03*
X-29449Y-48298I-4930J0D01*
G01*
X11890Y-48298D02*
G03*
X11890Y-48298I-4930J0D01*
G01*
X11791Y-89637D02*
G03*
X11791Y-89637I-4930J0D01*
G01*
X-29547Y-89637D02*
G03*
X-29547Y-89637I-4930J0D01*
G01*
X-70886Y-89637D02*
G03*
X-70886Y-89637I-4930J0D01*
G01*
X-112224Y-89637D02*
G03*
X-112224Y-89637I-4930J0D01*
G01*
X-153563Y-89637D02*
G03*
X-153563Y-89637I-4930J0D01*
G01*
X-194902Y-89637D02*
G03*
X-194902Y-89637I-4930J0D01*
G01*
X-236240Y-89637D02*
G03*
X-236240Y-89637I-4930J0D01*
G01*
X-318917Y-89637D02*
G03*
X-318917Y-89637I-4930J0D01*
G01*
X-277579Y-89637D02*
G03*
X-277579Y-89637I-4930J0D01*
G01*
X11693Y-130975D02*
G03*
X11693Y-130975I-4930J0D01*
G01*
X-29646Y-130975D02*
G03*
X-29646Y-130975I-4930J0D01*
G01*
X-70984Y-130975D02*
G03*
X-70984Y-130975I-4930J0D01*
G01*
X-112323Y-130975D02*
G03*
X-112323Y-130975I-4930J0D01*
G01*
X-153661Y-130975D02*
G03*
X-153661Y-130975I-4930J0D01*
G01*
X-195000Y-130975D02*
G03*
X-195000Y-130975I-4930J0D01*
G01*
X-236338Y-130975D02*
G03*
X-236338Y-130975I-4930J0D01*
G01*
X-319016Y-130975D02*
G03*
X-319016Y-130975I-4930J0D01*
G01*
X-277677Y-130975D02*
G03*
X-277677Y-130975I-4930J0D01*
G01*
X11594Y-172314D02*
G03*
X11594Y-172314I-4930J0D01*
G01*
X-29744Y-172314D02*
G03*
X-29744Y-172314I-4930J0D01*
G01*
X-71083Y-172314D02*
G03*
X-71083Y-172314I-4930J0D01*
G01*
X-112421Y-172314D02*
G03*
X-112421Y-172314I-4930J0D01*
G01*
X-153760Y-172314D02*
G03*
X-153760Y-172314I-4930J0D01*
G01*
X-195098Y-172314D02*
G03*
X-195098Y-172314I-4930J0D01*
G01*
X-236437Y-172314D02*
G03*
X-236437Y-172314I-4930J0D01*
G01*
X-319114Y-172314D02*
G03*
X-319114Y-172314I-4930J0D01*
G01*
X-277776Y-172314D02*
G03*
X-277776Y-172314I-4930J0D01*
G01*
X11496Y-213653D02*
G03*
X11496Y-213653I-4930J0D01*
G01*
X-29842Y-213653D02*
G03*
X-29842Y-213653I-4930J0D01*
G01*
X-71181Y-213653D02*
G03*
X-71181Y-213653I-4930J0D01*
G01*
X-112520Y-213653D02*
G03*
X-112520Y-213653I-4930J0D01*
G01*
X-153858Y-213653D02*
G03*
X-153858Y-213653I-4930J0D01*
G01*
X-195197Y-213653D02*
G03*
X-195197Y-213653I-4930J0D01*
G01*
X-236535Y-213653D02*
G03*
X-236535Y-213653I-4930J0D01*
G01*
X-319213Y-213653D02*
G03*
X-319213Y-213653I-4930J0D01*
G01*
X-277874Y-213653D02*
G03*
X-277874Y-213653I-4930J0D01*
G01*
X11398Y-254991D02*
G03*
X11398Y-254991I-4930J0D01*
G01*
X-29941Y-254991D02*
G03*
X-29941Y-254991I-4930J0D01*
G01*
X-71280Y-254991D02*
G03*
X-71280Y-254991I-4930J0D01*
G01*
X-112618Y-254991D02*
G03*
X-112618Y-254991I-4930J0D01*
G01*
X-153957Y-254991D02*
G03*
X-153957Y-254991I-4930J0D01*
G01*
X-195295Y-254991D02*
G03*
X-195295Y-254991I-4930J0D01*
G01*
X-236634Y-254991D02*
G03*
X-236634Y-254991I-4930J0D01*
G01*
X-319311Y-254991D02*
G03*
X-319311Y-254991I-4930J0D01*
G01*
X-277972Y-254991D02*
G03*
X-277972Y-254991I-4930J0D01*
G01*
X11299Y-296330D02*
G03*
X11299Y-296330I-4930J0D01*
G01*
X-30039Y-296330D02*
G03*
X-30039Y-296330I-4930J0D01*
G01*
X-71378Y-296330D02*
G03*
X-71378Y-296330I-4930J0D01*
G01*
X-112716Y-296330D02*
G03*
X-112716Y-296330I-4930J0D01*
G01*
X-154055Y-296330D02*
G03*
X-154055Y-296330I-4930J0D01*
G01*
X-195394Y-296330D02*
G03*
X-195394Y-296330I-4930J0D01*
G01*
X-236732Y-296330D02*
G03*
X-236732Y-296330I-4930J0D01*
G01*
X-319409Y-296330D02*
G03*
X-319409Y-296330I-4930J0D01*
G01*
X-278071Y-296330D02*
G03*
X-278071Y-296330I-4930J0D01*
G01*
X11201Y-337668D02*
G03*
X11201Y-337668I-4930J0D01*
G01*
X-30138Y-337668D02*
G03*
X-30138Y-337668I-4930J0D01*
G01*
X-71476Y-337668D02*
G03*
X-71476Y-337668I-4930J0D01*
G01*
X-112815Y-337668D02*
G03*
X-112815Y-337668I-4930J0D01*
G01*
X-154154Y-337668D02*
G03*
X-154154Y-337668I-4930J0D01*
G01*
X-195492Y-337668D02*
G03*
X-195492Y-337668I-4930J0D01*
G01*
X-236831Y-337668D02*
G03*
X-236831Y-337668I-4930J0D01*
G01*
X-319508Y-337668D02*
G03*
X-319508Y-337668I-4930J0D01*
G01*
X-278169Y-337668D02*
G03*
X-278169Y-337668I-4930J0D01*
G01*
X-46251Y-372047D02*
G03*
X-46251Y-372047I-4930J0D01*
G01*
X-87590Y-372047D02*
G03*
X-87590Y-372047I-4930J0D01*
G01*
X-128928Y-372047D02*
G03*
X-128928Y-372047I-4930J0D01*
G01*
X-170267Y-372047D02*
G03*
X-170267Y-372047I-4930J0D01*
G01*
X-211605Y-372047D02*
G03*
X-211605Y-372047I-4930J0D01*
G01*
X-252944Y-372047D02*
G03*
X-252944Y-372047I-4930J0D01*
G01*
X-294282Y-372047D02*
G03*
X-294282Y-372047I-4930J0D01*
G01*
X-335621Y-372047D02*
G03*
X-335621Y-372047I-4930J0D01*
G01*
X-277480Y-48298D02*
G03*
X-277480Y-48298I-4930J0D01*
G01*
X-318819Y-48298D02*
G03*
X-318819Y-48298I-4930J0D01*
G01*
X-367117Y-279528D02*
G03*
X-367117Y-279528I-4930J0D01*
G01*
X-4912Y-372047D02*
G03*
X-4912Y-372047I-4930J0D01*
G01*
X243119Y-371949D02*
G03*
X243119Y-371949I-4930J0D01*
G01*
X201781Y-371850D02*
G03*
X201781Y-371850I-4930J0D01*
G01*
X160442Y-371752D02*
G03*
X160442Y-371752I-4930J0D01*
G01*
X119103Y-371654D02*
G03*
X119103Y-371654I-4930J0D01*
G01*
X77765Y-371555D02*
G03*
X77765Y-371555I-4930J0D01*
G01*
X36426Y-371457D02*
G03*
X36426Y-371457I-4930J0D01*
G01*
X325796Y-372146D02*
G03*
X325796Y-372146I-4930J0D01*
G01*
X53228Y-241072D02*
G03*
X53228Y-241072I-4930J0D01*
G01*
X53228Y-199733D02*
G03*
X53228Y-199733I-4930J0D01*
G01*
X53228Y-158395D02*
G03*
X53228Y-158395I-4930J0D01*
G01*
X53228Y-117056D02*
G03*
X53228Y-117056I-4930J0D01*
G01*
X53228Y-75718D02*
G03*
X53228Y-75718I-4930J0D01*
G01*
X53228Y-34379D02*
G03*
X53228Y-34379I-4930J0D01*
G01*
X53228Y6960D02*
G03*
X53228Y6960I-4930J0D01*
G01*
X94567Y6861D02*
G03*
X94567Y6861I-4930J0D01*
G01*
X94567Y-34477D02*
G03*
X94567Y-34477I-4930J0D01*
G01*
X94567Y-75816D02*
G03*
X94567Y-75816I-4930J0D01*
G01*
X94567Y-117155D02*
G03*
X94567Y-117155I-4930J0D01*
G01*
X94567Y-158493D02*
G03*
X94567Y-158493I-4930J0D01*
G01*
X94567Y-199832D02*
G03*
X94567Y-199832I-4930J0D01*
G01*
X94567Y-241170D02*
G03*
X94567Y-241170I-4930J0D01*
G01*
X94567Y-323847D02*
G03*
X94567Y-323847I-4930J0D01*
G01*
X94567Y-282509D02*
G03*
X94567Y-282509I-4930J0D01*
G01*
X135906Y6763D02*
G03*
X135906Y6763I-4930J0D01*
G01*
X135906Y-34576D02*
G03*
X135906Y-34576I-4930J0D01*
G01*
X135906Y-75914D02*
G03*
X135906Y-75914I-4930J0D01*
G01*
X135906Y-117253D02*
G03*
X135906Y-117253I-4930J0D01*
G01*
X135906Y-158591D02*
G03*
X135906Y-158591I-4930J0D01*
G01*
X135906Y-199930D02*
G03*
X135906Y-199930I-4930J0D01*
G01*
X135906Y-241269D02*
G03*
X135906Y-241269I-4930J0D01*
G01*
X135906Y-323946D02*
G03*
X135906Y-323946I-4930J0D01*
G01*
X135906Y-282607D02*
G03*
X135906Y-282607I-4930J0D01*
G01*
X177244Y6664D02*
G03*
X177244Y6664I-4930J0D01*
G01*
X177244Y-34674D02*
G03*
X177244Y-34674I-4930J0D01*
G01*
X177244Y-76013D02*
G03*
X177244Y-76013I-4930J0D01*
G01*
X177244Y-117351D02*
G03*
X177244Y-117351I-4930J0D01*
G01*
X177244Y-158690D02*
G03*
X177244Y-158690I-4930J0D01*
G01*
X177244Y-200028D02*
G03*
X177244Y-200028I-4930J0D01*
G01*
X177244Y-241367D02*
G03*
X177244Y-241367I-4930J0D01*
G01*
X177244Y-324044D02*
G03*
X177244Y-324044I-4930J0D01*
G01*
X177244Y-282706D02*
G03*
X177244Y-282706I-4930J0D01*
G01*
X218583Y6566D02*
G03*
X218583Y6566I-4930J0D01*
G01*
X218583Y-34773D02*
G03*
X218583Y-34773I-4930J0D01*
G01*
X218583Y-76111D02*
G03*
X218583Y-76111I-4930J0D01*
G01*
X218583Y-117450D02*
G03*
X218583Y-117450I-4930J0D01*
G01*
X218583Y-158788D02*
G03*
X218583Y-158788I-4930J0D01*
G01*
X218583Y-200127D02*
G03*
X218583Y-200127I-4930J0D01*
G01*
X218583Y-241465D02*
G03*
X218583Y-241465I-4930J0D01*
G01*
X218583Y-324143D02*
G03*
X218583Y-324143I-4930J0D01*
G01*
X218583Y-282804D02*
G03*
X218583Y-282804I-4930J0D01*
G01*
X259921Y6468D02*
G03*
X259921Y6468I-4930J0D01*
G01*
X259921Y-34871D02*
G03*
X259921Y-34871I-4930J0D01*
G01*
X259921Y-76210D02*
G03*
X259921Y-76210I-4930J0D01*
G01*
X259921Y-117548D02*
G03*
X259921Y-117548I-4930J0D01*
G01*
X259921Y-158887D02*
G03*
X259921Y-158887I-4930J0D01*
G01*
X259921Y-200225D02*
G03*
X259921Y-200225I-4930J0D01*
G01*
X259921Y-241564D02*
G03*
X259921Y-241564I-4930J0D01*
G01*
X259921Y-324241D02*
G03*
X259921Y-324241I-4930J0D01*
G01*
X259921Y-282903D02*
G03*
X259921Y-282903I-4930J0D01*
G01*
X301260Y6369D02*
G03*
X301260Y6369I-4930J0D01*
G01*
X301260Y-34969D02*
G03*
X301260Y-34969I-4930J0D01*
G01*
X301260Y-76308D02*
G03*
X301260Y-76308I-4930J0D01*
G01*
X301260Y-117647D02*
G03*
X301260Y-117647I-4930J0D01*
G01*
X301260Y-158985D02*
G03*
X301260Y-158985I-4930J0D01*
G01*
X301260Y-200324D02*
G03*
X301260Y-200324I-4930J0D01*
G01*
X301260Y-241662D02*
G03*
X301260Y-241662I-4930J0D01*
G01*
X301260Y-324340D02*
G03*
X301260Y-324340I-4930J0D01*
G01*
X301260Y-283001D02*
G03*
X301260Y-283001I-4930J0D01*
G01*
X342599Y6271D02*
G03*
X342599Y6271I-4930J0D01*
G01*
X342599Y-35068D02*
G03*
X342599Y-35068I-4930J0D01*
G01*
X342599Y-76407D02*
G03*
X342599Y-76407I-4930J0D01*
G01*
X342599Y-117745D02*
G03*
X342599Y-117745I-4930J0D01*
G01*
X342599Y-159084D02*
G03*
X342599Y-159084I-4930J0D01*
G01*
X342599Y-200422D02*
G03*
X342599Y-200422I-4930J0D01*
G01*
X342599Y-241761D02*
G03*
X342599Y-241761I-4930J0D01*
G01*
X342599Y-324438D02*
G03*
X342599Y-324438I-4930J0D01*
G01*
X342599Y-283099D02*
G03*
X342599Y-283099I-4930J0D01*
G01*
X376977Y-51181D02*
G03*
X376977Y-51181I-4930J0D01*
G01*
X376977Y-92520D02*
G03*
X376977Y-92520I-4930J0D01*
G01*
X376977Y-133858D02*
G03*
X376977Y-133858I-4930J0D01*
G01*
X376977Y-175197D02*
G03*
X376977Y-175197I-4930J0D01*
G01*
X376977Y-216535D02*
G03*
X376977Y-216535I-4930J0D01*
G01*
X376977Y-257874D02*
G03*
X376977Y-257874I-4930J0D01*
G01*
X376977Y-299213D02*
G03*
X376977Y-299213I-4930J0D01*
G01*
X376977Y-340551D02*
G03*
X376977Y-340551I-4930J0D01*
G01*
X53228Y-282410D02*
G03*
X53228Y-282410I-4930J0D01*
G01*
X53228Y-323749D02*
G03*
X53228Y-323749I-4930J0D01*
G01*
X284458Y-372047D02*
G03*
X284458Y-372047I-4930J0D01*
G01*
X376977Y-9843D02*
G03*
X376977Y-9843I-4930J0D01*
G01*
X-2030Y-7058D02*
G03*
X-2030Y-7058I-4930J0D01*
G01*
D24*
X408276Y393701D02*
G03*
X408276Y393701I-14575J0D01*
G01*
D25*
X71220Y386024D02*
G03*
X71220Y386024I-492J0D01*
G01*
X401870Y70728D02*
G03*
X401870Y70728I-492J0D01*
G01*
X-385531D02*
G03*
X-385531Y70728I-492J0D01*
G01*
X-70236Y401378D02*
G03*
X-70236Y401378I-492J0D01*
G01*
Y-386024D02*
G03*
X-70236Y-386024I-492J0D01*
G01*
X-400886Y-70728D02*
G03*
X-400886Y-70728I-492J0D01*
G01*
X386516D02*
G03*
X386516Y-70728I-492J0D01*
G01*
X71220Y-401378D02*
G03*
X71220Y-401378I-492J0D01*
G01*
D26*
X71653Y392323D02*
X322047D01*
X71653Y395079D02*
X322047D01*
X71653Y392323D02*
Y395079D01*
X322047Y392323D02*
Y395079D01*
X395079Y71653D02*
Y322047D01*
X392323Y71653D02*
Y322047D01*
Y71653D02*
X395079D01*
X392323Y322047D02*
X395079D01*
X-392323Y71653D02*
Y322047D01*
X-395079Y71653D02*
Y322047D01*
Y71653D02*
X-392323D01*
X-395079Y322047D02*
X-392323D01*
X-322047Y395079D02*
X-71653D01*
X-322047Y392323D02*
X-71653D01*
Y395079D01*
X-322047Y392323D02*
Y395079D01*
X-322047Y-392323D02*
X-71653D01*
X-322047Y-395079D02*
X-71653D01*
Y-392323D01*
X-322047Y-395079D02*
Y-392323D01*
X-395079Y-322047D02*
Y-71653D01*
X-392323Y-322047D02*
Y-71653D01*
X-395079D02*
X-392323D01*
X-395079Y-322047D02*
X-392323D01*
X392323Y-322047D02*
Y-71653D01*
X395079Y-322047D02*
Y-71653D01*
X392323D02*
X395079D01*
X392323Y-322047D02*
X395079D01*
X71653Y-395079D02*
X322047D01*
X71653Y-392323D02*
X322047D01*
X71653Y-395079D02*
Y-392323D01*
X322047Y-395079D02*
Y-392323D01*
M02*
