G04 Layer_Color=32896*
%FSLAX25Y25*%
%MOIN*%
G70*
G01*
G75*
%ADD23C,0.01000*%
%ADD24C,0.03937*%
G36*
X133890Y-397765D02*
X134142Y-397784D01*
X134366Y-397813D01*
X134569Y-397852D01*
X134657Y-397872D01*
X134734Y-397891D01*
X134812Y-397901D01*
X134870Y-397920D01*
X134909Y-397930D01*
X134948Y-397939D01*
X134967Y-397949D01*
X134977D01*
X135200Y-398017D01*
X135394Y-398095D01*
X135559Y-398172D01*
X135695Y-398240D01*
X135811Y-398298D01*
X135888Y-398347D01*
X135937Y-398386D01*
X135956Y-398395D01*
X136131Y-398531D01*
X136276Y-398677D01*
X136412Y-398822D01*
X136519Y-398958D01*
X136606Y-399074D01*
X136674Y-399171D01*
X136694Y-399210D01*
X136713Y-399239D01*
X136723Y-399249D01*
Y-399259D01*
X136810Y-399453D01*
X136878Y-399656D01*
X136926Y-399841D01*
X136955Y-400015D01*
X136975Y-400171D01*
X136985Y-400229D01*
X136994Y-400277D01*
Y-400326D01*
Y-400355D01*
Y-400374D01*
Y-400384D01*
X136975Y-400636D01*
X136936Y-400859D01*
X136888Y-401073D01*
X136820Y-401257D01*
X136761Y-401402D01*
X136732Y-401470D01*
X136703Y-401519D01*
X136684Y-401558D01*
X136664Y-401587D01*
X136655Y-401606D01*
Y-401616D01*
X136519Y-401810D01*
X136354Y-401984D01*
X136189Y-402130D01*
X136034Y-402256D01*
X135888Y-402353D01*
X135772Y-402421D01*
X135724Y-402450D01*
X135695Y-402460D01*
X135675Y-402479D01*
X135665D01*
X135529Y-402537D01*
X135374Y-402596D01*
X135200Y-402663D01*
X135015Y-402722D01*
X134627Y-402848D01*
X134230Y-402964D01*
X134046Y-403022D01*
X133871Y-403071D01*
X133716Y-403119D01*
X133580Y-403148D01*
X133463Y-403187D01*
X133376Y-403207D01*
X133318Y-403216D01*
X133299Y-403226D01*
X133075Y-403284D01*
X132862Y-403333D01*
X132678Y-403391D01*
X132513Y-403439D01*
X132367Y-403488D01*
X132241Y-403527D01*
X132125Y-403566D01*
X132028Y-403604D01*
X131941Y-403633D01*
X131873Y-403662D01*
X131824Y-403692D01*
X131776Y-403711D01*
X131747Y-403730D01*
X131727Y-403740D01*
X131708Y-403750D01*
X131630Y-403808D01*
X131553Y-403876D01*
X131446Y-404002D01*
X131359Y-404138D01*
X131310Y-404274D01*
X131271Y-404390D01*
X131262Y-404487D01*
X131252Y-404526D01*
Y-404555D01*
Y-404565D01*
Y-404574D01*
X131262Y-404681D01*
X131271Y-404788D01*
X131329Y-404982D01*
X131417Y-405156D01*
X131514Y-405302D01*
X131611Y-405428D01*
X131698Y-405515D01*
X131756Y-405573D01*
X131766Y-405583D01*
X131776Y-405593D01*
X131882Y-405670D01*
X131989Y-405729D01*
X132241Y-405835D01*
X132503Y-405913D01*
X132755Y-405961D01*
X132881Y-405981D01*
X132988Y-406000D01*
X133095Y-406010D01*
X133182D01*
X133250Y-406020D01*
X133357D01*
X133551Y-406010D01*
X133735Y-406000D01*
X133900Y-405971D01*
X134065Y-405942D01*
X134210Y-405903D01*
X134346Y-405864D01*
X134463Y-405826D01*
X134579Y-405777D01*
X134676Y-405729D01*
X134763Y-405690D01*
X134831Y-405651D01*
X134899Y-405612D01*
X134948Y-405583D01*
X134977Y-405554D01*
X134996Y-405544D01*
X135006Y-405535D01*
X135112Y-405438D01*
X135209Y-405331D01*
X135287Y-405224D01*
X135365Y-405108D01*
X135491Y-404865D01*
X135588Y-404642D01*
X135626Y-404535D01*
X135656Y-404438D01*
X135675Y-404351D01*
X135695Y-404274D01*
X135704Y-404206D01*
X135714Y-404157D01*
X135724Y-404128D01*
Y-404118D01*
X137256Y-404361D01*
X137198Y-404623D01*
X137130Y-404875D01*
X137052Y-405108D01*
X136965Y-405321D01*
X136868Y-405515D01*
X136771Y-405690D01*
X136674Y-405855D01*
X136567Y-406000D01*
X136470Y-406126D01*
X136383Y-406243D01*
X136296Y-406340D01*
X136218Y-406417D01*
X136160Y-406475D01*
X136112Y-406514D01*
X136082Y-406543D01*
X136073Y-406553D01*
X135888Y-406679D01*
X135685Y-406796D01*
X135471Y-406893D01*
X135248Y-406980D01*
X135025Y-407048D01*
X134792Y-407106D01*
X134569Y-407155D01*
X134356Y-407193D01*
X134152Y-407232D01*
X133958Y-407252D01*
X133793Y-407271D01*
X133638Y-407281D01*
X133522D01*
X133425Y-407290D01*
X133347D01*
X132959Y-407271D01*
X132590Y-407232D01*
X132425Y-407203D01*
X132270Y-407174D01*
X132115Y-407145D01*
X131979Y-407106D01*
X131863Y-407067D01*
X131747Y-407038D01*
X131659Y-407009D01*
X131572Y-406980D01*
X131514Y-406951D01*
X131465Y-406941D01*
X131436Y-406922D01*
X131426D01*
X131126Y-406767D01*
X130864Y-406592D01*
X130747Y-406505D01*
X130641Y-406417D01*
X130544Y-406330D01*
X130447Y-406252D01*
X130369Y-406175D01*
X130301Y-406097D01*
X130253Y-406029D01*
X130204Y-405981D01*
X130166Y-405932D01*
X130136Y-405894D01*
X130127Y-405874D01*
X130117Y-405864D01*
X130039Y-405738D01*
X129962Y-405603D01*
X129855Y-405350D01*
X129768Y-405108D01*
X129719Y-404885D01*
X129700Y-404778D01*
X129680Y-404691D01*
X129671Y-404613D01*
Y-404545D01*
X129661Y-404487D01*
Y-404448D01*
Y-404419D01*
Y-404409D01*
X129680Y-404128D01*
X129719Y-403866D01*
X129777Y-403643D01*
X129845Y-403449D01*
X129884Y-403371D01*
X129923Y-403294D01*
X129952Y-403236D01*
X129981Y-403187D01*
X130000Y-403139D01*
X130020Y-403110D01*
X130039Y-403100D01*
Y-403090D01*
X130185Y-402906D01*
X130350Y-402741D01*
X130524Y-402596D01*
X130689Y-402479D01*
X130835Y-402392D01*
X130893Y-402353D01*
X130951Y-402324D01*
X131000Y-402305D01*
X131029Y-402285D01*
X131048Y-402275D01*
X131058D01*
X131184Y-402217D01*
X131339Y-402159D01*
X131504Y-402101D01*
X131688Y-402043D01*
X132067Y-401926D01*
X132445Y-401810D01*
X132620Y-401761D01*
X132794Y-401713D01*
X132949Y-401664D01*
X133075Y-401625D01*
X133192Y-401596D01*
X133279Y-401577D01*
X133328Y-401558D01*
X133347D01*
X133551Y-401499D01*
X133735Y-401451D01*
X133900Y-401402D01*
X134046Y-401364D01*
X134172Y-401325D01*
X134288Y-401296D01*
X134385Y-401267D01*
X134463Y-401237D01*
X134530Y-401218D01*
X134589Y-401208D01*
X134637Y-401189D01*
X134666Y-401179D01*
X134715Y-401160D01*
X134724D01*
X134860Y-401092D01*
X134986Y-401024D01*
X135083Y-400956D01*
X135171Y-400898D01*
X135229Y-400840D01*
X135277Y-400791D01*
X135306Y-400762D01*
X135316Y-400752D01*
X135374Y-400656D01*
X135423Y-400568D01*
X135452Y-400471D01*
X135481Y-400394D01*
X135491Y-400316D01*
X135501Y-400258D01*
Y-400219D01*
Y-400209D01*
X135491Y-400122D01*
X135481Y-400035D01*
X135433Y-399880D01*
X135355Y-399744D01*
X135268Y-399618D01*
X135190Y-399521D01*
X135112Y-399443D01*
X135064Y-399404D01*
X135045Y-399385D01*
X134948Y-399317D01*
X134851Y-399268D01*
X134618Y-399181D01*
X134366Y-399113D01*
X134113Y-399074D01*
X133997Y-399055D01*
X133880Y-399045D01*
X133783Y-399036D01*
X133696D01*
X133619Y-399026D01*
X133357D01*
X133202Y-399045D01*
X133056Y-399065D01*
X132920Y-399084D01*
X132794Y-399113D01*
X132678Y-399152D01*
X132571Y-399191D01*
X132474Y-399220D01*
X132396Y-399259D01*
X132319Y-399297D01*
X132261Y-399327D01*
X132202Y-399365D01*
X132164Y-399385D01*
X132134Y-399404D01*
X132125Y-399424D01*
X132115D01*
X131950Y-399588D01*
X131815Y-399763D01*
X131708Y-399947D01*
X131630Y-400122D01*
X131572Y-400277D01*
X131553Y-400345D01*
X131533Y-400403D01*
X131524Y-400452D01*
Y-400491D01*
X131514Y-400510D01*
Y-400520D01*
X130000Y-400316D01*
X130069Y-400006D01*
X130146Y-399724D01*
X130195Y-399598D01*
X130243Y-399482D01*
X130282Y-399375D01*
X130330Y-399278D01*
X130369Y-399201D01*
X130408Y-399123D01*
X130447Y-399055D01*
X130476Y-399007D01*
X130505Y-398968D01*
X130524Y-398929D01*
X130544Y-398919D01*
Y-398909D01*
X130621Y-398813D01*
X130709Y-398715D01*
X130893Y-398551D01*
X131097Y-398405D01*
X131291Y-398289D01*
X131465Y-398192D01*
X131543Y-398153D01*
X131611Y-398124D01*
X131669Y-398095D01*
X131708Y-398075D01*
X131737Y-398066D01*
X131747D01*
X132057Y-397959D01*
X132377Y-397881D01*
X132697Y-397833D01*
X132988Y-397794D01*
X133124Y-397784D01*
X133240Y-397775D01*
X133357Y-397765D01*
X133444Y-397755D01*
X133628D01*
X133890Y-397765D01*
D02*
G37*
G36*
X23359D02*
X23611Y-397784D01*
X23834Y-397813D01*
X24038Y-397852D01*
X24125Y-397872D01*
X24203Y-397891D01*
X24280Y-397901D01*
X24339Y-397920D01*
X24377Y-397930D01*
X24416Y-397939D01*
X24435Y-397949D01*
X24445D01*
X24668Y-398017D01*
X24862Y-398095D01*
X25027Y-398172D01*
X25163Y-398240D01*
X25279Y-398298D01*
X25357Y-398347D01*
X25405Y-398386D01*
X25425Y-398395D01*
X25599Y-398531D01*
X25745Y-398677D01*
X25881Y-398822D01*
X25987Y-398958D01*
X26075Y-399074D01*
X26143Y-399171D01*
X26162Y-399210D01*
X26182Y-399239D01*
X26191Y-399249D01*
Y-399259D01*
X26278Y-399453D01*
X26346Y-399656D01*
X26395Y-399841D01*
X26424Y-400015D01*
X26443Y-400171D01*
X26453Y-400229D01*
X26463Y-400277D01*
Y-400326D01*
Y-400355D01*
Y-400374D01*
Y-400384D01*
X26443Y-400636D01*
X26405Y-400859D01*
X26356Y-401073D01*
X26288Y-401257D01*
X26230Y-401402D01*
X26201Y-401470D01*
X26172Y-401519D01*
X26152Y-401558D01*
X26133Y-401587D01*
X26123Y-401606D01*
Y-401616D01*
X25987Y-401810D01*
X25823Y-401984D01*
X25658Y-402130D01*
X25502Y-402256D01*
X25357Y-402353D01*
X25240Y-402421D01*
X25192Y-402450D01*
X25163Y-402460D01*
X25144Y-402479D01*
X25134D01*
X24998Y-402537D01*
X24843Y-402596D01*
X24668Y-402663D01*
X24484Y-402722D01*
X24096Y-402848D01*
X23698Y-402964D01*
X23514Y-403022D01*
X23339Y-403071D01*
X23184Y-403119D01*
X23048Y-403148D01*
X22932Y-403187D01*
X22845Y-403207D01*
X22786Y-403216D01*
X22767Y-403226D01*
X22544Y-403284D01*
X22331Y-403333D01*
X22146Y-403391D01*
X21981Y-403439D01*
X21836Y-403488D01*
X21710Y-403527D01*
X21593Y-403566D01*
X21496Y-403604D01*
X21409Y-403633D01*
X21341Y-403662D01*
X21293Y-403692D01*
X21244Y-403711D01*
X21215Y-403730D01*
X21196Y-403740D01*
X21176Y-403750D01*
X21099Y-403808D01*
X21021Y-403876D01*
X20914Y-404002D01*
X20827Y-404138D01*
X20779Y-404274D01*
X20740Y-404390D01*
X20730Y-404487D01*
X20720Y-404526D01*
Y-404555D01*
Y-404565D01*
Y-404574D01*
X20730Y-404681D01*
X20740Y-404788D01*
X20798Y-404982D01*
X20885Y-405156D01*
X20982Y-405302D01*
X21079Y-405428D01*
X21167Y-405515D01*
X21225Y-405573D01*
X21235Y-405583D01*
X21244Y-405593D01*
X21351Y-405670D01*
X21458Y-405729D01*
X21710Y-405835D01*
X21972Y-405913D01*
X22224Y-405961D01*
X22350Y-405981D01*
X22457Y-406000D01*
X22563Y-406010D01*
X22651D01*
X22718Y-406020D01*
X22825D01*
X23019Y-406010D01*
X23204Y-406000D01*
X23369Y-405971D01*
X23533Y-405942D01*
X23679Y-405903D01*
X23815Y-405864D01*
X23931Y-405826D01*
X24047Y-405777D01*
X24145Y-405729D01*
X24232Y-405690D01*
X24300Y-405651D01*
X24367Y-405612D01*
X24416Y-405583D01*
X24445Y-405554D01*
X24464Y-405544D01*
X24474Y-405535D01*
X24581Y-405438D01*
X24678Y-405331D01*
X24756Y-405224D01*
X24833Y-405108D01*
X24959Y-404865D01*
X25056Y-404642D01*
X25095Y-404535D01*
X25124Y-404438D01*
X25144Y-404351D01*
X25163Y-404274D01*
X25173Y-404206D01*
X25182Y-404157D01*
X25192Y-404128D01*
Y-404118D01*
X26725Y-404361D01*
X26666Y-404623D01*
X26599Y-404875D01*
X26521Y-405108D01*
X26434Y-405321D01*
X26337Y-405515D01*
X26240Y-405690D01*
X26143Y-405855D01*
X26036Y-406000D01*
X25939Y-406126D01*
X25852Y-406243D01*
X25764Y-406340D01*
X25687Y-406417D01*
X25629Y-406475D01*
X25580Y-406514D01*
X25551Y-406543D01*
X25541Y-406553D01*
X25357Y-406679D01*
X25153Y-406796D01*
X24940Y-406893D01*
X24717Y-406980D01*
X24494Y-407048D01*
X24261Y-407106D01*
X24038Y-407155D01*
X23824Y-407193D01*
X23621Y-407232D01*
X23427Y-407252D01*
X23262Y-407271D01*
X23107Y-407281D01*
X22990D01*
X22893Y-407290D01*
X22816D01*
X22427Y-407271D01*
X22059Y-407232D01*
X21894Y-407203D01*
X21739Y-407174D01*
X21584Y-407145D01*
X21448Y-407106D01*
X21331Y-407067D01*
X21215Y-407038D01*
X21128Y-407009D01*
X21041Y-406980D01*
X20982Y-406951D01*
X20934Y-406941D01*
X20905Y-406922D01*
X20895D01*
X20594Y-406767D01*
X20332Y-406592D01*
X20216Y-406505D01*
X20109Y-406417D01*
X20012Y-406330D01*
X19915Y-406252D01*
X19838Y-406175D01*
X19770Y-406097D01*
X19721Y-406029D01*
X19673Y-405981D01*
X19634Y-405932D01*
X19605Y-405894D01*
X19595Y-405874D01*
X19586Y-405864D01*
X19508Y-405738D01*
X19430Y-405603D01*
X19324Y-405350D01*
X19236Y-405108D01*
X19188Y-404885D01*
X19168Y-404778D01*
X19149Y-404691D01*
X19139Y-404613D01*
Y-404545D01*
X19130Y-404487D01*
Y-404448D01*
Y-404419D01*
Y-404409D01*
X19149Y-404128D01*
X19188Y-403866D01*
X19246Y-403643D01*
X19314Y-403449D01*
X19353Y-403371D01*
X19391Y-403294D01*
X19421Y-403236D01*
X19450Y-403187D01*
X19469Y-403139D01*
X19489Y-403110D01*
X19508Y-403100D01*
Y-403090D01*
X19653Y-402906D01*
X19818Y-402741D01*
X19993Y-402596D01*
X20158Y-402479D01*
X20303Y-402392D01*
X20361Y-402353D01*
X20420Y-402324D01*
X20468Y-402305D01*
X20497Y-402285D01*
X20517Y-402275D01*
X20526D01*
X20652Y-402217D01*
X20808Y-402159D01*
X20973Y-402101D01*
X21157Y-402043D01*
X21535Y-401926D01*
X21914Y-401810D01*
X22088Y-401761D01*
X22263Y-401713D01*
X22418Y-401664D01*
X22544Y-401625D01*
X22660Y-401596D01*
X22748Y-401577D01*
X22796Y-401558D01*
X22816D01*
X23019Y-401499D01*
X23204Y-401451D01*
X23369Y-401402D01*
X23514Y-401364D01*
X23640Y-401325D01*
X23756Y-401296D01*
X23854Y-401267D01*
X23931Y-401237D01*
X23999Y-401218D01*
X24057Y-401208D01*
X24106Y-401189D01*
X24135Y-401179D01*
X24183Y-401160D01*
X24193D01*
X24329Y-401092D01*
X24455Y-401024D01*
X24552Y-400956D01*
X24639Y-400898D01*
X24697Y-400840D01*
X24746Y-400791D01*
X24775Y-400762D01*
X24785Y-400752D01*
X24843Y-400656D01*
X24891Y-400568D01*
X24920Y-400471D01*
X24949Y-400394D01*
X24959Y-400316D01*
X24969Y-400258D01*
Y-400219D01*
Y-400209D01*
X24959Y-400122D01*
X24949Y-400035D01*
X24901Y-399880D01*
X24823Y-399744D01*
X24736Y-399618D01*
X24658Y-399521D01*
X24581Y-399443D01*
X24532Y-399404D01*
X24513Y-399385D01*
X24416Y-399317D01*
X24319Y-399268D01*
X24086Y-399181D01*
X23834Y-399113D01*
X23582Y-399074D01*
X23465Y-399055D01*
X23349Y-399045D01*
X23252Y-399036D01*
X23165D01*
X23087Y-399026D01*
X22825D01*
X22670Y-399045D01*
X22524Y-399065D01*
X22389Y-399084D01*
X22263Y-399113D01*
X22146Y-399152D01*
X22039Y-399191D01*
X21942Y-399220D01*
X21865Y-399259D01*
X21787Y-399297D01*
X21729Y-399327D01*
X21671Y-399365D01*
X21632Y-399385D01*
X21603Y-399404D01*
X21593Y-399424D01*
X21584D01*
X21419Y-399588D01*
X21283Y-399763D01*
X21176Y-399947D01*
X21099Y-400122D01*
X21041Y-400277D01*
X21021Y-400345D01*
X21002Y-400403D01*
X20992Y-400452D01*
Y-400491D01*
X20982Y-400510D01*
Y-400520D01*
X19469Y-400316D01*
X19537Y-400006D01*
X19614Y-399724D01*
X19663Y-399598D01*
X19712Y-399482D01*
X19750Y-399375D01*
X19799Y-399278D01*
X19838Y-399201D01*
X19876Y-399123D01*
X19915Y-399055D01*
X19944Y-399007D01*
X19973Y-398968D01*
X19993Y-398929D01*
X20012Y-398919D01*
Y-398909D01*
X20090Y-398813D01*
X20177Y-398715D01*
X20361Y-398551D01*
X20565Y-398405D01*
X20759Y-398289D01*
X20934Y-398192D01*
X21011Y-398153D01*
X21079Y-398124D01*
X21137Y-398095D01*
X21176Y-398075D01*
X21205Y-398066D01*
X21215D01*
X21526Y-397959D01*
X21846Y-397881D01*
X22166Y-397833D01*
X22457Y-397794D01*
X22592Y-397784D01*
X22709Y-397775D01*
X22825Y-397765D01*
X22912Y-397755D01*
X23097D01*
X23359Y-397765D01*
D02*
G37*
G36*
X-105234D02*
X-105040Y-397804D01*
X-104875Y-397852D01*
X-104730Y-397910D01*
X-104604Y-397969D01*
X-104507Y-398017D01*
X-104448Y-398056D01*
X-104439Y-398066D01*
X-104429D01*
X-104342Y-398133D01*
X-104264Y-398211D01*
X-104177Y-398298D01*
X-104090Y-398395D01*
X-103925Y-398609D01*
X-103779Y-398822D01*
X-103653Y-399026D01*
X-103595Y-399123D01*
X-103546Y-399201D01*
X-103507Y-399259D01*
X-103478Y-399317D01*
X-103469Y-399346D01*
X-103459Y-399356D01*
Y-397959D01*
X-102062D01*
Y-407087D01*
X-103614D01*
Y-402314D01*
X-103624Y-401955D01*
X-103653Y-401616D01*
X-103692Y-401315D01*
X-103721Y-401170D01*
X-103740Y-401044D01*
X-103760Y-400927D01*
X-103789Y-400820D01*
X-103808Y-400733D01*
X-103828Y-400656D01*
X-103847Y-400588D01*
X-103857Y-400549D01*
X-103867Y-400520D01*
Y-400510D01*
X-103944Y-400316D01*
X-104031Y-400151D01*
X-104128Y-400006D01*
X-104216Y-399880D01*
X-104303Y-399792D01*
X-104371Y-399724D01*
X-104419Y-399676D01*
X-104439Y-399666D01*
X-104594Y-399559D01*
X-104749Y-399482D01*
X-104895Y-399433D01*
X-105040Y-399394D01*
X-105157Y-399375D01*
X-105254Y-399356D01*
X-105341D01*
X-105554Y-399365D01*
X-105758Y-399404D01*
X-105952Y-399462D01*
X-106126Y-399521D01*
X-106272Y-399579D01*
X-106330Y-399608D01*
X-106379Y-399637D01*
X-106418Y-399656D01*
X-106447Y-399676D01*
X-106466Y-399686D01*
X-106476D01*
X-107019Y-398260D01*
X-106864Y-398172D01*
X-106718Y-398095D01*
X-106573Y-398027D01*
X-106427Y-397969D01*
X-106156Y-397881D01*
X-105923Y-397813D01*
X-105816Y-397794D01*
X-105719Y-397784D01*
X-105632Y-397775D01*
X-105564Y-397765D01*
X-105506Y-397755D01*
X-105428D01*
X-105234Y-397765D01*
D02*
G37*
G36*
X-170234Y-396135D02*
X-176403D01*
X-176180Y-396397D01*
X-175967Y-396669D01*
X-175559Y-397222D01*
X-175365Y-397503D01*
X-175181Y-397775D01*
X-175006Y-398037D01*
X-174841Y-398298D01*
X-174696Y-398531D01*
X-174570Y-398754D01*
X-174453Y-398948D01*
X-174356Y-399113D01*
X-174279Y-399249D01*
X-174221Y-399356D01*
X-174201Y-399394D01*
X-174182Y-399424D01*
X-174172Y-399433D01*
Y-399443D01*
X-173988Y-399812D01*
X-173803Y-400180D01*
X-173639Y-400539D01*
X-173483Y-400898D01*
X-173338Y-401247D01*
X-173212Y-401587D01*
X-173086Y-401897D01*
X-172979Y-402198D01*
X-172892Y-402479D01*
X-172804Y-402731D01*
X-172736Y-402954D01*
X-172678Y-403139D01*
X-172649Y-403216D01*
X-172630Y-403294D01*
X-172610Y-403352D01*
X-172601Y-403401D01*
X-172591Y-403439D01*
X-172581Y-403469D01*
X-172572Y-403488D01*
Y-403498D01*
X-172475Y-403886D01*
X-172387Y-404254D01*
X-172310Y-404613D01*
X-172251Y-404943D01*
X-172193Y-405263D01*
X-172145Y-405554D01*
X-172106Y-405835D01*
X-172077Y-406078D01*
X-172057Y-406311D01*
X-172038Y-406505D01*
X-172019Y-406679D01*
X-172009Y-406825D01*
Y-406931D01*
X-171999Y-407019D01*
Y-407067D01*
Y-407087D01*
X-173590D01*
X-173619Y-406737D01*
X-173648Y-406398D01*
X-173687Y-406068D01*
X-173735Y-405748D01*
X-173784Y-405447D01*
X-173832Y-405166D01*
X-173881Y-404894D01*
X-173930Y-404652D01*
X-173978Y-404429D01*
X-174027Y-404225D01*
X-174075Y-404050D01*
X-174104Y-403895D01*
X-174143Y-403779D01*
X-174162Y-403692D01*
X-174172Y-403643D01*
X-174182Y-403624D01*
X-174308Y-403207D01*
X-174444Y-402789D01*
X-174589Y-402392D01*
X-174735Y-401994D01*
X-174890Y-401616D01*
X-175045Y-401257D01*
X-175191Y-400917D01*
X-175336Y-400597D01*
X-175472Y-400306D01*
X-175598Y-400044D01*
X-175714Y-399821D01*
X-175811Y-399627D01*
X-175850Y-399540D01*
X-175889Y-399472D01*
X-175928Y-399404D01*
X-175957Y-399356D01*
X-175976Y-399317D01*
X-175996Y-399278D01*
X-176005Y-399268D01*
Y-399259D01*
X-176228Y-398871D01*
X-176452Y-398502D01*
X-176665Y-398153D01*
X-176878Y-397833D01*
X-177082Y-397532D01*
X-177276Y-397251D01*
X-177470Y-396989D01*
X-177645Y-396756D01*
X-177800Y-396552D01*
X-177945Y-396368D01*
X-178081Y-396213D01*
X-178188Y-396087D01*
X-178275Y-395990D01*
X-178333Y-395912D01*
X-178382Y-395873D01*
X-178392Y-395854D01*
Y-394651D01*
X-170234D01*
Y-396135D01*
D02*
G37*
G36*
X-63398Y-397765D02*
X-63068Y-397813D01*
X-62758Y-397872D01*
X-62467Y-397959D01*
X-62195Y-398056D01*
X-61943Y-398163D01*
X-61710Y-398279D01*
X-61497Y-398395D01*
X-61313Y-398512D01*
X-61148Y-398628D01*
X-61002Y-398735D01*
X-60886Y-398832D01*
X-60799Y-398919D01*
X-60731Y-398977D01*
X-60682Y-399016D01*
X-60672Y-399036D01*
X-60469Y-399288D01*
X-60284Y-399550D01*
X-60119Y-399841D01*
X-59993Y-400132D01*
X-59877Y-400423D01*
X-59780Y-400723D01*
X-59702Y-401014D01*
X-59635Y-401296D01*
X-59586Y-401567D01*
X-59547Y-401810D01*
X-59528Y-402033D01*
X-59508Y-402227D01*
X-59499Y-402314D01*
Y-402382D01*
X-59489Y-402450D01*
Y-402508D01*
Y-402547D01*
Y-402576D01*
Y-402596D01*
Y-402605D01*
X-59499Y-403013D01*
X-59538Y-403391D01*
X-59596Y-403750D01*
X-59673Y-404080D01*
X-59761Y-404390D01*
X-59858Y-404671D01*
X-59964Y-404933D01*
X-60081Y-405166D01*
X-60187Y-405370D01*
X-60294Y-405554D01*
X-60391Y-405709D01*
X-60478Y-405835D01*
X-60556Y-405932D01*
X-60614Y-406000D01*
X-60653Y-406039D01*
X-60663Y-406058D01*
X-60896Y-406272D01*
X-61138Y-406466D01*
X-61390Y-406631D01*
X-61652Y-406767D01*
X-61914Y-406893D01*
X-62186Y-406990D01*
X-62438Y-407067D01*
X-62690Y-407135D01*
X-62923Y-407184D01*
X-63136Y-407222D01*
X-63340Y-407252D01*
X-63505Y-407271D01*
X-63640Y-407281D01*
X-63747Y-407290D01*
X-63835D01*
X-64126Y-407281D01*
X-64407Y-407261D01*
X-64669Y-407222D01*
X-64911Y-407174D01*
X-65144Y-407116D01*
X-65357Y-407048D01*
X-65561Y-406980D01*
X-65736Y-406902D01*
X-65901Y-406834D01*
X-66036Y-406767D01*
X-66163Y-406699D01*
X-66260Y-406640D01*
X-66337Y-406592D01*
X-66395Y-406553D01*
X-66434Y-406534D01*
X-66444Y-406524D01*
X-66628Y-406369D01*
X-66803Y-406204D01*
X-66958Y-406029D01*
X-67094Y-405855D01*
X-67229Y-405670D01*
X-67336Y-405496D01*
X-67443Y-405311D01*
X-67530Y-405137D01*
X-67608Y-404982D01*
X-67676Y-404826D01*
X-67734Y-404691D01*
X-67773Y-404574D01*
X-67812Y-404477D01*
X-67831Y-404400D01*
X-67850Y-404361D01*
Y-404342D01*
X-66260Y-404138D01*
X-66192Y-404312D01*
X-66114Y-404487D01*
X-66036Y-404642D01*
X-65959Y-404778D01*
X-65881Y-404904D01*
X-65794Y-405030D01*
X-65716Y-405137D01*
X-65649Y-405224D01*
X-65571Y-405311D01*
X-65513Y-405379D01*
X-65454Y-405438D01*
X-65396Y-405486D01*
X-65357Y-405525D01*
X-65328Y-405554D01*
X-65309Y-405564D01*
X-65299Y-405573D01*
X-65183Y-405651D01*
X-65066Y-405719D01*
X-64814Y-405835D01*
X-64572Y-405913D01*
X-64349Y-405961D01*
X-64242Y-405981D01*
X-64145Y-406000D01*
X-64058Y-406010D01*
X-63990D01*
X-63932Y-406020D01*
X-63844D01*
X-63631Y-406010D01*
X-63437Y-405981D01*
X-63243Y-405942D01*
X-63059Y-405894D01*
X-62894Y-405835D01*
X-62739Y-405767D01*
X-62583Y-405699D01*
X-62457Y-405622D01*
X-62331Y-405544D01*
X-62234Y-405476D01*
X-62137Y-405408D01*
X-62059Y-405350D01*
X-62001Y-405302D01*
X-61962Y-405253D01*
X-61933Y-405234D01*
X-61924Y-405224D01*
X-61788Y-405069D01*
X-61672Y-404894D01*
X-61565Y-404720D01*
X-61468Y-404526D01*
X-61390Y-404332D01*
X-61322Y-404147D01*
X-61264Y-403954D01*
X-61216Y-403769D01*
X-61177Y-403595D01*
X-61148Y-403439D01*
X-61119Y-403294D01*
X-61109Y-403168D01*
X-61089Y-403061D01*
Y-402984D01*
X-61080Y-402935D01*
Y-402916D01*
X-67899D01*
Y-402819D01*
X-67909Y-402741D01*
Y-402663D01*
Y-402605D01*
Y-402566D01*
Y-402537D01*
Y-402518D01*
Y-402508D01*
X-67899Y-402101D01*
X-67860Y-401713D01*
X-67802Y-401344D01*
X-67724Y-401005D01*
X-67637Y-400694D01*
X-67540Y-400403D01*
X-67433Y-400141D01*
X-67326Y-399909D01*
X-67220Y-399705D01*
X-67113Y-399521D01*
X-67016Y-399365D01*
X-66929Y-399239D01*
X-66851Y-399133D01*
X-66793Y-399065D01*
X-66754Y-399016D01*
X-66745Y-399007D01*
X-66522Y-398783D01*
X-66279Y-398589D01*
X-66036Y-398425D01*
X-65784Y-398279D01*
X-65532Y-398163D01*
X-65289Y-398056D01*
X-65047Y-397978D01*
X-64814Y-397910D01*
X-64591Y-397862D01*
X-64388Y-397823D01*
X-64213Y-397794D01*
X-64048Y-397775D01*
X-63922Y-397765D01*
X-63825Y-397755D01*
X-63747D01*
X-63398Y-397765D01*
D02*
G37*
G36*
X102433Y-403614D02*
Y-403789D01*
Y-403963D01*
X102424Y-404118D01*
Y-404254D01*
X102414Y-404390D01*
X102404Y-404506D01*
X102394Y-404613D01*
X102385Y-404710D01*
Y-404788D01*
X102375Y-404865D01*
X102365Y-404923D01*
X102356Y-404972D01*
Y-405011D01*
X102346Y-405040D01*
Y-405050D01*
Y-405059D01*
X102288Y-405302D01*
X102210Y-405525D01*
X102132Y-405719D01*
X102055Y-405894D01*
X101987Y-406029D01*
X101929Y-406126D01*
X101900Y-406165D01*
X101880Y-406194D01*
X101871Y-406204D01*
Y-406214D01*
X101725Y-406379D01*
X101560Y-406534D01*
X101395Y-406660D01*
X101221Y-406776D01*
X101075Y-406863D01*
X101007Y-406902D01*
X100949Y-406931D01*
X100900Y-406960D01*
X100862Y-406970D01*
X100842Y-406990D01*
X100833D01*
X100561Y-407087D01*
X100299Y-407164D01*
X100047Y-407213D01*
X99814Y-407252D01*
X99707Y-407261D01*
X99611Y-407271D01*
X99523Y-407281D01*
X99455D01*
X99397Y-407290D01*
X99319D01*
X98980Y-407271D01*
X98670Y-407222D01*
X98369Y-407145D01*
X98097Y-407048D01*
X97835Y-406931D01*
X97593Y-406805D01*
X97379Y-406660D01*
X97185Y-406514D01*
X97011Y-406379D01*
X96856Y-406233D01*
X96720Y-406107D01*
X96613Y-405991D01*
X96526Y-405894D01*
X96468Y-405816D01*
X96429Y-405767D01*
X96419Y-405748D01*
Y-407087D01*
X95032D01*
Y-397959D01*
X96584D01*
Y-402857D01*
Y-403071D01*
X96594Y-403265D01*
X96603Y-403459D01*
X96623Y-403624D01*
X96642Y-403789D01*
X96671Y-403934D01*
X96691Y-404070D01*
X96710Y-404186D01*
X96739Y-404293D01*
X96759Y-404380D01*
X96788Y-404458D01*
X96807Y-404526D01*
X96817Y-404574D01*
X96836Y-404613D01*
X96846Y-404633D01*
Y-404642D01*
X96953Y-404856D01*
X97088Y-405050D01*
X97234Y-405215D01*
X97370Y-405360D01*
X97506Y-405467D01*
X97612Y-405544D01*
X97651Y-405573D01*
X97680Y-405593D01*
X97699Y-405612D01*
X97709D01*
X97942Y-405729D01*
X98165Y-405816D01*
X98388Y-405874D01*
X98582Y-405913D01*
X98757Y-405942D01*
X98825Y-405952D01*
X98893D01*
X98941Y-405961D01*
X99009D01*
X99261Y-405942D01*
X99484Y-405903D01*
X99678Y-405855D01*
X99853Y-405787D01*
X99989Y-405729D01*
X100086Y-405670D01*
X100125Y-405651D01*
X100154Y-405632D01*
X100163Y-405622D01*
X100173D01*
X100338Y-405476D01*
X100474Y-405321D01*
X100580Y-405166D01*
X100658Y-405011D01*
X100726Y-404875D01*
X100765Y-404759D01*
X100775Y-404720D01*
X100784Y-404691D01*
X100794Y-404671D01*
Y-404662D01*
X100813Y-404574D01*
X100823Y-404468D01*
X100833Y-404351D01*
X100842Y-404225D01*
X100862Y-403954D01*
X100872Y-403682D01*
Y-403546D01*
Y-403430D01*
X100881Y-403313D01*
Y-403216D01*
Y-403139D01*
Y-403071D01*
Y-403032D01*
Y-403022D01*
Y-397959D01*
X102433D01*
Y-403614D01*
D02*
G37*
G36*
X63041Y-401771D02*
X63032Y-402140D01*
X63022Y-402479D01*
X62993Y-402809D01*
X62964Y-403110D01*
X62935Y-403391D01*
X62886Y-403653D01*
X62848Y-403886D01*
X62799Y-404099D01*
X62760Y-404293D01*
X62712Y-404458D01*
X62673Y-404603D01*
X62644Y-404720D01*
X62605Y-404817D01*
X62586Y-404875D01*
X62576Y-404923D01*
X62566Y-404933D01*
X62469Y-405147D01*
X62353Y-405341D01*
X62236Y-405525D01*
X62110Y-405699D01*
X61975Y-405855D01*
X61839Y-406000D01*
X61712Y-406126D01*
X61577Y-406252D01*
X61451Y-406349D01*
X61334Y-406446D01*
X61228Y-406524D01*
X61140Y-406582D01*
X61063Y-406631D01*
X61004Y-406670D01*
X60966Y-406689D01*
X60956Y-406699D01*
X60733Y-406805D01*
X60510Y-406893D01*
X60267Y-406980D01*
X60025Y-407048D01*
X59782Y-407106D01*
X59540Y-407155D01*
X59307Y-407193D01*
X59084Y-407222D01*
X58871Y-407252D01*
X58676Y-407271D01*
X58502Y-407281D01*
X58347Y-407290D01*
X58230Y-407300D01*
X58056D01*
X57726Y-407290D01*
X57406Y-407271D01*
X57105Y-407232D01*
X56824Y-407193D01*
X56562Y-407135D01*
X56319Y-407077D01*
X56106Y-407019D01*
X55902Y-406951D01*
X55718Y-406883D01*
X55563Y-406825D01*
X55427Y-406767D01*
X55320Y-406708D01*
X55233Y-406670D01*
X55165Y-406631D01*
X55126Y-406611D01*
X55116Y-406602D01*
X54913Y-406466D01*
X54729Y-406320D01*
X54554Y-406175D01*
X54399Y-406020D01*
X54253Y-405874D01*
X54127Y-405719D01*
X54021Y-405573D01*
X53914Y-405428D01*
X53836Y-405302D01*
X53759Y-405176D01*
X53700Y-405069D01*
X53652Y-404972D01*
X53613Y-404894D01*
X53584Y-404836D01*
X53565Y-404797D01*
Y-404788D01*
X53487Y-404574D01*
X53419Y-404342D01*
X53361Y-404099D01*
X53312Y-403847D01*
X53235Y-403342D01*
X53206Y-403100D01*
X53186Y-402857D01*
X53167Y-402634D01*
X53148Y-402431D01*
X53138Y-402246D01*
Y-402081D01*
X53128Y-401955D01*
Y-401858D01*
Y-401820D01*
Y-401790D01*
Y-401781D01*
Y-401771D01*
Y-394486D01*
X54796D01*
Y-401761D01*
X54806Y-402188D01*
X54826Y-402586D01*
X54864Y-402935D01*
X54923Y-403265D01*
X54981Y-403556D01*
X55049Y-403818D01*
X55116Y-404050D01*
X55185Y-404254D01*
X55262Y-404429D01*
X55330Y-404584D01*
X55398Y-404710D01*
X55456Y-404807D01*
X55505Y-404875D01*
X55543Y-404933D01*
X55572Y-404962D01*
X55582Y-404972D01*
X55737Y-405118D01*
X55922Y-405244D01*
X56116Y-405350D01*
X56319Y-405447D01*
X56533Y-405525D01*
X56756Y-405593D01*
X56969Y-405651D01*
X57183Y-405690D01*
X57386Y-405729D01*
X57580Y-405748D01*
X57755Y-405767D01*
X57901Y-405787D01*
X58026D01*
X58124Y-405796D01*
X58201D01*
X58395Y-405787D01*
X58589Y-405777D01*
X58773Y-405758D01*
X58938Y-405729D01*
X59103Y-405699D01*
X59249Y-405661D01*
X59394Y-405622D01*
X59520Y-405583D01*
X59627Y-405544D01*
X59734Y-405515D01*
X59821Y-405476D01*
X59889Y-405447D01*
X59947Y-405418D01*
X59986Y-405399D01*
X60015Y-405379D01*
X60025D01*
X60161Y-405302D01*
X60287Y-405205D01*
X60403Y-405118D01*
X60500Y-405021D01*
X60684Y-404817D01*
X60830Y-404623D01*
X60936Y-404458D01*
X60975Y-404380D01*
X61014Y-404312D01*
X61043Y-404264D01*
X61053Y-404215D01*
X61072Y-404196D01*
Y-404186D01*
X61121Y-404031D01*
X61169Y-403857D01*
X61208Y-403672D01*
X61247Y-403478D01*
X61295Y-403071D01*
X61334Y-402683D01*
X61344Y-402489D01*
X61354Y-402324D01*
X61363Y-402169D01*
Y-402033D01*
X61373Y-401917D01*
Y-401829D01*
Y-401781D01*
Y-401761D01*
Y-394486D01*
X63041D01*
Y-401771D01*
D02*
G37*
G36*
X-9650Y-397765D02*
X-9437Y-397775D01*
X-9233Y-397804D01*
X-9030Y-397843D01*
X-8845Y-397881D01*
X-8661Y-397930D01*
X-8496Y-397988D01*
X-8341Y-398037D01*
X-8195Y-398085D01*
X-8069Y-398143D01*
X-7963Y-398192D01*
X-7866Y-398231D01*
X-7788Y-398269D01*
X-7739Y-398289D01*
X-7701Y-398308D01*
X-7691Y-398318D01*
X-7507Y-398425D01*
X-7342Y-398551D01*
X-7186Y-398677D01*
X-7041Y-398813D01*
X-6905Y-398948D01*
X-6779Y-399084D01*
X-6673Y-399220D01*
X-6566Y-399356D01*
X-6478Y-399482D01*
X-6411Y-399598D01*
X-6343Y-399705D01*
X-6294Y-399792D01*
X-6246Y-399870D01*
X-6217Y-399928D01*
X-6207Y-399967D01*
X-6197Y-399976D01*
X-6110Y-400190D01*
X-6042Y-400403D01*
X-5974Y-400626D01*
X-5916Y-400849D01*
X-5829Y-401286D01*
X-5799Y-401490D01*
X-5770Y-401684D01*
X-5751Y-401868D01*
X-5741Y-402043D01*
X-5732Y-402188D01*
X-5722Y-402314D01*
X-5712Y-402421D01*
Y-402498D01*
Y-402547D01*
Y-402566D01*
X-5722Y-402984D01*
X-5761Y-403371D01*
X-5819Y-403740D01*
X-5887Y-404080D01*
X-5974Y-404390D01*
X-6071Y-404671D01*
X-6178Y-404933D01*
X-6284Y-405176D01*
X-6381Y-405379D01*
X-6488Y-405564D01*
X-6585Y-405719D01*
X-6673Y-405845D01*
X-6740Y-405942D01*
X-6799Y-406010D01*
X-6837Y-406049D01*
X-6847Y-406068D01*
X-7070Y-406282D01*
X-7303Y-406475D01*
X-7545Y-406631D01*
X-7798Y-406776D01*
X-8050Y-406893D01*
X-8302Y-406990D01*
X-8545Y-407077D01*
X-8777Y-407135D01*
X-9000Y-407184D01*
X-9204Y-407222D01*
X-9388Y-407252D01*
X-9553Y-407271D01*
X-9679Y-407281D01*
X-9776Y-407290D01*
X-9864D01*
X-10135Y-407281D01*
X-10397Y-407252D01*
X-10650Y-407213D01*
X-10892Y-407155D01*
X-11115Y-407087D01*
X-11319Y-407009D01*
X-11513Y-406931D01*
X-11687Y-406844D01*
X-11842Y-406767D01*
X-11978Y-406689D01*
X-12104Y-406611D01*
X-12201Y-406543D01*
X-12279Y-406485D01*
X-12337Y-406446D01*
X-12376Y-406417D01*
X-12386Y-406408D01*
X-12570Y-406233D01*
X-12735Y-406049D01*
X-12890Y-405845D01*
X-13016Y-405641D01*
X-13142Y-405438D01*
X-13239Y-405234D01*
X-13336Y-405030D01*
X-13414Y-404836D01*
X-13482Y-404662D01*
X-13530Y-404487D01*
X-13579Y-404332D01*
X-13608Y-404206D01*
X-13637Y-404099D01*
X-13656Y-404012D01*
X-13666Y-403963D01*
Y-403944D01*
X-12143Y-403740D01*
X-12104Y-403954D01*
X-12066Y-404147D01*
X-12008Y-404332D01*
X-11949Y-404497D01*
X-11891Y-404652D01*
X-11823Y-404797D01*
X-11755Y-404923D01*
X-11697Y-405040D01*
X-11629Y-405137D01*
X-11571Y-405224D01*
X-11513Y-405302D01*
X-11464Y-405360D01*
X-11425Y-405408D01*
X-11396Y-405438D01*
X-11377Y-405457D01*
X-11367Y-405467D01*
X-11251Y-405564D01*
X-11125Y-405651D01*
X-10999Y-405719D01*
X-10872Y-405787D01*
X-10746Y-405835D01*
X-10620Y-405884D01*
X-10378Y-405952D01*
X-10271Y-405971D01*
X-10164Y-405991D01*
X-10077Y-406000D01*
X-10000Y-406010D01*
X-9932Y-406020D01*
X-9844D01*
X-9641Y-406010D01*
X-9437Y-405981D01*
X-9253Y-405942D01*
X-9078Y-405894D01*
X-8913Y-405826D01*
X-8758Y-405758D01*
X-8622Y-405680D01*
X-8496Y-405603D01*
X-8389Y-405535D01*
X-8283Y-405457D01*
X-8205Y-405389D01*
X-8128Y-405321D01*
X-8079Y-405273D01*
X-8031Y-405234D01*
X-8011Y-405205D01*
X-8001Y-405195D01*
X-7875Y-405030D01*
X-7769Y-404836D01*
X-7681Y-404642D01*
X-7594Y-404429D01*
X-7526Y-404206D01*
X-7478Y-403983D01*
X-7429Y-403759D01*
X-7390Y-403546D01*
X-7361Y-403333D01*
X-7342Y-403148D01*
X-7322Y-402974D01*
X-7313Y-402819D01*
Y-402693D01*
X-7303Y-402596D01*
Y-402566D01*
Y-402537D01*
Y-402528D01*
Y-402518D01*
X-7313Y-402188D01*
X-7332Y-401887D01*
X-7371Y-401596D01*
X-7419Y-401334D01*
X-7468Y-401102D01*
X-7536Y-400879D01*
X-7604Y-400685D01*
X-7672Y-400510D01*
X-7739Y-400364D01*
X-7798Y-400229D01*
X-7866Y-400122D01*
X-7914Y-400025D01*
X-7963Y-399957D01*
X-8001Y-399909D01*
X-8021Y-399880D01*
X-8031Y-399870D01*
X-8176Y-399724D01*
X-8321Y-399588D01*
X-8477Y-399482D01*
X-8632Y-399385D01*
X-8797Y-399297D01*
X-8952Y-399230D01*
X-9107Y-399171D01*
X-9253Y-399133D01*
X-9398Y-399094D01*
X-9524Y-399074D01*
X-9641Y-399055D01*
X-9738Y-399036D01*
X-9815D01*
X-9883Y-399026D01*
X-9932D01*
X-10077Y-399036D01*
X-10213Y-399045D01*
X-10465Y-399094D01*
X-10688Y-399171D01*
X-10882Y-399259D01*
X-10970Y-399297D01*
X-11037Y-399346D01*
X-11105Y-399385D01*
X-11154Y-399414D01*
X-11193Y-399453D01*
X-11222Y-399472D01*
X-11241Y-399482D01*
X-11251Y-399492D01*
X-11348Y-399579D01*
X-11445Y-399686D01*
X-11600Y-399899D01*
X-11736Y-400132D01*
X-11842Y-400355D01*
X-11920Y-400559D01*
X-11949Y-400646D01*
X-11978Y-400723D01*
X-11998Y-400782D01*
X-12008Y-400830D01*
X-12017Y-400859D01*
Y-400869D01*
X-13521Y-400636D01*
X-13463Y-400384D01*
X-13395Y-400151D01*
X-13307Y-399928D01*
X-13220Y-399724D01*
X-13113Y-399530D01*
X-13016Y-399356D01*
X-12910Y-399201D01*
X-12812Y-399055D01*
X-12706Y-398929D01*
X-12619Y-398822D01*
X-12531Y-398725D01*
X-12454Y-398648D01*
X-12386Y-398589D01*
X-12337Y-398551D01*
X-12308Y-398521D01*
X-12298Y-398512D01*
X-12114Y-398376D01*
X-11920Y-398260D01*
X-11726Y-398163D01*
X-11523Y-398075D01*
X-11319Y-397998D01*
X-11115Y-397939D01*
X-10921Y-397891D01*
X-10737Y-397852D01*
X-10553Y-397823D01*
X-10397Y-397794D01*
X-10242Y-397775D01*
X-10116Y-397765D01*
X-10019Y-397755D01*
X-9873D01*
X-9650Y-397765D01*
D02*
G37*
G36*
X13911D02*
X14212Y-397794D01*
X14493Y-397852D01*
X14764Y-397910D01*
X15017Y-397988D01*
X15259Y-398075D01*
X15473Y-398172D01*
X15676Y-398260D01*
X15851Y-398357D01*
X16006Y-398454D01*
X16152Y-398541D01*
X16258Y-398619D01*
X16355Y-398677D01*
X16414Y-398725D01*
X16462Y-398764D01*
X16472Y-398774D01*
X16714Y-399016D01*
X16937Y-399288D01*
X17122Y-399569D01*
X17287Y-399880D01*
X17422Y-400190D01*
X17539Y-400500D01*
X17626Y-400811D01*
X17704Y-401111D01*
X17762Y-401393D01*
X17801Y-401664D01*
X17839Y-401907D01*
X17859Y-402110D01*
Y-402208D01*
X17868Y-402285D01*
Y-402353D01*
X17878Y-402421D01*
Y-402460D01*
Y-402498D01*
Y-402518D01*
Y-402528D01*
X17868Y-402945D01*
X17830Y-403342D01*
X17772Y-403711D01*
X17694Y-404050D01*
X17607Y-404371D01*
X17510Y-404662D01*
X17403Y-404923D01*
X17287Y-405166D01*
X17180Y-405370D01*
X17073Y-405554D01*
X16976Y-405709D01*
X16889Y-405835D01*
X16811Y-405942D01*
X16753Y-406010D01*
X16714Y-406049D01*
X16705Y-406068D01*
X16472Y-406282D01*
X16229Y-406475D01*
X15977Y-406631D01*
X15715Y-406776D01*
X15463Y-406893D01*
X15201Y-406990D01*
X14949Y-407077D01*
X14706Y-407135D01*
X14483Y-407184D01*
X14270Y-407222D01*
X14086Y-407252D01*
X13921Y-407271D01*
X13785Y-407281D01*
X13688Y-407290D01*
X13601D01*
X13377Y-407281D01*
X13164Y-407271D01*
X12951Y-407242D01*
X12757Y-407203D01*
X12563Y-407164D01*
X12378Y-407116D01*
X12213Y-407067D01*
X12049Y-407009D01*
X11913Y-406960D01*
X11777Y-406912D01*
X11670Y-406863D01*
X11573Y-406825D01*
X11496Y-406786D01*
X11447Y-406757D01*
X11408Y-406747D01*
X11399Y-406737D01*
X11214Y-406631D01*
X11040Y-406505D01*
X10885Y-406379D01*
X10729Y-406252D01*
X10594Y-406126D01*
X10467Y-405991D01*
X10351Y-405864D01*
X10244Y-405738D01*
X10157Y-405622D01*
X10079Y-405515D01*
X10012Y-405418D01*
X9953Y-405331D01*
X9915Y-405263D01*
X9886Y-405215D01*
X9866Y-405176D01*
X9856Y-405166D01*
X9759Y-404972D01*
X9682Y-404759D01*
X9604Y-404535D01*
X9546Y-404312D01*
X9449Y-403847D01*
X9420Y-403624D01*
X9391Y-403401D01*
X9371Y-403197D01*
X9352Y-403013D01*
X9342Y-402838D01*
X9333Y-402693D01*
X9323Y-402566D01*
Y-402479D01*
Y-402421D01*
Y-402401D01*
X9333Y-402004D01*
X9371Y-401635D01*
X9430Y-401276D01*
X9507Y-400956D01*
X9604Y-400646D01*
X9701Y-400364D01*
X9808Y-400112D01*
X9924Y-399880D01*
X10041Y-399676D01*
X10147Y-399501D01*
X10244Y-399346D01*
X10341Y-399220D01*
X10419Y-399123D01*
X10477Y-399055D01*
X10516Y-399007D01*
X10526Y-398997D01*
X10758Y-398774D01*
X11001Y-398589D01*
X11253Y-398425D01*
X11505Y-398279D01*
X11767Y-398163D01*
X12020Y-398056D01*
X12272Y-397978D01*
X12514Y-397910D01*
X12737Y-397862D01*
X12941Y-397823D01*
X13125Y-397794D01*
X13290Y-397775D01*
X13416Y-397765D01*
X13513Y-397755D01*
X13601D01*
X13911Y-397765D01*
D02*
G37*
G36*
X-99375D02*
X-99181Y-397804D01*
X-99016Y-397852D01*
X-98871Y-397910D01*
X-98745Y-397969D01*
X-98648Y-398017D01*
X-98590Y-398056D01*
X-98580Y-398066D01*
X-98570D01*
X-98483Y-398133D01*
X-98405Y-398211D01*
X-98318Y-398298D01*
X-98231Y-398395D01*
X-98066Y-398609D01*
X-97920Y-398822D01*
X-97794Y-399026D01*
X-97736Y-399123D01*
X-97688Y-399201D01*
X-97649Y-399259D01*
X-97620Y-399317D01*
X-97610Y-399346D01*
X-97600Y-399356D01*
Y-397959D01*
X-96203D01*
Y-407087D01*
X-97755D01*
Y-402314D01*
X-97765Y-401955D01*
X-97794Y-401616D01*
X-97833Y-401315D01*
X-97862Y-401170D01*
X-97882Y-401044D01*
X-97901Y-400927D01*
X-97930Y-400820D01*
X-97949Y-400733D01*
X-97969Y-400656D01*
X-97988Y-400588D01*
X-97998Y-400549D01*
X-98008Y-400520D01*
Y-400510D01*
X-98085Y-400316D01*
X-98173Y-400151D01*
X-98270Y-400006D01*
X-98357Y-399880D01*
X-98444Y-399792D01*
X-98512Y-399724D01*
X-98561Y-399676D01*
X-98580Y-399666D01*
X-98735Y-399559D01*
X-98890Y-399482D01*
X-99036Y-399433D01*
X-99181Y-399394D01*
X-99298Y-399375D01*
X-99395Y-399356D01*
X-99482D01*
X-99695Y-399365D01*
X-99899Y-399404D01*
X-100093Y-399462D01*
X-100268Y-399521D01*
X-100413Y-399579D01*
X-100471Y-399608D01*
X-100520Y-399637D01*
X-100559Y-399656D01*
X-100588Y-399676D01*
X-100607Y-399686D01*
X-100617D01*
X-101160Y-398260D01*
X-101005Y-398172D01*
X-100859Y-398095D01*
X-100714Y-398027D01*
X-100568Y-397969D01*
X-100297Y-397881D01*
X-100064Y-397813D01*
X-99957Y-397794D01*
X-99860Y-397784D01*
X-99773Y-397775D01*
X-99705Y-397765D01*
X-99647Y-397755D01*
X-99569D01*
X-99375Y-397765D01*
D02*
G37*
G36*
X38597D02*
X38791Y-397804D01*
X38956Y-397852D01*
X39102Y-397910D01*
X39228Y-397969D01*
X39325Y-398017D01*
X39383Y-398056D01*
X39393Y-398066D01*
X39403D01*
X39490Y-398133D01*
X39568Y-398211D01*
X39655Y-398298D01*
X39742Y-398395D01*
X39907Y-398609D01*
X40052Y-398822D01*
X40179Y-399026D01*
X40237Y-399123D01*
X40285Y-399201D01*
X40324Y-399259D01*
X40353Y-399317D01*
X40363Y-399346D01*
X40373Y-399356D01*
Y-397959D01*
X41769D01*
Y-407087D01*
X40217D01*
Y-402314D01*
X40208Y-401955D01*
X40179Y-401616D01*
X40140Y-401315D01*
X40111Y-401170D01*
X40091Y-401044D01*
X40072Y-400927D01*
X40043Y-400820D01*
X40023Y-400733D01*
X40004Y-400656D01*
X39985Y-400588D01*
X39975Y-400549D01*
X39965Y-400520D01*
Y-400510D01*
X39887Y-400316D01*
X39800Y-400151D01*
X39703Y-400006D01*
X39616Y-399880D01*
X39529Y-399792D01*
X39461Y-399724D01*
X39412Y-399676D01*
X39393Y-399666D01*
X39238Y-399559D01*
X39083Y-399482D01*
X38937Y-399433D01*
X38791Y-399394D01*
X38675Y-399375D01*
X38578Y-399356D01*
X38491D01*
X38277Y-399365D01*
X38074Y-399404D01*
X37880Y-399462D01*
X37705Y-399521D01*
X37560Y-399579D01*
X37501Y-399608D01*
X37453Y-399637D01*
X37414Y-399656D01*
X37385Y-399676D01*
X37366Y-399686D01*
X37356D01*
X36813Y-398260D01*
X36968Y-398172D01*
X37113Y-398095D01*
X37259Y-398027D01*
X37404Y-397969D01*
X37676Y-397881D01*
X37909Y-397813D01*
X38015Y-397794D01*
X38113Y-397784D01*
X38200Y-397775D01*
X38268Y-397765D01*
X38326Y-397755D01*
X38403D01*
X38597Y-397765D01*
D02*
G37*
G36*
X50587Y-407087D02*
X49035D01*
Y-394486D01*
X50587D01*
Y-407087D01*
D02*
G37*
G36*
X-2288D02*
X-3840D01*
Y-397959D01*
X-2288D01*
Y-407087D01*
D02*
G37*
G36*
X3561Y-397775D02*
X3891Y-397823D01*
X4192Y-397891D01*
X4473Y-397988D01*
X4725Y-398104D01*
X4967Y-398231D01*
X5181Y-398366D01*
X5375Y-398502D01*
X5550Y-398648D01*
X5695Y-398783D01*
X5821Y-398909D01*
X5928Y-399026D01*
X6005Y-399123D01*
X6064Y-399191D01*
X6103Y-399239D01*
X6112Y-399259D01*
Y-397959D01*
X7509D01*
Y-407087D01*
X5957D01*
Y-402110D01*
X5947Y-401790D01*
X5928Y-401499D01*
X5889Y-401237D01*
X5850Y-400995D01*
X5792Y-400782D01*
X5734Y-400588D01*
X5666Y-400413D01*
X5598Y-400258D01*
X5540Y-400132D01*
X5472Y-400015D01*
X5414Y-399928D01*
X5356Y-399850D01*
X5317Y-399792D01*
X5278Y-399753D01*
X5259Y-399734D01*
X5249Y-399724D01*
X5113Y-399618D01*
X4967Y-399521D01*
X4822Y-399433D01*
X4677Y-399356D01*
X4541Y-399297D01*
X4395Y-399249D01*
X4133Y-399171D01*
X4007Y-399142D01*
X3901Y-399123D01*
X3804Y-399113D01*
X3716Y-399103D01*
X3648Y-399094D01*
X3551D01*
X3328Y-399103D01*
X3125Y-399133D01*
X2940Y-399181D01*
X2775Y-399230D01*
X2649Y-399288D01*
X2552Y-399327D01*
X2523Y-399346D01*
X2494Y-399365D01*
X2484Y-399375D01*
X2475D01*
X2320Y-399492D01*
X2184Y-399608D01*
X2067Y-399734D01*
X1980Y-399860D01*
X1912Y-399967D01*
X1873Y-400054D01*
X1844Y-400112D01*
X1835Y-400122D01*
Y-400132D01*
X1805Y-400229D01*
X1776Y-400326D01*
X1728Y-400549D01*
X1699Y-400782D01*
X1670Y-401005D01*
X1660Y-401218D01*
Y-401305D01*
X1650Y-401383D01*
Y-401451D01*
Y-401499D01*
Y-401529D01*
Y-401538D01*
Y-407087D01*
X98D01*
Y-401480D01*
Y-401286D01*
Y-401102D01*
X108Y-400937D01*
Y-400791D01*
X117Y-400656D01*
X127Y-400529D01*
X137Y-400423D01*
Y-400326D01*
X147Y-400238D01*
X156Y-400171D01*
X166Y-400112D01*
X176Y-400064D01*
Y-400025D01*
X186Y-399996D01*
Y-399976D01*
X244Y-399734D01*
X321Y-399521D01*
X399Y-399327D01*
X476Y-399162D01*
X554Y-399026D01*
X612Y-398929D01*
X641Y-398890D01*
X651Y-398861D01*
X671Y-398851D01*
Y-398842D01*
X816Y-398667D01*
X971Y-398512D01*
X1146Y-398376D01*
X1320Y-398269D01*
X1466Y-398172D01*
X1534Y-398143D01*
X1592Y-398114D01*
X1640Y-398085D01*
X1679Y-398066D01*
X1699Y-398056D01*
X1708D01*
X1970Y-397959D01*
X2232Y-397881D01*
X2494Y-397833D01*
X2727Y-397794D01*
X2824Y-397784D01*
X2921Y-397775D01*
X3008Y-397765D01*
X3086Y-397755D01*
X3221D01*
X3561Y-397775D01*
D02*
G37*
G36*
X122658Y-407087D02*
X120989D01*
Y-401364D01*
X115072D01*
Y-399880D01*
X120989D01*
Y-395970D01*
X114151D01*
Y-394486D01*
X122658D01*
Y-407087D01*
D02*
G37*
G36*
X-20078D02*
X-21746D01*
Y-401965D01*
X-25219D01*
X-25461Y-401955D01*
X-25907Y-401917D01*
X-26315Y-401858D01*
X-26684Y-401790D01*
X-27023Y-401713D01*
X-27324Y-401616D01*
X-27595Y-401519D01*
X-27828Y-401412D01*
X-28032Y-401305D01*
X-28207Y-401208D01*
X-28352Y-401111D01*
X-28468Y-401034D01*
X-28565Y-400956D01*
X-28624Y-400908D01*
X-28662Y-400869D01*
X-28672Y-400859D01*
X-28856Y-400646D01*
X-29011Y-400423D01*
X-29147Y-400190D01*
X-29264Y-399967D01*
X-29370Y-399734D01*
X-29448Y-399511D01*
X-29516Y-399288D01*
X-29574Y-399074D01*
X-29613Y-398880D01*
X-29642Y-398706D01*
X-29671Y-398541D01*
X-29681Y-398405D01*
X-29691Y-398289D01*
X-29700Y-398201D01*
Y-398153D01*
Y-398133D01*
X-29681Y-397794D01*
X-29642Y-397474D01*
X-29574Y-397183D01*
X-29545Y-397047D01*
X-29506Y-396921D01*
X-29467Y-396814D01*
X-29438Y-396717D01*
X-29399Y-396630D01*
X-29370Y-396552D01*
X-29351Y-396494D01*
X-29332Y-396455D01*
X-29312Y-396426D01*
Y-396417D01*
X-29157Y-396135D01*
X-28992Y-395893D01*
X-28827Y-395689D01*
X-28662Y-395514D01*
X-28526Y-395379D01*
X-28410Y-395282D01*
X-28362Y-395253D01*
X-28332Y-395223D01*
X-28313Y-395204D01*
X-28303D01*
X-28051Y-395049D01*
X-27789Y-394923D01*
X-27537Y-394826D01*
X-27285Y-394748D01*
X-27178Y-394709D01*
X-27072Y-394680D01*
X-26974Y-394661D01*
X-26897Y-394641D01*
X-26829Y-394632D01*
X-26781Y-394622D01*
X-26751Y-394612D01*
X-26742D01*
X-26616Y-394593D01*
X-26470Y-394574D01*
X-26169Y-394535D01*
X-25849Y-394515D01*
X-25539Y-394506D01*
X-25394Y-394496D01*
X-25258D01*
X-25141Y-394486D01*
X-20078D01*
Y-407087D01*
D02*
G37*
G36*
X-83293D02*
X-85058D01*
X-86436Y-403274D01*
X-91722D01*
X-93187Y-407087D01*
X-95078D01*
X-89928Y-394486D01*
X-88133D01*
X-83293Y-407087D01*
D02*
G37*
G36*
X150371D02*
X148819D01*
Y-394486D01*
X150371D01*
Y-407087D01*
D02*
G37*
G36*
X163039D02*
X161487D01*
Y-397959D01*
X163039D01*
Y-407087D01*
D02*
G37*
G36*
X-154403Y-394447D02*
X-154161Y-394467D01*
X-153938Y-394506D01*
X-153715Y-394554D01*
X-153511Y-394612D01*
X-153327Y-394671D01*
X-153152Y-394739D01*
X-152997Y-394806D01*
X-152851Y-394874D01*
X-152725Y-394942D01*
X-152619Y-395000D01*
X-152531Y-395059D01*
X-152463Y-395107D01*
X-152405Y-395146D01*
X-152376Y-395165D01*
X-152366Y-395175D01*
X-152201Y-395321D01*
X-152046Y-395476D01*
X-151910Y-395641D01*
X-151775Y-395815D01*
X-151649Y-395990D01*
X-151542Y-396164D01*
X-151435Y-396339D01*
X-151348Y-396504D01*
X-151270Y-396659D01*
X-151202Y-396805D01*
X-151144Y-396940D01*
X-151096Y-397057D01*
X-151057Y-397144D01*
X-151028Y-397222D01*
X-151018Y-397260D01*
X-151008Y-397280D01*
X-150931Y-397542D01*
X-150863Y-397823D01*
X-150795Y-398124D01*
X-150747Y-398415D01*
X-150669Y-399016D01*
X-150630Y-399307D01*
X-150611Y-399588D01*
X-150591Y-399860D01*
X-150582Y-400103D01*
X-150562Y-400316D01*
Y-400510D01*
X-150552Y-400665D01*
Y-400723D01*
Y-400782D01*
Y-400820D01*
Y-400849D01*
Y-400869D01*
Y-400879D01*
Y-401208D01*
X-150562Y-401519D01*
X-150582Y-401829D01*
X-150611Y-402120D01*
X-150630Y-402401D01*
X-150669Y-402673D01*
X-150708Y-402925D01*
X-150747Y-403177D01*
X-150795Y-403410D01*
X-150844Y-403643D01*
X-150892Y-403857D01*
X-150950Y-404060D01*
X-150999Y-404254D01*
X-151057Y-404438D01*
X-151115Y-404613D01*
X-151173Y-404768D01*
X-151232Y-404923D01*
X-151290Y-405059D01*
X-151348Y-405195D01*
X-151406Y-405311D01*
X-151455Y-405428D01*
X-151503Y-405525D01*
X-151552Y-405622D01*
X-151600Y-405699D01*
X-151639Y-405767D01*
X-151678Y-405835D01*
X-151746Y-405923D01*
X-151784Y-405981D01*
X-151794Y-406000D01*
X-151998Y-406233D01*
X-152211Y-406427D01*
X-152444Y-406602D01*
X-152677Y-406747D01*
X-152919Y-406873D01*
X-153152Y-406980D01*
X-153385Y-407067D01*
X-153618Y-407135D01*
X-153831Y-407193D01*
X-154025Y-407232D01*
X-154200Y-407261D01*
X-154355Y-407281D01*
X-154481Y-407290D01*
X-154578Y-407300D01*
X-154656D01*
X-154908Y-407290D01*
X-155150Y-407271D01*
X-155383Y-407232D01*
X-155597Y-407184D01*
X-155800Y-407125D01*
X-155994Y-407067D01*
X-156159Y-406999D01*
X-156324Y-406931D01*
X-156460Y-406863D01*
X-156586Y-406796D01*
X-156693Y-406737D01*
X-156780Y-406679D01*
X-156858Y-406631D01*
X-156906Y-406592D01*
X-156935Y-406572D01*
X-156945Y-406563D01*
X-157110Y-406417D01*
X-157265Y-406262D01*
X-157410Y-406097D01*
X-157546Y-405923D01*
X-157663Y-405748D01*
X-157779Y-405573D01*
X-157876Y-405399D01*
X-157973Y-405234D01*
X-158051Y-405079D01*
X-158119Y-404933D01*
X-158177Y-404797D01*
X-158225Y-404681D01*
X-158264Y-404584D01*
X-158293Y-404516D01*
X-158303Y-404477D01*
X-158313Y-404458D01*
X-158390Y-404196D01*
X-158468Y-403915D01*
X-158526Y-403624D01*
X-158574Y-403323D01*
X-158662Y-402722D01*
X-158691Y-402431D01*
X-158710Y-402159D01*
X-158730Y-401897D01*
X-158749Y-401655D01*
X-158759Y-401432D01*
Y-401247D01*
X-158768Y-401092D01*
Y-401024D01*
Y-400976D01*
Y-400937D01*
Y-400908D01*
Y-400888D01*
Y-400879D01*
Y-400539D01*
X-158759Y-400209D01*
X-158739Y-399909D01*
X-158720Y-399627D01*
X-158701Y-399356D01*
X-158681Y-399113D01*
X-158652Y-398890D01*
X-158623Y-398686D01*
X-158594Y-398502D01*
X-158574Y-398347D01*
X-158545Y-398211D01*
X-158526Y-398104D01*
X-158507Y-398017D01*
X-158487Y-397949D01*
X-158477Y-397910D01*
Y-397901D01*
X-158361Y-397503D01*
X-158303Y-397319D01*
X-158235Y-397144D01*
X-158177Y-396979D01*
X-158109Y-396824D01*
X-158041Y-396678D01*
X-157983Y-396552D01*
X-157924Y-396436D01*
X-157876Y-396329D01*
X-157827Y-396242D01*
X-157779Y-396164D01*
X-157750Y-396106D01*
X-157721Y-396067D01*
X-157711Y-396038D01*
X-157701Y-396029D01*
X-157507Y-395757D01*
X-157294Y-395524D01*
X-157081Y-395321D01*
X-156887Y-395156D01*
X-156712Y-395020D01*
X-156634Y-394971D01*
X-156567Y-394933D01*
X-156518Y-394894D01*
X-156479Y-394874D01*
X-156450Y-394855D01*
X-156440D01*
X-156295Y-394777D01*
X-156140Y-394719D01*
X-155839Y-394612D01*
X-155538Y-394535D01*
X-155257Y-394486D01*
X-155131Y-394477D01*
X-155015Y-394457D01*
X-154918Y-394447D01*
X-154830D01*
X-154753Y-394438D01*
X-154656D01*
X-154403Y-394447D01*
D02*
G37*
G36*
X-165083Y-394593D02*
X-164986Y-394748D01*
X-164782Y-395049D01*
X-164550Y-395340D01*
X-164327Y-395592D01*
X-164220Y-395708D01*
X-164123Y-395815D01*
X-164026Y-395912D01*
X-163948Y-395990D01*
X-163890Y-396048D01*
X-163832Y-396096D01*
X-163803Y-396126D01*
X-163793Y-396135D01*
X-163415Y-396446D01*
X-163027Y-396727D01*
X-162648Y-396979D01*
X-162474Y-397086D01*
X-162299Y-397193D01*
X-162144Y-397280D01*
X-161989Y-397367D01*
X-161863Y-397435D01*
X-161746Y-397493D01*
X-161659Y-397542D01*
X-161591Y-397571D01*
X-161552Y-397590D01*
X-161533Y-397600D01*
Y-399103D01*
X-161804Y-398987D01*
X-162086Y-398861D01*
X-162357Y-398725D01*
X-162610Y-398599D01*
X-162726Y-398541D01*
X-162833Y-398483D01*
X-162920Y-398434D01*
X-162998Y-398386D01*
X-163066Y-398347D01*
X-163114Y-398318D01*
X-163143Y-398308D01*
X-163153Y-398298D01*
X-163473Y-398095D01*
X-163764Y-397910D01*
X-163890Y-397813D01*
X-164016Y-397726D01*
X-164123Y-397639D01*
X-164220Y-397561D01*
X-164317Y-397493D01*
X-164394Y-397425D01*
X-164462Y-397367D01*
X-164521Y-397319D01*
X-164559Y-397280D01*
X-164588Y-397251D01*
X-164608Y-397241D01*
X-164618Y-397231D01*
Y-407087D01*
X-166170D01*
Y-394438D01*
X-165161D01*
X-165083Y-394593D01*
D02*
G37*
G36*
X108757Y-397765D02*
X108961Y-397784D01*
X109155Y-397804D01*
X109340Y-397833D01*
X109504Y-397862D01*
X109669Y-397891D01*
X109815Y-397920D01*
X109941Y-397949D01*
X110057Y-397978D01*
X110164Y-398007D01*
X110251Y-398037D01*
X110319Y-398056D01*
X110368Y-398075D01*
X110397Y-398085D01*
X110406D01*
X110572Y-398143D01*
X110717Y-398221D01*
X110862Y-398289D01*
X110998Y-398366D01*
X111115Y-398444D01*
X111231Y-398521D01*
X111338Y-398589D01*
X111425Y-398667D01*
X111503Y-398735D01*
X111580Y-398803D01*
X111638Y-398861D01*
X111687Y-398909D01*
X111726Y-398948D01*
X111755Y-398977D01*
X111765Y-398997D01*
X111774Y-399007D01*
X111939Y-399239D01*
X112075Y-399501D01*
X112191Y-399763D01*
X112279Y-400006D01*
X112318Y-400122D01*
X112356Y-400229D01*
X112385Y-400326D01*
X112405Y-400403D01*
X112424Y-400471D01*
X112434Y-400529D01*
X112444Y-400559D01*
Y-400568D01*
X110930Y-400772D01*
X110882Y-400597D01*
X110824Y-400432D01*
X110766Y-400287D01*
X110707Y-400151D01*
X110649Y-400025D01*
X110581Y-399918D01*
X110523Y-399821D01*
X110465Y-399734D01*
X110406Y-399656D01*
X110348Y-399598D01*
X110300Y-399540D01*
X110261Y-399501D01*
X110222Y-399462D01*
X110193Y-399443D01*
X110183Y-399424D01*
X110174D01*
X110067Y-399356D01*
X109951Y-399297D01*
X109698Y-399201D01*
X109427Y-399133D01*
X109165Y-399084D01*
X109039Y-399065D01*
X108932Y-399055D01*
X108826Y-399045D01*
X108728D01*
X108660Y-399036D01*
X108554D01*
X108341Y-399045D01*
X108147Y-399055D01*
X107962Y-399084D01*
X107788Y-399123D01*
X107632Y-399162D01*
X107487Y-399201D01*
X107361Y-399249D01*
X107235Y-399297D01*
X107138Y-399356D01*
X107050Y-399404D01*
X106973Y-399443D01*
X106905Y-399482D01*
X106856Y-399521D01*
X106827Y-399550D01*
X106808Y-399559D01*
X106798Y-399569D01*
X106721Y-399647D01*
X106653Y-399734D01*
X106536Y-399938D01*
X106459Y-400151D01*
X106410Y-400374D01*
X106371Y-400578D01*
X106362Y-400665D01*
Y-400743D01*
X106352Y-400811D01*
Y-400859D01*
Y-400888D01*
Y-400898D01*
Y-400937D01*
Y-400995D01*
Y-401131D01*
X106362Y-401189D01*
Y-401247D01*
Y-401286D01*
Y-401296D01*
X106536Y-401354D01*
X106740Y-401412D01*
X106944Y-401461D01*
X107167Y-401509D01*
X107632Y-401596D01*
X107855Y-401645D01*
X108079Y-401674D01*
X108292Y-401713D01*
X108486Y-401742D01*
X108660Y-401771D01*
X108816Y-401790D01*
X108951Y-401810D01*
X109039Y-401820D01*
X109078D01*
X109107Y-401829D01*
X109126D01*
X109291Y-401849D01*
X109446Y-401868D01*
X109592Y-401897D01*
X109728Y-401917D01*
X109844Y-401936D01*
X109960Y-401955D01*
X110057Y-401975D01*
X110154Y-401984D01*
X110232Y-402004D01*
X110300Y-402023D01*
X110358Y-402033D01*
X110406Y-402043D01*
X110445Y-402052D01*
X110475D01*
X110484Y-402062D01*
X110494D01*
X110717Y-402130D01*
X110930Y-402217D01*
X111115Y-402305D01*
X111279Y-402382D01*
X111415Y-402460D01*
X111522Y-402518D01*
X111561Y-402547D01*
X111590Y-402557D01*
X111600Y-402576D01*
X111609D01*
X111784Y-402712D01*
X111939Y-402857D01*
X112075Y-403003D01*
X112191Y-403139D01*
X112279Y-403265D01*
X112347Y-403371D01*
X112376Y-403401D01*
X112395Y-403430D01*
X112405Y-403449D01*
Y-403459D01*
X112502Y-403672D01*
X112579Y-403886D01*
X112628Y-404089D01*
X112667Y-404274D01*
X112686Y-404438D01*
X112696Y-404506D01*
Y-404565D01*
X112705Y-404613D01*
Y-404652D01*
Y-404671D01*
Y-404681D01*
X112696Y-404894D01*
X112667Y-405088D01*
X112628Y-405282D01*
X112579Y-405457D01*
X112521Y-405622D01*
X112453Y-405777D01*
X112376Y-405923D01*
X112298Y-406049D01*
X112230Y-406165D01*
X112153Y-406272D01*
X112085Y-406359D01*
X112026Y-406427D01*
X111978Y-406485D01*
X111939Y-406524D01*
X111910Y-406553D01*
X111900Y-406563D01*
X111745Y-406689D01*
X111571Y-406805D01*
X111386Y-406902D01*
X111202Y-406980D01*
X111008Y-407058D01*
X110814Y-407116D01*
X110630Y-407164D01*
X110445Y-407203D01*
X110271Y-407232D01*
X110106Y-407252D01*
X109960Y-407271D01*
X109834Y-407281D01*
X109737D01*
X109660Y-407290D01*
X109592D01*
X109252Y-407281D01*
X108942Y-407242D01*
X108651Y-407193D01*
X108525Y-407174D01*
X108399Y-407145D01*
X108292Y-407116D01*
X108195Y-407087D01*
X108108Y-407067D01*
X108030Y-407048D01*
X107972Y-407028D01*
X107933Y-407009D01*
X107904Y-406999D01*
X107894D01*
X107749Y-406941D01*
X107594Y-406863D01*
X107302Y-406708D01*
X107021Y-406534D01*
X106769Y-406369D01*
X106653Y-406282D01*
X106546Y-406214D01*
X106459Y-406146D01*
X106381Y-406078D01*
X106323Y-406029D01*
X106274Y-405991D01*
X106245Y-405971D01*
X106236Y-405961D01*
X106206Y-406194D01*
X106158Y-406408D01*
X106109Y-406602D01*
X106051Y-406767D01*
X106003Y-406902D01*
X105964Y-406999D01*
X105945Y-407038D01*
X105935Y-407067D01*
X105925Y-407077D01*
Y-407087D01*
X104305D01*
X104412Y-406893D01*
X104490Y-406699D01*
X104567Y-406505D01*
X104616Y-406340D01*
X104654Y-406194D01*
X104674Y-406136D01*
X104683Y-406087D01*
X104693Y-406049D01*
Y-406020D01*
X104703Y-406000D01*
Y-405991D01*
X104722Y-405864D01*
X104732Y-405709D01*
X104751Y-405525D01*
X104761Y-405321D01*
X104771Y-405108D01*
X104780Y-404875D01*
X104790Y-404409D01*
Y-404186D01*
Y-403973D01*
X104800Y-403779D01*
Y-403614D01*
Y-403469D01*
Y-403410D01*
Y-403362D01*
Y-403323D01*
Y-403284D01*
Y-403274D01*
Y-403265D01*
Y-401208D01*
Y-401024D01*
Y-400849D01*
X104810Y-400694D01*
Y-400549D01*
X104819Y-400423D01*
Y-400306D01*
X104829Y-400200D01*
X104839Y-400112D01*
X104849Y-400035D01*
Y-399967D01*
X104858Y-399909D01*
X104868Y-399860D01*
Y-399821D01*
X104877Y-399802D01*
Y-399782D01*
X104936Y-399550D01*
X105013Y-399346D01*
X105091Y-399162D01*
X105178Y-399016D01*
X105246Y-398890D01*
X105304Y-398803D01*
X105343Y-398745D01*
X105363Y-398725D01*
X105508Y-398580D01*
X105673Y-398444D01*
X105848Y-398327D01*
X106032Y-398221D01*
X106187Y-398143D01*
X106255Y-398114D01*
X106323Y-398085D01*
X106371Y-398066D01*
X106410Y-398046D01*
X106430Y-398037D01*
X106439D01*
X106585Y-397988D01*
X106730Y-397939D01*
X107041Y-397872D01*
X107361Y-397823D01*
X107661Y-397794D01*
X107797Y-397775D01*
X107923Y-397765D01*
X108040D01*
X108137Y-397755D01*
X108331D01*
X108757Y-397765D01*
D02*
G37*
G36*
X142999D02*
X143202Y-397784D01*
X143396Y-397804D01*
X143580Y-397833D01*
X143746Y-397862D01*
X143910Y-397891D01*
X144056Y-397920D01*
X144182Y-397949D01*
X144298Y-397978D01*
X144405Y-398007D01*
X144492Y-398037D01*
X144560Y-398056D01*
X144609Y-398075D01*
X144638Y-398085D01*
X144648D01*
X144812Y-398143D01*
X144958Y-398221D01*
X145103Y-398289D01*
X145239Y-398366D01*
X145356Y-398444D01*
X145472Y-398521D01*
X145579Y-398589D01*
X145666Y-398667D01*
X145744Y-398735D01*
X145821Y-398803D01*
X145879Y-398861D01*
X145928Y-398909D01*
X145967Y-398948D01*
X145996Y-398977D01*
X146005Y-398997D01*
X146015Y-399007D01*
X146180Y-399239D01*
X146316Y-399501D01*
X146432Y-399763D01*
X146520Y-400006D01*
X146558Y-400122D01*
X146597Y-400229D01*
X146626Y-400326D01*
X146646Y-400403D01*
X146665Y-400471D01*
X146675Y-400529D01*
X146685Y-400559D01*
Y-400568D01*
X145171Y-400772D01*
X145123Y-400597D01*
X145065Y-400432D01*
X145006Y-400287D01*
X144948Y-400151D01*
X144890Y-400025D01*
X144822Y-399918D01*
X144764Y-399821D01*
X144706Y-399734D01*
X144648Y-399656D01*
X144589Y-399598D01*
X144541Y-399540D01*
X144502Y-399501D01*
X144463Y-399462D01*
X144434Y-399443D01*
X144424Y-399424D01*
X144415D01*
X144308Y-399356D01*
X144192Y-399297D01*
X143939Y-399201D01*
X143668Y-399133D01*
X143406Y-399084D01*
X143280Y-399065D01*
X143173Y-399055D01*
X143067Y-399045D01*
X142970D01*
X142902Y-399036D01*
X142795D01*
X142581Y-399045D01*
X142387Y-399055D01*
X142203Y-399084D01*
X142028Y-399123D01*
X141873Y-399162D01*
X141728Y-399201D01*
X141602Y-399249D01*
X141476Y-399297D01*
X141379Y-399356D01*
X141291Y-399404D01*
X141214Y-399443D01*
X141146Y-399482D01*
X141097Y-399521D01*
X141068Y-399550D01*
X141049Y-399559D01*
X141039Y-399569D01*
X140962Y-399647D01*
X140894Y-399734D01*
X140777Y-399938D01*
X140700Y-400151D01*
X140651Y-400374D01*
X140612Y-400578D01*
X140603Y-400665D01*
Y-400743D01*
X140593Y-400811D01*
Y-400859D01*
Y-400888D01*
Y-400898D01*
Y-400937D01*
Y-400995D01*
Y-401131D01*
X140603Y-401189D01*
Y-401247D01*
Y-401286D01*
Y-401296D01*
X140777Y-401354D01*
X140981Y-401412D01*
X141185Y-401461D01*
X141408Y-401509D01*
X141873Y-401596D01*
X142096Y-401645D01*
X142320Y-401674D01*
X142533Y-401713D01*
X142727Y-401742D01*
X142902Y-401771D01*
X143057Y-401790D01*
X143193Y-401810D01*
X143280Y-401820D01*
X143319D01*
X143348Y-401829D01*
X143367D01*
X143532Y-401849D01*
X143687Y-401868D01*
X143833Y-401897D01*
X143969Y-401917D01*
X144085Y-401936D01*
X144201Y-401955D01*
X144298Y-401975D01*
X144395Y-401984D01*
X144473Y-402004D01*
X144541Y-402023D01*
X144599Y-402033D01*
X144648Y-402043D01*
X144686Y-402052D01*
X144715D01*
X144725Y-402062D01*
X144735D01*
X144958Y-402130D01*
X145171Y-402217D01*
X145356Y-402305D01*
X145521Y-402382D01*
X145656Y-402460D01*
X145763Y-402518D01*
X145802Y-402547D01*
X145831Y-402557D01*
X145841Y-402576D01*
X145850D01*
X146025Y-402712D01*
X146180Y-402857D01*
X146316Y-403003D01*
X146432Y-403139D01*
X146520Y-403265D01*
X146588Y-403371D01*
X146617Y-403401D01*
X146636Y-403430D01*
X146646Y-403449D01*
Y-403459D01*
X146743Y-403672D01*
X146820Y-403886D01*
X146869Y-404089D01*
X146908Y-404274D01*
X146927Y-404438D01*
X146937Y-404506D01*
Y-404565D01*
X146947Y-404613D01*
Y-404652D01*
Y-404671D01*
Y-404681D01*
X146937Y-404894D01*
X146908Y-405088D01*
X146869Y-405282D01*
X146820Y-405457D01*
X146762Y-405622D01*
X146694Y-405777D01*
X146617Y-405923D01*
X146539Y-406049D01*
X146471Y-406165D01*
X146394Y-406272D01*
X146326Y-406359D01*
X146267Y-406427D01*
X146219Y-406485D01*
X146180Y-406524D01*
X146151Y-406553D01*
X146141Y-406563D01*
X145986Y-406689D01*
X145812Y-406805D01*
X145627Y-406902D01*
X145443Y-406980D01*
X145249Y-407058D01*
X145055Y-407116D01*
X144871Y-407164D01*
X144686Y-407203D01*
X144512Y-407232D01*
X144347Y-407252D01*
X144201Y-407271D01*
X144075Y-407281D01*
X143978D01*
X143901Y-407290D01*
X143833D01*
X143493Y-407281D01*
X143183Y-407242D01*
X142892Y-407193D01*
X142766Y-407174D01*
X142640Y-407145D01*
X142533Y-407116D01*
X142436Y-407087D01*
X142349Y-407067D01*
X142271Y-407048D01*
X142213Y-407028D01*
X142174Y-407009D01*
X142145Y-406999D01*
X142135D01*
X141990Y-406941D01*
X141834Y-406863D01*
X141544Y-406708D01*
X141262Y-406534D01*
X141010Y-406369D01*
X140894Y-406282D01*
X140787Y-406214D01*
X140700Y-406146D01*
X140622Y-406078D01*
X140564Y-406029D01*
X140515Y-405991D01*
X140486Y-405971D01*
X140477Y-405961D01*
X140447Y-406194D01*
X140399Y-406408D01*
X140350Y-406602D01*
X140292Y-406767D01*
X140244Y-406902D01*
X140205Y-406999D01*
X140185Y-407038D01*
X140176Y-407067D01*
X140166Y-407077D01*
Y-407087D01*
X138546D01*
X138653Y-406893D01*
X138731Y-406699D01*
X138808Y-406505D01*
X138857Y-406340D01*
X138895Y-406194D01*
X138915Y-406136D01*
X138925Y-406087D01*
X138934Y-406049D01*
Y-406020D01*
X138944Y-406000D01*
Y-405991D01*
X138963Y-405864D01*
X138973Y-405709D01*
X138993Y-405525D01*
X139002Y-405321D01*
X139012Y-405108D01*
X139022Y-404875D01*
X139031Y-404409D01*
Y-404186D01*
Y-403973D01*
X139041Y-403779D01*
Y-403614D01*
Y-403469D01*
Y-403410D01*
Y-403362D01*
Y-403323D01*
Y-403284D01*
Y-403274D01*
Y-403265D01*
Y-401208D01*
Y-401024D01*
Y-400849D01*
X139051Y-400694D01*
Y-400549D01*
X139060Y-400423D01*
Y-400306D01*
X139070Y-400200D01*
X139080Y-400112D01*
X139090Y-400035D01*
Y-399967D01*
X139099Y-399909D01*
X139109Y-399860D01*
Y-399821D01*
X139119Y-399802D01*
Y-399782D01*
X139177Y-399550D01*
X139254Y-399346D01*
X139332Y-399162D01*
X139419Y-399016D01*
X139487Y-398890D01*
X139545Y-398803D01*
X139584Y-398745D01*
X139603Y-398725D01*
X139749Y-398580D01*
X139914Y-398444D01*
X140089Y-398327D01*
X140273Y-398221D01*
X140428Y-398143D01*
X140496Y-398114D01*
X140564Y-398085D01*
X140612Y-398066D01*
X140651Y-398046D01*
X140671Y-398037D01*
X140680D01*
X140826Y-397988D01*
X140971Y-397939D01*
X141282Y-397872D01*
X141602Y-397823D01*
X141902Y-397794D01*
X142038Y-397775D01*
X142164Y-397765D01*
X142281D01*
X142378Y-397755D01*
X142572D01*
X142999Y-397765D01*
D02*
G37*
G36*
X-31631Y-407087D02*
X-33182D01*
Y-402101D01*
Y-401907D01*
X-33192Y-401722D01*
X-33202Y-401548D01*
X-33221Y-401383D01*
X-33241Y-401228D01*
X-33260Y-401092D01*
X-33289Y-400966D01*
X-33309Y-400849D01*
X-33328Y-400752D01*
X-33357Y-400665D01*
X-33377Y-400588D01*
X-33396Y-400529D01*
X-33415Y-400481D01*
X-33425Y-400442D01*
X-33435Y-400423D01*
Y-400413D01*
X-33541Y-400200D01*
X-33677Y-400006D01*
X-33813Y-399841D01*
X-33959Y-399695D01*
X-34085Y-399588D01*
X-34191Y-399511D01*
X-34230Y-399482D01*
X-34259Y-399462D01*
X-34279Y-399443D01*
X-34288D01*
X-34521Y-399327D01*
X-34754Y-399239D01*
X-34967Y-399171D01*
X-35171Y-399133D01*
X-35336Y-399103D01*
X-35414Y-399094D01*
X-35472D01*
X-35520Y-399084D01*
X-35588D01*
X-35753Y-399094D01*
X-35908Y-399103D01*
X-36054Y-399133D01*
X-36199Y-399171D01*
X-36325Y-399210D01*
X-36442Y-399249D01*
X-36539Y-399297D01*
X-36636Y-399346D01*
X-36723Y-399404D01*
X-36801Y-399453D01*
X-36859Y-399492D01*
X-36907Y-399530D01*
X-36956Y-399569D01*
X-36985Y-399598D01*
X-36995Y-399608D01*
X-37004Y-399618D01*
X-37092Y-399724D01*
X-37169Y-399841D01*
X-37237Y-399967D01*
X-37295Y-400103D01*
X-37383Y-400384D01*
X-37451Y-400656D01*
X-37470Y-400791D01*
X-37480Y-400908D01*
X-37489Y-401014D01*
X-37499Y-401111D01*
X-37509Y-401199D01*
Y-401257D01*
Y-401296D01*
Y-401305D01*
Y-407087D01*
X-39061D01*
Y-401305D01*
Y-401063D01*
X-39051Y-400830D01*
X-39032Y-400617D01*
X-39012Y-400423D01*
X-38983Y-400238D01*
X-38954Y-400073D01*
X-38925Y-399918D01*
X-38896Y-399782D01*
X-38867Y-399666D01*
X-38838Y-399559D01*
X-38809Y-399472D01*
X-38780Y-399394D01*
X-38760Y-399346D01*
X-38741Y-399297D01*
X-38731Y-399278D01*
Y-399268D01*
X-38663Y-399142D01*
X-38595Y-399016D01*
X-38430Y-398793D01*
X-38256Y-398609D01*
X-38081Y-398454D01*
X-37916Y-398327D01*
X-37848Y-398279D01*
X-37790Y-398240D01*
X-37732Y-398201D01*
X-37693Y-398182D01*
X-37674Y-398163D01*
X-37664D01*
X-37373Y-398027D01*
X-37072Y-397930D01*
X-36781Y-397852D01*
X-36510Y-397804D01*
X-36384Y-397784D01*
X-36267Y-397775D01*
X-36170Y-397765D01*
X-36073D01*
X-36005Y-397755D01*
X-35908D01*
X-35607Y-397765D01*
X-35317Y-397813D01*
X-35045Y-397872D01*
X-34783Y-397949D01*
X-34550Y-398046D01*
X-34317Y-398153D01*
X-34114Y-398269D01*
X-33929Y-398386D01*
X-33755Y-398502D01*
X-33609Y-398619D01*
X-33483Y-398725D01*
X-33377Y-398822D01*
X-33289Y-398900D01*
X-33231Y-398958D01*
X-33192Y-399007D01*
X-33182Y-399016D01*
Y-394486D01*
X-31631D01*
Y-407087D01*
D02*
G37*
G36*
X-2288Y-396261D02*
X-3840D01*
Y-394486D01*
X-2288D01*
Y-396261D01*
D02*
G37*
G36*
X163039D02*
X161487D01*
Y-394486D01*
X163039D01*
Y-396261D01*
D02*
G37*
G36*
X87718Y-407087D02*
X86166D01*
Y-402101D01*
Y-401907D01*
X86157Y-401722D01*
X86147Y-401548D01*
X86127Y-401383D01*
X86108Y-401228D01*
X86089Y-401092D01*
X86060Y-400966D01*
X86040Y-400849D01*
X86021Y-400752D01*
X85992Y-400665D01*
X85972Y-400588D01*
X85953Y-400529D01*
X85934Y-400481D01*
X85924Y-400442D01*
X85914Y-400423D01*
Y-400413D01*
X85807Y-400200D01*
X85672Y-400006D01*
X85536Y-399841D01*
X85390Y-399695D01*
X85264Y-399588D01*
X85157Y-399511D01*
X85119Y-399482D01*
X85089Y-399462D01*
X85070Y-399443D01*
X85061D01*
X84828Y-399327D01*
X84595Y-399239D01*
X84381Y-399171D01*
X84178Y-399133D01*
X84013Y-399103D01*
X83935Y-399094D01*
X83877D01*
X83829Y-399084D01*
X83761D01*
X83596Y-399094D01*
X83441Y-399103D01*
X83295Y-399133D01*
X83149Y-399171D01*
X83024Y-399210D01*
X82907Y-399249D01*
X82810Y-399297D01*
X82713Y-399346D01*
X82626Y-399404D01*
X82548Y-399453D01*
X82490Y-399492D01*
X82441Y-399530D01*
X82393Y-399569D01*
X82364Y-399598D01*
X82354Y-399608D01*
X82344Y-399618D01*
X82257Y-399724D01*
X82179Y-399841D01*
X82112Y-399967D01*
X82053Y-400103D01*
X81966Y-400384D01*
X81898Y-400656D01*
X81879Y-400791D01*
X81869Y-400908D01*
X81859Y-401014D01*
X81850Y-401111D01*
X81840Y-401199D01*
Y-401257D01*
Y-401296D01*
Y-401305D01*
Y-407087D01*
X80288D01*
Y-401305D01*
Y-401063D01*
X80298Y-400830D01*
X80317Y-400617D01*
X80336Y-400423D01*
X80366Y-400238D01*
X80395Y-400073D01*
X80424Y-399918D01*
X80453Y-399782D01*
X80482Y-399666D01*
X80511Y-399559D01*
X80540Y-399472D01*
X80569Y-399394D01*
X80589Y-399346D01*
X80608Y-399297D01*
X80618Y-399278D01*
Y-399268D01*
X80686Y-399142D01*
X80754Y-399016D01*
X80919Y-398793D01*
X81093Y-398609D01*
X81268Y-398454D01*
X81433Y-398327D01*
X81501Y-398279D01*
X81559Y-398240D01*
X81617Y-398201D01*
X81656Y-398182D01*
X81675Y-398163D01*
X81685D01*
X81976Y-398027D01*
X82276Y-397930D01*
X82568Y-397852D01*
X82839Y-397804D01*
X82965Y-397784D01*
X83082Y-397775D01*
X83179Y-397765D01*
X83276D01*
X83344Y-397755D01*
X83441D01*
X83741Y-397765D01*
X84032Y-397813D01*
X84304Y-397872D01*
X84566Y-397949D01*
X84799Y-398046D01*
X85031Y-398153D01*
X85235Y-398269D01*
X85419Y-398386D01*
X85594Y-398502D01*
X85739Y-398619D01*
X85865Y-398725D01*
X85972Y-398822D01*
X86060Y-398900D01*
X86118Y-398958D01*
X86157Y-399007D01*
X86166Y-399016D01*
Y-394486D01*
X87718D01*
Y-407087D01*
D02*
G37*
G36*
X-144616Y-394447D02*
X-144306Y-394477D01*
X-144015Y-394525D01*
X-143743Y-394583D01*
X-143491Y-394651D01*
X-143248Y-394739D01*
X-143035Y-394816D01*
X-142841Y-394903D01*
X-142666Y-395000D01*
X-142521Y-395078D01*
X-142385Y-395156D01*
X-142278Y-395233D01*
X-142191Y-395291D01*
X-142133Y-395340D01*
X-142094Y-395369D01*
X-142084Y-395379D01*
X-141891Y-395563D01*
X-141726Y-395767D01*
X-141580Y-395970D01*
X-141444Y-396194D01*
X-141328Y-396417D01*
X-141231Y-396640D01*
X-141144Y-396863D01*
X-141076Y-397076D01*
X-141017Y-397280D01*
X-140969Y-397474D01*
X-140930Y-397649D01*
X-140901Y-397794D01*
X-140882Y-397910D01*
X-140872Y-398007D01*
X-140862Y-398066D01*
Y-398075D01*
Y-398085D01*
X-142453Y-398250D01*
X-142463Y-398037D01*
X-142482Y-397833D01*
X-142511Y-397639D01*
X-142560Y-397464D01*
X-142608Y-397299D01*
X-142666Y-397144D01*
X-142725Y-397008D01*
X-142793Y-396882D01*
X-142851Y-396766D01*
X-142909Y-396669D01*
X-142967Y-396591D01*
X-143016Y-396523D01*
X-143064Y-396465D01*
X-143093Y-396426D01*
X-143113Y-396407D01*
X-143122Y-396397D01*
X-143248Y-396281D01*
X-143394Y-396174D01*
X-143540Y-396087D01*
X-143685Y-396000D01*
X-143830Y-395941D01*
X-143986Y-395883D01*
X-144131Y-395835D01*
X-144267Y-395806D01*
X-144393Y-395776D01*
X-144519Y-395757D01*
X-144626Y-395738D01*
X-144723Y-395728D01*
X-144800Y-395718D01*
X-144907D01*
X-145101Y-395728D01*
X-145285Y-395747D01*
X-145460Y-395776D01*
X-145625Y-395815D01*
X-145771Y-395864D01*
X-145916Y-395922D01*
X-146042Y-395980D01*
X-146158Y-396038D01*
X-146265Y-396096D01*
X-146362Y-396155D01*
X-146440Y-396213D01*
X-146508Y-396261D01*
X-146556Y-396300D01*
X-146595Y-396329D01*
X-146614Y-396349D01*
X-146624Y-396358D01*
X-146740Y-396475D01*
X-146837Y-396601D01*
X-146934Y-396737D01*
X-147002Y-396863D01*
X-147070Y-396999D01*
X-147119Y-397125D01*
X-147206Y-397367D01*
X-147225Y-397474D01*
X-147245Y-397581D01*
X-147264Y-397668D01*
X-147274Y-397745D01*
X-147284Y-397813D01*
Y-397862D01*
Y-397891D01*
Y-397901D01*
X-147274Y-398066D01*
X-147255Y-398231D01*
X-147216Y-398405D01*
X-147167Y-398570D01*
X-147051Y-398880D01*
X-146993Y-399026D01*
X-146925Y-399171D01*
X-146857Y-399297D01*
X-146789Y-399414D01*
X-146721Y-399521D01*
X-146673Y-399608D01*
X-146624Y-399676D01*
X-146585Y-399724D01*
X-146566Y-399763D01*
X-146556Y-399773D01*
X-146411Y-399967D01*
X-146236Y-400171D01*
X-146032Y-400384D01*
X-145819Y-400607D01*
X-145596Y-400830D01*
X-145363Y-401044D01*
X-145130Y-401267D01*
X-144907Y-401470D01*
X-144684Y-401674D01*
X-144480Y-401858D01*
X-144286Y-402023D01*
X-144122Y-402159D01*
X-143986Y-402275D01*
X-143879Y-402363D01*
X-143840Y-402401D01*
X-143811Y-402421D01*
X-143801Y-402431D01*
X-143792Y-402440D01*
X-143549Y-402634D01*
X-143326Y-402828D01*
X-143113Y-403013D01*
X-142919Y-403187D01*
X-142734Y-403362D01*
X-142569Y-403517D01*
X-142414Y-403662D01*
X-142278Y-403798D01*
X-142162Y-403915D01*
X-142055Y-404021D01*
X-141968Y-404118D01*
X-141891Y-404196D01*
X-141842Y-404254D01*
X-141794Y-404303D01*
X-141774Y-404332D01*
X-141764Y-404342D01*
X-141522Y-404652D01*
X-141308Y-404953D01*
X-141134Y-405234D01*
X-140998Y-405486D01*
X-140930Y-405603D01*
X-140882Y-405709D01*
X-140843Y-405796D01*
X-140804Y-405874D01*
X-140785Y-405932D01*
X-140765Y-405981D01*
X-140746Y-406010D01*
Y-406020D01*
X-140688Y-406214D01*
X-140639Y-406408D01*
X-140610Y-406582D01*
X-140591Y-406747D01*
X-140571Y-406883D01*
Y-406990D01*
Y-407028D01*
Y-407058D01*
Y-407077D01*
Y-407087D01*
X-148894D01*
Y-405603D01*
X-142715D01*
X-142822Y-405447D01*
X-142928Y-405292D01*
X-143035Y-405156D01*
X-143142Y-405030D01*
X-143229Y-404923D01*
X-143297Y-404836D01*
X-143345Y-404788D01*
X-143365Y-404768D01*
X-143452Y-404681D01*
X-143559Y-404584D01*
X-143675Y-404468D01*
X-143811Y-404342D01*
X-144112Y-404080D01*
X-144412Y-403818D01*
X-144558Y-403692D01*
X-144694Y-403575D01*
X-144820Y-403469D01*
X-144936Y-403371D01*
X-145024Y-403294D01*
X-145101Y-403236D01*
X-145140Y-403197D01*
X-145159Y-403187D01*
X-145460Y-402925D01*
X-145741Y-402683D01*
X-145994Y-402460D01*
X-146226Y-402246D01*
X-146449Y-402043D01*
X-146643Y-401858D01*
X-146818Y-401693D01*
X-146973Y-401548D01*
X-147109Y-401412D01*
X-147225Y-401296D01*
X-147322Y-401199D01*
X-147400Y-401111D01*
X-147458Y-401053D01*
X-147507Y-401005D01*
X-147526Y-400976D01*
X-147536Y-400966D01*
X-147788Y-400665D01*
X-148001Y-400384D01*
X-148176Y-400132D01*
X-148322Y-399899D01*
X-148380Y-399792D01*
X-148428Y-399705D01*
X-148467Y-399627D01*
X-148506Y-399559D01*
X-148535Y-399501D01*
X-148554Y-399462D01*
X-148564Y-399443D01*
Y-399433D01*
X-148671Y-399162D01*
X-148748Y-398890D01*
X-148797Y-398638D01*
X-148836Y-398405D01*
X-148845Y-398308D01*
X-148855Y-398221D01*
X-148865Y-398133D01*
X-148874Y-398066D01*
Y-398017D01*
Y-397969D01*
Y-397949D01*
Y-397939D01*
X-148865Y-397668D01*
X-148826Y-397406D01*
X-148777Y-397154D01*
X-148709Y-396921D01*
X-148632Y-396708D01*
X-148545Y-396494D01*
X-148448Y-396310D01*
X-148351Y-396135D01*
X-148244Y-395980D01*
X-148157Y-395844D01*
X-148060Y-395728D01*
X-147982Y-395631D01*
X-147914Y-395553D01*
X-147866Y-395495D01*
X-147827Y-395456D01*
X-147817Y-395447D01*
X-147613Y-395272D01*
X-147390Y-395117D01*
X-147158Y-394981D01*
X-146925Y-394865D01*
X-146682Y-394768D01*
X-146440Y-394680D01*
X-146207Y-394612D01*
X-145984Y-394564D01*
X-145771Y-394525D01*
X-145576Y-394486D01*
X-145402Y-394467D01*
X-145247Y-394457D01*
X-145121Y-394447D01*
X-145024Y-394438D01*
X-144946D01*
X-144616Y-394447D01*
D02*
G37*
G36*
X32467Y-397765D02*
X32671Y-397784D01*
X32865Y-397804D01*
X33049Y-397833D01*
X33214Y-397862D01*
X33379Y-397891D01*
X33524Y-397920D01*
X33650Y-397949D01*
X33767Y-397978D01*
X33874Y-398007D01*
X33961Y-398037D01*
X34029Y-398056D01*
X34077Y-398075D01*
X34106Y-398085D01*
X34116D01*
X34281Y-398143D01*
X34426Y-398221D01*
X34572Y-398289D01*
X34708Y-398366D01*
X34824Y-398444D01*
X34941Y-398521D01*
X35047Y-398589D01*
X35135Y-398667D01*
X35212Y-398735D01*
X35290Y-398803D01*
X35348Y-398861D01*
X35396Y-398909D01*
X35435Y-398948D01*
X35464Y-398977D01*
X35474Y-398997D01*
X35484Y-399007D01*
X35649Y-399239D01*
X35784Y-399501D01*
X35901Y-399763D01*
X35988Y-400006D01*
X36027Y-400122D01*
X36066Y-400229D01*
X36095Y-400326D01*
X36114Y-400403D01*
X36134Y-400471D01*
X36143Y-400529D01*
X36153Y-400559D01*
Y-400568D01*
X34640Y-400772D01*
X34591Y-400597D01*
X34533Y-400432D01*
X34475Y-400287D01*
X34417Y-400151D01*
X34359Y-400025D01*
X34291Y-399918D01*
X34233Y-399821D01*
X34174Y-399734D01*
X34116Y-399656D01*
X34058Y-399598D01*
X34009Y-399540D01*
X33970Y-399501D01*
X33932Y-399462D01*
X33903Y-399443D01*
X33893Y-399424D01*
X33883D01*
X33777Y-399356D01*
X33660Y-399297D01*
X33408Y-399201D01*
X33136Y-399133D01*
X32875Y-399084D01*
X32748Y-399065D01*
X32642Y-399055D01*
X32535Y-399045D01*
X32438D01*
X32370Y-399036D01*
X32263D01*
X32050Y-399045D01*
X31856Y-399055D01*
X31672Y-399084D01*
X31497Y-399123D01*
X31342Y-399162D01*
X31196Y-399201D01*
X31070Y-399249D01*
X30944Y-399297D01*
X30847Y-399356D01*
X30760Y-399404D01*
X30682Y-399443D01*
X30614Y-399482D01*
X30566Y-399521D01*
X30537Y-399550D01*
X30517Y-399559D01*
X30508Y-399569D01*
X30430Y-399647D01*
X30362Y-399734D01*
X30246Y-399938D01*
X30168Y-400151D01*
X30120Y-400374D01*
X30081Y-400578D01*
X30071Y-400665D01*
Y-400743D01*
X30062Y-400811D01*
Y-400859D01*
Y-400888D01*
Y-400898D01*
Y-400937D01*
Y-400995D01*
Y-401131D01*
X30071Y-401189D01*
Y-401247D01*
Y-401286D01*
Y-401296D01*
X30246Y-401354D01*
X30450Y-401412D01*
X30653Y-401461D01*
X30876Y-401509D01*
X31342Y-401596D01*
X31565Y-401645D01*
X31788Y-401674D01*
X32001Y-401713D01*
X32195Y-401742D01*
X32370Y-401771D01*
X32525Y-401790D01*
X32661Y-401810D01*
X32748Y-401820D01*
X32787D01*
X32816Y-401829D01*
X32836D01*
X33000Y-401849D01*
X33156Y-401868D01*
X33301Y-401897D01*
X33437Y-401917D01*
X33553Y-401936D01*
X33670Y-401955D01*
X33767Y-401975D01*
X33864Y-401984D01*
X33941Y-402004D01*
X34009Y-402023D01*
X34067Y-402033D01*
X34116Y-402043D01*
X34155Y-402052D01*
X34184D01*
X34194Y-402062D01*
X34203D01*
X34426Y-402130D01*
X34640Y-402217D01*
X34824Y-402305D01*
X34989Y-402382D01*
X35125Y-402460D01*
X35232Y-402518D01*
X35270Y-402547D01*
X35300Y-402557D01*
X35309Y-402576D01*
X35319D01*
X35493Y-402712D01*
X35649Y-402857D01*
X35784Y-403003D01*
X35901Y-403139D01*
X35988Y-403265D01*
X36056Y-403371D01*
X36085Y-403401D01*
X36105Y-403430D01*
X36114Y-403449D01*
Y-403459D01*
X36211Y-403672D01*
X36289Y-403886D01*
X36337Y-404089D01*
X36376Y-404274D01*
X36395Y-404438D01*
X36405Y-404506D01*
Y-404565D01*
X36415Y-404613D01*
Y-404652D01*
Y-404671D01*
Y-404681D01*
X36405Y-404894D01*
X36376Y-405088D01*
X36337Y-405282D01*
X36289Y-405457D01*
X36231Y-405622D01*
X36163Y-405777D01*
X36085Y-405923D01*
X36007Y-406049D01*
X35940Y-406165D01*
X35862Y-406272D01*
X35794Y-406359D01*
X35736Y-406427D01*
X35688Y-406485D01*
X35649Y-406524D01*
X35620Y-406553D01*
X35610Y-406563D01*
X35455Y-406689D01*
X35280Y-406805D01*
X35096Y-406902D01*
X34912Y-406980D01*
X34718Y-407058D01*
X34523Y-407116D01*
X34339Y-407164D01*
X34155Y-407203D01*
X33980Y-407232D01*
X33815Y-407252D01*
X33670Y-407271D01*
X33544Y-407281D01*
X33447D01*
X33369Y-407290D01*
X33301D01*
X32962Y-407281D01*
X32651Y-407242D01*
X32360Y-407193D01*
X32234Y-407174D01*
X32108Y-407145D01*
X32001Y-407116D01*
X31905Y-407087D01*
X31817Y-407067D01*
X31740Y-407048D01*
X31681Y-407028D01*
X31642Y-407009D01*
X31613Y-406999D01*
X31604D01*
X31458Y-406941D01*
X31303Y-406863D01*
X31012Y-406708D01*
X30731Y-406534D01*
X30479Y-406369D01*
X30362Y-406282D01*
X30255Y-406214D01*
X30168Y-406146D01*
X30091Y-406078D01*
X30032Y-406029D01*
X29984Y-405991D01*
X29955Y-405971D01*
X29945Y-405961D01*
X29916Y-406194D01*
X29868Y-406408D01*
X29819Y-406602D01*
X29761Y-406767D01*
X29712Y-406902D01*
X29673Y-406999D01*
X29654Y-407038D01*
X29644Y-407067D01*
X29635Y-407077D01*
Y-407087D01*
X28015D01*
X28121Y-406893D01*
X28199Y-406699D01*
X28277Y-406505D01*
X28325Y-406340D01*
X28364Y-406194D01*
X28383Y-406136D01*
X28393Y-406087D01*
X28403Y-406049D01*
Y-406020D01*
X28413Y-406000D01*
Y-405991D01*
X28432Y-405864D01*
X28442Y-405709D01*
X28461Y-405525D01*
X28471Y-405321D01*
X28480Y-405108D01*
X28490Y-404875D01*
X28500Y-404409D01*
Y-404186D01*
Y-403973D01*
X28509Y-403779D01*
Y-403614D01*
Y-403469D01*
Y-403410D01*
Y-403362D01*
Y-403323D01*
Y-403284D01*
Y-403274D01*
Y-403265D01*
Y-401208D01*
Y-401024D01*
Y-400849D01*
X28519Y-400694D01*
Y-400549D01*
X28529Y-400423D01*
Y-400306D01*
X28539Y-400200D01*
X28548Y-400112D01*
X28558Y-400035D01*
Y-399967D01*
X28568Y-399909D01*
X28577Y-399860D01*
Y-399821D01*
X28587Y-399802D01*
Y-399782D01*
X28645Y-399550D01*
X28723Y-399346D01*
X28800Y-399162D01*
X28888Y-399016D01*
X28956Y-398890D01*
X29014Y-398803D01*
X29053Y-398745D01*
X29072Y-398725D01*
X29217Y-398580D01*
X29383Y-398444D01*
X29557Y-398327D01*
X29741Y-398221D01*
X29897Y-398143D01*
X29964Y-398114D01*
X30032Y-398085D01*
X30081Y-398066D01*
X30120Y-398046D01*
X30139Y-398037D01*
X30149D01*
X30294Y-397988D01*
X30440Y-397939D01*
X30750Y-397872D01*
X31070Y-397823D01*
X31371Y-397794D01*
X31507Y-397775D01*
X31633Y-397765D01*
X31749D01*
X31846Y-397755D01*
X32040D01*
X32467Y-397765D01*
D02*
G37*
G36*
X-120318Y-407096D02*
X-120289Y-407184D01*
X-120250Y-407261D01*
X-120230Y-407329D01*
X-120211Y-407378D01*
X-120192Y-407416D01*
X-120182Y-407455D01*
X-120172Y-407465D01*
Y-407475D01*
X-120114Y-407640D01*
X-120056Y-407785D01*
X-120007Y-407921D01*
X-119959Y-408047D01*
X-119920Y-408154D01*
X-119881Y-408241D01*
X-119842Y-408328D01*
X-119813Y-408396D01*
X-119784Y-408454D01*
X-119765Y-408503D01*
X-119726Y-408580D01*
X-119706Y-408619D01*
X-119697Y-408629D01*
X-119619Y-408736D01*
X-119532Y-408833D01*
X-119454Y-408920D01*
X-119377Y-408988D01*
X-119299Y-409046D01*
X-119241Y-409085D01*
X-119202Y-409104D01*
X-119193Y-409114D01*
X-119066Y-409172D01*
X-118930Y-409211D01*
X-118795Y-409250D01*
X-118669Y-409269D01*
X-118543Y-409279D01*
X-118455Y-409289D01*
X-118368D01*
X-118222Y-409279D01*
X-118067Y-409269D01*
X-117922Y-409240D01*
X-117786Y-409211D01*
X-117670Y-409192D01*
X-117573Y-409162D01*
X-117534Y-409153D01*
X-117505D01*
X-117495Y-409143D01*
X-117485D01*
X-117660Y-410598D01*
X-117864Y-410666D01*
X-118048Y-410714D01*
X-118213Y-410744D01*
X-118368Y-410763D01*
X-118484Y-410782D01*
X-118581Y-410792D01*
X-118659D01*
X-118921Y-410773D01*
X-119173Y-410734D01*
X-119386Y-410676D01*
X-119571Y-410608D01*
X-119726Y-410549D01*
X-119784Y-410520D01*
X-119833Y-410491D01*
X-119871Y-410462D01*
X-119910Y-410453D01*
X-119920Y-410433D01*
X-119930D01*
X-120124Y-410278D01*
X-120308Y-410103D01*
X-120463Y-409919D01*
X-120609Y-409735D01*
X-120725Y-409570D01*
X-120764Y-409492D01*
X-120803Y-409434D01*
X-120842Y-409385D01*
X-120861Y-409337D01*
X-120880Y-409318D01*
Y-409308D01*
X-120938Y-409192D01*
X-121006Y-409056D01*
X-121074Y-408910D01*
X-121142Y-408745D01*
X-121288Y-408406D01*
X-121433Y-408066D01*
X-121491Y-407901D01*
X-121549Y-407746D01*
X-121608Y-407610D01*
X-121656Y-407484D01*
X-121695Y-407387D01*
X-121724Y-407310D01*
X-121734Y-407261D01*
X-121744Y-407242D01*
X-125206Y-397959D01*
X-123664D01*
X-121714Y-403284D01*
X-121579Y-403662D01*
X-121462Y-404041D01*
X-121346Y-404390D01*
X-121297Y-404555D01*
X-121249Y-404700D01*
X-121210Y-404846D01*
X-121171Y-404972D01*
X-121142Y-405079D01*
X-121113Y-405176D01*
X-121094Y-405253D01*
X-121074Y-405311D01*
X-121065Y-405350D01*
Y-405360D01*
X-120948Y-404953D01*
X-120842Y-404555D01*
X-120783Y-404371D01*
X-120725Y-404196D01*
X-120677Y-404041D01*
X-120628Y-403886D01*
X-120580Y-403740D01*
X-120541Y-403624D01*
X-120502Y-403507D01*
X-120463Y-403420D01*
X-120444Y-403342D01*
X-120424Y-403294D01*
X-120405Y-403255D01*
Y-403245D01*
X-118504Y-397959D01*
X-116845D01*
X-120318Y-407096D01*
D02*
G37*
G36*
X175591Y-407087D02*
X173990D01*
Y-397202D01*
X167375Y-407087D01*
X165658D01*
Y-394486D01*
X167258D01*
Y-404380D01*
X173883Y-394486D01*
X175591D01*
Y-407087D01*
D02*
G37*
G36*
X46358Y-395699D02*
Y-397959D01*
X47502D01*
Y-399162D01*
X46358D01*
Y-404419D01*
Y-404671D01*
X46348Y-404894D01*
X46338Y-405098D01*
X46328Y-405292D01*
X46319Y-405457D01*
X46299Y-405603D01*
X46280Y-405738D01*
X46260Y-405855D01*
X46251Y-405952D01*
X46231Y-406029D01*
X46212Y-406097D01*
X46202Y-406155D01*
X46192Y-406194D01*
X46183Y-406223D01*
X46173Y-406233D01*
Y-406243D01*
X46095Y-406398D01*
X45989Y-406534D01*
X45882Y-406660D01*
X45775Y-406757D01*
X45678Y-406834D01*
X45601Y-406893D01*
X45543Y-406931D01*
X45533Y-406941D01*
X45523D01*
X45329Y-407028D01*
X45125Y-407096D01*
X44902Y-407135D01*
X44689Y-407174D01*
X44505Y-407193D01*
X44427D01*
X44350Y-407203D01*
X44214D01*
X44020Y-407193D01*
X43816Y-407184D01*
X43612Y-407164D01*
X43438Y-407135D01*
X43273Y-407106D01*
X43205Y-407096D01*
X43147Y-407087D01*
X43108Y-407077D01*
X43069D01*
X43050Y-407067D01*
X43040D01*
X43263Y-405699D01*
X43418Y-405719D01*
X43545Y-405729D01*
X43661Y-405748D01*
X43758D01*
X43835Y-405758D01*
X43942D01*
X44059Y-405748D01*
X44165Y-405738D01*
X44253Y-405719D01*
X44330Y-405699D01*
X44388Y-405680D01*
X44427Y-405670D01*
X44456Y-405651D01*
X44466D01*
X44534Y-405603D01*
X44582Y-405554D01*
X44670Y-405457D01*
X44689Y-405418D01*
X44708Y-405379D01*
X44728Y-405360D01*
Y-405350D01*
X44737Y-405311D01*
X44757Y-405263D01*
X44776Y-405137D01*
X44786Y-405001D01*
X44796Y-404856D01*
X44805Y-404720D01*
Y-404603D01*
Y-404555D01*
Y-404526D01*
Y-404506D01*
Y-404497D01*
Y-399162D01*
X43263D01*
Y-397959D01*
X44805D01*
Y-394777D01*
X46358Y-395699D01*
D02*
G37*
G36*
X92326D02*
Y-397959D01*
X93470D01*
Y-399162D01*
X92326D01*
Y-404419D01*
Y-404671D01*
X92316Y-404894D01*
X92306Y-405098D01*
X92297Y-405292D01*
X92287Y-405457D01*
X92268Y-405603D01*
X92248Y-405738D01*
X92229Y-405855D01*
X92219Y-405952D01*
X92200Y-406029D01*
X92180Y-406097D01*
X92171Y-406155D01*
X92161Y-406194D01*
X92151Y-406223D01*
X92141Y-406233D01*
Y-406243D01*
X92064Y-406398D01*
X91957Y-406534D01*
X91851Y-406660D01*
X91744Y-406757D01*
X91647Y-406834D01*
X91569Y-406893D01*
X91511Y-406931D01*
X91501Y-406941D01*
X91492D01*
X91298Y-407028D01*
X91094Y-407096D01*
X90871Y-407135D01*
X90657Y-407174D01*
X90473Y-407193D01*
X90395D01*
X90318Y-407203D01*
X90182D01*
X89988Y-407193D01*
X89784Y-407184D01*
X89581Y-407164D01*
X89406Y-407135D01*
X89241Y-407106D01*
X89173Y-407096D01*
X89115Y-407087D01*
X89076Y-407077D01*
X89038D01*
X89018Y-407067D01*
X89008D01*
X89231Y-405699D01*
X89387Y-405719D01*
X89513Y-405729D01*
X89629Y-405748D01*
X89726D01*
X89804Y-405758D01*
X89911D01*
X90027Y-405748D01*
X90134Y-405738D01*
X90221Y-405719D01*
X90298Y-405699D01*
X90357Y-405680D01*
X90395Y-405670D01*
X90425Y-405651D01*
X90434D01*
X90502Y-405603D01*
X90551Y-405554D01*
X90638Y-405457D01*
X90657Y-405418D01*
X90677Y-405379D01*
X90696Y-405360D01*
Y-405350D01*
X90706Y-405311D01*
X90725Y-405263D01*
X90745Y-405137D01*
X90754Y-405001D01*
X90764Y-404856D01*
X90774Y-404720D01*
Y-404603D01*
Y-404555D01*
Y-404526D01*
Y-404506D01*
Y-404497D01*
Y-399162D01*
X89231D01*
Y-397959D01*
X90774D01*
Y-394777D01*
X92326Y-395699D01*
D02*
G37*
G36*
X-53950Y-397765D02*
X-53698Y-397784D01*
X-53475Y-397813D01*
X-53271Y-397852D01*
X-53184Y-397872D01*
X-53106Y-397891D01*
X-53029Y-397901D01*
X-52971Y-397920D01*
X-52932Y-397930D01*
X-52893Y-397939D01*
X-52874Y-397949D01*
X-52864D01*
X-52641Y-398017D01*
X-52447Y-398095D01*
X-52282Y-398172D01*
X-52146Y-398240D01*
X-52030Y-398298D01*
X-51952Y-398347D01*
X-51903Y-398386D01*
X-51884Y-398395D01*
X-51710Y-398531D01*
X-51564Y-398677D01*
X-51428Y-398822D01*
X-51322Y-398958D01*
X-51234Y-399074D01*
X-51166Y-399171D01*
X-51147Y-399210D01*
X-51128Y-399239D01*
X-51118Y-399249D01*
Y-399259D01*
X-51030Y-399453D01*
X-50963Y-399656D01*
X-50914Y-399841D01*
X-50885Y-400015D01*
X-50866Y-400171D01*
X-50856Y-400229D01*
X-50846Y-400277D01*
Y-400326D01*
Y-400355D01*
Y-400374D01*
Y-400384D01*
X-50866Y-400636D01*
X-50905Y-400859D01*
X-50953Y-401073D01*
X-51021Y-401257D01*
X-51079Y-401402D01*
X-51108Y-401470D01*
X-51137Y-401519D01*
X-51157Y-401558D01*
X-51176Y-401587D01*
X-51186Y-401606D01*
Y-401616D01*
X-51322Y-401810D01*
X-51486Y-401984D01*
X-51651Y-402130D01*
X-51807Y-402256D01*
X-51952Y-402353D01*
X-52068Y-402421D01*
X-52117Y-402450D01*
X-52146Y-402460D01*
X-52165Y-402479D01*
X-52175D01*
X-52311Y-402537D01*
X-52466Y-402596D01*
X-52641Y-402663D01*
X-52825Y-402722D01*
X-53213Y-402848D01*
X-53611Y-402964D01*
X-53795Y-403022D01*
X-53970Y-403071D01*
X-54125Y-403119D01*
X-54261Y-403148D01*
X-54377Y-403187D01*
X-54464Y-403207D01*
X-54523Y-403216D01*
X-54542Y-403226D01*
X-54765Y-403284D01*
X-54978Y-403333D01*
X-55163Y-403391D01*
X-55328Y-403439D01*
X-55473Y-403488D01*
X-55599Y-403527D01*
X-55716Y-403566D01*
X-55813Y-403604D01*
X-55900Y-403633D01*
X-55968Y-403662D01*
X-56016Y-403692D01*
X-56065Y-403711D01*
X-56094Y-403730D01*
X-56113Y-403740D01*
X-56133Y-403750D01*
X-56210Y-403808D01*
X-56288Y-403876D01*
X-56395Y-404002D01*
X-56482Y-404138D01*
X-56530Y-404274D01*
X-56569Y-404390D01*
X-56579Y-404487D01*
X-56589Y-404526D01*
Y-404555D01*
Y-404565D01*
Y-404574D01*
X-56579Y-404681D01*
X-56569Y-404788D01*
X-56511Y-404982D01*
X-56424Y-405156D01*
X-56327Y-405302D01*
X-56230Y-405428D01*
X-56142Y-405515D01*
X-56084Y-405573D01*
X-56075Y-405583D01*
X-56065Y-405593D01*
X-55958Y-405670D01*
X-55851Y-405729D01*
X-55599Y-405835D01*
X-55337Y-405913D01*
X-55085Y-405961D01*
X-54959Y-405981D01*
X-54852Y-406000D01*
X-54746Y-406010D01*
X-54658D01*
X-54590Y-406020D01*
X-54484D01*
X-54290Y-406010D01*
X-54105Y-406000D01*
X-53940Y-405971D01*
X-53776Y-405942D01*
X-53630Y-405903D01*
X-53494Y-405864D01*
X-53378Y-405826D01*
X-53262Y-405777D01*
X-53164Y-405729D01*
X-53077Y-405690D01*
X-53009Y-405651D01*
X-52941Y-405612D01*
X-52893Y-405583D01*
X-52864Y-405554D01*
X-52844Y-405544D01*
X-52835Y-405535D01*
X-52728Y-405438D01*
X-52631Y-405331D01*
X-52553Y-405224D01*
X-52476Y-405108D01*
X-52350Y-404865D01*
X-52253Y-404642D01*
X-52214Y-404535D01*
X-52185Y-404438D01*
X-52165Y-404351D01*
X-52146Y-404274D01*
X-52136Y-404206D01*
X-52127Y-404157D01*
X-52117Y-404128D01*
Y-404118D01*
X-50584Y-404361D01*
X-50643Y-404623D01*
X-50710Y-404875D01*
X-50788Y-405108D01*
X-50875Y-405321D01*
X-50972Y-405515D01*
X-51069Y-405690D01*
X-51166Y-405855D01*
X-51273Y-406000D01*
X-51370Y-406126D01*
X-51457Y-406243D01*
X-51545Y-406340D01*
X-51622Y-406417D01*
X-51680Y-406475D01*
X-51729Y-406514D01*
X-51758Y-406543D01*
X-51768Y-406553D01*
X-51952Y-406679D01*
X-52156Y-406796D01*
X-52369Y-406893D01*
X-52592Y-406980D01*
X-52815Y-407048D01*
X-53048Y-407106D01*
X-53271Y-407155D01*
X-53485Y-407193D01*
X-53688Y-407232D01*
X-53882Y-407252D01*
X-54047Y-407271D01*
X-54202Y-407281D01*
X-54319D01*
X-54416Y-407290D01*
X-54493D01*
X-54881Y-407271D01*
X-55250Y-407232D01*
X-55415Y-407203D01*
X-55570Y-407174D01*
X-55725Y-407145D01*
X-55861Y-407106D01*
X-55977Y-407067D01*
X-56094Y-407038D01*
X-56181Y-407009D01*
X-56269Y-406980D01*
X-56327Y-406951D01*
X-56375Y-406941D01*
X-56404Y-406922D01*
X-56414D01*
X-56715Y-406767D01*
X-56977Y-406592D01*
X-57093Y-406505D01*
X-57200Y-406417D01*
X-57297Y-406330D01*
X-57394Y-406252D01*
X-57471Y-406175D01*
X-57539Y-406097D01*
X-57588Y-406029D01*
X-57636Y-405981D01*
X-57675Y-405932D01*
X-57704Y-405894D01*
X-57714Y-405874D01*
X-57724Y-405864D01*
X-57801Y-405738D01*
X-57879Y-405603D01*
X-57986Y-405350D01*
X-58073Y-405108D01*
X-58121Y-404885D01*
X-58141Y-404778D01*
X-58160Y-404691D01*
X-58170Y-404613D01*
Y-404545D01*
X-58179Y-404487D01*
Y-404448D01*
Y-404419D01*
Y-404409D01*
X-58160Y-404128D01*
X-58121Y-403866D01*
X-58063Y-403643D01*
X-57995Y-403449D01*
X-57956Y-403371D01*
X-57918Y-403294D01*
X-57889Y-403236D01*
X-57859Y-403187D01*
X-57840Y-403139D01*
X-57821Y-403110D01*
X-57801Y-403100D01*
Y-403090D01*
X-57656Y-402906D01*
X-57491Y-402741D01*
X-57316Y-402596D01*
X-57151Y-402479D01*
X-57006Y-402392D01*
X-56948Y-402353D01*
X-56889Y-402324D01*
X-56841Y-402305D01*
X-56812Y-402285D01*
X-56792Y-402275D01*
X-56783D01*
X-56657Y-402217D01*
X-56501Y-402159D01*
X-56336Y-402101D01*
X-56152Y-402043D01*
X-55774Y-401926D01*
X-55396Y-401810D01*
X-55221Y-401761D01*
X-55046Y-401713D01*
X-54891Y-401664D01*
X-54765Y-401625D01*
X-54649Y-401596D01*
X-54561Y-401577D01*
X-54513Y-401558D01*
X-54493D01*
X-54290Y-401499D01*
X-54105Y-401451D01*
X-53940Y-401402D01*
X-53795Y-401364D01*
X-53669Y-401325D01*
X-53553Y-401296D01*
X-53456Y-401267D01*
X-53378Y-401237D01*
X-53310Y-401218D01*
X-53252Y-401208D01*
X-53203Y-401189D01*
X-53174Y-401179D01*
X-53126Y-401160D01*
X-53116D01*
X-52980Y-401092D01*
X-52854Y-401024D01*
X-52757Y-400956D01*
X-52670Y-400898D01*
X-52612Y-400840D01*
X-52563Y-400791D01*
X-52534Y-400762D01*
X-52524Y-400752D01*
X-52466Y-400656D01*
X-52418Y-400568D01*
X-52389Y-400471D01*
X-52359Y-400394D01*
X-52350Y-400316D01*
X-52340Y-400258D01*
Y-400219D01*
Y-400209D01*
X-52350Y-400122D01*
X-52359Y-400035D01*
X-52408Y-399880D01*
X-52486Y-399744D01*
X-52573Y-399618D01*
X-52650Y-399521D01*
X-52728Y-399443D01*
X-52776Y-399404D01*
X-52796Y-399385D01*
X-52893Y-399317D01*
X-52990Y-399268D01*
X-53223Y-399181D01*
X-53475Y-399113D01*
X-53727Y-399074D01*
X-53844Y-399055D01*
X-53960Y-399045D01*
X-54057Y-399036D01*
X-54144D01*
X-54222Y-399026D01*
X-54484D01*
X-54639Y-399045D01*
X-54785Y-399065D01*
X-54920Y-399084D01*
X-55046Y-399113D01*
X-55163Y-399152D01*
X-55269Y-399191D01*
X-55366Y-399220D01*
X-55444Y-399259D01*
X-55522Y-399297D01*
X-55580Y-399327D01*
X-55638Y-399365D01*
X-55677Y-399385D01*
X-55706Y-399404D01*
X-55716Y-399424D01*
X-55725D01*
X-55890Y-399588D01*
X-56026Y-399763D01*
X-56133Y-399947D01*
X-56210Y-400122D01*
X-56269Y-400277D01*
X-56288Y-400345D01*
X-56307Y-400403D01*
X-56317Y-400452D01*
Y-400491D01*
X-56327Y-400510D01*
Y-400520D01*
X-57840Y-400316D01*
X-57772Y-400006D01*
X-57694Y-399724D01*
X-57646Y-399598D01*
X-57598Y-399482D01*
X-57559Y-399375D01*
X-57510Y-399278D01*
X-57471Y-399201D01*
X-57433Y-399123D01*
X-57394Y-399055D01*
X-57365Y-399007D01*
X-57336Y-398968D01*
X-57316Y-398929D01*
X-57297Y-398919D01*
Y-398909D01*
X-57219Y-398813D01*
X-57132Y-398715D01*
X-56948Y-398551D01*
X-56744Y-398405D01*
X-56550Y-398289D01*
X-56375Y-398192D01*
X-56298Y-398153D01*
X-56230Y-398124D01*
X-56172Y-398095D01*
X-56133Y-398075D01*
X-56104Y-398066D01*
X-56094D01*
X-55784Y-397959D01*
X-55463Y-397881D01*
X-55143Y-397833D01*
X-54852Y-397794D01*
X-54716Y-397784D01*
X-54600Y-397775D01*
X-54484Y-397765D01*
X-54396Y-397755D01*
X-54212D01*
X-53950Y-397765D01*
D02*
G37*
G36*
X-111365D02*
X-111161Y-397784D01*
X-110967Y-397804D01*
X-110783Y-397833D01*
X-110618Y-397862D01*
X-110453Y-397891D01*
X-110307Y-397920D01*
X-110181Y-397949D01*
X-110065Y-397978D01*
X-109958Y-398007D01*
X-109871Y-398037D01*
X-109803Y-398056D01*
X-109754Y-398075D01*
X-109725Y-398085D01*
X-109716D01*
X-109551Y-398143D01*
X-109405Y-398221D01*
X-109260Y-398289D01*
X-109124Y-398366D01*
X-109007Y-398444D01*
X-108891Y-398521D01*
X-108784Y-398589D01*
X-108697Y-398667D01*
X-108619Y-398735D01*
X-108542Y-398803D01*
X-108484Y-398861D01*
X-108435Y-398909D01*
X-108396Y-398948D01*
X-108367Y-398977D01*
X-108358Y-398997D01*
X-108348Y-399007D01*
X-108183Y-399239D01*
X-108047Y-399501D01*
X-107931Y-399763D01*
X-107843Y-400006D01*
X-107805Y-400122D01*
X-107766Y-400229D01*
X-107737Y-400326D01*
X-107717Y-400403D01*
X-107698Y-400471D01*
X-107688Y-400529D01*
X-107678Y-400559D01*
Y-400568D01*
X-109192Y-400772D01*
X-109240Y-400597D01*
X-109299Y-400432D01*
X-109357Y-400287D01*
X-109415Y-400151D01*
X-109473Y-400025D01*
X-109541Y-399918D01*
X-109599Y-399821D01*
X-109657Y-399734D01*
X-109716Y-399656D01*
X-109774Y-399598D01*
X-109822Y-399540D01*
X-109861Y-399501D01*
X-109900Y-399462D01*
X-109929Y-399443D01*
X-109939Y-399424D01*
X-109948D01*
X-110055Y-399356D01*
X-110171Y-399297D01*
X-110424Y-399201D01*
X-110695Y-399133D01*
X-110957Y-399084D01*
X-111083Y-399065D01*
X-111190Y-399055D01*
X-111297Y-399045D01*
X-111394D01*
X-111462Y-399036D01*
X-111568D01*
X-111782Y-399045D01*
X-111976Y-399055D01*
X-112160Y-399084D01*
X-112335Y-399123D01*
X-112490Y-399162D01*
X-112635Y-399201D01*
X-112761Y-399249D01*
X-112887Y-399297D01*
X-112984Y-399356D01*
X-113072Y-399404D01*
X-113149Y-399443D01*
X-113217Y-399482D01*
X-113266Y-399521D01*
X-113295Y-399550D01*
X-113314Y-399559D01*
X-113324Y-399569D01*
X-113401Y-399647D01*
X-113470Y-399734D01*
X-113586Y-399938D01*
X-113663Y-400151D01*
X-113712Y-400374D01*
X-113751Y-400578D01*
X-113760Y-400665D01*
Y-400743D01*
X-113770Y-400811D01*
Y-400859D01*
Y-400888D01*
Y-400898D01*
Y-400937D01*
Y-400995D01*
Y-401131D01*
X-113760Y-401189D01*
Y-401247D01*
Y-401286D01*
Y-401296D01*
X-113586Y-401354D01*
X-113382Y-401412D01*
X-113178Y-401461D01*
X-112955Y-401509D01*
X-112490Y-401596D01*
X-112267Y-401645D01*
X-112044Y-401674D01*
X-111830Y-401713D01*
X-111636Y-401742D01*
X-111462Y-401771D01*
X-111306Y-401790D01*
X-111171Y-401810D01*
X-111083Y-401820D01*
X-111045D01*
X-111015Y-401829D01*
X-110996D01*
X-110831Y-401849D01*
X-110676Y-401868D01*
X-110530Y-401897D01*
X-110395Y-401917D01*
X-110278Y-401936D01*
X-110162Y-401955D01*
X-110065Y-401975D01*
X-109968Y-401984D01*
X-109890Y-402004D01*
X-109822Y-402023D01*
X-109764Y-402033D01*
X-109716Y-402043D01*
X-109677Y-402052D01*
X-109648D01*
X-109638Y-402062D01*
X-109628D01*
X-109405Y-402130D01*
X-109192Y-402217D01*
X-109007Y-402305D01*
X-108843Y-402382D01*
X-108707Y-402460D01*
X-108600Y-402518D01*
X-108561Y-402547D01*
X-108532Y-402557D01*
X-108522Y-402576D01*
X-108513D01*
X-108338Y-402712D01*
X-108183Y-402857D01*
X-108047Y-403003D01*
X-107931Y-403139D01*
X-107843Y-403265D01*
X-107775Y-403371D01*
X-107747Y-403401D01*
X-107727Y-403430D01*
X-107717Y-403449D01*
Y-403459D01*
X-107620Y-403672D01*
X-107543Y-403886D01*
X-107494Y-404089D01*
X-107455Y-404274D01*
X-107436Y-404438D01*
X-107426Y-404506D01*
Y-404565D01*
X-107417Y-404613D01*
Y-404652D01*
Y-404671D01*
Y-404681D01*
X-107426Y-404894D01*
X-107455Y-405088D01*
X-107494Y-405282D01*
X-107543Y-405457D01*
X-107601Y-405622D01*
X-107669Y-405777D01*
X-107747Y-405923D01*
X-107824Y-406049D01*
X-107892Y-406165D01*
X-107970Y-406272D01*
X-108037Y-406359D01*
X-108096Y-406427D01*
X-108144Y-406485D01*
X-108183Y-406524D01*
X-108212Y-406553D01*
X-108222Y-406563D01*
X-108377Y-406689D01*
X-108552Y-406805D01*
X-108736Y-406902D01*
X-108920Y-406980D01*
X-109114Y-407058D01*
X-109308Y-407116D01*
X-109493Y-407164D01*
X-109677Y-407203D01*
X-109851Y-407232D01*
X-110016Y-407252D01*
X-110162Y-407271D01*
X-110288Y-407281D01*
X-110385D01*
X-110462Y-407290D01*
X-110530D01*
X-110870Y-407281D01*
X-111180Y-407242D01*
X-111471Y-407193D01*
X-111597Y-407174D01*
X-111723Y-407145D01*
X-111830Y-407116D01*
X-111927Y-407087D01*
X-112014Y-407067D01*
X-112092Y-407048D01*
X-112150Y-407028D01*
X-112189Y-407009D01*
X-112218Y-406999D01*
X-112228D01*
X-112373Y-406941D01*
X-112529Y-406863D01*
X-112820Y-406708D01*
X-113101Y-406534D01*
X-113353Y-406369D01*
X-113470Y-406282D01*
X-113576Y-406214D01*
X-113663Y-406146D01*
X-113741Y-406078D01*
X-113799Y-406029D01*
X-113848Y-405991D01*
X-113877Y-405971D01*
X-113887Y-405961D01*
X-113916Y-406194D01*
X-113964Y-406408D01*
X-114013Y-406602D01*
X-114071Y-406767D01*
X-114119Y-406902D01*
X-114158Y-406999D01*
X-114178Y-407038D01*
X-114187Y-407067D01*
X-114197Y-407077D01*
Y-407087D01*
X-115817D01*
X-115710Y-406893D01*
X-115632Y-406699D01*
X-115555Y-406505D01*
X-115506Y-406340D01*
X-115468Y-406194D01*
X-115448Y-406136D01*
X-115439Y-406087D01*
X-115429Y-406049D01*
Y-406020D01*
X-115419Y-406000D01*
Y-405991D01*
X-115400Y-405864D01*
X-115390Y-405709D01*
X-115371Y-405525D01*
X-115361Y-405321D01*
X-115351Y-405108D01*
X-115342Y-404875D01*
X-115332Y-404409D01*
Y-404186D01*
Y-403973D01*
X-115322Y-403779D01*
Y-403614D01*
Y-403469D01*
Y-403410D01*
Y-403362D01*
Y-403323D01*
Y-403284D01*
Y-403274D01*
Y-403265D01*
Y-401208D01*
Y-401024D01*
Y-400849D01*
X-115312Y-400694D01*
Y-400549D01*
X-115303Y-400423D01*
Y-400306D01*
X-115293Y-400200D01*
X-115283Y-400112D01*
X-115274Y-400035D01*
Y-399967D01*
X-115264Y-399909D01*
X-115254Y-399860D01*
Y-399821D01*
X-115245Y-399802D01*
Y-399782D01*
X-115186Y-399550D01*
X-115109Y-399346D01*
X-115031Y-399162D01*
X-114944Y-399016D01*
X-114876Y-398890D01*
X-114818Y-398803D01*
X-114779Y-398745D01*
X-114760Y-398725D01*
X-114614Y-398580D01*
X-114449Y-398444D01*
X-114275Y-398327D01*
X-114090Y-398221D01*
X-113935Y-398143D01*
X-113867Y-398114D01*
X-113799Y-398085D01*
X-113751Y-398066D01*
X-113712Y-398046D01*
X-113693Y-398037D01*
X-113683D01*
X-113537Y-397988D01*
X-113392Y-397939D01*
X-113081Y-397872D01*
X-112761Y-397823D01*
X-112461Y-397794D01*
X-112325Y-397775D01*
X-112199Y-397765D01*
X-112082D01*
X-111985Y-397755D01*
X-111791D01*
X-111365Y-397765D01*
D02*
G37*
G36*
X-44842D02*
X-44638Y-397784D01*
X-44444Y-397804D01*
X-44260Y-397833D01*
X-44095Y-397862D01*
X-43930Y-397891D01*
X-43785Y-397920D01*
X-43659Y-397949D01*
X-43542Y-397978D01*
X-43435Y-398007D01*
X-43348Y-398037D01*
X-43280Y-398056D01*
X-43232Y-398075D01*
X-43203Y-398085D01*
X-43193D01*
X-43028Y-398143D01*
X-42882Y-398221D01*
X-42737Y-398289D01*
X-42601Y-398366D01*
X-42485Y-398444D01*
X-42369Y-398521D01*
X-42262Y-398589D01*
X-42175Y-398667D01*
X-42097Y-398735D01*
X-42019Y-398803D01*
X-41961Y-398861D01*
X-41912Y-398909D01*
X-41874Y-398948D01*
X-41845Y-398977D01*
X-41835Y-398997D01*
X-41825Y-399007D01*
X-41660Y-399239D01*
X-41524Y-399501D01*
X-41408Y-399763D01*
X-41321Y-400006D01*
X-41282Y-400122D01*
X-41243Y-400229D01*
X-41214Y-400326D01*
X-41195Y-400403D01*
X-41175Y-400471D01*
X-41166Y-400529D01*
X-41156Y-400559D01*
Y-400568D01*
X-42669Y-400772D01*
X-42718Y-400597D01*
X-42776Y-400432D01*
X-42834Y-400287D01*
X-42892Y-400151D01*
X-42950Y-400025D01*
X-43018Y-399918D01*
X-43077Y-399821D01*
X-43135Y-399734D01*
X-43193Y-399656D01*
X-43251Y-399598D01*
X-43300Y-399540D01*
X-43339Y-399501D01*
X-43377Y-399462D01*
X-43406Y-399443D01*
X-43416Y-399424D01*
X-43426D01*
X-43532Y-399356D01*
X-43649Y-399297D01*
X-43901Y-399201D01*
X-44173Y-399133D01*
X-44435Y-399084D01*
X-44561Y-399065D01*
X-44667Y-399055D01*
X-44774Y-399045D01*
X-44871D01*
X-44939Y-399036D01*
X-45046D01*
X-45259Y-399045D01*
X-45453Y-399055D01*
X-45637Y-399084D01*
X-45812Y-399123D01*
X-45967Y-399162D01*
X-46113Y-399201D01*
X-46239Y-399249D01*
X-46365Y-399297D01*
X-46462Y-399356D01*
X-46549Y-399404D01*
X-46627Y-399443D01*
X-46695Y-399482D01*
X-46743Y-399521D01*
X-46772Y-399550D01*
X-46792Y-399559D01*
X-46801Y-399569D01*
X-46879Y-399647D01*
X-46947Y-399734D01*
X-47063Y-399938D01*
X-47141Y-400151D01*
X-47189Y-400374D01*
X-47228Y-400578D01*
X-47238Y-400665D01*
Y-400743D01*
X-47248Y-400811D01*
Y-400859D01*
Y-400888D01*
Y-400898D01*
Y-400937D01*
Y-400995D01*
Y-401131D01*
X-47238Y-401189D01*
Y-401247D01*
Y-401286D01*
Y-401296D01*
X-47063Y-401354D01*
X-46860Y-401412D01*
X-46656Y-401461D01*
X-46433Y-401509D01*
X-45967Y-401596D01*
X-45744Y-401645D01*
X-45521Y-401674D01*
X-45307Y-401713D01*
X-45114Y-401742D01*
X-44939Y-401771D01*
X-44784Y-401790D01*
X-44648Y-401810D01*
X-44561Y-401820D01*
X-44522D01*
X-44493Y-401829D01*
X-44473D01*
X-44308Y-401849D01*
X-44153Y-401868D01*
X-44008Y-401897D01*
X-43872Y-401917D01*
X-43755Y-401936D01*
X-43639Y-401955D01*
X-43542Y-401975D01*
X-43445Y-401984D01*
X-43367Y-402004D01*
X-43300Y-402023D01*
X-43241Y-402033D01*
X-43193Y-402043D01*
X-43154Y-402052D01*
X-43125D01*
X-43115Y-402062D01*
X-43106D01*
X-42882Y-402130D01*
X-42669Y-402217D01*
X-42485Y-402305D01*
X-42320Y-402382D01*
X-42184Y-402460D01*
X-42077Y-402518D01*
X-42039Y-402547D01*
X-42010Y-402557D01*
X-42000Y-402576D01*
X-41990D01*
X-41816Y-402712D01*
X-41660Y-402857D01*
X-41524Y-403003D01*
X-41408Y-403139D01*
X-41321Y-403265D01*
X-41253Y-403371D01*
X-41224Y-403401D01*
X-41205Y-403430D01*
X-41195Y-403449D01*
Y-403459D01*
X-41098Y-403672D01*
X-41020Y-403886D01*
X-40972Y-404089D01*
X-40933Y-404274D01*
X-40914Y-404438D01*
X-40904Y-404506D01*
Y-404565D01*
X-40894Y-404613D01*
Y-404652D01*
Y-404671D01*
Y-404681D01*
X-40904Y-404894D01*
X-40933Y-405088D01*
X-40972Y-405282D01*
X-41020Y-405457D01*
X-41078Y-405622D01*
X-41146Y-405777D01*
X-41224Y-405923D01*
X-41301Y-406049D01*
X-41369Y-406165D01*
X-41447Y-406272D01*
X-41515Y-406359D01*
X-41573Y-406427D01*
X-41622Y-406485D01*
X-41660Y-406524D01*
X-41689Y-406553D01*
X-41699Y-406563D01*
X-41854Y-406689D01*
X-42029Y-406805D01*
X-42213Y-406902D01*
X-42398Y-406980D01*
X-42592Y-407058D01*
X-42786Y-407116D01*
X-42970Y-407164D01*
X-43154Y-407203D01*
X-43329Y-407232D01*
X-43494Y-407252D01*
X-43639Y-407271D01*
X-43765Y-407281D01*
X-43862D01*
X-43940Y-407290D01*
X-44008D01*
X-44347Y-407281D01*
X-44658Y-407242D01*
X-44949Y-407193D01*
X-45075Y-407174D01*
X-45201Y-407145D01*
X-45307Y-407116D01*
X-45405Y-407087D01*
X-45492Y-407067D01*
X-45570Y-407048D01*
X-45628Y-407028D01*
X-45666Y-407009D01*
X-45695Y-406999D01*
X-45705D01*
X-45851Y-406941D01*
X-46006Y-406863D01*
X-46297Y-406708D01*
X-46578Y-406534D01*
X-46830Y-406369D01*
X-46947Y-406282D01*
X-47054Y-406214D01*
X-47141Y-406146D01*
X-47218Y-406078D01*
X-47277Y-406029D01*
X-47325Y-405991D01*
X-47354Y-405971D01*
X-47364Y-405961D01*
X-47393Y-406194D01*
X-47442Y-406408D01*
X-47490Y-406602D01*
X-47548Y-406767D01*
X-47597Y-406902D01*
X-47636Y-406999D01*
X-47655Y-407038D01*
X-47665Y-407067D01*
X-47674Y-407077D01*
Y-407087D01*
X-49294D01*
X-49187Y-406893D01*
X-49110Y-406699D01*
X-49032Y-406505D01*
X-48984Y-406340D01*
X-48945Y-406194D01*
X-48926Y-406136D01*
X-48916Y-406087D01*
X-48906Y-406049D01*
Y-406020D01*
X-48897Y-406000D01*
Y-405991D01*
X-48877Y-405864D01*
X-48867Y-405709D01*
X-48848Y-405525D01*
X-48838Y-405321D01*
X-48829Y-405108D01*
X-48819Y-404875D01*
X-48809Y-404409D01*
Y-404186D01*
Y-403973D01*
X-48799Y-403779D01*
Y-403614D01*
Y-403469D01*
Y-403410D01*
Y-403362D01*
Y-403323D01*
Y-403284D01*
Y-403274D01*
Y-403265D01*
Y-401208D01*
Y-401024D01*
Y-400849D01*
X-48790Y-400694D01*
Y-400549D01*
X-48780Y-400423D01*
Y-400306D01*
X-48770Y-400200D01*
X-48761Y-400112D01*
X-48751Y-400035D01*
Y-399967D01*
X-48741Y-399909D01*
X-48732Y-399860D01*
Y-399821D01*
X-48722Y-399802D01*
Y-399782D01*
X-48664Y-399550D01*
X-48586Y-399346D01*
X-48509Y-399162D01*
X-48421Y-399016D01*
X-48353Y-398890D01*
X-48295Y-398803D01*
X-48256Y-398745D01*
X-48237Y-398725D01*
X-48091Y-398580D01*
X-47927Y-398444D01*
X-47752Y-398327D01*
X-47568Y-398221D01*
X-47412Y-398143D01*
X-47344Y-398114D01*
X-47277Y-398085D01*
X-47228Y-398066D01*
X-47189Y-398046D01*
X-47170Y-398037D01*
X-47160D01*
X-47015Y-397988D01*
X-46869Y-397939D01*
X-46559Y-397872D01*
X-46239Y-397823D01*
X-45938Y-397794D01*
X-45802Y-397775D01*
X-45676Y-397765D01*
X-45560D01*
X-45463Y-397755D01*
X-45269D01*
X-44842Y-397765D01*
D02*
G37*
G36*
X159139Y-407087D02*
X157587D01*
Y-403469D01*
X156511Y-402421D01*
X153474Y-407087D01*
X151564D01*
X155415Y-401354D01*
X151913Y-397959D01*
X153921D01*
X157587Y-401674D01*
Y-394486D01*
X159139D01*
Y-407087D01*
D02*
G37*
G36*
X-75591Y-399016D02*
X-75426Y-398813D01*
X-75251Y-398638D01*
X-75077Y-398483D01*
X-74912Y-398347D01*
X-74757Y-398240D01*
X-74699Y-398201D01*
X-74640Y-398163D01*
X-74592Y-398143D01*
X-74563Y-398124D01*
X-74543Y-398104D01*
X-74534D01*
X-74291Y-397988D01*
X-74039Y-397901D01*
X-73787Y-397843D01*
X-73564Y-397794D01*
X-73457Y-397784D01*
X-73360Y-397775D01*
X-73282Y-397765D01*
X-73205D01*
X-73147Y-397755D01*
X-73069D01*
X-72865Y-397765D01*
X-72662Y-397784D01*
X-72468Y-397813D01*
X-72283Y-397852D01*
X-72109Y-397891D01*
X-71934Y-397949D01*
X-71779Y-397998D01*
X-71633Y-398056D01*
X-71507Y-398114D01*
X-71391Y-398163D01*
X-71284Y-398221D01*
X-71207Y-398260D01*
X-71129Y-398298D01*
X-71080Y-398327D01*
X-71051Y-398347D01*
X-71042Y-398357D01*
X-70877Y-398473D01*
X-70722Y-398599D01*
X-70576Y-398735D01*
X-70440Y-398871D01*
X-70324Y-399016D01*
X-70207Y-399152D01*
X-70110Y-399297D01*
X-70013Y-399433D01*
X-69936Y-399559D01*
X-69868Y-399676D01*
X-69810Y-399782D01*
X-69761Y-399880D01*
X-69722Y-399957D01*
X-69693Y-400015D01*
X-69684Y-400054D01*
X-69674Y-400064D01*
X-69596Y-400277D01*
X-69528Y-400491D01*
X-69412Y-400917D01*
X-69335Y-401334D01*
X-69305Y-401529D01*
X-69286Y-401713D01*
X-69266Y-401887D01*
X-69247Y-402043D01*
X-69238Y-402188D01*
Y-402305D01*
X-69228Y-402401D01*
Y-402479D01*
Y-402518D01*
Y-402537D01*
X-69238Y-402799D01*
X-69247Y-403042D01*
X-69276Y-403284D01*
X-69305Y-403517D01*
X-69344Y-403730D01*
X-69383Y-403934D01*
X-69431Y-404128D01*
X-69480Y-404303D01*
X-69519Y-404458D01*
X-69567Y-404603D01*
X-69606Y-404730D01*
X-69645Y-404826D01*
X-69674Y-404914D01*
X-69703Y-404972D01*
X-69713Y-405011D01*
X-69722Y-405021D01*
X-69819Y-405215D01*
X-69926Y-405399D01*
X-70043Y-405573D01*
X-70159Y-405738D01*
X-70275Y-405884D01*
X-70392Y-406020D01*
X-70508Y-406146D01*
X-70625Y-406262D01*
X-70722Y-406359D01*
X-70828Y-406446D01*
X-70916Y-406524D01*
X-70993Y-406592D01*
X-71051Y-406640D01*
X-71100Y-406670D01*
X-71129Y-406689D01*
X-71139Y-406699D01*
X-71313Y-406805D01*
X-71488Y-406893D01*
X-71662Y-406970D01*
X-71837Y-407038D01*
X-72012Y-407096D01*
X-72176Y-407145D01*
X-72341Y-407184D01*
X-72487Y-407213D01*
X-72632Y-407242D01*
X-72759Y-407261D01*
X-72865Y-407271D01*
X-72962Y-407281D01*
X-73040Y-407290D01*
X-73147D01*
X-73457Y-407271D01*
X-73738Y-407232D01*
X-74010Y-407164D01*
X-74262Y-407077D01*
X-74485Y-406980D01*
X-74699Y-406863D01*
X-74893Y-406737D01*
X-75057Y-406611D01*
X-75213Y-406495D01*
X-75339Y-406369D01*
X-75455Y-406252D01*
X-75542Y-406155D01*
X-75620Y-406068D01*
X-75669Y-406000D01*
X-75698Y-405961D01*
X-75707Y-405942D01*
Y-407087D01*
X-77143D01*
Y-394486D01*
X-75591D01*
Y-399016D01*
D02*
G37*
%LPC*%
G36*
X-63660Y-399026D02*
X-63767D01*
X-63980Y-399036D01*
X-64193Y-399065D01*
X-64388Y-399113D01*
X-64562Y-399162D01*
X-64737Y-399239D01*
X-64892Y-399307D01*
X-65037Y-399394D01*
X-65173Y-399472D01*
X-65289Y-399559D01*
X-65396Y-399647D01*
X-65484Y-399715D01*
X-65551Y-399782D01*
X-65610Y-399841D01*
X-65658Y-399889D01*
X-65677Y-399918D01*
X-65687Y-399928D01*
X-65775Y-400044D01*
X-65852Y-400171D01*
X-65988Y-400442D01*
X-66085Y-400723D01*
X-66163Y-401005D01*
X-66192Y-401131D01*
X-66221Y-401257D01*
X-66240Y-401364D01*
X-66260Y-401461D01*
X-66269Y-401538D01*
Y-401596D01*
X-66279Y-401635D01*
Y-401645D01*
X-61167D01*
X-61186Y-401422D01*
X-61225Y-401218D01*
X-61274Y-401024D01*
X-61322Y-400840D01*
X-61390Y-400675D01*
X-61458Y-400520D01*
X-61526Y-400374D01*
X-61603Y-400248D01*
X-61672Y-400132D01*
X-61739Y-400035D01*
X-61798Y-399947D01*
X-61856Y-399870D01*
X-61904Y-399821D01*
X-61943Y-399773D01*
X-61962Y-399753D01*
X-61972Y-399744D01*
X-62108Y-399618D01*
X-62263Y-399511D01*
X-62409Y-399414D01*
X-62564Y-399327D01*
X-62709Y-399259D01*
X-62865Y-399201D01*
X-63000Y-399152D01*
X-63146Y-399113D01*
X-63272Y-399084D01*
X-63388Y-399065D01*
X-63495Y-399045D01*
X-63592Y-399036D01*
X-63660Y-399026D01*
D02*
G37*
G36*
X13649Y-399036D02*
X13601D01*
X13387Y-399045D01*
X13193Y-399074D01*
X12999Y-399113D01*
X12815Y-399171D01*
X12650Y-399239D01*
X12495Y-399307D01*
X12349Y-399394D01*
X12213Y-399472D01*
X12097Y-399550D01*
X11990Y-399627D01*
X11903Y-399705D01*
X11825Y-399773D01*
X11767Y-399831D01*
X11728Y-399870D01*
X11699Y-399899D01*
X11690Y-399909D01*
X11554Y-400083D01*
X11437Y-400268D01*
X11331Y-400471D01*
X11243Y-400675D01*
X11166Y-400888D01*
X11098Y-401102D01*
X11050Y-401315D01*
X11011Y-401519D01*
X10982Y-401713D01*
X10953Y-401897D01*
X10933Y-402062D01*
X10923Y-402198D01*
X10914Y-402314D01*
Y-402401D01*
Y-402460D01*
Y-402469D01*
Y-402479D01*
X10923Y-402809D01*
X10943Y-403110D01*
X10982Y-403391D01*
X11030Y-403653D01*
X11088Y-403895D01*
X11156Y-404109D01*
X11224Y-404312D01*
X11292Y-404487D01*
X11370Y-404642D01*
X11437Y-404778D01*
X11505Y-404885D01*
X11564Y-404982D01*
X11612Y-405050D01*
X11651Y-405108D01*
X11670Y-405137D01*
X11680Y-405147D01*
X11825Y-405302D01*
X11981Y-405438D01*
X12146Y-405554D01*
X12301Y-405651D01*
X12466Y-405738D01*
X12621Y-405806D01*
X12776Y-405864D01*
X12931Y-405913D01*
X13067Y-405942D01*
X13193Y-405971D01*
X13309Y-405991D01*
X13407Y-406010D01*
X13484D01*
X13552Y-406020D01*
X13601D01*
X13814Y-406010D01*
X14018Y-405981D01*
X14212Y-405942D01*
X14396Y-405884D01*
X14561Y-405816D01*
X14726Y-405748D01*
X14871Y-405670D01*
X14997Y-405583D01*
X15123Y-405506D01*
X15230Y-405428D01*
X15317Y-405360D01*
X15395Y-405292D01*
X15453Y-405234D01*
X15492Y-405195D01*
X15521Y-405166D01*
X15531Y-405156D01*
X15667Y-404982D01*
X15783Y-404788D01*
X15880Y-404594D01*
X15967Y-404380D01*
X16045Y-404157D01*
X16103Y-403944D01*
X16152Y-403721D01*
X16191Y-403517D01*
X16220Y-403313D01*
X16249Y-403129D01*
X16268Y-402964D01*
X16278Y-402819D01*
Y-402693D01*
X16287Y-402605D01*
Y-402547D01*
Y-402528D01*
X16278Y-402208D01*
X16258Y-401907D01*
X16220Y-401635D01*
X16171Y-401373D01*
X16113Y-401140D01*
X16045Y-400927D01*
X15977Y-400733D01*
X15909Y-400559D01*
X15841Y-400403D01*
X15773Y-400277D01*
X15705Y-400161D01*
X15647Y-400073D01*
X15599Y-399996D01*
X15560Y-399947D01*
X15540Y-399918D01*
X15531Y-399909D01*
X15385Y-399753D01*
X15230Y-399618D01*
X15065Y-399501D01*
X14910Y-399404D01*
X14745Y-399317D01*
X14580Y-399249D01*
X14425Y-399191D01*
X14280Y-399142D01*
X14134Y-399113D01*
X14008Y-399084D01*
X13892Y-399065D01*
X13795Y-399045D01*
X13717D01*
X13649Y-399036D01*
D02*
G37*
G36*
X-21746Y-395970D02*
X-25364D01*
X-25529Y-395980D01*
X-25694Y-395990D01*
X-25830Y-396000D01*
X-25956Y-396009D01*
X-26072Y-396019D01*
X-26169Y-396029D01*
X-26257Y-396038D01*
X-26334Y-396048D01*
X-26392Y-396058D01*
X-26441Y-396067D01*
X-26480Y-396077D01*
X-26509D01*
X-26528Y-396087D01*
X-26761Y-396174D01*
X-26965Y-396281D01*
X-27149Y-396407D01*
X-27295Y-396533D01*
X-27421Y-396649D01*
X-27508Y-396746D01*
X-27537Y-396776D01*
X-27556Y-396805D01*
X-27576Y-396824D01*
Y-396834D01*
X-27712Y-397057D01*
X-27809Y-397280D01*
X-27886Y-397513D01*
X-27935Y-397726D01*
X-27964Y-397910D01*
X-27974Y-397988D01*
Y-398056D01*
X-27983Y-398114D01*
Y-398153D01*
Y-398182D01*
Y-398192D01*
X-27974Y-398386D01*
X-27954Y-398580D01*
X-27915Y-398754D01*
X-27877Y-398909D01*
X-27828Y-399065D01*
X-27770Y-399201D01*
X-27702Y-399327D01*
X-27644Y-399443D01*
X-27576Y-399540D01*
X-27508Y-399627D01*
X-27450Y-399705D01*
X-27401Y-399773D01*
X-27362Y-399821D01*
X-27324Y-399850D01*
X-27304Y-399870D01*
X-27295Y-399880D01*
X-27159Y-399986D01*
X-27004Y-400073D01*
X-26829Y-400161D01*
X-26654Y-400229D01*
X-26460Y-400287D01*
X-26276Y-400335D01*
X-25898Y-400403D01*
X-25714Y-400432D01*
X-25549Y-400452D01*
X-25403Y-400461D01*
X-25267Y-400471D01*
X-25161Y-400481D01*
X-21746D01*
Y-395970D01*
D02*
G37*
G36*
X-88987Y-395806D02*
X-89045Y-396000D01*
X-89113Y-396213D01*
X-89258Y-396649D01*
X-89404Y-397086D01*
X-89481Y-397299D01*
X-89549Y-397503D01*
X-89617Y-397687D01*
X-89685Y-397862D01*
X-89743Y-398027D01*
X-89792Y-398163D01*
X-89831Y-398269D01*
X-89860Y-398357D01*
X-89879Y-398405D01*
X-89889Y-398425D01*
X-91198Y-401917D01*
X-86921D01*
X-88298Y-398221D01*
X-88453Y-397775D01*
X-88589Y-397338D01*
X-88647Y-397134D01*
X-88705Y-396931D01*
X-88763Y-396746D01*
X-88802Y-396562D01*
X-88851Y-396407D01*
X-88880Y-396252D01*
X-88919Y-396126D01*
X-88938Y-396019D01*
X-88958Y-395922D01*
X-88977Y-395864D01*
X-88987Y-395815D01*
Y-395806D01*
D02*
G37*
G36*
X-154588Y-395718D02*
X-154636D01*
X-154840Y-395728D01*
X-155024Y-395767D01*
X-155209Y-395815D01*
X-155383Y-395883D01*
X-155538Y-395961D01*
X-155684Y-396048D01*
X-155829Y-396135D01*
X-155955Y-396232D01*
X-156062Y-396329D01*
X-156159Y-396417D01*
X-156246Y-396504D01*
X-156324Y-396582D01*
X-156373Y-396649D01*
X-156421Y-396698D01*
X-156440Y-396737D01*
X-156450Y-396746D01*
X-156518Y-396843D01*
X-156576Y-396960D01*
X-156634Y-397086D01*
X-156693Y-397212D01*
X-156790Y-397503D01*
X-156867Y-397823D01*
X-156945Y-398153D01*
X-157003Y-398502D01*
X-157052Y-398851D01*
X-157090Y-399191D01*
X-157120Y-399530D01*
X-157139Y-399841D01*
X-157158Y-400122D01*
Y-400258D01*
X-157168Y-400374D01*
Y-400491D01*
X-157178Y-400588D01*
Y-400675D01*
Y-400743D01*
Y-400801D01*
Y-400840D01*
Y-400869D01*
Y-400879D01*
Y-401160D01*
X-157168Y-401432D01*
X-157158Y-401693D01*
X-157149Y-401946D01*
X-157129Y-402178D01*
X-157110Y-402411D01*
X-157090Y-402625D01*
X-157061Y-402828D01*
X-157042Y-403022D01*
X-157013Y-403207D01*
X-156984Y-403381D01*
X-156945Y-403546D01*
X-156916Y-403692D01*
X-156887Y-403837D01*
X-156819Y-404099D01*
X-156751Y-404322D01*
X-156683Y-404516D01*
X-156615Y-404671D01*
X-156567Y-404788D01*
X-156518Y-404885D01*
X-156479Y-404953D01*
X-156460Y-404991D01*
X-156450Y-405001D01*
X-156314Y-405185D01*
X-156169Y-405341D01*
X-156014Y-405476D01*
X-155858Y-405593D01*
X-155713Y-405699D01*
X-155568Y-405777D01*
X-155422Y-405845D01*
X-155276Y-405903D01*
X-155150Y-405942D01*
X-155034Y-405971D01*
X-154927Y-406000D01*
X-154830Y-406010D01*
X-154762Y-406020D01*
X-154704Y-406029D01*
X-154656D01*
X-154462Y-406020D01*
X-154277Y-405981D01*
X-154093Y-405932D01*
X-153928Y-405874D01*
X-153763Y-405796D01*
X-153618Y-405709D01*
X-153482Y-405612D01*
X-153356Y-405515D01*
X-153249Y-405428D01*
X-153152Y-405331D01*
X-153065Y-405244D01*
X-152987Y-405166D01*
X-152939Y-405108D01*
X-152890Y-405050D01*
X-152871Y-405021D01*
X-152861Y-405011D01*
X-152793Y-404904D01*
X-152735Y-404797D01*
X-152677Y-404671D01*
X-152628Y-404535D01*
X-152531Y-404245D01*
X-152444Y-403934D01*
X-152376Y-403595D01*
X-152318Y-403255D01*
X-152269Y-402906D01*
X-152231Y-402557D01*
X-152201Y-402227D01*
X-152182Y-401917D01*
X-152163Y-401625D01*
Y-401499D01*
X-152153Y-401383D01*
Y-401267D01*
Y-401170D01*
X-152143Y-401082D01*
Y-401014D01*
Y-400956D01*
Y-400917D01*
Y-400888D01*
Y-400879D01*
Y-400597D01*
X-152153Y-400316D01*
X-152163Y-400054D01*
X-152182Y-399802D01*
X-152192Y-399559D01*
X-152221Y-399336D01*
X-152240Y-399113D01*
X-152269Y-398909D01*
X-152299Y-398706D01*
X-152328Y-398521D01*
X-152357Y-398337D01*
X-152396Y-398172D01*
X-152463Y-397862D01*
X-152541Y-397590D01*
X-152619Y-397358D01*
X-152687Y-397154D01*
X-152754Y-396989D01*
X-152813Y-396853D01*
X-152861Y-396756D01*
X-152910Y-396688D01*
X-152929Y-396640D01*
X-152939Y-396630D01*
X-153065Y-396465D01*
X-153191Y-396329D01*
X-153327Y-396203D01*
X-153472Y-396106D01*
X-153608Y-396019D01*
X-153753Y-395941D01*
X-153889Y-395883D01*
X-154025Y-395835D01*
X-154151Y-395796D01*
X-154268Y-395767D01*
X-154374Y-395747D01*
X-154462Y-395728D01*
X-154530D01*
X-154588Y-395718D01*
D02*
G37*
G36*
X106371Y-402508D02*
X106362D01*
Y-403081D01*
Y-403265D01*
X106371Y-403439D01*
X106381Y-403604D01*
X106401Y-403750D01*
X106420Y-403886D01*
X106439Y-404012D01*
X106468Y-404128D01*
X106488Y-404235D01*
X106507Y-404322D01*
X106536Y-404400D01*
X106556Y-404468D01*
X106575Y-404526D01*
X106595Y-404565D01*
X106604Y-404594D01*
X106614Y-404613D01*
Y-404623D01*
X106750Y-404865D01*
X106915Y-405079D01*
X107079Y-405263D01*
X107254Y-405408D01*
X107399Y-405535D01*
X107467Y-405583D01*
X107526Y-405622D01*
X107574Y-405651D01*
X107613Y-405670D01*
X107632Y-405690D01*
X107642D01*
X107904Y-405816D01*
X108176Y-405913D01*
X108447Y-405981D01*
X108690Y-406029D01*
X108806Y-406049D01*
X108903Y-406058D01*
X108990Y-406068D01*
X109068D01*
X109136Y-406078D01*
X109223D01*
X109388Y-406068D01*
X109543Y-406058D01*
X109689Y-406039D01*
X109815Y-406010D01*
X109941Y-405981D01*
X110048Y-405952D01*
X110154Y-405913D01*
X110242Y-405874D01*
X110329Y-405835D01*
X110397Y-405796D01*
X110455Y-405767D01*
X110503Y-405738D01*
X110542Y-405709D01*
X110572Y-405690D01*
X110581Y-405670D01*
X110591D01*
X110669Y-405593D01*
X110746Y-405506D01*
X110862Y-405341D01*
X110940Y-405166D01*
X110998Y-405001D01*
X111027Y-404856D01*
X111047Y-404749D01*
X111056Y-404700D01*
Y-404671D01*
Y-404652D01*
Y-404642D01*
X111047Y-404497D01*
X111027Y-404351D01*
X110989Y-404225D01*
X110950Y-404118D01*
X110911Y-404031D01*
X110872Y-403963D01*
X110853Y-403924D01*
X110843Y-403905D01*
X110756Y-403789D01*
X110659Y-403692D01*
X110562Y-403604D01*
X110465Y-403536D01*
X110377Y-403478D01*
X110310Y-403439D01*
X110261Y-403420D01*
X110242Y-403410D01*
X110164Y-403381D01*
X110067Y-403342D01*
X109863Y-403284D01*
X109640Y-403236D01*
X109417Y-403187D01*
X109213Y-403148D01*
X109126Y-403139D01*
X109049Y-403119D01*
X108981Y-403110D01*
X108932D01*
X108903Y-403100D01*
X108893D01*
X108583Y-403051D01*
X108302Y-403003D01*
X108030Y-402954D01*
X107788Y-402906D01*
X107555Y-402857D01*
X107351Y-402809D01*
X107167Y-402760D01*
X106992Y-402712D01*
X106847Y-402673D01*
X106721Y-402634D01*
X106604Y-402596D01*
X106517Y-402566D01*
X106449Y-402537D01*
X106401Y-402528D01*
X106371Y-402508D01*
D02*
G37*
G36*
X140612D02*
X140603D01*
Y-403081D01*
Y-403265D01*
X140612Y-403439D01*
X140622Y-403604D01*
X140641Y-403750D01*
X140661Y-403886D01*
X140680Y-404012D01*
X140709Y-404128D01*
X140729Y-404235D01*
X140748Y-404322D01*
X140777Y-404400D01*
X140797Y-404468D01*
X140816Y-404526D01*
X140835Y-404565D01*
X140845Y-404594D01*
X140855Y-404613D01*
Y-404623D01*
X140991Y-404865D01*
X141156Y-405079D01*
X141321Y-405263D01*
X141495Y-405408D01*
X141641Y-405535D01*
X141708Y-405583D01*
X141767Y-405622D01*
X141815Y-405651D01*
X141854Y-405670D01*
X141873Y-405690D01*
X141883D01*
X142145Y-405816D01*
X142417Y-405913D01*
X142688Y-405981D01*
X142931Y-406029D01*
X143047Y-406049D01*
X143144Y-406058D01*
X143231Y-406068D01*
X143309D01*
X143377Y-406078D01*
X143464D01*
X143629Y-406068D01*
X143784Y-406058D01*
X143930Y-406039D01*
X144056Y-406010D01*
X144182Y-405981D01*
X144289Y-405952D01*
X144395Y-405913D01*
X144483Y-405874D01*
X144570Y-405835D01*
X144638Y-405796D01*
X144696Y-405767D01*
X144745Y-405738D01*
X144783Y-405709D01*
X144812Y-405690D01*
X144822Y-405670D01*
X144832D01*
X144909Y-405593D01*
X144987Y-405506D01*
X145103Y-405341D01*
X145181Y-405166D01*
X145239Y-405001D01*
X145268Y-404856D01*
X145288Y-404749D01*
X145298Y-404700D01*
Y-404671D01*
Y-404652D01*
Y-404642D01*
X145288Y-404497D01*
X145268Y-404351D01*
X145229Y-404225D01*
X145191Y-404118D01*
X145152Y-404031D01*
X145113Y-403963D01*
X145094Y-403924D01*
X145084Y-403905D01*
X144997Y-403789D01*
X144900Y-403692D01*
X144803Y-403604D01*
X144706Y-403536D01*
X144618Y-403478D01*
X144551Y-403439D01*
X144502Y-403420D01*
X144483Y-403410D01*
X144405Y-403381D01*
X144308Y-403342D01*
X144104Y-403284D01*
X143881Y-403236D01*
X143658Y-403187D01*
X143454Y-403148D01*
X143367Y-403139D01*
X143290Y-403119D01*
X143222Y-403110D01*
X143173D01*
X143144Y-403100D01*
X143134D01*
X142824Y-403051D01*
X142543Y-403003D01*
X142271Y-402954D01*
X142028Y-402906D01*
X141796Y-402857D01*
X141592Y-402809D01*
X141408Y-402760D01*
X141233Y-402712D01*
X141088Y-402673D01*
X140962Y-402634D01*
X140845Y-402596D01*
X140758Y-402566D01*
X140690Y-402537D01*
X140641Y-402528D01*
X140612Y-402508D01*
D02*
G37*
G36*
X30081D02*
X30071D01*
Y-403081D01*
Y-403265D01*
X30081Y-403439D01*
X30091Y-403604D01*
X30110Y-403750D01*
X30129Y-403886D01*
X30149Y-404012D01*
X30178Y-404128D01*
X30197Y-404235D01*
X30217Y-404322D01*
X30246Y-404400D01*
X30265Y-404468D01*
X30285Y-404526D01*
X30304Y-404565D01*
X30314Y-404594D01*
X30323Y-404613D01*
Y-404623D01*
X30459Y-404865D01*
X30624Y-405079D01*
X30789Y-405263D01*
X30964Y-405408D01*
X31109Y-405535D01*
X31177Y-405583D01*
X31235Y-405622D01*
X31284Y-405651D01*
X31322Y-405670D01*
X31342Y-405690D01*
X31352D01*
X31613Y-405816D01*
X31885Y-405913D01*
X32157Y-405981D01*
X32399Y-406029D01*
X32516Y-406049D01*
X32612Y-406058D01*
X32700Y-406068D01*
X32777D01*
X32845Y-406078D01*
X32933D01*
X33098Y-406068D01*
X33253Y-406058D01*
X33398Y-406039D01*
X33524Y-406010D01*
X33650Y-405981D01*
X33757Y-405952D01*
X33864Y-405913D01*
X33951Y-405874D01*
X34038Y-405835D01*
X34106Y-405796D01*
X34165Y-405767D01*
X34213Y-405738D01*
X34252Y-405709D01*
X34281Y-405690D01*
X34291Y-405670D01*
X34300D01*
X34378Y-405593D01*
X34455Y-405506D01*
X34572Y-405341D01*
X34650Y-405166D01*
X34708Y-405001D01*
X34737Y-404856D01*
X34756Y-404749D01*
X34766Y-404700D01*
Y-404671D01*
Y-404652D01*
Y-404642D01*
X34756Y-404497D01*
X34737Y-404351D01*
X34698Y-404225D01*
X34659Y-404118D01*
X34620Y-404031D01*
X34582Y-403963D01*
X34562Y-403924D01*
X34553Y-403905D01*
X34465Y-403789D01*
X34368Y-403692D01*
X34271Y-403604D01*
X34174Y-403536D01*
X34087Y-403478D01*
X34019Y-403439D01*
X33970Y-403420D01*
X33951Y-403410D01*
X33874Y-403381D01*
X33777Y-403342D01*
X33573Y-403284D01*
X33350Y-403236D01*
X33127Y-403187D01*
X32923Y-403148D01*
X32836Y-403139D01*
X32758Y-403119D01*
X32690Y-403110D01*
X32642D01*
X32612Y-403100D01*
X32603D01*
X32293Y-403051D01*
X32011Y-403003D01*
X31740Y-402954D01*
X31497Y-402906D01*
X31264Y-402857D01*
X31061Y-402809D01*
X30876Y-402760D01*
X30702Y-402712D01*
X30556Y-402673D01*
X30430Y-402634D01*
X30314Y-402596D01*
X30226Y-402566D01*
X30158Y-402537D01*
X30110Y-402528D01*
X30081Y-402508D01*
D02*
G37*
G36*
X-113751D02*
X-113760D01*
Y-403081D01*
Y-403265D01*
X-113751Y-403439D01*
X-113741Y-403604D01*
X-113722Y-403750D01*
X-113702Y-403886D01*
X-113683Y-404012D01*
X-113654Y-404128D01*
X-113634Y-404235D01*
X-113615Y-404322D01*
X-113586Y-404400D01*
X-113567Y-404468D01*
X-113547Y-404526D01*
X-113528Y-404565D01*
X-113518Y-404594D01*
X-113508Y-404613D01*
Y-404623D01*
X-113373Y-404865D01*
X-113207Y-405079D01*
X-113043Y-405263D01*
X-112868Y-405408D01*
X-112723Y-405535D01*
X-112655Y-405583D01*
X-112596Y-405622D01*
X-112548Y-405651D01*
X-112509Y-405670D01*
X-112490Y-405690D01*
X-112480D01*
X-112218Y-405816D01*
X-111947Y-405913D01*
X-111675Y-405981D01*
X-111432Y-406029D01*
X-111316Y-406049D01*
X-111219Y-406058D01*
X-111132Y-406068D01*
X-111054D01*
X-110986Y-406078D01*
X-110899D01*
X-110734Y-406068D01*
X-110579Y-406058D01*
X-110433Y-406039D01*
X-110307Y-406010D01*
X-110181Y-405981D01*
X-110074Y-405952D01*
X-109968Y-405913D01*
X-109880Y-405874D01*
X-109793Y-405835D01*
X-109725Y-405796D01*
X-109667Y-405767D01*
X-109619Y-405738D01*
X-109580Y-405709D01*
X-109551Y-405690D01*
X-109541Y-405670D01*
X-109531D01*
X-109454Y-405593D01*
X-109376Y-405506D01*
X-109260Y-405341D01*
X-109182Y-405166D01*
X-109124Y-405001D01*
X-109095Y-404856D01*
X-109075Y-404749D01*
X-109066Y-404700D01*
Y-404671D01*
Y-404652D01*
Y-404642D01*
X-109075Y-404497D01*
X-109095Y-404351D01*
X-109134Y-404225D01*
X-109172Y-404118D01*
X-109211Y-404031D01*
X-109250Y-403963D01*
X-109269Y-403924D01*
X-109279Y-403905D01*
X-109366Y-403789D01*
X-109463Y-403692D01*
X-109560Y-403604D01*
X-109657Y-403536D01*
X-109745Y-403478D01*
X-109813Y-403439D01*
X-109861Y-403420D01*
X-109880Y-403410D01*
X-109958Y-403381D01*
X-110055Y-403342D01*
X-110259Y-403284D01*
X-110482Y-403236D01*
X-110705Y-403187D01*
X-110909Y-403148D01*
X-110996Y-403139D01*
X-111074Y-403119D01*
X-111142Y-403110D01*
X-111190D01*
X-111219Y-403100D01*
X-111229D01*
X-111539Y-403051D01*
X-111820Y-403003D01*
X-112092Y-402954D01*
X-112335Y-402906D01*
X-112567Y-402857D01*
X-112771Y-402809D01*
X-112955Y-402760D01*
X-113130Y-402712D01*
X-113276Y-402673D01*
X-113401Y-402634D01*
X-113518Y-402596D01*
X-113605Y-402566D01*
X-113673Y-402537D01*
X-113722Y-402528D01*
X-113751Y-402508D01*
D02*
G37*
G36*
X-47228D02*
X-47238D01*
Y-403081D01*
Y-403265D01*
X-47228Y-403439D01*
X-47218Y-403604D01*
X-47199Y-403750D01*
X-47180Y-403886D01*
X-47160Y-404012D01*
X-47131Y-404128D01*
X-47112Y-404235D01*
X-47092Y-404322D01*
X-47063Y-404400D01*
X-47044Y-404468D01*
X-47025Y-404526D01*
X-47005Y-404565D01*
X-46995Y-404594D01*
X-46986Y-404613D01*
Y-404623D01*
X-46850Y-404865D01*
X-46685Y-405079D01*
X-46520Y-405263D01*
X-46345Y-405408D01*
X-46200Y-405535D01*
X-46132Y-405583D01*
X-46074Y-405622D01*
X-46025Y-405651D01*
X-45987Y-405670D01*
X-45967Y-405690D01*
X-45957D01*
X-45695Y-405816D01*
X-45424Y-405913D01*
X-45152Y-405981D01*
X-44910Y-406029D01*
X-44793Y-406049D01*
X-44696Y-406058D01*
X-44609Y-406068D01*
X-44532D01*
X-44464Y-406078D01*
X-44376D01*
X-44212Y-406068D01*
X-44056Y-406058D01*
X-43911Y-406039D01*
X-43785Y-406010D01*
X-43659Y-405981D01*
X-43552Y-405952D01*
X-43445Y-405913D01*
X-43358Y-405874D01*
X-43270Y-405835D01*
X-43203Y-405796D01*
X-43145Y-405767D01*
X-43096Y-405738D01*
X-43057Y-405709D01*
X-43028Y-405690D01*
X-43018Y-405670D01*
X-43009D01*
X-42931Y-405593D01*
X-42853Y-405506D01*
X-42737Y-405341D01*
X-42659Y-405166D01*
X-42601Y-405001D01*
X-42572Y-404856D01*
X-42553Y-404749D01*
X-42543Y-404700D01*
Y-404671D01*
Y-404652D01*
Y-404642D01*
X-42553Y-404497D01*
X-42572Y-404351D01*
X-42611Y-404225D01*
X-42650Y-404118D01*
X-42689Y-404031D01*
X-42727Y-403963D01*
X-42747Y-403924D01*
X-42757Y-403905D01*
X-42844Y-403789D01*
X-42941Y-403692D01*
X-43038Y-403604D01*
X-43135Y-403536D01*
X-43222Y-403478D01*
X-43290Y-403439D01*
X-43339Y-403420D01*
X-43358Y-403410D01*
X-43435Y-403381D01*
X-43532Y-403342D01*
X-43736Y-403284D01*
X-43959Y-403236D01*
X-44182Y-403187D01*
X-44386Y-403148D01*
X-44473Y-403139D01*
X-44551Y-403119D01*
X-44619Y-403110D01*
X-44667D01*
X-44696Y-403100D01*
X-44706D01*
X-45017Y-403051D01*
X-45298Y-403003D01*
X-45570Y-402954D01*
X-45812Y-402906D01*
X-46045Y-402857D01*
X-46248Y-402809D01*
X-46433Y-402760D01*
X-46607Y-402712D01*
X-46753Y-402673D01*
X-46879Y-402634D01*
X-46995Y-402596D01*
X-47083Y-402566D01*
X-47150Y-402537D01*
X-47199Y-402528D01*
X-47228Y-402508D01*
D02*
G37*
G36*
X-73185Y-399036D02*
X-73234D01*
X-73428Y-399045D01*
X-73612Y-399074D01*
X-73787Y-399113D01*
X-73961Y-399171D01*
X-74116Y-399239D01*
X-74262Y-399317D01*
X-74398Y-399394D01*
X-74514Y-399472D01*
X-74631Y-399559D01*
X-74728Y-399637D01*
X-74815Y-399715D01*
X-74883Y-399782D01*
X-74931Y-399841D01*
X-74980Y-399880D01*
X-74999Y-399909D01*
X-75009Y-399918D01*
X-75135Y-400093D01*
X-75251Y-400287D01*
X-75349Y-400500D01*
X-75426Y-400714D01*
X-75504Y-400937D01*
X-75562Y-401170D01*
X-75610Y-401393D01*
X-75649Y-401616D01*
X-75678Y-401829D01*
X-75698Y-402023D01*
X-75717Y-402198D01*
X-75727Y-402353D01*
X-75736Y-402489D01*
Y-402576D01*
Y-402615D01*
Y-402644D01*
Y-402654D01*
Y-402663D01*
X-75727Y-402974D01*
X-75707Y-403265D01*
X-75669Y-403527D01*
X-75620Y-403779D01*
X-75572Y-404002D01*
X-75513Y-404215D01*
X-75445Y-404400D01*
X-75378Y-404565D01*
X-75310Y-404720D01*
X-75242Y-404846D01*
X-75184Y-404953D01*
X-75135Y-405040D01*
X-75086Y-405108D01*
X-75048Y-405156D01*
X-75028Y-405185D01*
X-75019Y-405195D01*
X-74883Y-405341D01*
X-74737Y-405467D01*
X-74602Y-405573D01*
X-74456Y-405670D01*
X-74311Y-405748D01*
X-74165Y-405816D01*
X-74029Y-405874D01*
X-73893Y-405913D01*
X-73767Y-405952D01*
X-73661Y-405971D01*
X-73554Y-405991D01*
X-73467Y-406010D01*
X-73399D01*
X-73350Y-406020D01*
X-73302D01*
X-73117Y-406010D01*
X-72933Y-405981D01*
X-72768Y-405942D01*
X-72603Y-405884D01*
X-72448Y-405816D01*
X-72303Y-405748D01*
X-72176Y-405670D01*
X-72050Y-405583D01*
X-71944Y-405506D01*
X-71847Y-405428D01*
X-71759Y-405360D01*
X-71692Y-405292D01*
X-71633Y-405234D01*
X-71595Y-405195D01*
X-71565Y-405166D01*
X-71556Y-405156D01*
X-71430Y-404982D01*
X-71313Y-404797D01*
X-71216Y-404594D01*
X-71129Y-404380D01*
X-71061Y-404167D01*
X-71003Y-403944D01*
X-70954Y-403730D01*
X-70916Y-403527D01*
X-70877Y-403323D01*
X-70857Y-403139D01*
X-70838Y-402974D01*
X-70828Y-402828D01*
Y-402702D01*
X-70819Y-402615D01*
Y-402557D01*
Y-402537D01*
X-70828Y-402208D01*
X-70848Y-401907D01*
X-70886Y-401616D01*
X-70925Y-401354D01*
X-70974Y-401121D01*
X-71032Y-400898D01*
X-71100Y-400704D01*
X-71168Y-400529D01*
X-71226Y-400374D01*
X-71294Y-400238D01*
X-71352Y-400132D01*
X-71400Y-400035D01*
X-71439Y-399967D01*
X-71478Y-399918D01*
X-71498Y-399889D01*
X-71507Y-399880D01*
X-71643Y-399734D01*
X-71779Y-399598D01*
X-71924Y-399492D01*
X-72070Y-399394D01*
X-72215Y-399307D01*
X-72361Y-399239D01*
X-72497Y-399181D01*
X-72632Y-399142D01*
X-72759Y-399103D01*
X-72865Y-399084D01*
X-72972Y-399065D01*
X-73059Y-399045D01*
X-73137D01*
X-73185Y-399036D01*
D02*
G37*
%LPD*%
D23*
X14765Y372047D02*
G03*
X14765Y372047I-4922J0D01*
G01*
X19291D02*
G03*
X19291Y372047I-19291J0D01*
G01*
X376970Y279528D02*
G03*
X376970Y279528I-4922J0D01*
G01*
X391339Y289370D02*
G03*
X391339Y289370I-19291J0D01*
G01*
X328671Y48298D02*
G03*
X328671Y48298I-4922J0D01*
G01*
X350000Y41339D02*
G03*
X350000Y41339I-19291J0D01*
G01*
X287333Y48298D02*
G03*
X287333Y48298I-4922J0D01*
G01*
X308661Y41339D02*
G03*
X308661Y41339I-19291J0D01*
G01*
X345473Y372047D02*
G03*
X345473Y372047I-4922J0D01*
G01*
X350000D02*
G03*
X350000Y372047I-19291J0D01*
G01*
X304135Y372047D02*
G03*
X304135Y372047I-4922J0D01*
G01*
X308661D02*
G03*
X308661Y372047I-19291J0D01*
G01*
X262796Y372047D02*
G03*
X262796Y372047I-4922J0D01*
G01*
X267323D02*
G03*
X267323Y372047I-19291J0D01*
G01*
X221458Y372047D02*
G03*
X221458Y372047I-4922J0D01*
G01*
X225984D02*
G03*
X225984Y372047I-19291J0D01*
G01*
X180119Y372047D02*
G03*
X180119Y372047I-4922J0D01*
G01*
X184646D02*
G03*
X184646Y372047I-19291J0D01*
G01*
X138780Y372047D02*
G03*
X138780Y372047I-4922J0D01*
G01*
X143307D02*
G03*
X143307Y372047I-19291J0D01*
G01*
X97442Y372047D02*
G03*
X97442Y372047I-4922J0D01*
G01*
X101969D02*
G03*
X101969Y372047I-19291J0D01*
G01*
X56103Y372047D02*
G03*
X56103Y372047I-4922J0D01*
G01*
X60630D02*
G03*
X60630Y372047I-19291J0D01*
G01*
X288021Y337668D02*
G03*
X288021Y337668I-4922J0D01*
G01*
X309350Y330709D02*
G03*
X309350Y330709I-19291J0D01*
G01*
X329360Y337668D02*
G03*
X329360Y337668I-4922J0D01*
G01*
X350689Y330709D02*
G03*
X350689Y330709I-19291J0D01*
G01*
X246683Y337668D02*
G03*
X246683Y337668I-4922J0D01*
G01*
X268012Y330709D02*
G03*
X268012Y330709I-19291J0D01*
G01*
X205344Y337668D02*
G03*
X205344Y337668I-4922J0D01*
G01*
X226673Y330709D02*
G03*
X226673Y330709I-19291J0D01*
G01*
X164006Y337668D02*
G03*
X164006Y337668I-4922J0D01*
G01*
X185335Y330709D02*
G03*
X185335Y330709I-19291J0D01*
G01*
X122667Y337668D02*
G03*
X122667Y337668I-4922J0D01*
G01*
X143996Y330709D02*
G03*
X143996Y330709I-19291J0D01*
G01*
X81329Y337668D02*
G03*
X81329Y337668I-4922J0D01*
G01*
X102657Y330709D02*
G03*
X102657Y330709I-19291J0D01*
G01*
X39990Y337668D02*
G03*
X39990Y337668I-4922J0D01*
G01*
X61319Y330709D02*
G03*
X61319Y330709I-19291J0D01*
G01*
X-1348Y337668D02*
G03*
X-1348Y337668I-4922J0D01*
G01*
X19980Y330709D02*
G03*
X19980Y330709I-19291J0D01*
G01*
X287923Y296330D02*
G03*
X287923Y296330I-4922J0D01*
G01*
X309252Y289370D02*
G03*
X309252Y289370I-19291J0D01*
G01*
X329262Y296330D02*
G03*
X329262Y296330I-4922J0D01*
G01*
X350590Y289370D02*
G03*
X350590Y289370I-19291J0D01*
G01*
X246585Y296330D02*
G03*
X246585Y296330I-4922J0D01*
G01*
X267913Y289370D02*
G03*
X267913Y289370I-19291J0D01*
G01*
X205246Y296330D02*
G03*
X205246Y296330I-4922J0D01*
G01*
X226575Y289370D02*
G03*
X226575Y289370I-19291J0D01*
G01*
X163907Y296330D02*
G03*
X163907Y296330I-4922J0D01*
G01*
X185236Y289370D02*
G03*
X185236Y289370I-19291J0D01*
G01*
X122569Y296330D02*
G03*
X122569Y296330I-4922J0D01*
G01*
X143898Y289370D02*
G03*
X143898Y289370I-19291J0D01*
G01*
X81230Y296330D02*
G03*
X81230Y296330I-4922J0D01*
G01*
X102559Y289370D02*
G03*
X102559Y289370I-19291J0D01*
G01*
X39892Y296330D02*
G03*
X39892Y296330I-4922J0D01*
G01*
X61221Y289370D02*
G03*
X61221Y289370I-19291J0D01*
G01*
X-1447Y296330D02*
G03*
X-1447Y296330I-4922J0D01*
G01*
X19882Y289370D02*
G03*
X19882Y289370I-19291J0D01*
G01*
X287825Y254991D02*
G03*
X287825Y254991I-4922J0D01*
G01*
X309154Y248031D02*
G03*
X309154Y248031I-19291J0D01*
G01*
X329163Y254991D02*
G03*
X329163Y254991I-4922J0D01*
G01*
X350492Y248031D02*
G03*
X350492Y248031I-19291J0D01*
G01*
X246486Y254991D02*
G03*
X246486Y254991I-4922J0D01*
G01*
X267815Y248031D02*
G03*
X267815Y248031I-19291J0D01*
G01*
X205148Y254991D02*
G03*
X205148Y254991I-4922J0D01*
G01*
X226476Y248031D02*
G03*
X226476Y248031I-19291J0D01*
G01*
X163809Y254991D02*
G03*
X163809Y254991I-4922J0D01*
G01*
X185138Y248031D02*
G03*
X185138Y248031I-19291J0D01*
G01*
X122470Y254991D02*
G03*
X122470Y254991I-4922J0D01*
G01*
X143799Y248031D02*
G03*
X143799Y248031I-19291J0D01*
G01*
X81132Y254991D02*
G03*
X81132Y254991I-4922J0D01*
G01*
X102461Y248031D02*
G03*
X102461Y248031I-19291J0D01*
G01*
X39793Y254991D02*
G03*
X39793Y254991I-4922J0D01*
G01*
X61122Y248031D02*
G03*
X61122Y248031I-19291J0D01*
G01*
X-1545Y254991D02*
G03*
X-1545Y254991I-4922J0D01*
G01*
X19783Y248032D02*
G03*
X19783Y248032I-19291J0D01*
G01*
X287726Y213653D02*
G03*
X287726Y213653I-4922J0D01*
G01*
X309055Y206693D02*
G03*
X309055Y206693I-19291J0D01*
G01*
X329065Y213653D02*
G03*
X329065Y213653I-4922J0D01*
G01*
X350394Y206693D02*
G03*
X350394Y206693I-19291J0D01*
G01*
X246388Y213653D02*
G03*
X246388Y213653I-4922J0D01*
G01*
X267717Y206693D02*
G03*
X267717Y206693I-19291J0D01*
G01*
X205049Y213653D02*
G03*
X205049Y213653I-4922J0D01*
G01*
X226378Y206693D02*
G03*
X226378Y206693I-19291J0D01*
G01*
X163711Y213653D02*
G03*
X163711Y213653I-4922J0D01*
G01*
X185039Y206693D02*
G03*
X185039Y206693I-19291J0D01*
G01*
X122372Y213653D02*
G03*
X122372Y213653I-4922J0D01*
G01*
X143701Y206693D02*
G03*
X143701Y206693I-19291J0D01*
G01*
X81033Y213653D02*
G03*
X81033Y213653I-4922J0D01*
G01*
X102362Y206693D02*
G03*
X102362Y206693I-19291J0D01*
G01*
X39695Y213653D02*
G03*
X39695Y213653I-4922J0D01*
G01*
X61024Y206693D02*
G03*
X61024Y206693I-19291J0D01*
G01*
X-1644Y213653D02*
G03*
X-1644Y213653I-4922J0D01*
G01*
X19685Y206693D02*
G03*
X19685Y206693I-19291J0D01*
G01*
X287628Y172314D02*
G03*
X287628Y172314I-4922J0D01*
G01*
X308957Y165354D02*
G03*
X308957Y165354I-19291J0D01*
G01*
X328966Y172314D02*
G03*
X328966Y172314I-4922J0D01*
G01*
X350295Y165354D02*
G03*
X350295Y165354I-19291J0D01*
G01*
X246289Y172314D02*
G03*
X246289Y172314I-4922J0D01*
G01*
X267618Y165354D02*
G03*
X267618Y165354I-19291J0D01*
G01*
X204951Y172314D02*
G03*
X204951Y172314I-4922J0D01*
G01*
X226279Y165354D02*
G03*
X226279Y165354I-19291J0D01*
G01*
X163612Y172314D02*
G03*
X163612Y172314I-4922J0D01*
G01*
X184941Y165354D02*
G03*
X184941Y165354I-19291J0D01*
G01*
X122274Y172314D02*
G03*
X122274Y172314I-4922J0D01*
G01*
X143602Y165354D02*
G03*
X143602Y165354I-19291J0D01*
G01*
X80935Y172314D02*
G03*
X80935Y172314I-4922J0D01*
G01*
X102264Y165354D02*
G03*
X102264Y165354I-19291J0D01*
G01*
X39596Y172314D02*
G03*
X39596Y172314I-4922J0D01*
G01*
X60925Y165354D02*
G03*
X60925Y165354I-19291J0D01*
G01*
X-1742Y172314D02*
G03*
X-1742Y172314I-4922J0D01*
G01*
X19587Y165354D02*
G03*
X19587Y165354I-19291J0D01*
G01*
X287529Y130975D02*
G03*
X287529Y130975I-4922J0D01*
G01*
X308858Y124016D02*
G03*
X308858Y124016I-19291J0D01*
G01*
X328868Y130975D02*
G03*
X328868Y130975I-4922J0D01*
G01*
X350197Y124016D02*
G03*
X350197Y124016I-19291J0D01*
G01*
X246191Y130975D02*
G03*
X246191Y130975I-4922J0D01*
G01*
X267520Y124016D02*
G03*
X267520Y124016I-19291J0D01*
G01*
X204852Y130975D02*
G03*
X204852Y130975I-4922J0D01*
G01*
X226181Y124016D02*
G03*
X226181Y124016I-19291J0D01*
G01*
X163514Y130975D02*
G03*
X163514Y130975I-4922J0D01*
G01*
X184843Y124016D02*
G03*
X184843Y124016I-19291J0D01*
G01*
X122175Y130975D02*
G03*
X122175Y130975I-4922J0D01*
G01*
X143504Y124016D02*
G03*
X143504Y124016I-19291J0D01*
G01*
X80837Y130975D02*
G03*
X80837Y130975I-4922J0D01*
G01*
X102165Y124016D02*
G03*
X102165Y124016I-19291J0D01*
G01*
X39498Y130975D02*
G03*
X39498Y130975I-4922J0D01*
G01*
X60827Y124016D02*
G03*
X60827Y124016I-19291J0D01*
G01*
X-1840Y130975D02*
G03*
X-1840Y130975I-4922J0D01*
G01*
X19488Y124016D02*
G03*
X19488Y124016I-19291J0D01*
G01*
X287431Y89637D02*
G03*
X287431Y89637I-4922J0D01*
G01*
X308760Y82677D02*
G03*
X308760Y82677I-19291J0D01*
G01*
X328770Y89637D02*
G03*
X328770Y89637I-4922J0D01*
G01*
X350098Y82677D02*
G03*
X350098Y82677I-19291J0D01*
G01*
X246093Y89637D02*
G03*
X246093Y89637I-4922J0D01*
G01*
X267421Y82677D02*
G03*
X267421Y82677I-19291J0D01*
G01*
X204754Y89637D02*
G03*
X204754Y89637I-4922J0D01*
G01*
X226083Y82677D02*
G03*
X226083Y82677I-19291J0D01*
G01*
X163415Y89637D02*
G03*
X163415Y89637I-4922J0D01*
G01*
X184744Y82677D02*
G03*
X184744Y82677I-19291J0D01*
G01*
X122077Y89637D02*
G03*
X122077Y89637I-4922J0D01*
G01*
X143406Y82677D02*
G03*
X143406Y82677I-19291J0D01*
G01*
X80738Y89637D02*
G03*
X80738Y89637I-4922J0D01*
G01*
X102067Y82677D02*
G03*
X102067Y82677I-19291J0D01*
G01*
X39400Y89637D02*
G03*
X39400Y89637I-4922J0D01*
G01*
X60728Y82677D02*
G03*
X60728Y82677I-19291J0D01*
G01*
X-1939Y89637D02*
G03*
X-1939Y89637I-4922J0D01*
G01*
X19390Y82677D02*
G03*
X19390Y82677I-19291J0D01*
G01*
X-2037Y48298D02*
G03*
X-2037Y48298I-4922J0D01*
G01*
X19291Y41339D02*
G03*
X19291Y41339I-19291J0D01*
G01*
X39301Y48298D02*
G03*
X39301Y48298I-4922J0D01*
G01*
X60630Y41339D02*
G03*
X60630Y41339I-19291J0D01*
G01*
X80640Y48298D02*
G03*
X80640Y48298I-4922J0D01*
G01*
X101969Y41339D02*
G03*
X101969Y41339I-19291J0D01*
G01*
X121978Y48298D02*
G03*
X121978Y48298I-4922J0D01*
G01*
X143307Y41339D02*
G03*
X143307Y41339I-19291J0D01*
G01*
X163317Y48298D02*
G03*
X163317Y48298I-4922J0D01*
G01*
X184646Y41339D02*
G03*
X184646Y41339I-19291J0D01*
G01*
X204656Y48298D02*
G03*
X204656Y48298I-4922J0D01*
G01*
X225984Y41339D02*
G03*
X225984Y41339I-19291J0D01*
G01*
X245994Y48298D02*
G03*
X245994Y48298I-4922J0D01*
G01*
X267323Y41339D02*
G03*
X267323Y41339I-19291J0D01*
G01*
X377068Y320866D02*
G03*
X377068Y320866I-4922J0D01*
G01*
X391437Y330709D02*
G03*
X391437Y330709I-19291J0D01*
G01*
X376379Y31496D02*
G03*
X376379Y31496I-4922J0D01*
G01*
X390748Y41339D02*
G03*
X390748Y41339I-19291J0D01*
G01*
X376477Y72835D02*
G03*
X376477Y72835I-4922J0D01*
G01*
X390846Y82677D02*
G03*
X390846Y82677I-19291J0D01*
G01*
X376576Y114173D02*
G03*
X376576Y114173I-4922J0D01*
G01*
X390945Y124016D02*
G03*
X390945Y124016I-19291J0D01*
G01*
X376674Y155512D02*
G03*
X376674Y155512I-4922J0D01*
G01*
X391043Y165354D02*
G03*
X391043Y165354I-19291J0D01*
G01*
X376773Y196850D02*
G03*
X376773Y196850I-4922J0D01*
G01*
X391142Y206693D02*
G03*
X391142Y206693I-19291J0D01*
G01*
X376871Y238189D02*
G03*
X376871Y238189I-4922J0D01*
G01*
X391240Y248031D02*
G03*
X391240Y248031I-19291J0D01*
G01*
X-233267Y371949D02*
G03*
X-233267Y371949I-4922J0D01*
G01*
X-228740D02*
G03*
X-228740Y371949I-19291J0D01*
G01*
X-191928Y371850D02*
G03*
X-191928Y371850I-4922J0D01*
G01*
X-187402D02*
G03*
X-187402Y371850I-19291J0D01*
G01*
X-150590Y371752D02*
G03*
X-150590Y371752I-4922J0D01*
G01*
X-146063D02*
G03*
X-146063Y371752I-19291J0D01*
G01*
X-109251Y371654D02*
G03*
X-109251Y371654I-4922J0D01*
G01*
X-104725D02*
G03*
X-104725Y371654I-19291J0D01*
G01*
X-67913Y371555D02*
G03*
X-67913Y371555I-4922J0D01*
G01*
X-63386D02*
G03*
X-63386Y371555I-19291J0D01*
G01*
X-26574Y371457D02*
G03*
X-26574Y371457I-4922J0D01*
G01*
X-22047D02*
G03*
X-22047Y371457I-19291J0D01*
G01*
X-315944Y372146D02*
G03*
X-315944Y372146I-4922J0D01*
G01*
X-311417D02*
G03*
X-311417Y372146I-19291J0D01*
G01*
X-43376Y241072D02*
G03*
X-43376Y241072I-4922J0D01*
G01*
X-22047Y248031D02*
G03*
X-22047Y248031I-19291J0D01*
G01*
X-43376Y199733D02*
G03*
X-43376Y199733I-4922J0D01*
G01*
X-22047Y206693D02*
G03*
X-22047Y206693I-19291J0D01*
G01*
X-43376Y158395D02*
G03*
X-43376Y158395I-4922J0D01*
G01*
X-22047Y165354D02*
G03*
X-22047Y165354I-19291J0D01*
G01*
X-43376Y117056D02*
G03*
X-43376Y117056I-4922J0D01*
G01*
X-22047Y124016D02*
G03*
X-22047Y124016I-19291J0D01*
G01*
X-43376Y75718D02*
G03*
X-43376Y75718I-4922J0D01*
G01*
X-22047Y82677D02*
G03*
X-22047Y82677I-19291J0D01*
G01*
X-43376Y34379D02*
G03*
X-43376Y34379I-4922J0D01*
G01*
X-22047Y41339D02*
G03*
X-22047Y41339I-19291J0D01*
G01*
X-43376Y-6960D02*
G03*
X-43376Y-6960I-4922J0D01*
G01*
X-22047Y0D02*
G03*
X-22047Y0I-19291J0D01*
G01*
X-84715Y-6861D02*
G03*
X-84715Y-6861I-4922J0D01*
G01*
X-63386Y99D02*
G03*
X-63386Y99I-19291J0D01*
G01*
X-84715Y34477D02*
G03*
X-84715Y34477I-4922J0D01*
G01*
X-63386Y41437D02*
G03*
X-63386Y41437I-19291J0D01*
G01*
X-84715Y75816D02*
G03*
X-84715Y75816I-4922J0D01*
G01*
X-63386Y82776D02*
G03*
X-63386Y82776I-19291J0D01*
G01*
X-84715Y117155D02*
G03*
X-84715Y117155I-4922J0D01*
G01*
X-63386Y124114D02*
G03*
X-63386Y124114I-19291J0D01*
G01*
X-84715Y158493D02*
G03*
X-84715Y158493I-4922J0D01*
G01*
X-63386Y165453D02*
G03*
X-63386Y165453I-19291J0D01*
G01*
X-84715Y199832D02*
G03*
X-84715Y199832I-4922J0D01*
G01*
X-63386Y206791D02*
G03*
X-63386Y206791I-19291J0D01*
G01*
X-84715Y241170D02*
G03*
X-84715Y241170I-4922J0D01*
G01*
X-63386Y248130D02*
G03*
X-63386Y248130I-19291J0D01*
G01*
X-84715Y323847D02*
G03*
X-84715Y323847I-4922J0D01*
G01*
X-63386Y330807D02*
G03*
X-63386Y330807I-19291J0D01*
G01*
X-84715Y282509D02*
G03*
X-84715Y282509I-4922J0D01*
G01*
X-63386Y289469D02*
G03*
X-63386Y289469I-19291J0D01*
G01*
X-126053Y-6763D02*
G03*
X-126053Y-6763I-4922J0D01*
G01*
X-104725Y197D02*
G03*
X-104725Y197I-19291J0D01*
G01*
X-126053Y34576D02*
G03*
X-126053Y34576I-4922J0D01*
G01*
X-104725Y41535D02*
G03*
X-104725Y41535I-19291J0D01*
G01*
X-126053Y75914D02*
G03*
X-126053Y75914I-4922J0D01*
G01*
X-104725Y82874D02*
G03*
X-104725Y82874I-19291J0D01*
G01*
X-126053Y117253D02*
G03*
X-126053Y117253I-4922J0D01*
G01*
X-104724Y124213D02*
G03*
X-104724Y124213I-19291J0D01*
G01*
X-126053Y158591D02*
G03*
X-126053Y158591I-4922J0D01*
G01*
X-104724Y165551D02*
G03*
X-104724Y165551I-19291J0D01*
G01*
X-126053Y199930D02*
G03*
X-126053Y199930I-4922J0D01*
G01*
X-104724Y206890D02*
G03*
X-104724Y206890I-19291J0D01*
G01*
X-126053Y241269D02*
G03*
X-126053Y241269I-4922J0D01*
G01*
X-104724Y248228D02*
G03*
X-104724Y248228I-19291J0D01*
G01*
X-126053Y323946D02*
G03*
X-126053Y323946I-4922J0D01*
G01*
X-104724Y330906D02*
G03*
X-104724Y330906I-19291J0D01*
G01*
X-126053Y282607D02*
G03*
X-126053Y282607I-4922J0D01*
G01*
X-104724Y289567D02*
G03*
X-104724Y289567I-19291J0D01*
G01*
X-167392Y-6664D02*
G03*
X-167392Y-6664I-4922J0D01*
G01*
X-146063Y295D02*
G03*
X-146063Y295I-19291J0D01*
G01*
X-167392Y34674D02*
G03*
X-167392Y34674I-4922J0D01*
G01*
X-146063Y41634D02*
G03*
X-146063Y41634I-19291J0D01*
G01*
X-167392Y76013D02*
G03*
X-167392Y76013I-4922J0D01*
G01*
X-146063Y82973D02*
G03*
X-146063Y82973I-19291J0D01*
G01*
X-167392Y117351D02*
G03*
X-167392Y117351I-4922J0D01*
G01*
X-146063Y124311D02*
G03*
X-146063Y124311I-19291J0D01*
G01*
X-167392Y158690D02*
G03*
X-167392Y158690I-4922J0D01*
G01*
X-146063Y165650D02*
G03*
X-146063Y165650I-19291J0D01*
G01*
X-167392Y200028D02*
G03*
X-167392Y200028I-4922J0D01*
G01*
X-146063Y206988D02*
G03*
X-146063Y206988I-19291J0D01*
G01*
X-167392Y241367D02*
G03*
X-167392Y241367I-4922J0D01*
G01*
X-146063Y248327D02*
G03*
X-146063Y248327I-19291J0D01*
G01*
X-167392Y324044D02*
G03*
X-167392Y324044I-4922J0D01*
G01*
X-146063Y331004D02*
G03*
X-146063Y331004I-19291J0D01*
G01*
X-167392Y282706D02*
G03*
X-167392Y282706I-4922J0D01*
G01*
X-146063Y289665D02*
G03*
X-146063Y289665I-19291J0D01*
G01*
X-208731Y-6566D02*
G03*
X-208731Y-6566I-4922J0D01*
G01*
X-187402Y394D02*
G03*
X-187402Y394I-19291J0D01*
G01*
X-208730Y34773D02*
G03*
X-208730Y34773I-4922J0D01*
G01*
X-187402Y41732D02*
G03*
X-187402Y41732I-19291J0D01*
G01*
X-208730Y76111D02*
G03*
X-208730Y76111I-4922J0D01*
G01*
X-187402Y83071D02*
G03*
X-187402Y83071I-19291J0D01*
G01*
X-208730Y117450D02*
G03*
X-208730Y117450I-4922J0D01*
G01*
X-187402Y124409D02*
G03*
X-187402Y124409I-19291J0D01*
G01*
X-208730Y158788D02*
G03*
X-208730Y158788I-4922J0D01*
G01*
X-187402Y165748D02*
G03*
X-187402Y165748I-19291J0D01*
G01*
X-208730Y200127D02*
G03*
X-208730Y200127I-4922J0D01*
G01*
X-187402Y207087D02*
G03*
X-187402Y207087I-19291J0D01*
G01*
X-208730Y241465D02*
G03*
X-208730Y241465I-4922J0D01*
G01*
X-187402Y248425D02*
G03*
X-187402Y248425I-19291J0D01*
G01*
X-208730Y324143D02*
G03*
X-208730Y324143I-4922J0D01*
G01*
X-187402Y331102D02*
G03*
X-187402Y331102I-19291J0D01*
G01*
X-208730Y282804D02*
G03*
X-208730Y282804I-4922J0D01*
G01*
X-187402Y289764D02*
G03*
X-187402Y289764I-19291J0D01*
G01*
X-250069Y-6468D02*
G03*
X-250069Y-6468I-4922J0D01*
G01*
X-228740Y492D02*
G03*
X-228740Y492I-19291J0D01*
G01*
X-250069Y34871D02*
G03*
X-250069Y34871I-4922J0D01*
G01*
X-228740Y41831D02*
G03*
X-228740Y41831I-19291J0D01*
G01*
X-250069Y76210D02*
G03*
X-250069Y76210I-4922J0D01*
G01*
X-228740Y83169D02*
G03*
X-228740Y83169I-19291J0D01*
G01*
X-250069Y117548D02*
G03*
X-250069Y117548I-4922J0D01*
G01*
X-228740Y124508D02*
G03*
X-228740Y124508I-19291J0D01*
G01*
X-250069Y158887D02*
G03*
X-250069Y158887I-4922J0D01*
G01*
X-228740Y165847D02*
G03*
X-228740Y165847I-19291J0D01*
G01*
X-250069Y200225D02*
G03*
X-250069Y200225I-4922J0D01*
G01*
X-228740Y207185D02*
G03*
X-228740Y207185I-19291J0D01*
G01*
X-250069Y241564D02*
G03*
X-250069Y241564I-4922J0D01*
G01*
X-228740Y248524D02*
G03*
X-228740Y248524I-19291J0D01*
G01*
X-250069Y324241D02*
G03*
X-250069Y324241I-4922J0D01*
G01*
X-228740Y331201D02*
G03*
X-228740Y331201I-19291J0D01*
G01*
X-250069Y282903D02*
G03*
X-250069Y282903I-4922J0D01*
G01*
X-228740Y289862D02*
G03*
X-228740Y289862I-19291J0D01*
G01*
X-291408Y-6369D02*
G03*
X-291408Y-6369I-4922J0D01*
G01*
X-270079Y591D02*
G03*
X-270079Y591I-19291J0D01*
G01*
X-291408Y34969D02*
G03*
X-291408Y34969I-4922J0D01*
G01*
X-270079Y41929D02*
G03*
X-270079Y41929I-19291J0D01*
G01*
X-291408Y76308D02*
G03*
X-291408Y76308I-4922J0D01*
G01*
X-270079Y83268D02*
G03*
X-270079Y83268I-19291J0D01*
G01*
X-291408Y117647D02*
G03*
X-291408Y117647I-4922J0D01*
G01*
X-270079Y124606D02*
G03*
X-270079Y124606I-19291J0D01*
G01*
X-291408Y158985D02*
G03*
X-291408Y158985I-4922J0D01*
G01*
X-270079Y165945D02*
G03*
X-270079Y165945I-19291J0D01*
G01*
X-291408Y200324D02*
G03*
X-291408Y200324I-4922J0D01*
G01*
X-270079Y207283D02*
G03*
X-270079Y207283I-19291J0D01*
G01*
X-291407Y241662D02*
G03*
X-291407Y241662I-4922J0D01*
G01*
X-270079Y248622D02*
G03*
X-270079Y248622I-19291J0D01*
G01*
X-291407Y324340D02*
G03*
X-291407Y324340I-4922J0D01*
G01*
X-270079Y331299D02*
G03*
X-270079Y331299I-19291J0D01*
G01*
X-291407Y283001D02*
G03*
X-291407Y283001I-4922J0D01*
G01*
X-270079Y289961D02*
G03*
X-270079Y289961I-19291J0D01*
G01*
X-332746Y-6271D02*
G03*
X-332746Y-6271I-4922J0D01*
G01*
X-311417Y689D02*
G03*
X-311417Y689I-19291J0D01*
G01*
X-332746Y35068D02*
G03*
X-332746Y35068I-4922J0D01*
G01*
X-311417Y42028D02*
G03*
X-311417Y42028I-19291J0D01*
G01*
X-332746Y76407D02*
G03*
X-332746Y76407I-4922J0D01*
G01*
X-311417Y83366D02*
G03*
X-311417Y83366I-19291J0D01*
G01*
X-332746Y117745D02*
G03*
X-332746Y117745I-4922J0D01*
G01*
X-311417Y124705D02*
G03*
X-311417Y124705I-19291J0D01*
G01*
X-332746Y159084D02*
G03*
X-332746Y159084I-4922J0D01*
G01*
X-311417Y166043D02*
G03*
X-311417Y166043I-19291J0D01*
G01*
X-332746Y200422D02*
G03*
X-332746Y200422I-4922J0D01*
G01*
X-311417Y207382D02*
G03*
X-311417Y207382I-19291J0D01*
G01*
X-332746Y241761D02*
G03*
X-332746Y241761I-4922J0D01*
G01*
X-311417Y248720D02*
G03*
X-311417Y248720I-19291J0D01*
G01*
X-332746Y324438D02*
G03*
X-332746Y324438I-4922J0D01*
G01*
X-311417Y331398D02*
G03*
X-311417Y331398I-19291J0D01*
G01*
X-332746Y283099D02*
G03*
X-332746Y283099I-4922J0D01*
G01*
X-311417Y290059D02*
G03*
X-311417Y290059I-19291J0D01*
G01*
X-367125Y51181D02*
G03*
X-367125Y51181I-4922J0D01*
G01*
X-352756Y41339D02*
G03*
X-352756Y41339I-19291J0D01*
G01*
X-367125Y92520D02*
G03*
X-367125Y92520I-4922J0D01*
G01*
X-352756Y82677D02*
G03*
X-352756Y82677I-19291J0D01*
G01*
X-367125Y133858D02*
G03*
X-367125Y133858I-4922J0D01*
G01*
X-352756Y124016D02*
G03*
X-352756Y124016I-19291J0D01*
G01*
X-367125Y175197D02*
G03*
X-367125Y175197I-4922J0D01*
G01*
X-352756Y165354D02*
G03*
X-352756Y165354I-19291J0D01*
G01*
X-367125Y216535D02*
G03*
X-367125Y216535I-4922J0D01*
G01*
X-352756Y206693D02*
G03*
X-352756Y206693I-19291J0D01*
G01*
X-367125Y257874D02*
G03*
X-367125Y257874I-4922J0D01*
G01*
X-352756Y248031D02*
G03*
X-352756Y248031I-19291J0D01*
G01*
X-367125Y299213D02*
G03*
X-367125Y299213I-4922J0D01*
G01*
X-352756Y289370D02*
G03*
X-352756Y289370I-19291J0D01*
G01*
X-367125Y340551D02*
G03*
X-367125Y340551I-4922J0D01*
G01*
X-352756Y330709D02*
G03*
X-352756Y330709I-19291J0D01*
G01*
X-43376Y282410D02*
G03*
X-43376Y282410I-4922J0D01*
G01*
X-22047Y289370D02*
G03*
X-22047Y289370I-19291J0D01*
G01*
X-43376Y323749D02*
G03*
X-43376Y323749I-4922J0D01*
G01*
X-22047Y330709D02*
G03*
X-22047Y330709I-19291J0D01*
G01*
X-274605Y372047D02*
G03*
X-274605Y372047I-4922J0D01*
G01*
X-270079D02*
G03*
X-270079Y372047I-19291J0D01*
G01*
X-367125Y9843D02*
G03*
X-367125Y9843I-4922J0D01*
G01*
X-352756Y0D02*
G03*
X-352756Y0I-19291J0D01*
G01*
X-367027Y-238189D02*
G03*
X-367027Y-238189I-4922J0D01*
G01*
X-352658Y-248031D02*
G03*
X-352658Y-248031I-19291J0D01*
G01*
X-366928Y-196850D02*
G03*
X-366928Y-196850I-4922J0D01*
G01*
X-352559Y-206693D02*
G03*
X-352559Y-206693I-19291J0D01*
G01*
X-366830Y-155512D02*
G03*
X-366830Y-155512I-4922J0D01*
G01*
X-352461Y-165354D02*
G03*
X-352461Y-165354I-19291J0D01*
G01*
X-366731Y-114173D02*
G03*
X-366731Y-114173I-4922J0D01*
G01*
X-352362Y-124016D02*
G03*
X-352362Y-124016I-19291J0D01*
G01*
X-366633Y-72835D02*
G03*
X-366633Y-72835I-4922J0D01*
G01*
X-352264Y-82677D02*
G03*
X-352264Y-82677I-19291J0D01*
G01*
X-366534Y-31496D02*
G03*
X-366534Y-31496I-4922J0D01*
G01*
X-352165Y-41339D02*
G03*
X-352165Y-41339I-19291J0D01*
G01*
X-367223Y-320866D02*
G03*
X-367223Y-320866I-4922J0D01*
G01*
X-352854Y-330709D02*
G03*
X-352854Y-330709I-19291J0D01*
G01*
X-236150Y-48298D02*
G03*
X-236150Y-48298I-4922J0D01*
G01*
X-228740Y-41339D02*
G03*
X-228740Y-41339I-19291J0D01*
G01*
X-194811Y-48298D02*
G03*
X-194811Y-48298I-4922J0D01*
G01*
X-187402Y-41339D02*
G03*
X-187402Y-41339I-19291J0D01*
G01*
X-153472Y-48298D02*
G03*
X-153472Y-48298I-4922J0D01*
G01*
X-146063Y-41339D02*
G03*
X-146063Y-41339I-19291J0D01*
G01*
X-112134Y-48298D02*
G03*
X-112134Y-48298I-4922J0D01*
G01*
X-104725Y-41339D02*
G03*
X-104725Y-41339I-19291J0D01*
G01*
X-70795Y-48298D02*
G03*
X-70795Y-48298I-4922J0D01*
G01*
X-63386Y-41339D02*
G03*
X-63386Y-41339I-19291J0D01*
G01*
X-29457Y-48298D02*
G03*
X-29457Y-48298I-4922J0D01*
G01*
X-22047Y-41339D02*
G03*
X-22047Y-41339I-19291J0D01*
G01*
X11882Y-48298D02*
G03*
X11882Y-48298I-4922J0D01*
G01*
X19291Y-41339D02*
G03*
X19291Y-41339I-19291J0D01*
G01*
X11783Y-89637D02*
G03*
X11783Y-89637I-4922J0D01*
G01*
X19193Y-82677D02*
G03*
X19193Y-82677I-19291J0D01*
G01*
X-29555Y-89637D02*
G03*
X-29555Y-89637I-4922J0D01*
G01*
X-22146Y-82677D02*
G03*
X-22146Y-82677I-19291J0D01*
G01*
X-70894Y-89637D02*
G03*
X-70894Y-89637I-4922J0D01*
G01*
X-63484Y-82677D02*
G03*
X-63484Y-82677I-19291J0D01*
G01*
X-112232Y-89637D02*
G03*
X-112232Y-89637I-4922J0D01*
G01*
X-104823Y-82677D02*
G03*
X-104823Y-82677I-19291J0D01*
G01*
X-153571Y-89637D02*
G03*
X-153571Y-89637I-4922J0D01*
G01*
X-146161Y-82677D02*
G03*
X-146161Y-82677I-19291J0D01*
G01*
X-194909Y-89637D02*
G03*
X-194909Y-89637I-4922J0D01*
G01*
X-187500Y-82677D02*
G03*
X-187500Y-82677I-19291J0D01*
G01*
X-236248Y-89637D02*
G03*
X-236248Y-89637I-4922J0D01*
G01*
X-228839Y-82677D02*
G03*
X-228839Y-82677I-19291J0D01*
G01*
X-318925Y-89637D02*
G03*
X-318925Y-89637I-4922J0D01*
G01*
X-311516Y-82677D02*
G03*
X-311516Y-82677I-19291J0D01*
G01*
X-277587Y-89637D02*
G03*
X-277587Y-89637I-4922J0D01*
G01*
X-270177Y-82677D02*
G03*
X-270177Y-82677I-19291J0D01*
G01*
X11685Y-130975D02*
G03*
X11685Y-130975I-4922J0D01*
G01*
X19094Y-124016D02*
G03*
X19094Y-124016I-19291J0D01*
G01*
X-29654Y-130975D02*
G03*
X-29654Y-130975I-4922J0D01*
G01*
X-22244Y-124016D02*
G03*
X-22244Y-124016I-19291J0D01*
G01*
X-70992Y-130975D02*
G03*
X-70992Y-130975I-4922J0D01*
G01*
X-63583Y-124016D02*
G03*
X-63583Y-124016I-19291J0D01*
G01*
X-112331Y-130975D02*
G03*
X-112331Y-130975I-4922J0D01*
G01*
X-104921Y-124016D02*
G03*
X-104921Y-124016I-19291J0D01*
G01*
X-153669Y-130975D02*
G03*
X-153669Y-130975I-4922J0D01*
G01*
X-146260Y-124016D02*
G03*
X-146260Y-124016I-19291J0D01*
G01*
X-195008Y-130975D02*
G03*
X-195008Y-130975I-4922J0D01*
G01*
X-187598Y-124016D02*
G03*
X-187598Y-124016I-19291J0D01*
G01*
X-236346Y-130975D02*
G03*
X-236346Y-130975I-4922J0D01*
G01*
X-228937Y-124016D02*
G03*
X-228937Y-124016I-19291J0D01*
G01*
X-319023Y-130975D02*
G03*
X-319023Y-130975I-4922J0D01*
G01*
X-311614Y-124016D02*
G03*
X-311614Y-124016I-19291J0D01*
G01*
X-277685Y-130975D02*
G03*
X-277685Y-130975I-4922J0D01*
G01*
X-270276Y-124016D02*
G03*
X-270276Y-124016I-19291J0D01*
G01*
X11587Y-172314D02*
G03*
X11587Y-172314I-4922J0D01*
G01*
X18996Y-165354D02*
G03*
X18996Y-165354I-19291J0D01*
G01*
X-29752Y-172314D02*
G03*
X-29752Y-172314I-4922J0D01*
G01*
X-22343Y-165354D02*
G03*
X-22343Y-165354I-19291J0D01*
G01*
X-71091Y-172314D02*
G03*
X-71091Y-172314I-4922J0D01*
G01*
X-63681Y-165354D02*
G03*
X-63681Y-165354I-19291J0D01*
G01*
X-112429Y-172314D02*
G03*
X-112429Y-172314I-4922J0D01*
G01*
X-105020Y-165354D02*
G03*
X-105020Y-165354I-19291J0D01*
G01*
X-153768Y-172314D02*
G03*
X-153768Y-172314I-4922J0D01*
G01*
X-146358Y-165354D02*
G03*
X-146358Y-165354I-19291J0D01*
G01*
X-195106Y-172314D02*
G03*
X-195106Y-172314I-4922J0D01*
G01*
X-187697Y-165354D02*
G03*
X-187697Y-165354I-19291J0D01*
G01*
X-236445Y-172314D02*
G03*
X-236445Y-172314I-4922J0D01*
G01*
X-229035Y-165354D02*
G03*
X-229035Y-165354I-19291J0D01*
G01*
X-319122Y-172314D02*
G03*
X-319122Y-172314I-4922J0D01*
G01*
X-311713Y-165354D02*
G03*
X-311713Y-165354I-19291J0D01*
G01*
X-277783Y-172314D02*
G03*
X-277783Y-172314I-4922J0D01*
G01*
X-270374Y-165354D02*
G03*
X-270374Y-165354I-19291J0D01*
G01*
X11488Y-213653D02*
G03*
X11488Y-213653I-4922J0D01*
G01*
X18898Y-206693D02*
G03*
X18898Y-206693I-19291J0D01*
G01*
X-29850Y-213653D02*
G03*
X-29850Y-213653I-4922J0D01*
G01*
X-22441Y-206693D02*
G03*
X-22441Y-206693I-19291J0D01*
G01*
X-71189Y-213653D02*
G03*
X-71189Y-213653I-4922J0D01*
G01*
X-63780Y-206693D02*
G03*
X-63780Y-206693I-19291J0D01*
G01*
X-112528Y-213653D02*
G03*
X-112528Y-213653I-4922J0D01*
G01*
X-105118Y-206693D02*
G03*
X-105118Y-206693I-19291J0D01*
G01*
X-153866Y-213653D02*
G03*
X-153866Y-213653I-4922J0D01*
G01*
X-146457Y-206693D02*
G03*
X-146457Y-206693I-19291J0D01*
G01*
X-195205Y-213653D02*
G03*
X-195205Y-213653I-4922J0D01*
G01*
X-187795Y-206693D02*
G03*
X-187795Y-206693I-19291J0D01*
G01*
X-236543Y-213653D02*
G03*
X-236543Y-213653I-4922J0D01*
G01*
X-229134Y-206693D02*
G03*
X-229134Y-206693I-19291J0D01*
G01*
X-319220Y-213653D02*
G03*
X-319220Y-213653I-4922J0D01*
G01*
X-311811Y-206693D02*
G03*
X-311811Y-206693I-19291J0D01*
G01*
X-277882Y-213653D02*
G03*
X-277882Y-213653I-4922J0D01*
G01*
X-270472Y-206693D02*
G03*
X-270472Y-206693I-19291J0D01*
G01*
X11390Y-254991D02*
G03*
X11390Y-254991I-4922J0D01*
G01*
X18799Y-248032D02*
G03*
X18799Y-248032I-19291J0D01*
G01*
X-29949Y-254991D02*
G03*
X-29949Y-254991I-4922J0D01*
G01*
X-22539Y-248031D02*
G03*
X-22539Y-248031I-19291J0D01*
G01*
X-71287Y-254991D02*
G03*
X-71287Y-254991I-4922J0D01*
G01*
X-63878Y-248031D02*
G03*
X-63878Y-248031I-19291J0D01*
G01*
X-112626Y-254991D02*
G03*
X-112626Y-254991I-4922J0D01*
G01*
X-105217Y-248031D02*
G03*
X-105217Y-248031I-19291J0D01*
G01*
X-153964Y-254991D02*
G03*
X-153964Y-254991I-4922J0D01*
G01*
X-146555Y-248031D02*
G03*
X-146555Y-248031I-19291J0D01*
G01*
X-195303Y-254991D02*
G03*
X-195303Y-254991I-4922J0D01*
G01*
X-187894Y-248031D02*
G03*
X-187894Y-248031I-19291J0D01*
G01*
X-236642Y-254991D02*
G03*
X-236642Y-254991I-4922J0D01*
G01*
X-229232Y-248031D02*
G03*
X-229232Y-248031I-19291J0D01*
G01*
X-319319Y-254991D02*
G03*
X-319319Y-254991I-4922J0D01*
G01*
X-311909Y-248031D02*
G03*
X-311909Y-248031I-19291J0D01*
G01*
X-277980Y-254991D02*
G03*
X-277980Y-254991I-4922J0D01*
G01*
X-270571Y-248031D02*
G03*
X-270571Y-248031I-19291J0D01*
G01*
X11291Y-296330D02*
G03*
X11291Y-296330I-4922J0D01*
G01*
X18701Y-289370D02*
G03*
X18701Y-289370I-19291J0D01*
G01*
X-30047Y-296330D02*
G03*
X-30047Y-296330I-4922J0D01*
G01*
X-22638Y-289370D02*
G03*
X-22638Y-289370I-19291J0D01*
G01*
X-71386Y-296330D02*
G03*
X-71386Y-296330I-4922J0D01*
G01*
X-63976Y-289370D02*
G03*
X-63976Y-289370I-19291J0D01*
G01*
X-112724Y-296330D02*
G03*
X-112724Y-296330I-4922J0D01*
G01*
X-105315Y-289370D02*
G03*
X-105315Y-289370I-19291J0D01*
G01*
X-154063Y-296330D02*
G03*
X-154063Y-296330I-4922J0D01*
G01*
X-146653Y-289370D02*
G03*
X-146653Y-289370I-19291J0D01*
G01*
X-195402Y-296330D02*
G03*
X-195402Y-296330I-4922J0D01*
G01*
X-187992Y-289370D02*
G03*
X-187992Y-289370I-19291J0D01*
G01*
X-236740Y-296330D02*
G03*
X-236740Y-296330I-4922J0D01*
G01*
X-229331Y-289370D02*
G03*
X-229331Y-289370I-19291J0D01*
G01*
X-319417Y-296330D02*
G03*
X-319417Y-296330I-4922J0D01*
G01*
X-312008Y-289370D02*
G03*
X-312008Y-289370I-19291J0D01*
G01*
X-278079Y-296330D02*
G03*
X-278079Y-296330I-4922J0D01*
G01*
X-270669Y-289370D02*
G03*
X-270669Y-289370I-19291J0D01*
G01*
X11193Y-337668D02*
G03*
X11193Y-337668I-4922J0D01*
G01*
X18602Y-330709D02*
G03*
X18602Y-330709I-19291J0D01*
G01*
X-30146Y-337668D02*
G03*
X-30146Y-337668I-4922J0D01*
G01*
X-22736Y-330709D02*
G03*
X-22736Y-330709I-19291J0D01*
G01*
X-71484Y-337668D02*
G03*
X-71484Y-337668I-4922J0D01*
G01*
X-64075Y-330709D02*
G03*
X-64075Y-330709I-19291J0D01*
G01*
X-112823Y-337668D02*
G03*
X-112823Y-337668I-4922J0D01*
G01*
X-105413Y-330709D02*
G03*
X-105413Y-330709I-19291J0D01*
G01*
X-154161Y-337668D02*
G03*
X-154161Y-337668I-4922J0D01*
G01*
X-146752Y-330709D02*
G03*
X-146752Y-330709I-19291J0D01*
G01*
X-195500Y-337668D02*
G03*
X-195500Y-337668I-4922J0D01*
G01*
X-188091Y-330709D02*
G03*
X-188091Y-330709I-19291J0D01*
G01*
X-236839Y-337668D02*
G03*
X-236839Y-337668I-4922J0D01*
G01*
X-229429Y-330709D02*
G03*
X-229429Y-330709I-19291J0D01*
G01*
X-319516Y-337668D02*
G03*
X-319516Y-337668I-4922J0D01*
G01*
X-312106Y-330709D02*
G03*
X-312106Y-330709I-19291J0D01*
G01*
X-278177Y-337668D02*
G03*
X-278177Y-337668I-4922J0D01*
G01*
X-270768Y-330709D02*
G03*
X-270768Y-330709I-19291J0D01*
G01*
X-46259Y-372047D02*
G03*
X-46259Y-372047I-4922J0D01*
G01*
X-22047D02*
G03*
X-22047Y-372047I-19291J0D01*
G01*
X-87597Y-372047D02*
G03*
X-87597Y-372047I-4922J0D01*
G01*
X-63386D02*
G03*
X-63386Y-372047I-19291J0D01*
G01*
X-128936Y-372047D02*
G03*
X-128936Y-372047I-4922J0D01*
G01*
X-104724D02*
G03*
X-104724Y-372047I-19291J0D01*
G01*
X-170275Y-372047D02*
G03*
X-170275Y-372047I-4922J0D01*
G01*
X-146063D02*
G03*
X-146063Y-372047I-19291J0D01*
G01*
X-211613Y-372047D02*
G03*
X-211613Y-372047I-4922J0D01*
G01*
X-187401D02*
G03*
X-187401Y-372047I-19291J0D01*
G01*
X-252952Y-372047D02*
G03*
X-252952Y-372047I-4922J0D01*
G01*
X-228740D02*
G03*
X-228740Y-372047I-19291J0D01*
G01*
X-294290Y-372047D02*
G03*
X-294290Y-372047I-4922J0D01*
G01*
X-270079D02*
G03*
X-270079Y-372047I-19291J0D01*
G01*
X-335629Y-372047D02*
G03*
X-335629Y-372047I-4922J0D01*
G01*
X-311417D02*
G03*
X-311417Y-372047I-19291J0D01*
G01*
X-277488Y-48298D02*
G03*
X-277488Y-48298I-4922J0D01*
G01*
X-270079Y-41339D02*
G03*
X-270079Y-41339I-19291J0D01*
G01*
X-318827Y-48298D02*
G03*
X-318827Y-48298I-4922J0D01*
G01*
X-311417Y-41339D02*
G03*
X-311417Y-41339I-19291J0D01*
G01*
X-367125Y-279528D02*
G03*
X-367125Y-279528I-4922J0D01*
G01*
X-352756Y-289370D02*
G03*
X-352756Y-289370I-19291J0D01*
G01*
X-4920Y-372047D02*
G03*
X-4920Y-372047I-4922J0D01*
G01*
X19291D02*
G03*
X19291Y-372047I-19291J0D01*
G01*
X243111Y-371949D02*
G03*
X243111Y-371949I-4922J0D01*
G01*
X267323D02*
G03*
X267323Y-371949I-19291J0D01*
G01*
X201773Y-371850D02*
G03*
X201773Y-371850I-4922J0D01*
G01*
X225984D02*
G03*
X225984Y-371850I-19291J0D01*
G01*
X160434Y-371752D02*
G03*
X160434Y-371752I-4922J0D01*
G01*
X184646D02*
G03*
X184646Y-371752I-19291J0D01*
G01*
X119096Y-371654D02*
G03*
X119096Y-371654I-4922J0D01*
G01*
X143307D02*
G03*
X143307Y-371654I-19291J0D01*
G01*
X77757Y-371555D02*
G03*
X77757Y-371555I-4922J0D01*
G01*
X101969D02*
G03*
X101969Y-371555I-19291J0D01*
G01*
X36418Y-371457D02*
G03*
X36418Y-371457I-4922J0D01*
G01*
X60630D02*
G03*
X60630Y-371457I-19291J0D01*
G01*
X325788Y-372146D02*
G03*
X325788Y-372146I-4922J0D01*
G01*
X350000D02*
G03*
X350000Y-372146I-19291J0D01*
G01*
X53221Y-241072D02*
G03*
X53221Y-241072I-4922J0D01*
G01*
X60630Y-248031D02*
G03*
X60630Y-248031I-19291J0D01*
G01*
X53221Y-199733D02*
G03*
X53221Y-199733I-4922J0D01*
G01*
X60630Y-206693D02*
G03*
X60630Y-206693I-19291J0D01*
G01*
X53221Y-158395D02*
G03*
X53221Y-158395I-4922J0D01*
G01*
X60630Y-165354D02*
G03*
X60630Y-165354I-19291J0D01*
G01*
X53221Y-117056D02*
G03*
X53221Y-117056I-4922J0D01*
G01*
X60630Y-124016D02*
G03*
X60630Y-124016I-19291J0D01*
G01*
X53221Y-75718D02*
G03*
X53221Y-75718I-4922J0D01*
G01*
X60630Y-82677D02*
G03*
X60630Y-82677I-19291J0D01*
G01*
X53221Y-34379D02*
G03*
X53221Y-34379I-4922J0D01*
G01*
X60630Y-41339D02*
G03*
X60630Y-41339I-19291J0D01*
G01*
X53221Y6960D02*
G03*
X53221Y6960I-4922J0D01*
G01*
X60630Y-0D02*
G03*
X60630Y-0I-19291J0D01*
G01*
X94559Y6861D02*
G03*
X94559Y6861I-4922J0D01*
G01*
X101969Y-99D02*
G03*
X101969Y-99I-19291J0D01*
G01*
X94559Y-34477D02*
G03*
X94559Y-34477I-4922J0D01*
G01*
X101969Y-41437D02*
G03*
X101969Y-41437I-19291J0D01*
G01*
X94559Y-75816D02*
G03*
X94559Y-75816I-4922J0D01*
G01*
X101969Y-82776D02*
G03*
X101969Y-82776I-19291J0D01*
G01*
X94559Y-117155D02*
G03*
X94559Y-117155I-4922J0D01*
G01*
X101969Y-124114D02*
G03*
X101969Y-124114I-19291J0D01*
G01*
X94559Y-158493D02*
G03*
X94559Y-158493I-4922J0D01*
G01*
X101969Y-165453D02*
G03*
X101969Y-165453I-19291J0D01*
G01*
X94559Y-199832D02*
G03*
X94559Y-199832I-4922J0D01*
G01*
X101969Y-206791D02*
G03*
X101969Y-206791I-19291J0D01*
G01*
X94559Y-241170D02*
G03*
X94559Y-241170I-4922J0D01*
G01*
X101969Y-248130D02*
G03*
X101969Y-248130I-19291J0D01*
G01*
X94559Y-323847D02*
G03*
X94559Y-323847I-4922J0D01*
G01*
X101969Y-330807D02*
G03*
X101969Y-330807I-19291J0D01*
G01*
X94559Y-282509D02*
G03*
X94559Y-282509I-4922J0D01*
G01*
X101969Y-289469D02*
G03*
X101969Y-289469I-19291J0D01*
G01*
X135898Y6763D02*
G03*
X135898Y6763I-4922J0D01*
G01*
X143307Y-197D02*
G03*
X143307Y-197I-19291J0D01*
G01*
X135898Y-34576D02*
G03*
X135898Y-34576I-4922J0D01*
G01*
X143307Y-41535D02*
G03*
X143307Y-41535I-19291J0D01*
G01*
X135898Y-75914D02*
G03*
X135898Y-75914I-4922J0D01*
G01*
X143307Y-82874D02*
G03*
X143307Y-82874I-19291J0D01*
G01*
X135898Y-117253D02*
G03*
X135898Y-117253I-4922J0D01*
G01*
X143307Y-124213D02*
G03*
X143307Y-124213I-19291J0D01*
G01*
X135898Y-158591D02*
G03*
X135898Y-158591I-4922J0D01*
G01*
X143307Y-165551D02*
G03*
X143307Y-165551I-19291J0D01*
G01*
X135898Y-199930D02*
G03*
X135898Y-199930I-4922J0D01*
G01*
X143307Y-206890D02*
G03*
X143307Y-206890I-19291J0D01*
G01*
X135898Y-241269D02*
G03*
X135898Y-241269I-4922J0D01*
G01*
X143307Y-248228D02*
G03*
X143307Y-248228I-19291J0D01*
G01*
X135898Y-323946D02*
G03*
X135898Y-323946I-4922J0D01*
G01*
X143307Y-330906D02*
G03*
X143307Y-330906I-19291J0D01*
G01*
X135898Y-282607D02*
G03*
X135898Y-282607I-4922J0D01*
G01*
X143307Y-289567D02*
G03*
X143307Y-289567I-19291J0D01*
G01*
X177236Y6664D02*
G03*
X177236Y6664I-4922J0D01*
G01*
X184646Y-295D02*
G03*
X184646Y-295I-19291J0D01*
G01*
X177236Y-34674D02*
G03*
X177236Y-34674I-4922J0D01*
G01*
X184646Y-41634D02*
G03*
X184646Y-41634I-19291J0D01*
G01*
X177236Y-76013D02*
G03*
X177236Y-76013I-4922J0D01*
G01*
X184646Y-82973D02*
G03*
X184646Y-82973I-19291J0D01*
G01*
X177236Y-117351D02*
G03*
X177236Y-117351I-4922J0D01*
G01*
X184646Y-124311D02*
G03*
X184646Y-124311I-19291J0D01*
G01*
X177236Y-158690D02*
G03*
X177236Y-158690I-4922J0D01*
G01*
X184646Y-165650D02*
G03*
X184646Y-165650I-19291J0D01*
G01*
X177236Y-200028D02*
G03*
X177236Y-200028I-4922J0D01*
G01*
X184646Y-206988D02*
G03*
X184646Y-206988I-19291J0D01*
G01*
X177236Y-241367D02*
G03*
X177236Y-241367I-4922J0D01*
G01*
X184646Y-248327D02*
G03*
X184646Y-248327I-19291J0D01*
G01*
X177236Y-324044D02*
G03*
X177236Y-324044I-4922J0D01*
G01*
X184646Y-331004D02*
G03*
X184646Y-331004I-19291J0D01*
G01*
X177236Y-282706D02*
G03*
X177236Y-282706I-4922J0D01*
G01*
X184646Y-289665D02*
G03*
X184646Y-289665I-19291J0D01*
G01*
X218575Y6566D02*
G03*
X218575Y6566I-4922J0D01*
G01*
X225984Y-394D02*
G03*
X225984Y-394I-19291J0D01*
G01*
X218575Y-34773D02*
G03*
X218575Y-34773I-4922J0D01*
G01*
X225984Y-41732D02*
G03*
X225984Y-41732I-19291J0D01*
G01*
X218575Y-76111D02*
G03*
X218575Y-76111I-4922J0D01*
G01*
X225984Y-83071D02*
G03*
X225984Y-83071I-19291J0D01*
G01*
X218575Y-117450D02*
G03*
X218575Y-117450I-4922J0D01*
G01*
X225984Y-124409D02*
G03*
X225984Y-124409I-19291J0D01*
G01*
X218575Y-158788D02*
G03*
X218575Y-158788I-4922J0D01*
G01*
X225984Y-165748D02*
G03*
X225984Y-165748I-19291J0D01*
G01*
X218575Y-200127D02*
G03*
X218575Y-200127I-4922J0D01*
G01*
X225984Y-207087D02*
G03*
X225984Y-207087I-19291J0D01*
G01*
X218575Y-241465D02*
G03*
X218575Y-241465I-4922J0D01*
G01*
X225984Y-248425D02*
G03*
X225984Y-248425I-19291J0D01*
G01*
X218575Y-324143D02*
G03*
X218575Y-324143I-4922J0D01*
G01*
X225984Y-331102D02*
G03*
X225984Y-331102I-19291J0D01*
G01*
X218575Y-282804D02*
G03*
X218575Y-282804I-4922J0D01*
G01*
X225984Y-289764D02*
G03*
X225984Y-289764I-19291J0D01*
G01*
X259913Y6468D02*
G03*
X259913Y6468I-4922J0D01*
G01*
X267323Y-492D02*
G03*
X267323Y-492I-19291J0D01*
G01*
X259913Y-34871D02*
G03*
X259913Y-34871I-4922J0D01*
G01*
X267323Y-41831D02*
G03*
X267323Y-41831I-19291J0D01*
G01*
X259913Y-76210D02*
G03*
X259913Y-76210I-4922J0D01*
G01*
X267323Y-83169D02*
G03*
X267323Y-83169I-19291J0D01*
G01*
X259913Y-117548D02*
G03*
X259913Y-117548I-4922J0D01*
G01*
X267323Y-124508D02*
G03*
X267323Y-124508I-19291J0D01*
G01*
X259913Y-158887D02*
G03*
X259913Y-158887I-4922J0D01*
G01*
X267323Y-165847D02*
G03*
X267323Y-165847I-19291J0D01*
G01*
X259913Y-200225D02*
G03*
X259913Y-200225I-4922J0D01*
G01*
X267323Y-207185D02*
G03*
X267323Y-207185I-19291J0D01*
G01*
X259913Y-241564D02*
G03*
X259913Y-241564I-4922J0D01*
G01*
X267323Y-248524D02*
G03*
X267323Y-248524I-19291J0D01*
G01*
X259913Y-324241D02*
G03*
X259913Y-324241I-4922J0D01*
G01*
X267323Y-331201D02*
G03*
X267323Y-331201I-19291J0D01*
G01*
X259913Y-282903D02*
G03*
X259913Y-282903I-4922J0D01*
G01*
X267323Y-289862D02*
G03*
X267323Y-289862I-19291J0D01*
G01*
X301252Y6369D02*
G03*
X301252Y6369I-4922J0D01*
G01*
X308662Y-591D02*
G03*
X308662Y-591I-19291J0D01*
G01*
X301252Y-34969D02*
G03*
X301252Y-34969I-4922J0D01*
G01*
X308662Y-41929D02*
G03*
X308662Y-41929I-19291J0D01*
G01*
X301252Y-76308D02*
G03*
X301252Y-76308I-4922J0D01*
G01*
X308662Y-83268D02*
G03*
X308662Y-83268I-19291J0D01*
G01*
X301252Y-117647D02*
G03*
X301252Y-117647I-4922J0D01*
G01*
X308661Y-124606D02*
G03*
X308661Y-124606I-19291J0D01*
G01*
X301252Y-158985D02*
G03*
X301252Y-158985I-4922J0D01*
G01*
X308661Y-165945D02*
G03*
X308661Y-165945I-19291J0D01*
G01*
X301252Y-200324D02*
G03*
X301252Y-200324I-4922J0D01*
G01*
X308661Y-207283D02*
G03*
X308661Y-207283I-19291J0D01*
G01*
X301252Y-241662D02*
G03*
X301252Y-241662I-4922J0D01*
G01*
X308661Y-248622D02*
G03*
X308661Y-248622I-19291J0D01*
G01*
X301252Y-324340D02*
G03*
X301252Y-324340I-4922J0D01*
G01*
X308661Y-331299D02*
G03*
X308661Y-331299I-19291J0D01*
G01*
X301252Y-283001D02*
G03*
X301252Y-283001I-4922J0D01*
G01*
X308661Y-289961D02*
G03*
X308661Y-289961I-19291J0D01*
G01*
X342591Y6271D02*
G03*
X342591Y6271I-4922J0D01*
G01*
X350000Y-689D02*
G03*
X350000Y-689I-19291J0D01*
G01*
X342591Y-35068D02*
G03*
X342591Y-35068I-4922J0D01*
G01*
X350000Y-42028D02*
G03*
X350000Y-42028I-19291J0D01*
G01*
X342591Y-76407D02*
G03*
X342591Y-76407I-4922J0D01*
G01*
X350000Y-83366D02*
G03*
X350000Y-83366I-19291J0D01*
G01*
X342591Y-117745D02*
G03*
X342591Y-117745I-4922J0D01*
G01*
X350000Y-124705D02*
G03*
X350000Y-124705I-19291J0D01*
G01*
X342591Y-159084D02*
G03*
X342591Y-159084I-4922J0D01*
G01*
X350000Y-166043D02*
G03*
X350000Y-166043I-19291J0D01*
G01*
X342591Y-200422D02*
G03*
X342591Y-200422I-4922J0D01*
G01*
X350000Y-207382D02*
G03*
X350000Y-207382I-19291J0D01*
G01*
X342591Y-241761D02*
G03*
X342591Y-241761I-4922J0D01*
G01*
X350000Y-248720D02*
G03*
X350000Y-248720I-19291J0D01*
G01*
X342591Y-324438D02*
G03*
X342591Y-324438I-4922J0D01*
G01*
X350000Y-331398D02*
G03*
X350000Y-331398I-19291J0D01*
G01*
X342591Y-283099D02*
G03*
X342591Y-283099I-4922J0D01*
G01*
X350000Y-290059D02*
G03*
X350000Y-290059I-19291J0D01*
G01*
X376970Y-51181D02*
G03*
X376970Y-51181I-4922J0D01*
G01*
X391338Y-41339D02*
G03*
X391338Y-41339I-19291J0D01*
G01*
X376969Y-92520D02*
G03*
X376969Y-92520I-4922J0D01*
G01*
X391338Y-82677D02*
G03*
X391338Y-82677I-19291J0D01*
G01*
X376969Y-133858D02*
G03*
X376969Y-133858I-4922J0D01*
G01*
X391338Y-124016D02*
G03*
X391338Y-124016I-19291J0D01*
G01*
X376969Y-175197D02*
G03*
X376969Y-175197I-4922J0D01*
G01*
X391338Y-165354D02*
G03*
X391338Y-165354I-19291J0D01*
G01*
X376969Y-216535D02*
G03*
X376969Y-216535I-4922J0D01*
G01*
X391338Y-206693D02*
G03*
X391338Y-206693I-19291J0D01*
G01*
X376969Y-257874D02*
G03*
X376969Y-257874I-4922J0D01*
G01*
X391338Y-248031D02*
G03*
X391338Y-248031I-19291J0D01*
G01*
X376969Y-299213D02*
G03*
X376969Y-299213I-4922J0D01*
G01*
X391338Y-289370D02*
G03*
X391338Y-289370I-19291J0D01*
G01*
X376969Y-340551D02*
G03*
X376969Y-340551I-4922J0D01*
G01*
X391338Y-330709D02*
G03*
X391338Y-330709I-19291J0D01*
G01*
X53220Y-282410D02*
G03*
X53220Y-282410I-4922J0D01*
G01*
X60630Y-289370D02*
G03*
X60630Y-289370I-19291J0D01*
G01*
X53220Y-323749D02*
G03*
X53220Y-323749I-4922J0D01*
G01*
X60630Y-330709D02*
G03*
X60630Y-330709I-19291J0D01*
G01*
X284450Y-372047D02*
G03*
X284450Y-372047I-4922J0D01*
G01*
X308662D02*
G03*
X308662Y-372047I-19291J0D01*
G01*
X376970Y-9843D02*
G03*
X376970Y-9843I-4922J0D01*
G01*
X391339Y0D02*
G03*
X391339Y0I-19291J0D01*
G01*
X-2038Y-7058D02*
G03*
X-2038Y-7058I-4922J0D01*
G01*
X19291Y-98D02*
G03*
X19291Y-98I-19291J0D01*
G01*
D24*
X408276Y393701D02*
G03*
X408276Y393701I-14575J0D01*
G01*
M02*
