G04 Layer_Color=16711935*
%FSLAX25Y25*%
%MOIN*%
G70*
G01*
G75*
%ADD14C,0.00787*%
%ADD55C,0.00700*%
%ADD56C,0.00394*%
D14*
X408386Y-413386D02*
G03*
X413386Y-408386I0J5000D01*
G01*
Y408386D02*
G03*
X408386Y413386I-5000J0D01*
G01*
X-408386D02*
G03*
X-413386Y408386I0J-5000D01*
G01*
Y-408386D02*
G03*
X-408386Y-413386I5000J0D01*
G01*
X408386D01*
X413386Y-408386D02*
Y408386D01*
X-408386Y413386D02*
X408386D01*
X-413386Y-408386D02*
Y408386D01*
D55*
X-187070Y-175228D02*
Y-171896D01*
X-187736Y-171229D01*
X-189069D01*
X-189736Y-171896D01*
Y-175228D01*
X-193735Y-171229D02*
X-191069D01*
X-193735Y-173895D01*
Y-174561D01*
X-193068Y-175228D01*
X-191735D01*
X-191069Y-174561D01*
X-195068Y-170563D02*
X-197733D01*
X-199066Y-175228D02*
Y-171896D01*
X-199733Y-171229D01*
X-201066D01*
X-201732Y-171896D01*
Y-175228D01*
X-203065Y-170563D02*
X-205731D01*
X-207730Y-173895D02*
X-209063D01*
X-209729Y-173229D01*
Y-171229D01*
X-207730D01*
X-207064Y-171896D01*
X-207730Y-172562D01*
X-209729D01*
X-211062Y-171229D02*
Y-173895D01*
X-211729D01*
X-212395Y-173229D01*
Y-171229D01*
Y-173229D01*
X-213062Y-173895D01*
X-213728Y-173229D01*
Y-171229D01*
X-215061Y-169896D02*
Y-173895D01*
X-217060D01*
X-217727Y-173229D01*
Y-171896D01*
X-217060Y-171229D01*
X-215061D01*
X-219060D02*
X-220393D01*
X-219726D01*
Y-175228D01*
X-219060Y-174561D01*
X-222392D02*
X-223059Y-175228D01*
X-224391D01*
X-225058Y-174561D01*
Y-173895D01*
X-224391Y-173229D01*
X-225058Y-172562D01*
Y-171896D01*
X-224391Y-171229D01*
X-223059D01*
X-222392Y-171896D01*
Y-172562D01*
X-223059Y-173229D01*
X-222392Y-173895D01*
Y-174561D01*
X-223059Y-173229D02*
X-224391D01*
X-226391Y-170563D02*
X-229057D01*
X-230389Y-171229D02*
X-231722D01*
X-231056D01*
Y-175228D01*
X-230389Y-174561D01*
X252268Y-316803D02*
Y-313471D01*
X251601Y-312805D01*
X250268D01*
X249602Y-313471D01*
Y-316803D01*
X245603Y-312805D02*
X248269D01*
X245603Y-315471D01*
Y-316137D01*
X246270Y-316803D01*
X247603D01*
X248269Y-316137D01*
X244270Y-312138D02*
X241604D01*
X240272Y-316803D02*
Y-313471D01*
X239605Y-312805D01*
X238272D01*
X237606Y-313471D01*
Y-316803D01*
X236273Y-312138D02*
X233607D01*
X231608Y-315471D02*
X230275D01*
X229608Y-314804D01*
Y-312805D01*
X231608D01*
X232274Y-313471D01*
X231608Y-314138D01*
X229608D01*
X228275Y-312805D02*
Y-315471D01*
X227609D01*
X226942Y-314804D01*
Y-312805D01*
Y-314804D01*
X226276Y-315471D01*
X225610Y-314804D01*
Y-312805D01*
X224277Y-311472D02*
Y-315471D01*
X222277D01*
X221611Y-314804D01*
Y-313471D01*
X222277Y-312805D01*
X224277D01*
X220278D02*
X218945D01*
X219612D01*
Y-316803D01*
X220278Y-316137D01*
X216946D02*
X216279Y-316803D01*
X214946D01*
X214280Y-316137D01*
Y-315471D01*
X214946Y-314804D01*
X215613D01*
X214946D01*
X214280Y-314138D01*
Y-313471D01*
X214946Y-312805D01*
X216279D01*
X216946Y-313471D01*
X212947Y-312138D02*
X210281D01*
X208948Y-312805D02*
X207615D01*
X208282D01*
Y-316803D01*
X208948Y-316137D01*
X-337821Y-316803D02*
Y-313471D01*
X-338487Y-312805D01*
X-339820D01*
X-340486Y-313471D01*
Y-316803D01*
X-344485Y-312805D02*
X-341819D01*
X-344485Y-315471D01*
Y-316137D01*
X-343819Y-316803D01*
X-342486D01*
X-341819Y-316137D01*
X-345818Y-312138D02*
X-348484D01*
X-349817Y-316803D02*
Y-313471D01*
X-350483Y-312805D01*
X-351816D01*
X-352483Y-313471D01*
Y-316803D01*
X-353815Y-312138D02*
X-356481D01*
X-358481Y-315471D02*
X-359813D01*
X-360480Y-314804D01*
Y-312805D01*
X-358481D01*
X-357814Y-313471D01*
X-358481Y-314138D01*
X-360480D01*
X-361813Y-312805D02*
Y-315471D01*
X-362479D01*
X-363146Y-314804D01*
Y-312805D01*
Y-314804D01*
X-363812Y-315471D01*
X-364479Y-314804D01*
Y-312805D01*
X-365811Y-311472D02*
Y-315471D01*
X-367811D01*
X-368477Y-314804D01*
Y-313471D01*
X-367811Y-312805D01*
X-365811D01*
X-369810D02*
X-371143D01*
X-370477D01*
Y-316803D01*
X-369810Y-316137D01*
X-373143Y-312138D02*
X-375808D01*
X-377141Y-312805D02*
X-378474D01*
X-377808D01*
Y-316803D01*
X-377141Y-316137D01*
X-288647Y-316803D02*
Y-313471D01*
X-289313Y-312805D01*
X-290646D01*
X-291312Y-313471D01*
Y-316803D01*
X-295311Y-312805D02*
X-292645D01*
X-295311Y-315471D01*
Y-316137D01*
X-294645Y-316803D01*
X-293312D01*
X-292645Y-316137D01*
X-296644Y-312138D02*
X-299310D01*
X-300643Y-316803D02*
Y-313471D01*
X-301309Y-312805D01*
X-302642D01*
X-303308Y-313471D01*
Y-316803D01*
X-304641Y-312138D02*
X-307307D01*
X-309307Y-315471D02*
X-310639D01*
X-311306Y-314804D01*
Y-312805D01*
X-309307D01*
X-308640Y-313471D01*
X-309307Y-314138D01*
X-311306D01*
X-312639Y-312805D02*
Y-315471D01*
X-313305D01*
X-313972Y-314804D01*
Y-312805D01*
Y-314804D01*
X-314638Y-315471D01*
X-315305Y-314804D01*
Y-312805D01*
X-316637Y-311472D02*
Y-315471D01*
X-318637D01*
X-319303Y-314804D01*
Y-313471D01*
X-318637Y-312805D01*
X-316637D01*
X-323302D02*
X-320636D01*
X-323302Y-315471D01*
Y-316137D01*
X-322636Y-316803D01*
X-321303D01*
X-320636Y-316137D01*
X-324635Y-312138D02*
X-327301D01*
X-328634Y-312805D02*
X-329966D01*
X-329300D01*
Y-316803D01*
X-328634Y-316137D01*
X-239473Y-316803D02*
Y-313471D01*
X-240139Y-312805D01*
X-241472D01*
X-242138Y-313471D01*
Y-316803D01*
X-246137Y-312805D02*
X-243471D01*
X-246137Y-315471D01*
Y-316137D01*
X-245471Y-316803D01*
X-244138D01*
X-243471Y-316137D01*
X-247470Y-312138D02*
X-250136D01*
X-251469Y-316803D02*
Y-313471D01*
X-252135Y-312805D01*
X-253468D01*
X-254134Y-313471D01*
Y-316803D01*
X-255467Y-312138D02*
X-258133D01*
X-260133Y-315471D02*
X-261465D01*
X-262132Y-314804D01*
Y-312805D01*
X-260133D01*
X-259466Y-313471D01*
X-260133Y-314138D01*
X-262132D01*
X-263465Y-312805D02*
Y-315471D01*
X-264131D01*
X-264798Y-314804D01*
Y-312805D01*
Y-314804D01*
X-265464Y-315471D01*
X-266130Y-314804D01*
Y-312805D01*
X-267463Y-311472D02*
Y-315471D01*
X-269463D01*
X-270129Y-314804D01*
Y-313471D01*
X-269463Y-312805D01*
X-267463D01*
X-271462Y-316137D02*
X-272129Y-316803D01*
X-273462D01*
X-274128Y-316137D01*
Y-315471D01*
X-273462Y-314804D01*
X-272795D01*
X-273462D01*
X-274128Y-314138D01*
Y-313471D01*
X-273462Y-312805D01*
X-272129D01*
X-271462Y-313471D01*
X-275461Y-312138D02*
X-278127D01*
X-279460Y-312805D02*
X-280792D01*
X-280126D01*
Y-316803D01*
X-279460Y-316137D01*
X-190298Y-316803D02*
Y-313471D01*
X-190965Y-312805D01*
X-192298D01*
X-192964Y-313471D01*
Y-316803D01*
X-196963Y-312805D02*
X-194297D01*
X-196963Y-315471D01*
Y-316137D01*
X-196297Y-316803D01*
X-194964D01*
X-194297Y-316137D01*
X-198296Y-312138D02*
X-200962D01*
X-202295Y-316803D02*
Y-313471D01*
X-202961Y-312805D01*
X-204294D01*
X-204960Y-313471D01*
Y-316803D01*
X-206293Y-312138D02*
X-208959D01*
X-210959Y-315471D02*
X-212291D01*
X-212958Y-314804D01*
Y-312805D01*
X-210959D01*
X-210292Y-313471D01*
X-210959Y-314138D01*
X-212958D01*
X-214291Y-312805D02*
Y-315471D01*
X-214957D01*
X-215624Y-314804D01*
Y-312805D01*
Y-314804D01*
X-216290Y-315471D01*
X-216956Y-314804D01*
Y-312805D01*
X-218289Y-311472D02*
Y-315471D01*
X-220289D01*
X-220955Y-314804D01*
Y-313471D01*
X-220289Y-312805D01*
X-218289D01*
X-224288D02*
Y-316803D01*
X-222288Y-314804D01*
X-224954D01*
X-226287Y-312138D02*
X-228953D01*
X-230286Y-312805D02*
X-231618D01*
X-230952D01*
Y-316803D01*
X-230286Y-316137D01*
X-141124Y-316803D02*
Y-313471D01*
X-141791Y-312805D01*
X-143124D01*
X-143790Y-313471D01*
Y-316803D01*
X-147789Y-312805D02*
X-145123D01*
X-147789Y-315471D01*
Y-316137D01*
X-147123Y-316803D01*
X-145790D01*
X-145123Y-316137D01*
X-149122Y-312138D02*
X-151788D01*
X-153121Y-316803D02*
Y-313471D01*
X-153787Y-312805D01*
X-155120D01*
X-155786Y-313471D01*
Y-316803D01*
X-157119Y-312138D02*
X-159785D01*
X-161784Y-315471D02*
X-163117D01*
X-163784Y-314804D01*
Y-312805D01*
X-161784D01*
X-161118Y-313471D01*
X-161784Y-314138D01*
X-163784D01*
X-165117Y-312805D02*
Y-315471D01*
X-165783D01*
X-166450Y-314804D01*
Y-312805D01*
Y-314804D01*
X-167116Y-315471D01*
X-167782Y-314804D01*
Y-312805D01*
X-169115Y-311472D02*
Y-315471D01*
X-171115D01*
X-171781Y-314804D01*
Y-313471D01*
X-171115Y-312805D01*
X-169115D01*
X-175780Y-316803D02*
X-173114D01*
Y-314804D01*
X-174447Y-315471D01*
X-175113D01*
X-175780Y-314804D01*
Y-313471D01*
X-175113Y-312805D01*
X-173781D01*
X-173114Y-313471D01*
X-177113Y-312138D02*
X-179779D01*
X-181112Y-312805D02*
X-182445D01*
X-181778D01*
Y-316803D01*
X-181112Y-316137D01*
X-91950Y-316803D02*
Y-313471D01*
X-92617Y-312805D01*
X-93950D01*
X-94616Y-313471D01*
Y-316803D01*
X-98615Y-312805D02*
X-95949D01*
X-98615Y-315471D01*
Y-316137D01*
X-97948Y-316803D01*
X-96616D01*
X-95949Y-316137D01*
X-99948Y-312138D02*
X-102614D01*
X-103947Y-316803D02*
Y-313471D01*
X-104613Y-312805D01*
X-105946D01*
X-106612Y-313471D01*
Y-316803D01*
X-107945Y-312138D02*
X-110611D01*
X-112610Y-315471D02*
X-113943D01*
X-114610Y-314804D01*
Y-312805D01*
X-112610D01*
X-111944Y-313471D01*
X-112610Y-314138D01*
X-114610D01*
X-115943Y-312805D02*
Y-315471D01*
X-116609D01*
X-117276Y-314804D01*
Y-312805D01*
Y-314804D01*
X-117942Y-315471D01*
X-118608Y-314804D01*
Y-312805D01*
X-119941Y-311472D02*
Y-315471D01*
X-121941D01*
X-122607Y-314804D01*
Y-313471D01*
X-121941Y-312805D01*
X-119941D01*
X-126606Y-316803D02*
X-125273Y-316137D01*
X-123940Y-314804D01*
Y-313471D01*
X-124607Y-312805D01*
X-125940D01*
X-126606Y-313471D01*
Y-314138D01*
X-125940Y-314804D01*
X-123940D01*
X-127939Y-312138D02*
X-130605D01*
X-131938Y-312805D02*
X-133270D01*
X-132604D01*
Y-316803D01*
X-131938Y-316137D01*
X-42776Y-316803D02*
Y-313471D01*
X-43443Y-312805D01*
X-44776D01*
X-45442Y-313471D01*
Y-316803D01*
X-49441Y-312805D02*
X-46775D01*
X-49441Y-315471D01*
Y-316137D01*
X-48774Y-316803D01*
X-47442D01*
X-46775Y-316137D01*
X-50774Y-312138D02*
X-53440D01*
X-54773Y-316803D02*
Y-313471D01*
X-55439Y-312805D01*
X-56772D01*
X-57438Y-313471D01*
Y-316803D01*
X-58771Y-312138D02*
X-61437D01*
X-63436Y-315471D02*
X-64769D01*
X-65436Y-314804D01*
Y-312805D01*
X-63436D01*
X-62770Y-313471D01*
X-63436Y-314138D01*
X-65436D01*
X-66769Y-312805D02*
Y-315471D01*
X-67435D01*
X-68102Y-314804D01*
Y-312805D01*
Y-314804D01*
X-68768Y-315471D01*
X-69434Y-314804D01*
Y-312805D01*
X-70767Y-311472D02*
Y-315471D01*
X-72767D01*
X-73433Y-314804D01*
Y-313471D01*
X-72767Y-312805D01*
X-70767D01*
X-74766Y-316803D02*
X-77432D01*
Y-316137D01*
X-74766Y-313471D01*
Y-312805D01*
X-78765Y-312138D02*
X-81431D01*
X-82763Y-312805D02*
X-84096D01*
X-83430D01*
Y-316803D01*
X-82763Y-316137D01*
X6398Y-316803D02*
Y-313471D01*
X5731Y-312805D01*
X4398D01*
X3732Y-313471D01*
Y-316803D01*
X-267Y-312805D02*
X2399D01*
X-267Y-315471D01*
Y-316137D01*
X399Y-316803D01*
X1733D01*
X2399Y-316137D01*
X-1600Y-312138D02*
X-4266D01*
X-5598Y-316803D02*
Y-313471D01*
X-6265Y-312805D01*
X-7598D01*
X-8264Y-313471D01*
Y-316803D01*
X-9597Y-312138D02*
X-12263D01*
X-14262Y-315471D02*
X-15595D01*
X-16262Y-314804D01*
Y-312805D01*
X-14262D01*
X-13596Y-313471D01*
X-14262Y-314138D01*
X-16262D01*
X-17595Y-312805D02*
Y-315471D01*
X-18261D01*
X-18927Y-314804D01*
Y-312805D01*
Y-314804D01*
X-19594Y-315471D01*
X-20260Y-314804D01*
Y-312805D01*
X-21593Y-311472D02*
Y-315471D01*
X-23593D01*
X-24259Y-314804D01*
Y-313471D01*
X-23593Y-312805D01*
X-21593D01*
X-25592Y-316137D02*
X-26259Y-316803D01*
X-27591D01*
X-28258Y-316137D01*
Y-315471D01*
X-27591Y-314804D01*
X-28258Y-314138D01*
Y-313471D01*
X-27591Y-312805D01*
X-26259D01*
X-25592Y-313471D01*
Y-314138D01*
X-26259Y-314804D01*
X-25592Y-315471D01*
Y-316137D01*
X-26259Y-314804D02*
X-27591D01*
X-29591Y-312138D02*
X-32257D01*
X-33590Y-312805D02*
X-34922D01*
X-34256D01*
Y-316803D01*
X-33590Y-316137D01*
X55572Y-316803D02*
Y-313471D01*
X54905Y-312805D01*
X53572D01*
X52906Y-313471D01*
Y-316803D01*
X48907Y-312805D02*
X51573D01*
X48907Y-315471D01*
Y-316137D01*
X49574Y-316803D01*
X50906D01*
X51573Y-316137D01*
X47574Y-312138D02*
X44908D01*
X43576Y-316803D02*
Y-313471D01*
X42909Y-312805D01*
X41576D01*
X40910Y-313471D01*
Y-316803D01*
X39577Y-312138D02*
X36911D01*
X34912Y-315471D02*
X33579D01*
X32912Y-314804D01*
Y-312805D01*
X34912D01*
X35578Y-313471D01*
X34912Y-314138D01*
X32912D01*
X31579Y-312805D02*
Y-315471D01*
X30913D01*
X30246Y-314804D01*
Y-312805D01*
Y-314804D01*
X29580Y-315471D01*
X28914Y-314804D01*
Y-312805D01*
X27581Y-311472D02*
Y-315471D01*
X25581D01*
X24915Y-314804D01*
Y-313471D01*
X25581Y-312805D01*
X27581D01*
X23582Y-313471D02*
X22916Y-312805D01*
X21583D01*
X20916Y-313471D01*
Y-316137D01*
X21583Y-316803D01*
X22916D01*
X23582Y-316137D01*
Y-315471D01*
X22916Y-314804D01*
X20916D01*
X19583Y-312138D02*
X16917D01*
X15585Y-312805D02*
X14252D01*
X14918D01*
Y-316803D01*
X15585Y-316137D01*
X104746Y-316803D02*
Y-313471D01*
X104079Y-312805D01*
X102746D01*
X102080Y-313471D01*
Y-316803D01*
X98081Y-312805D02*
X100747D01*
X98081Y-315471D01*
Y-316137D01*
X98748Y-316803D01*
X100081D01*
X100747Y-316137D01*
X96748Y-312138D02*
X94082D01*
X92750Y-316803D02*
Y-313471D01*
X92083Y-312805D01*
X90750D01*
X90084Y-313471D01*
Y-316803D01*
X88751Y-312138D02*
X86085D01*
X84086Y-315471D02*
X82753D01*
X82086Y-314804D01*
Y-312805D01*
X84086D01*
X84752Y-313471D01*
X84086Y-314138D01*
X82086D01*
X80753Y-312805D02*
Y-315471D01*
X80087D01*
X79421Y-314804D01*
Y-312805D01*
Y-314804D01*
X78754Y-315471D01*
X78088Y-314804D01*
Y-312805D01*
X76755Y-311472D02*
Y-315471D01*
X74755D01*
X74089Y-314804D01*
Y-313471D01*
X74755Y-312805D01*
X76755D01*
X72756D02*
X71423D01*
X72089D01*
Y-316803D01*
X72756Y-316137D01*
X69424D02*
X68757Y-316803D01*
X67424D01*
X66758Y-316137D01*
Y-313471D01*
X67424Y-312805D01*
X68757D01*
X69424Y-313471D01*
Y-316137D01*
X65425Y-312138D02*
X62759D01*
X61426Y-312805D02*
X60093D01*
X60760D01*
Y-316803D01*
X61426Y-316137D01*
X153920Y-316803D02*
Y-313471D01*
X153253Y-312805D01*
X151920D01*
X151254Y-313471D01*
Y-316803D01*
X147255Y-312805D02*
X149921D01*
X147255Y-315471D01*
Y-316137D01*
X147922Y-316803D01*
X149255D01*
X149921Y-316137D01*
X145922Y-312138D02*
X143256D01*
X141923Y-316803D02*
Y-313471D01*
X141257Y-312805D01*
X139924D01*
X139258Y-313471D01*
Y-316803D01*
X137925Y-312138D02*
X135259D01*
X133260Y-315471D02*
X131927D01*
X131260Y-314804D01*
Y-312805D01*
X133260D01*
X133926Y-313471D01*
X133260Y-314138D01*
X131260D01*
X129927Y-312805D02*
Y-315471D01*
X129261D01*
X128595Y-314804D01*
Y-312805D01*
Y-314804D01*
X127928Y-315471D01*
X127262Y-314804D01*
Y-312805D01*
X125929Y-311472D02*
Y-315471D01*
X123929D01*
X123263Y-314804D01*
Y-313471D01*
X123929Y-312805D01*
X125929D01*
X121930D02*
X120597D01*
X121264D01*
Y-316803D01*
X121930Y-316137D01*
X118598Y-312805D02*
X117265D01*
X117931D01*
Y-316803D01*
X118598Y-316137D01*
X115266Y-312138D02*
X112600D01*
X111267Y-312805D02*
X109934D01*
X110600D01*
Y-316803D01*
X111267Y-316137D01*
X203094Y-316803D02*
Y-313471D01*
X202427Y-312805D01*
X201094D01*
X200428Y-313471D01*
Y-316803D01*
X196429Y-312805D02*
X199095D01*
X196429Y-315471D01*
Y-316137D01*
X197096Y-316803D01*
X198428D01*
X199095Y-316137D01*
X195096Y-312138D02*
X192430D01*
X191098Y-316803D02*
Y-313471D01*
X190431Y-312805D01*
X189098D01*
X188432Y-313471D01*
Y-316803D01*
X187099Y-312138D02*
X184433D01*
X182434Y-315471D02*
X181101D01*
X180434Y-314804D01*
Y-312805D01*
X182434D01*
X183100Y-313471D01*
X182434Y-314138D01*
X180434D01*
X179101Y-312805D02*
Y-315471D01*
X178435D01*
X177769Y-314804D01*
Y-312805D01*
Y-314804D01*
X177102Y-315471D01*
X176436Y-314804D01*
Y-312805D01*
X175103Y-311472D02*
Y-315471D01*
X173103D01*
X172437Y-314804D01*
Y-313471D01*
X173103Y-312805D01*
X175103D01*
X171104D02*
X169771D01*
X170438D01*
Y-316803D01*
X171104Y-316137D01*
X165106Y-312805D02*
X167772D01*
X165106Y-315471D01*
Y-316137D01*
X165772Y-316803D01*
X167105D01*
X167772Y-316137D01*
X163773Y-312138D02*
X161107D01*
X159774Y-312805D02*
X158441D01*
X159108D01*
Y-316803D01*
X159774Y-316137D01*
X301442Y-316803D02*
Y-313471D01*
X300775Y-312805D01*
X299442D01*
X298776Y-313471D01*
Y-316803D01*
X294777Y-312805D02*
X297443D01*
X294777Y-315471D01*
Y-316137D01*
X295444Y-316803D01*
X296777D01*
X297443Y-316137D01*
X293444Y-312138D02*
X290778D01*
X289446Y-316803D02*
Y-313471D01*
X288779Y-312805D01*
X287446D01*
X286780Y-313471D01*
Y-316803D01*
X285447Y-312138D02*
X282781D01*
X280782Y-315471D02*
X279449D01*
X278782Y-314804D01*
Y-312805D01*
X280782D01*
X281448Y-313471D01*
X280782Y-314138D01*
X278782D01*
X277449Y-312805D02*
Y-315471D01*
X276783D01*
X276117Y-314804D01*
Y-312805D01*
Y-314804D01*
X275450Y-315471D01*
X274784Y-314804D01*
Y-312805D01*
X273451Y-311472D02*
Y-315471D01*
X271451D01*
X270785Y-314804D01*
Y-313471D01*
X271451Y-312805D01*
X273451D01*
X269452D02*
X268119D01*
X268786D01*
Y-316803D01*
X269452Y-316137D01*
X264120Y-312805D02*
Y-316803D01*
X266120Y-314804D01*
X263454D01*
X262121Y-312138D02*
X259455D01*
X258122Y-312805D02*
X256789D01*
X257456D01*
Y-316803D01*
X258122Y-316137D01*
X-322419Y-175399D02*
Y-172066D01*
X-323085Y-171400D01*
X-324418D01*
X-325085Y-172066D01*
Y-175399D01*
X-329083Y-171400D02*
X-326418D01*
X-329083Y-174066D01*
Y-174732D01*
X-328417Y-175399D01*
X-327084D01*
X-326418Y-174732D01*
X-330416Y-170733D02*
X-333082D01*
X-334415Y-175399D02*
Y-172066D01*
X-335082Y-171400D01*
X-336414D01*
X-337081Y-172066D01*
Y-175399D01*
X-338414Y-170733D02*
X-341079D01*
X-343079Y-174066D02*
X-344412D01*
X-345078Y-173399D01*
Y-171400D01*
X-343079D01*
X-342412Y-172066D01*
X-343079Y-172733D01*
X-345078D01*
X-346411Y-171400D02*
Y-174066D01*
X-347078D01*
X-347744Y-173399D01*
Y-171400D01*
Y-173399D01*
X-348411Y-174066D01*
X-349077Y-173399D01*
Y-171400D01*
X-350410Y-170067D02*
Y-174066D01*
X-352409D01*
X-353076Y-173399D01*
Y-172066D01*
X-352409Y-171400D01*
X-350410D01*
X-354409D02*
X-355742D01*
X-355075D01*
Y-175399D01*
X-354409Y-174732D01*
X-360407Y-175399D02*
X-357741D01*
Y-173399D01*
X-359074Y-174066D01*
X-359740D01*
X-360407Y-173399D01*
Y-172066D01*
X-359740Y-171400D01*
X-358407D01*
X-357741Y-172066D01*
X-361739Y-170733D02*
X-364405D01*
X-365738Y-171400D02*
X-367071D01*
X-366405D01*
Y-175399D01*
X-365738Y-174732D01*
X-277544Y-175228D02*
Y-171896D01*
X-278210Y-171229D01*
X-279543D01*
X-280210Y-171896D01*
Y-175228D01*
X-284209Y-171229D02*
X-281543D01*
X-284209Y-173895D01*
Y-174561D01*
X-283542Y-175228D01*
X-282209D01*
X-281543Y-174561D01*
X-285542Y-170563D02*
X-288207D01*
X-289540Y-175228D02*
Y-171896D01*
X-290207Y-171229D01*
X-291540D01*
X-292206Y-171896D01*
Y-175228D01*
X-293539Y-170563D02*
X-296205D01*
X-298204Y-173895D02*
X-299537D01*
X-300203Y-173229D01*
Y-171229D01*
X-298204D01*
X-297538Y-171896D01*
X-298204Y-172562D01*
X-300203D01*
X-301536Y-171229D02*
Y-173895D01*
X-302203D01*
X-302869Y-173229D01*
Y-171229D01*
Y-173229D01*
X-303536Y-173895D01*
X-304202Y-173229D01*
Y-171229D01*
X-305535Y-169896D02*
Y-173895D01*
X-307534D01*
X-308201Y-173229D01*
Y-171896D01*
X-307534Y-171229D01*
X-305535D01*
X-309534D02*
X-310867D01*
X-310200D01*
Y-175228D01*
X-309534Y-174561D01*
X-315532Y-175228D02*
X-314199Y-174561D01*
X-312866Y-173229D01*
Y-171896D01*
X-313532Y-171229D01*
X-314865D01*
X-315532Y-171896D01*
Y-172562D01*
X-314865Y-173229D01*
X-312866D01*
X-316865Y-170563D02*
X-319531D01*
X-320864Y-171229D02*
X-322196D01*
X-321530D01*
Y-175228D01*
X-320864Y-174561D01*
X-232307Y-175228D02*
Y-171896D01*
X-232974Y-171229D01*
X-234306D01*
X-234973Y-171896D01*
Y-175228D01*
X-238972Y-171229D02*
X-236306D01*
X-238972Y-173895D01*
Y-174561D01*
X-238305Y-175228D01*
X-236972D01*
X-236306Y-174561D01*
X-240304Y-170563D02*
X-242970D01*
X-244303Y-175228D02*
Y-171896D01*
X-244970Y-171229D01*
X-246303D01*
X-246969Y-171896D01*
Y-175228D01*
X-248302Y-170563D02*
X-250968D01*
X-252967Y-173895D02*
X-254300D01*
X-254966Y-173229D01*
Y-171229D01*
X-252967D01*
X-252301Y-171896D01*
X-252967Y-172562D01*
X-254966D01*
X-256299Y-171229D02*
Y-173895D01*
X-256966D01*
X-257632Y-173229D01*
Y-171229D01*
Y-173229D01*
X-258299Y-173895D01*
X-258965Y-173229D01*
Y-171229D01*
X-260298Y-169896D02*
Y-173895D01*
X-262297D01*
X-262964Y-173229D01*
Y-171896D01*
X-262297Y-171229D01*
X-260298D01*
X-264297D02*
X-265630D01*
X-264963D01*
Y-175228D01*
X-264297Y-174561D01*
X-267629Y-175228D02*
X-270295D01*
Y-174561D01*
X-267629Y-171896D01*
Y-171229D01*
X-271628Y-170563D02*
X-274293D01*
X-275626Y-171229D02*
X-276959D01*
X-276293D01*
Y-175228D01*
X-275626Y-174561D01*
X-141833Y-175228D02*
Y-171896D01*
X-142499Y-171229D01*
X-143832D01*
X-144499Y-171896D01*
Y-175228D01*
X-148498Y-171229D02*
X-145832D01*
X-148498Y-173895D01*
Y-174561D01*
X-147831Y-175228D01*
X-146498D01*
X-145832Y-174561D01*
X-149830Y-170563D02*
X-152496D01*
X-153829Y-175228D02*
Y-171896D01*
X-154496Y-171229D01*
X-155828D01*
X-156495Y-171896D01*
Y-175228D01*
X-157828Y-170563D02*
X-160494D01*
X-162493Y-173895D02*
X-163826D01*
X-164492Y-173229D01*
Y-171229D01*
X-162493D01*
X-161827Y-171896D01*
X-162493Y-172562D01*
X-164492D01*
X-165825Y-171229D02*
Y-173895D01*
X-166492D01*
X-167158Y-173229D01*
Y-171229D01*
Y-173229D01*
X-167825Y-173895D01*
X-168491Y-173229D01*
Y-171229D01*
X-169824Y-169896D02*
Y-173895D01*
X-171823D01*
X-172490Y-173229D01*
Y-171896D01*
X-171823Y-171229D01*
X-169824D01*
X-173823D02*
X-175156D01*
X-174489D01*
Y-175228D01*
X-173823Y-174561D01*
X-177155Y-171896D02*
X-177822Y-171229D01*
X-179154D01*
X-179821Y-171896D01*
Y-174561D01*
X-179154Y-175228D01*
X-177822D01*
X-177155Y-174561D01*
Y-173895D01*
X-177822Y-173229D01*
X-179821D01*
X-181154Y-170563D02*
X-183819D01*
X-185152Y-171229D02*
X-186485D01*
X-185819D01*
Y-175228D01*
X-185152Y-174561D01*
X-96596Y-175228D02*
Y-171896D01*
X-97263Y-171229D01*
X-98595D01*
X-99262Y-171896D01*
Y-175228D01*
X-103261Y-171229D02*
X-100595D01*
X-103261Y-173895D01*
Y-174561D01*
X-102594Y-175228D01*
X-101261D01*
X-100595Y-174561D01*
X-104594Y-170563D02*
X-107259D01*
X-108592Y-175228D02*
Y-171896D01*
X-109259Y-171229D01*
X-110591D01*
X-111258Y-171896D01*
Y-175228D01*
X-112591Y-170563D02*
X-115257D01*
X-117256Y-173895D02*
X-118589D01*
X-119255Y-173229D01*
Y-171229D01*
X-117256D01*
X-116590Y-171896D01*
X-117256Y-172562D01*
X-119255D01*
X-120588Y-171229D02*
Y-173895D01*
X-121255D01*
X-121921Y-173229D01*
Y-171229D01*
Y-173229D01*
X-122588Y-173895D01*
X-123254Y-173229D01*
Y-171229D01*
X-124587Y-169896D02*
Y-173895D01*
X-126586D01*
X-127253Y-173229D01*
Y-171896D01*
X-126586Y-171229D01*
X-124587D01*
X-131252D02*
X-128586D01*
X-131252Y-173895D01*
Y-174561D01*
X-130585Y-175228D01*
X-129252D01*
X-128586Y-174561D01*
X-132584D02*
X-133251Y-175228D01*
X-134584D01*
X-135250Y-174561D01*
Y-171896D01*
X-134584Y-171229D01*
X-133251D01*
X-132584Y-171896D01*
Y-174561D01*
X-136583Y-170563D02*
X-139249D01*
X-140582Y-171229D02*
X-141915D01*
X-141248D01*
Y-175228D01*
X-140582Y-174561D01*
X-51359Y-175228D02*
Y-171896D01*
X-52026Y-171229D01*
X-53358D01*
X-54025Y-171896D01*
Y-175228D01*
X-58024Y-171229D02*
X-55358D01*
X-58024Y-173895D01*
Y-174561D01*
X-57357Y-175228D01*
X-56024D01*
X-55358Y-174561D01*
X-59356Y-170563D02*
X-62022D01*
X-63355Y-175228D02*
Y-171896D01*
X-64022Y-171229D01*
X-65355D01*
X-66021Y-171896D01*
Y-175228D01*
X-67354Y-170563D02*
X-70020D01*
X-72019Y-173895D02*
X-73352D01*
X-74018Y-173229D01*
Y-171229D01*
X-72019D01*
X-71353Y-171896D01*
X-72019Y-172562D01*
X-74018D01*
X-75351Y-171229D02*
Y-173895D01*
X-76018D01*
X-76684Y-173229D01*
Y-171229D01*
Y-173229D01*
X-77351Y-173895D01*
X-78017Y-173229D01*
Y-171229D01*
X-79350Y-169896D02*
Y-173895D01*
X-81349D01*
X-82016Y-173229D01*
Y-171896D01*
X-81349Y-171229D01*
X-79350D01*
X-86014D02*
X-83349D01*
X-86014Y-173895D01*
Y-174561D01*
X-85348Y-175228D01*
X-84015D01*
X-83349Y-174561D01*
X-87347Y-171229D02*
X-88680D01*
X-88014D01*
Y-175228D01*
X-87347Y-174561D01*
X-90680Y-170563D02*
X-93345D01*
X-94678Y-171229D02*
X-96011D01*
X-95345D01*
Y-175228D01*
X-94678Y-174561D01*
X-6122Y-175228D02*
Y-171896D01*
X-6788Y-171229D01*
X-8121D01*
X-8788Y-171896D01*
Y-175228D01*
X-12787Y-171229D02*
X-10121D01*
X-12787Y-173895D01*
Y-174561D01*
X-12120Y-175228D01*
X-10787D01*
X-10121Y-174561D01*
X-14119Y-170563D02*
X-16785D01*
X-18118Y-175228D02*
Y-171896D01*
X-18785Y-171229D01*
X-20118D01*
X-20784Y-171896D01*
Y-175228D01*
X-22117Y-170563D02*
X-24783D01*
X-26782Y-173895D02*
X-28115D01*
X-28781Y-173229D01*
Y-171229D01*
X-26782D01*
X-26116Y-171896D01*
X-26782Y-172562D01*
X-28781D01*
X-30114Y-171229D02*
Y-173895D01*
X-30781D01*
X-31447Y-173229D01*
Y-171229D01*
Y-173229D01*
X-32114Y-173895D01*
X-32780Y-173229D01*
Y-171229D01*
X-34113Y-169896D02*
Y-173895D01*
X-36112D01*
X-36779Y-173229D01*
Y-171896D01*
X-36112Y-171229D01*
X-34113D01*
X-40778D02*
X-38112D01*
X-40778Y-173895D01*
Y-174561D01*
X-40111Y-175228D01*
X-38778D01*
X-38112Y-174561D01*
X-44776Y-171229D02*
X-42110D01*
X-44776Y-173895D01*
Y-174561D01*
X-44110Y-175228D01*
X-42777D01*
X-42110Y-174561D01*
X-46109Y-170563D02*
X-48775D01*
X-50108Y-171229D02*
X-51441D01*
X-50774D01*
Y-175228D01*
X-50108Y-174561D01*
X350611Y-316723D02*
Y-313391D01*
X349944Y-312724D01*
X348611D01*
X347945Y-313391D01*
Y-316723D01*
X343946Y-312724D02*
X346612D01*
X343946Y-315390D01*
Y-316057D01*
X344613Y-316723D01*
X345945D01*
X346612Y-316057D01*
X342613Y-312058D02*
X339947D01*
X338614Y-316723D02*
Y-313391D01*
X337948Y-312724D01*
X336615D01*
X335949Y-313391D01*
Y-316723D01*
X334616Y-312058D02*
X331950D01*
X329951Y-315390D02*
X328618D01*
X327951Y-314724D01*
Y-312724D01*
X329951D01*
X330617Y-313391D01*
X329951Y-314057D01*
X327951D01*
X326618Y-312724D02*
Y-315390D01*
X325952D01*
X325285Y-314724D01*
Y-312724D01*
Y-314724D01*
X324619Y-315390D01*
X323953Y-314724D01*
Y-312724D01*
X322620Y-311392D02*
Y-315390D01*
X320620D01*
X319954Y-314724D01*
Y-313391D01*
X320620Y-312724D01*
X322620D01*
X315955D02*
X318621D01*
X315955Y-315390D01*
Y-316057D01*
X316621Y-316723D01*
X317954D01*
X318621Y-316057D01*
X314622D02*
X313956Y-316723D01*
X312623D01*
X311956Y-316057D01*
Y-315390D01*
X312623Y-314724D01*
X313289D01*
X312623D01*
X311956Y-314057D01*
Y-313391D01*
X312623Y-312724D01*
X313956D01*
X314622Y-313391D01*
X310624Y-312058D02*
X307958D01*
X306625Y-312724D02*
X305292D01*
X305958D01*
Y-316723D01*
X306625Y-316057D01*
X38468Y-195330D02*
Y-191998D01*
X37802Y-191331D01*
X36469D01*
X35803Y-191998D01*
Y-195330D01*
X31804Y-191331D02*
X34470D01*
X31804Y-193997D01*
Y-194664D01*
X32470Y-195330D01*
X33803D01*
X34470Y-194664D01*
X30471Y-190665D02*
X27805D01*
X26472Y-195330D02*
Y-191998D01*
X25806Y-191331D01*
X24473D01*
X23807Y-191998D01*
Y-195330D01*
X22474Y-190665D02*
X19808D01*
X17808Y-193997D02*
X16476D01*
X15809Y-193331D01*
Y-191331D01*
X17808D01*
X18475Y-191998D01*
X17808Y-192664D01*
X15809D01*
X14476Y-191331D02*
Y-193997D01*
X13810D01*
X13143Y-193331D01*
Y-191331D01*
Y-193331D01*
X12477Y-193997D01*
X11810Y-193331D01*
Y-191331D01*
X10477Y-189998D02*
Y-193997D01*
X8478D01*
X7812Y-193331D01*
Y-191998D01*
X8478Y-191331D01*
X10477D01*
X3813D02*
X6479D01*
X3813Y-193997D01*
Y-194664D01*
X4479Y-195330D01*
X5812D01*
X6479Y-194664D01*
X481Y-191331D02*
Y-195330D01*
X2480Y-193331D01*
X-186D01*
X-1519Y-190665D02*
X-4185D01*
X-5517Y-191331D02*
X-6850D01*
X-6184D01*
Y-195330D01*
X-5517Y-194664D01*
X83705Y-195330D02*
Y-191998D01*
X83039Y-191331D01*
X81706D01*
X81040Y-191998D01*
Y-195330D01*
X77041Y-191331D02*
X79707D01*
X77041Y-193997D01*
Y-194664D01*
X77707Y-195330D01*
X79040D01*
X79707Y-194664D01*
X75708Y-190665D02*
X73042D01*
X71709Y-195330D02*
Y-191998D01*
X71043Y-191331D01*
X69710D01*
X69043Y-191998D01*
Y-195330D01*
X67711Y-190665D02*
X65045D01*
X63045Y-193997D02*
X61712D01*
X61046Y-193331D01*
Y-191331D01*
X63045D01*
X63712Y-191998D01*
X63045Y-192664D01*
X61046D01*
X59713Y-191331D02*
Y-193997D01*
X59047D01*
X58380Y-193331D01*
Y-191331D01*
Y-193331D01*
X57714Y-193997D01*
X57047Y-193331D01*
Y-191331D01*
X55714Y-189998D02*
Y-193997D01*
X53715D01*
X53049Y-193331D01*
Y-191998D01*
X53715Y-191331D01*
X55714D01*
X49050D02*
X51716D01*
X49050Y-193997D01*
Y-194664D01*
X49716Y-195330D01*
X51049D01*
X51716Y-194664D01*
X45051Y-195330D02*
X47717D01*
Y-193331D01*
X46384Y-193997D01*
X45718D01*
X45051Y-193331D01*
Y-191998D01*
X45718Y-191331D01*
X47051D01*
X47717Y-191998D01*
X43718Y-190665D02*
X41052D01*
X39720Y-191331D02*
X38387D01*
X39053D01*
Y-195330D01*
X39720Y-194664D01*
X128942Y-195330D02*
Y-191998D01*
X128276Y-191331D01*
X126943D01*
X126277Y-191998D01*
Y-195330D01*
X122278Y-191331D02*
X124944D01*
X122278Y-193997D01*
Y-194664D01*
X122944Y-195330D01*
X124277D01*
X124944Y-194664D01*
X120945Y-190665D02*
X118279D01*
X116946Y-195330D02*
Y-191998D01*
X116280Y-191331D01*
X114947D01*
X114280Y-191998D01*
Y-195330D01*
X112948Y-190665D02*
X110282D01*
X108282Y-193997D02*
X106949D01*
X106283Y-193331D01*
Y-191331D01*
X108282D01*
X108949Y-191998D01*
X108282Y-192664D01*
X106283D01*
X104950Y-191331D02*
Y-193997D01*
X104284D01*
X103617Y-193331D01*
Y-191331D01*
Y-193331D01*
X102951Y-193997D01*
X102284Y-193331D01*
Y-191331D01*
X100951Y-189998D02*
Y-193997D01*
X98952D01*
X98286Y-193331D01*
Y-191998D01*
X98952Y-191331D01*
X100951D01*
X94287D02*
X96953D01*
X94287Y-193997D01*
Y-194664D01*
X94953Y-195330D01*
X96286D01*
X96953Y-194664D01*
X90288Y-195330D02*
X91621Y-194664D01*
X92954Y-193331D01*
Y-191998D01*
X92288Y-191331D01*
X90955D01*
X90288Y-191998D01*
Y-192664D01*
X90955Y-193331D01*
X92954D01*
X88955Y-190665D02*
X86290D01*
X84957Y-191331D02*
X83624D01*
X84290D01*
Y-195330D01*
X84957Y-194664D01*
X174179Y-195330D02*
Y-191998D01*
X173513Y-191331D01*
X172180D01*
X171514Y-191998D01*
Y-195330D01*
X167515Y-191331D02*
X170181D01*
X167515Y-193997D01*
Y-194664D01*
X168181Y-195330D01*
X169514D01*
X170181Y-194664D01*
X166182Y-190665D02*
X163516D01*
X162183Y-195330D02*
Y-191998D01*
X161517Y-191331D01*
X160184D01*
X159518Y-191998D01*
Y-195330D01*
X158185Y-190665D02*
X155519D01*
X153519Y-193997D02*
X152187D01*
X151520Y-193331D01*
Y-191331D01*
X153519D01*
X154186Y-191998D01*
X153519Y-192664D01*
X151520D01*
X150187Y-191331D02*
Y-193997D01*
X149521D01*
X148854Y-193331D01*
Y-191331D01*
Y-193331D01*
X148188Y-193997D01*
X147521Y-193331D01*
Y-191331D01*
X146188Y-189998D02*
Y-193997D01*
X144189D01*
X143523Y-193331D01*
Y-191998D01*
X144189Y-191331D01*
X146188D01*
X139524D02*
X142190D01*
X139524Y-193997D01*
Y-194664D01*
X140190Y-195330D01*
X141523D01*
X142190Y-194664D01*
X138191Y-195330D02*
X135525D01*
Y-194664D01*
X138191Y-191998D01*
Y-191331D01*
X134192Y-190665D02*
X131527D01*
X130194Y-191331D02*
X128861D01*
X129527D01*
Y-195330D01*
X130194Y-194664D01*
X219416Y-195330D02*
Y-191998D01*
X218750Y-191331D01*
X217417D01*
X216751Y-191998D01*
Y-195330D01*
X212752Y-191331D02*
X215418D01*
X212752Y-193997D01*
Y-194664D01*
X213418Y-195330D01*
X214751D01*
X215418Y-194664D01*
X211419Y-190665D02*
X208753D01*
X207420Y-195330D02*
Y-191998D01*
X206754Y-191331D01*
X205421D01*
X204754Y-191998D01*
Y-195330D01*
X203422Y-190665D02*
X200756D01*
X198756Y-193997D02*
X197424D01*
X196757Y-193331D01*
Y-191331D01*
X198756D01*
X199423Y-191998D01*
X198756Y-192664D01*
X196757D01*
X195424Y-191331D02*
Y-193997D01*
X194758D01*
X194091Y-193331D01*
Y-191331D01*
Y-193331D01*
X193425Y-193997D01*
X192758Y-193331D01*
Y-191331D01*
X191426Y-189998D02*
Y-193997D01*
X189426D01*
X188760Y-193331D01*
Y-191998D01*
X189426Y-191331D01*
X191426D01*
X184761D02*
X187427D01*
X184761Y-193997D01*
Y-194664D01*
X185427Y-195330D01*
X186760D01*
X187427Y-194664D01*
X183428D02*
X182762Y-195330D01*
X181429D01*
X180762Y-194664D01*
Y-193997D01*
X181429Y-193331D01*
X180762Y-192664D01*
Y-191998D01*
X181429Y-191331D01*
X182762D01*
X183428Y-191998D01*
Y-192664D01*
X182762Y-193331D01*
X183428Y-193997D01*
Y-194664D01*
X182762Y-193331D02*
X181429D01*
X179429Y-190665D02*
X176763D01*
X175431Y-191331D02*
X174098D01*
X174764D01*
Y-195330D01*
X175431Y-194664D01*
X264653Y-195330D02*
Y-191998D01*
X263987Y-191331D01*
X262654D01*
X261988Y-191998D01*
Y-195330D01*
X257989Y-191331D02*
X260655D01*
X257989Y-193997D01*
Y-194664D01*
X258655Y-195330D01*
X259988D01*
X260655Y-194664D01*
X256656Y-190665D02*
X253990D01*
X252657Y-195330D02*
Y-191998D01*
X251991Y-191331D01*
X250658D01*
X249991Y-191998D01*
Y-195330D01*
X248659Y-190665D02*
X245993D01*
X243993Y-193997D02*
X242661D01*
X241994Y-193331D01*
Y-191331D01*
X243993D01*
X244660Y-191998D01*
X243993Y-192664D01*
X241994D01*
X240661Y-191331D02*
Y-193997D01*
X239995D01*
X239328Y-193331D01*
Y-191331D01*
Y-193331D01*
X238662Y-193997D01*
X237995Y-193331D01*
Y-191331D01*
X236663Y-189998D02*
Y-193997D01*
X234663D01*
X233997Y-193331D01*
Y-191998D01*
X234663Y-191331D01*
X236663D01*
X229998D02*
X232664D01*
X229998Y-193997D01*
Y-194664D01*
X230664Y-195330D01*
X231997D01*
X232664Y-194664D01*
X228665Y-191998D02*
X227999Y-191331D01*
X226666D01*
X225999Y-191998D01*
Y-194664D01*
X226666Y-195330D01*
X227999D01*
X228665Y-194664D01*
Y-193997D01*
X227999Y-193331D01*
X225999D01*
X224666Y-190665D02*
X222001D01*
X220668Y-191331D02*
X219335D01*
X220001D01*
Y-195330D01*
X220668Y-194664D01*
X309891Y-195330D02*
Y-191998D01*
X309224Y-191331D01*
X307891D01*
X307225Y-191998D01*
Y-195330D01*
X303226Y-191331D02*
X305892D01*
X303226Y-193997D01*
Y-194664D01*
X303892Y-195330D01*
X305225D01*
X305892Y-194664D01*
X301893Y-190665D02*
X299227D01*
X297894Y-195330D02*
Y-191998D01*
X297228Y-191331D01*
X295895D01*
X295229Y-191998D01*
Y-195330D01*
X293896Y-190665D02*
X291230D01*
X289230Y-193997D02*
X287898D01*
X287231Y-193331D01*
Y-191331D01*
X289230D01*
X289897Y-191998D01*
X289230Y-192664D01*
X287231D01*
X285898Y-191331D02*
Y-193997D01*
X285232D01*
X284565Y-193331D01*
Y-191331D01*
Y-193331D01*
X283899Y-193997D01*
X283232Y-193331D01*
Y-191331D01*
X281899Y-189998D02*
Y-193997D01*
X279900D01*
X279234Y-193331D01*
Y-191998D01*
X279900Y-191331D01*
X281899D01*
X277901Y-194664D02*
X277234Y-195330D01*
X275901D01*
X275235Y-194664D01*
Y-193997D01*
X275901Y-193331D01*
X276568D01*
X275901D01*
X275235Y-192664D01*
Y-191998D01*
X275901Y-191331D01*
X277234D01*
X277901Y-191998D01*
X273902Y-194664D02*
X273236Y-195330D01*
X271903D01*
X271236Y-194664D01*
Y-191998D01*
X271903Y-191331D01*
X273236D01*
X273902Y-191998D01*
Y-194664D01*
X269903Y-190665D02*
X267238D01*
X265905Y-191331D02*
X264572D01*
X265238D01*
Y-195330D01*
X265905Y-194664D01*
X-337221Y-46381D02*
Y-43049D01*
X-337887Y-42383D01*
X-339220D01*
X-339886Y-43049D01*
Y-46381D01*
X-343885Y-42383D02*
X-341219D01*
X-343885Y-45048D01*
Y-45715D01*
X-343219Y-46381D01*
X-341886D01*
X-341219Y-45715D01*
X-345218Y-41716D02*
X-347884D01*
X-349217Y-46381D02*
Y-43049D01*
X-349883Y-42383D01*
X-351216D01*
X-351883Y-43049D01*
Y-46381D01*
X-353215Y-41716D02*
X-355881D01*
X-357880Y-45048D02*
X-359213D01*
X-359880Y-44382D01*
Y-42383D01*
X-357880D01*
X-357214Y-43049D01*
X-357880Y-43716D01*
X-359880D01*
X-361213Y-42383D02*
Y-45048D01*
X-361879D01*
X-362546Y-44382D01*
Y-42383D01*
Y-44382D01*
X-363212Y-45048D01*
X-363879Y-44382D01*
Y-42383D01*
X-365212Y-41050D02*
Y-45048D01*
X-367211D01*
X-367877Y-44382D01*
Y-43049D01*
X-367211Y-42383D01*
X-365212D01*
X-369210Y-45715D02*
X-369877Y-46381D01*
X-371210D01*
X-371876Y-45715D01*
Y-45048D01*
X-371210Y-44382D01*
X-370543D01*
X-371210D01*
X-371876Y-43716D01*
Y-43049D01*
X-371210Y-42383D01*
X-369877D01*
X-369210Y-43049D01*
X-373209Y-42383D02*
X-374542D01*
X-373875D01*
Y-46381D01*
X-373209Y-45715D01*
X-376541Y-41716D02*
X-379207D01*
X-380540Y-42383D02*
X-381873D01*
X-381206D01*
Y-46381D01*
X-380540Y-45715D01*
X-288047Y-46381D02*
Y-43049D01*
X-288713Y-42383D01*
X-290046D01*
X-290712Y-43049D01*
Y-46381D01*
X-294711Y-42383D02*
X-292045D01*
X-294711Y-45048D01*
Y-45715D01*
X-294045Y-46381D01*
X-292712D01*
X-292045Y-45715D01*
X-296044Y-41716D02*
X-298710D01*
X-300043Y-46381D02*
Y-43049D01*
X-300709Y-42383D01*
X-302042D01*
X-302708Y-43049D01*
Y-46381D01*
X-304041Y-41716D02*
X-306707D01*
X-308706Y-45048D02*
X-310039D01*
X-310706Y-44382D01*
Y-42383D01*
X-308706D01*
X-308040Y-43049D01*
X-308706Y-43716D01*
X-310706D01*
X-312039Y-42383D02*
Y-45048D01*
X-312705D01*
X-313372Y-44382D01*
Y-42383D01*
Y-44382D01*
X-314038Y-45048D01*
X-314705Y-44382D01*
Y-42383D01*
X-316038Y-41050D02*
Y-45048D01*
X-318037D01*
X-318703Y-44382D01*
Y-43049D01*
X-318037Y-42383D01*
X-316038D01*
X-320036Y-45715D02*
X-320703Y-46381D01*
X-322036D01*
X-322702Y-45715D01*
Y-45048D01*
X-322036Y-44382D01*
X-321369D01*
X-322036D01*
X-322702Y-43716D01*
Y-43049D01*
X-322036Y-42383D01*
X-320703D01*
X-320036Y-43049D01*
X-326701Y-42383D02*
X-324035D01*
X-326701Y-45048D01*
Y-45715D01*
X-326034Y-46381D01*
X-324701D01*
X-324035Y-45715D01*
X-328034Y-41716D02*
X-330699D01*
X-332032Y-42383D02*
X-333365D01*
X-332699D01*
Y-46381D01*
X-332032Y-45715D01*
X-238873Y-46381D02*
Y-43049D01*
X-239539Y-42383D01*
X-240872D01*
X-241538Y-43049D01*
Y-46381D01*
X-245537Y-42383D02*
X-242871D01*
X-245537Y-45048D01*
Y-45715D01*
X-244871Y-46381D01*
X-243538D01*
X-242871Y-45715D01*
X-246870Y-41716D02*
X-249536D01*
X-250869Y-46381D02*
Y-43049D01*
X-251535Y-42383D01*
X-252868D01*
X-253534Y-43049D01*
Y-46381D01*
X-254867Y-41716D02*
X-257533D01*
X-259532Y-45048D02*
X-260865D01*
X-261532Y-44382D01*
Y-42383D01*
X-259532D01*
X-258866Y-43049D01*
X-259532Y-43716D01*
X-261532D01*
X-262865Y-42383D02*
Y-45048D01*
X-263531D01*
X-264198Y-44382D01*
Y-42383D01*
Y-44382D01*
X-264864Y-45048D01*
X-265530Y-44382D01*
Y-42383D01*
X-266863Y-41050D02*
Y-45048D01*
X-268863D01*
X-269529Y-44382D01*
Y-43049D01*
X-268863Y-42383D01*
X-266863D01*
X-270862Y-45715D02*
X-271529Y-46381D01*
X-272862D01*
X-273528Y-45715D01*
Y-45048D01*
X-272862Y-44382D01*
X-272195D01*
X-272862D01*
X-273528Y-43716D01*
Y-43049D01*
X-272862Y-42383D01*
X-271529D01*
X-270862Y-43049D01*
X-274861Y-45715D02*
X-275527Y-46381D01*
X-276860D01*
X-277527Y-45715D01*
Y-45048D01*
X-276860Y-44382D01*
X-276194D01*
X-276860D01*
X-277527Y-43716D01*
Y-43049D01*
X-276860Y-42383D01*
X-275527D01*
X-274861Y-43049D01*
X-278860Y-41716D02*
X-281525D01*
X-282858Y-42383D02*
X-284191D01*
X-283525D01*
Y-46381D01*
X-282858Y-45715D01*
X-189699Y-46381D02*
Y-43049D01*
X-190365Y-42383D01*
X-191698D01*
X-192364Y-43049D01*
Y-46381D01*
X-196363Y-42383D02*
X-193697D01*
X-196363Y-45048D01*
Y-45715D01*
X-195696Y-46381D01*
X-194364D01*
X-193697Y-45715D01*
X-197696Y-41716D02*
X-200362D01*
X-201695Y-46381D02*
Y-43049D01*
X-202361Y-42383D01*
X-203694D01*
X-204360Y-43049D01*
Y-46381D01*
X-205693Y-41716D02*
X-208359D01*
X-210359Y-45048D02*
X-211691D01*
X-212358Y-44382D01*
Y-42383D01*
X-210359D01*
X-209692Y-43049D01*
X-210359Y-43716D01*
X-212358D01*
X-213691Y-42383D02*
Y-45048D01*
X-214357D01*
X-215024Y-44382D01*
Y-42383D01*
Y-44382D01*
X-215690Y-45048D01*
X-216356Y-44382D01*
Y-42383D01*
X-217689Y-41050D02*
Y-45048D01*
X-219689D01*
X-220355Y-44382D01*
Y-43049D01*
X-219689Y-42383D01*
X-217689D01*
X-221688Y-45715D02*
X-222355Y-46381D01*
X-223688D01*
X-224354Y-45715D01*
Y-45048D01*
X-223688Y-44382D01*
X-223021D01*
X-223688D01*
X-224354Y-43716D01*
Y-43049D01*
X-223688Y-42383D01*
X-222355D01*
X-221688Y-43049D01*
X-227686Y-42383D02*
Y-46381D01*
X-225687Y-44382D01*
X-228353D01*
X-229686Y-41716D02*
X-232351D01*
X-233684Y-42383D02*
X-235017D01*
X-234351D01*
Y-46381D01*
X-233684Y-45715D01*
X-140524Y-46381D02*
Y-43049D01*
X-141191Y-42383D01*
X-142524D01*
X-143190Y-43049D01*
Y-46381D01*
X-147189Y-42383D02*
X-144523D01*
X-147189Y-45048D01*
Y-45715D01*
X-146522Y-46381D01*
X-145190D01*
X-144523Y-45715D01*
X-148522Y-41716D02*
X-151188D01*
X-152521Y-46381D02*
Y-43049D01*
X-153187Y-42383D01*
X-154520D01*
X-155186Y-43049D01*
Y-46381D01*
X-156519Y-41716D02*
X-159185D01*
X-161184Y-45048D02*
X-162517D01*
X-163184Y-44382D01*
Y-42383D01*
X-161184D01*
X-160518Y-43049D01*
X-161184Y-43716D01*
X-163184D01*
X-164517Y-42383D02*
Y-45048D01*
X-165183D01*
X-165850Y-44382D01*
Y-42383D01*
Y-44382D01*
X-166516Y-45048D01*
X-167183Y-44382D01*
Y-42383D01*
X-168515Y-41050D02*
Y-45048D01*
X-170515D01*
X-171181Y-44382D01*
Y-43049D01*
X-170515Y-42383D01*
X-168515D01*
X-172514Y-45715D02*
X-173181Y-46381D01*
X-174513D01*
X-175180Y-45715D01*
Y-45048D01*
X-174513Y-44382D01*
X-173847D01*
X-174513D01*
X-175180Y-43716D01*
Y-43049D01*
X-174513Y-42383D01*
X-173181D01*
X-172514Y-43049D01*
X-179179Y-46381D02*
X-176513D01*
Y-44382D01*
X-177846Y-45048D01*
X-178512D01*
X-179179Y-44382D01*
Y-43049D01*
X-178512Y-42383D01*
X-177179D01*
X-176513Y-43049D01*
X-180512Y-41716D02*
X-183177D01*
X-184510Y-42383D02*
X-185843D01*
X-185177D01*
Y-46381D01*
X-184510Y-45715D01*
X-91350Y-46381D02*
Y-43049D01*
X-92017Y-42383D01*
X-93350D01*
X-94016Y-43049D01*
Y-46381D01*
X-98015Y-42383D02*
X-95349D01*
X-98015Y-45048D01*
Y-45715D01*
X-97348Y-46381D01*
X-96016D01*
X-95349Y-45715D01*
X-99348Y-41716D02*
X-102014D01*
X-103347Y-46381D02*
Y-43049D01*
X-104013Y-42383D01*
X-105346D01*
X-106012Y-43049D01*
Y-46381D01*
X-107345Y-41716D02*
X-110011D01*
X-112010Y-45048D02*
X-113343D01*
X-114010Y-44382D01*
Y-42383D01*
X-112010D01*
X-111344Y-43049D01*
X-112010Y-43716D01*
X-114010D01*
X-115343Y-42383D02*
Y-45048D01*
X-116009D01*
X-116676Y-44382D01*
Y-42383D01*
Y-44382D01*
X-117342Y-45048D01*
X-118008Y-44382D01*
Y-42383D01*
X-119341Y-41050D02*
Y-45048D01*
X-121341D01*
X-122007Y-44382D01*
Y-43049D01*
X-121341Y-42383D01*
X-119341D01*
X-123340Y-45715D02*
X-124007Y-46381D01*
X-125339D01*
X-126006Y-45715D01*
Y-45048D01*
X-125339Y-44382D01*
X-124673D01*
X-125339D01*
X-126006Y-43716D01*
Y-43049D01*
X-125339Y-42383D01*
X-124007D01*
X-123340Y-43049D01*
X-130005Y-46381D02*
X-128672Y-45715D01*
X-127339Y-44382D01*
Y-43049D01*
X-128005Y-42383D01*
X-129338D01*
X-130005Y-43049D01*
Y-43716D01*
X-129338Y-44382D01*
X-127339D01*
X-131337Y-41716D02*
X-134003D01*
X-135336Y-42383D02*
X-136669D01*
X-136003D01*
Y-46381D01*
X-135336Y-45715D01*
X-42176Y-46381D02*
Y-43049D01*
X-42843Y-42383D01*
X-44176D01*
X-44842Y-43049D01*
Y-46381D01*
X-48841Y-42383D02*
X-46175D01*
X-48841Y-45048D01*
Y-45715D01*
X-48175Y-46381D01*
X-46842D01*
X-46175Y-45715D01*
X-50174Y-41716D02*
X-52840D01*
X-54172Y-46381D02*
Y-43049D01*
X-54839Y-42383D01*
X-56172D01*
X-56838Y-43049D01*
Y-46381D01*
X-58171Y-41716D02*
X-60837D01*
X-62836Y-45048D02*
X-64169D01*
X-64836Y-44382D01*
Y-42383D01*
X-62836D01*
X-62170Y-43049D01*
X-62836Y-43716D01*
X-64836D01*
X-66169Y-42383D02*
Y-45048D01*
X-66835D01*
X-67502Y-44382D01*
Y-42383D01*
Y-44382D01*
X-68168Y-45048D01*
X-68835Y-44382D01*
Y-42383D01*
X-70167Y-41050D02*
Y-45048D01*
X-72167D01*
X-72833Y-44382D01*
Y-43049D01*
X-72167Y-42383D01*
X-70167D01*
X-74166Y-45715D02*
X-74832Y-46381D01*
X-76165D01*
X-76832Y-45715D01*
Y-45048D01*
X-76165Y-44382D01*
X-75499D01*
X-76165D01*
X-76832Y-43716D01*
Y-43049D01*
X-76165Y-42383D01*
X-74832D01*
X-74166Y-43049D01*
X-78165Y-46381D02*
X-80831D01*
Y-45715D01*
X-78165Y-43049D01*
Y-42383D01*
X-82164Y-41716D02*
X-84829D01*
X-86162Y-42383D02*
X-87495D01*
X-86829D01*
Y-46381D01*
X-86162Y-45715D01*
X6998Y-46381D02*
Y-43049D01*
X6331Y-42383D01*
X4998D01*
X4332Y-43049D01*
Y-46381D01*
X333Y-42383D02*
X2999D01*
X333Y-45048D01*
Y-45715D01*
X1000Y-46381D01*
X2332D01*
X2999Y-45715D01*
X-1000Y-41716D02*
X-3666D01*
X-4998Y-46381D02*
Y-43049D01*
X-5665Y-42383D01*
X-6998D01*
X-7664Y-43049D01*
Y-46381D01*
X-8997Y-41716D02*
X-11663D01*
X-13662Y-45048D02*
X-14995D01*
X-15662Y-44382D01*
Y-42383D01*
X-13662D01*
X-12996Y-43049D01*
X-13662Y-43716D01*
X-15662D01*
X-16995Y-42383D02*
Y-45048D01*
X-17661D01*
X-18327Y-44382D01*
Y-42383D01*
Y-44382D01*
X-18994Y-45048D01*
X-19660Y-44382D01*
Y-42383D01*
X-20993Y-41050D02*
Y-45048D01*
X-22993D01*
X-23659Y-44382D01*
Y-43049D01*
X-22993Y-42383D01*
X-20993D01*
X-24992Y-45715D02*
X-25659Y-46381D01*
X-26991D01*
X-27658Y-45715D01*
Y-45048D01*
X-26991Y-44382D01*
X-26325D01*
X-26991D01*
X-27658Y-43716D01*
Y-43049D01*
X-26991Y-42383D01*
X-25659D01*
X-24992Y-43049D01*
X-28991Y-45715D02*
X-29657Y-46381D01*
X-30990D01*
X-31657Y-45715D01*
Y-45048D01*
X-30990Y-44382D01*
X-31657Y-43716D01*
Y-43049D01*
X-30990Y-42383D01*
X-29657D01*
X-28991Y-43049D01*
Y-43716D01*
X-29657Y-44382D01*
X-28991Y-45048D01*
Y-45715D01*
X-29657Y-44382D02*
X-30990D01*
X-32989Y-41716D02*
X-35655D01*
X-36988Y-42383D02*
X-38321D01*
X-37655D01*
Y-46381D01*
X-36988Y-45715D01*
X56172Y-46381D02*
Y-43049D01*
X55505Y-42383D01*
X54172D01*
X53506Y-43049D01*
Y-46381D01*
X49507Y-42383D02*
X52173D01*
X49507Y-45048D01*
Y-45715D01*
X50174Y-46381D01*
X51507D01*
X52173Y-45715D01*
X48174Y-41716D02*
X45508D01*
X44175Y-46381D02*
Y-43049D01*
X43509Y-42383D01*
X42176D01*
X41510Y-43049D01*
Y-46381D01*
X40177Y-41716D02*
X37511D01*
X35512Y-45048D02*
X34179D01*
X33512Y-44382D01*
Y-42383D01*
X35512D01*
X36178Y-43049D01*
X35512Y-43716D01*
X33512D01*
X32179Y-42383D02*
Y-45048D01*
X31513D01*
X30847Y-44382D01*
Y-42383D01*
Y-44382D01*
X30180Y-45048D01*
X29514Y-44382D01*
Y-42383D01*
X28181Y-41050D02*
Y-45048D01*
X26181D01*
X25515Y-44382D01*
Y-43049D01*
X26181Y-42383D01*
X28181D01*
X24182Y-45715D02*
X23516Y-46381D01*
X22183D01*
X21516Y-45715D01*
Y-45048D01*
X22183Y-44382D01*
X22849D01*
X22183D01*
X21516Y-43716D01*
Y-43049D01*
X22183Y-42383D01*
X23516D01*
X24182Y-43049D01*
X20183D02*
X19517Y-42383D01*
X18184D01*
X17517Y-43049D01*
Y-45715D01*
X18184Y-46381D01*
X19517D01*
X20183Y-45715D01*
Y-45048D01*
X19517Y-44382D01*
X17517D01*
X16184Y-41716D02*
X13519D01*
X12186Y-42383D02*
X10853D01*
X11519D01*
Y-46381D01*
X12186Y-45715D01*
X105346Y-46381D02*
Y-43049D01*
X104679Y-42383D01*
X103346D01*
X102680Y-43049D01*
Y-46381D01*
X98681Y-42383D02*
X101347D01*
X98681Y-45048D01*
Y-45715D01*
X99348Y-46381D01*
X100680D01*
X101347Y-45715D01*
X97348Y-41716D02*
X94682D01*
X93349Y-46381D02*
Y-43049D01*
X92683Y-42383D01*
X91350D01*
X90684Y-43049D01*
Y-46381D01*
X89351Y-41716D02*
X86685D01*
X84686Y-45048D02*
X83353D01*
X82686Y-44382D01*
Y-42383D01*
X84686D01*
X85352Y-43049D01*
X84686Y-43716D01*
X82686D01*
X81353Y-42383D02*
Y-45048D01*
X80687D01*
X80020Y-44382D01*
Y-42383D01*
Y-44382D01*
X79354Y-45048D01*
X78688Y-44382D01*
Y-42383D01*
X77355Y-41050D02*
Y-45048D01*
X75355D01*
X74689Y-44382D01*
Y-43049D01*
X75355Y-42383D01*
X77355D01*
X71357D02*
Y-46381D01*
X73356Y-44382D01*
X70690D01*
X69357Y-45715D02*
X68691Y-46381D01*
X67358D01*
X66691Y-45715D01*
Y-43049D01*
X67358Y-42383D01*
X68691D01*
X69357Y-43049D01*
Y-45715D01*
X65359Y-41716D02*
X62693D01*
X61360Y-42383D02*
X60027D01*
X60693D01*
Y-46381D01*
X61360Y-45715D01*
X154520Y-46381D02*
Y-43049D01*
X153853Y-42383D01*
X152520D01*
X151854Y-43049D01*
Y-46381D01*
X147855Y-42383D02*
X150521D01*
X147855Y-45048D01*
Y-45715D01*
X148522Y-46381D01*
X149855D01*
X150521Y-45715D01*
X146522Y-41716D02*
X143856D01*
X142524Y-46381D02*
Y-43049D01*
X141857Y-42383D01*
X140524D01*
X139858Y-43049D01*
Y-46381D01*
X138525Y-41716D02*
X135859D01*
X133860Y-45048D02*
X132527D01*
X131860Y-44382D01*
Y-42383D01*
X133860D01*
X134526Y-43049D01*
X133860Y-43716D01*
X131860D01*
X130527Y-42383D02*
Y-45048D01*
X129861D01*
X129194Y-44382D01*
Y-42383D01*
Y-44382D01*
X128528Y-45048D01*
X127862Y-44382D01*
Y-42383D01*
X126529Y-41050D02*
Y-45048D01*
X124529D01*
X123863Y-44382D01*
Y-43049D01*
X124529Y-42383D01*
X126529D01*
X120531D02*
Y-46381D01*
X122530Y-44382D01*
X119864D01*
X118531Y-42383D02*
X117198D01*
X117865D01*
Y-46381D01*
X118531Y-45715D01*
X115199Y-41716D02*
X112533D01*
X111200Y-42383D02*
X109867D01*
X110534D01*
Y-46381D01*
X111200Y-45715D01*
X203694Y-46381D02*
Y-43049D01*
X203027Y-42383D01*
X201694D01*
X201028Y-43049D01*
Y-46381D01*
X197029Y-42383D02*
X199695D01*
X197029Y-45048D01*
Y-45715D01*
X197696Y-46381D01*
X199029D01*
X199695Y-45715D01*
X195696Y-41716D02*
X193031D01*
X191698Y-46381D02*
Y-43049D01*
X191031Y-42383D01*
X189698D01*
X189032Y-43049D01*
Y-46381D01*
X187699Y-41716D02*
X185033D01*
X183034Y-45048D02*
X181701D01*
X181034Y-44382D01*
Y-42383D01*
X183034D01*
X183700Y-43049D01*
X183034Y-43716D01*
X181034D01*
X179701Y-42383D02*
Y-45048D01*
X179035D01*
X178368Y-44382D01*
Y-42383D01*
Y-44382D01*
X177702Y-45048D01*
X177036Y-44382D01*
Y-42383D01*
X175703Y-41050D02*
Y-45048D01*
X173703D01*
X173037Y-44382D01*
Y-43049D01*
X173703Y-42383D01*
X175703D01*
X169705D02*
Y-46381D01*
X171704Y-44382D01*
X169038D01*
X165040Y-42383D02*
X167705D01*
X165040Y-45048D01*
Y-45715D01*
X165706Y-46381D01*
X167039D01*
X167705Y-45715D01*
X163707Y-41716D02*
X161041D01*
X159708Y-42383D02*
X158375D01*
X159041D01*
Y-46381D01*
X159708Y-45715D01*
X252868Y-46381D02*
Y-43049D01*
X252201Y-42383D01*
X250868D01*
X250202Y-43049D01*
Y-46381D01*
X246203Y-42383D02*
X248869D01*
X246203Y-45048D01*
Y-45715D01*
X246870Y-46381D01*
X248203D01*
X248869Y-45715D01*
X244870Y-41716D02*
X242204D01*
X240872Y-46381D02*
Y-43049D01*
X240205Y-42383D01*
X238872D01*
X238206Y-43049D01*
Y-46381D01*
X236873Y-41716D02*
X234207D01*
X232208Y-45048D02*
X230875D01*
X230208Y-44382D01*
Y-42383D01*
X232208D01*
X232874Y-43049D01*
X232208Y-43716D01*
X230208D01*
X228875Y-42383D02*
Y-45048D01*
X228209D01*
X227542Y-44382D01*
Y-42383D01*
Y-44382D01*
X226876Y-45048D01*
X226210Y-44382D01*
Y-42383D01*
X224877Y-41050D02*
Y-45048D01*
X222877D01*
X222211Y-44382D01*
Y-43049D01*
X222877Y-42383D01*
X224877D01*
X218879D02*
Y-46381D01*
X220878Y-44382D01*
X218212D01*
X216879Y-45715D02*
X216213Y-46381D01*
X214880D01*
X214213Y-45715D01*
Y-45048D01*
X214880Y-44382D01*
X215546D01*
X214880D01*
X214213Y-43716D01*
Y-43049D01*
X214880Y-42383D01*
X216213D01*
X216879Y-43049D01*
X212881Y-41716D02*
X210215D01*
X208882Y-42383D02*
X207549D01*
X208215D01*
Y-46381D01*
X208882Y-45715D01*
X302042Y-46381D02*
Y-43049D01*
X301375Y-42383D01*
X300042D01*
X299376Y-43049D01*
Y-46381D01*
X295377Y-42383D02*
X298043D01*
X295377Y-45048D01*
Y-45715D01*
X296044Y-46381D01*
X297377D01*
X298043Y-45715D01*
X294044Y-41716D02*
X291378D01*
X290046Y-46381D02*
Y-43049D01*
X289379Y-42383D01*
X288046D01*
X287380Y-43049D01*
Y-46381D01*
X286047Y-41716D02*
X283381D01*
X281382Y-45048D02*
X280049D01*
X279382Y-44382D01*
Y-42383D01*
X281382D01*
X282048Y-43049D01*
X281382Y-43716D01*
X279382D01*
X278049Y-42383D02*
Y-45048D01*
X277383D01*
X276717Y-44382D01*
Y-42383D01*
Y-44382D01*
X276050Y-45048D01*
X275384Y-44382D01*
Y-42383D01*
X274051Y-41050D02*
Y-45048D01*
X272051D01*
X271385Y-44382D01*
Y-43049D01*
X272051Y-42383D01*
X274051D01*
X268053D02*
Y-46381D01*
X270052Y-44382D01*
X267386D01*
X264054Y-42383D02*
Y-46381D01*
X266053Y-44382D01*
X263387D01*
X262055Y-41716D02*
X259389D01*
X258056Y-42383D02*
X256723D01*
X257389D01*
Y-46381D01*
X258056Y-45715D01*
X351216Y-46381D02*
Y-43049D01*
X350549Y-42383D01*
X349216D01*
X348550Y-43049D01*
Y-46381D01*
X344551Y-42383D02*
X347217D01*
X344551Y-45048D01*
Y-45715D01*
X345218Y-46381D01*
X346551D01*
X347217Y-45715D01*
X343218Y-41716D02*
X340552D01*
X339220Y-46381D02*
Y-43049D01*
X338553Y-42383D01*
X337220D01*
X336554Y-43049D01*
Y-46381D01*
X335221Y-41716D02*
X332555D01*
X330556Y-45048D02*
X329223D01*
X328556Y-44382D01*
Y-42383D01*
X330556D01*
X331222Y-43049D01*
X330556Y-43716D01*
X328556D01*
X327223Y-42383D02*
Y-45048D01*
X326557D01*
X325891Y-44382D01*
Y-42383D01*
Y-44382D01*
X325224Y-45048D01*
X324558Y-44382D01*
Y-42383D01*
X323225Y-41050D02*
Y-45048D01*
X321225D01*
X320559Y-44382D01*
Y-43049D01*
X321225Y-42383D01*
X323225D01*
X317227D02*
Y-46381D01*
X319226Y-44382D01*
X316560D01*
X312562Y-46381D02*
X315227D01*
Y-44382D01*
X313895Y-45048D01*
X313228D01*
X312562Y-44382D01*
Y-43049D01*
X313228Y-42383D01*
X314561D01*
X315227Y-43049D01*
X311229Y-41716D02*
X308563D01*
X307230Y-42383D02*
X305897D01*
X306563D01*
Y-46381D01*
X307230Y-45715D01*
X-351216Y46381D02*
Y43049D01*
X-350549Y42383D01*
X-349216D01*
X-348550Y43049D01*
Y46381D01*
X-344551Y42383D02*
X-347217D01*
X-344551Y45048D01*
Y45715D01*
X-345218Y46381D01*
X-346551D01*
X-347217Y45715D01*
X-343218Y41716D02*
X-340552D01*
X-339220Y46381D02*
Y43049D01*
X-338553Y42383D01*
X-337220D01*
X-336554Y43049D01*
Y46381D01*
X-335221Y41716D02*
X-332555D01*
X-330556Y45048D02*
X-329223D01*
X-328556Y44382D01*
Y42383D01*
X-330556D01*
X-331222Y43049D01*
X-330556Y43716D01*
X-328556D01*
X-327223Y42383D02*
Y45048D01*
X-326557D01*
X-325891Y44382D01*
Y42383D01*
Y44382D01*
X-325224Y45048D01*
X-324558Y44382D01*
Y42383D01*
X-323225Y41050D02*
Y45048D01*
X-321225D01*
X-320559Y44382D01*
Y43049D01*
X-321225Y42383D01*
X-323225D01*
X-317227D02*
Y46381D01*
X-319226Y44382D01*
X-316560D01*
X-312562Y46381D02*
X-315227D01*
Y44382D01*
X-313895Y45048D01*
X-313228D01*
X-312562Y44382D01*
Y43049D01*
X-313228Y42383D01*
X-314561D01*
X-315227Y43049D01*
X-302042Y46381D02*
Y43049D01*
X-301375Y42383D01*
X-300042D01*
X-299376Y43049D01*
Y46381D01*
X-295377Y42383D02*
X-298043D01*
X-295377Y45048D01*
Y45715D01*
X-296044Y46381D01*
X-297377D01*
X-298043Y45715D01*
X-294044Y41716D02*
X-291378D01*
X-290046Y46381D02*
Y43049D01*
X-289379Y42383D01*
X-288046D01*
X-287380Y43049D01*
Y46381D01*
X-286047Y41716D02*
X-283381D01*
X-281382Y45048D02*
X-280049D01*
X-279382Y44382D01*
Y42383D01*
X-281382D01*
X-282048Y43049D01*
X-281382Y43716D01*
X-279382D01*
X-278049Y42383D02*
Y45048D01*
X-277383D01*
X-276717Y44382D01*
Y42383D01*
Y44382D01*
X-276050Y45048D01*
X-275384Y44382D01*
Y42383D01*
X-274051Y41050D02*
Y45048D01*
X-272051D01*
X-271385Y44382D01*
Y43049D01*
X-272051Y42383D01*
X-274051D01*
X-268053D02*
Y46381D01*
X-270052Y44382D01*
X-267386D01*
X-264054Y42383D02*
Y46381D01*
X-266053Y44382D01*
X-263387D01*
X-252868Y46381D02*
Y43049D01*
X-252201Y42383D01*
X-250868D01*
X-250202Y43049D01*
Y46381D01*
X-246203Y42383D02*
X-248869D01*
X-246203Y45048D01*
Y45715D01*
X-246870Y46381D01*
X-248203D01*
X-248869Y45715D01*
X-244870Y41716D02*
X-242204D01*
X-240872Y46381D02*
Y43049D01*
X-240205Y42383D01*
X-238872D01*
X-238206Y43049D01*
Y46381D01*
X-236873Y41716D02*
X-234207D01*
X-232208Y45048D02*
X-230875D01*
X-230208Y44382D01*
Y42383D01*
X-232208D01*
X-232874Y43049D01*
X-232208Y43716D01*
X-230208D01*
X-228875Y42383D02*
Y45048D01*
X-228209D01*
X-227542Y44382D01*
Y42383D01*
Y44382D01*
X-226876Y45048D01*
X-226210Y44382D01*
Y42383D01*
X-224877Y41050D02*
Y45048D01*
X-222877D01*
X-222211Y44382D01*
Y43049D01*
X-222877Y42383D01*
X-224877D01*
X-218879D02*
Y46381D01*
X-220878Y44382D01*
X-218212D01*
X-216879Y45715D02*
X-216213Y46381D01*
X-214880D01*
X-214213Y45715D01*
Y45048D01*
X-214880Y44382D01*
X-215546D01*
X-214880D01*
X-214213Y43716D01*
Y43049D01*
X-214880Y42383D01*
X-216213D01*
X-216879Y43049D01*
X-203694Y46381D02*
Y43049D01*
X-203027Y42383D01*
X-201694D01*
X-201028Y43049D01*
Y46381D01*
X-197029Y42383D02*
X-199695D01*
X-197029Y45048D01*
Y45715D01*
X-197696Y46381D01*
X-199029D01*
X-199695Y45715D01*
X-195696Y41716D02*
X-193031D01*
X-191698Y46381D02*
Y43049D01*
X-191031Y42383D01*
X-189698D01*
X-189032Y43049D01*
Y46381D01*
X-187699Y41716D02*
X-185033D01*
X-183034Y45048D02*
X-181701D01*
X-181034Y44382D01*
Y42383D01*
X-183034D01*
X-183700Y43049D01*
X-183034Y43716D01*
X-181034D01*
X-179701Y42383D02*
Y45048D01*
X-179035D01*
X-178368Y44382D01*
Y42383D01*
Y44382D01*
X-177702Y45048D01*
X-177036Y44382D01*
Y42383D01*
X-175703Y41050D02*
Y45048D01*
X-173703D01*
X-173037Y44382D01*
Y43049D01*
X-173703Y42383D01*
X-175703D01*
X-169705D02*
Y46381D01*
X-171704Y44382D01*
X-169038D01*
X-165040Y42383D02*
X-167705D01*
X-165040Y45048D01*
Y45715D01*
X-165706Y46381D01*
X-167039D01*
X-167705Y45715D01*
X-154520Y46381D02*
Y43049D01*
X-153853Y42383D01*
X-152520D01*
X-151854Y43049D01*
Y46381D01*
X-147855Y42383D02*
X-150521D01*
X-147855Y45048D01*
Y45715D01*
X-148522Y46381D01*
X-149855D01*
X-150521Y45715D01*
X-146522Y41716D02*
X-143856D01*
X-142524Y46381D02*
Y43049D01*
X-141857Y42383D01*
X-140524D01*
X-139858Y43049D01*
Y46381D01*
X-138525Y41716D02*
X-135859D01*
X-133860Y45048D02*
X-132527D01*
X-131860Y44382D01*
Y42383D01*
X-133860D01*
X-134526Y43049D01*
X-133860Y43716D01*
X-131860D01*
X-130527Y42383D02*
Y45048D01*
X-129861D01*
X-129194Y44382D01*
Y42383D01*
Y44382D01*
X-128528Y45048D01*
X-127862Y44382D01*
Y42383D01*
X-126529Y41050D02*
Y45048D01*
X-124529D01*
X-123863Y44382D01*
Y43049D01*
X-124529Y42383D01*
X-126529D01*
X-120531D02*
Y46381D01*
X-122530Y44382D01*
X-119864D01*
X-118531Y42383D02*
X-117198D01*
X-117865D01*
Y46381D01*
X-118531Y45715D01*
X-105346Y46381D02*
Y43049D01*
X-104679Y42383D01*
X-103346D01*
X-102680Y43049D01*
Y46381D01*
X-98681Y42383D02*
X-101347D01*
X-98681Y45048D01*
Y45715D01*
X-99348Y46381D01*
X-100680D01*
X-101347Y45715D01*
X-97348Y41716D02*
X-94682D01*
X-93349Y46381D02*
Y43049D01*
X-92683Y42383D01*
X-91350D01*
X-90684Y43049D01*
Y46381D01*
X-89351Y41716D02*
X-86685D01*
X-84686Y45048D02*
X-83353D01*
X-82686Y44382D01*
Y42383D01*
X-84686D01*
X-85352Y43049D01*
X-84686Y43716D01*
X-82686D01*
X-81353Y42383D02*
Y45048D01*
X-80687D01*
X-80020Y44382D01*
Y42383D01*
Y44382D01*
X-79354Y45048D01*
X-78688Y44382D01*
Y42383D01*
X-77355Y41050D02*
Y45048D01*
X-75355D01*
X-74689Y44382D01*
Y43049D01*
X-75355Y42383D01*
X-77355D01*
X-71357D02*
Y46381D01*
X-73356Y44382D01*
X-70690D01*
X-69357Y45715D02*
X-68691Y46381D01*
X-67358D01*
X-66691Y45715D01*
Y43049D01*
X-67358Y42383D01*
X-68691D01*
X-69357Y43049D01*
Y45715D01*
X-56172Y46381D02*
Y43049D01*
X-55505Y42383D01*
X-54172D01*
X-53506Y43049D01*
Y46381D01*
X-49507Y42383D02*
X-52173D01*
X-49507Y45048D01*
Y45715D01*
X-50174Y46381D01*
X-51507D01*
X-52173Y45715D01*
X-48174Y41716D02*
X-45508D01*
X-44175Y46381D02*
Y43049D01*
X-43509Y42383D01*
X-42176D01*
X-41510Y43049D01*
Y46381D01*
X-40177Y41716D02*
X-37511D01*
X-35512Y45048D02*
X-34179D01*
X-33512Y44382D01*
Y42383D01*
X-35512D01*
X-36178Y43049D01*
X-35512Y43716D01*
X-33512D01*
X-32179Y42383D02*
Y45048D01*
X-31513D01*
X-30847Y44382D01*
Y42383D01*
Y44382D01*
X-30180Y45048D01*
X-29514Y44382D01*
Y42383D01*
X-28181Y41050D02*
Y45048D01*
X-26181D01*
X-25515Y44382D01*
Y43049D01*
X-26181Y42383D01*
X-28181D01*
X-24182Y45715D02*
X-23516Y46381D01*
X-22183D01*
X-21516Y45715D01*
Y45048D01*
X-22183Y44382D01*
X-22849D01*
X-22183D01*
X-21516Y43716D01*
Y43049D01*
X-22183Y42383D01*
X-23516D01*
X-24182Y43049D01*
X-20183D02*
X-19517Y42383D01*
X-18184D01*
X-17517Y43049D01*
Y45715D01*
X-18184Y46381D01*
X-19517D01*
X-20183Y45715D01*
Y45048D01*
X-19517Y44382D01*
X-17517D01*
X-6998Y46381D02*
Y43049D01*
X-6331Y42383D01*
X-4998D01*
X-4332Y43049D01*
Y46381D01*
X-333Y42383D02*
X-2999D01*
X-333Y45048D01*
Y45715D01*
X-1000Y46381D01*
X-2332D01*
X-2999Y45715D01*
X1000Y41716D02*
X3666D01*
X4998Y46381D02*
Y43049D01*
X5665Y42383D01*
X6998D01*
X7664Y43049D01*
Y46381D01*
X8997Y41716D02*
X11663D01*
X13662Y45048D02*
X14995D01*
X15662Y44382D01*
Y42383D01*
X13662D01*
X12996Y43049D01*
X13662Y43716D01*
X15662D01*
X16995Y42383D02*
Y45048D01*
X17661D01*
X18327Y44382D01*
Y42383D01*
Y44382D01*
X18994Y45048D01*
X19660Y44382D01*
Y42383D01*
X20993Y41050D02*
Y45048D01*
X22993D01*
X23659Y44382D01*
Y43049D01*
X22993Y42383D01*
X20993D01*
X24992Y45715D02*
X25659Y46381D01*
X26991D01*
X27658Y45715D01*
Y45048D01*
X26991Y44382D01*
X26325D01*
X26991D01*
X27658Y43716D01*
Y43049D01*
X26991Y42383D01*
X25659D01*
X24992Y43049D01*
X28991Y45715D02*
X29657Y46381D01*
X30990D01*
X31657Y45715D01*
Y45048D01*
X30990Y44382D01*
X31657Y43716D01*
Y43049D01*
X30990Y42383D01*
X29657D01*
X28991Y43049D01*
Y43716D01*
X29657Y44382D01*
X28991Y45048D01*
Y45715D01*
X29657Y44382D02*
X30990D01*
X42176Y46381D02*
Y43049D01*
X42843Y42383D01*
X44176D01*
X44842Y43049D01*
Y46381D01*
X48841Y42383D02*
X46175D01*
X48841Y45048D01*
Y45715D01*
X48175Y46381D01*
X46842D01*
X46175Y45715D01*
X50174Y41716D02*
X52840D01*
X54172Y46381D02*
Y43049D01*
X54839Y42383D01*
X56172D01*
X56838Y43049D01*
Y46381D01*
X58171Y41716D02*
X60837D01*
X62836Y45048D02*
X64169D01*
X64836Y44382D01*
Y42383D01*
X62836D01*
X62170Y43049D01*
X62836Y43716D01*
X64836D01*
X66169Y42383D02*
Y45048D01*
X66835D01*
X67502Y44382D01*
Y42383D01*
Y44382D01*
X68168Y45048D01*
X68835Y44382D01*
Y42383D01*
X70167Y41050D02*
Y45048D01*
X72167D01*
X72833Y44382D01*
Y43049D01*
X72167Y42383D01*
X70167D01*
X74166Y45715D02*
X74832Y46381D01*
X76165D01*
X76832Y45715D01*
Y45048D01*
X76165Y44382D01*
X75499D01*
X76165D01*
X76832Y43716D01*
Y43049D01*
X76165Y42383D01*
X74832D01*
X74166Y43049D01*
X78165Y46381D02*
X80831D01*
Y45715D01*
X78165Y43049D01*
Y42383D01*
X91350Y46381D02*
Y43049D01*
X92017Y42383D01*
X93350D01*
X94016Y43049D01*
Y46381D01*
X98015Y42383D02*
X95349D01*
X98015Y45048D01*
Y45715D01*
X97348Y46381D01*
X96016D01*
X95349Y45715D01*
X99348Y41716D02*
X102014D01*
X103347Y46381D02*
Y43049D01*
X104013Y42383D01*
X105346D01*
X106012Y43049D01*
Y46381D01*
X107345Y41716D02*
X110011D01*
X112010Y45048D02*
X113343D01*
X114010Y44382D01*
Y42383D01*
X112010D01*
X111344Y43049D01*
X112010Y43716D01*
X114010D01*
X115343Y42383D02*
Y45048D01*
X116009D01*
X116676Y44382D01*
Y42383D01*
Y44382D01*
X117342Y45048D01*
X118008Y44382D01*
Y42383D01*
X119341Y41050D02*
Y45048D01*
X121341D01*
X122007Y44382D01*
Y43049D01*
X121341Y42383D01*
X119341D01*
X123340Y45715D02*
X124007Y46381D01*
X125339D01*
X126006Y45715D01*
Y45048D01*
X125339Y44382D01*
X124673D01*
X125339D01*
X126006Y43716D01*
Y43049D01*
X125339Y42383D01*
X124007D01*
X123340Y43049D01*
X130005Y46381D02*
X128672Y45715D01*
X127339Y44382D01*
Y43049D01*
X128005Y42383D01*
X129338D01*
X130005Y43049D01*
Y43716D01*
X129338Y44382D01*
X127339D01*
X140524Y46381D02*
Y43049D01*
X141191Y42383D01*
X142524D01*
X143190Y43049D01*
Y46381D01*
X147189Y42383D02*
X144523D01*
X147189Y45048D01*
Y45715D01*
X146522Y46381D01*
X145190D01*
X144523Y45715D01*
X148522Y41716D02*
X151188D01*
X152521Y46381D02*
Y43049D01*
X153187Y42383D01*
X154520D01*
X155186Y43049D01*
Y46381D01*
X156519Y41716D02*
X159185D01*
X161184Y45048D02*
X162517D01*
X163184Y44382D01*
Y42383D01*
X161184D01*
X160518Y43049D01*
X161184Y43716D01*
X163184D01*
X164517Y42383D02*
Y45048D01*
X165183D01*
X165850Y44382D01*
Y42383D01*
Y44382D01*
X166516Y45048D01*
X167183Y44382D01*
Y42383D01*
X168515Y41050D02*
Y45048D01*
X170515D01*
X171181Y44382D01*
Y43049D01*
X170515Y42383D01*
X168515D01*
X172514Y45715D02*
X173181Y46381D01*
X174513D01*
X175180Y45715D01*
Y45048D01*
X174513Y44382D01*
X173847D01*
X174513D01*
X175180Y43716D01*
Y43049D01*
X174513Y42383D01*
X173181D01*
X172514Y43049D01*
X179179Y46381D02*
X176513D01*
Y44382D01*
X177846Y45048D01*
X178512D01*
X179179Y44382D01*
Y43049D01*
X178512Y42383D01*
X177179D01*
X176513Y43049D01*
X189699Y46381D02*
Y43049D01*
X190365Y42383D01*
X191698D01*
X192364Y43049D01*
Y46381D01*
X196363Y42383D02*
X193697D01*
X196363Y45048D01*
Y45715D01*
X195696Y46381D01*
X194364D01*
X193697Y45715D01*
X197696Y41716D02*
X200362D01*
X201695Y46381D02*
Y43049D01*
X202361Y42383D01*
X203694D01*
X204360Y43049D01*
Y46381D01*
X205693Y41716D02*
X208359D01*
X210359Y45048D02*
X211691D01*
X212358Y44382D01*
Y42383D01*
X210359D01*
X209692Y43049D01*
X210359Y43716D01*
X212358D01*
X213691Y42383D02*
Y45048D01*
X214357D01*
X215024Y44382D01*
Y42383D01*
Y44382D01*
X215690Y45048D01*
X216356Y44382D01*
Y42383D01*
X217689Y41050D02*
Y45048D01*
X219689D01*
X220355Y44382D01*
Y43049D01*
X219689Y42383D01*
X217689D01*
X221688Y45715D02*
X222355Y46381D01*
X223688D01*
X224354Y45715D01*
Y45048D01*
X223688Y44382D01*
X223021D01*
X223688D01*
X224354Y43716D01*
Y43049D01*
X223688Y42383D01*
X222355D01*
X221688Y43049D01*
X227686Y42383D02*
Y46381D01*
X225687Y44382D01*
X228353D01*
X238873Y46381D02*
Y43049D01*
X239539Y42383D01*
X240872D01*
X241538Y43049D01*
Y46381D01*
X245537Y42383D02*
X242871D01*
X245537Y45048D01*
Y45715D01*
X244871Y46381D01*
X243538D01*
X242871Y45715D01*
X246870Y41716D02*
X249536D01*
X250869Y46381D02*
Y43049D01*
X251535Y42383D01*
X252868D01*
X253534Y43049D01*
Y46381D01*
X254867Y41716D02*
X257533D01*
X259532Y45048D02*
X260865D01*
X261532Y44382D01*
Y42383D01*
X259532D01*
X258866Y43049D01*
X259532Y43716D01*
X261532D01*
X262865Y42383D02*
Y45048D01*
X263531D01*
X264198Y44382D01*
Y42383D01*
Y44382D01*
X264864Y45048D01*
X265530Y44382D01*
Y42383D01*
X266863Y41050D02*
Y45048D01*
X268863D01*
X269529Y44382D01*
Y43049D01*
X268863Y42383D01*
X266863D01*
X270862Y45715D02*
X271529Y46381D01*
X272862D01*
X273528Y45715D01*
Y45048D01*
X272862Y44382D01*
X272195D01*
X272862D01*
X273528Y43716D01*
Y43049D01*
X272862Y42383D01*
X271529D01*
X270862Y43049D01*
X274861Y45715D02*
X275527Y46381D01*
X276860D01*
X277527Y45715D01*
Y45048D01*
X276860Y44382D01*
X276194D01*
X276860D01*
X277527Y43716D01*
Y43049D01*
X276860Y42383D01*
X275527D01*
X274861Y43049D01*
X288047Y46381D02*
Y43049D01*
X288713Y42383D01*
X290046D01*
X290712Y43049D01*
Y46381D01*
X294711Y42383D02*
X292045D01*
X294711Y45048D01*
Y45715D01*
X294045Y46381D01*
X292712D01*
X292045Y45715D01*
X296044Y41716D02*
X298710D01*
X300043Y46381D02*
Y43049D01*
X300709Y42383D01*
X302042D01*
X302708Y43049D01*
Y46381D01*
X304041Y41716D02*
X306707D01*
X308706Y45048D02*
X310039D01*
X310706Y44382D01*
Y42383D01*
X308706D01*
X308040Y43049D01*
X308706Y43716D01*
X310706D01*
X312039Y42383D02*
Y45048D01*
X312705D01*
X313372Y44382D01*
Y42383D01*
Y44382D01*
X314038Y45048D01*
X314705Y44382D01*
Y42383D01*
X316038Y41050D02*
Y45048D01*
X318037D01*
X318703Y44382D01*
Y43049D01*
X318037Y42383D01*
X316038D01*
X320036Y45715D02*
X320703Y46381D01*
X322036D01*
X322702Y45715D01*
Y45048D01*
X322036Y44382D01*
X321369D01*
X322036D01*
X322702Y43716D01*
Y43049D01*
X322036Y42383D01*
X320703D01*
X320036Y43049D01*
X326701Y42383D02*
X324035D01*
X326701Y45048D01*
Y45715D01*
X326034Y46381D01*
X324701D01*
X324035Y45715D01*
X337221Y46381D02*
Y43049D01*
X337887Y42383D01*
X339220D01*
X339886Y43049D01*
Y46381D01*
X343885Y42383D02*
X341219D01*
X343885Y45048D01*
Y45715D01*
X343219Y46381D01*
X341886D01*
X341219Y45715D01*
X345218Y41716D02*
X347884D01*
X349217Y46381D02*
Y43049D01*
X349883Y42383D01*
X351216D01*
X351883Y43049D01*
Y46381D01*
X353215Y41716D02*
X355881D01*
X357880Y45048D02*
X359213D01*
X359880Y44382D01*
Y42383D01*
X357880D01*
X357214Y43049D01*
X357880Y43716D01*
X359880D01*
X361213Y42383D02*
Y45048D01*
X361879D01*
X362546Y44382D01*
Y42383D01*
Y44382D01*
X363212Y45048D01*
X363879Y44382D01*
Y42383D01*
X365212Y41050D02*
Y45048D01*
X367211D01*
X367877Y44382D01*
Y43049D01*
X367211Y42383D01*
X365212D01*
X369210Y45715D02*
X369877Y46381D01*
X371210D01*
X371876Y45715D01*
Y45048D01*
X371210Y44382D01*
X370543D01*
X371210D01*
X371876Y43716D01*
Y43049D01*
X371210Y42383D01*
X369877D01*
X369210Y43049D01*
X373209Y42383D02*
X374542D01*
X373875D01*
Y46381D01*
X373209Y45715D01*
X-309891Y195330D02*
Y191998D01*
X-309224Y191331D01*
X-307891D01*
X-307225Y191998D01*
Y195330D01*
X-303226Y191331D02*
X-305892D01*
X-303226Y193997D01*
Y194664D01*
X-303892Y195330D01*
X-305225D01*
X-305892Y194664D01*
X-301893Y190665D02*
X-299227D01*
X-297894Y195330D02*
Y191998D01*
X-297228Y191331D01*
X-295895D01*
X-295229Y191998D01*
Y195330D01*
X-293896Y190665D02*
X-291230D01*
X-289230Y193997D02*
X-287898D01*
X-287231Y193331D01*
Y191331D01*
X-289230D01*
X-289897Y191998D01*
X-289230Y192664D01*
X-287231D01*
X-285898Y191331D02*
Y193997D01*
X-285232D01*
X-284565Y193331D01*
Y191331D01*
Y193331D01*
X-283899Y193997D01*
X-283232Y193331D01*
Y191331D01*
X-281899Y189998D02*
Y193997D01*
X-279900D01*
X-279234Y193331D01*
Y191998D01*
X-279900Y191331D01*
X-281899D01*
X-277901Y194664D02*
X-277234Y195330D01*
X-275901D01*
X-275235Y194664D01*
Y193997D01*
X-275901Y193331D01*
X-276568D01*
X-275901D01*
X-275235Y192664D01*
Y191998D01*
X-275901Y191331D01*
X-277234D01*
X-277901Y191998D01*
X-273902Y194664D02*
X-273236Y195330D01*
X-271903D01*
X-271236Y194664D01*
Y191998D01*
X-271903Y191331D01*
X-273236D01*
X-273902Y191998D01*
Y194664D01*
X-264653Y195330D02*
Y191998D01*
X-263987Y191331D01*
X-262654D01*
X-261988Y191998D01*
Y195330D01*
X-257989Y191331D02*
X-260655D01*
X-257989Y193997D01*
Y194664D01*
X-258655Y195330D01*
X-259988D01*
X-260655Y194664D01*
X-256656Y190665D02*
X-253990D01*
X-252657Y195330D02*
Y191998D01*
X-251991Y191331D01*
X-250658D01*
X-249991Y191998D01*
Y195330D01*
X-248659Y190665D02*
X-245993D01*
X-243993Y193997D02*
X-242661D01*
X-241994Y193331D01*
Y191331D01*
X-243993D01*
X-244660Y191998D01*
X-243993Y192664D01*
X-241994D01*
X-240661Y191331D02*
Y193997D01*
X-239995D01*
X-239328Y193331D01*
Y191331D01*
Y193331D01*
X-238662Y193997D01*
X-237995Y193331D01*
Y191331D01*
X-236663Y189998D02*
Y193997D01*
X-234663D01*
X-233997Y193331D01*
Y191998D01*
X-234663Y191331D01*
X-236663D01*
X-229998D02*
X-232664D01*
X-229998Y193997D01*
Y194664D01*
X-230664Y195330D01*
X-231997D01*
X-232664Y194664D01*
X-228665Y191998D02*
X-227999Y191331D01*
X-226666D01*
X-225999Y191998D01*
Y194664D01*
X-226666Y195330D01*
X-227999D01*
X-228665Y194664D01*
Y193997D01*
X-227999Y193331D01*
X-225999D01*
X-219416Y195330D02*
Y191998D01*
X-218750Y191331D01*
X-217417D01*
X-216751Y191998D01*
Y195330D01*
X-212752Y191331D02*
X-215418D01*
X-212752Y193997D01*
Y194664D01*
X-213418Y195330D01*
X-214751D01*
X-215418Y194664D01*
X-211419Y190665D02*
X-208753D01*
X-207420Y195330D02*
Y191998D01*
X-206754Y191331D01*
X-205421D01*
X-204754Y191998D01*
Y195330D01*
X-203422Y190665D02*
X-200756D01*
X-198756Y193997D02*
X-197424D01*
X-196757Y193331D01*
Y191331D01*
X-198756D01*
X-199423Y191998D01*
X-198756Y192664D01*
X-196757D01*
X-195424Y191331D02*
Y193997D01*
X-194758D01*
X-194091Y193331D01*
Y191331D01*
Y193331D01*
X-193425Y193997D01*
X-192758Y193331D01*
Y191331D01*
X-191426Y189998D02*
Y193997D01*
X-189426D01*
X-188760Y193331D01*
Y191998D01*
X-189426Y191331D01*
X-191426D01*
X-184761D02*
X-187427D01*
X-184761Y193997D01*
Y194664D01*
X-185427Y195330D01*
X-186760D01*
X-187427Y194664D01*
X-183428D02*
X-182762Y195330D01*
X-181429D01*
X-180762Y194664D01*
Y193997D01*
X-181429Y193331D01*
X-180762Y192664D01*
Y191998D01*
X-181429Y191331D01*
X-182762D01*
X-183428Y191998D01*
Y192664D01*
X-182762Y193331D01*
X-183428Y193997D01*
Y194664D01*
X-182762Y193331D02*
X-181429D01*
X-174179Y195330D02*
Y191998D01*
X-173513Y191331D01*
X-172180D01*
X-171514Y191998D01*
Y195330D01*
X-167515Y191331D02*
X-170181D01*
X-167515Y193997D01*
Y194664D01*
X-168181Y195330D01*
X-169514D01*
X-170181Y194664D01*
X-166182Y190665D02*
X-163516D01*
X-162183Y195330D02*
Y191998D01*
X-161517Y191331D01*
X-160184D01*
X-159518Y191998D01*
Y195330D01*
X-158185Y190665D02*
X-155519D01*
X-153519Y193997D02*
X-152187D01*
X-151520Y193331D01*
Y191331D01*
X-153519D01*
X-154186Y191998D01*
X-153519Y192664D01*
X-151520D01*
X-150187Y191331D02*
Y193997D01*
X-149521D01*
X-148854Y193331D01*
Y191331D01*
Y193331D01*
X-148188Y193997D01*
X-147521Y193331D01*
Y191331D01*
X-146188Y189998D02*
Y193997D01*
X-144189D01*
X-143523Y193331D01*
Y191998D01*
X-144189Y191331D01*
X-146188D01*
X-139524D02*
X-142190D01*
X-139524Y193997D01*
Y194664D01*
X-140190Y195330D01*
X-141523D01*
X-142190Y194664D01*
X-138191Y195330D02*
X-135525D01*
Y194664D01*
X-138191Y191998D01*
Y191331D01*
X-128942Y195330D02*
Y191998D01*
X-128276Y191331D01*
X-126943D01*
X-126277Y191998D01*
Y195330D01*
X-122278Y191331D02*
X-124944D01*
X-122278Y193997D01*
Y194664D01*
X-122944Y195330D01*
X-124277D01*
X-124944Y194664D01*
X-120945Y190665D02*
X-118279D01*
X-116946Y195330D02*
Y191998D01*
X-116280Y191331D01*
X-114947D01*
X-114280Y191998D01*
Y195330D01*
X-112948Y190665D02*
X-110282D01*
X-108282Y193997D02*
X-106949D01*
X-106283Y193331D01*
Y191331D01*
X-108282D01*
X-108949Y191998D01*
X-108282Y192664D01*
X-106283D01*
X-104950Y191331D02*
Y193997D01*
X-104284D01*
X-103617Y193331D01*
Y191331D01*
Y193331D01*
X-102951Y193997D01*
X-102284Y193331D01*
Y191331D01*
X-100951Y189998D02*
Y193997D01*
X-98952D01*
X-98286Y193331D01*
Y191998D01*
X-98952Y191331D01*
X-100951D01*
X-94287D02*
X-96953D01*
X-94287Y193997D01*
Y194664D01*
X-94953Y195330D01*
X-96286D01*
X-96953Y194664D01*
X-90288Y195330D02*
X-91621Y194664D01*
X-92954Y193331D01*
Y191998D01*
X-92288Y191331D01*
X-90955D01*
X-90288Y191998D01*
Y192664D01*
X-90955Y193331D01*
X-92954D01*
X-83705Y195330D02*
Y191998D01*
X-83039Y191331D01*
X-81706D01*
X-81040Y191998D01*
Y195330D01*
X-77041Y191331D02*
X-79707D01*
X-77041Y193997D01*
Y194664D01*
X-77707Y195330D01*
X-79040D01*
X-79707Y194664D01*
X-75708Y190665D02*
X-73042D01*
X-71709Y195330D02*
Y191998D01*
X-71043Y191331D01*
X-69710D01*
X-69043Y191998D01*
Y195330D01*
X-67711Y190665D02*
X-65045D01*
X-63045Y193997D02*
X-61712D01*
X-61046Y193331D01*
Y191331D01*
X-63045D01*
X-63712Y191998D01*
X-63045Y192664D01*
X-61046D01*
X-59713Y191331D02*
Y193997D01*
X-59047D01*
X-58380Y193331D01*
Y191331D01*
Y193331D01*
X-57714Y193997D01*
X-57047Y193331D01*
Y191331D01*
X-55714Y189998D02*
Y193997D01*
X-53715D01*
X-53049Y193331D01*
Y191998D01*
X-53715Y191331D01*
X-55714D01*
X-49050D02*
X-51716D01*
X-49050Y193997D01*
Y194664D01*
X-49716Y195330D01*
X-51049D01*
X-51716Y194664D01*
X-45051Y195330D02*
X-47717D01*
Y193331D01*
X-46384Y193997D01*
X-45718D01*
X-45051Y193331D01*
Y191998D01*
X-45718Y191331D01*
X-47051D01*
X-47717Y191998D01*
X-38468Y195330D02*
Y191998D01*
X-37802Y191331D01*
X-36469D01*
X-35803Y191998D01*
Y195330D01*
X-31804Y191331D02*
X-34470D01*
X-31804Y193997D01*
Y194664D01*
X-32470Y195330D01*
X-33803D01*
X-34470Y194664D01*
X-30471Y190665D02*
X-27805D01*
X-26472Y195330D02*
Y191998D01*
X-25806Y191331D01*
X-24473D01*
X-23807Y191998D01*
Y195330D01*
X-22474Y190665D02*
X-19808D01*
X-17808Y193997D02*
X-16476D01*
X-15809Y193331D01*
Y191331D01*
X-17808D01*
X-18475Y191998D01*
X-17808Y192664D01*
X-15809D01*
X-14476Y191331D02*
Y193997D01*
X-13810D01*
X-13143Y193331D01*
Y191331D01*
Y193331D01*
X-12477Y193997D01*
X-11810Y193331D01*
Y191331D01*
X-10477Y189998D02*
Y193997D01*
X-8478D01*
X-7812Y193331D01*
Y191998D01*
X-8478Y191331D01*
X-10477D01*
X-3813D02*
X-6479D01*
X-3813Y193997D01*
Y194664D01*
X-4479Y195330D01*
X-5812D01*
X-6479Y194664D01*
X-481Y191331D02*
Y195330D01*
X-2480Y193331D01*
X186D01*
X-350611Y316723D02*
Y313391D01*
X-349944Y312724D01*
X-348611D01*
X-347945Y313391D01*
Y316723D01*
X-343946Y312724D02*
X-346612D01*
X-343946Y315390D01*
Y316057D01*
X-344613Y316723D01*
X-345945D01*
X-346612Y316057D01*
X-342613Y312058D02*
X-339947D01*
X-338614Y316723D02*
Y313391D01*
X-337948Y312724D01*
X-336615D01*
X-335949Y313391D01*
Y316723D01*
X-334616Y312058D02*
X-331950D01*
X-329951Y315390D02*
X-328618D01*
X-327951Y314724D01*
Y312724D01*
X-329951D01*
X-330617Y313391D01*
X-329951Y314057D01*
X-327951D01*
X-326618Y312724D02*
Y315390D01*
X-325952D01*
X-325285Y314724D01*
Y312724D01*
Y314724D01*
X-324619Y315390D01*
X-323953Y314724D01*
Y312724D01*
X-322620Y311392D02*
Y315390D01*
X-320620D01*
X-319954Y314724D01*
Y313391D01*
X-320620Y312724D01*
X-322620D01*
X-315955D02*
X-318621D01*
X-315955Y315390D01*
Y316057D01*
X-316621Y316723D01*
X-317954D01*
X-318621Y316057D01*
X-314622D02*
X-313956Y316723D01*
X-312623D01*
X-311956Y316057D01*
Y315390D01*
X-312623Y314724D01*
X-313289D01*
X-312623D01*
X-311956Y314057D01*
Y313391D01*
X-312623Y312724D01*
X-313956D01*
X-314622Y313391D01*
X6122Y175228D02*
Y171896D01*
X6788Y171229D01*
X8121D01*
X8788Y171896D01*
Y175228D01*
X12787Y171229D02*
X10121D01*
X12787Y173895D01*
Y174561D01*
X12120Y175228D01*
X10787D01*
X10121Y174561D01*
X14119Y170563D02*
X16785D01*
X18118Y175228D02*
Y171896D01*
X18785Y171229D01*
X20118D01*
X20784Y171896D01*
Y175228D01*
X22117Y170563D02*
X24783D01*
X26782Y173895D02*
X28115D01*
X28781Y173229D01*
Y171229D01*
X26782D01*
X26116Y171896D01*
X26782Y172562D01*
X28781D01*
X30114Y171229D02*
Y173895D01*
X30781D01*
X31447Y173229D01*
Y171229D01*
Y173229D01*
X32114Y173895D01*
X32780Y173229D01*
Y171229D01*
X34113Y169896D02*
Y173895D01*
X36112D01*
X36779Y173229D01*
Y171896D01*
X36112Y171229D01*
X34113D01*
X40778D02*
X38112D01*
X40778Y173895D01*
Y174561D01*
X40111Y175228D01*
X38778D01*
X38112Y174561D01*
X44776Y171229D02*
X42110D01*
X44776Y173895D01*
Y174561D01*
X44110Y175228D01*
X42777D01*
X42110Y174561D01*
X51359Y175228D02*
Y171896D01*
X52026Y171229D01*
X53358D01*
X54025Y171896D01*
Y175228D01*
X58024Y171229D02*
X55358D01*
X58024Y173895D01*
Y174561D01*
X57357Y175228D01*
X56024D01*
X55358Y174561D01*
X59356Y170563D02*
X62022D01*
X63355Y175228D02*
Y171896D01*
X64022Y171229D01*
X65355D01*
X66021Y171896D01*
Y175228D01*
X67354Y170563D02*
X70020D01*
X72019Y173895D02*
X73352D01*
X74018Y173229D01*
Y171229D01*
X72019D01*
X71353Y171896D01*
X72019Y172562D01*
X74018D01*
X75351Y171229D02*
Y173895D01*
X76018D01*
X76684Y173229D01*
Y171229D01*
Y173229D01*
X77351Y173895D01*
X78017Y173229D01*
Y171229D01*
X79350Y169896D02*
Y173895D01*
X81349D01*
X82016Y173229D01*
Y171896D01*
X81349Y171229D01*
X79350D01*
X86014D02*
X83349D01*
X86014Y173895D01*
Y174561D01*
X85348Y175228D01*
X84015D01*
X83349Y174561D01*
X87347Y171229D02*
X88680D01*
X88014D01*
Y175228D01*
X87347Y174561D01*
X96596Y175228D02*
Y171896D01*
X97263Y171229D01*
X98595D01*
X99262Y171896D01*
Y175228D01*
X103261Y171229D02*
X100595D01*
X103261Y173895D01*
Y174561D01*
X102594Y175228D01*
X101261D01*
X100595Y174561D01*
X104594Y170563D02*
X107259D01*
X108592Y175228D02*
Y171896D01*
X109259Y171229D01*
X110591D01*
X111258Y171896D01*
Y175228D01*
X112591Y170563D02*
X115257D01*
X117256Y173895D02*
X118589D01*
X119255Y173229D01*
Y171229D01*
X117256D01*
X116590Y171896D01*
X117256Y172562D01*
X119255D01*
X120588Y171229D02*
Y173895D01*
X121255D01*
X121921Y173229D01*
Y171229D01*
Y173229D01*
X122588Y173895D01*
X123254Y173229D01*
Y171229D01*
X124587Y169896D02*
Y173895D01*
X126586D01*
X127253Y173229D01*
Y171896D01*
X126586Y171229D01*
X124587D01*
X131252D02*
X128586D01*
X131252Y173895D01*
Y174561D01*
X130585Y175228D01*
X129252D01*
X128586Y174561D01*
X132584D02*
X133251Y175228D01*
X134584D01*
X135250Y174561D01*
Y171896D01*
X134584Y171229D01*
X133251D01*
X132584Y171896D01*
Y174561D01*
X141833Y175228D02*
Y171896D01*
X142499Y171229D01*
X143832D01*
X144499Y171896D01*
Y175228D01*
X148498Y171229D02*
X145832D01*
X148498Y173895D01*
Y174561D01*
X147831Y175228D01*
X146498D01*
X145832Y174561D01*
X149830Y170563D02*
X152496D01*
X153829Y175228D02*
Y171896D01*
X154496Y171229D01*
X155828D01*
X156495Y171896D01*
Y175228D01*
X157828Y170563D02*
X160494D01*
X162493Y173895D02*
X163826D01*
X164492Y173229D01*
Y171229D01*
X162493D01*
X161827Y171896D01*
X162493Y172562D01*
X164492D01*
X165825Y171229D02*
Y173895D01*
X166492D01*
X167158Y173229D01*
Y171229D01*
Y173229D01*
X167825Y173895D01*
X168491Y173229D01*
Y171229D01*
X169824Y169896D02*
Y173895D01*
X171823D01*
X172490Y173229D01*
Y171896D01*
X171823Y171229D01*
X169824D01*
X173823D02*
X175156D01*
X174489D01*
Y175228D01*
X173823Y174561D01*
X177155Y171896D02*
X177822Y171229D01*
X179154D01*
X179821Y171896D01*
Y174561D01*
X179154Y175228D01*
X177822D01*
X177155Y174561D01*
Y173895D01*
X177822Y173229D01*
X179821D01*
X232307Y175228D02*
Y171896D01*
X232974Y171229D01*
X234306D01*
X234973Y171896D01*
Y175228D01*
X238972Y171229D02*
X236306D01*
X238972Y173895D01*
Y174561D01*
X238305Y175228D01*
X236972D01*
X236306Y174561D01*
X240304Y170563D02*
X242970D01*
X244303Y175228D02*
Y171896D01*
X244970Y171229D01*
X246303D01*
X246969Y171896D01*
Y175228D01*
X248302Y170563D02*
X250968D01*
X252967Y173895D02*
X254300D01*
X254966Y173229D01*
Y171229D01*
X252967D01*
X252301Y171896D01*
X252967Y172562D01*
X254966D01*
X256299Y171229D02*
Y173895D01*
X256966D01*
X257632Y173229D01*
Y171229D01*
Y173229D01*
X258299Y173895D01*
X258965Y173229D01*
Y171229D01*
X260298Y169896D02*
Y173895D01*
X262297D01*
X262964Y173229D01*
Y171896D01*
X262297Y171229D01*
X260298D01*
X264297D02*
X265630D01*
X264963D01*
Y175228D01*
X264297Y174561D01*
X267629Y175228D02*
X270295D01*
Y174561D01*
X267629Y171896D01*
Y171229D01*
X277544Y175228D02*
Y171896D01*
X278210Y171229D01*
X279543D01*
X280210Y171896D01*
Y175228D01*
X284209Y171229D02*
X281543D01*
X284209Y173895D01*
Y174561D01*
X283542Y175228D01*
X282209D01*
X281543Y174561D01*
X285542Y170563D02*
X288207D01*
X289540Y175228D02*
Y171896D01*
X290207Y171229D01*
X291540D01*
X292206Y171896D01*
Y175228D01*
X293539Y170563D02*
X296205D01*
X298204Y173895D02*
X299537D01*
X300203Y173229D01*
Y171229D01*
X298204D01*
X297538Y171896D01*
X298204Y172562D01*
X300203D01*
X301536Y171229D02*
Y173895D01*
X302203D01*
X302869Y173229D01*
Y171229D01*
Y173229D01*
X303536Y173895D01*
X304202Y173229D01*
Y171229D01*
X305535Y169896D02*
Y173895D01*
X307534D01*
X308201Y173229D01*
Y171896D01*
X307534Y171229D01*
X305535D01*
X309534D02*
X310867D01*
X310200D01*
Y175228D01*
X309534Y174561D01*
X315532Y175228D02*
X314199Y174561D01*
X312866Y173229D01*
Y171896D01*
X313532Y171229D01*
X314865D01*
X315532Y171896D01*
Y172562D01*
X314865Y173229D01*
X312866D01*
X322419Y175399D02*
Y172066D01*
X323085Y171400D01*
X324418D01*
X325085Y172066D01*
Y175399D01*
X329083Y171400D02*
X326418D01*
X329083Y174066D01*
Y174732D01*
X328417Y175399D01*
X327084D01*
X326418Y174732D01*
X330416Y170733D02*
X333082D01*
X334415Y175399D02*
Y172066D01*
X335082Y171400D01*
X336414D01*
X337081Y172066D01*
Y175399D01*
X338414Y170733D02*
X341079D01*
X343079Y174066D02*
X344412D01*
X345078Y173399D01*
Y171400D01*
X343079D01*
X342412Y172066D01*
X343079Y172733D01*
X345078D01*
X346411Y171400D02*
Y174066D01*
X347078D01*
X347744Y173399D01*
Y171400D01*
Y173399D01*
X348411Y174066D01*
X349077Y173399D01*
Y171400D01*
X350410Y170067D02*
Y174066D01*
X352409D01*
X353076Y173399D01*
Y172066D01*
X352409Y171400D01*
X350410D01*
X354409D02*
X355742D01*
X355075D01*
Y175399D01*
X354409Y174732D01*
X360407Y175399D02*
X357741D01*
Y173399D01*
X359074Y174066D01*
X359740D01*
X360407Y173399D01*
Y172066D01*
X359740Y171400D01*
X358407D01*
X357741Y172066D01*
X-301442Y316803D02*
Y313471D01*
X-300775Y312805D01*
X-299442D01*
X-298776Y313471D01*
Y316803D01*
X-294777Y312805D02*
X-297443D01*
X-294777Y315471D01*
Y316137D01*
X-295444Y316803D01*
X-296777D01*
X-297443Y316137D01*
X-293444Y312138D02*
X-290778D01*
X-289446Y316803D02*
Y313471D01*
X-288779Y312805D01*
X-287446D01*
X-286780Y313471D01*
Y316803D01*
X-285447Y312138D02*
X-282781D01*
X-280782Y315471D02*
X-279449D01*
X-278782Y314804D01*
Y312805D01*
X-280782D01*
X-281448Y313471D01*
X-280782Y314138D01*
X-278782D01*
X-277449Y312805D02*
Y315471D01*
X-276783D01*
X-276117Y314804D01*
Y312805D01*
Y314804D01*
X-275450Y315471D01*
X-274784Y314804D01*
Y312805D01*
X-273451Y311472D02*
Y315471D01*
X-271451D01*
X-270785Y314804D01*
Y313471D01*
X-271451Y312805D01*
X-273451D01*
X-269452D02*
X-268119D01*
X-268786D01*
Y316803D01*
X-269452Y316137D01*
X-264120Y312805D02*
Y316803D01*
X-266120Y314804D01*
X-263454D01*
X-203094Y316803D02*
Y313471D01*
X-202427Y312805D01*
X-201094D01*
X-200428Y313471D01*
Y316803D01*
X-196429Y312805D02*
X-199095D01*
X-196429Y315471D01*
Y316137D01*
X-197096Y316803D01*
X-198428D01*
X-199095Y316137D01*
X-195096Y312138D02*
X-192430D01*
X-191098Y316803D02*
Y313471D01*
X-190431Y312805D01*
X-189098D01*
X-188432Y313471D01*
Y316803D01*
X-187099Y312138D02*
X-184433D01*
X-182434Y315471D02*
X-181101D01*
X-180434Y314804D01*
Y312805D01*
X-182434D01*
X-183100Y313471D01*
X-182434Y314138D01*
X-180434D01*
X-179101Y312805D02*
Y315471D01*
X-178435D01*
X-177769Y314804D01*
Y312805D01*
Y314804D01*
X-177102Y315471D01*
X-176436Y314804D01*
Y312805D01*
X-175103Y311472D02*
Y315471D01*
X-173103D01*
X-172437Y314804D01*
Y313471D01*
X-173103Y312805D01*
X-175103D01*
X-171104D02*
X-169771D01*
X-170438D01*
Y316803D01*
X-171104Y316137D01*
X-165106Y312805D02*
X-167772D01*
X-165106Y315471D01*
Y316137D01*
X-165772Y316803D01*
X-167105D01*
X-167772Y316137D01*
X-153920Y316803D02*
Y313471D01*
X-153253Y312805D01*
X-151920D01*
X-151254Y313471D01*
Y316803D01*
X-147255Y312805D02*
X-149921D01*
X-147255Y315471D01*
Y316137D01*
X-147922Y316803D01*
X-149255D01*
X-149921Y316137D01*
X-145922Y312138D02*
X-143256D01*
X-141923Y316803D02*
Y313471D01*
X-141257Y312805D01*
X-139924D01*
X-139258Y313471D01*
Y316803D01*
X-137925Y312138D02*
X-135259D01*
X-133260Y315471D02*
X-131927D01*
X-131260Y314804D01*
Y312805D01*
X-133260D01*
X-133926Y313471D01*
X-133260Y314138D01*
X-131260D01*
X-129927Y312805D02*
Y315471D01*
X-129261D01*
X-128595Y314804D01*
Y312805D01*
Y314804D01*
X-127928Y315471D01*
X-127262Y314804D01*
Y312805D01*
X-125929Y311472D02*
Y315471D01*
X-123929D01*
X-123263Y314804D01*
Y313471D01*
X-123929Y312805D01*
X-125929D01*
X-121930D02*
X-120597D01*
X-121264D01*
Y316803D01*
X-121930Y316137D01*
X-118598Y312805D02*
X-117265D01*
X-117931D01*
Y316803D01*
X-118598Y316137D01*
X-104746Y316803D02*
Y313471D01*
X-104079Y312805D01*
X-102746D01*
X-102080Y313471D01*
Y316803D01*
X-98081Y312805D02*
X-100747D01*
X-98081Y315471D01*
Y316137D01*
X-98748Y316803D01*
X-100081D01*
X-100747Y316137D01*
X-96748Y312138D02*
X-94082D01*
X-92750Y316803D02*
Y313471D01*
X-92083Y312805D01*
X-90750D01*
X-90084Y313471D01*
Y316803D01*
X-88751Y312138D02*
X-86085D01*
X-84086Y315471D02*
X-82753D01*
X-82086Y314804D01*
Y312805D01*
X-84086D01*
X-84752Y313471D01*
X-84086Y314138D01*
X-82086D01*
X-80753Y312805D02*
Y315471D01*
X-80087D01*
X-79421Y314804D01*
Y312805D01*
Y314804D01*
X-78754Y315471D01*
X-78088Y314804D01*
Y312805D01*
X-76755Y311472D02*
Y315471D01*
X-74755D01*
X-74089Y314804D01*
Y313471D01*
X-74755Y312805D01*
X-76755D01*
X-72756D02*
X-71423D01*
X-72089D01*
Y316803D01*
X-72756Y316137D01*
X-69424D02*
X-68757Y316803D01*
X-67424D01*
X-66758Y316137D01*
Y313471D01*
X-67424Y312805D01*
X-68757D01*
X-69424Y313471D01*
Y316137D01*
X-55572Y316803D02*
Y313471D01*
X-54905Y312805D01*
X-53572D01*
X-52906Y313471D01*
Y316803D01*
X-48907Y312805D02*
X-51573D01*
X-48907Y315471D01*
Y316137D01*
X-49574Y316803D01*
X-50906D01*
X-51573Y316137D01*
X-47574Y312138D02*
X-44908D01*
X-43576Y316803D02*
Y313471D01*
X-42909Y312805D01*
X-41576D01*
X-40910Y313471D01*
Y316803D01*
X-39577Y312138D02*
X-36911D01*
X-34912Y315471D02*
X-33579D01*
X-32912Y314804D01*
Y312805D01*
X-34912D01*
X-35578Y313471D01*
X-34912Y314138D01*
X-32912D01*
X-31579Y312805D02*
Y315471D01*
X-30913D01*
X-30246Y314804D01*
Y312805D01*
Y314804D01*
X-29580Y315471D01*
X-28914Y314804D01*
Y312805D01*
X-27581Y311472D02*
Y315471D01*
X-25581D01*
X-24915Y314804D01*
Y313471D01*
X-25581Y312805D01*
X-27581D01*
X-23582Y313471D02*
X-22916Y312805D01*
X-21583D01*
X-20916Y313471D01*
Y316137D01*
X-21583Y316803D01*
X-22916D01*
X-23582Y316137D01*
Y315471D01*
X-22916Y314804D01*
X-20916D01*
X-6398Y316803D02*
Y313471D01*
X-5731Y312805D01*
X-4398D01*
X-3732Y313471D01*
Y316803D01*
X267Y312805D02*
X-2399D01*
X267Y315471D01*
Y316137D01*
X-399Y316803D01*
X-1733D01*
X-2399Y316137D01*
X1600Y312138D02*
X4266D01*
X5598Y316803D02*
Y313471D01*
X6265Y312805D01*
X7598D01*
X8264Y313471D01*
Y316803D01*
X9597Y312138D02*
X12263D01*
X14262Y315471D02*
X15595D01*
X16262Y314804D01*
Y312805D01*
X14262D01*
X13596Y313471D01*
X14262Y314138D01*
X16262D01*
X17595Y312805D02*
Y315471D01*
X18261D01*
X18927Y314804D01*
Y312805D01*
Y314804D01*
X19594Y315471D01*
X20260Y314804D01*
Y312805D01*
X21593Y311472D02*
Y315471D01*
X23593D01*
X24259Y314804D01*
Y313471D01*
X23593Y312805D01*
X21593D01*
X25592Y316137D02*
X26259Y316803D01*
X27591D01*
X28258Y316137D01*
Y315471D01*
X27591Y314804D01*
X28258Y314138D01*
Y313471D01*
X27591Y312805D01*
X26259D01*
X25592Y313471D01*
Y314138D01*
X26259Y314804D01*
X25592Y315471D01*
Y316137D01*
X26259Y314804D02*
X27591D01*
X42776Y316803D02*
Y313471D01*
X43443Y312805D01*
X44776D01*
X45442Y313471D01*
Y316803D01*
X49441Y312805D02*
X46775D01*
X49441Y315471D01*
Y316137D01*
X48774Y316803D01*
X47442D01*
X46775Y316137D01*
X50774Y312138D02*
X53440D01*
X54773Y316803D02*
Y313471D01*
X55439Y312805D01*
X56772D01*
X57438Y313471D01*
Y316803D01*
X58771Y312138D02*
X61437D01*
X63436Y315471D02*
X64769D01*
X65436Y314804D01*
Y312805D01*
X63436D01*
X62770Y313471D01*
X63436Y314138D01*
X65436D01*
X66769Y312805D02*
Y315471D01*
X67435D01*
X68102Y314804D01*
Y312805D01*
Y314804D01*
X68768Y315471D01*
X69434Y314804D01*
Y312805D01*
X70767Y311472D02*
Y315471D01*
X72767D01*
X73433Y314804D01*
Y313471D01*
X72767Y312805D01*
X70767D01*
X74766Y316803D02*
X77432D01*
Y316137D01*
X74766Y313471D01*
Y312805D01*
X91950Y316803D02*
Y313471D01*
X92617Y312805D01*
X93950D01*
X94616Y313471D01*
Y316803D01*
X98615Y312805D02*
X95949D01*
X98615Y315471D01*
Y316137D01*
X97948Y316803D01*
X96616D01*
X95949Y316137D01*
X99948Y312138D02*
X102614D01*
X103947Y316803D02*
Y313471D01*
X104613Y312805D01*
X105946D01*
X106612Y313471D01*
Y316803D01*
X107945Y312138D02*
X110611D01*
X112610Y315471D02*
X113943D01*
X114610Y314804D01*
Y312805D01*
X112610D01*
X111944Y313471D01*
X112610Y314138D01*
X114610D01*
X115943Y312805D02*
Y315471D01*
X116609D01*
X117276Y314804D01*
Y312805D01*
Y314804D01*
X117942Y315471D01*
X118608Y314804D01*
Y312805D01*
X119941Y311472D02*
Y315471D01*
X121941D01*
X122607Y314804D01*
Y313471D01*
X121941Y312805D01*
X119941D01*
X126606Y316803D02*
X125273Y316137D01*
X123940Y314804D01*
Y313471D01*
X124607Y312805D01*
X125940D01*
X126606Y313471D01*
Y314138D01*
X125940Y314804D01*
X123940D01*
X141124Y316803D02*
Y313471D01*
X141791Y312805D01*
X143124D01*
X143790Y313471D01*
Y316803D01*
X147789Y312805D02*
X145123D01*
X147789Y315471D01*
Y316137D01*
X147123Y316803D01*
X145790D01*
X145123Y316137D01*
X149122Y312138D02*
X151788D01*
X153121Y316803D02*
Y313471D01*
X153787Y312805D01*
X155120D01*
X155786Y313471D01*
Y316803D01*
X157119Y312138D02*
X159785D01*
X161784Y315471D02*
X163117D01*
X163784Y314804D01*
Y312805D01*
X161784D01*
X161118Y313471D01*
X161784Y314138D01*
X163784D01*
X165117Y312805D02*
Y315471D01*
X165783D01*
X166450Y314804D01*
Y312805D01*
Y314804D01*
X167116Y315471D01*
X167782Y314804D01*
Y312805D01*
X169115Y311472D02*
Y315471D01*
X171115D01*
X171781Y314804D01*
Y313471D01*
X171115Y312805D01*
X169115D01*
X175780Y316803D02*
X173114D01*
Y314804D01*
X174447Y315471D01*
X175113D01*
X175780Y314804D01*
Y313471D01*
X175113Y312805D01*
X173781D01*
X173114Y313471D01*
X190298Y316803D02*
Y313471D01*
X190965Y312805D01*
X192298D01*
X192964Y313471D01*
Y316803D01*
X196963Y312805D02*
X194297D01*
X196963Y315471D01*
Y316137D01*
X196297Y316803D01*
X194964D01*
X194297Y316137D01*
X198296Y312138D02*
X200962D01*
X202295Y316803D02*
Y313471D01*
X202961Y312805D01*
X204294D01*
X204960Y313471D01*
Y316803D01*
X206293Y312138D02*
X208959D01*
X210959Y315471D02*
X212291D01*
X212958Y314804D01*
Y312805D01*
X210959D01*
X210292Y313471D01*
X210959Y314138D01*
X212958D01*
X214291Y312805D02*
Y315471D01*
X214957D01*
X215624Y314804D01*
Y312805D01*
Y314804D01*
X216290Y315471D01*
X216956Y314804D01*
Y312805D01*
X218289Y311472D02*
Y315471D01*
X220289D01*
X220955Y314804D01*
Y313471D01*
X220289Y312805D01*
X218289D01*
X224288D02*
Y316803D01*
X222288Y314804D01*
X224954D01*
X239473Y316803D02*
Y313471D01*
X240139Y312805D01*
X241472D01*
X242138Y313471D01*
Y316803D01*
X246137Y312805D02*
X243471D01*
X246137Y315471D01*
Y316137D01*
X245471Y316803D01*
X244138D01*
X243471Y316137D01*
X247470Y312138D02*
X250136D01*
X251469Y316803D02*
Y313471D01*
X252135Y312805D01*
X253468D01*
X254134Y313471D01*
Y316803D01*
X255467Y312138D02*
X258133D01*
X260133Y315471D02*
X261465D01*
X262132Y314804D01*
Y312805D01*
X260133D01*
X259466Y313471D01*
X260133Y314138D01*
X262132D01*
X263465Y312805D02*
Y315471D01*
X264131D01*
X264798Y314804D01*
Y312805D01*
Y314804D01*
X265464Y315471D01*
X266130Y314804D01*
Y312805D01*
X267463Y311472D02*
Y315471D01*
X269463D01*
X270129Y314804D01*
Y313471D01*
X269463Y312805D01*
X267463D01*
X271462Y316137D02*
X272129Y316803D01*
X273462D01*
X274128Y316137D01*
Y315471D01*
X273462Y314804D01*
X272795D01*
X273462D01*
X274128Y314138D01*
Y313471D01*
X273462Y312805D01*
X272129D01*
X271462Y313471D01*
X288647Y316803D02*
Y313471D01*
X289313Y312805D01*
X290646D01*
X291312Y313471D01*
Y316803D01*
X295311Y312805D02*
X292645D01*
X295311Y315471D01*
Y316137D01*
X294645Y316803D01*
X293312D01*
X292645Y316137D01*
X296644Y312138D02*
X299310D01*
X300643Y316803D02*
Y313471D01*
X301309Y312805D01*
X302642D01*
X303308Y313471D01*
Y316803D01*
X304641Y312138D02*
X307307D01*
X309307Y315471D02*
X310639D01*
X311306Y314804D01*
Y312805D01*
X309307D01*
X308640Y313471D01*
X309307Y314138D01*
X311306D01*
X312639Y312805D02*
Y315471D01*
X313305D01*
X313972Y314804D01*
Y312805D01*
Y314804D01*
X314638Y315471D01*
X315305Y314804D01*
Y312805D01*
X316637Y311472D02*
Y315471D01*
X318637D01*
X319303Y314804D01*
Y313471D01*
X318637Y312805D01*
X316637D01*
X323302D02*
X320636D01*
X323302Y315471D01*
Y316137D01*
X322636Y316803D01*
X321303D01*
X320636Y316137D01*
X337821Y316803D02*
Y313471D01*
X338487Y312805D01*
X339820D01*
X340486Y313471D01*
Y316803D01*
X344485Y312805D02*
X341819D01*
X344485Y315471D01*
Y316137D01*
X343819Y316803D01*
X342486D01*
X341819Y316137D01*
X345818Y312138D02*
X348484D01*
X349817Y316803D02*
Y313471D01*
X350483Y312805D01*
X351816D01*
X352483Y313471D01*
Y316803D01*
X353815Y312138D02*
X356481D01*
X358481Y315471D02*
X359813D01*
X360480Y314804D01*
Y312805D01*
X358481D01*
X357814Y313471D01*
X358481Y314138D01*
X360480D01*
X361813Y312805D02*
Y315471D01*
X362479D01*
X363146Y314804D01*
Y312805D01*
Y314804D01*
X363812Y315471D01*
X364479Y314804D01*
Y312805D01*
X365811Y311472D02*
Y315471D01*
X367811D01*
X368477Y314804D01*
Y313471D01*
X367811Y312805D01*
X365811D01*
X369810D02*
X371143D01*
X370477D01*
Y316803D01*
X369810Y316137D01*
X-252268Y316803D02*
Y313471D01*
X-251601Y312805D01*
X-250268D01*
X-249602Y313471D01*
Y316803D01*
X-245603Y312805D02*
X-248269D01*
X-245603Y315471D01*
Y316137D01*
X-246270Y316803D01*
X-247603D01*
X-248269Y316137D01*
X-244270Y312138D02*
X-241604D01*
X-240272Y316803D02*
Y313471D01*
X-239605Y312805D01*
X-238272D01*
X-237606Y313471D01*
Y316803D01*
X-236273Y312138D02*
X-233607D01*
X-231608Y315471D02*
X-230275D01*
X-229608Y314804D01*
Y312805D01*
X-231608D01*
X-232274Y313471D01*
X-231608Y314138D01*
X-229608D01*
X-228275Y312805D02*
Y315471D01*
X-227609D01*
X-226942Y314804D01*
Y312805D01*
Y314804D01*
X-226276Y315471D01*
X-225610Y314804D01*
Y312805D01*
X-224277Y311472D02*
Y315471D01*
X-222277D01*
X-221611Y314804D01*
Y313471D01*
X-222277Y312805D01*
X-224277D01*
X-220278D02*
X-218945D01*
X-219612D01*
Y316803D01*
X-220278Y316137D01*
X-216946D02*
X-216279Y316803D01*
X-214946D01*
X-214280Y316137D01*
Y315471D01*
X-214946Y314804D01*
X-215613D01*
X-214946D01*
X-214280Y314138D01*
Y313471D01*
X-214946Y312805D01*
X-216279D01*
X-216946Y313471D01*
X187070Y175228D02*
Y171896D01*
X187736Y171229D01*
X189069D01*
X189736Y171896D01*
Y175228D01*
X193735Y171229D02*
X191069D01*
X193735Y173895D01*
Y174561D01*
X193068Y175228D01*
X191735D01*
X191069Y174561D01*
X195068Y170563D02*
X197733D01*
X199066Y175228D02*
Y171896D01*
X199733Y171229D01*
X201066D01*
X201732Y171896D01*
Y175228D01*
X203065Y170563D02*
X205731D01*
X207730Y173895D02*
X209063D01*
X209729Y173229D01*
Y171229D01*
X207730D01*
X207064Y171896D01*
X207730Y172562D01*
X209729D01*
X211062Y171229D02*
Y173895D01*
X211729D01*
X212395Y173229D01*
Y171229D01*
Y173229D01*
X213062Y173895D01*
X213728Y173229D01*
Y171229D01*
X215061Y169896D02*
Y173895D01*
X217060D01*
X217727Y173229D01*
Y171896D01*
X217060Y171229D01*
X215061D01*
X219060D02*
X220393D01*
X219726D01*
Y175228D01*
X219060Y174561D01*
X222392D02*
X223059Y175228D01*
X224391D01*
X225058Y174561D01*
Y173895D01*
X224391Y173229D01*
X225058Y172562D01*
Y171896D01*
X224391Y171229D01*
X223059D01*
X222392Y171896D01*
Y172562D01*
X223059Y173229D01*
X222392Y173895D01*
Y174561D01*
X223059Y173229D02*
X224391D01*
D56*
X-350726Y-316146D02*
Y-314178D01*
X-350332Y-313785D01*
X-349545D01*
X-349152Y-314178D01*
Y-316146D01*
X-348365Y-313785D02*
X-347577D01*
X-347971D01*
Y-316146D01*
X-348365Y-315753D01*
X-346397Y-313391D02*
X-344822D01*
X-344035Y-316146D02*
Y-314178D01*
X-343642Y-313785D01*
X-342855D01*
X-342461Y-314178D01*
Y-316146D01*
X-341674Y-313391D02*
X-340100D01*
X-338919Y-315359D02*
X-338132D01*
X-337738Y-314965D01*
Y-313785D01*
X-338919D01*
X-339312Y-314178D01*
X-338919Y-314572D01*
X-337738D01*
X-336951Y-313785D02*
Y-315359D01*
X-336557D01*
X-336164Y-314965D01*
Y-313785D01*
Y-314965D01*
X-335770Y-315359D01*
X-335377Y-314965D01*
Y-313785D01*
X-334590Y-312998D02*
Y-315359D01*
X-333409D01*
X-333015Y-314965D01*
Y-314178D01*
X-333409Y-313785D01*
X-334590D01*
X-332228D02*
X-331441D01*
X-331835D01*
Y-316146D01*
X-332228Y-315753D01*
X-330260Y-313391D02*
X-328686D01*
X-327899Y-313785D02*
X-327112D01*
X-327505D01*
Y-316146D01*
X-327899Y-315753D01*
X-301552Y-316146D02*
Y-314178D01*
X-301158Y-313785D01*
X-300371D01*
X-299978Y-314178D01*
Y-316146D01*
X-299191Y-313785D02*
X-298403D01*
X-298797D01*
Y-316146D01*
X-299191Y-315753D01*
X-297223Y-313391D02*
X-295648D01*
X-294861Y-316146D02*
Y-314178D01*
X-294468Y-313785D01*
X-293681D01*
X-293287Y-314178D01*
Y-316146D01*
X-292500Y-313391D02*
X-290926D01*
X-289745Y-315359D02*
X-288958D01*
X-288564Y-314965D01*
Y-313785D01*
X-289745D01*
X-290138Y-314178D01*
X-289745Y-314572D01*
X-288564D01*
X-287777Y-313785D02*
Y-315359D01*
X-287383D01*
X-286990Y-314965D01*
Y-313785D01*
Y-314965D01*
X-286596Y-315359D01*
X-286203Y-314965D01*
Y-313785D01*
X-285416Y-312998D02*
Y-315359D01*
X-284235D01*
X-283841Y-314965D01*
Y-314178D01*
X-284235Y-313785D01*
X-285416D01*
X-281480D02*
X-283054D01*
X-281480Y-315359D01*
Y-315753D01*
X-281873Y-316146D01*
X-282661D01*
X-283054Y-315753D01*
X-280693Y-313391D02*
X-279118D01*
X-278331Y-313785D02*
X-277544D01*
X-277938D01*
Y-316146D01*
X-278331Y-315753D01*
X-252378Y-316146D02*
Y-314178D01*
X-251984Y-313785D01*
X-251197D01*
X-250804Y-314178D01*
Y-316146D01*
X-250017Y-313785D02*
X-249229D01*
X-249623D01*
Y-316146D01*
X-250017Y-315753D01*
X-248049Y-313391D02*
X-246474D01*
X-245687Y-316146D02*
Y-314178D01*
X-245294Y-313785D01*
X-244507D01*
X-244113Y-314178D01*
Y-316146D01*
X-243326Y-313391D02*
X-241752D01*
X-240571Y-315359D02*
X-239784D01*
X-239390Y-314965D01*
Y-313785D01*
X-240571D01*
X-240964Y-314178D01*
X-240571Y-314572D01*
X-239390D01*
X-238603Y-313785D02*
Y-315359D01*
X-238209D01*
X-237816Y-314965D01*
Y-313785D01*
Y-314965D01*
X-237422Y-315359D01*
X-237029Y-314965D01*
Y-313785D01*
X-236242Y-312998D02*
Y-315359D01*
X-235061D01*
X-234667Y-314965D01*
Y-314178D01*
X-235061Y-313785D01*
X-236242D01*
X-233880Y-315753D02*
X-233487Y-316146D01*
X-232699D01*
X-232306Y-315753D01*
Y-315359D01*
X-232699Y-314965D01*
X-233093D01*
X-232699D01*
X-232306Y-314572D01*
Y-314178D01*
X-232699Y-313785D01*
X-233487D01*
X-233880Y-314178D01*
X-231519Y-313391D02*
X-229944D01*
X-229157Y-313785D02*
X-228370D01*
X-228764D01*
Y-316146D01*
X-229157Y-315753D01*
X-203204Y-316146D02*
Y-314178D01*
X-202810Y-313785D01*
X-202023D01*
X-201630Y-314178D01*
Y-316146D01*
X-200842Y-313785D02*
X-200055D01*
X-200449D01*
Y-316146D01*
X-200842Y-315753D01*
X-198875Y-313391D02*
X-197300D01*
X-196513Y-316146D02*
Y-314178D01*
X-196120Y-313785D01*
X-195333D01*
X-194939Y-314178D01*
Y-316146D01*
X-194152Y-313391D02*
X-192578D01*
X-191397Y-315359D02*
X-190610D01*
X-190216Y-314965D01*
Y-313785D01*
X-191397D01*
X-191790Y-314178D01*
X-191397Y-314572D01*
X-190216D01*
X-189429Y-313785D02*
Y-315359D01*
X-189035D01*
X-188642Y-314965D01*
Y-313785D01*
Y-314965D01*
X-188248Y-315359D01*
X-187855Y-314965D01*
Y-313785D01*
X-187067Y-312998D02*
Y-315359D01*
X-185887D01*
X-185493Y-314965D01*
Y-314178D01*
X-185887Y-313785D01*
X-187067D01*
X-183525D02*
Y-316146D01*
X-184706Y-314965D01*
X-183132D01*
X-182345Y-313391D02*
X-180770D01*
X-179983Y-313785D02*
X-179196D01*
X-179590D01*
Y-316146D01*
X-179983Y-315753D01*
X-154030Y-316146D02*
Y-314178D01*
X-153636Y-313785D01*
X-152849D01*
X-152456Y-314178D01*
Y-316146D01*
X-151669Y-313785D02*
X-150881D01*
X-151275D01*
Y-316146D01*
X-151669Y-315753D01*
X-149701Y-313391D02*
X-148126D01*
X-147339Y-316146D02*
Y-314178D01*
X-146946Y-313785D01*
X-146159D01*
X-145765Y-314178D01*
Y-316146D01*
X-144978Y-313391D02*
X-143403D01*
X-142223Y-315359D02*
X-141436D01*
X-141042Y-314965D01*
Y-313785D01*
X-142223D01*
X-142616Y-314178D01*
X-142223Y-314572D01*
X-141042D01*
X-140255Y-313785D02*
Y-315359D01*
X-139861D01*
X-139468Y-314965D01*
Y-313785D01*
Y-314965D01*
X-139074Y-315359D01*
X-138681Y-314965D01*
Y-313785D01*
X-137893Y-312998D02*
Y-315359D01*
X-136713D01*
X-136319Y-314965D01*
Y-314178D01*
X-136713Y-313785D01*
X-137893D01*
X-133958Y-316146D02*
X-135532D01*
Y-314965D01*
X-134745Y-315359D01*
X-134351D01*
X-133958Y-314965D01*
Y-314178D01*
X-134351Y-313785D01*
X-135138D01*
X-135532Y-314178D01*
X-133171Y-313391D02*
X-131596D01*
X-130809Y-313785D02*
X-130022D01*
X-130416D01*
Y-316146D01*
X-130809Y-315753D01*
X-104856Y-316146D02*
Y-314178D01*
X-104462Y-313785D01*
X-103675D01*
X-103282Y-314178D01*
Y-316146D01*
X-102495Y-313785D02*
X-101707D01*
X-102101D01*
Y-316146D01*
X-102495Y-315753D01*
X-100527Y-313391D02*
X-98952D01*
X-98165Y-316146D02*
Y-314178D01*
X-97772Y-313785D01*
X-96984D01*
X-96591Y-314178D01*
Y-316146D01*
X-95804Y-313391D02*
X-94230D01*
X-93049Y-315359D02*
X-92262D01*
X-91868Y-314965D01*
Y-313785D01*
X-93049D01*
X-93442Y-314178D01*
X-93049Y-314572D01*
X-91868D01*
X-91081Y-313785D02*
Y-315359D01*
X-90687D01*
X-90294Y-314965D01*
Y-313785D01*
Y-314965D01*
X-89900Y-315359D01*
X-89507Y-314965D01*
Y-313785D01*
X-88719Y-312998D02*
Y-315359D01*
X-87539D01*
X-87145Y-314965D01*
Y-314178D01*
X-87539Y-313785D01*
X-88719D01*
X-84784Y-316146D02*
X-85571Y-315753D01*
X-86358Y-314965D01*
Y-314178D01*
X-85964Y-313785D01*
X-85177D01*
X-84784Y-314178D01*
Y-314572D01*
X-85177Y-314965D01*
X-86358D01*
X-83997Y-313391D02*
X-82422D01*
X-81635Y-313785D02*
X-80848D01*
X-81242D01*
Y-316146D01*
X-81635Y-315753D01*
X-55682Y-316146D02*
Y-314178D01*
X-55288Y-313785D01*
X-54501D01*
X-54108Y-314178D01*
Y-316146D01*
X-53320Y-313785D02*
X-52533D01*
X-52927D01*
Y-316146D01*
X-53320Y-315753D01*
X-51353Y-313391D02*
X-49778D01*
X-48991Y-316146D02*
Y-314178D01*
X-48598Y-313785D01*
X-47811D01*
X-47417Y-314178D01*
Y-316146D01*
X-46630Y-313391D02*
X-45055D01*
X-43875Y-315359D02*
X-43088D01*
X-42694Y-314965D01*
Y-313785D01*
X-43875D01*
X-44268Y-314178D01*
X-43875Y-314572D01*
X-42694D01*
X-41907Y-313785D02*
Y-315359D01*
X-41513D01*
X-41120Y-314965D01*
Y-313785D01*
Y-314965D01*
X-40726Y-315359D01*
X-40333Y-314965D01*
Y-313785D01*
X-39545Y-312998D02*
Y-315359D01*
X-38365D01*
X-37971Y-314965D01*
Y-314178D01*
X-38365Y-313785D01*
X-39545D01*
X-37184Y-316146D02*
X-35610D01*
Y-315753D01*
X-37184Y-314178D01*
Y-313785D01*
X-34822Y-313391D02*
X-33248D01*
X-32461Y-313785D02*
X-31674D01*
X-32067D01*
Y-316146D01*
X-32461Y-315753D01*
X-6508Y-316146D02*
Y-314178D01*
X-6114Y-313785D01*
X-5327D01*
X-4934Y-314178D01*
Y-316146D01*
X-4146Y-313785D02*
X-3359D01*
X-3753D01*
Y-316146D01*
X-4146Y-315753D01*
X-2179Y-313391D02*
X-604D01*
X183Y-316146D02*
Y-314178D01*
X576Y-313785D01*
X1364D01*
X1757Y-314178D01*
Y-316146D01*
X2544Y-313391D02*
X4119D01*
X5299Y-315359D02*
X6086D01*
X6480Y-314965D01*
Y-313785D01*
X5299D01*
X4906Y-314178D01*
X5299Y-314572D01*
X6480D01*
X7267Y-313785D02*
Y-315359D01*
X7661D01*
X8054Y-314965D01*
Y-313785D01*
Y-314965D01*
X8448Y-315359D01*
X8841Y-314965D01*
Y-313785D01*
X9629Y-312998D02*
Y-315359D01*
X10809D01*
X11203Y-314965D01*
Y-314178D01*
X10809Y-313785D01*
X9629D01*
X11990Y-315753D02*
X12384Y-316146D01*
X13171D01*
X13564Y-315753D01*
Y-315359D01*
X13171Y-314965D01*
X13564Y-314572D01*
Y-314178D01*
X13171Y-313785D01*
X12384D01*
X11990Y-314178D01*
Y-314572D01*
X12384Y-314965D01*
X11990Y-315359D01*
Y-315753D01*
X12384Y-314965D02*
X13171D01*
X14352Y-313391D02*
X15926D01*
X16713Y-313785D02*
X17500D01*
X17107D01*
Y-316146D01*
X16713Y-315753D01*
X42666Y-316146D02*
Y-314178D01*
X43060Y-313785D01*
X43847D01*
X44240Y-314178D01*
Y-316146D01*
X45028Y-313785D02*
X45815D01*
X45421D01*
Y-316146D01*
X45028Y-315753D01*
X46995Y-313391D02*
X48570D01*
X49357Y-316146D02*
Y-314178D01*
X49750Y-313785D01*
X50538D01*
X50931Y-314178D01*
Y-316146D01*
X51718Y-313391D02*
X53293D01*
X54473Y-315359D02*
X55260D01*
X55654Y-314965D01*
Y-313785D01*
X54473D01*
X54080Y-314178D01*
X54473Y-314572D01*
X55654D01*
X56441Y-313785D02*
Y-315359D01*
X56835D01*
X57228Y-314965D01*
Y-313785D01*
Y-314965D01*
X57622Y-315359D01*
X58016Y-314965D01*
Y-313785D01*
X58803Y-312998D02*
Y-315359D01*
X59983D01*
X60377Y-314965D01*
Y-314178D01*
X59983Y-313785D01*
X58803D01*
X61164Y-314178D02*
X61558Y-313785D01*
X62345D01*
X62738Y-314178D01*
Y-315753D01*
X62345Y-316146D01*
X61558D01*
X61164Y-315753D01*
Y-315359D01*
X61558Y-314965D01*
X62738D01*
X63525Y-313391D02*
X65100D01*
X65887Y-313785D02*
X66674D01*
X66281D01*
Y-316146D01*
X65887Y-315753D01*
X91840Y-316146D02*
Y-314178D01*
X92234Y-313785D01*
X93021D01*
X93414Y-314178D01*
Y-316146D01*
X94202Y-313785D02*
X94989D01*
X94595D01*
Y-316146D01*
X94202Y-315753D01*
X96169Y-313391D02*
X97744D01*
X98531Y-316146D02*
Y-314178D01*
X98924Y-313785D01*
X99712D01*
X100105Y-314178D01*
Y-316146D01*
X100892Y-313391D02*
X102467D01*
X103647Y-315359D02*
X104435D01*
X104828Y-314965D01*
Y-313785D01*
X103647D01*
X103254Y-314178D01*
X103647Y-314572D01*
X104828D01*
X105615Y-313785D02*
Y-315359D01*
X106009D01*
X106402Y-314965D01*
Y-313785D01*
Y-314965D01*
X106796Y-315359D01*
X107190Y-314965D01*
Y-313785D01*
X107977Y-312998D02*
Y-315359D01*
X109157D01*
X109551Y-314965D01*
Y-314178D01*
X109157Y-313785D01*
X107977D01*
X110338D02*
X111125D01*
X110732D01*
Y-316146D01*
X110338Y-315753D01*
X112306D02*
X112699Y-316146D01*
X113487D01*
X113880Y-315753D01*
Y-314178D01*
X113487Y-313785D01*
X112699D01*
X112306Y-314178D01*
Y-315753D01*
X114667Y-313391D02*
X116242D01*
X117029Y-313785D02*
X117816D01*
X117422D01*
Y-316146D01*
X117029Y-315753D01*
X141014Y-316146D02*
Y-314178D01*
X141408Y-313785D01*
X142195D01*
X142588Y-314178D01*
Y-316146D01*
X143376Y-313785D02*
X144163D01*
X143769D01*
Y-316146D01*
X143376Y-315753D01*
X145343Y-313391D02*
X146918D01*
X147705Y-316146D02*
Y-314178D01*
X148099Y-313785D01*
X148886D01*
X149279Y-314178D01*
Y-316146D01*
X150066Y-313391D02*
X151641D01*
X152821Y-315359D02*
X153609D01*
X154002Y-314965D01*
Y-313785D01*
X152821D01*
X152428Y-314178D01*
X152821Y-314572D01*
X154002D01*
X154789Y-313785D02*
Y-315359D01*
X155183D01*
X155576Y-314965D01*
Y-313785D01*
Y-314965D01*
X155970Y-315359D01*
X156363Y-314965D01*
Y-313785D01*
X157151Y-312998D02*
Y-315359D01*
X158331D01*
X158725Y-314965D01*
Y-314178D01*
X158331Y-313785D01*
X157151D01*
X159512D02*
X160299D01*
X159906D01*
Y-316146D01*
X159512Y-315753D01*
X161480Y-313785D02*
X162267D01*
X161873D01*
Y-316146D01*
X161480Y-315753D01*
X163448Y-313391D02*
X165022D01*
X165809Y-313785D02*
X166596D01*
X166203D01*
Y-316146D01*
X165809Y-315753D01*
X190188Y-316146D02*
Y-314178D01*
X190582Y-313785D01*
X191369D01*
X191762Y-314178D01*
Y-316146D01*
X192550Y-313785D02*
X193337D01*
X192943D01*
Y-316146D01*
X192550Y-315753D01*
X194518Y-313391D02*
X196092D01*
X196879Y-316146D02*
Y-314178D01*
X197273Y-313785D01*
X198060D01*
X198453Y-314178D01*
Y-316146D01*
X199240Y-313391D02*
X200815D01*
X201995Y-315359D02*
X202783D01*
X203176Y-314965D01*
Y-313785D01*
X201995D01*
X201602Y-314178D01*
X201995Y-314572D01*
X203176D01*
X203963Y-313785D02*
Y-315359D01*
X204357D01*
X204750Y-314965D01*
Y-313785D01*
Y-314965D01*
X205144Y-315359D01*
X205538Y-314965D01*
Y-313785D01*
X206325Y-312998D02*
Y-315359D01*
X207505D01*
X207899Y-314965D01*
Y-314178D01*
X207505Y-313785D01*
X206325D01*
X208686D02*
X209473D01*
X209080D01*
Y-316146D01*
X208686Y-315753D01*
X212228Y-313785D02*
X210654D01*
X212228Y-315359D01*
Y-315753D01*
X211835Y-316146D01*
X211048D01*
X210654Y-315753D01*
X213015Y-313391D02*
X214590D01*
X215377Y-313785D02*
X216164D01*
X215770D01*
Y-316146D01*
X215377Y-315753D01*
X239362Y-316146D02*
Y-314178D01*
X239756Y-313785D01*
X240543D01*
X240936Y-314178D01*
Y-316146D01*
X241724Y-313785D02*
X242511D01*
X242117D01*
Y-316146D01*
X241724Y-315753D01*
X243691Y-313391D02*
X245266D01*
X246053Y-316146D02*
Y-314178D01*
X246446Y-313785D01*
X247234D01*
X247627Y-314178D01*
Y-316146D01*
X248414Y-313391D02*
X249989D01*
X251169Y-315359D02*
X251957D01*
X252350Y-314965D01*
Y-313785D01*
X251169D01*
X250776Y-314178D01*
X251169Y-314572D01*
X252350D01*
X253137Y-313785D02*
Y-315359D01*
X253531D01*
X253924Y-314965D01*
Y-313785D01*
Y-314965D01*
X254318Y-315359D01*
X254712Y-314965D01*
Y-313785D01*
X255499Y-312998D02*
Y-315359D01*
X256679D01*
X257073Y-314965D01*
Y-314178D01*
X256679Y-313785D01*
X255499D01*
X257860D02*
X258647D01*
X258254D01*
Y-316146D01*
X257860Y-315753D01*
X259828D02*
X260222Y-316146D01*
X261009D01*
X261402Y-315753D01*
Y-315359D01*
X261009Y-314965D01*
X260615D01*
X261009D01*
X261402Y-314572D01*
Y-314178D01*
X261009Y-313785D01*
X260222D01*
X259828Y-314178D01*
X262189Y-313391D02*
X263764D01*
X264551Y-313785D02*
X265338D01*
X264945D01*
Y-316146D01*
X264551Y-315753D01*
X288536Y-316146D02*
Y-314178D01*
X288930Y-313785D01*
X289717D01*
X290110Y-314178D01*
Y-316146D01*
X290898Y-313785D02*
X291685D01*
X291291D01*
Y-316146D01*
X290898Y-315753D01*
X292865Y-313391D02*
X294440D01*
X295227Y-316146D02*
Y-314178D01*
X295620Y-313785D01*
X296408D01*
X296801Y-314178D01*
Y-316146D01*
X297588Y-313391D02*
X299163D01*
X300343Y-315359D02*
X301131D01*
X301524Y-314965D01*
Y-313785D01*
X300343D01*
X299950Y-314178D01*
X300343Y-314572D01*
X301524D01*
X302311Y-313785D02*
Y-315359D01*
X302705D01*
X303098Y-314965D01*
Y-313785D01*
Y-314965D01*
X303492Y-315359D01*
X303886Y-314965D01*
Y-313785D01*
X304673Y-312998D02*
Y-315359D01*
X305853D01*
X306247Y-314965D01*
Y-314178D01*
X305853Y-313785D01*
X304673D01*
X307034D02*
X307821D01*
X307428D01*
Y-316146D01*
X307034Y-315753D01*
X310183Y-313785D02*
Y-316146D01*
X309002Y-314965D01*
X310576D01*
X311364Y-313391D02*
X312938D01*
X313725Y-313785D02*
X314512D01*
X314119D01*
Y-316146D01*
X313725Y-315753D01*
X-335324Y-174741D02*
Y-172774D01*
X-334931Y-172380D01*
X-334144D01*
X-333750Y-172774D01*
Y-174741D01*
X-332963Y-172380D02*
X-332176D01*
X-332569D01*
Y-174741D01*
X-332963Y-174348D01*
X-330995Y-171986D02*
X-329421D01*
X-328634Y-174741D02*
Y-172774D01*
X-328240Y-172380D01*
X-327453D01*
X-327059Y-172774D01*
Y-174741D01*
X-326272Y-171986D02*
X-324698D01*
X-323517Y-173954D02*
X-322730D01*
X-322337Y-173561D01*
Y-172380D01*
X-323517D01*
X-323911Y-172774D01*
X-323517Y-173167D01*
X-322337D01*
X-321549Y-172380D02*
Y-173954D01*
X-321156D01*
X-320762Y-173561D01*
Y-172380D01*
Y-173561D01*
X-320369Y-173954D01*
X-319975Y-173561D01*
Y-172380D01*
X-319188Y-171593D02*
Y-173954D01*
X-318007D01*
X-317614Y-173561D01*
Y-172774D01*
X-318007Y-172380D01*
X-319188D01*
X-316827D02*
X-316039D01*
X-316433D01*
Y-174741D01*
X-316827Y-174348D01*
X-313284Y-174741D02*
X-314859D01*
Y-173561D01*
X-314071Y-173954D01*
X-313678D01*
X-313284Y-173561D01*
Y-172774D01*
X-313678Y-172380D01*
X-314465D01*
X-314859Y-172774D01*
X-312497Y-171986D02*
X-310923D01*
X-310136Y-172380D02*
X-309349D01*
X-309742D01*
Y-174741D01*
X-310136Y-174348D01*
X-290450Y-174571D02*
Y-172603D01*
X-290056Y-172209D01*
X-289269D01*
X-288875Y-172603D01*
Y-174571D01*
X-288088Y-172209D02*
X-287301D01*
X-287695D01*
Y-174571D01*
X-288088Y-174177D01*
X-286120Y-171816D02*
X-284546D01*
X-283759Y-174571D02*
Y-172603D01*
X-283365Y-172209D01*
X-282578D01*
X-282185Y-172603D01*
Y-174571D01*
X-281397Y-171816D02*
X-279823D01*
X-278642Y-173783D02*
X-277855D01*
X-277462Y-173390D01*
Y-172209D01*
X-278642D01*
X-279036Y-172603D01*
X-278642Y-172996D01*
X-277462D01*
X-276675Y-172209D02*
Y-173783D01*
X-276281D01*
X-275887Y-173390D01*
Y-172209D01*
Y-173390D01*
X-275494Y-173783D01*
X-275100Y-173390D01*
Y-172209D01*
X-274313Y-171422D02*
Y-173783D01*
X-273132D01*
X-272739Y-173390D01*
Y-172603D01*
X-273132Y-172209D01*
X-274313D01*
X-271952D02*
X-271164D01*
X-271558D01*
Y-174571D01*
X-271952Y-174177D01*
X-268409Y-174571D02*
X-269197Y-174177D01*
X-269984Y-173390D01*
Y-172603D01*
X-269590Y-172209D01*
X-268803D01*
X-268409Y-172603D01*
Y-172996D01*
X-268803Y-173390D01*
X-269984D01*
X-267622Y-171816D02*
X-266048D01*
X-265261Y-172209D02*
X-264474D01*
X-264867D01*
Y-174571D01*
X-265261Y-174177D01*
X-245213Y-174571D02*
Y-172603D01*
X-244819Y-172209D01*
X-244032D01*
X-243638Y-172603D01*
Y-174571D01*
X-242851Y-172209D02*
X-242064D01*
X-242458D01*
Y-174571D01*
X-242851Y-174177D01*
X-240883Y-171816D02*
X-239309D01*
X-238522Y-174571D02*
Y-172603D01*
X-238128Y-172209D01*
X-237341D01*
X-236948Y-172603D01*
Y-174571D01*
X-236160Y-171816D02*
X-234586D01*
X-233405Y-173783D02*
X-232618D01*
X-232225Y-173390D01*
Y-172209D01*
X-233405D01*
X-233799Y-172603D01*
X-233405Y-172996D01*
X-232225D01*
X-231437Y-172209D02*
Y-173783D01*
X-231044D01*
X-230650Y-173390D01*
Y-172209D01*
Y-173390D01*
X-230257Y-173783D01*
X-229863Y-173390D01*
Y-172209D01*
X-229076Y-171422D02*
Y-173783D01*
X-227895D01*
X-227502Y-173390D01*
Y-172603D01*
X-227895Y-172209D01*
X-229076D01*
X-226715D02*
X-225927D01*
X-226321D01*
Y-174571D01*
X-226715Y-174177D01*
X-224747Y-174571D02*
X-223172D01*
Y-174177D01*
X-224747Y-172603D01*
Y-172209D01*
X-222385Y-171816D02*
X-220811D01*
X-220024Y-172209D02*
X-219237D01*
X-219630D01*
Y-174571D01*
X-220024Y-174177D01*
X-199976Y-174571D02*
Y-172603D01*
X-199582Y-172209D01*
X-198795D01*
X-198401Y-172603D01*
Y-174571D01*
X-197614Y-172209D02*
X-196827D01*
X-197221D01*
Y-174571D01*
X-197614Y-174177D01*
X-195646Y-171816D02*
X-194072D01*
X-193285Y-174571D02*
Y-172603D01*
X-192891Y-172209D01*
X-192104D01*
X-191710Y-172603D01*
Y-174571D01*
X-190923Y-171816D02*
X-189349D01*
X-188168Y-173783D02*
X-187381D01*
X-186988Y-173390D01*
Y-172209D01*
X-188168D01*
X-188562Y-172603D01*
X-188168Y-172996D01*
X-186988D01*
X-186200Y-172209D02*
Y-173783D01*
X-185807D01*
X-185413Y-173390D01*
Y-172209D01*
Y-173390D01*
X-185020Y-173783D01*
X-184626Y-173390D01*
Y-172209D01*
X-183839Y-171422D02*
Y-173783D01*
X-182658D01*
X-182265Y-173390D01*
Y-172603D01*
X-182658Y-172209D01*
X-183839D01*
X-181478D02*
X-180691D01*
X-181084D01*
Y-174571D01*
X-181478Y-174177D01*
X-179510D02*
X-179116Y-174571D01*
X-178329D01*
X-177936Y-174177D01*
Y-173783D01*
X-178329Y-173390D01*
X-177936Y-172996D01*
Y-172603D01*
X-178329Y-172209D01*
X-179116D01*
X-179510Y-172603D01*
Y-172996D01*
X-179116Y-173390D01*
X-179510Y-173783D01*
Y-174177D01*
X-179116Y-173390D02*
X-178329D01*
X-177148Y-171816D02*
X-175574D01*
X-174787Y-172209D02*
X-174000D01*
X-174393D01*
Y-174571D01*
X-174787Y-174177D01*
X-154739Y-174571D02*
Y-172603D01*
X-154345Y-172209D01*
X-153558D01*
X-153164Y-172603D01*
Y-174571D01*
X-152377Y-172209D02*
X-151590D01*
X-151984D01*
Y-174571D01*
X-152377Y-174177D01*
X-150409Y-171816D02*
X-148835D01*
X-148048Y-174571D02*
Y-172603D01*
X-147654Y-172209D01*
X-146867D01*
X-146474Y-172603D01*
Y-174571D01*
X-145686Y-171816D02*
X-144112D01*
X-142931Y-173783D02*
X-142144D01*
X-141751Y-173390D01*
Y-172209D01*
X-142931D01*
X-143325Y-172603D01*
X-142931Y-172996D01*
X-141751D01*
X-140963Y-172209D02*
Y-173783D01*
X-140570D01*
X-140176Y-173390D01*
Y-172209D01*
Y-173390D01*
X-139783Y-173783D01*
X-139389Y-173390D01*
Y-172209D01*
X-138602Y-171422D02*
Y-173783D01*
X-137421D01*
X-137028Y-173390D01*
Y-172603D01*
X-137421Y-172209D01*
X-138602D01*
X-136241D02*
X-135453D01*
X-135847D01*
Y-174571D01*
X-136241Y-174177D01*
X-134273Y-172603D02*
X-133879Y-172209D01*
X-133092D01*
X-132699Y-172603D01*
Y-174177D01*
X-133092Y-174571D01*
X-133879D01*
X-134273Y-174177D01*
Y-173783D01*
X-133879Y-173390D01*
X-132699D01*
X-131911Y-171816D02*
X-130337D01*
X-129550Y-172209D02*
X-128763D01*
X-129156D01*
Y-174571D01*
X-129550Y-174177D01*
X-109502Y-174571D02*
Y-172603D01*
X-109108Y-172209D01*
X-108321D01*
X-107927Y-172603D01*
Y-174571D01*
X-107140Y-172209D02*
X-106353D01*
X-106747D01*
Y-174571D01*
X-107140Y-174177D01*
X-105172Y-171816D02*
X-103598D01*
X-102811Y-174571D02*
Y-172603D01*
X-102417Y-172209D01*
X-101630D01*
X-101236Y-172603D01*
Y-174571D01*
X-100449Y-171816D02*
X-98875D01*
X-97694Y-173783D02*
X-96907D01*
X-96514Y-173390D01*
Y-172209D01*
X-97694D01*
X-98088Y-172603D01*
X-97694Y-172996D01*
X-96514D01*
X-95727Y-172209D02*
Y-173783D01*
X-95333D01*
X-94939Y-173390D01*
Y-172209D01*
Y-173390D01*
X-94546Y-173783D01*
X-94152Y-173390D01*
Y-172209D01*
X-93365Y-171422D02*
Y-173783D01*
X-92184D01*
X-91791Y-173390D01*
Y-172603D01*
X-92184Y-172209D01*
X-93365D01*
X-89429D02*
X-91004D01*
X-89429Y-173783D01*
Y-174177D01*
X-89823Y-174571D01*
X-90610D01*
X-91004Y-174177D01*
X-88642D02*
X-88249Y-174571D01*
X-87462D01*
X-87068Y-174177D01*
Y-172603D01*
X-87462Y-172209D01*
X-88249D01*
X-88642Y-172603D01*
Y-174177D01*
X-86281Y-171816D02*
X-84706D01*
X-83919Y-172209D02*
X-83132D01*
X-83526D01*
Y-174571D01*
X-83919Y-174177D01*
X-64265Y-174571D02*
Y-172603D01*
X-63871Y-172209D01*
X-63084D01*
X-62690Y-172603D01*
Y-174571D01*
X-61903Y-172209D02*
X-61116D01*
X-61510D01*
Y-174571D01*
X-61903Y-174177D01*
X-59935Y-171816D02*
X-58361D01*
X-57574Y-174571D02*
Y-172603D01*
X-57180Y-172209D01*
X-56393D01*
X-55999Y-172603D01*
Y-174571D01*
X-55212Y-171816D02*
X-53638D01*
X-52457Y-173783D02*
X-51670D01*
X-51277Y-173390D01*
Y-172209D01*
X-52457D01*
X-52851Y-172603D01*
X-52457Y-172996D01*
X-51277D01*
X-50489Y-172209D02*
Y-173783D01*
X-50096D01*
X-49702Y-173390D01*
Y-172209D01*
Y-173390D01*
X-49309Y-173783D01*
X-48915Y-173390D01*
Y-172209D01*
X-48128Y-171422D02*
Y-173783D01*
X-46947D01*
X-46554Y-173390D01*
Y-172603D01*
X-46947Y-172209D01*
X-48128D01*
X-44192D02*
X-45767D01*
X-44192Y-173783D01*
Y-174177D01*
X-44586Y-174571D01*
X-45373D01*
X-45767Y-174177D01*
X-43405Y-172209D02*
X-42618D01*
X-43012D01*
Y-174571D01*
X-43405Y-174177D01*
X-41437Y-171816D02*
X-39863D01*
X-39076Y-172209D02*
X-38289D01*
X-38682D01*
Y-174571D01*
X-39076Y-174177D01*
X-19027Y-174571D02*
Y-172603D01*
X-18634Y-172209D01*
X-17847D01*
X-17453Y-172603D01*
Y-174571D01*
X-16666Y-172209D02*
X-15879D01*
X-16273D01*
Y-174571D01*
X-16666Y-174177D01*
X-14698Y-171816D02*
X-13124D01*
X-12337Y-174571D02*
Y-172603D01*
X-11943Y-172209D01*
X-11156D01*
X-10763Y-172603D01*
Y-174571D01*
X-9975Y-171816D02*
X-8401D01*
X-7220Y-173783D02*
X-6433D01*
X-6040Y-173390D01*
Y-172209D01*
X-7220D01*
X-7614Y-172603D01*
X-7220Y-172996D01*
X-6040D01*
X-5252Y-172209D02*
Y-173783D01*
X-4859D01*
X-4465Y-173390D01*
Y-172209D01*
Y-173390D01*
X-4072Y-173783D01*
X-3678Y-173390D01*
Y-172209D01*
X-2891Y-171422D02*
Y-173783D01*
X-1710D01*
X-1317Y-173390D01*
Y-172603D01*
X-1710Y-172209D01*
X-2891D01*
X1045D02*
X-530D01*
X1045Y-173783D01*
Y-174177D01*
X651Y-174571D01*
X-136D01*
X-530Y-174177D01*
X3406Y-172209D02*
X1832D01*
X3406Y-173783D01*
Y-174177D01*
X3013Y-174571D01*
X2225D01*
X1832Y-174177D01*
X4193Y-171816D02*
X5768D01*
X6555Y-172209D02*
X7342D01*
X6948D01*
Y-174571D01*
X6555Y-174177D01*
X337705Y-316066D02*
Y-314098D01*
X338099Y-313704D01*
X338886D01*
X339279Y-314098D01*
Y-316066D01*
X340067Y-313704D02*
X340854D01*
X340460D01*
Y-316066D01*
X340067Y-315672D01*
X342034Y-313311D02*
X343609D01*
X344396Y-316066D02*
Y-314098D01*
X344789Y-313704D01*
X345577D01*
X345970Y-314098D01*
Y-316066D01*
X346757Y-313311D02*
X348331D01*
X349512Y-315279D02*
X350299D01*
X350693Y-314885D01*
Y-313704D01*
X349512D01*
X349119Y-314098D01*
X349512Y-314492D01*
X350693D01*
X351480Y-313704D02*
Y-315279D01*
X351874D01*
X352267Y-314885D01*
Y-313704D01*
Y-314885D01*
X352661Y-315279D01*
X353054Y-314885D01*
Y-313704D01*
X353842Y-312917D02*
Y-315279D01*
X355022D01*
X355416Y-314885D01*
Y-314098D01*
X355022Y-313704D01*
X353842D01*
X357777D02*
X356203D01*
X357777Y-315279D01*
Y-315672D01*
X357384Y-316066D01*
X356597D01*
X356203Y-315672D01*
X358564D02*
X358958Y-316066D01*
X359745D01*
X360139Y-315672D01*
Y-315279D01*
X359745Y-314885D01*
X359352D01*
X359745D01*
X360139Y-314492D01*
Y-314098D01*
X359745Y-313704D01*
X358958D01*
X358564Y-314098D01*
X360926Y-313311D02*
X362500D01*
X363287Y-313704D02*
X364074D01*
X363681D01*
Y-316066D01*
X363287Y-315672D01*
X25563Y-194673D02*
Y-192705D01*
X25956Y-192311D01*
X26744D01*
X27137Y-192705D01*
Y-194673D01*
X27924Y-192311D02*
X28712D01*
X28318D01*
Y-194673D01*
X27924Y-194279D01*
X29892Y-191918D02*
X31466D01*
X32254Y-194673D02*
Y-192705D01*
X32647Y-192311D01*
X33434D01*
X33828Y-192705D01*
Y-194673D01*
X34615Y-191918D02*
X36189D01*
X37370Y-193886D02*
X38157D01*
X38551Y-193492D01*
Y-192311D01*
X37370D01*
X36977Y-192705D01*
X37370Y-193099D01*
X38551D01*
X39338Y-192311D02*
Y-193886D01*
X39731D01*
X40125Y-193492D01*
Y-192311D01*
Y-193492D01*
X40519Y-193886D01*
X40912Y-193492D01*
Y-192311D01*
X41699Y-191524D02*
Y-193886D01*
X42880D01*
X43274Y-193492D01*
Y-192705D01*
X42880Y-192311D01*
X41699D01*
X45635D02*
X44061D01*
X45635Y-193886D01*
Y-194279D01*
X45242Y-194673D01*
X44454D01*
X44061Y-194279D01*
X47603Y-192311D02*
Y-194673D01*
X46422Y-193492D01*
X47997D01*
X48784Y-191918D02*
X50358D01*
X51145Y-192311D02*
X51932D01*
X51539D01*
Y-194673D01*
X51145Y-194279D01*
X70800Y-194673D02*
Y-192705D01*
X71193Y-192311D01*
X71981D01*
X72374Y-192705D01*
Y-194673D01*
X73161Y-192311D02*
X73949D01*
X73555D01*
Y-194673D01*
X73161Y-194279D01*
X75129Y-191918D02*
X76704D01*
X77491Y-194673D02*
Y-192705D01*
X77884Y-192311D01*
X78671D01*
X79065Y-192705D01*
Y-194673D01*
X79852Y-191918D02*
X81426D01*
X82607Y-193886D02*
X83394D01*
X83788Y-193492D01*
Y-192311D01*
X82607D01*
X82213Y-192705D01*
X82607Y-193099D01*
X83788D01*
X84575Y-192311D02*
Y-193886D01*
X84969D01*
X85362Y-193492D01*
Y-192311D01*
Y-193492D01*
X85756Y-193886D01*
X86149Y-193492D01*
Y-192311D01*
X86936Y-191524D02*
Y-193886D01*
X88117D01*
X88511Y-193492D01*
Y-192705D01*
X88117Y-192311D01*
X86936D01*
X90872D02*
X89298D01*
X90872Y-193886D01*
Y-194279D01*
X90479Y-194673D01*
X89691D01*
X89298Y-194279D01*
X93234Y-194673D02*
X91659D01*
Y-193492D01*
X92446Y-193886D01*
X92840D01*
X93234Y-193492D01*
Y-192705D01*
X92840Y-192311D01*
X92053D01*
X91659Y-192705D01*
X94021Y-191918D02*
X95595D01*
X96382Y-192311D02*
X97169D01*
X96776D01*
Y-194673D01*
X96382Y-194279D01*
X116037Y-194673D02*
Y-192705D01*
X116430Y-192311D01*
X117218D01*
X117611Y-192705D01*
Y-194673D01*
X118398Y-192311D02*
X119185D01*
X118792D01*
Y-194673D01*
X118398Y-194279D01*
X120366Y-191918D02*
X121941D01*
X122728Y-194673D02*
Y-192705D01*
X123121Y-192311D01*
X123908D01*
X124302Y-192705D01*
Y-194673D01*
X125089Y-191918D02*
X126663D01*
X127844Y-193886D02*
X128631D01*
X129025Y-193492D01*
Y-192311D01*
X127844D01*
X127451Y-192705D01*
X127844Y-193099D01*
X129025D01*
X129812Y-192311D02*
Y-193886D01*
X130206D01*
X130599Y-193492D01*
Y-192311D01*
Y-193492D01*
X130993Y-193886D01*
X131386Y-193492D01*
Y-192311D01*
X132173Y-191524D02*
Y-193886D01*
X133354D01*
X133748Y-193492D01*
Y-192705D01*
X133354Y-192311D01*
X132173D01*
X136109D02*
X134535D01*
X136109Y-193886D01*
Y-194279D01*
X135716Y-194673D01*
X134928D01*
X134535Y-194279D01*
X138471Y-194673D02*
X137683Y-194279D01*
X136896Y-193492D01*
Y-192705D01*
X137290Y-192311D01*
X138077D01*
X138471Y-192705D01*
Y-193099D01*
X138077Y-193492D01*
X136896D01*
X139258Y-191918D02*
X140832D01*
X141619Y-192311D02*
X142406D01*
X142013D01*
Y-194673D01*
X141619Y-194279D01*
X161274Y-194673D02*
Y-192705D01*
X161668Y-192311D01*
X162455D01*
X162848Y-192705D01*
Y-194673D01*
X163635Y-192311D02*
X164423D01*
X164029D01*
Y-194673D01*
X163635Y-194279D01*
X165603Y-191918D02*
X167177D01*
X167965Y-194673D02*
Y-192705D01*
X168358Y-192311D01*
X169145D01*
X169539Y-192705D01*
Y-194673D01*
X170326Y-191918D02*
X171900D01*
X173081Y-193886D02*
X173868D01*
X174262Y-193492D01*
Y-192311D01*
X173081D01*
X172687Y-192705D01*
X173081Y-193099D01*
X174262D01*
X175049Y-192311D02*
Y-193886D01*
X175443D01*
X175836Y-193492D01*
Y-192311D01*
Y-193492D01*
X176230Y-193886D01*
X176623Y-193492D01*
Y-192311D01*
X177410Y-191524D02*
Y-193886D01*
X178591D01*
X178985Y-193492D01*
Y-192705D01*
X178591Y-192311D01*
X177410D01*
X181346D02*
X179772D01*
X181346Y-193886D01*
Y-194279D01*
X180953Y-194673D01*
X180165D01*
X179772Y-194279D01*
X182133Y-194673D02*
X183708D01*
Y-194279D01*
X182133Y-192705D01*
Y-192311D01*
X184495Y-191918D02*
X186069D01*
X186856Y-192311D02*
X187643D01*
X187250D01*
Y-194673D01*
X186856Y-194279D01*
X206511Y-194673D02*
Y-192705D01*
X206905Y-192311D01*
X207692D01*
X208085Y-192705D01*
Y-194673D01*
X208872Y-192311D02*
X209660D01*
X209266D01*
Y-194673D01*
X208872Y-194279D01*
X210840Y-191918D02*
X212415D01*
X213202Y-194673D02*
Y-192705D01*
X213595Y-192311D01*
X214382D01*
X214776Y-192705D01*
Y-194673D01*
X215563Y-191918D02*
X217137D01*
X218318Y-193886D02*
X219105D01*
X219499Y-193492D01*
Y-192311D01*
X218318D01*
X217924Y-192705D01*
X218318Y-193099D01*
X219499D01*
X220286Y-192311D02*
Y-193886D01*
X220680D01*
X221073Y-193492D01*
Y-192311D01*
Y-193492D01*
X221467Y-193886D01*
X221860Y-193492D01*
Y-192311D01*
X222647Y-191524D02*
Y-193886D01*
X223828D01*
X224222Y-193492D01*
Y-192705D01*
X223828Y-192311D01*
X222647D01*
X226583D02*
X225009D01*
X226583Y-193886D01*
Y-194279D01*
X226190Y-194673D01*
X225402D01*
X225009Y-194279D01*
X227370D02*
X227764Y-194673D01*
X228551D01*
X228945Y-194279D01*
Y-193886D01*
X228551Y-193492D01*
X228945Y-193099D01*
Y-192705D01*
X228551Y-192311D01*
X227764D01*
X227370Y-192705D01*
Y-193099D01*
X227764Y-193492D01*
X227370Y-193886D01*
Y-194279D01*
X227764Y-193492D02*
X228551D01*
X229732Y-191918D02*
X231306D01*
X232093Y-192311D02*
X232880D01*
X232487D01*
Y-194673D01*
X232093Y-194279D01*
X251748Y-194673D02*
Y-192705D01*
X252141Y-192311D01*
X252929D01*
X253322Y-192705D01*
Y-194673D01*
X254109Y-192311D02*
X254896D01*
X254503D01*
Y-194673D01*
X254109Y-194279D01*
X256077Y-191918D02*
X257651D01*
X258439Y-194673D02*
Y-192705D01*
X258832Y-192311D01*
X259619D01*
X260013Y-192705D01*
Y-194673D01*
X260800Y-191918D02*
X262374D01*
X263555Y-193886D02*
X264342D01*
X264736Y-193492D01*
Y-192311D01*
X263555D01*
X263162Y-192705D01*
X263555Y-193099D01*
X264736D01*
X265523Y-192311D02*
Y-193886D01*
X265917D01*
X266310Y-193492D01*
Y-192311D01*
Y-193492D01*
X266704Y-193886D01*
X267097Y-193492D01*
Y-192311D01*
X267884Y-191524D02*
Y-193886D01*
X269065D01*
X269459Y-193492D01*
Y-192705D01*
X269065Y-192311D01*
X267884D01*
X271820D02*
X270246D01*
X271820Y-193886D01*
Y-194279D01*
X271427Y-194673D01*
X270639D01*
X270246Y-194279D01*
X272607Y-192705D02*
X273001Y-192311D01*
X273788D01*
X274182Y-192705D01*
Y-194279D01*
X273788Y-194673D01*
X273001D01*
X272607Y-194279D01*
Y-193886D01*
X273001Y-193492D01*
X274182D01*
X274969Y-191918D02*
X276543D01*
X277330Y-192311D02*
X278117D01*
X277724D01*
Y-194673D01*
X277330Y-194279D01*
X296985Y-194673D02*
Y-192705D01*
X297378Y-192311D01*
X298166D01*
X298559Y-192705D01*
Y-194673D01*
X299346Y-192311D02*
X300133D01*
X299740D01*
Y-194673D01*
X299346Y-194279D01*
X301314Y-191918D02*
X302888D01*
X303676Y-194673D02*
Y-192705D01*
X304069Y-192311D01*
X304856D01*
X305250Y-192705D01*
Y-194673D01*
X306037Y-191918D02*
X307611D01*
X308792Y-193886D02*
X309579D01*
X309973Y-193492D01*
Y-192311D01*
X308792D01*
X308399Y-192705D01*
X308792Y-193099D01*
X309973D01*
X310760Y-192311D02*
Y-193886D01*
X311154D01*
X311547Y-193492D01*
Y-192311D01*
Y-193492D01*
X311941Y-193886D01*
X312334Y-193492D01*
Y-192311D01*
X313122Y-191524D02*
Y-193886D01*
X314302D01*
X314696Y-193492D01*
Y-192705D01*
X314302Y-192311D01*
X313122D01*
X315483Y-194279D02*
X315877Y-194673D01*
X316664D01*
X317057Y-194279D01*
Y-193886D01*
X316664Y-193492D01*
X316270D01*
X316664D01*
X317057Y-193099D01*
Y-192705D01*
X316664Y-192311D01*
X315877D01*
X315483Y-192705D01*
X317844Y-194279D02*
X318238Y-194673D01*
X319025D01*
X319419Y-194279D01*
Y-192705D01*
X319025Y-192311D01*
X318238D01*
X317844Y-192705D01*
Y-194279D01*
X320206Y-191918D02*
X321780D01*
X322567Y-192311D02*
X323354D01*
X322961D01*
Y-194673D01*
X322567Y-194279D01*
X-350126Y-45724D02*
Y-43756D01*
X-349732Y-43363D01*
X-348945D01*
X-348552Y-43756D01*
Y-45724D01*
X-347765Y-43363D02*
X-346977D01*
X-347371D01*
Y-45724D01*
X-347765Y-45331D01*
X-345797Y-42969D02*
X-344222D01*
X-343435Y-45724D02*
Y-43756D01*
X-343042Y-43363D01*
X-342255D01*
X-341861Y-43756D01*
Y-45724D01*
X-341074Y-42969D02*
X-339500D01*
X-338319Y-44937D02*
X-337532D01*
X-337138Y-44543D01*
Y-43363D01*
X-338319D01*
X-338712Y-43756D01*
X-338319Y-44150D01*
X-337138D01*
X-336351Y-43363D02*
Y-44937D01*
X-335957D01*
X-335564Y-44543D01*
Y-43363D01*
Y-44543D01*
X-335170Y-44937D01*
X-334777Y-44543D01*
Y-43363D01*
X-333990Y-42575D02*
Y-44937D01*
X-332809D01*
X-332415Y-44543D01*
Y-43756D01*
X-332809Y-43363D01*
X-333990D01*
X-331628Y-45331D02*
X-331235Y-45724D01*
X-330447D01*
X-330054Y-45331D01*
Y-44937D01*
X-330447Y-44543D01*
X-330841D01*
X-330447D01*
X-330054Y-44150D01*
Y-43756D01*
X-330447Y-43363D01*
X-331235D01*
X-331628Y-43756D01*
X-329267Y-43363D02*
X-328480D01*
X-328873D01*
Y-45724D01*
X-329267Y-45331D01*
X-327299Y-42969D02*
X-325725D01*
X-324937Y-43363D02*
X-324150D01*
X-324544D01*
Y-45724D01*
X-324937Y-45331D01*
X-300952Y-45724D02*
Y-43756D01*
X-300558Y-43363D01*
X-299771D01*
X-299378Y-43756D01*
Y-45724D01*
X-298591Y-43363D02*
X-297803D01*
X-298197D01*
Y-45724D01*
X-298591Y-45331D01*
X-296623Y-42969D02*
X-295048D01*
X-294261Y-45724D02*
Y-43756D01*
X-293868Y-43363D01*
X-293081D01*
X-292687Y-43756D01*
Y-45724D01*
X-291900Y-42969D02*
X-290326D01*
X-289145Y-44937D02*
X-288358D01*
X-287964Y-44543D01*
Y-43363D01*
X-289145D01*
X-289538Y-43756D01*
X-289145Y-44150D01*
X-287964D01*
X-287177Y-43363D02*
Y-44937D01*
X-286783D01*
X-286390Y-44543D01*
Y-43363D01*
Y-44543D01*
X-285996Y-44937D01*
X-285603Y-44543D01*
Y-43363D01*
X-284816Y-42575D02*
Y-44937D01*
X-283635D01*
X-283241Y-44543D01*
Y-43756D01*
X-283635Y-43363D01*
X-284816D01*
X-282454Y-45331D02*
X-282061Y-45724D01*
X-281273D01*
X-280880Y-45331D01*
Y-44937D01*
X-281273Y-44543D01*
X-281667D01*
X-281273D01*
X-280880Y-44150D01*
Y-43756D01*
X-281273Y-43363D01*
X-282061D01*
X-282454Y-43756D01*
X-278518Y-43363D02*
X-280093D01*
X-278518Y-44937D01*
Y-45331D01*
X-278912Y-45724D01*
X-279699D01*
X-280093Y-45331D01*
X-277731Y-42969D02*
X-276157D01*
X-275370Y-43363D02*
X-274583D01*
X-274976D01*
Y-45724D01*
X-275370Y-45331D01*
X-251778Y-45724D02*
Y-43756D01*
X-251384Y-43363D01*
X-250597D01*
X-250204Y-43756D01*
Y-45724D01*
X-249417Y-43363D02*
X-248629D01*
X-249023D01*
Y-45724D01*
X-249417Y-45331D01*
X-247449Y-42969D02*
X-245874D01*
X-245087Y-45724D02*
Y-43756D01*
X-244694Y-43363D01*
X-243906D01*
X-243513Y-43756D01*
Y-45724D01*
X-242726Y-42969D02*
X-241151D01*
X-239971Y-44937D02*
X-239184D01*
X-238790Y-44543D01*
Y-43363D01*
X-239971D01*
X-240364Y-43756D01*
X-239971Y-44150D01*
X-238790D01*
X-238003Y-43363D02*
Y-44937D01*
X-237609D01*
X-237216Y-44543D01*
Y-43363D01*
Y-44543D01*
X-236822Y-44937D01*
X-236429Y-44543D01*
Y-43363D01*
X-235642Y-42575D02*
Y-44937D01*
X-234461D01*
X-234067Y-44543D01*
Y-43756D01*
X-234461Y-43363D01*
X-235642D01*
X-233280Y-45331D02*
X-232887Y-45724D01*
X-232099D01*
X-231706Y-45331D01*
Y-44937D01*
X-232099Y-44543D01*
X-232493D01*
X-232099D01*
X-231706Y-44150D01*
Y-43756D01*
X-232099Y-43363D01*
X-232887D01*
X-233280Y-43756D01*
X-230919Y-45331D02*
X-230525Y-45724D01*
X-229738D01*
X-229344Y-45331D01*
Y-44937D01*
X-229738Y-44543D01*
X-230132D01*
X-229738D01*
X-229344Y-44150D01*
Y-43756D01*
X-229738Y-43363D01*
X-230525D01*
X-230919Y-43756D01*
X-228557Y-42969D02*
X-226983D01*
X-226196Y-43363D02*
X-225409D01*
X-225802D01*
Y-45724D01*
X-226196Y-45331D01*
X-202604Y-45724D02*
Y-43756D01*
X-202210Y-43363D01*
X-201423D01*
X-201030Y-43756D01*
Y-45724D01*
X-200242Y-43363D02*
X-199455D01*
X-199849D01*
Y-45724D01*
X-200242Y-45331D01*
X-198275Y-42969D02*
X-196700D01*
X-195913Y-45724D02*
Y-43756D01*
X-195520Y-43363D01*
X-194732D01*
X-194339Y-43756D01*
Y-45724D01*
X-193552Y-42969D02*
X-191978D01*
X-190797Y-44937D02*
X-190010D01*
X-189616Y-44543D01*
Y-43363D01*
X-190797D01*
X-191190Y-43756D01*
X-190797Y-44150D01*
X-189616D01*
X-188829Y-43363D02*
Y-44937D01*
X-188435D01*
X-188042Y-44543D01*
Y-43363D01*
Y-44543D01*
X-187648Y-44937D01*
X-187255Y-44543D01*
Y-43363D01*
X-186468Y-42575D02*
Y-44937D01*
X-185287D01*
X-184893Y-44543D01*
Y-43756D01*
X-185287Y-43363D01*
X-186468D01*
X-184106Y-45331D02*
X-183712Y-45724D01*
X-182925D01*
X-182532Y-45331D01*
Y-44937D01*
X-182925Y-44543D01*
X-183319D01*
X-182925D01*
X-182532Y-44150D01*
Y-43756D01*
X-182925Y-43363D01*
X-183712D01*
X-184106Y-43756D01*
X-180564Y-43363D02*
Y-45724D01*
X-181745Y-44543D01*
X-180170D01*
X-179383Y-42969D02*
X-177809D01*
X-177022Y-43363D02*
X-176235D01*
X-176628D01*
Y-45724D01*
X-177022Y-45331D01*
X-153430Y-45724D02*
Y-43756D01*
X-153036Y-43363D01*
X-152249D01*
X-151856Y-43756D01*
Y-45724D01*
X-151068Y-43363D02*
X-150281D01*
X-150675D01*
Y-45724D01*
X-151068Y-45331D01*
X-149101Y-42969D02*
X-147526D01*
X-146739Y-45724D02*
Y-43756D01*
X-146346Y-43363D01*
X-145559D01*
X-145165Y-43756D01*
Y-45724D01*
X-144378Y-42969D02*
X-142804D01*
X-141623Y-44937D02*
X-140836D01*
X-140442Y-44543D01*
Y-43363D01*
X-141623D01*
X-142016Y-43756D01*
X-141623Y-44150D01*
X-140442D01*
X-139655Y-43363D02*
Y-44937D01*
X-139261D01*
X-138868Y-44543D01*
Y-43363D01*
Y-44543D01*
X-138474Y-44937D01*
X-138081Y-44543D01*
Y-43363D01*
X-137294Y-42575D02*
Y-44937D01*
X-136113D01*
X-135719Y-44543D01*
Y-43756D01*
X-136113Y-43363D01*
X-137294D01*
X-134932Y-45331D02*
X-134538Y-45724D01*
X-133751D01*
X-133358Y-45331D01*
Y-44937D01*
X-133751Y-44543D01*
X-134145D01*
X-133751D01*
X-133358Y-44150D01*
Y-43756D01*
X-133751Y-43363D01*
X-134538D01*
X-134932Y-43756D01*
X-130996Y-45724D02*
X-132571D01*
Y-44543D01*
X-131783Y-44937D01*
X-131390D01*
X-130996Y-44543D01*
Y-43756D01*
X-131390Y-43363D01*
X-132177D01*
X-132571Y-43756D01*
X-130209Y-42969D02*
X-128635D01*
X-127848Y-43363D02*
X-127060D01*
X-127454D01*
Y-45724D01*
X-127848Y-45331D01*
X-104256Y-45724D02*
Y-43756D01*
X-103862Y-43363D01*
X-103075D01*
X-102682Y-43756D01*
Y-45724D01*
X-101894Y-43363D02*
X-101107D01*
X-101501D01*
Y-45724D01*
X-101894Y-45331D01*
X-99927Y-42969D02*
X-98352D01*
X-97565Y-45724D02*
Y-43756D01*
X-97172Y-43363D01*
X-96385D01*
X-95991Y-43756D01*
Y-45724D01*
X-95204Y-42969D02*
X-93629D01*
X-92449Y-44937D02*
X-91662D01*
X-91268Y-44543D01*
Y-43363D01*
X-92449D01*
X-92842Y-43756D01*
X-92449Y-44150D01*
X-91268D01*
X-90481Y-43363D02*
Y-44937D01*
X-90087D01*
X-89694Y-44543D01*
Y-43363D01*
Y-44543D01*
X-89300Y-44937D01*
X-88907Y-44543D01*
Y-43363D01*
X-88119Y-42575D02*
Y-44937D01*
X-86939D01*
X-86545Y-44543D01*
Y-43756D01*
X-86939Y-43363D01*
X-88119D01*
X-85758Y-45331D02*
X-85364Y-45724D01*
X-84577D01*
X-84184Y-45331D01*
Y-44937D01*
X-84577Y-44543D01*
X-84971D01*
X-84577D01*
X-84184Y-44150D01*
Y-43756D01*
X-84577Y-43363D01*
X-85364D01*
X-85758Y-43756D01*
X-81822Y-45724D02*
X-82609Y-45331D01*
X-83397Y-44543D01*
Y-43756D01*
X-83003Y-43363D01*
X-82216D01*
X-81822Y-43756D01*
Y-44150D01*
X-82216Y-44543D01*
X-83397D01*
X-81035Y-42969D02*
X-79461D01*
X-78674Y-43363D02*
X-77886D01*
X-78280D01*
Y-45724D01*
X-78674Y-45331D01*
X-55082Y-45724D02*
Y-43756D01*
X-54688Y-43363D01*
X-53901D01*
X-53508Y-43756D01*
Y-45724D01*
X-52720Y-43363D02*
X-51933D01*
X-52327D01*
Y-45724D01*
X-52720Y-45331D01*
X-50753Y-42969D02*
X-49178D01*
X-48391Y-45724D02*
Y-43756D01*
X-47998Y-43363D01*
X-47210D01*
X-46817Y-43756D01*
Y-45724D01*
X-46030Y-42969D02*
X-44456D01*
X-43275Y-44937D02*
X-42488D01*
X-42094Y-44543D01*
Y-43363D01*
X-43275D01*
X-43668Y-43756D01*
X-43275Y-44150D01*
X-42094D01*
X-41307Y-43363D02*
Y-44937D01*
X-40913D01*
X-40520Y-44543D01*
Y-43363D01*
Y-44543D01*
X-40126Y-44937D01*
X-39733Y-44543D01*
Y-43363D01*
X-38945Y-42575D02*
Y-44937D01*
X-37765D01*
X-37371Y-44543D01*
Y-43756D01*
X-37765Y-43363D01*
X-38945D01*
X-36584Y-45331D02*
X-36190Y-45724D01*
X-35403D01*
X-35010Y-45331D01*
Y-44937D01*
X-35403Y-44543D01*
X-35797D01*
X-35403D01*
X-35010Y-44150D01*
Y-43756D01*
X-35403Y-43363D01*
X-36190D01*
X-36584Y-43756D01*
X-34222Y-45724D02*
X-32648D01*
Y-45331D01*
X-34222Y-43756D01*
Y-43363D01*
X-31861Y-42969D02*
X-30287D01*
X-29500Y-43363D02*
X-28712D01*
X-29106D01*
Y-45724D01*
X-29500Y-45331D01*
X-5908Y-45724D02*
Y-43756D01*
X-5514Y-43363D01*
X-4727D01*
X-4334Y-43756D01*
Y-45724D01*
X-3546Y-43363D02*
X-2759D01*
X-3153D01*
Y-45724D01*
X-3546Y-45331D01*
X-1579Y-42969D02*
X-4D01*
X783Y-45724D02*
Y-43756D01*
X1176Y-43363D01*
X1964D01*
X2357Y-43756D01*
Y-45724D01*
X3144Y-42969D02*
X4719D01*
X5899Y-44937D02*
X6686D01*
X7080Y-44543D01*
Y-43363D01*
X5899D01*
X5506Y-43756D01*
X5899Y-44150D01*
X7080D01*
X7867Y-43363D02*
Y-44937D01*
X8261D01*
X8654Y-44543D01*
Y-43363D01*
Y-44543D01*
X9048Y-44937D01*
X9442Y-44543D01*
Y-43363D01*
X10229Y-42575D02*
Y-44937D01*
X11409D01*
X11803Y-44543D01*
Y-43756D01*
X11409Y-43363D01*
X10229D01*
X12590Y-45331D02*
X12984Y-45724D01*
X13771D01*
X14164Y-45331D01*
Y-44937D01*
X13771Y-44543D01*
X13377D01*
X13771D01*
X14164Y-44150D01*
Y-43756D01*
X13771Y-43363D01*
X12984D01*
X12590Y-43756D01*
X14952Y-45331D02*
X15345Y-45724D01*
X16132D01*
X16526Y-45331D01*
Y-44937D01*
X16132Y-44543D01*
X16526Y-44150D01*
Y-43756D01*
X16132Y-43363D01*
X15345D01*
X14952Y-43756D01*
Y-44150D01*
X15345Y-44543D01*
X14952Y-44937D01*
Y-45331D01*
X15345Y-44543D02*
X16132D01*
X17313Y-42969D02*
X18887D01*
X19674Y-43363D02*
X20461D01*
X20068D01*
Y-45724D01*
X19674Y-45331D01*
X43266Y-45724D02*
Y-43756D01*
X43660Y-43363D01*
X44447D01*
X44840Y-43756D01*
Y-45724D01*
X45628Y-43363D02*
X46415D01*
X46021D01*
Y-45724D01*
X45628Y-45331D01*
X47595Y-42969D02*
X49170D01*
X49957Y-45724D02*
Y-43756D01*
X50350Y-43363D01*
X51138D01*
X51531Y-43756D01*
Y-45724D01*
X52318Y-42969D02*
X53893D01*
X55073Y-44937D02*
X55861D01*
X56254Y-44543D01*
Y-43363D01*
X55073D01*
X54680Y-43756D01*
X55073Y-44150D01*
X56254D01*
X57041Y-43363D02*
Y-44937D01*
X57435D01*
X57828Y-44543D01*
Y-43363D01*
Y-44543D01*
X58222Y-44937D01*
X58615Y-44543D01*
Y-43363D01*
X59403Y-42575D02*
Y-44937D01*
X60583D01*
X60977Y-44543D01*
Y-43756D01*
X60583Y-43363D01*
X59403D01*
X61764Y-45331D02*
X62158Y-45724D01*
X62945D01*
X63338Y-45331D01*
Y-44937D01*
X62945Y-44543D01*
X62551D01*
X62945D01*
X63338Y-44150D01*
Y-43756D01*
X62945Y-43363D01*
X62158D01*
X61764Y-43756D01*
X64126D02*
X64519Y-43363D01*
X65306D01*
X65700Y-43756D01*
Y-45331D01*
X65306Y-45724D01*
X64519D01*
X64126Y-45331D01*
Y-44937D01*
X64519Y-44543D01*
X65700D01*
X66487Y-42969D02*
X68061D01*
X68848Y-43363D02*
X69635D01*
X69242D01*
Y-45724D01*
X68848Y-45331D01*
X92440Y-45724D02*
Y-43756D01*
X92834Y-43363D01*
X93621D01*
X94014Y-43756D01*
Y-45724D01*
X94802Y-43363D02*
X95589D01*
X95195D01*
Y-45724D01*
X94802Y-45331D01*
X96769Y-42969D02*
X98344D01*
X99131Y-45724D02*
Y-43756D01*
X99524Y-43363D01*
X100312D01*
X100705Y-43756D01*
Y-45724D01*
X101492Y-42969D02*
X103067D01*
X104247Y-44937D02*
X105034D01*
X105428Y-44543D01*
Y-43363D01*
X104247D01*
X103854Y-43756D01*
X104247Y-44150D01*
X105428D01*
X106215Y-43363D02*
Y-44937D01*
X106609D01*
X107002Y-44543D01*
Y-43363D01*
Y-44543D01*
X107396Y-44937D01*
X107790Y-44543D01*
Y-43363D01*
X108577Y-42575D02*
Y-44937D01*
X109757D01*
X110151Y-44543D01*
Y-43756D01*
X109757Y-43363D01*
X108577D01*
X112119D02*
Y-45724D01*
X110938Y-44543D01*
X112512D01*
X113300Y-45331D02*
X113693Y-45724D01*
X114480D01*
X114874Y-45331D01*
Y-43756D01*
X114480Y-43363D01*
X113693D01*
X113300Y-43756D01*
Y-45331D01*
X115661Y-42969D02*
X117235D01*
X118022Y-43363D02*
X118809D01*
X118416D01*
Y-45724D01*
X118022Y-45331D01*
X141614Y-45724D02*
Y-43756D01*
X142008Y-43363D01*
X142795D01*
X143188Y-43756D01*
Y-45724D01*
X143976Y-43363D02*
X144763D01*
X144369D01*
Y-45724D01*
X143976Y-45331D01*
X145943Y-42969D02*
X147518D01*
X148305Y-45724D02*
Y-43756D01*
X148698Y-43363D01*
X149486D01*
X149879Y-43756D01*
Y-45724D01*
X150666Y-42969D02*
X152241D01*
X153421Y-44937D02*
X154209D01*
X154602Y-44543D01*
Y-43363D01*
X153421D01*
X153028Y-43756D01*
X153421Y-44150D01*
X154602D01*
X155389Y-43363D02*
Y-44937D01*
X155783D01*
X156176Y-44543D01*
Y-43363D01*
Y-44543D01*
X156570Y-44937D01*
X156964Y-44543D01*
Y-43363D01*
X157751Y-42575D02*
Y-44937D01*
X158931D01*
X159325Y-44543D01*
Y-43756D01*
X158931Y-43363D01*
X157751D01*
X161293D02*
Y-45724D01*
X160112Y-44543D01*
X161686D01*
X162473Y-43363D02*
X163261D01*
X162867D01*
Y-45724D01*
X162473Y-45331D01*
X164441Y-42969D02*
X166016D01*
X166803Y-43363D02*
X167590D01*
X167196D01*
Y-45724D01*
X166803Y-45331D01*
X190788Y-45724D02*
Y-43756D01*
X191182Y-43363D01*
X191969D01*
X192362Y-43756D01*
Y-45724D01*
X193150Y-43363D02*
X193937D01*
X193543D01*
Y-45724D01*
X193150Y-45331D01*
X195117Y-42969D02*
X196692D01*
X197479Y-45724D02*
Y-43756D01*
X197872Y-43363D01*
X198660D01*
X199053Y-43756D01*
Y-45724D01*
X199840Y-42969D02*
X201415D01*
X202595Y-44937D02*
X203382D01*
X203776Y-44543D01*
Y-43363D01*
X202595D01*
X202202Y-43756D01*
X202595Y-44150D01*
X203776D01*
X204563Y-43363D02*
Y-44937D01*
X204957D01*
X205350Y-44543D01*
Y-43363D01*
Y-44543D01*
X205744Y-44937D01*
X206137Y-44543D01*
Y-43363D01*
X206925Y-42575D02*
Y-44937D01*
X208105D01*
X208499Y-44543D01*
Y-43756D01*
X208105Y-43363D01*
X206925D01*
X210467D02*
Y-45724D01*
X209286Y-44543D01*
X210860D01*
X213222Y-43363D02*
X211648D01*
X213222Y-44937D01*
Y-45331D01*
X212828Y-45724D01*
X212041D01*
X211648Y-45331D01*
X214009Y-42969D02*
X215583D01*
X216370Y-43363D02*
X217158D01*
X216764D01*
Y-45724D01*
X216370Y-45331D01*
X239962Y-45724D02*
Y-43756D01*
X240356Y-43363D01*
X241143D01*
X241536Y-43756D01*
Y-45724D01*
X242324Y-43363D02*
X243111D01*
X242717D01*
Y-45724D01*
X242324Y-45331D01*
X244291Y-42969D02*
X245866D01*
X246653Y-45724D02*
Y-43756D01*
X247046Y-43363D01*
X247834D01*
X248227Y-43756D01*
Y-45724D01*
X249014Y-42969D02*
X250589D01*
X251769Y-44937D02*
X252556D01*
X252950Y-44543D01*
Y-43363D01*
X251769D01*
X251376Y-43756D01*
X251769Y-44150D01*
X252950D01*
X253737Y-43363D02*
Y-44937D01*
X254131D01*
X254524Y-44543D01*
Y-43363D01*
Y-44543D01*
X254918Y-44937D01*
X255311Y-44543D01*
Y-43363D01*
X256099Y-42575D02*
Y-44937D01*
X257279D01*
X257673Y-44543D01*
Y-43756D01*
X257279Y-43363D01*
X256099D01*
X259641D02*
Y-45724D01*
X258460Y-44543D01*
X260034D01*
X260822Y-45331D02*
X261215Y-45724D01*
X262002D01*
X262396Y-45331D01*
Y-44937D01*
X262002Y-44543D01*
X261609D01*
X262002D01*
X262396Y-44150D01*
Y-43756D01*
X262002Y-43363D01*
X261215D01*
X260822Y-43756D01*
X263183Y-42969D02*
X264757D01*
X265545Y-43363D02*
X266332D01*
X265938D01*
Y-45724D01*
X265545Y-45331D01*
X289136Y-45724D02*
Y-43756D01*
X289530Y-43363D01*
X290317D01*
X290710Y-43756D01*
Y-45724D01*
X291498Y-43363D02*
X292285D01*
X291891D01*
Y-45724D01*
X291498Y-45331D01*
X293465Y-42969D02*
X295040D01*
X295827Y-45724D02*
Y-43756D01*
X296220Y-43363D01*
X297008D01*
X297401Y-43756D01*
Y-45724D01*
X298188Y-42969D02*
X299763D01*
X300943Y-44937D02*
X301731D01*
X302124Y-44543D01*
Y-43363D01*
X300943D01*
X300550Y-43756D01*
X300943Y-44150D01*
X302124D01*
X302911Y-43363D02*
Y-44937D01*
X303305D01*
X303698Y-44543D01*
Y-43363D01*
Y-44543D01*
X304092Y-44937D01*
X304486Y-44543D01*
Y-43363D01*
X305273Y-42575D02*
Y-44937D01*
X306453D01*
X306847Y-44543D01*
Y-43756D01*
X306453Y-43363D01*
X305273D01*
X308815D02*
Y-45724D01*
X307634Y-44543D01*
X309208D01*
X311176Y-43363D02*
Y-45724D01*
X309996Y-44543D01*
X311570D01*
X312357Y-42969D02*
X313931D01*
X314719Y-43363D02*
X315506D01*
X315112D01*
Y-45724D01*
X314719Y-45331D01*
X338310Y-45724D02*
Y-43756D01*
X338704Y-43363D01*
X339491D01*
X339884Y-43756D01*
Y-45724D01*
X340672Y-43363D02*
X341459D01*
X341065D01*
Y-45724D01*
X340672Y-45331D01*
X342639Y-42969D02*
X344214D01*
X345001Y-45724D02*
Y-43756D01*
X345394Y-43363D01*
X346182D01*
X346575Y-43756D01*
Y-45724D01*
X347362Y-42969D02*
X348937D01*
X350117Y-44937D02*
X350905D01*
X351298Y-44543D01*
Y-43363D01*
X350117D01*
X349724Y-43756D01*
X350117Y-44150D01*
X351298D01*
X352085Y-43363D02*
Y-44937D01*
X352479D01*
X352872Y-44543D01*
Y-43363D01*
Y-44543D01*
X353266Y-44937D01*
X353660Y-44543D01*
Y-43363D01*
X354447Y-42575D02*
Y-44937D01*
X355627D01*
X356021Y-44543D01*
Y-43756D01*
X355627Y-43363D01*
X354447D01*
X357989D02*
Y-45724D01*
X356808Y-44543D01*
X358383D01*
X360744Y-45724D02*
X359170D01*
Y-44543D01*
X359957Y-44937D01*
X360350D01*
X360744Y-44543D01*
Y-43756D01*
X360350Y-43363D01*
X359563D01*
X359170Y-43756D01*
X361531Y-42969D02*
X363105D01*
X363893Y-43363D02*
X364680D01*
X364286D01*
Y-45724D01*
X363893Y-45331D01*
X-338310Y45724D02*
Y43756D01*
X-338704Y43363D01*
X-339491D01*
X-339884Y43756D01*
Y45724D01*
X-340672Y43363D02*
X-341459D01*
X-341065D01*
Y45724D01*
X-340672Y45331D01*
X-342639Y42969D02*
X-344214D01*
X-345001Y45724D02*
Y43756D01*
X-345394Y43363D01*
X-346182D01*
X-346575Y43756D01*
Y45724D01*
X-347362Y42969D02*
X-348937D01*
X-350117Y44937D02*
X-350905D01*
X-351298Y44543D01*
Y43363D01*
X-350117D01*
X-349724Y43756D01*
X-350117Y44150D01*
X-351298D01*
X-352085Y43363D02*
Y44937D01*
X-352479D01*
X-352872Y44543D01*
Y43363D01*
Y44543D01*
X-353266Y44937D01*
X-353660Y44543D01*
Y43363D01*
X-354447Y42575D02*
Y44937D01*
X-355627D01*
X-356021Y44543D01*
Y43756D01*
X-355627Y43363D01*
X-354447D01*
X-357989D02*
Y45724D01*
X-356808Y44543D01*
X-358383D01*
X-360744Y45724D02*
X-359170D01*
Y44543D01*
X-359957Y44937D01*
X-360350D01*
X-360744Y44543D01*
Y43756D01*
X-360350Y43363D01*
X-359563D01*
X-359170Y43756D01*
X-289136Y45724D02*
Y43756D01*
X-289530Y43363D01*
X-290317D01*
X-290710Y43756D01*
Y45724D01*
X-291498Y43363D02*
X-292285D01*
X-291891D01*
Y45724D01*
X-291498Y45331D01*
X-293465Y42969D02*
X-295040D01*
X-295827Y45724D02*
Y43756D01*
X-296220Y43363D01*
X-297008D01*
X-297401Y43756D01*
Y45724D01*
X-298188Y42969D02*
X-299763D01*
X-300943Y44937D02*
X-301731D01*
X-302124Y44543D01*
Y43363D01*
X-300943D01*
X-300550Y43756D01*
X-300943Y44150D01*
X-302124D01*
X-302911Y43363D02*
Y44937D01*
X-303305D01*
X-303698Y44543D01*
Y43363D01*
Y44543D01*
X-304092Y44937D01*
X-304486Y44543D01*
Y43363D01*
X-305273Y42575D02*
Y44937D01*
X-306453D01*
X-306847Y44543D01*
Y43756D01*
X-306453Y43363D01*
X-305273D01*
X-308815D02*
Y45724D01*
X-307634Y44543D01*
X-309208D01*
X-311176Y43363D02*
Y45724D01*
X-309996Y44543D01*
X-311570D01*
X-239962Y45724D02*
Y43756D01*
X-240356Y43363D01*
X-241143D01*
X-241536Y43756D01*
Y45724D01*
X-242324Y43363D02*
X-243111D01*
X-242717D01*
Y45724D01*
X-242324Y45331D01*
X-244291Y42969D02*
X-245866D01*
X-246653Y45724D02*
Y43756D01*
X-247046Y43363D01*
X-247834D01*
X-248227Y43756D01*
Y45724D01*
X-249014Y42969D02*
X-250589D01*
X-251769Y44937D02*
X-252556D01*
X-252950Y44543D01*
Y43363D01*
X-251769D01*
X-251376Y43756D01*
X-251769Y44150D01*
X-252950D01*
X-253737Y43363D02*
Y44937D01*
X-254131D01*
X-254524Y44543D01*
Y43363D01*
Y44543D01*
X-254918Y44937D01*
X-255311Y44543D01*
Y43363D01*
X-256099Y42575D02*
Y44937D01*
X-257279D01*
X-257673Y44543D01*
Y43756D01*
X-257279Y43363D01*
X-256099D01*
X-259641D02*
Y45724D01*
X-258460Y44543D01*
X-260034D01*
X-260822Y45331D02*
X-261215Y45724D01*
X-262002D01*
X-262396Y45331D01*
Y44937D01*
X-262002Y44543D01*
X-261609D01*
X-262002D01*
X-262396Y44150D01*
Y43756D01*
X-262002Y43363D01*
X-261215D01*
X-260822Y43756D01*
X-190788Y45724D02*
Y43756D01*
X-191182Y43363D01*
X-191969D01*
X-192362Y43756D01*
Y45724D01*
X-193150Y43363D02*
X-193937D01*
X-193543D01*
Y45724D01*
X-193150Y45331D01*
X-195117Y42969D02*
X-196692D01*
X-197479Y45724D02*
Y43756D01*
X-197872Y43363D01*
X-198660D01*
X-199053Y43756D01*
Y45724D01*
X-199840Y42969D02*
X-201415D01*
X-202595Y44937D02*
X-203382D01*
X-203776Y44543D01*
Y43363D01*
X-202595D01*
X-202202Y43756D01*
X-202595Y44150D01*
X-203776D01*
X-204563Y43363D02*
Y44937D01*
X-204957D01*
X-205350Y44543D01*
Y43363D01*
Y44543D01*
X-205744Y44937D01*
X-206137Y44543D01*
Y43363D01*
X-206925Y42575D02*
Y44937D01*
X-208105D01*
X-208499Y44543D01*
Y43756D01*
X-208105Y43363D01*
X-206925D01*
X-210467D02*
Y45724D01*
X-209286Y44543D01*
X-210860D01*
X-213222Y43363D02*
X-211648D01*
X-213222Y44937D01*
Y45331D01*
X-212828Y45724D01*
X-212041D01*
X-211648Y45331D01*
X-141614Y45724D02*
Y43756D01*
X-142008Y43363D01*
X-142795D01*
X-143188Y43756D01*
Y45724D01*
X-143976Y43363D02*
X-144763D01*
X-144369D01*
Y45724D01*
X-143976Y45331D01*
X-145943Y42969D02*
X-147518D01*
X-148305Y45724D02*
Y43756D01*
X-148698Y43363D01*
X-149486D01*
X-149879Y43756D01*
Y45724D01*
X-150666Y42969D02*
X-152241D01*
X-153421Y44937D02*
X-154209D01*
X-154602Y44543D01*
Y43363D01*
X-153421D01*
X-153028Y43756D01*
X-153421Y44150D01*
X-154602D01*
X-155389Y43363D02*
Y44937D01*
X-155783D01*
X-156176Y44543D01*
Y43363D01*
Y44543D01*
X-156570Y44937D01*
X-156964Y44543D01*
Y43363D01*
X-157751Y42575D02*
Y44937D01*
X-158931D01*
X-159325Y44543D01*
Y43756D01*
X-158931Y43363D01*
X-157751D01*
X-161293D02*
Y45724D01*
X-160112Y44543D01*
X-161686D01*
X-162473Y43363D02*
X-163261D01*
X-162867D01*
Y45724D01*
X-162473Y45331D01*
X-92440Y45724D02*
Y43756D01*
X-92834Y43363D01*
X-93621D01*
X-94014Y43756D01*
Y45724D01*
X-94802Y43363D02*
X-95589D01*
X-95195D01*
Y45724D01*
X-94802Y45331D01*
X-96769Y42969D02*
X-98344D01*
X-99131Y45724D02*
Y43756D01*
X-99524Y43363D01*
X-100312D01*
X-100705Y43756D01*
Y45724D01*
X-101492Y42969D02*
X-103067D01*
X-104247Y44937D02*
X-105034D01*
X-105428Y44543D01*
Y43363D01*
X-104247D01*
X-103854Y43756D01*
X-104247Y44150D01*
X-105428D01*
X-106215Y43363D02*
Y44937D01*
X-106609D01*
X-107002Y44543D01*
Y43363D01*
Y44543D01*
X-107396Y44937D01*
X-107790Y44543D01*
Y43363D01*
X-108577Y42575D02*
Y44937D01*
X-109757D01*
X-110151Y44543D01*
Y43756D01*
X-109757Y43363D01*
X-108577D01*
X-112119D02*
Y45724D01*
X-110938Y44543D01*
X-112512D01*
X-113300Y45331D02*
X-113693Y45724D01*
X-114480D01*
X-114874Y45331D01*
Y43756D01*
X-114480Y43363D01*
X-113693D01*
X-113300Y43756D01*
Y45331D01*
X-43266Y45724D02*
Y43756D01*
X-43660Y43363D01*
X-44447D01*
X-44840Y43756D01*
Y45724D01*
X-45628Y43363D02*
X-46415D01*
X-46021D01*
Y45724D01*
X-45628Y45331D01*
X-47595Y42969D02*
X-49170D01*
X-49957Y45724D02*
Y43756D01*
X-50350Y43363D01*
X-51138D01*
X-51531Y43756D01*
Y45724D01*
X-52318Y42969D02*
X-53893D01*
X-55073Y44937D02*
X-55861D01*
X-56254Y44543D01*
Y43363D01*
X-55073D01*
X-54680Y43756D01*
X-55073Y44150D01*
X-56254D01*
X-57041Y43363D02*
Y44937D01*
X-57435D01*
X-57828Y44543D01*
Y43363D01*
Y44543D01*
X-58222Y44937D01*
X-58615Y44543D01*
Y43363D01*
X-59403Y42575D02*
Y44937D01*
X-60583D01*
X-60977Y44543D01*
Y43756D01*
X-60583Y43363D01*
X-59403D01*
X-61764Y45331D02*
X-62158Y45724D01*
X-62945D01*
X-63338Y45331D01*
Y44937D01*
X-62945Y44543D01*
X-62551D01*
X-62945D01*
X-63338Y44150D01*
Y43756D01*
X-62945Y43363D01*
X-62158D01*
X-61764Y43756D01*
X-64126D02*
X-64519Y43363D01*
X-65306D01*
X-65700Y43756D01*
Y45331D01*
X-65306Y45724D01*
X-64519D01*
X-64126Y45331D01*
Y44937D01*
X-64519Y44543D01*
X-65700D01*
X5908Y45724D02*
Y43756D01*
X5514Y43363D01*
X4727D01*
X4334Y43756D01*
Y45724D01*
X3546Y43363D02*
X2759D01*
X3153D01*
Y45724D01*
X3546Y45331D01*
X1579Y42969D02*
X4D01*
X-783Y45724D02*
Y43756D01*
X-1176Y43363D01*
X-1964D01*
X-2357Y43756D01*
Y45724D01*
X-3144Y42969D02*
X-4719D01*
X-5899Y44937D02*
X-6686D01*
X-7080Y44543D01*
Y43363D01*
X-5899D01*
X-5506Y43756D01*
X-5899Y44150D01*
X-7080D01*
X-7867Y43363D02*
Y44937D01*
X-8261D01*
X-8654Y44543D01*
Y43363D01*
Y44543D01*
X-9048Y44937D01*
X-9442Y44543D01*
Y43363D01*
X-10229Y42575D02*
Y44937D01*
X-11409D01*
X-11803Y44543D01*
Y43756D01*
X-11409Y43363D01*
X-10229D01*
X-12590Y45331D02*
X-12984Y45724D01*
X-13771D01*
X-14164Y45331D01*
Y44937D01*
X-13771Y44543D01*
X-13377D01*
X-13771D01*
X-14164Y44150D01*
Y43756D01*
X-13771Y43363D01*
X-12984D01*
X-12590Y43756D01*
X-14952Y45331D02*
X-15345Y45724D01*
X-16132D01*
X-16526Y45331D01*
Y44937D01*
X-16132Y44543D01*
X-16526Y44150D01*
Y43756D01*
X-16132Y43363D01*
X-15345D01*
X-14952Y43756D01*
Y44150D01*
X-15345Y44543D01*
X-14952Y44937D01*
Y45331D01*
X-15345Y44543D02*
X-16132D01*
X55082Y45724D02*
Y43756D01*
X54688Y43363D01*
X53901D01*
X53508Y43756D01*
Y45724D01*
X52720Y43363D02*
X51933D01*
X52327D01*
Y45724D01*
X52720Y45331D01*
X50753Y42969D02*
X49178D01*
X48391Y45724D02*
Y43756D01*
X47998Y43363D01*
X47210D01*
X46817Y43756D01*
Y45724D01*
X46030Y42969D02*
X44456D01*
X43275Y44937D02*
X42488D01*
X42094Y44543D01*
Y43363D01*
X43275D01*
X43668Y43756D01*
X43275Y44150D01*
X42094D01*
X41307Y43363D02*
Y44937D01*
X40913D01*
X40520Y44543D01*
Y43363D01*
Y44543D01*
X40126Y44937D01*
X39733Y44543D01*
Y43363D01*
X38945Y42575D02*
Y44937D01*
X37765D01*
X37371Y44543D01*
Y43756D01*
X37765Y43363D01*
X38945D01*
X36584Y45331D02*
X36190Y45724D01*
X35403D01*
X35010Y45331D01*
Y44937D01*
X35403Y44543D01*
X35797D01*
X35403D01*
X35010Y44150D01*
Y43756D01*
X35403Y43363D01*
X36190D01*
X36584Y43756D01*
X34222Y45724D02*
X32648D01*
Y45331D01*
X34222Y43756D01*
Y43363D01*
X104256Y45724D02*
Y43756D01*
X103862Y43363D01*
X103075D01*
X102682Y43756D01*
Y45724D01*
X101894Y43363D02*
X101107D01*
X101501D01*
Y45724D01*
X101894Y45331D01*
X99927Y42969D02*
X98352D01*
X97565Y45724D02*
Y43756D01*
X97172Y43363D01*
X96385D01*
X95991Y43756D01*
Y45724D01*
X95204Y42969D02*
X93629D01*
X92449Y44937D02*
X91662D01*
X91268Y44543D01*
Y43363D01*
X92449D01*
X92842Y43756D01*
X92449Y44150D01*
X91268D01*
X90481Y43363D02*
Y44937D01*
X90087D01*
X89694Y44543D01*
Y43363D01*
Y44543D01*
X89300Y44937D01*
X88907Y44543D01*
Y43363D01*
X88119Y42575D02*
Y44937D01*
X86939D01*
X86545Y44543D01*
Y43756D01*
X86939Y43363D01*
X88119D01*
X85758Y45331D02*
X85364Y45724D01*
X84577D01*
X84184Y45331D01*
Y44937D01*
X84577Y44543D01*
X84971D01*
X84577D01*
X84184Y44150D01*
Y43756D01*
X84577Y43363D01*
X85364D01*
X85758Y43756D01*
X81822Y45724D02*
X82609Y45331D01*
X83397Y44543D01*
Y43756D01*
X83003Y43363D01*
X82216D01*
X81822Y43756D01*
Y44150D01*
X82216Y44543D01*
X83397D01*
X153430Y45724D02*
Y43756D01*
X153036Y43363D01*
X152249D01*
X151856Y43756D01*
Y45724D01*
X151068Y43363D02*
X150281D01*
X150675D01*
Y45724D01*
X151068Y45331D01*
X149101Y42969D02*
X147526D01*
X146739Y45724D02*
Y43756D01*
X146346Y43363D01*
X145559D01*
X145165Y43756D01*
Y45724D01*
X144378Y42969D02*
X142804D01*
X141623Y44937D02*
X140836D01*
X140442Y44543D01*
Y43363D01*
X141623D01*
X142016Y43756D01*
X141623Y44150D01*
X140442D01*
X139655Y43363D02*
Y44937D01*
X139261D01*
X138868Y44543D01*
Y43363D01*
Y44543D01*
X138474Y44937D01*
X138081Y44543D01*
Y43363D01*
X137294Y42575D02*
Y44937D01*
X136113D01*
X135719Y44543D01*
Y43756D01*
X136113Y43363D01*
X137294D01*
X134932Y45331D02*
X134538Y45724D01*
X133751D01*
X133358Y45331D01*
Y44937D01*
X133751Y44543D01*
X134145D01*
X133751D01*
X133358Y44150D01*
Y43756D01*
X133751Y43363D01*
X134538D01*
X134932Y43756D01*
X130996Y45724D02*
X132571D01*
Y44543D01*
X131783Y44937D01*
X131390D01*
X130996Y44543D01*
Y43756D01*
X131390Y43363D01*
X132177D01*
X132571Y43756D01*
X202604Y45724D02*
Y43756D01*
X202210Y43363D01*
X201423D01*
X201030Y43756D01*
Y45724D01*
X200242Y43363D02*
X199455D01*
X199849D01*
Y45724D01*
X200242Y45331D01*
X198275Y42969D02*
X196700D01*
X195913Y45724D02*
Y43756D01*
X195520Y43363D01*
X194732D01*
X194339Y43756D01*
Y45724D01*
X193552Y42969D02*
X191978D01*
X190797Y44937D02*
X190010D01*
X189616Y44543D01*
Y43363D01*
X190797D01*
X191190Y43756D01*
X190797Y44150D01*
X189616D01*
X188829Y43363D02*
Y44937D01*
X188435D01*
X188042Y44543D01*
Y43363D01*
Y44543D01*
X187648Y44937D01*
X187255Y44543D01*
Y43363D01*
X186468Y42575D02*
Y44937D01*
X185287D01*
X184893Y44543D01*
Y43756D01*
X185287Y43363D01*
X186468D01*
X184106Y45331D02*
X183712Y45724D01*
X182925D01*
X182532Y45331D01*
Y44937D01*
X182925Y44543D01*
X183319D01*
X182925D01*
X182532Y44150D01*
Y43756D01*
X182925Y43363D01*
X183712D01*
X184106Y43756D01*
X180564Y43363D02*
Y45724D01*
X181745Y44543D01*
X180170D01*
X251778Y45724D02*
Y43756D01*
X251384Y43363D01*
X250597D01*
X250204Y43756D01*
Y45724D01*
X249417Y43363D02*
X248629D01*
X249023D01*
Y45724D01*
X249417Y45331D01*
X247449Y42969D02*
X245874D01*
X245087Y45724D02*
Y43756D01*
X244694Y43363D01*
X243906D01*
X243513Y43756D01*
Y45724D01*
X242726Y42969D02*
X241151D01*
X239971Y44937D02*
X239184D01*
X238790Y44543D01*
Y43363D01*
X239971D01*
X240364Y43756D01*
X239971Y44150D01*
X238790D01*
X238003Y43363D02*
Y44937D01*
X237609D01*
X237216Y44543D01*
Y43363D01*
Y44543D01*
X236822Y44937D01*
X236429Y44543D01*
Y43363D01*
X235642Y42575D02*
Y44937D01*
X234461D01*
X234067Y44543D01*
Y43756D01*
X234461Y43363D01*
X235642D01*
X233280Y45331D02*
X232887Y45724D01*
X232099D01*
X231706Y45331D01*
Y44937D01*
X232099Y44543D01*
X232493D01*
X232099D01*
X231706Y44150D01*
Y43756D01*
X232099Y43363D01*
X232887D01*
X233280Y43756D01*
X230919Y45331D02*
X230525Y45724D01*
X229738D01*
X229344Y45331D01*
Y44937D01*
X229738Y44543D01*
X230132D01*
X229738D01*
X229344Y44150D01*
Y43756D01*
X229738Y43363D01*
X230525D01*
X230919Y43756D01*
X300952Y45724D02*
Y43756D01*
X300558Y43363D01*
X299771D01*
X299378Y43756D01*
Y45724D01*
X298591Y43363D02*
X297803D01*
X298197D01*
Y45724D01*
X298591Y45331D01*
X296623Y42969D02*
X295048D01*
X294261Y45724D02*
Y43756D01*
X293868Y43363D01*
X293081D01*
X292687Y43756D01*
Y45724D01*
X291900Y42969D02*
X290326D01*
X289145Y44937D02*
X288358D01*
X287964Y44543D01*
Y43363D01*
X289145D01*
X289538Y43756D01*
X289145Y44150D01*
X287964D01*
X287177Y43363D02*
Y44937D01*
X286783D01*
X286390Y44543D01*
Y43363D01*
Y44543D01*
X285996Y44937D01*
X285603Y44543D01*
Y43363D01*
X284816Y42575D02*
Y44937D01*
X283635D01*
X283241Y44543D01*
Y43756D01*
X283635Y43363D01*
X284816D01*
X282454Y45331D02*
X282061Y45724D01*
X281273D01*
X280880Y45331D01*
Y44937D01*
X281273Y44543D01*
X281667D01*
X281273D01*
X280880Y44150D01*
Y43756D01*
X281273Y43363D01*
X282061D01*
X282454Y43756D01*
X278518Y43363D02*
X280093D01*
X278518Y44937D01*
Y45331D01*
X278912Y45724D01*
X279699D01*
X280093Y45331D01*
X350126Y45724D02*
Y43756D01*
X349732Y43363D01*
X348945D01*
X348552Y43756D01*
Y45724D01*
X347765Y43363D02*
X346977D01*
X347371D01*
Y45724D01*
X347765Y45331D01*
X345797Y42969D02*
X344222D01*
X343435Y45724D02*
Y43756D01*
X343042Y43363D01*
X342255D01*
X341861Y43756D01*
Y45724D01*
X341074Y42969D02*
X339500D01*
X338319Y44937D02*
X337532D01*
X337138Y44543D01*
Y43363D01*
X338319D01*
X338712Y43756D01*
X338319Y44150D01*
X337138D01*
X336351Y43363D02*
Y44937D01*
X335957D01*
X335564Y44543D01*
Y43363D01*
Y44543D01*
X335170Y44937D01*
X334777Y44543D01*
Y43363D01*
X333990Y42575D02*
Y44937D01*
X332809D01*
X332415Y44543D01*
Y43756D01*
X332809Y43363D01*
X333990D01*
X331628Y45331D02*
X331235Y45724D01*
X330447D01*
X330054Y45331D01*
Y44937D01*
X330447Y44543D01*
X330841D01*
X330447D01*
X330054Y44150D01*
Y43756D01*
X330447Y43363D01*
X331235D01*
X331628Y43756D01*
X329267Y43363D02*
X328480D01*
X328873D01*
Y45724D01*
X329267Y45331D01*
X-296985Y194673D02*
Y192705D01*
X-297378Y192311D01*
X-298166D01*
X-298559Y192705D01*
Y194673D01*
X-299346Y192311D02*
X-300133D01*
X-299740D01*
Y194673D01*
X-299346Y194279D01*
X-301314Y191918D02*
X-302888D01*
X-303676Y194673D02*
Y192705D01*
X-304069Y192311D01*
X-304856D01*
X-305250Y192705D01*
Y194673D01*
X-306037Y191918D02*
X-307611D01*
X-308792Y193886D02*
X-309579D01*
X-309973Y193492D01*
Y192311D01*
X-308792D01*
X-308399Y192705D01*
X-308792Y193099D01*
X-309973D01*
X-310760Y192311D02*
Y193886D01*
X-311154D01*
X-311547Y193492D01*
Y192311D01*
Y193492D01*
X-311941Y193886D01*
X-312334Y193492D01*
Y192311D01*
X-313122Y191524D02*
Y193886D01*
X-314302D01*
X-314696Y193492D01*
Y192705D01*
X-314302Y192311D01*
X-313122D01*
X-315483Y194279D02*
X-315877Y194673D01*
X-316664D01*
X-317057Y194279D01*
Y193886D01*
X-316664Y193492D01*
X-316270D01*
X-316664D01*
X-317057Y193099D01*
Y192705D01*
X-316664Y192311D01*
X-315877D01*
X-315483Y192705D01*
X-317844Y194279D02*
X-318238Y194673D01*
X-319025D01*
X-319419Y194279D01*
Y192705D01*
X-319025Y192311D01*
X-318238D01*
X-317844Y192705D01*
Y194279D01*
X-251748Y194673D02*
Y192705D01*
X-252141Y192311D01*
X-252929D01*
X-253322Y192705D01*
Y194673D01*
X-254109Y192311D02*
X-254896D01*
X-254503D01*
Y194673D01*
X-254109Y194279D01*
X-256077Y191918D02*
X-257651D01*
X-258439Y194673D02*
Y192705D01*
X-258832Y192311D01*
X-259619D01*
X-260013Y192705D01*
Y194673D01*
X-260800Y191918D02*
X-262374D01*
X-263555Y193886D02*
X-264342D01*
X-264736Y193492D01*
Y192311D01*
X-263555D01*
X-263162Y192705D01*
X-263555Y193099D01*
X-264736D01*
X-265523Y192311D02*
Y193886D01*
X-265917D01*
X-266310Y193492D01*
Y192311D01*
Y193492D01*
X-266704Y193886D01*
X-267097Y193492D01*
Y192311D01*
X-267884Y191524D02*
Y193886D01*
X-269065D01*
X-269459Y193492D01*
Y192705D01*
X-269065Y192311D01*
X-267884D01*
X-271820D02*
X-270246D01*
X-271820Y193886D01*
Y194279D01*
X-271427Y194673D01*
X-270639D01*
X-270246Y194279D01*
X-272607Y192705D02*
X-273001Y192311D01*
X-273788D01*
X-274182Y192705D01*
Y194279D01*
X-273788Y194673D01*
X-273001D01*
X-272607Y194279D01*
Y193886D01*
X-273001Y193492D01*
X-274182D01*
X-206511Y194673D02*
Y192705D01*
X-206905Y192311D01*
X-207692D01*
X-208085Y192705D01*
Y194673D01*
X-208872Y192311D02*
X-209660D01*
X-209266D01*
Y194673D01*
X-208872Y194279D01*
X-210840Y191918D02*
X-212415D01*
X-213202Y194673D02*
Y192705D01*
X-213595Y192311D01*
X-214382D01*
X-214776Y192705D01*
Y194673D01*
X-215563Y191918D02*
X-217137D01*
X-218318Y193886D02*
X-219105D01*
X-219499Y193492D01*
Y192311D01*
X-218318D01*
X-217924Y192705D01*
X-218318Y193099D01*
X-219499D01*
X-220286Y192311D02*
Y193886D01*
X-220680D01*
X-221073Y193492D01*
Y192311D01*
Y193492D01*
X-221467Y193886D01*
X-221860Y193492D01*
Y192311D01*
X-222647Y191524D02*
Y193886D01*
X-223828D01*
X-224222Y193492D01*
Y192705D01*
X-223828Y192311D01*
X-222647D01*
X-226583D02*
X-225009D01*
X-226583Y193886D01*
Y194279D01*
X-226190Y194673D01*
X-225402D01*
X-225009Y194279D01*
X-227370D02*
X-227764Y194673D01*
X-228551D01*
X-228945Y194279D01*
Y193886D01*
X-228551Y193492D01*
X-228945Y193099D01*
Y192705D01*
X-228551Y192311D01*
X-227764D01*
X-227370Y192705D01*
Y193099D01*
X-227764Y193492D01*
X-227370Y193886D01*
Y194279D01*
X-227764Y193492D02*
X-228551D01*
X-161274Y194673D02*
Y192705D01*
X-161668Y192311D01*
X-162455D01*
X-162848Y192705D01*
Y194673D01*
X-163635Y192311D02*
X-164423D01*
X-164029D01*
Y194673D01*
X-163635Y194279D01*
X-165603Y191918D02*
X-167177D01*
X-167965Y194673D02*
Y192705D01*
X-168358Y192311D01*
X-169145D01*
X-169539Y192705D01*
Y194673D01*
X-170326Y191918D02*
X-171900D01*
X-173081Y193886D02*
X-173868D01*
X-174262Y193492D01*
Y192311D01*
X-173081D01*
X-172687Y192705D01*
X-173081Y193099D01*
X-174262D01*
X-175049Y192311D02*
Y193886D01*
X-175443D01*
X-175836Y193492D01*
Y192311D01*
Y193492D01*
X-176230Y193886D01*
X-176623Y193492D01*
Y192311D01*
X-177410Y191524D02*
Y193886D01*
X-178591D01*
X-178985Y193492D01*
Y192705D01*
X-178591Y192311D01*
X-177410D01*
X-181346D02*
X-179772D01*
X-181346Y193886D01*
Y194279D01*
X-180953Y194673D01*
X-180165D01*
X-179772Y194279D01*
X-182133Y194673D02*
X-183708D01*
Y194279D01*
X-182133Y192705D01*
Y192311D01*
X-116037Y194673D02*
Y192705D01*
X-116430Y192311D01*
X-117218D01*
X-117611Y192705D01*
Y194673D01*
X-118398Y192311D02*
X-119185D01*
X-118792D01*
Y194673D01*
X-118398Y194279D01*
X-120366Y191918D02*
X-121941D01*
X-122728Y194673D02*
Y192705D01*
X-123121Y192311D01*
X-123908D01*
X-124302Y192705D01*
Y194673D01*
X-125089Y191918D02*
X-126663D01*
X-127844Y193886D02*
X-128631D01*
X-129025Y193492D01*
Y192311D01*
X-127844D01*
X-127451Y192705D01*
X-127844Y193099D01*
X-129025D01*
X-129812Y192311D02*
Y193886D01*
X-130206D01*
X-130599Y193492D01*
Y192311D01*
Y193492D01*
X-130993Y193886D01*
X-131386Y193492D01*
Y192311D01*
X-132173Y191524D02*
Y193886D01*
X-133354D01*
X-133748Y193492D01*
Y192705D01*
X-133354Y192311D01*
X-132173D01*
X-136109D02*
X-134535D01*
X-136109Y193886D01*
Y194279D01*
X-135716Y194673D01*
X-134928D01*
X-134535Y194279D01*
X-138471Y194673D02*
X-137683Y194279D01*
X-136896Y193492D01*
Y192705D01*
X-137290Y192311D01*
X-138077D01*
X-138471Y192705D01*
Y193099D01*
X-138077Y193492D01*
X-136896D01*
X-70800Y194673D02*
Y192705D01*
X-71193Y192311D01*
X-71981D01*
X-72374Y192705D01*
Y194673D01*
X-73161Y192311D02*
X-73949D01*
X-73555D01*
Y194673D01*
X-73161Y194279D01*
X-75129Y191918D02*
X-76704D01*
X-77491Y194673D02*
Y192705D01*
X-77884Y192311D01*
X-78671D01*
X-79065Y192705D01*
Y194673D01*
X-79852Y191918D02*
X-81426D01*
X-82607Y193886D02*
X-83394D01*
X-83788Y193492D01*
Y192311D01*
X-82607D01*
X-82213Y192705D01*
X-82607Y193099D01*
X-83788D01*
X-84575Y192311D02*
Y193886D01*
X-84969D01*
X-85362Y193492D01*
Y192311D01*
Y193492D01*
X-85756Y193886D01*
X-86149Y193492D01*
Y192311D01*
X-86936Y191524D02*
Y193886D01*
X-88117D01*
X-88511Y193492D01*
Y192705D01*
X-88117Y192311D01*
X-86936D01*
X-90872D02*
X-89298D01*
X-90872Y193886D01*
Y194279D01*
X-90479Y194673D01*
X-89691D01*
X-89298Y194279D01*
X-93234Y194673D02*
X-91659D01*
Y193492D01*
X-92446Y193886D01*
X-92840D01*
X-93234Y193492D01*
Y192705D01*
X-92840Y192311D01*
X-92053D01*
X-91659Y192705D01*
X-25563Y194673D02*
Y192705D01*
X-25956Y192311D01*
X-26744D01*
X-27137Y192705D01*
Y194673D01*
X-27924Y192311D02*
X-28712D01*
X-28318D01*
Y194673D01*
X-27924Y194279D01*
X-29892Y191918D02*
X-31466D01*
X-32254Y194673D02*
Y192705D01*
X-32647Y192311D01*
X-33434D01*
X-33828Y192705D01*
Y194673D01*
X-34615Y191918D02*
X-36189D01*
X-37370Y193886D02*
X-38157D01*
X-38551Y193492D01*
Y192311D01*
X-37370D01*
X-36977Y192705D01*
X-37370Y193099D01*
X-38551D01*
X-39338Y192311D02*
Y193886D01*
X-39731D01*
X-40125Y193492D01*
Y192311D01*
Y193492D01*
X-40519Y193886D01*
X-40912Y193492D01*
Y192311D01*
X-41699Y191524D02*
Y193886D01*
X-42880D01*
X-43274Y193492D01*
Y192705D01*
X-42880Y192311D01*
X-41699D01*
X-45635D02*
X-44061D01*
X-45635Y193886D01*
Y194279D01*
X-45242Y194673D01*
X-44454D01*
X-44061Y194279D01*
X-47603Y192311D02*
Y194673D01*
X-46422Y193492D01*
X-47997D01*
X-337705Y316066D02*
Y314098D01*
X-338099Y313704D01*
X-338886D01*
X-339279Y314098D01*
Y316066D01*
X-340067Y313704D02*
X-340854D01*
X-340460D01*
Y316066D01*
X-340067Y315672D01*
X-342034Y313311D02*
X-343609D01*
X-344396Y316066D02*
Y314098D01*
X-344789Y313704D01*
X-345577D01*
X-345970Y314098D01*
Y316066D01*
X-346757Y313311D02*
X-348331D01*
X-349512Y315279D02*
X-350299D01*
X-350693Y314885D01*
Y313704D01*
X-349512D01*
X-349119Y314098D01*
X-349512Y314492D01*
X-350693D01*
X-351480Y313704D02*
Y315279D01*
X-351874D01*
X-352267Y314885D01*
Y313704D01*
Y314885D01*
X-352661Y315279D01*
X-353054Y314885D01*
Y313704D01*
X-353842Y312917D02*
Y315279D01*
X-355022D01*
X-355416Y314885D01*
Y314098D01*
X-355022Y313704D01*
X-353842D01*
X-357777D02*
X-356203D01*
X-357777Y315279D01*
Y315672D01*
X-357384Y316066D01*
X-356597D01*
X-356203Y315672D01*
X-358564D02*
X-358958Y316066D01*
X-359745D01*
X-360139Y315672D01*
Y315279D01*
X-359745Y314885D01*
X-359352D01*
X-359745D01*
X-360139Y314492D01*
Y314098D01*
X-359745Y313704D01*
X-358958D01*
X-358564Y314098D01*
X19027Y174571D02*
Y172603D01*
X18634Y172209D01*
X17847D01*
X17453Y172603D01*
Y174571D01*
X16666Y172209D02*
X15879D01*
X16273D01*
Y174571D01*
X16666Y174177D01*
X14698Y171816D02*
X13124D01*
X12337Y174571D02*
Y172603D01*
X11943Y172209D01*
X11156D01*
X10763Y172603D01*
Y174571D01*
X9975Y171816D02*
X8401D01*
X7220Y173783D02*
X6433D01*
X6040Y173390D01*
Y172209D01*
X7220D01*
X7614Y172603D01*
X7220Y172996D01*
X6040D01*
X5252Y172209D02*
Y173783D01*
X4859D01*
X4465Y173390D01*
Y172209D01*
Y173390D01*
X4072Y173783D01*
X3678Y173390D01*
Y172209D01*
X2891Y171422D02*
Y173783D01*
X1710D01*
X1317Y173390D01*
Y172603D01*
X1710Y172209D01*
X2891D01*
X-1045D02*
X530D01*
X-1045Y173783D01*
Y174177D01*
X-651Y174571D01*
X136D01*
X530Y174177D01*
X-3406Y172209D02*
X-1832D01*
X-3406Y173783D01*
Y174177D01*
X-3013Y174571D01*
X-2225D01*
X-1832Y174177D01*
X64265Y174571D02*
Y172603D01*
X63871Y172209D01*
X63084D01*
X62690Y172603D01*
Y174571D01*
X61903Y172209D02*
X61116D01*
X61510D01*
Y174571D01*
X61903Y174177D01*
X59935Y171816D02*
X58361D01*
X57574Y174571D02*
Y172603D01*
X57180Y172209D01*
X56393D01*
X55999Y172603D01*
Y174571D01*
X55212Y171816D02*
X53638D01*
X52457Y173783D02*
X51670D01*
X51277Y173390D01*
Y172209D01*
X52457D01*
X52851Y172603D01*
X52457Y172996D01*
X51277D01*
X50489Y172209D02*
Y173783D01*
X50096D01*
X49702Y173390D01*
Y172209D01*
Y173390D01*
X49309Y173783D01*
X48915Y173390D01*
Y172209D01*
X48128Y171422D02*
Y173783D01*
X46947D01*
X46554Y173390D01*
Y172603D01*
X46947Y172209D01*
X48128D01*
X44192D02*
X45767D01*
X44192Y173783D01*
Y174177D01*
X44586Y174571D01*
X45373D01*
X45767Y174177D01*
X43405Y172209D02*
X42618D01*
X43012D01*
Y174571D01*
X43405Y174177D01*
X109502Y174571D02*
Y172603D01*
X109108Y172209D01*
X108321D01*
X107927Y172603D01*
Y174571D01*
X107140Y172209D02*
X106353D01*
X106747D01*
Y174571D01*
X107140Y174177D01*
X105172Y171816D02*
X103598D01*
X102811Y174571D02*
Y172603D01*
X102417Y172209D01*
X101630D01*
X101236Y172603D01*
Y174571D01*
X100449Y171816D02*
X98875D01*
X97694Y173783D02*
X96907D01*
X96514Y173390D01*
Y172209D01*
X97694D01*
X98088Y172603D01*
X97694Y172996D01*
X96514D01*
X95727Y172209D02*
Y173783D01*
X95333D01*
X94939Y173390D01*
Y172209D01*
Y173390D01*
X94546Y173783D01*
X94152Y173390D01*
Y172209D01*
X93365Y171422D02*
Y173783D01*
X92184D01*
X91791Y173390D01*
Y172603D01*
X92184Y172209D01*
X93365D01*
X89429D02*
X91004D01*
X89429Y173783D01*
Y174177D01*
X89823Y174571D01*
X90610D01*
X91004Y174177D01*
X88642D02*
X88249Y174571D01*
X87462D01*
X87068Y174177D01*
Y172603D01*
X87462Y172209D01*
X88249D01*
X88642Y172603D01*
Y174177D01*
X154739Y174571D02*
Y172603D01*
X154345Y172209D01*
X153558D01*
X153164Y172603D01*
Y174571D01*
X152377Y172209D02*
X151590D01*
X151984D01*
Y174571D01*
X152377Y174177D01*
X150409Y171816D02*
X148835D01*
X148048Y174571D02*
Y172603D01*
X147654Y172209D01*
X146867D01*
X146474Y172603D01*
Y174571D01*
X145686Y171816D02*
X144112D01*
X142931Y173783D02*
X142144D01*
X141751Y173390D01*
Y172209D01*
X142931D01*
X143325Y172603D01*
X142931Y172996D01*
X141751D01*
X140963Y172209D02*
Y173783D01*
X140570D01*
X140176Y173390D01*
Y172209D01*
Y173390D01*
X139783Y173783D01*
X139389Y173390D01*
Y172209D01*
X138602Y171422D02*
Y173783D01*
X137421D01*
X137028Y173390D01*
Y172603D01*
X137421Y172209D01*
X138602D01*
X136241D02*
X135453D01*
X135847D01*
Y174571D01*
X136241Y174177D01*
X134273Y172603D02*
X133879Y172209D01*
X133092D01*
X132699Y172603D01*
Y174177D01*
X133092Y174571D01*
X133879D01*
X134273Y174177D01*
Y173783D01*
X133879Y173390D01*
X132699D01*
X199976Y174571D02*
Y172603D01*
X199582Y172209D01*
X198795D01*
X198401Y172603D01*
Y174571D01*
X197614Y172209D02*
X196827D01*
X197221D01*
Y174571D01*
X197614Y174177D01*
X195646Y171816D02*
X194072D01*
X193285Y174571D02*
Y172603D01*
X192891Y172209D01*
X192104D01*
X191710Y172603D01*
Y174571D01*
X190923Y171816D02*
X189349D01*
X188168Y173783D02*
X187381D01*
X186988Y173390D01*
Y172209D01*
X188168D01*
X188562Y172603D01*
X188168Y172996D01*
X186988D01*
X186200Y172209D02*
Y173783D01*
X185807D01*
X185413Y173390D01*
Y172209D01*
Y173390D01*
X185020Y173783D01*
X184626Y173390D01*
Y172209D01*
X183839Y171422D02*
Y173783D01*
X182658D01*
X182265Y173390D01*
Y172603D01*
X182658Y172209D01*
X183839D01*
X181478D02*
X180691D01*
X181084D01*
Y174571D01*
X181478Y174177D01*
X179510D02*
X179116Y174571D01*
X178329D01*
X177936Y174177D01*
Y173783D01*
X178329Y173390D01*
X177936Y172996D01*
Y172603D01*
X178329Y172209D01*
X179116D01*
X179510Y172603D01*
Y172996D01*
X179116Y173390D01*
X179510Y173783D01*
Y174177D01*
X179116Y173390D02*
X178329D01*
X245213Y174571D02*
Y172603D01*
X244819Y172209D01*
X244032D01*
X243638Y172603D01*
Y174571D01*
X242851Y172209D02*
X242064D01*
X242458D01*
Y174571D01*
X242851Y174177D01*
X240883Y171816D02*
X239309D01*
X238522Y174571D02*
Y172603D01*
X238128Y172209D01*
X237341D01*
X236948Y172603D01*
Y174571D01*
X236160Y171816D02*
X234586D01*
X233405Y173783D02*
X232618D01*
X232225Y173390D01*
Y172209D01*
X233405D01*
X233799Y172603D01*
X233405Y172996D01*
X232225D01*
X231437Y172209D02*
Y173783D01*
X231044D01*
X230650Y173390D01*
Y172209D01*
Y173390D01*
X230257Y173783D01*
X229863Y173390D01*
Y172209D01*
X229076Y171422D02*
Y173783D01*
X227895D01*
X227502Y173390D01*
Y172603D01*
X227895Y172209D01*
X229076D01*
X226715D02*
X225927D01*
X226321D01*
Y174571D01*
X226715Y174177D01*
X224747Y174571D02*
X223172D01*
Y174177D01*
X224747Y172603D01*
Y172209D01*
X290450Y174571D02*
Y172603D01*
X290056Y172209D01*
X289269D01*
X288875Y172603D01*
Y174571D01*
X288088Y172209D02*
X287301D01*
X287695D01*
Y174571D01*
X288088Y174177D01*
X286120Y171816D02*
X284546D01*
X283759Y174571D02*
Y172603D01*
X283365Y172209D01*
X282578D01*
X282185Y172603D01*
Y174571D01*
X281397Y171816D02*
X279823D01*
X278642Y173783D02*
X277855D01*
X277462Y173390D01*
Y172209D01*
X278642D01*
X279036Y172603D01*
X278642Y172996D01*
X277462D01*
X276675Y172209D02*
Y173783D01*
X276281D01*
X275887Y173390D01*
Y172209D01*
Y173390D01*
X275494Y173783D01*
X275100Y173390D01*
Y172209D01*
X274313Y171422D02*
Y173783D01*
X273132D01*
X272739Y173390D01*
Y172603D01*
X273132Y172209D01*
X274313D01*
X271952D02*
X271164D01*
X271558D01*
Y174571D01*
X271952Y174177D01*
X268409Y174571D02*
X269197Y174177D01*
X269984Y173390D01*
Y172603D01*
X269590Y172209D01*
X268803D01*
X268409Y172603D01*
Y172996D01*
X268803Y173390D01*
X269984D01*
X335324Y174741D02*
Y172774D01*
X334931Y172380D01*
X334144D01*
X333750Y172774D01*
Y174741D01*
X332963Y172380D02*
X332176D01*
X332569D01*
Y174741D01*
X332963Y174348D01*
X330995Y171986D02*
X329421D01*
X328634Y174741D02*
Y172774D01*
X328240Y172380D01*
X327453D01*
X327059Y172774D01*
Y174741D01*
X326272Y171986D02*
X324698D01*
X323517Y173954D02*
X322730D01*
X322337Y173561D01*
Y172380D01*
X323517D01*
X323911Y172774D01*
X323517Y173167D01*
X322337D01*
X321549Y172380D02*
Y173954D01*
X321156D01*
X320762Y173561D01*
Y172380D01*
Y173561D01*
X320369Y173954D01*
X319975Y173561D01*
Y172380D01*
X319188Y171593D02*
Y173954D01*
X318007D01*
X317614Y173561D01*
Y172774D01*
X318007Y172380D01*
X319188D01*
X316827D02*
X316039D01*
X316433D01*
Y174741D01*
X316827Y174348D01*
X313284Y174741D02*
X314859D01*
Y173561D01*
X314071Y173954D01*
X313678D01*
X313284Y173561D01*
Y172774D01*
X313678Y172380D01*
X314465D01*
X314859Y172774D01*
X-288536Y316146D02*
Y314178D01*
X-288930Y313785D01*
X-289717D01*
X-290110Y314178D01*
Y316146D01*
X-290898Y313785D02*
X-291685D01*
X-291291D01*
Y316146D01*
X-290898Y315753D01*
X-292865Y313391D02*
X-294440D01*
X-295227Y316146D02*
Y314178D01*
X-295620Y313785D01*
X-296408D01*
X-296801Y314178D01*
Y316146D01*
X-297588Y313391D02*
X-299163D01*
X-300343Y315359D02*
X-301131D01*
X-301524Y314965D01*
Y313785D01*
X-300343D01*
X-299950Y314178D01*
X-300343Y314572D01*
X-301524D01*
X-302311Y313785D02*
Y315359D01*
X-302705D01*
X-303098Y314965D01*
Y313785D01*
Y314965D01*
X-303492Y315359D01*
X-303886Y314965D01*
Y313785D01*
X-304673Y312998D02*
Y315359D01*
X-305853D01*
X-306247Y314965D01*
Y314178D01*
X-305853Y313785D01*
X-304673D01*
X-307034D02*
X-307821D01*
X-307428D01*
Y316146D01*
X-307034Y315753D01*
X-310183Y313785D02*
Y316146D01*
X-309002Y314965D01*
X-310576D01*
X-239362Y316146D02*
Y314178D01*
X-239756Y313785D01*
X-240543D01*
X-240936Y314178D01*
Y316146D01*
X-241724Y313785D02*
X-242511D01*
X-242117D01*
Y316146D01*
X-241724Y315753D01*
X-243691Y313391D02*
X-245266D01*
X-246053Y316146D02*
Y314178D01*
X-246446Y313785D01*
X-247234D01*
X-247627Y314178D01*
Y316146D01*
X-248414Y313391D02*
X-249989D01*
X-251169Y315359D02*
X-251957D01*
X-252350Y314965D01*
Y313785D01*
X-251169D01*
X-250776Y314178D01*
X-251169Y314572D01*
X-252350D01*
X-253137Y313785D02*
Y315359D01*
X-253531D01*
X-253924Y314965D01*
Y313785D01*
Y314965D01*
X-254318Y315359D01*
X-254712Y314965D01*
Y313785D01*
X-255499Y312998D02*
Y315359D01*
X-256679D01*
X-257073Y314965D01*
Y314178D01*
X-256679Y313785D01*
X-255499D01*
X-257860D02*
X-258647D01*
X-258254D01*
Y316146D01*
X-257860Y315753D01*
X-259828D02*
X-260222Y316146D01*
X-261009D01*
X-261402Y315753D01*
Y315359D01*
X-261009Y314965D01*
X-260615D01*
X-261009D01*
X-261402Y314572D01*
Y314178D01*
X-261009Y313785D01*
X-260222D01*
X-259828Y314178D01*
X-190188Y316146D02*
Y314178D01*
X-190582Y313785D01*
X-191369D01*
X-191762Y314178D01*
Y316146D01*
X-192550Y313785D02*
X-193337D01*
X-192943D01*
Y316146D01*
X-192550Y315753D01*
X-194518Y313391D02*
X-196092D01*
X-196879Y316146D02*
Y314178D01*
X-197273Y313785D01*
X-198060D01*
X-198453Y314178D01*
Y316146D01*
X-199240Y313391D02*
X-200815D01*
X-201995Y315359D02*
X-202783D01*
X-203176Y314965D01*
Y313785D01*
X-201995D01*
X-201602Y314178D01*
X-201995Y314572D01*
X-203176D01*
X-203963Y313785D02*
Y315359D01*
X-204357D01*
X-204750Y314965D01*
Y313785D01*
Y314965D01*
X-205144Y315359D01*
X-205538Y314965D01*
Y313785D01*
X-206325Y312998D02*
Y315359D01*
X-207505D01*
X-207899Y314965D01*
Y314178D01*
X-207505Y313785D01*
X-206325D01*
X-208686D02*
X-209473D01*
X-209080D01*
Y316146D01*
X-208686Y315753D01*
X-212228Y313785D02*
X-210654D01*
X-212228Y315359D01*
Y315753D01*
X-211835Y316146D01*
X-211048D01*
X-210654Y315753D01*
X-141014Y316146D02*
Y314178D01*
X-141408Y313785D01*
X-142195D01*
X-142588Y314178D01*
Y316146D01*
X-143376Y313785D02*
X-144163D01*
X-143769D01*
Y316146D01*
X-143376Y315753D01*
X-145343Y313391D02*
X-146918D01*
X-147705Y316146D02*
Y314178D01*
X-148099Y313785D01*
X-148886D01*
X-149279Y314178D01*
Y316146D01*
X-150066Y313391D02*
X-151641D01*
X-152821Y315359D02*
X-153609D01*
X-154002Y314965D01*
Y313785D01*
X-152821D01*
X-152428Y314178D01*
X-152821Y314572D01*
X-154002D01*
X-154789Y313785D02*
Y315359D01*
X-155183D01*
X-155576Y314965D01*
Y313785D01*
Y314965D01*
X-155970Y315359D01*
X-156363Y314965D01*
Y313785D01*
X-157151Y312998D02*
Y315359D01*
X-158331D01*
X-158725Y314965D01*
Y314178D01*
X-158331Y313785D01*
X-157151D01*
X-159512D02*
X-160299D01*
X-159906D01*
Y316146D01*
X-159512Y315753D01*
X-161480Y313785D02*
X-162267D01*
X-161873D01*
Y316146D01*
X-161480Y315753D01*
X-91840Y316146D02*
Y314178D01*
X-92234Y313785D01*
X-93021D01*
X-93414Y314178D01*
Y316146D01*
X-94202Y313785D02*
X-94989D01*
X-94595D01*
Y316146D01*
X-94202Y315753D01*
X-96169Y313391D02*
X-97744D01*
X-98531Y316146D02*
Y314178D01*
X-98924Y313785D01*
X-99712D01*
X-100105Y314178D01*
Y316146D01*
X-100892Y313391D02*
X-102467D01*
X-103647Y315359D02*
X-104435D01*
X-104828Y314965D01*
Y313785D01*
X-103647D01*
X-103254Y314178D01*
X-103647Y314572D01*
X-104828D01*
X-105615Y313785D02*
Y315359D01*
X-106009D01*
X-106402Y314965D01*
Y313785D01*
Y314965D01*
X-106796Y315359D01*
X-107190Y314965D01*
Y313785D01*
X-107977Y312998D02*
Y315359D01*
X-109157D01*
X-109551Y314965D01*
Y314178D01*
X-109157Y313785D01*
X-107977D01*
X-110338D02*
X-111125D01*
X-110732D01*
Y316146D01*
X-110338Y315753D01*
X-112306D02*
X-112699Y316146D01*
X-113487D01*
X-113880Y315753D01*
Y314178D01*
X-113487Y313785D01*
X-112699D01*
X-112306Y314178D01*
Y315753D01*
X-42666Y316146D02*
Y314178D01*
X-43060Y313785D01*
X-43847D01*
X-44240Y314178D01*
Y316146D01*
X-45028Y313785D02*
X-45815D01*
X-45421D01*
Y316146D01*
X-45028Y315753D01*
X-46995Y313391D02*
X-48570D01*
X-49357Y316146D02*
Y314178D01*
X-49750Y313785D01*
X-50538D01*
X-50931Y314178D01*
Y316146D01*
X-51718Y313391D02*
X-53293D01*
X-54473Y315359D02*
X-55260D01*
X-55654Y314965D01*
Y313785D01*
X-54473D01*
X-54080Y314178D01*
X-54473Y314572D01*
X-55654D01*
X-56441Y313785D02*
Y315359D01*
X-56835D01*
X-57228Y314965D01*
Y313785D01*
Y314965D01*
X-57622Y315359D01*
X-58016Y314965D01*
Y313785D01*
X-58803Y312998D02*
Y315359D01*
X-59983D01*
X-60377Y314965D01*
Y314178D01*
X-59983Y313785D01*
X-58803D01*
X-61164Y314178D02*
X-61558Y313785D01*
X-62345D01*
X-62738Y314178D01*
Y315753D01*
X-62345Y316146D01*
X-61558D01*
X-61164Y315753D01*
Y315359D01*
X-61558Y314965D01*
X-62738D01*
X6508Y316146D02*
Y314178D01*
X6114Y313785D01*
X5327D01*
X4934Y314178D01*
Y316146D01*
X4146Y313785D02*
X3359D01*
X3753D01*
Y316146D01*
X4146Y315753D01*
X2179Y313391D02*
X604D01*
X-183Y316146D02*
Y314178D01*
X-576Y313785D01*
X-1364D01*
X-1757Y314178D01*
Y316146D01*
X-2544Y313391D02*
X-4119D01*
X-5299Y315359D02*
X-6086D01*
X-6480Y314965D01*
Y313785D01*
X-5299D01*
X-4906Y314178D01*
X-5299Y314572D01*
X-6480D01*
X-7267Y313785D02*
Y315359D01*
X-7661D01*
X-8054Y314965D01*
Y313785D01*
Y314965D01*
X-8448Y315359D01*
X-8841Y314965D01*
Y313785D01*
X-9629Y312998D02*
Y315359D01*
X-10809D01*
X-11203Y314965D01*
Y314178D01*
X-10809Y313785D01*
X-9629D01*
X-11990Y315753D02*
X-12384Y316146D01*
X-13171D01*
X-13564Y315753D01*
Y315359D01*
X-13171Y314965D01*
X-13564Y314572D01*
Y314178D01*
X-13171Y313785D01*
X-12384D01*
X-11990Y314178D01*
Y314572D01*
X-12384Y314965D01*
X-11990Y315359D01*
Y315753D01*
X-12384Y314965D02*
X-13171D01*
X55682Y316146D02*
Y314178D01*
X55288Y313785D01*
X54501D01*
X54108Y314178D01*
Y316146D01*
X53320Y313785D02*
X52533D01*
X52927D01*
Y316146D01*
X53320Y315753D01*
X51353Y313391D02*
X49778D01*
X48991Y316146D02*
Y314178D01*
X48598Y313785D01*
X47811D01*
X47417Y314178D01*
Y316146D01*
X46630Y313391D02*
X45055D01*
X43875Y315359D02*
X43088D01*
X42694Y314965D01*
Y313785D01*
X43875D01*
X44268Y314178D01*
X43875Y314572D01*
X42694D01*
X41907Y313785D02*
Y315359D01*
X41513D01*
X41120Y314965D01*
Y313785D01*
Y314965D01*
X40726Y315359D01*
X40333Y314965D01*
Y313785D01*
X39545Y312998D02*
Y315359D01*
X38365D01*
X37971Y314965D01*
Y314178D01*
X38365Y313785D01*
X39545D01*
X37184Y316146D02*
X35610D01*
Y315753D01*
X37184Y314178D01*
Y313785D01*
X104856Y316146D02*
Y314178D01*
X104462Y313785D01*
X103675D01*
X103282Y314178D01*
Y316146D01*
X102495Y313785D02*
X101707D01*
X102101D01*
Y316146D01*
X102495Y315753D01*
X100527Y313391D02*
X98952D01*
X98165Y316146D02*
Y314178D01*
X97772Y313785D01*
X96984D01*
X96591Y314178D01*
Y316146D01*
X95804Y313391D02*
X94230D01*
X93049Y315359D02*
X92262D01*
X91868Y314965D01*
Y313785D01*
X93049D01*
X93442Y314178D01*
X93049Y314572D01*
X91868D01*
X91081Y313785D02*
Y315359D01*
X90687D01*
X90294Y314965D01*
Y313785D01*
Y314965D01*
X89900Y315359D01*
X89507Y314965D01*
Y313785D01*
X88719Y312998D02*
Y315359D01*
X87539D01*
X87145Y314965D01*
Y314178D01*
X87539Y313785D01*
X88719D01*
X84784Y316146D02*
X85571Y315753D01*
X86358Y314965D01*
Y314178D01*
X85964Y313785D01*
X85177D01*
X84784Y314178D01*
Y314572D01*
X85177Y314965D01*
X86358D01*
X154030Y316146D02*
Y314178D01*
X153636Y313785D01*
X152849D01*
X152456Y314178D01*
Y316146D01*
X151669Y313785D02*
X150881D01*
X151275D01*
Y316146D01*
X151669Y315753D01*
X149701Y313391D02*
X148126D01*
X147339Y316146D02*
Y314178D01*
X146946Y313785D01*
X146159D01*
X145765Y314178D01*
Y316146D01*
X144978Y313391D02*
X143403D01*
X142223Y315359D02*
X141436D01*
X141042Y314965D01*
Y313785D01*
X142223D01*
X142616Y314178D01*
X142223Y314572D01*
X141042D01*
X140255Y313785D02*
Y315359D01*
X139861D01*
X139468Y314965D01*
Y313785D01*
Y314965D01*
X139074Y315359D01*
X138681Y314965D01*
Y313785D01*
X137893Y312998D02*
Y315359D01*
X136713D01*
X136319Y314965D01*
Y314178D01*
X136713Y313785D01*
X137893D01*
X133958Y316146D02*
X135532D01*
Y314965D01*
X134745Y315359D01*
X134351D01*
X133958Y314965D01*
Y314178D01*
X134351Y313785D01*
X135138D01*
X135532Y314178D01*
X203204Y316146D02*
Y314178D01*
X202810Y313785D01*
X202023D01*
X201630Y314178D01*
Y316146D01*
X200842Y313785D02*
X200055D01*
X200449D01*
Y316146D01*
X200842Y315753D01*
X198875Y313391D02*
X197300D01*
X196513Y316146D02*
Y314178D01*
X196120Y313785D01*
X195333D01*
X194939Y314178D01*
Y316146D01*
X194152Y313391D02*
X192578D01*
X191397Y315359D02*
X190610D01*
X190216Y314965D01*
Y313785D01*
X191397D01*
X191790Y314178D01*
X191397Y314572D01*
X190216D01*
X189429Y313785D02*
Y315359D01*
X189035D01*
X188642Y314965D01*
Y313785D01*
Y314965D01*
X188248Y315359D01*
X187855Y314965D01*
Y313785D01*
X187067Y312998D02*
Y315359D01*
X185887D01*
X185493Y314965D01*
Y314178D01*
X185887Y313785D01*
X187067D01*
X183525D02*
Y316146D01*
X184706Y314965D01*
X183132D01*
X252378Y316146D02*
Y314178D01*
X251984Y313785D01*
X251197D01*
X250804Y314178D01*
Y316146D01*
X250017Y313785D02*
X249229D01*
X249623D01*
Y316146D01*
X250017Y315753D01*
X248049Y313391D02*
X246474D01*
X245687Y316146D02*
Y314178D01*
X245294Y313785D01*
X244507D01*
X244113Y314178D01*
Y316146D01*
X243326Y313391D02*
X241752D01*
X240571Y315359D02*
X239784D01*
X239390Y314965D01*
Y313785D01*
X240571D01*
X240964Y314178D01*
X240571Y314572D01*
X239390D01*
X238603Y313785D02*
Y315359D01*
X238209D01*
X237816Y314965D01*
Y313785D01*
Y314965D01*
X237422Y315359D01*
X237029Y314965D01*
Y313785D01*
X236242Y312998D02*
Y315359D01*
X235061D01*
X234667Y314965D01*
Y314178D01*
X235061Y313785D01*
X236242D01*
X233880Y315753D02*
X233487Y316146D01*
X232699D01*
X232306Y315753D01*
Y315359D01*
X232699Y314965D01*
X233093D01*
X232699D01*
X232306Y314572D01*
Y314178D01*
X232699Y313785D01*
X233487D01*
X233880Y314178D01*
X301552Y316146D02*
Y314178D01*
X301158Y313785D01*
X300371D01*
X299978Y314178D01*
Y316146D01*
X299191Y313785D02*
X298403D01*
X298797D01*
Y316146D01*
X299191Y315753D01*
X297223Y313391D02*
X295648D01*
X294861Y316146D02*
Y314178D01*
X294468Y313785D01*
X293681D01*
X293287Y314178D01*
Y316146D01*
X292500Y313391D02*
X290926D01*
X289745Y315359D02*
X288958D01*
X288564Y314965D01*
Y313785D01*
X289745D01*
X290138Y314178D01*
X289745Y314572D01*
X288564D01*
X287777Y313785D02*
Y315359D01*
X287383D01*
X286990Y314965D01*
Y313785D01*
Y314965D01*
X286596Y315359D01*
X286203Y314965D01*
Y313785D01*
X285416Y312998D02*
Y315359D01*
X284235D01*
X283841Y314965D01*
Y314178D01*
X284235Y313785D01*
X285416D01*
X281480D02*
X283054D01*
X281480Y315359D01*
Y315753D01*
X281873Y316146D01*
X282661D01*
X283054Y315753D01*
X350726Y316146D02*
Y314178D01*
X350332Y313785D01*
X349545D01*
X349152Y314178D01*
Y316146D01*
X348365Y313785D02*
X347577D01*
X347971D01*
Y316146D01*
X348365Y315753D01*
X346397Y313391D02*
X344822D01*
X344035Y316146D02*
Y314178D01*
X343642Y313785D01*
X342855D01*
X342461Y314178D01*
Y316146D01*
X341674Y313391D02*
X340100D01*
X338919Y315359D02*
X338132D01*
X337738Y314965D01*
Y313785D01*
X338919D01*
X339312Y314178D01*
X338919Y314572D01*
X337738D01*
X336951Y313785D02*
Y315359D01*
X336557D01*
X336164Y314965D01*
Y313785D01*
Y314965D01*
X335770Y315359D01*
X335377Y314965D01*
Y313785D01*
X334590Y312998D02*
Y315359D01*
X333409D01*
X333015Y314965D01*
Y314178D01*
X333409Y313785D01*
X334590D01*
X332228D02*
X331441D01*
X331835D01*
Y316146D01*
X332228Y315753D01*
M02*
