M48
;Layer_Color=9474304
;FILE_FORMAT=2:5
INCH,TZ
;TYPE=PLATED
T1F00S00C0.01181
T2F00S00C0.03000
T3F00S00C0.03543
T4F00S00C0.12598
%
T01
X-410653Y-410401
X-402779
Y-402528
X-410653
Y-394654
Y-386779
X-379157
X-371283
X-363409
X-355535
X-347661
X-339787
X-331913
X-324039
X-319252Y-389370
X-314075Y-389173
X-309252Y-389370
X-304252
X-299252
X-294252
X-289469Y-389173
X-284252Y-389370
X-279252
X-274252
X-269252
X-264075Y-389173
X-259252Y-389370
X-254252
X-249252
X-244252
X-245299Y-394654
X-244449Y-398031
X-249449
X-254449
X-253173Y-394654
X-261047
X-259449Y-398031
X-264449
X-269449
X-268921Y-394654
X-276795
X-274449Y-398031
X-279449
X-284449
X-284669Y-394654
X-292543
X-294449Y-398031
X-299449
X-300417Y-394654
X-304449Y-398031
X-309449
X-308291Y-394654
X-316165
X-314449Y-398031
X-319449
X-319252Y-404725
X-314252
X-309252
X-304252
X-299252
X-294252
X-289252
X-284252
X-279252
X-274252
X-269252
X-264252
X-259252
X-254252
X-249252
X-244252
X-245299Y-410401
X-253173
X-261047
X-268921
X-276795
X-284669
X-292543
X-300417
X-308291
X-316165
X-324039
Y-402528
Y-394654
X-331913
Y-402528
Y-410401
X-339787
Y-402528
Y-394654
X-347661
Y-402528
Y-410401
X-355535
Y-402528
Y-394654
X-363409
Y-402528
Y-410401
X-371283
Y-402528
Y-394654
X-379157
Y-402528
Y-410401
X-387031
X-394905
X-319449Y-382677
X-314272Y-382480
X-309449Y-382677
X-304449
X-299449
X-294449
X-289665Y-382480
X-284449Y-382677
X-279449
X-274449
X-269449
X-264272Y-382480
X-259449Y-382677
X-254449
X-249449
X-244449
X-289449Y-398031
X-239449
X-234449
X-229449
X-229551Y-394654
X-229252Y-389370
X-234252
X-239469Y-389173
X-239665Y-382480
X-234449Y-382677
X-229449
X-224449
X-219449
X-214272Y-382480
X-209449Y-382677
X-204449
X-199449
X-194449
X-189665Y-382480
X-184449Y-382677
X-179449
X-174449
X-169449
X-164272Y-382480
X-159449Y-382677
X-154449
X-149449
X-144449
X-139665Y-382480
X-134449Y-382677
X-129449
X-124449
X-119449
X-114272Y-382480
X-109449Y-382677
X-104449
X-99449
X-94449
X-89665Y-382480
X-84449Y-382677
X-84252Y-389370
X-89468Y-389173
X-94252Y-389370
X-99252
X-104252
X-109252
X-114075Y-389173
X-119252Y-389370
X-124252
X-129252
X-134252
X-139469Y-389173
X-144252Y-389370
X-149252
X-154252
X-159252
X-164075Y-389173
X-169252Y-389370
X-174252
X-179252
X-184252
X-189469Y-389173
X-194252Y-389370
X-199252
X-204252
X-209252
X-214075Y-389173
X-219252Y-389370
X-224252
X-221677Y-394654
X-219449Y-398031
X-214449
X-213803Y-394654
X-209449Y-398031
X-204449
X-205929Y-394654
X-198055
X-199449Y-398031
X-194449
X-189449
X-190181Y-394654
X-182307
X-184449Y-398031
X-179449
X-174449
X-174433Y-394654
X-166559
X-164449Y-398031
X-169449
X-169252Y-404725
X-164252
X-159252
X-154252
X-149252
X-144252
X-139252
X-134252
X-129252
X-124252
X-119252
X-114252
X-109252
X-104252
X-99252
X-94252
X-89252
X-84252
X-84449Y-398031
X-89449
X-94449
X-95693Y-394654
X-99449Y-398031
X-104449
X-103567Y-394654
X-111441
X-109449Y-398031
X-114449
X-119449
X-119315Y-394654
X-127189
X-129449Y-398031
X-134449
X-135063Y-394654
X-139449Y-398031
X-144449
X-142937Y-394654
X-150811
X-149449Y-398031
X-154449
X-159449
X-158685Y-394654
Y-410401
X-150811
X-142937
X-135063
X-127189
X-119315
X-111441
X-103567
X-95693
X-87819
Y-394654
X-124449Y-398031
X-166559Y-410401
X-174433
X-174252Y-404725
X-179252
X-184252
X-189252
X-194252
X-199252
X-204252
X-209252
X-214252
X-219252
X-224252
X-229252
X-234252
X-239252
X-237425Y-410401
X-229551
X-221677
X-213803
X-205929
X-198055
X-190181
X-182307
X-224449Y-398031
X-237425Y-394654
X-79945
X-79449Y-398031
X-74449
X-72071Y-394654
X-74252Y-389370
X-79252
X-79449Y-382677
X-74449
X-64197Y-386779
X-56323
X-48449
X-40574
X-32700
X-24826
X-16952
X-9078
X-1204
X6670
X14544
X22418
X30292
X38166
X46040
X53914
X61788
X69662
Y-394654
Y-402528
Y-410401
X61788
Y-402528
Y-394654
X53914
Y-402528
Y-410401
X46040
Y-402528
Y-394654
X38166
Y-402528
Y-410401
X30292
Y-402528
Y-394654
X22418
Y-402528
Y-410401
X14544
Y-402528
Y-394654
X6670
Y-402528
Y-410401
X-1204
Y-402528
Y-394654
X-9078
Y-402528
Y-410401
X-16952
Y-402528
Y-394654
X-24826
Y-402528
Y-410401
X-32700
Y-402528
Y-394654
X-40574
Y-402528
Y-410401
X-48449
Y-402528
Y-394654
X-56323
Y-402528
Y-410401
X-64197
Y-402528
Y-394654
X-74252Y-404725
X-79252
X-79945Y-410401
X-72071
X77536
X79449Y-404725
X74449
X74252Y-398031
X79252
X84252
X85410Y-394654
X84449Y-389370
X89449
X94449
X99449
X104232Y-389173
X109449Y-389370
X114449
X119449
X124449
X129626Y-389173
X134449Y-389370
X139449
X144449
X149449
X154232Y-389173
X159449Y-389370
X164449
X169449
X174449
X179626Y-389173
X184449Y-389370
X189449
X194449
X199449
X204232Y-389173
X209449Y-389370
X214449
X219449
X224449
X224252Y-382677
X219252
X214252
X209252
X204035Y-382480
X199252Y-382677
X194252
X189252
X184252
X179429Y-382480
X174252Y-382677
X169252
X164252
X159252
X154035Y-382480
X149252Y-382677
X144252
X139252
X134252
X129429Y-382480
X124252Y-382677
X119252
X114252
X109252
X104035Y-382480
X99252Y-382677
X94252
X89252
X84252
X79429Y-382480
X74252Y-382677
X74449Y-389370
X79626Y-389173
X77536Y-394654
X89252Y-398031
X94252
X93284Y-394654
X101158
X99252Y-398031
X104252
X109252
X109032Y-394654
X116906
X119252Y-398031
X124252
X124780Y-394654
X129252Y-398031
X134252
X132654Y-394654
X140528
X139252Y-398031
X144252
X149252
X148402Y-394654
X156276
X154252Y-398031
X159252
X164252
X164150Y-394654
X172024
X174252Y-398031
X179252
X179898Y-394654
X184252Y-398031
X189252
X187772Y-394654
X195646
X194252Y-398031
X199252
X204252
X203520Y-394654
X211394
X209252Y-398031
X214252
X219252
X219268Y-394654
X227142
X224252Y-398031
X224449Y-404725
X219449
X214449
X209449
X204449
X199449
X194449
X189449
X184449
X179449
X174449
X169449
X164449
X159449
X154449
X149449
X144449
X139449
X134449
X129449
X124449
X119449
X114449
X109449
X104449
X99449
X94449
X89449
X84449
X85410Y-410401
X93284
X101158
X109032
X116906
X124780
X132654
X140528
X148402
X156276
X164150
X172024
X179898
X187772
X195646
X203520
X211394
X219268
X227142
X169252Y-398031
X114252
X229252
X234252
X235016Y-394654
X234449Y-389370
X239449
X244449
X249449
X254232Y-389173
X259449Y-389370
X264449
X269449
X274449
X274386Y-394654
X274252Y-398031
X279252
X284252
X289252
X290134Y-394654
X289449Y-389370
X294449
X299449
X304232Y-389173
X309449Y-389370
X314449
X319449
X319252Y-382677
X314252
X309252
X304035Y-382480
X299252Y-382677
X294252
X289252
X284252
X279429Y-382480
X274252Y-382677
X269252
X264252
X259252
X254035Y-382480
X249252Y-382677
X244252
X239252
X234252
X229429Y-382480
X229626Y-389173
X229449Y-404725
X234449
X239449
X244449
X249449
X254449
X259449
X264449
X269449
X274449
X279449
X284449
X289449
X294449
X299449
X304449
X309449
X314449
X319449
X319252Y-398031
X314252
X313756Y-394654
X321630
X329504
X337378
X345252
X353127
X361000
X368875
X376748
Y-386779
X368875
X361000
X353127
X345252
X337378
X329504
Y-402528
X337378
X345252
X353127
X361000
X368875
X376748
X384623
Y-410401
X376748
X368875
X361000
X353127
X345252
X337378
X329504
X321630
X313756
X305882
X298008
X290134
X282260
X274386
X266512
X258638
X250764
X242890
X235016
X239252Y-398031
X244252
X242890Y-394654
X250764
X249252Y-398031
X254252
X259252
X258638Y-394654
X266512
X264252Y-398031
X269252
X282260Y-394654
X284449Y-389370
X279626Y-389173
X294252Y-398031
X299252
X298008Y-394654
X305882
X304252Y-398031
X309252
X392497Y-410401
X400371
X408245
Y-402528
Y-394654
Y-386779
Y-378905
Y-371031
Y-363157
Y-355283
Y-347409
Y-339535
Y-331661
X400371Y-323787
X404725Y-319252
Y-314252
X398031Y-314449
X392497Y-315913
X389370Y-314252
Y-319252
X392497Y-355283
X400371
Y-378905
X392497
X384623
Y-371031
Y-363157
Y-355283
X379921Y-353346
X376748Y-347409
X372047Y-347441
X368110Y-344488
X365158Y-350394
X368875Y-355283
X376748Y-363157
Y-371031
Y-378905
X368875
Y-371031
X361000
Y-378905
X353127
Y-371031
X345252
Y-378905
X337378
Y-371031
X329504
Y-363157
X321630
Y-371031
Y-378905
X329504
X313756
Y-371031
Y-363157
X305882
Y-371031
Y-378905
X298008
Y-371031
Y-363157
X290134
Y-371031
Y-378905
X282260
Y-371031
Y-363157
X274386
Y-371031
Y-378905
X266512
Y-371031
Y-363157
X258638
Y-371031
Y-378905
X250764
Y-371031
Y-363157
X242890
Y-371031
Y-378905
X235016
Y-371031
Y-363157
X242925Y-351781
X245925
X248925
X252025
X266512Y-347409
X274386
Y-339535
Y-331661
X266512
Y-339535
X285699Y-330081
X282260Y-323787
Y-315913
X274386
Y-308039
Y-300165
X283000Y-295100
X286500Y-281100
X298290Y-273910
X301600Y-273800
X321630Y-284417
Y-292291
Y-300165
Y-308039
Y-315913
Y-323787
Y-331661
X334868Y-330001
X340268Y-325101
X345331Y-324500
X350668Y-323701
X352362Y-327756
X346256Y-314704
X343205
Y-311653
X340154Y-314704
X343205Y-317756
X342515Y-304201
X345468Y-304401
X348425Y-304133
X353346Y-303149
X367633Y-301969
X369208Y-303543
X370866Y-305118
X368110Y-310039
X368875Y-323787
X376748
X384623
X382677Y-319291
X382677Y-314449
X384623Y-331661
Y-339535
X376748
Y-331661
X368875
X350368Y-351701
X347268
X344268
X341268
X341535Y-361221
X301199Y-351781
X298099
X295099
X292099
X291099Y-325181
X296162Y-324580
X301499Y-323781
X294036Y-317836
Y-314785
Y-311734
X290985Y-314785
X297087
X296299Y-304481
X293347Y-304281
X299300Y-304000
X303500Y-304800
X286999Y-309281
X254300Y-304800
X250100Y-304100
X247125Y-304481
X244173Y-304281
X244862Y-311734
Y-314785
X242100Y-314800
X244862Y-317836
X247913Y-314785
X246988Y-324580
X241925Y-325181
X235016Y-323787
X236525Y-330081
X235016Y-315913
Y-308039
X237825Y-309281
X235900Y-297100
X238000Y-281800
X249000Y-275900
X252000
X267900Y-271700
X271400
X277700Y-235000
X264700Y-235100
X264411Y-230308
X261311
X258311
X255311
X254100Y-235100
X251100Y-235300
X240600Y-238300
X235600Y-235200
X291300Y-238900
X294300
X300548Y-230308
X303548
X306548
X309648
X309400Y-234000
X329504Y-237173
X337378
X329504Y-229299
X353127
X361000
X368875
X350000Y-280709
X348031Y-278740
X337378Y-284417
X336168Y-309201
X252325Y-323781
X227142Y-315913
X219268Y-323787
Y-331661
Y-339535
Y-347409
Y-363157
X227142
Y-371031
Y-378905
X219268
Y-371031
X211394
Y-363157
X203520
Y-371031
Y-378905
X211394
X195646
Y-371031
Y-363157
X187772
Y-371031
Y-378905
X179898
Y-371031
Y-363157
X172024
Y-371031
Y-378905
X164150
Y-371031
Y-363157
X156276
Y-371031
Y-378905
X148402
Y-371031
Y-363157
X140528
Y-371031
Y-378905
X132654
Y-371031
Y-363157
X124780
Y-371031
Y-378905
X116906
Y-371031
Y-363157
X109032
Y-371031
Y-378905
X101158
Y-371031
Y-363157
X93284
Y-371031
Y-378905
X85410
Y-371031
Y-363157
X77536
Y-371031
Y-378905
Y-347409
Y-339535
Y-331661
X89003Y-330081
X94403Y-325181
X99466Y-324580
X104803Y-323781
X97340Y-317836
Y-314785
X100391
X97340Y-311734
X94289Y-314785
X90303Y-309281
X96650Y-304281
X99603Y-304481
X102600Y-303700
X106800Y-304800
X124780Y-308039
Y-300165
Y-315913
Y-331661
Y-339535
Y-347409
X144577Y-351781
X147577
X150577
X153677
X156276Y-347409
X172024
Y-339535
Y-331661
Y-315913
Y-308039
Y-300165
X187100Y-297600
X188651Y-309281
X195688Y-311734
Y-314785
X198739
X192637
X195688Y-317836
X197814Y-324580
X192751Y-325181
X187351Y-330081
X203151Y-323781
X208466Y-325570
X205200Y-304800
X201000Y-303900
X197951Y-304481
X194999Y-304281
X187500Y-282400
X200300Y-275100
X203500Y-275000
X218600Y-271600
X221600
X217700Y-238000
X219174Y-230308
X216074
X213074
X210074
X206900Y-235200
X202700
X192700Y-239000
X190100Y-237400
X181500Y-237700
X175000Y-237300
X173900Y-229800
X170551Y-230123
X167800Y-231600
X164837Y-230308
X152800Y-235400
X147378Y-232622
X147100Y-239800
X143700
X128500Y-235200
X128700Y-230308
X125600
X122600
X119600
X123100Y-235300
X104100
X100300Y-231600
X98000Y-239700
X94900
X89700Y-239300
X82400Y-238700
X83463Y-230308
X80363
X77363
X74363
X74400Y-271700
X77600Y-281800
Y-303100
X85410Y-315913
X95403Y-351781
X98403
X101403
X104503
X138177Y-330081
X143577Y-325181
X148640Y-324580
X153977Y-323781
X149565Y-314785
X146514
Y-311734
Y-317836
X143463Y-314785
X139477Y-309281
X145824Y-304281
X148777Y-304481
X151800Y-304000
X156000Y-304800
X137300Y-296400
X139300Y-282200
X150300Y-273400
X154000Y-273300
X169300Y-271400
X172700Y-271500
X164150Y-284417
X123400Y-271300
X120300
X104900Y-273900
X101700Y-274100
X227000Y-237900
X202851Y-351781
X199751
X196751
X193751
X69662Y-363157
Y-371031
Y-378905
X61788
Y-371031
Y-363157
X53914
Y-371031
Y-378905
X46040
Y-371031
Y-363157
X38166
Y-371031
Y-378905
X30292
Y-371031
Y-363157
X22418
Y-371031
Y-378905
X14544
Y-371031
Y-363157
X6670
Y-371031
Y-378905
X-1204
Y-371031
Y-363157
X-9078
Y-371031
Y-378905
X-16952
Y-371031
Y-363157
X-24826
Y-371031
Y-378905
X-32700
Y-371031
Y-363157
X-40574
Y-371031
Y-378905
X-48449
Y-371031
Y-363157
X-56323
Y-371031
Y-378905
X-64197
Y-371031
Y-363157
X-72071
Y-371031
Y-378905
X-79945
Y-371031
Y-363157
X-72071Y-347409
Y-339535
Y-331661
X-58519Y-330081
X-53119Y-325181
X-48056Y-324580
X-42719Y-323781
X-47131Y-314785
X-50182
Y-311734
X-53233Y-314785
X-50182Y-317836
X-50872Y-304281
X-47919Y-304481
X-41519Y-304781
X-37385Y-304059
X-24826Y-300165
Y-308039
Y-315913
Y-331661
Y-339535
Y-347409
X-43019Y-351781
X-46119
X-49119
X-52119
X-40574Y-339535
X-9345Y-330081
X-3945Y-325181
X1118Y-324580
X6455Y-323781
X2043Y-314785
X-1008
X-3800Y-314800
X-1008Y-317836
Y-311734
X-1698Y-304281
X1255Y-304481
X7655Y-304781
X11789Y-304059
X-8045Y-309281
X-10100Y-297100
X-8400Y-281800
X4000Y-275300
X6700Y-273700
X20700Y-269800
X25300Y-269000
X38600Y-286500
X39800Y-301600
X41129Y-309281
X48166Y-311734
Y-314785
X45115
X51217
X48166Y-317836
X50292Y-324580
X45229Y-325181
X38166Y-323787
Y-315913
X30292
X22418Y-323787
Y-331661
Y-339535
Y-347409
X6155Y-351781
X3055
X55
X-2945
X46229
X49229
X52229
X55329
X55629Y-323781
X57600Y-304800
X53400Y-304000
X50429Y-304481
X47476Y-304281
X39829Y-330081
X52100Y-274900
X55500
X71400Y-271500
X67900Y-235500
X63000Y-235400
X55300Y-239838
X52200Y-239800
X38800Y-235100
X34600
X35126Y-230308
X32100Y-230300
X29126Y-230308
X38226
X16900Y-234500
X6670Y-229299
X-1204
X-9078
X-16952
X-24826
X-24100Y-271100
X-27753Y-271142
X-41300Y-273200
X-46000Y-273000
X-32700Y-284417
X-62000Y-284300
X-60000Y-296000
X-57219Y-309281
X-72071Y-308039
Y-300165
X-79945Y-292291
Y-284417
X-76000Y-266000
X-72900Y-265700
X-72071Y-315913
X-96305Y-314785
X-99356
Y-311734
X-102407Y-314785
X-99356Y-317836
X-97230Y-324580
X-102293Y-325181
X-107693Y-330081
X-119315Y-331661
Y-339535
Y-347409
X-127189
Y-339535
Y-331661
X-141067Y-323781
X-146404Y-324580
X-151467Y-325181
X-158685Y-323787
Y-315913
Y-308039
X-155567Y-309281
X-148530Y-311734
Y-314785
X-145479
X-151581
X-148530Y-317836
X-149220Y-304281
X-146267Y-304481
X-143300Y-304400
X-139100Y-304800
X-150811Y-300165
X-176800Y-300900
X-178700Y-303200
X-179000Y-296500
X-173800Y-295700
X-176800Y-292500
X-178300Y-284600
X-166559Y-284417
X-170100Y-270700
X-173100Y-271500
X-158400Y-272400
X-154300Y-272200
X-126100Y-271000
X-122622
X-127189Y-284417
Y-292291
X-121900Y-295500
X-120700Y-300700
X-106393Y-309281
X-100046Y-304281
X-97093Y-304481
X-94100Y-304400
X-89900Y-304600
X-91893Y-323781
X-111441Y-315913
X-107700Y-281500
X-104500Y-279900
X-97000Y-273500
X-93100
X-135063Y-284417
X-156867Y-330081
X-150467Y-351781
X-147467
X-144467
X-141367
X-142937Y-363157
X-135063
X-127189
X-119315
X-111441
X-103567
X-95693
X-87819
Y-371031
Y-378905
X-95693
Y-371031
X-103567
Y-378905
X-111441
Y-371031
X-119315
Y-378905
X-127189
Y-371031
X-135063
Y-378905
X-142937
Y-371031
X-150811
Y-363157
X-158685
Y-371031
Y-378905
X-150811
X-166559
Y-371031
Y-363157
X-174433
Y-371031
Y-378905
X-182307
Y-371031
Y-363157
X-190181
Y-371031
Y-378905
X-198055
Y-371031
X-205929Y-378905
X-213803
X-221677
X-229551
X-237425
Y-363157
X-229551
X-221677
Y-347409
Y-339535
Y-331661
Y-323787
Y-315913
Y-308039
Y-292291
Y-284417
X-213803
X-205929Y-292291
Y-300165
X-204741Y-309281
X-197704Y-311734
Y-314785
X-194653
X-200755
X-197704Y-317836
X-195578Y-324580
X-200641Y-325181
X-206041Y-330081
X-190600Y-323800
X-192400Y-304400
X-195441Y-304481
X-198394Y-304281
X-188200Y-304800
X-237400
X-239415Y-323781
X-239715Y-351781
X-199641
X-196641
X-193641
X-190541
X-101293
X-98293
X-95293
X-92193
X-229551Y-284417
X-253173
X-268921
Y-300165
Y-308039
Y-315913
Y-331661
Y-339535
Y-347409
X-288889Y-351781
X-291989
X-294989
X-297989
X-300417Y-339535
X-304389Y-330081
X-308291Y-323787
Y-315913
X-316165
Y-308039
Y-300165
Y-284417
X-324039Y-292291
X-335800Y-304800
X-340000Y-304300
X-342963Y-304481
X-345916Y-304281
X-345226Y-311734
Y-314785
X-342175
X-345226Y-317836
X-348277Y-314785
X-355535Y-315913
Y-323787
X-363409
Y-315913
X-378300Y-316100
X-378800Y-311700
X-382677Y-314252
Y-319252
X-389370Y-319449
Y-314449
X-387031Y-323787
X-382874Y-336614
X-392717Y-340551
X-389500Y-354800
X-388400Y-358300
X-386500Y-361200
X-382873Y-365157
X-384842Y-368110
X-380906Y-370079
X-379157Y-378905
X-371283
X-363409
X-355535
X-347661
X-339787
X-331913
X-324039
X-316165
X-308291
X-300417
X-292543
X-284669
X-276795
X-268921
X-261047
X-253173
X-245299
Y-363157
X-245815Y-351781
X-242815
X-248815
X-249815Y-325181
X-244752Y-324580
X-246878Y-317836
Y-314785
X-243827
X-246878Y-311734
X-249929Y-314785
X-253915Y-309281
X-247568Y-304281
X-244615Y-304481
X-241600Y-304500
X-255215Y-330081
X-288589Y-323781
X-293926Y-324580
X-298989Y-325181
X-296052Y-317836
Y-314785
X-293001
X-296052Y-311734
X-299103Y-314785
X-303089Y-309281
X-296742Y-304281
X-293789Y-304481
X-290800Y-304300
X-286600Y-304800
X-316165Y-331661
Y-339535
Y-347409
X-324039
Y-339535
Y-331661
X-337763Y-323781
X-343100Y-324580
X-348163Y-325181
X-353563Y-330081
X-352263Y-309281
X-370800Y-307600
X-374016Y-310039
X-373300Y-302900
X-379000Y-304300
X-377300Y-296900
X-379000Y-289200
X-379400Y-279300
X-376800Y-274700
X-377100Y-270300
X-372900Y-272300
X-378500Y-264500
X-393300Y-268600
X-393400Y-271600
X-393700Y-274800
Y-278000
Y-281200
X-393800Y-285600
X-394200Y-289300
X-393300Y-300100
X-393700Y-304000
X-368900Y-294800
X-366300Y-296400
X-370800Y-284400
X-349700Y-276200
X-337800Y-274800
X-338063Y-351781
X-341163
X-344163
X-347163
X-368200Y-353300
X-375200Y-349400
X-394905Y-363157
Y-371031
Y-378905
X-387031
X-402779
Y-371031
Y-363157
Y-355283
X-410653
Y-347409
Y-363157
Y-371031
Y-378905
X-406496Y-330527
X-404725Y-319449
Y-314449
X-398031Y-314252
Y-319252
X-407900Y-272800
X-408500Y-264300
X-410653Y-260795
Y-252921
Y-245047
Y-237173
Y-229299
Y-221425
Y-213551
Y-205677
Y-197803
Y-189929
Y-182055
Y-174181
Y-166307
Y-158433
Y-150559
Y-142685
Y-134811
Y-126937
Y-119063
Y-111189
Y-103315
Y-95441
Y-87567
Y-79693
X-404725Y-79449
Y-84449
X-398031Y-84252
Y-79252
X-404725Y-74449
X-410653Y-71819
X-394905Y-79693
X-389370Y-79449
Y-74449
X-382677Y-74252
Y-79252
Y-84252
X-364173Y-86221
X-359842Y-87402
X-355535Y-87567
X-346563Y-81359
X-343563
X-340563
X-337463
X-331913Y-87567
X-324039
Y-79693
Y-71819
X-315354Y-88189
X-312205
X-308291Y-87567
X-300417
X-293701Y-86221
X-294389Y-81359
X-291389
X-288289
X-287008Y-87008
X-276795Y-87567
X-270472Y-90551
X-267716Y-88976
X-263385Y-85039
X-248215Y-81359
X-245215
X-242126Y-81496
X-241732Y-86220
X-245215Y-68110
X-297389Y-81359
X-318701Y-94705
X-321654Y-94882
X-333465Y-97244
X-339567Y-97441
X-371283Y-95441
Y-71819
X-394905Y-126937
X-360236Y-142717
X-358268Y-140748
X-356299Y-138779
X-354331Y-136811
X-339500Y-139900
X-339800Y-143000
X-334200Y-141400
X-335300Y-138400
X-339787Y-158433
X-336861Y-167876
X-329824Y-170329
Y-173380
X-326773
X-329824Y-176431
X-332876Y-173380
X-332761Y-183776
X-327698Y-183176
X-323237Y-181797
X-319300Y-186128
X-308291Y-189929
Y-197803
Y-205677
X-322661Y-210376
X-325761
X-328761
X-331800Y-209400
X-335400Y-209700
X-338161Y-188676
X-338700Y-181500
X-347661Y-174181
X-354900Y-180300
X-350600Y-198700
X-330514Y-162876
X-327561Y-163076
X-324535Y-163095
X-320335Y-163395
X-291000Y-161800
X-287800Y-159000
X-285639Y-162706
X-282686Y-162906
X-279700Y-162900
X-275500Y-163000
X-281898Y-173209
X-284949
Y-170158
X-288001Y-173209
X-284949Y-176260
X-282824Y-183005
X-287887Y-183606
X-293286Y-188505
X-277486Y-182205
X-277800Y-210000
X-280887Y-210206
X-283900Y-210000
X-286900
X-241663
X-242650Y-183606
X-248049Y-188505
X-242764Y-173209
X-246749Y-167706
X-240402Y-162706
X-251300Y-153900
X-248800Y-150200
X-265500Y-142000
X-263800Y-138800
X-263400Y-128600
X-260447Y-128320
X-308400Y-137000
X-307300Y-140000
X-291986Y-167706
X-394905Y-182055
X-237586Y-183005
X-232249Y-182205
X-226900Y-183100
X-236661Y-173209
X-239713
Y-170158
Y-176260
X-237450Y-162906
X-234463Y-162900
X-230263Y-163000
X-213803Y-166307
Y-174181
X-205929
Y-182055
X-202813Y-188505
X-197413Y-183606
X-192350Y-183005
X-187013Y-182205
X-191424Y-173209
X-194475
Y-170158
X-197527Y-173209
X-194475Y-176260
X-195165Y-162706
X-192212Y-162906
X-189226Y-162900
X-185026Y-163000
X-201513Y-167706
X-203700Y-154100
X-203800Y-137600
X-188200Y-133900
X-185500Y-132400
X-173300Y-128200
X-170200Y-128100
X-156500Y-139400
X-145200Y-134100
X-141900Y-134000
X-127900Y-128000
X-124900
X-113100Y-139900
Y-154400
X-111038Y-167706
X-107053Y-173209
X-104002
Y-170158
X-100950Y-173209
X-104002Y-176260
X-102200Y-183000
X-98000Y-183600
X-92600Y-183200
X-106939Y-183606
X-112338Y-188505
X-105952Y-210000
X-102952
X-99938Y-210206
X-96852Y-210000
X-95693Y-205677
Y-221425
X-87819
X-103567
X-142089Y-210000
X-145176Y-210206
X-148189Y-210000
X-151189
X-152175Y-183606
X-147113Y-183005
X-141776Y-182205
X-146187Y-173209
X-149239
X-152000Y-173200
X-149239Y-170158
Y-176260
X-158685Y-174181
Y-182055
X-157576Y-188505
X-156275Y-167706
X-149928Y-162706
X-146976Y-162906
X-143989Y-162900
X-139789Y-163000
X-150811Y-158433
X-159800Y-153900
X-166559Y-174181
X-187326Y-210000
X-190412Y-210206
X-193426Y-210000
X-196426
X-213803Y-205677
Y-189929
X-232563Y-210000
X-235649Y-210206
X-238663Y-210000
X-231900Y-133600
X-231200Y-130600
X-218200Y-128500
X-215247Y-128357
X-221677Y-142685
X-222047Y-85433
X-218898Y-85433
X-199041Y-81359
X-196041
X-193041
X-189941
X-192323Y-86896
X-195276Y-87795
X-196063Y-68504
X-188189Y-73622
X-172441Y-87008
X-168898
X-158661Y-85039
X-151575Y-87795
X-149867Y-81359
X-146867
X-143867
X-140767
X-138189Y-74016
X-146850Y-68898
X-124016Y-86221
X-120472
X-106693Y-86614
X-99606Y-87402
X-94488Y-87008
X-88976
X-91593Y-81359
X-94693
X-97693Y-81299
X-100787Y-81102
X-99700Y-133900
X-96700
X-98752Y-162900
X-101739Y-162906
X-104691Y-162706
X-94552Y-163000
X-238976Y-81102
X-236909Y-74115
X-72071Y-71819
X-69082Y-81112
X-72047Y-86221
X-75197Y-86220
X-57874Y-85827
X-51519Y-81359
X-48519
X-45519
X-42419
X-40945Y-84252
X-25591Y-86221
X-22441Y-86220
X-16142Y-84646
X-11024Y-85433
X-2345Y-81359
X655
X3655
X7087Y-80315
Y-83465
X20472Y-89764
X23228Y-87402
X27165Y-83071
X30709Y-83858
X46829Y-81359
X49829
X52829
X55929
X60236Y-91732
X53914Y-95441
Y-103315
X61788
X70079Y-95276
X46040Y-95441
X53914Y-158433
Y-166307
Y-174181
Y-182055
X40700Y-182400
X36300Y-182700
X33326Y-183008
X30373Y-182808
X31063Y-190260
Y-193311
X28012
X34114
X31063Y-196362
X33189Y-203107
X28126Y-203708
X22726Y-208608
X14544Y-213551
X6670Y-221425
X-1204
X-9078
X-16952
X-24826
X-32700
X-40574
X-48449
X-56323
X-64197
X-72071
X-79945
Y-205677
Y-197803
Y-189929
X-67102Y-188505
X-61702Y-183606
X-56638Y-183005
X-51301Y-182205
X-55713Y-173209
X-58765
Y-170158
Y-176260
X-61816Y-173209
X-65802Y-167706
X-59454Y-162706
X-56502Y-162906
X-53515Y-162900
X-49315Y-163000
X-48449Y-158433
X-67700Y-155600
X-79945Y-158433
Y-166307
Y-174181
X-64197Y-197803
X-60715Y-210000
X-57715
X-54702Y-210206
X-51615Y-210000
X-32700Y-205677
X-15478Y-210000
X-12478
X-9465Y-210206
X-6378Y-210000
X-6064Y-182205
X-11401Y-183005
X-16465Y-183606
X-24826Y-182055
Y-174181
X-32700
Y-166307
X-20564Y-167706
X-16579Y-173209
X-13528
Y-170158
X-10476Y-173209
X-13528Y-176260
X-14217Y-162706
X-11265Y-162906
X-8278Y-162900
X-4078Y-163000
X-23100Y-154900
X-21500Y-141200
X-8800Y-133800
X-5847Y-133802
X-34500Y-127600
X-37600Y-128200
X-40574Y-142685
X-51000Y-133700
X-53900Y-135100
X-64197Y-142685
X-67500Y-139600
X-80000Y-127900
X-83153Y-127985
X-24826Y-71819
X14544Y-150559
X22418Y-158433
Y-182055
X24026Y-187808
X38526Y-202308
X61788Y-213551
X67963Y-208608
X69263Y-187808
X-21865Y-188505
X73249Y-193311
X76300
X79351
X76300Y-190260
Y-196362
X78426Y-203107
X73363Y-203708
X83763Y-202308
X82000Y-183500
X78563Y-183008
X75610Y-182808
X86200Y-183300
X101158Y-174181
Y-166307
Y-158433
X114500Y-187808
X118486Y-193311
X121537
Y-190260
X124588Y-193311
X121537Y-196362
X123663Y-203107
X118600Y-203708
X113200Y-208608
X109032Y-213551
X93284
X129000Y-202308
X127200Y-183600
X123800Y-183008
X120847Y-182808
X131400Y-183300
X140528Y-174181
X148402
X156276Y-182055
X159737Y-187808
X163723Y-193311
X166774
Y-190260
X169825Y-193311
X166774Y-196362
X168900Y-203107
X163837Y-203708
X156276Y-205677
X158437Y-208608
X174237Y-202308
X176200Y-183300
X172000Y-183500
X169037Y-183008
X166084Y-182808
X187772Y-174181
Y-166307
Y-158433
X203520Y-182055
X204974Y-187808
X208960Y-193311
X212011
Y-190260
X215062Y-193311
X212011Y-196362
X214137Y-203107
X209074Y-203708
X203674Y-208608
X195646Y-213551
X219474Y-202308
X220674Y-183308
X216800Y-181300
X214274Y-183008
X211321Y-182808
X209055Y-86221
X201969
X203451Y-81359
X200351
X197351
X194351
X181890Y-86221
X177952Y-86220
X174409Y-90945
X171260
X167323Y-93701
X158268Y-91339
X154277Y-81359
X151177
X148177
X145177
X131496Y-85827
X133071Y-88976
X122835Y-90551
X119685
X120866Y-96850
X110630Y-92913
X101158Y-95441
X93284
X96003Y-81359
X99003
X102003
X105103
X85433Y-86221
X81102Y-86614
X76378Y-90158
X72835
X218898Y-88583
X221850Y-87598
X243525Y-81359
X246525
X249525
X252625
X271260Y-81102
X269685Y-76378
Y-72441
X289370Y-68898
X292913Y-68110
X292699Y-81359
X295699
X298699
X301799
X318110Y-82677
X319685Y-75984
X314567Y-72835
X341873Y-81359
X344873
X351378Y-78740
X352362Y-75787
X354724Y-88976
X372047Y-88583
X376748Y-87567
X382677Y-84449
Y-79449
Y-74449
X376748Y-71819
X375984Y-107087
Y-111811
X378346Y-109449
Y-114173
X321630Y-174181
X311900Y-183300
X307701Y-183491
X304748Y-183521
X301795Y-182808
X302485Y-190260
Y-193311
Y-196362
X305536Y-193311
X299434
X295448Y-187808
X282260Y-189929
Y-182055
Y-174181
X290134
X282260Y-166307
Y-158433
Y-197803
Y-205677
Y-213551
X290134
X294148Y-208608
X299548Y-203708
X304611Y-203107
X309948Y-202308
X322000Y-212700
X321630Y-221425
X345252
X353127
X361000
X353127Y-213551
X345252
Y-205677
X337378
Y-197803
X329504
Y-189929
Y-205677
X337378Y-213551
X299000Y-218900
X296047Y-218832
X282260Y-221425
X264711Y-202308
X259374Y-203107
X254311Y-203708
X257248Y-196362
Y-193311
Y-190260
X260299Y-193311
X254197
X250211Y-187808
X256558Y-182808
X259511Y-183008
X262900Y-182700
X267100Y-183300
X235016Y-182055
Y-174181
Y-166307
Y-158433
X242890Y-213551
X248911Y-208608
X246457Y-68504
X241339Y-69291
X389370Y-74252
Y-79252
X392497Y-79693
X397835Y-79626
X398031Y-84449
X404725Y-84252
X404528Y-79429
X404725Y-74252
X398031Y-74449
X393701Y-89567
X392497Y-63945
Y-56071
Y-48197
Y-24575
X408245Y-953
Y6922
Y14796
Y22670
Y30544
Y38418
Y46292
Y54166
Y62040
Y69914
Y77788
X404725Y79449
Y74449
X400371Y69914
Y62040
Y54166
Y46292
X392497
Y54166
Y62040
Y69914
X389370Y74449
Y79449
X392497Y77788
X398031Y79252
Y84252
X404725Y84449
X408245Y85662
X400371Y22670
X392497
X384623
Y30544
Y38418
Y46292
Y54166
Y62040
Y69914
X382677Y74252
Y79252
Y84252
X376748Y69914
Y62040
Y54166
Y46292
Y38418
Y30544
Y22670
Y14796
X384623
Y6922
X370866Y3543
X367717
X364567
X361417
X358268
X355118
X355117Y-2362
X364173Y-5118
X366142Y-7087
X368110Y-9055
X370472Y-10630
X368875Y-16701
X376748
X384623
Y-24575
Y-32449
Y-40323
Y-48197
Y-56071
Y-63945
X376748
Y-56071
Y-48197
Y-40323
Y-32449
Y-24575
X368875
Y-32449
X353543Y-32677
Y-27953
X349212Y-33858
X346073Y-34059
X343121Y-33859
X343810Y-41311
Y-44363
X346861
X340759
X343810Y-47414
X345936Y-54158
X340873Y-54759
X335473Y-59659
Y-66535
X321630Y-63945
Y-56071
X313756
X302099Y-53359
X296762Y-54158
X291699Y-54759
X294636Y-47414
Y-44363
X297687
X294636Y-41311
X291585Y-44363
X287599Y-38859
X293947Y-33859
X296899Y-34059
X300038Y-33858
X303975Y-31890
X313756Y-24575
X329504
X336773Y-38859
X351273Y-53359
X361000Y-24575
Y14796
X368875
Y22670
Y30544
Y38418
Y46292
Y54166
Y62040
Y69914
X364173Y86221
X359842Y87402
X353127Y85662
X346563Y81359
X343563
X340563
X337463
X337163Y53359
X342500Y54158
X347563Y54759
X344626Y47414
Y44363
X341575
X344626Y41311
X347677Y44363
X351663Y38859
X353127Y30544
Y22670
X345316Y33859
X342363Y34059
X339224Y33858
X335287Y31890
X321630Y30544
Y22670
Y14796
X313756
Y22670
Y46292
Y54166
X305882
X303789Y59659
X298389Y54759
X293326Y54158
X287989Y53359
X282260Y54166
X292401Y44363
X295452
Y41311
X298503Y44363
X295452Y47414
X305882Y46292
X302489Y38859
X296142Y33859
X293189Y34059
X290050Y33858
X286113Y31890
X274386Y30544
Y22670
Y14796
X282260
X266512
Y22670
Y30544
X253315Y38859
X246278Y41311
Y44363
X243227
X249329
X246278Y47414
X244152Y54158
X249215Y54759
X258638Y54166
X254615Y59659
X245215Y68110
Y81359
X248215
X242126Y81496
X238976Y81102
X241732Y86220
X236909Y74115
X238815Y53359
X240876Y33858
X244015Y34059
X246968Y33859
X236939Y31890
X235016Y-953
X242890
X250764
X266512Y-8827
Y-16701
Y-24575
X254801Y-31890
X250864Y-33858
X247725Y-34059
X244773Y-33859
X245462Y-41311
Y-44363
X248513
X242411
X245462Y-47414
X247588Y-54158
X242525Y-54759
X237125Y-59659
X252925Y-53359
X274386Y-56071
X286299Y-59659
X282260Y-63945
X238425Y-38859
X235016Y-32449
Y-16701
X258638Y14796
X263385Y85039
X287008Y87008
X288289Y81359
X291389
X294389
X297389
X293701Y86221
X312205Y88189
X315354
X329504Y54166
X352963Y59659
X361000Y54166
X335827Y-1575
X305882Y-16701
X219268
Y-8827
Y-24575
Y-32449
X205627Y-31890
X201690Y-33858
X198551Y-34059
X195598Y-33859
X196288Y-41311
Y-44363
X199339
X193237
X196288Y-47414
X198414Y-54158
X193351Y-54759
X187951Y-59659
X203751Y-53359
X227142Y-56071
Y-63945
X211394Y-24575
X203520Y-953
X195646
X187772
X179898Y14796
X172024
Y22670
Y30544
X156276
Y22670
X164150Y14796
X156276Y-953
X148402
X140528
X124780Y-8827
Y-16701
Y-24575
X132654
X124780Y-32449
X116906Y-24575
X109032Y-16701
Y-953
X101158
X93284
X85410Y14796
X77536
Y22670
Y30544
X89417Y31890
X93354Y33858
X96493Y34059
X99446Y33859
X98756Y41311
Y44363
X95705
X101807
X98756Y47414
X96630Y54158
X101693Y54759
X107093Y59659
X116906Y54166
X132654
X140467Y53359
X145804Y54158
X150867Y54759
X147930Y47414
Y44363
X144879
X147930Y41311
X150981Y44363
X154967Y38859
X148620Y33859
X145667Y34059
X142528Y33858
X138591Y31890
X124780Y30544
Y22670
Y14796
X116906
X105793Y38859
X91293Y53359
X85410Y54166
X91593Y81359
X94693
X97693Y81299
X100787Y81102
X99606Y87402
X94488Y87008
X88976
X75197Y86220
X106693Y86614
X120472Y86221
X124016
X140767Y81359
X143867
X146867
X149867
X151575Y87795
X158661Y85039
X168898Y87008
X172441
X192323Y86896
X195276Y87795
X196041Y81359
X193041
X189941
X199041
X196063Y68504
X188189Y73622
X189641Y53359
X194978Y54158
X200041Y54759
X197104Y47414
Y44363
X194053
X197104Y41311
X200155Y44363
X204141Y38859
X197794Y33859
X194841Y34059
X191702Y33858
X187765Y31890
X179898Y54166
X164150
X156267Y59659
X146850Y68898
X138189Y74016
X205441Y59659
X211394Y54166
X227142
Y46292
Y22670
Y14796
X219268
Y22670
Y30544
X218898Y85433
X222047Y85433
X172024Y-8827
Y-16701
Y-24575
X179898
X187772Y-32449
X189251Y-38859
X172024Y-32449
X164150Y-24575
X156453Y-31890
X152516Y-33858
X149377Y-34059
X146424Y-33859
X147114Y-41311
Y-44363
X150165
X144063
X147114Y-47414
X149240Y-54158
X144177Y-54759
X138777Y-59659
X154577Y-53359
X140077Y-38859
X107279Y-31890
X103342Y-33858
X100203Y-34059
X97250Y-33859
X97940Y-41311
Y-44363
X100991
X94889
X97940Y-47414
X100066Y-54158
X95003Y-54759
X89603Y-59659
X85410Y-63945
X101158
X105403Y-53359
X116906Y-56071
X90903Y-38859
X77536Y-24575
Y-16701
Y-8827
X69662
Y-16701
Y-24575
X61788
X58105Y-31890
X54168Y-33858
X51029Y-34059
X48076Y-33859
X48766Y-41311
Y-44363
X45715
X51817
X48766Y-47414
X50892Y-54158
X45829Y-54759
X38166Y-56071
X40429Y-59659
X30292Y-56071
X7055Y-53359
X1718Y-54158
X-3345Y-54759
X-408Y-47414
Y-44363
X2643
X-408Y-41311
X-3459Y-44363
X-7445Y-38859
X-9078Y-32449
X-1098Y-33859
X1855Y-34059
X4994Y-33858
X8931Y-31890
X14544Y-24575
X22418
X30292
X38166Y-16701
Y-953
X46040
X53914
X61788Y14796
X69662
Y22670
Y30544
X56619Y38859
X49582Y41311
Y44363
X46531
X52633
X49582Y47414
X47456Y54158
X52519Y54759
X61788Y54166
X57919Y59659
X42119Y53359
X30292Y54166
Y46292
Y22670
Y14796
X22418
Y22670
Y30544
X40243Y31890
X44180Y33858
X47319Y34059
X50272Y33859
X46040Y69914
X45519Y81359
X48519
X51519
X42419
X40945Y84252
X25591Y86221
X22441Y86220
X16142Y84646
X11024Y85433
X2345Y81359
X-655
X-3655
X-7087Y80315
Y83465
X-23228Y87402
X-27165Y83071
X-30709Y83858
X-46829Y81359
X-49829
X-52829
X-55929
X-56229Y53359
X-50892Y54158
X-45829Y54759
X-48766Y47414
Y44363
X-45715
X-51817
X-48766Y41311
X-48076Y33859
X-51029Y34059
X-54168Y33858
X-58105Y31890
X-72071Y30544
Y22670
Y14796
X-79945
X-72071Y-8827
Y-16701
Y-24575
X-64197
X-72071Y-32449
Y-40323
Y-48197
Y-56071
Y-63945
X-79945Y-56071
X-57919Y-59659
X-52519Y-54759
X-47456Y-54158
X-42119Y-53359
X-46531Y-44363
X-49582
Y-41311
X-52633Y-44363
X-49582Y-47414
X-50272Y-33859
X-47319Y-34059
X-44180Y-33858
X-40243Y-31890
X-32700Y-24575
X-24826
X-16952
X-24826Y-16701
Y-8827
X-9078Y-953
X-1204
X6670
X22418Y-8827
Y-16701
Y-32449
X38166
X41729Y-38859
X56229Y-53359
X61788Y-63945
X-8745Y-59659
X-16952Y-63945
X-24826
Y-56071
Y-48197
Y-40323
Y-32449
X-56619Y-38859
X-79945Y-24575
X-56323Y-953
X-48449
X-40574
X-32700Y14796
X-24826
X-16952
X-24826Y22670
Y30544
X-40574
Y22670
X-41729Y38859
X-40429Y59659
X-32700Y54166
X-16952
X-7055Y53359
X-1718Y54158
X3345Y54759
X408Y47414
Y44363
X-2643
X408Y41311
X3459Y44363
X7445Y38859
X1098Y33859
X-1855Y34059
X-4994Y33858
X-8931Y31890
X8745Y59659
X14544Y54166
X57874Y85827
X72047Y86221
X69082Y81112
X-81102Y86614
X-79945Y54166
X-64197
X-87819
X-89603Y59659
X-95003Y54759
X-100066Y54158
X-105403Y53359
X-111441Y54166
X-127189
X-135063
X-138777Y59659
X-144177Y54759
X-149240Y54158
X-154577Y53359
X-166559Y54166
Y46292
X-150165Y44363
X-147114
Y41311
X-144063Y44363
X-147114Y47414
X-146424Y33859
X-149377Y34059
X-152516Y33858
X-156453Y31890
X-166559Y22670
Y14796
X-174433
Y22670
Y30544
X-189251Y38859
X-196288Y41311
Y44363
X-199339
X-193237
X-196288Y47414
X-198414Y54158
X-193351Y54759
X-187951Y59659
X-182307Y54166
X-203751Y53359
X-213803Y54166
X-221677
Y62040
Y69914
Y77788
X-221850Y87598
X-218898Y88583
X-209055Y86221
X-201969
X-203451Y81359
X-200351
X-197351
X-194351
X-205929Y77788
X-181890Y86221
X-177952Y86220
X-154277Y81359
X-151177
X-148177
X-145177
X-142937Y69914
X-150811
X-131496Y85827
X-105103Y81359
X-102003
X-99003
X-96003
X-85433Y86221
X-87819Y46292
Y38418
X-90903Y38859
X-97940Y41311
Y44363
X-100991
X-94889
X-97940Y47414
X-97250Y33859
X-100203Y34059
X-103342Y33858
X-107279Y31890
X-119315Y30544
Y22670
Y14796
X-111441
X-127189
Y22670
Y30544
Y38418
Y46292
X-140077Y38859
X-135063Y14796
X-142937Y-953
X-150811
X-158685
Y-16701
X-166559Y-24575
Y-32449
X-174433
Y-24575
Y-16701
Y-8827
X-182307Y-24575
X-187765Y-31890
X-191702Y-33858
X-194841Y-34059
X-197794Y-33859
X-197104Y-41311
Y-44363
X-194053
X-200155
X-197104Y-47414
X-194978Y-54158
X-200041Y-54759
X-205929Y-56071
X-205441Y-59659
X-189641Y-53359
X-166559Y-56071
X-158685
X-156267Y-59659
X-158685Y-63945
X-150867Y-54759
X-145804Y-54158
X-140467Y-53359
X-144879Y-44363
X-147930
Y-41311
X-150981Y-44363
X-147930Y-47414
X-148620Y-33859
X-145667Y-34059
X-142528Y-33858
X-138591Y-31890
X-127189Y-24575
X-119315
X-111441
X-119315Y-16701
Y-8827
X-127189
Y-16701
X-119315Y-32449
Y-40323
Y-48197
Y-56071
X-111441Y-63945
X-107093Y-59659
X-101693Y-54759
X-96630Y-54158
X-91293Y-53359
X-95705Y-44363
X-98756
Y-41311
X-101807Y-44363
X-98756Y-47414
X-99446Y-33859
X-96493Y-34059
X-93354Y-33858
X-89417Y-31890
X-87819Y-16701
Y-953
X-95693
X-103567
X-105793Y-38859
X-154967
X-135063Y-63945
X-204141Y-38859
X-205929Y-32449
X-213803Y-24575
X-221677
Y-16701
Y-8827
X-205929Y-953
X-198055
X-190181
X-213803Y14796
X-221677
Y22670
Y30544
Y38418
Y46292
X-229551Y54166
X-237125Y59659
X-238425Y38859
X-237425Y30544
Y22670
Y-953
X-236939Y-31890
X-229551Y-24575
X-221677Y-32449
X-238815Y-53359
X-205627Y31890
X-201690Y33858
X-198551Y34059
X-195598Y33859
X-87819Y30544
X-244773Y33859
X-247725Y34059
X-250864Y33858
X-254801Y31890
X-248513Y44363
X-245462
Y41311
X-242411Y44363
X-245462Y47414
X-247588Y54158
X-242525Y54759
X-252925Y53359
X-261047Y54166
X-269685Y72441
Y76378
X-271260Y81102
X-252625Y81359
X-249525
X-246525
X-243525
X-241339Y69291
X-246457Y68504
X-289370Y68898
X-292913Y68110
X-292699Y81359
X-295699
X-298699
X-301799
X-318110Y82677
X-319685Y75984
X-314567Y72835
X-324039Y62040
X-335473Y59659
Y66535
X-331913Y54166
X-340873Y54759
X-345936Y54158
X-351273Y53359
X-346861Y44363
X-343810
Y41311
X-340759Y44363
X-343810Y47414
X-343121Y33859
X-346073Y34059
X-349212Y33858
X-353543Y32677
Y27953
X-363409Y22670
Y14796
X-371283
X-370472Y10630
X-368110Y9055
X-366142Y7087
X-364173Y5118
X-371283Y6922
X-379157
Y14796
Y22670
X-371283
Y30544
Y38418
Y46292
Y54166
X-379157
Y62040
Y69914
X-387031
X-389370Y74252
Y79252
X-382677Y79449
Y74449
Y84449
X-379157Y85662
X-372047Y88583
X-363409Y85662
X-371283Y77788
X-351378Y78740
X-352362Y75787
X-344873Y81359
X-341873
X-336773Y38859
X-324039Y38418
Y46292
X-308291Y54166
X-302099Y53359
X-296762Y54158
X-291699Y54759
X-294636Y47414
Y44363
X-297687
X-294636Y41311
X-291585Y44363
X-284669Y46292
X-287599Y38859
X-284669Y30544
X-293947Y33859
X-296899Y34059
X-300038Y33858
X-303975Y31890
X-316165Y30544
Y22670
Y14796
X-308291
X-331913
X-335827Y1575
X-355117Y2362
X-355118Y-3543
X-358268
X-361417
X-364567
X-367717
X-370866
X-371283Y-8827
Y-16701
X-363409
Y-24575
X-371283
Y-32449
Y-40323
Y-48197
Y-56071
X-363409
X-355535
X-352963Y-59659
X-355535Y-63945
X-371283
X-379157
Y-56071
Y-48197
Y-40323
Y-32449
Y-24575
Y-16701
X-387031
Y-24575
Y-32449
Y-40323
Y-48197
Y-56071
Y-63945
X-394905
Y-56071
Y-48197
Y-24575
X-387031Y6922
Y14796
Y22670
Y30544
X-379157
Y38418
Y46292
X-387031
Y54166
Y62040
X-394905
Y69914
Y77788
Y54166
Y46292
X-387031Y38418
X-394905Y30544
Y22670
X-363409Y46292
X-355535Y-32449
X-351663Y-38859
X-344626Y-41311
Y-44363
X-341575
X-347677
X-344626Y-47414
X-342500Y-54158
X-347563Y-54759
X-337163Y-53359
X-324039Y-56071
Y-48197
Y-40323
Y-24575
X-316165
X-308291
X-316165Y-16701
Y-8827
X-324039
Y-16701
X-335287Y-31890
X-339224Y-33858
X-342363Y-34059
X-345316Y-33859
X-302489Y-38859
X-295452Y-41311
Y-44363
X-292401
X-298503
X-295452Y-47414
X-293326Y-54158
X-298389Y-54759
X-303789Y-59659
X-308291Y-63945
X-287989Y-53359
X-276795Y-56071
X-254615Y-59659
X-249215Y-54759
X-244152Y-54158
X-246278Y-47414
Y-44363
X-243227
X-246278Y-41311
X-249329Y-44363
X-253315Y-38859
X-246968Y-33859
X-244015Y-34059
X-240876Y-33858
X-261047Y-24575
X-268921
Y-16701
Y-8827
X-253173Y-953
X-245299
X-268921Y14796
Y22670
X-276795Y14796
Y-24575
X-268921Y-32449
X-286113Y-31890
X-290050Y-33858
X-293189Y-34059
X-296142Y-33859
X-284669Y-16701
X-286299Y59659
X-398031Y74449
X-397835Y79626
X-398031Y84449
X-404725Y84252
X-404528Y79429
X-404725Y74252
X-410653Y-953
Y-8827
X-402779
X-410653Y-16701
Y-24575
Y-32449
Y-40323
Y-48197
Y-56071
Y-63945
X-393701Y89567
X-378346Y109449
Y114173
X-375984Y111811
Y107087
X-354724Y88976
X-331913Y195898
Y203772
X-339787
Y211646
X-347661
Y219520
X-355535
Y227394
X-363409
X-339787
X-324039
Y235268
X-316165
X-309400Y234000
X-309648Y230308
X-306548
X-303548
X-300548
X-300417Y235268
X-294300Y238900
X-291300
X-277700Y235000
X-264700Y235100
X-264411Y230308
X-261311
X-258311
X-255311
X-254100Y235100
X-251100Y235300
X-240600Y238300
X-248911Y208608
X-245299Y203772
X-254311Y203708
X-259374Y203107
X-264711Y202308
X-260299Y193311
X-257248
Y190260
X-254197Y193311
X-257248Y196362
X-256558Y182808
X-259511Y183008
X-262900Y182700
X-267100Y183300
X-276795Y172276
Y164402
X-284669
Y172276
X-295448Y187808
X-299434Y193311
X-302485
Y190260
Y196362
X-305536Y193311
X-304748Y183521
X-307701Y183491
X-311900Y183300
X-301795Y182808
X-304611Y203107
X-299548Y203708
X-294148Y208608
X-296047Y218832
X-299000Y218900
X-309948Y202308
X-322000Y212700
X-331913Y219520
Y235268
X-284669Y203772
X-250211Y187808
X-245299Y164402
X-394905Y211646
X-229551Y203772
X-219474Y202308
X-214137Y203107
X-209074Y203708
X-212011Y196362
Y193311
Y190260
X-215062Y193311
X-208960
X-204974Y187808
X-211321Y182808
X-214274Y183008
X-216800Y181300
X-220674Y183308
X-237425Y180150
Y172276
Y164402
X-190181
Y172276
Y180150
X-176200Y183300
X-172000Y183500
X-169037Y183008
X-166084Y182808
X-166774Y190260
Y193311
X-169825
X-163723
X-166774Y196362
X-168900Y203107
X-163837Y203708
X-158437Y208608
X-174237Y202308
X-173900Y229800
X-170551Y230123
X-167800Y231600
X-164837Y230308
X-152800Y235400
X-147378Y232622
X-147100Y239800
X-143700
X-128500Y235200
X-128700Y230308
X-125600
X-122600
X-119600
X-123100Y235300
X-104100
X-100300Y231600
X-98000Y239700
X-94900
X-89700Y239300
X-95693Y203772
Y195898
X-103567Y203772
X-111441
X-113200Y208608
X-118600Y203708
X-123663Y203107
X-129000Y202308
X-135063Y203772
X-124588Y193311
X-121537
Y190260
X-118486Y193311
X-121537Y196362
X-111441Y195898
Y188024
X-114500Y187808
X-111441Y180150
X-120847Y182808
X-123800Y183008
X-127200Y183600
X-131400Y183300
X-142937Y180150
Y172276
Y164402
X-158685Y180150
X-159737Y187808
X-174433Y172276
X-203674Y208608
X-202700Y235200
X-206900
X-210074Y230308
X-213074
X-216074
X-219174
X-217700Y238000
X-227000Y237900
X-235600Y235200
X-192700Y239000
X-190100Y237400
X-181500Y237700
X-175000Y237300
X-83763Y202308
X-86200Y183300
X-95693Y172276
Y164402
X-103567
Y172276
Y93536
X-110630Y92913
X-119685Y90551
X-122835
X-120866Y96850
X-135063Y93536
X-133071Y88976
X-142937Y93536
X-150811
X-158268Y91339
X-167323Y93701
X-171260Y90945
X-174409
X-95693Y93536
X-76378Y90158
X-72835
X-70079Y95276
X-60236Y91732
X-48449Y93536
X-40574
X-48449Y101410
X-56323
X-20472Y89764
X5847Y133802
X8800Y133800
X21500Y141200
X23100Y154900
X20564Y167706
X16579Y173209
X13528
Y170158
X10476Y173209
X13528Y176260
X11401Y183005
X16465Y183606
X21865Y188505
X6064Y182205
X4078Y163000
X8278Y162900
X11265Y162906
X14217Y162706
X49315Y163000
X53515Y162900
X56502Y162906
X59454Y162706
X58765Y170158
Y173209
X55713
X58765Y176260
X61816Y173209
X69662Y172276
Y164402
X65802Y167706
X67700Y155600
X67500Y139600
X53900Y135100
X51000Y133700
X37600Y128200
X34500Y127600
X51301Y182205
X56638Y183005
X61702Y183606
X67102Y188505
X60715Y210000
X57715
X54702Y210206
X51615Y210000
X53914Y219520
X61788
X69662
X46040
X38166
X30292
X22418
Y227394
X14544
Y219520
X6670
Y227394
Y235268
X-1204
Y227394
Y219520
X6378Y210000
X9465Y210206
X12478Y210000
X15478
X30292Y203772
X-22726Y208608
X-28126Y203708
X-33189Y203107
X-38526Y202308
X-48449Y203772
X-64197
X-67963Y208608
X-73363Y203708
X-78426Y203107
X-76300Y196362
Y193311
X-79351
X-76300Y190260
X-73249Y193311
X-69263Y187808
X-75610Y182808
X-78563Y183008
X-82000Y183500
X-56323Y180150
Y172276
Y164402
X-40700Y182400
X-36300Y182700
X-33326Y183008
X-30373Y182808
X-31063Y190260
Y193311
X-28012
X-34114
X-31063Y196362
X-24026Y187808
X-29126Y230308
X-32100Y230300
X-35126Y230308
X-38226
X-38800Y235100
X-34600
X-16900Y234500
X-9078Y235268
X-52200Y239800
X-55300Y239838
X-63000Y235400
X-67900Y235500
X-74363Y230308
X-77363
X-80363
X-83463
X-82400Y238700
X77536Y219520
X85410
X93284
X101158
X99938Y210206
X102952Y210000
X105952
X96852
X77536Y203772
Y172276
Y164402
X94552Y163000
X98752Y162900
X101739Y162906
X104691Y162706
X104002Y170158
Y173209
X100950
X107053
X104002Y176260
X102200Y183000
X98000Y183600
X92600Y183200
X106939Y183606
X112338Y188505
X124780Y188024
Y195898
Y203772
X142089Y210000
X145176Y210206
X148189Y210000
X151189
X152175Y183606
X147113Y183005
X141776Y182205
X146187Y173209
X149239
X152000Y173200
X149239Y170158
Y176260
X149928Y162706
X146976Y162906
X143989Y162900
X139789Y163000
X124780Y164402
Y172276
Y156528
X113100Y154400
Y139900
X99700Y133900
X96700
X83153Y127985
X80000Y127900
X124900Y128000
X127900
X141900Y134000
X145200Y134100
X156500Y139400
X159800Y153900
X156275Y167706
X157576Y188505
X187013Y182205
X192350Y183005
X197413Y183606
X194475Y176260
Y173209
Y170158
X191424Y173209
X197527
X201513Y167706
X195165Y162706
X192212Y162906
X189226Y162900
X185026Y163000
X203700Y154100
X203800Y137600
X188200Y133900
X185500Y132400
X173300Y128200
X170200Y128100
X215247Y128357
X218200Y128500
X219268Y188024
Y195898
Y203772
X211394
X196426Y210000
X193426
X190412Y210206
X187326Y210000
X202813Y188505
X226900Y183100
X111038Y167706
X230263Y163000
X234463Y162900
X237450Y162906
X240402Y162706
X239713Y170158
Y173209
X236661
X242764
X239713Y176260
X237586Y183005
X242650Y183606
X248049Y188505
X250764Y172276
Y164402
X246749Y167706
X251300Y153900
X248800Y150200
X235016Y140780
X231900Y133600
X231200Y130600
X260447Y128320
X263400Y128600
X263800Y138800
X265500Y142000
X275500Y163000
X279700Y162900
X282686Y162906
X285639Y162706
X287800Y159000
X291000Y161800
X291986Y167706
X288001Y173209
X284949
Y170158
X281898Y173209
X284949Y176260
X282824Y183005
X287887Y183606
X293286Y188505
X305882Y195898
Y203772
X322661Y210376
X325761
X328761
X331800Y209400
X335400Y209700
X338161Y188676
X338700Y181500
X332761Y183776
X327698Y183176
X323237Y181797
X319300Y186128
X326773Y173380
X329824
Y170329
Y176431
X332876Y173380
X336861Y167876
X330514Y162876
X327561Y163076
X324535Y163095
X320335Y163395
X321630Y148654
X334200Y141400
X335300Y138400
X339500Y139900
X339800Y143000
X358268Y140748
X360236Y142717
X356299Y138779
X354331Y136811
X353127Y172276
X354900Y180300
X353127Y195898
X350600Y198700
X368875Y164402
X307300Y140000
X308400Y137000
X318701Y94705
X321654Y94882
X333465Y97244
X339567Y97441
X270472Y90551
X267716Y88976
X277486Y182205
X277800Y210000
X280887Y210206
X283900Y210000
X286900
X258638Y203772
X241663Y210000
X238663
X235649Y210206
X232563Y210000
X232249Y182205
X408245Y180150
Y188024
Y195898
Y203772
Y211646
Y219520
Y227394
Y235268
Y243142
Y172276
Y164402
Y156528
Y148654
Y140780
Y132906
Y125032
Y117158
Y109284
Y101410
Y93536
Y251016
Y258890
X408500Y264300
X407900Y272800
X393400Y271600
X393300Y268600
X393700Y274800
Y278000
Y281200
X393800Y285600
X394200Y289300
X393300Y300100
X393700Y304000
X398031Y314252
Y319252
X404725Y319449
Y314449
X389370
Y319449
X392717Y340551
X389500Y354800
X388400Y358300
X386500Y361200
X392497Y361252
X400371
X408245
Y369127
Y377000
Y384875
Y392748
Y400623
X400371Y377000
Y369127
X392497
Y377000
X400371Y353378
X408245
Y345504
X406496Y330527
X382874Y336614
X368875Y337630
X368200Y353300
X375200Y349400
X382873Y365157
X384842Y368110
X380906Y370079
X384623Y377000
Y384875
X376748
Y392748
Y400623
X368875
Y392748
Y384875
Y377000
X376748
X361000
Y384875
Y392748
Y400623
X353127
Y392748
Y384875
Y377000
X345252
Y384875
Y392748
Y400623
X337378
Y392748
Y384875
Y377000
X329504
Y384875
Y392748
Y400623
X319449Y398031
X314449
X309449
X304449
X299449
X294449
X289449
X284449
X279449
X274449
X269449
X264449
X259449
X254449
X249449
X244449
X239449
X234449
X229449
X229252Y389370
X234252
X235016Y392748
X242890
X244252Y389370
X239469Y389173
X239665Y382480
X244449Y382677
X249449
X254449
X259449
X264272Y382480
X269449Y382677
X274449
X279449
X284449
X289665Y382480
X294449Y382677
X299449
X304449
X309449
X314272Y382480
X319449Y382677
X319252Y389370
X314075Y389173
X313756Y392748
X321630
Y377000
X313756
X305882
X298008
X290134
X282260
X274386
X266512
X258638
X250764
X242890
X235016
X234449Y382677
X229449
X249252Y389370
X250764Y392748
X254252Y389370
X259252
X258638Y392748
X266512
X264075Y389173
X269252Y389370
X274252
X274386Y392748
X282260
X284252Y389370
X279252
X289469Y389173
X290134Y392748
X294252Y389370
X299252
X298008Y392748
X305882
X304252Y389370
X309252
X313756Y345504
X321630
Y337630
Y329756
Y314008
Y306134
Y298260
Y282512
X337378Y290386
X335800Y304800
X340000Y304300
X342963Y304481
X345916Y304281
X345226Y311734
Y314785
X342175
X345226Y317836
X348277Y314785
X352263Y309281
X348163Y325181
X343100Y324580
X337763Y323781
X353563Y330081
X347163Y351781
X344163
X341163
X338063
X297989
X294989
X291989
X288889
X274386Y345504
Y337630
Y329756
Y321882
X266512Y329756
Y337630
Y345504
X248815Y351781
X245815
X242815
X239715
X239415Y323781
X244752Y324580
X249815Y325181
X246878Y317836
Y314785
X243827
X246878Y311734
X249929Y314785
X258638Y314008
X266512
Y306134
X258638
X253915Y309281
X247568Y304281
X244615Y304481
X241600Y304500
X237400Y304800
X255215Y330081
X288589Y323781
X293926Y324580
X298989Y325181
X305882Y321882
Y314008
X303089Y309281
X305882Y306134
X313756
Y314008
X299103Y314785
X296052
X293001
X296052Y311734
Y317836
X296742Y304281
X293789Y304481
X290800Y304300
X286600Y304800
X305882Y298260
Y290386
X274386
Y282512
X266512
Y290386
X304389Y330081
X378300Y316100
X378800Y311700
X382677Y314252
Y319252
X374016Y310039
X370800Y307600
X373300Y302900
X379000Y304300
X377300Y296900
X379000Y289200
X379400Y279300
X376800Y274700
X377100Y270300
X372900Y272300
X378500Y264500
X370800Y284400
X368900Y294800
X366300Y296400
X349700Y276200
X337800Y274800
X227142Y282512
X219268
Y290386
Y306134
Y314008
Y329756
Y337630
X227142
Y345504
X219268
X199641Y351781
X196641
X193641
X190541
X187772Y369127
X195646
Y377000
X194449Y382677
X189665Y382480
X184449Y382677
X179449
X174449
X169449
X164272Y382480
X159449Y382677
X154449
X149449
X144449
X139665Y382480
X134449Y382677
X129449
X124449
X119449
X114272Y382480
X109449Y382677
X104449
X99449
X94449
X89665Y382480
X84449Y382677
X79449
X74449
X74252Y389370
X79252
X84252
X85410Y392748
X84449Y398031
X79449
X74449
X77536Y392748
X89468Y389173
X94252Y389370
X93284Y392748
X94449Y398031
X89449
X99449
X104449
X109449
X114449
X119449
X124449
X129449
X134449
X139449
X144449
X149449
X154449
X159449
X164449
X169449
X174449
X179449
X184449
X189449
X194449
X199449
X204449
X209449
X214449
X219449
X224449
X227142Y392748
X224252Y389370
X219252
X219268Y392748
X211394
X209252Y389370
X204252
X203520Y392748
X199252Y389370
X194252
X195646Y392748
X187772
X189469Y389173
X184252Y389370
X179252
X179898Y392748
X172024
X174252Y389370
X169252
X164075Y389173
X164150Y392748
X156276
X154252Y389370
X149252
X148402Y392748
X144252Y389370
X139469Y389173
X140528Y392748
X132654
X134252Y389370
X129252
X124252
X124780Y392748
X116906
X119252Y389370
X114075Y389173
X109252Y389370
X109032Y392748
X101158
X99252Y389370
X104252
X101158Y377000
X109032
X116906
X124780
X132654
X140528
X148402
X156276
X164150
X172024
X179898
X187772
X203520
X204449Y382677
X199449
X209449
X214272Y382480
X219449Y382677
X224449
X227142Y377000
X219268
X211394
X214075Y389173
X179898Y369127
X172024
X164150
X156276
X148402
X140528
X132654
X124780
X116906
X109032
X101158
X93284
Y377000
X85410
Y369127
X77536
Y377000
Y345504
Y337630
Y329756
X91893Y323781
X97230Y324580
X102293Y325181
X99356Y317836
Y314785
X96305
X99356Y311734
X102407Y314785
X109032Y314008
X106393Y309281
X109032Y306134
X100046Y304281
X97093Y304481
X94100Y304400
X89900Y304600
X93100Y273500
X97000
X104500Y279900
X107700Y281500
X122622Y271000
X126100
X121900Y295500
X120700Y300700
X116906Y314008
X124780Y321882
Y329756
Y337630
Y345504
X116906
X101293Y351781
X98293
X95293
X92193
X107693Y330081
X141067Y323781
X146404Y324580
X151467Y325181
X148530Y317836
Y314785
X145479
X148530Y311734
X151581Y314785
X155567Y309281
X156276Y306134
X149220Y304281
X146267Y304481
X143300Y304400
X139100Y304800
X156276Y282512
X158400Y272400
X154300Y272200
X170100Y270700
X173100Y271500
X178300Y284600
X176800Y292500
X173800Y295700
X179000Y296500
X176800Y300900
X178700Y303200
X188200Y304800
X192400Y304400
X195441Y304481
X198394Y304281
X197704Y311734
Y314785
X194653
X200755
X197704Y317836
X195578Y324580
X200641Y325181
X206041Y330081
X190600Y323800
X179898Y314008
X204741Y309281
X156867Y330081
X150467Y351781
X147467
X144467
X141367
X159252Y389370
X76000Y266000
X72900Y265700
X62000Y284300
X60000Y296000
X61788Y306134
X57219Y309281
X50182Y311734
Y314785
X47131
X53233
X50182Y317836
X48056Y324580
X53119Y325181
X58519Y330081
X69662Y337630
Y345504
Y369127
Y377000
Y384875
Y392748
Y400623
X61788
Y392748
Y384875
Y377000
Y369127
X53914
Y377000
Y384875
Y392748
Y400623
X46040
Y392748
Y384875
Y377000
Y369127
X38166
Y377000
Y384875
Y392748
Y400623
X30292
Y392748
Y384875
Y377000
Y369127
X22418
Y377000
Y384875
Y392748
Y400623
X14544
Y392748
Y384875
Y377000
Y369127
X6670
Y377000
Y384875
Y392748
Y400623
X-1204
Y392748
Y384875
Y377000
Y369127
X-9078
Y377000
Y384875
Y392748
Y400623
X-16952
Y392748
Y384875
Y377000
Y369127
X-24826
Y377000
Y384875
Y392748
Y400623
X-32700
Y392748
Y384875
Y377000
Y369127
X-40574
Y377000
Y384875
Y392748
Y400623
X-48449
Y392748
Y384875
Y377000
Y369127
X-56323
Y377000
Y384875
Y392748
Y400623
X-64197
Y392748
Y384875
Y377000
Y369127
X-72071
Y377000
X-74252Y382677
X-79429Y382480
X-79945Y377000
Y369127
X-79626Y389173
X-79945Y392748
X-79252Y398031
X-74252
X-72071Y392748
X-74449Y389370
X-72071Y345504
Y337630
Y329756
X-55629Y323781
X-50292Y324580
X-45229Y325181
X-48166Y317836
Y314785
X-45115
X-51217
X-48166Y311734
X-47476Y304281
X-50429Y304481
X-53400Y304000
X-57600Y304800
X-41129Y309281
X-39800Y301600
X-38600Y286500
X-40574Y282512
X-52100Y274900
X-55500
X-71400Y271500
X-74400Y271700
X-77600Y281800
Y303100
X-79945Y314008
Y345504
X-55329Y351781
X-52229
X-49229
X-46229
X-24826Y345504
Y337630
Y329756
X-39829Y330081
X-24826Y314008
Y306134
X-11789Y304059
X-7655Y304781
X-1255Y304481
X1698Y304281
X1008Y311734
Y314785
X3800Y314800
X1008Y317836
X-2043Y314785
X-1118Y324580
X3945Y325181
X9345Y330081
X22418Y329756
Y337630
Y345504
X2945Y351781
X-55
X-3055
X-6155
X-6455Y323781
X8045Y309281
X10100Y297100
X22418Y298260
Y306134
Y314008
X37385Y304059
X41519Y304781
X47919Y304481
X50872Y304281
X69662Y306134
Y314008
Y321882
X42719Y323781
X43019Y351781
X46119
X49119
X52119
X46000Y273000
X41300Y273200
X27753Y271142
X24100Y271100
X8400Y281800
X-4000Y275300
X-6700Y273700
X-20700Y269800
X-25300Y269000
X-101700Y274100
X-104900Y273900
X-120300Y271300
X-123400
X-139300Y282200
X-137300Y296400
X-135063Y306134
X-139477Y309281
X-135063Y314008
X-127189
Y321882
Y337630
Y345504
Y369127
X-119315
X-111441
X-103567
X-95693
X-87819
Y377000
X-89252Y382677
X-94252
X-99252
X-104035Y382480
X-109252Y382677
X-114252
X-119252
X-124252
X-129429Y382480
X-134252Y382677
X-139252
X-144252
X-149252
X-154035Y382480
X-159252Y382677
X-164252
X-169252
X-174252
X-179429Y382480
X-184252Y382677
X-189252
X-194252
X-199252
X-204035Y382480
X-209252Y382677
X-214252
X-219252
X-224252
X-229429Y382480
X-234252Y382677
X-239252
X-239449Y389370
X-234449
X-229626Y389173
X-229551Y392748
X-229252Y398031
X-234252
X-239252
X-237425Y392748
X-221677
X-219449Y389370
X-214449
X-213803Y392748
X-214252Y398031
X-219252
X-224252
X-224449Y389370
X-209449
X-204232Y389173
X-199449Y389370
X-198055Y392748
X-199252Y398031
X-204252
X-209252
X-205929Y392748
X-194449Y389370
X-189449
X-190181Y392748
X-189252Y398031
X-194252
X-184252
X-179252
X-174252
X-169252
X-164252
X-159252
X-154252
X-149252
X-144252
X-139252
X-134252
X-129252
X-124252
X-119252
X-114252
X-109252
X-104252
X-99252
X-94252
X-89252
X-84252
X-87819Y392748
X-89449Y389370
X-94449
X-95693Y392748
X-99449Y389370
X-104232Y389173
X-103567Y392748
X-111441
X-109449Y389370
X-114449
X-119449
X-119315Y392748
X-127189
X-129626Y389173
X-134449Y389370
X-135063Y392748
X-139449Y389370
X-144449
X-142937Y392748
X-150811
X-149449Y389370
X-154232Y389173
X-159449Y389370
X-158685Y392748
X-166559
X-164449Y389370
X-169449
X-174449
X-174433Y392748
X-182307
X-184449Y389370
X-179626Y389173
X-182307Y377000
X-174433
X-166559
X-158685
X-150811
X-142937
X-135063
X-127189
X-119315
X-111441
X-103567
X-95693
X-84252Y382677
X-84449Y389370
X-124449
X-135063Y369127
X-142937
X-150811
X-158685
X-166559
X-174433
X-182307
X-190181
Y377000
X-198055
Y369127
X-205929
Y377000
X-213803
Y369127
X-221677
Y377000
X-229551
Y369127
X-237425
Y377000
X-221677Y345504
Y337630
Y329756
X-236525Y330081
X-237825Y309281
X-235900Y297100
X-221677Y298260
Y306134
Y314008
X-198739Y314785
X-195688
Y311734
X-192637Y314785
X-195688Y317836
X-197814Y324580
X-192751Y325181
X-187351Y330081
X-174433Y329756
Y337630
Y345504
X-193751Y351781
X-196751
X-199751
X-202851
X-205929Y345504
X-208466Y325570
X-203151Y323781
X-205200Y304800
X-201000Y303900
X-197951Y304481
X-194999Y304281
X-188651Y309281
X-187100Y297600
X-174433Y298260
Y306134
Y314008
X-158685Y306134
X-156000Y304800
X-151800Y304000
X-148777Y304481
X-145824Y304281
X-146514Y311734
Y314785
X-149565
X-146514Y317836
X-143463Y314785
X-143577Y325181
X-148640Y324580
X-153977Y323781
X-138177Y330081
X-144577Y351781
X-147577
X-150577
X-153677
X-104503
X-101403
X-98403
X-95403
X-94403Y325181
X-99466Y324580
X-104803Y323781
X-97340Y317836
Y314785
X-100391
X-97340Y311734
X-94289Y314785
X-87819Y314008
X-90303Y309281
X-87819Y306134
X-96650Y304281
X-99603Y304481
X-102600Y303700
X-106800Y304800
X-127189Y306134
X-87819Y321882
X-89003Y330081
X-150300Y273400
X-154000Y273300
X-169300Y271400
X-172700Y271500
X-187500Y282400
X-200300Y275100
X-203500Y275000
X-218600Y271600
X-221600
X-238000Y281800
X-249000Y275900
X-252000
X-267900Y271700
X-271400
X-286500Y281100
X-283000Y295100
X-286999Y309281
X-294036Y311734
Y314785
X-290985
X-294036Y317836
X-297087Y314785
X-296162Y324580
X-291099Y325181
X-285699Y330081
X-268921Y329756
Y337630
Y345504
X-276795
X-292099Y351781
X-295099
X-298099
X-301199
X-300417Y369127
X-292543
X-284669
X-276795
X-268921
X-261047
X-253173
X-245299
Y377000
X-244252Y382677
X-249252
X-254035Y382480
X-259252Y382677
X-264252
X-269252
X-274252
X-279429Y382480
X-284252Y382677
X-289252
X-294252
X-299252
X-304035Y382480
X-309252Y382677
X-314252
X-319252
X-319449Y389370
X-314449
X-309449
X-308291Y392748
X-309252Y398031
X-304252
X-299252
X-294252
X-289252
X-284252
X-279252
X-274252
X-269252
X-264252
X-259252
X-254252
X-249252
X-244252
X-245299Y392748
X-244449Y389370
X-249449
X-254232Y389173
X-253173Y392748
X-261047
X-259449Y389370
X-264449
X-269449
X-268921Y392748
X-276795
X-274449Y389370
X-279626Y389173
X-284449Y389370
X-284669Y392748
X-292543
X-294449Y389370
X-289449
X-299449
X-300417Y392748
X-304232Y389173
X-316165Y392748
X-314252Y398031
X-319252
X-324039Y400623
Y392748
Y384875
Y377000
X-316165
X-308291
X-300417
X-292543
X-284669
X-276795
X-268921
X-261047
X-253173
X-252025Y351781
X-248925
X-245925
X-242925
X-241925Y325181
X-246988Y324580
X-252325Y323781
X-247913Y314785
X-244862
X-242100Y314800
X-244862Y317836
Y311734
X-244173Y304281
X-247125Y304481
X-250100Y304100
X-254300Y304800
X-276795Y314008
X-293347Y304281
X-296299Y304481
X-299300Y304000
X-303500Y304800
X-301499Y323781
X-324039Y321882
Y314008
Y306134
X-331913
X-336168Y309201
X-331913Y314008
X-340154Y314704
X-343205
Y311653
X-346256Y314704
X-343205Y317756
X-345331Y324500
X-340268Y325101
X-334868Y330001
X-331913Y345504
X-341268Y351701
X-344268
X-347268
X-350368
X-365158Y350394
X-363409Y345504
X-368110Y344488
X-372047Y347441
X-371283Y353378
X-379921Y353346
X-387031Y353378
Y361252
X-379157
Y369127
X-371283
X-363409
X-355535
X-347661
X-339787
X-331913
X-324039
X-316165
X-308291
X-331913Y377000
Y384875
Y392748
Y400623
X-339787
Y392748
Y384875
Y377000
X-347661
Y384875
Y392748
Y400623
X-355535
Y392748
Y384875
Y377000
X-363409
Y384875
Y392748
Y400623
X-371283
Y392748
Y384875
Y377000
X-379157
Y384875
Y392748
Y400623
X-387031Y377000
Y369127
X-394905Y377000
Y353378
X-379157Y345504
Y337630
Y329756
X-387031
Y337630
X-389370Y319252
Y314252
X-394905Y314008
X-382677Y314449
X-382677Y319291
X-368110Y310039
X-369208Y303543
X-367633Y301969
X-370866Y305118
X-363409Y314008
X-353346Y303149
X-348425Y304133
X-345468Y304401
X-342515Y304201
X-350668Y323701
X-352362Y327756
X-341535Y361221
X-348031Y278740
X-350000Y280709
X-324039Y282512
X-301600Y273800
X-298290Y273910
X-394905Y266764
X-398031Y314449
X-404725Y314252
Y319252
X-410653Y329756
Y337630
X-402779
Y345504
Y353378
Y361252
Y369127
Y377000
Y384875
X-410653
Y392748
Y400623
Y377000
Y369127
Y361252
Y353378
Y345504
Y408497
X-402779
X-394905
X-387031
X-379157
X-371283
X-363409
X-355535
X-347661
X-339787
X-331913
X-324039
X-316165
X-314449Y404725
X-309449
X-308291Y408497
X-304449Y404725
X-299449
X-300417Y408497
X-292543
X-294449Y404725
X-289449
X-284449
X-284669Y408497
X-276795
X-274449Y404725
X-269449
X-268921Y408497
X-261047
X-259449Y404725
X-264449
X-254449
X-249449
X-244449
X-245299Y408497
X-253173
X-279449Y404725
X-319449
X-239449
X-234449
X-229449
X-229551Y408497
X-221677
X-219449Y404725
X-214449
X-213803Y408497
X-205929
X-204449Y404725
X-209449
X-199449
X-194449
X-189449
X-190181Y408497
X-182307
X-184449Y404725
X-179449
X-174449
X-174433Y408497
X-166559
X-164449Y404725
X-169449
X-159449
X-158685Y408497
X-150811
X-149449Y404725
X-154449
X-144449
X-139449
X-134449
X-135063Y408497
X-127189
X-129449Y404725
X-124449
X-119449
X-119315Y408497
X-111441
X-109449Y404725
X-114449
X-104449
X-103567Y408497
X-95693
X-94449Y404725
X-99449
X-89449
X-84449
X-87819Y408497
X-142937
X-198055
X-224449Y404725
X-237425Y408497
X-79945
X-79449Y404725
X-74449
X-72071Y408497
X-64197
X-56323
X-48449
X-40574
X-32700
X-24826
X-16952
X-9078
X-1204
X6670
X14544
X22418
X30292
X38166
X46040
X53914
X61788
X69662
X77536
X79252Y404725
X74252
X84252
X85410Y408497
X89252Y404725
X94252
X93284Y408497
X101158
X99252Y404725
X104252
X109252
X109032Y408497
X116906
X119252Y404725
X124252
X124780Y408497
X132654
X134252Y404725
X129252
X139252
X144252
X149252
X148402Y408497
X156276
X154252Y404725
X159252
X164252
X164150Y408497
X172024
X174252Y404725
X179252
X179898Y408497
X187772
X189252Y404725
X184252
X194252
X199252
X204252
X203520Y408497
X211394
X209252Y404725
X214252
X219252
X219268Y408497
X227142
X224252Y404725
X195646Y408497
X169252Y404725
X140528Y408497
X114252Y404725
X229252
X234252
X235016Y408497
X242890
X244252Y404725
X239252
X249252
X254252
X259252
X258638Y408497
X266512
X264252Y404725
X269252
X274252
X274386Y408497
X282260
X284252Y404725
X279252
X289252
X290134Y408497
X298008
X299252Y404725
X294252
X304252
X309252
X314252
X313756Y408497
X321630
X319252Y404725
X329504Y408497
X337378
X345252
X353127
X361000
X368875
X376748
X384623
X305882
X250764
X392497
X400371
X408245
T02
X373400Y-321200
Y-231200
X-356299Y-162402
X-364173
X-372047
X-364173Y-96457
X-356299
X-372047Y-72402
X372047Y72402
X-373400Y231200
X356299Y162402
X364173
X372047
X364173Y96457
X356299
X-373400Y321200
T03
X230087Y-349805
Y-339805
Y-329805
Y-319805
Y-309805
Y-299805
Y-289805
Y-279805
X260087
Y-289805
Y-299805
Y-309805
Y-319805
Y-329805
Y-339805
Y-349805
X279261
Y-339805
Y-329805
Y-319805
Y-309805
Y-299805
Y-289805
Y-279805
X309261
Y-289805
Y-299805
Y-309805
Y-319805
Y-329805
Y-339805
Y-349805
X328429Y-349724
Y-339724
Y-329724
Y-319724
Y-309724
Y-299724
Y-289724
Y-279724
X358429
Y-289724
Y-299724
Y-309724
Y-319724
Y-329724
Y-339724
Y-349724
X317709Y-228331
X287709
X272472
X242472
X227235
X197235
X181998
X151998
X136761
X106761
X91524
X82565Y-279805
Y-289805
Y-299805
Y-309805
Y-319805
Y-329805
Y-339805
Y-349805
X112565
Y-339805
Y-329805
Y-319805
Y-309805
Y-299805
Y-289805
Y-279805
X131739
Y-289805
Y-299805
Y-309805
Y-319805
Y-329805
Y-339805
Y-349805
X161739
Y-339805
Y-329805
Y-319805
Y-309805
Y-299805
Y-289805
Y-279805
X180913
Y-289805
Y-299805
Y-309805
Y-319805
Y-329805
Y-339805
Y-349805
X210913
Y-339805
Y-329805
Y-319805
Y-309805
Y-299805
Y-289805
Y-279805
X63390
Y-289805
Y-299805
Y-309805
Y-319805
Y-329805
Y-339805
Y-349805
X33390
Y-339805
Y-329805
Y-319805
Y-309805
Y-299805
Y-289805
Y-279805
X14216
Y-289805
Y-299805
Y-309805
Y-319805
Y-329805
Y-339805
Y-349805
X-15784
Y-339805
Y-329805
Y-319805
Y-309805
Y-299805
Y-289805
Y-279805
X-34958
Y-289805
Y-299805
Y-309805
Y-319805
Y-329805
Y-339805
Y-349805
X-64958
Y-339805
Y-329805
Y-319805
Y-309805
Y-299805
Y-289805
Y-279805
X16287Y-228331
X46287
X61524
X-84132Y-279805
Y-289805
Y-299805
Y-309805
Y-319805
Y-329805
Y-339805
Y-349805
X-114132
Y-339805
Y-329805
Y-319805
Y-309805
Y-299805
Y-289805
Y-279805
X-133306
Y-289805
Y-299805
Y-309805
Y-319805
Y-329805
Y-339805
Y-349805
X-163306
Y-339805
Y-329805
Y-319805
Y-309805
Y-299805
Y-289805
Y-279805
X-182480
Y-289805
Y-299805
Y-309805
Y-319805
Y-329805
Y-339805
Y-349805
X-212480
Y-339805
Y-329805
Y-319805
Y-309805
Y-299805
Y-289805
Y-279805
X-231654
Y-289805
Y-299805
Y-309805
Y-319805
Y-329805
Y-339805
Y-349805
X-261654
Y-339805
Y-329805
Y-319805
Y-309805
Y-299805
Y-289805
Y-279805
X-280828
Y-289805
Y-299805
Y-309805
Y-319805
Y-329805
Y-339805
Y-349805
X-310828
Y-339805
Y-329805
Y-319805
Y-309805
Y-299805
Y-289805
Y-279805
X-330002
Y-289805
Y-299805
Y-309805
Y-319805
Y-329805
Y-339805
Y-349805
X-360002
Y-339805
Y-329805
Y-319805
Y-309805
Y-299805
Y-289805
Y-279805
X-344600Y-208400
Y-198400
Y-188400
Y-178400
Y-168400
Y-158400
Y-148400
Y-138400
X-314600
Y-148400
Y-158400
Y-168400
Y-178400
Y-188400
Y-198400
Y-208400
X-299725Y-208229
Y-198229
Y-188229
Y-178229
Y-168229
Y-158229
Y-148229
Y-138229
X-269725
Y-148229
Y-158229
Y-168229
Y-178229
Y-188229
Y-198229
Y-208229
X-254488
Y-198229
Y-188229
Y-178229
Y-168229
Y-158229
Y-148229
Y-138229
X-261054Y-79383
Y-69383
X-280228
Y-79383
X-310228
Y-69383
X-329402
Y-79383
X-359402
Y-69383
X-231054
Y-79383
X-211880
Y-69383
X-181880
Y-79383
X-162706
Y-69383
X-132706
Y-79383
X-113532
Y-69383
X-118777Y-138229
Y-148229
Y-158229
Y-168229
Y-178229
Y-188229
Y-198229
Y-208229
X-134014
Y-198229
Y-188229
Y-178229
Y-168229
Y-158229
Y-148229
Y-138229
X-164014
Y-148229
Y-158229
Y-168229
Y-178229
Y-188229
Y-198229
Y-208229
X-179251
Y-198229
Y-188229
Y-178229
Y-168229
Y-158229
Y-148229
Y-138229
X-209251
Y-148229
Y-158229
Y-168229
Y-178229
Y-188229
Y-198229
Y-208229
X-224488
Y-198229
Y-188229
Y-178229
Y-168229
Y-158229
Y-148229
Y-138229
X-88777
Y-148229
Y-158229
Y-168229
Y-178229
Y-188229
Y-198229
Y-208229
X-73540
Y-198229
Y-188229
Y-178229
Y-168229
Y-158229
Y-148229
Y-138229
X-43540
Y-148229
Y-158229
Y-168229
Y-178229
Y-188229
Y-198229
Y-208229
X-28303
Y-198229
Y-188229
Y-178229
Y-168229
Y-158229
Y-148229
Y-138229
X1697
Y-148229
Y-158229
Y-168229
Y-178229
Y-188229
Y-198229
Y-208229
X16287Y-208331
Y-198331
Y-188331
Y-178331
Y-168331
Y-158331
X46287
Y-168331
Y-178331
Y-188331
Y-198331
Y-208331
Y-218331
X61524
Y-208331
Y-198331
Y-188331
Y-178331
Y-168331
Y-158331
X63990Y-79383
Y-69383
X33990
Y-79383
X14816
Y-69383
X-15184
Y-79383
X-34358
Y-69383
X-64358
Y-79383
X-83532
Y-69383
X16287Y-218331
X91524
Y-208331
Y-198331
Y-188331
Y-178331
Y-168331
Y-158331
X106761
Y-168331
Y-178331
Y-188331
Y-198331
Y-208331
Y-218331
X136761
Y-208331
Y-198331
Y-188331
Y-178331
Y-168331
Y-158331
X151998
Y-168331
Y-178331
Y-188331
Y-198331
Y-208331
Y-218331
X181998
Y-208331
Y-198331
Y-188331
Y-178331
Y-168331
Y-158331
X197235
Y-168331
Y-178331
Y-188331
Y-198331
Y-208331
Y-218331
X227235
Y-208331
Y-198331
Y-188331
Y-178331
Y-168331
Y-158331
X211513Y-79383
Y-69383
X181513
Y-79383
X162339
Y-69383
X132339
Y-79383
X113165
Y-69383
X83165
Y-79383
X230687
Y-69383
X260687
Y-79383
X279861
Y-69383
X309861
Y-79383
X329035
Y-69383
X359035
Y-79383
X317709Y-158331
Y-168331
Y-178331
Y-188331
Y-198331
Y-208331
Y-218331
X287709
Y-208331
Y-198331
Y-188331
Y-178331
Y-168331
Y-158331
X272472
Y-168331
Y-178331
Y-188331
Y-198331
Y-208331
Y-218331
X242472
Y-208331
Y-198331
Y-188331
Y-178331
Y-168331
Y-158331
X230687Y-59383
Y-49383
Y-39383
Y-29383
Y-19383
Y-9383
X231054Y9383
Y19383
Y29383
Y39383
Y49383
Y59383
Y69383
Y79383
X261054
Y69383
Y59383
Y49383
Y39383
Y29383
Y19383
Y9383
X260687Y-9383
Y-19383
Y-29383
Y-39383
Y-49383
Y-59383
X279861
Y-49383
Y-39383
Y-29383
Y-19383
Y-9383
X280228Y9383
Y19383
Y29383
Y39383
Y49383
Y59383
Y69383
Y79383
X310228
Y69383
Y59383
Y49383
Y39383
Y29383
Y19383
Y9383
X309861Y-9383
Y-19383
Y-29383
Y-39383
Y-49383
Y-59383
X329035
Y-49383
Y-39383
Y-29383
Y-19383
Y-9383
X329402Y9383
Y19383
Y29383
Y39383
Y49383
Y59383
Y69383
Y79383
X359402
Y69383
Y59383
Y49383
Y39383
Y29383
Y19383
Y9383
X359035Y-9383
Y-19383
Y-29383
Y-39383
Y-49383
Y-59383
X211513
Y-49383
Y-39383
Y-29383
Y-19383
Y-9383
X211880Y9383
Y19383
Y29383
Y39383
Y49383
Y59383
Y69383
Y79383
X181880
Y69383
Y59383
Y49383
Y39383
Y29383
Y19383
Y9383
X181513Y-9383
Y-19383
Y-29383
Y-39383
Y-49383
Y-59383
X162339
Y-49383
Y-39383
Y-29383
Y-19383
Y-9383
X162706Y9383
Y19383
Y29383
Y39383
Y49383
Y59383
Y69383
Y79383
X132706
Y69383
Y59383
Y49383
Y39383
Y29383
Y19383
Y9383
X132339Y-9383
Y-19383
Y-29383
Y-39383
Y-49383
Y-59383
X113165
Y-49383
Y-39383
Y-29383
Y-19383
Y-9383
X113532Y9383
Y19383
Y29383
Y39383
Y49383
Y59383
Y69383
Y79383
X83532
Y69383
Y59383
Y49383
Y39383
Y29383
Y19383
Y9383
X83165Y-9383
Y-19383
Y-29383
Y-39383
Y-49383
Y-59383
X63990
Y-49383
Y-39383
Y-29383
Y-19383
Y-9383
X64358Y9383
Y19383
Y29383
Y39383
Y49383
Y59383
Y69383
Y79383
X34358
Y69383
Y59383
Y49383
Y39383
Y29383
Y19383
Y9383
X33990Y-9383
Y-19383
Y-29383
Y-39383
Y-49383
Y-59383
X14816
Y-49383
Y-39383
Y-29383
Y-19383
Y-9383
X15184Y9383
Y19383
Y29383
Y39383
Y49383
Y59383
Y69383
Y79383
X-14816
Y69383
Y59383
Y49383
Y39383
Y29383
Y19383
Y9383
X-15184Y-9383
Y-19383
Y-29383
Y-39383
Y-49383
Y-59383
X-34358
Y-49383
Y-39383
Y-29383
Y-19383
Y-9383
X-33990Y9383
Y19383
Y29383
Y39383
Y49383
Y59383
Y69383
Y79383
X-63990
Y69383
Y59383
Y49383
Y39383
Y29383
Y19383
Y9383
X-64358Y-9383
Y-19383
Y-29383
Y-39383
Y-49383
Y-59383
X-83532
Y-49383
Y-39383
Y-29383
Y-19383
Y-9383
X-83165Y9383
Y19383
Y29383
Y39383
Y49383
Y59383
Y69383
Y79383
X-113165
Y69383
Y59383
Y49383
Y39383
Y29383
Y19383
Y9383
X-113532Y-9383
Y-19383
Y-29383
Y-39383
Y-49383
Y-59383
X-132706
Y-49383
Y-39383
Y-29383
Y-19383
Y-9383
X-132339Y9383
Y19383
Y29383
Y39383
Y49383
Y59383
Y69383
Y79383
X-162339
Y69383
Y59383
Y49383
Y39383
Y29383
Y19383
Y9383
X-162706Y-9383
Y-19383
Y-29383
Y-39383
Y-49383
Y-59383
X-181880
Y-49383
Y-39383
Y-29383
Y-19383
Y-9383
X-181513Y9383
Y19383
Y29383
Y39383
Y49383
Y59383
Y69383
Y79383
X-211513
Y69383
Y59383
Y49383
Y39383
Y29383
Y19383
Y9383
X-211880Y-9383
Y-19383
Y-29383
Y-39383
Y-49383
Y-59383
X-231054
Y-49383
Y-39383
Y-29383
Y-19383
Y-9383
X-230687Y9383
Y19383
Y29383
Y39383
Y49383
Y59383
Y69383
Y79383
X-260687
Y69383
Y59383
Y49383
Y39383
Y29383
Y19383
Y9383
X-261054Y-9383
Y-19383
Y-29383
Y-39383
Y-49383
Y-59383
X-280228
Y-49383
Y-39383
Y-29383
Y-19383
Y-9383
X-279861Y9383
Y19383
Y29383
Y39383
Y49383
Y59383
Y69383
Y79383
X-309861
Y69383
Y59383
Y49383
Y39383
Y29383
Y19383
Y9383
X-310228Y-9383
Y-19383
Y-29383
Y-39383
Y-49383
Y-59383
X-329402
Y-49383
Y-39383
Y-29383
Y-19383
Y-9383
X-329035Y9383
Y19383
Y29383
Y39383
Y49383
Y59383
Y69383
Y79383
X-359035
Y69383
Y59383
Y49383
Y39383
Y29383
Y19383
Y9383
X-359402Y-9383
Y-19383
Y-29383
Y-39383
Y-49383
Y-59383
X-317709Y158331
Y168331
Y178331
Y188331
Y198331
Y208331
Y218331
Y228331
X-287709
Y218331
Y208331
Y198331
Y188331
Y178331
Y168331
Y158331
X-272472
Y168331
Y178331
Y188331
Y198331
Y208331
Y218331
Y228331
X-242472
Y218331
Y208331
Y198331
Y188331
Y178331
Y168331
Y158331
X-227235
Y168331
Y178331
Y188331
Y198331
Y208331
Y218331
Y228331
X-197235
Y218331
Y208331
Y198331
Y188331
Y178331
Y168331
Y158331
X-181998
Y168331
Y178331
Y188331
Y198331
Y208331
Y218331
Y228331
X-151998
Y218331
Y208331
Y198331
Y188331
Y178331
Y168331
Y158331
X-136761
Y168331
Y178331
Y188331
Y198331
Y208331
Y218331
Y228331
X-106761
Y218331
Y208331
Y198331
Y188331
Y178331
Y168331
Y158331
X-91524
Y168331
Y178331
Y188331
Y198331
Y208331
Y218331
Y228331
X-61524
Y218331
Y208331
Y198331
Y188331
Y178331
Y168331
Y158331
X-46287
Y168331
Y178331
Y188331
Y198331
Y208331
Y218331
Y228331
X-16287
Y218331
Y208331
Y198331
Y188331
Y178331
Y168331
Y158331
X-1697Y158229
Y148229
Y138229
X28303
Y148229
Y158229
Y168229
Y178229
Y188229
Y198229
Y208229
X43540
Y198229
Y188229
Y178229
Y168229
Y158229
Y148229
Y138229
X-1697Y168229
Y178229
Y188229
Y198229
Y208229
X73540
Y198229
Y188229
Y178229
Y168229
Y158229
Y148229
Y138229
X88777
Y148229
Y158229
Y168229
Y178229
Y188229
Y198229
Y208229
X118777
Y198229
Y188229
Y178229
Y168229
Y158229
Y148229
Y138229
X134014
Y148229
Y158229
Y168229
Y178229
Y188229
Y198229
Y208229
X164014
Y198229
Y188229
Y178229
Y168229
Y158229
Y148229
Y138229
X179251
Y148229
Y158229
Y168229
Y178229
Y188229
Y198229
Y208229
X209251
Y198229
Y188229
Y178229
Y168229
Y158229
Y148229
Y138229
X224488
Y148229
Y158229
Y168229
Y178229
Y188229
Y198229
Y208229
X254488
Y198229
Y188229
Y178229
Y168229
Y158229
Y148229
Y138229
X269725
Y148229
Y158229
Y168229
Y178229
Y188229
Y198229
Y208229
X299725
Y198229
Y188229
Y178229
Y168229
Y158229
Y148229
Y138229
X314600Y138400
Y148400
Y158400
Y168400
Y178400
Y188400
Y198400
Y208400
X344600
Y198400
Y188400
Y178400
Y168400
Y158400
Y148400
Y138400
X330002Y279805
Y289805
Y299805
Y309805
Y319805
Y329805
Y339805
Y349805
X310828
Y339805
Y329805
Y319805
Y309805
Y299805
Y289805
Y279805
X280828
Y289805
Y299805
Y309805
Y319805
Y329805
Y339805
Y349805
X261654
Y339805
Y329805
Y319805
Y309805
Y299805
Y289805
Y279805
X231654
Y289805
Y299805
Y309805
Y319805
Y329805
Y339805
Y349805
X360002
Y339805
Y329805
Y319805
Y309805
Y299805
Y289805
Y279805
X212480
Y289805
Y299805
Y309805
Y319805
Y329805
Y339805
Y349805
X182480
Y339805
Y329805
Y319805
Y309805
Y299805
Y289805
Y279805
X163306
Y289805
Y299805
Y309805
Y319805
Y329805
Y339805
Y349805
X133306
Y339805
Y329805
Y319805
Y309805
Y299805
Y289805
Y279805
X114132
Y289805
Y299805
Y309805
Y319805
Y329805
Y339805
Y349805
X84132
Y339805
Y329805
Y319805
Y309805
Y299805
Y289805
Y279805
X64958
Y289805
Y299805
Y309805
Y319805
Y329805
Y339805
Y349805
X34958
Y339805
Y329805
Y319805
Y309805
Y299805
Y289805
Y279805
X15784
Y289805
Y299805
Y309805
Y319805
Y329805
Y339805
Y349805
X-14216
Y339805
Y329805
Y319805
Y309805
Y299805
Y289805
Y279805
X-33390
Y289805
Y299805
Y309805
Y319805
Y329805
Y339805
Y349805
X-63390
Y339805
Y329805
Y319805
Y309805
Y299805
Y289805
Y279805
X-82565
Y289805
Y299805
Y309805
Y319805
Y329805
Y339805
Y349805
X-112565
Y339805
Y329805
Y319805
Y309805
Y299805
Y289805
Y279805
X-131739
Y289805
Y299805
Y309805
Y319805
Y329805
Y339805
Y349805
X-161739
Y339805
Y329805
Y319805
Y309805
Y299805
Y289805
Y279805
X-180913
Y289805
Y299805
Y309805
Y319805
Y329805
Y339805
Y349805
X-210913
Y339805
Y329805
Y319805
Y309805
Y299805
Y289805
Y279805
X-230087
Y289805
Y299805
Y309805
Y319805
Y329805
Y339805
Y349805
X-260087
Y339805
Y329805
Y319805
Y309805
Y299805
Y289805
Y279805
X-279261
Y289805
Y299805
Y309805
Y319805
Y329805
Y339805
Y349805
X-309261
Y339805
Y329805
Y319805
Y309805
Y299805
Y289805
Y279805
X-328429Y279724
Y289724
Y299724
Y309724
Y319724
Y329724
Y339724
Y349724
X-358429
Y339724
Y329724
Y319724
Y309724
Y299724
Y289724
Y279724
T04
X-393701Y-393701
X393701
Y393701
X-393701
M30
