G04 Layer_Color=128*
%FSLAX25Y25*%
%MOIN*%
G70*
G01*
G75*
%ADD11R,0.09449X0.02913*%
%ADD12R,0.02913X0.09449*%
%ADD25R,0.03937X0.03543*%
%ADD26R,0.03543X0.03937*%
%ADD27R,0.05512X0.04134*%
%ADD28R,0.01181X0.03150*%
G04:AMPARAMS|DCode=29|XSize=9.45mil|YSize=23.62mil|CornerRadius=1.98mil|HoleSize=0mil|Usage=FLASHONLY|Rotation=90.000|XOffset=0mil|YOffset=0mil|HoleType=Round|Shape=RoundedRectangle|*
%AMROUNDEDRECTD29*
21,1,0.00945,0.01965,0,0,90.0*
21,1,0.00548,0.02362,0,0,90.0*
1,1,0.00397,0.00983,0.00274*
1,1,0.00397,0.00983,-0.00274*
1,1,0.00397,-0.00983,-0.00274*
1,1,0.00397,-0.00983,0.00274*
%
%ADD29ROUNDEDRECTD29*%
G04:AMPARAMS|DCode=30|XSize=9.45mil|YSize=23.62mil|CornerRadius=1.98mil|HoleSize=0mil|Usage=FLASHONLY|Rotation=0.000|XOffset=0mil|YOffset=0mil|HoleType=Round|Shape=RoundedRectangle|*
%AMROUNDEDRECTD30*
21,1,0.00945,0.01965,0,0,0.0*
21,1,0.00548,0.02362,0,0,0.0*
1,1,0.00397,0.00274,-0.00983*
1,1,0.00397,-0.00274,-0.00983*
1,1,0.00397,-0.00274,0.00983*
1,1,0.00397,0.00274,0.00983*
%
%ADD30ROUNDEDRECTD30*%
G04:AMPARAMS|DCode=54|XSize=36.22mil|YSize=36.22mil|CornerRadius=1.99mil|HoleSize=0mil|Usage=FLASHONLY|Rotation=270.000|XOffset=0mil|YOffset=0mil|HoleType=Round|Shape=RoundedRectangle|*
%AMROUNDEDRECTD54*
21,1,0.03622,0.03224,0,0,270.0*
21,1,0.03224,0.03622,0,0,270.0*
1,1,0.00398,-0.01612,-0.01612*
1,1,0.00398,-0.01612,0.01612*
1,1,0.00398,0.01612,0.01612*
1,1,0.00398,0.01612,-0.01612*
%
%ADD54ROUNDEDRECTD54*%
D11*
X-386024Y319350D02*
D03*
Y314350D02*
D03*
Y309350D02*
D03*
Y304350D02*
D03*
Y299350D02*
D03*
Y294350D02*
D03*
Y289350D02*
D03*
Y284350D02*
D03*
Y279350D02*
D03*
Y274350D02*
D03*
Y269350D02*
D03*
Y264350D02*
D03*
Y259350D02*
D03*
Y254350D02*
D03*
Y249350D02*
D03*
Y244350D02*
D03*
Y239350D02*
D03*
Y234350D02*
D03*
Y229350D02*
D03*
Y224350D02*
D03*
Y219350D02*
D03*
Y214350D02*
D03*
Y209350D02*
D03*
Y204350D02*
D03*
Y199350D02*
D03*
Y194350D02*
D03*
Y189350D02*
D03*
Y184350D02*
D03*
Y179350D02*
D03*
Y174350D02*
D03*
Y169350D02*
D03*
Y164350D02*
D03*
Y159350D02*
D03*
Y154350D02*
D03*
Y149350D02*
D03*
Y144350D02*
D03*
Y139350D02*
D03*
Y134350D02*
D03*
Y129350D02*
D03*
Y124350D02*
D03*
Y119350D02*
D03*
Y114350D02*
D03*
Y109350D02*
D03*
Y104350D02*
D03*
Y99350D02*
D03*
Y94350D02*
D03*
Y89350D02*
D03*
Y84350D02*
D03*
Y79350D02*
D03*
Y74350D02*
D03*
X-401378Y319350D02*
D03*
Y314350D02*
D03*
Y309350D02*
D03*
Y304350D02*
D03*
Y299350D02*
D03*
Y294350D02*
D03*
Y289350D02*
D03*
Y284350D02*
D03*
Y279350D02*
D03*
Y274350D02*
D03*
Y269350D02*
D03*
Y264350D02*
D03*
Y259350D02*
D03*
Y254350D02*
D03*
Y249350D02*
D03*
Y244350D02*
D03*
Y239350D02*
D03*
Y234350D02*
D03*
Y229350D02*
D03*
Y224350D02*
D03*
Y219350D02*
D03*
Y214350D02*
D03*
Y209350D02*
D03*
Y204350D02*
D03*
Y199350D02*
D03*
Y194350D02*
D03*
Y189350D02*
D03*
Y184350D02*
D03*
Y179350D02*
D03*
Y174350D02*
D03*
Y169350D02*
D03*
Y164350D02*
D03*
Y159350D02*
D03*
Y154350D02*
D03*
Y149350D02*
D03*
Y144350D02*
D03*
Y139350D02*
D03*
Y134350D02*
D03*
Y129350D02*
D03*
Y124350D02*
D03*
Y119350D02*
D03*
Y114350D02*
D03*
Y109350D02*
D03*
Y104350D02*
D03*
Y99350D02*
D03*
Y94350D02*
D03*
Y89350D02*
D03*
Y84350D02*
D03*
Y79350D02*
D03*
Y74350D02*
D03*
X401378Y319350D02*
D03*
Y314350D02*
D03*
Y309350D02*
D03*
Y304350D02*
D03*
Y299350D02*
D03*
Y294350D02*
D03*
Y289350D02*
D03*
Y284350D02*
D03*
Y279350D02*
D03*
Y274350D02*
D03*
Y269350D02*
D03*
Y264350D02*
D03*
Y259350D02*
D03*
Y254350D02*
D03*
Y249350D02*
D03*
Y244350D02*
D03*
Y239350D02*
D03*
Y234350D02*
D03*
Y229350D02*
D03*
Y224350D02*
D03*
Y219350D02*
D03*
Y214350D02*
D03*
Y209350D02*
D03*
Y204350D02*
D03*
Y199350D02*
D03*
Y194350D02*
D03*
Y189350D02*
D03*
Y184350D02*
D03*
Y179350D02*
D03*
Y174350D02*
D03*
Y169350D02*
D03*
Y164350D02*
D03*
Y159350D02*
D03*
Y154350D02*
D03*
Y149350D02*
D03*
Y144350D02*
D03*
Y139350D02*
D03*
Y134350D02*
D03*
Y129350D02*
D03*
Y124350D02*
D03*
Y119350D02*
D03*
Y114350D02*
D03*
Y109350D02*
D03*
Y104350D02*
D03*
Y99350D02*
D03*
Y94350D02*
D03*
Y89350D02*
D03*
Y84350D02*
D03*
Y79350D02*
D03*
Y74350D02*
D03*
X386024Y319350D02*
D03*
Y314350D02*
D03*
Y309350D02*
D03*
Y304350D02*
D03*
Y299350D02*
D03*
Y294350D02*
D03*
Y289350D02*
D03*
Y284350D02*
D03*
Y279350D02*
D03*
Y274350D02*
D03*
Y269350D02*
D03*
Y264350D02*
D03*
Y259350D02*
D03*
Y254350D02*
D03*
Y249350D02*
D03*
Y244350D02*
D03*
Y239350D02*
D03*
Y234350D02*
D03*
Y229350D02*
D03*
Y224350D02*
D03*
Y219350D02*
D03*
Y214350D02*
D03*
Y209350D02*
D03*
Y204350D02*
D03*
Y199350D02*
D03*
Y194350D02*
D03*
Y189350D02*
D03*
Y184350D02*
D03*
Y179350D02*
D03*
Y174350D02*
D03*
Y169350D02*
D03*
Y164350D02*
D03*
Y159350D02*
D03*
Y154350D02*
D03*
Y149350D02*
D03*
Y144350D02*
D03*
Y139350D02*
D03*
Y134350D02*
D03*
Y129350D02*
D03*
Y124350D02*
D03*
Y119350D02*
D03*
Y114350D02*
D03*
Y109350D02*
D03*
Y104350D02*
D03*
Y99350D02*
D03*
Y94350D02*
D03*
Y89350D02*
D03*
Y84350D02*
D03*
Y79350D02*
D03*
Y74350D02*
D03*
X-401378Y-319350D02*
D03*
Y-314350D02*
D03*
Y-309350D02*
D03*
Y-304350D02*
D03*
Y-299350D02*
D03*
Y-294350D02*
D03*
Y-289350D02*
D03*
Y-284350D02*
D03*
Y-279350D02*
D03*
Y-274350D02*
D03*
Y-269350D02*
D03*
Y-264350D02*
D03*
Y-259350D02*
D03*
Y-254350D02*
D03*
Y-249350D02*
D03*
Y-244350D02*
D03*
Y-239350D02*
D03*
Y-234350D02*
D03*
Y-229350D02*
D03*
Y-224350D02*
D03*
Y-219350D02*
D03*
Y-214350D02*
D03*
Y-209350D02*
D03*
Y-204350D02*
D03*
Y-199350D02*
D03*
Y-194350D02*
D03*
Y-189350D02*
D03*
Y-184350D02*
D03*
Y-179350D02*
D03*
Y-174350D02*
D03*
Y-169350D02*
D03*
Y-164350D02*
D03*
Y-159350D02*
D03*
Y-154350D02*
D03*
Y-149350D02*
D03*
Y-144350D02*
D03*
Y-139350D02*
D03*
Y-134350D02*
D03*
Y-129350D02*
D03*
Y-124350D02*
D03*
Y-119350D02*
D03*
Y-114350D02*
D03*
Y-109350D02*
D03*
Y-104350D02*
D03*
Y-99350D02*
D03*
Y-94350D02*
D03*
Y-89350D02*
D03*
Y-84350D02*
D03*
Y-79350D02*
D03*
Y-74350D02*
D03*
X-386024Y-319350D02*
D03*
Y-314350D02*
D03*
Y-309350D02*
D03*
Y-304350D02*
D03*
Y-299350D02*
D03*
Y-294350D02*
D03*
Y-289350D02*
D03*
Y-284350D02*
D03*
Y-279350D02*
D03*
Y-274350D02*
D03*
Y-269350D02*
D03*
Y-264350D02*
D03*
Y-259350D02*
D03*
Y-254350D02*
D03*
Y-249350D02*
D03*
Y-244350D02*
D03*
Y-239350D02*
D03*
Y-234350D02*
D03*
Y-229350D02*
D03*
Y-224350D02*
D03*
Y-219350D02*
D03*
Y-214350D02*
D03*
Y-209350D02*
D03*
Y-204350D02*
D03*
Y-199350D02*
D03*
Y-194350D02*
D03*
Y-189350D02*
D03*
Y-184350D02*
D03*
Y-179350D02*
D03*
Y-174350D02*
D03*
Y-169350D02*
D03*
Y-164350D02*
D03*
Y-159350D02*
D03*
Y-154350D02*
D03*
Y-149350D02*
D03*
Y-144350D02*
D03*
Y-139350D02*
D03*
Y-134350D02*
D03*
Y-129350D02*
D03*
Y-124350D02*
D03*
Y-119350D02*
D03*
Y-114350D02*
D03*
Y-109350D02*
D03*
Y-104350D02*
D03*
Y-99350D02*
D03*
Y-94350D02*
D03*
Y-89350D02*
D03*
Y-84350D02*
D03*
Y-79350D02*
D03*
Y-74350D02*
D03*
X386024Y-319350D02*
D03*
Y-314350D02*
D03*
Y-309350D02*
D03*
Y-304350D02*
D03*
Y-299350D02*
D03*
Y-294350D02*
D03*
Y-289350D02*
D03*
Y-284350D02*
D03*
Y-279350D02*
D03*
Y-274350D02*
D03*
Y-269350D02*
D03*
Y-264350D02*
D03*
Y-259350D02*
D03*
Y-254350D02*
D03*
Y-249350D02*
D03*
Y-244350D02*
D03*
Y-239350D02*
D03*
Y-234350D02*
D03*
Y-229350D02*
D03*
Y-224350D02*
D03*
Y-219350D02*
D03*
Y-214350D02*
D03*
Y-209350D02*
D03*
Y-204350D02*
D03*
Y-199350D02*
D03*
Y-194350D02*
D03*
Y-189350D02*
D03*
Y-184350D02*
D03*
Y-179350D02*
D03*
Y-174350D02*
D03*
Y-169350D02*
D03*
Y-164350D02*
D03*
Y-159350D02*
D03*
Y-154350D02*
D03*
Y-149350D02*
D03*
Y-144350D02*
D03*
Y-139350D02*
D03*
Y-134350D02*
D03*
Y-129350D02*
D03*
Y-124350D02*
D03*
Y-119350D02*
D03*
Y-114350D02*
D03*
Y-109350D02*
D03*
Y-104350D02*
D03*
Y-99350D02*
D03*
Y-94350D02*
D03*
Y-89350D02*
D03*
Y-84350D02*
D03*
Y-79350D02*
D03*
Y-74350D02*
D03*
X401378Y-319350D02*
D03*
Y-314350D02*
D03*
Y-309350D02*
D03*
Y-304350D02*
D03*
Y-299350D02*
D03*
Y-294350D02*
D03*
Y-289350D02*
D03*
Y-284350D02*
D03*
Y-279350D02*
D03*
Y-274350D02*
D03*
Y-269350D02*
D03*
Y-264350D02*
D03*
Y-259350D02*
D03*
Y-254350D02*
D03*
Y-249350D02*
D03*
Y-244350D02*
D03*
Y-239350D02*
D03*
Y-234350D02*
D03*
Y-229350D02*
D03*
Y-224350D02*
D03*
Y-219350D02*
D03*
Y-214350D02*
D03*
Y-209350D02*
D03*
Y-204350D02*
D03*
Y-199350D02*
D03*
Y-194350D02*
D03*
Y-189350D02*
D03*
Y-184350D02*
D03*
Y-179350D02*
D03*
Y-174350D02*
D03*
Y-169350D02*
D03*
Y-164350D02*
D03*
Y-159350D02*
D03*
Y-154350D02*
D03*
Y-149350D02*
D03*
Y-144350D02*
D03*
Y-139350D02*
D03*
Y-134350D02*
D03*
Y-129350D02*
D03*
Y-124350D02*
D03*
Y-119350D02*
D03*
Y-114350D02*
D03*
Y-109350D02*
D03*
Y-104350D02*
D03*
Y-99350D02*
D03*
Y-94350D02*
D03*
Y-89350D02*
D03*
Y-84350D02*
D03*
Y-79350D02*
D03*
Y-74350D02*
D03*
D12*
X319350Y386024D02*
D03*
X314350D02*
D03*
X309350D02*
D03*
X304350D02*
D03*
X299350D02*
D03*
X294350D02*
D03*
X289350D02*
D03*
X284350D02*
D03*
X279350D02*
D03*
X274350D02*
D03*
X269350D02*
D03*
X264350D02*
D03*
X259350D02*
D03*
X254350D02*
D03*
X249350D02*
D03*
X244350D02*
D03*
X239350D02*
D03*
X234350D02*
D03*
X229350D02*
D03*
X224350D02*
D03*
X219350D02*
D03*
X214350D02*
D03*
X209350D02*
D03*
X204350D02*
D03*
X199350D02*
D03*
X194350D02*
D03*
X189350D02*
D03*
X184350D02*
D03*
X179350D02*
D03*
X174350D02*
D03*
X169350D02*
D03*
X164350D02*
D03*
X159350D02*
D03*
X154350D02*
D03*
X149350D02*
D03*
X144350D02*
D03*
X139350D02*
D03*
X134350D02*
D03*
X129350D02*
D03*
X124350D02*
D03*
X119350D02*
D03*
X114350D02*
D03*
X109350D02*
D03*
X104350D02*
D03*
X99350D02*
D03*
X94350D02*
D03*
X89350D02*
D03*
X84350D02*
D03*
X79350D02*
D03*
X74350D02*
D03*
X319350Y401378D02*
D03*
X314350D02*
D03*
X309350D02*
D03*
X304350D02*
D03*
X299350D02*
D03*
X294350D02*
D03*
X289350D02*
D03*
X284350D02*
D03*
X279350D02*
D03*
X274350D02*
D03*
X269350D02*
D03*
X264350D02*
D03*
X259350D02*
D03*
X254350D02*
D03*
X249350D02*
D03*
X244350D02*
D03*
X239350D02*
D03*
X234350D02*
D03*
X229350D02*
D03*
X224350D02*
D03*
X219350D02*
D03*
X214350D02*
D03*
X209350D02*
D03*
X204350D02*
D03*
X199350D02*
D03*
X194350D02*
D03*
X189350D02*
D03*
X184350D02*
D03*
X179350D02*
D03*
X174350D02*
D03*
X169350D02*
D03*
X164350D02*
D03*
X159350D02*
D03*
X154350D02*
D03*
X149350D02*
D03*
X144350D02*
D03*
X139350D02*
D03*
X134350D02*
D03*
X129350D02*
D03*
X124350D02*
D03*
X119350D02*
D03*
X114350D02*
D03*
X109350D02*
D03*
X104350D02*
D03*
X99350D02*
D03*
X94350D02*
D03*
X89350D02*
D03*
X84350D02*
D03*
X79350D02*
D03*
X74350D02*
D03*
X-319350Y386024D02*
D03*
X-314350D02*
D03*
X-309350D02*
D03*
X-304350D02*
D03*
X-299350D02*
D03*
X-294350D02*
D03*
X-289350D02*
D03*
X-284350D02*
D03*
X-279350D02*
D03*
X-274350D02*
D03*
X-269350D02*
D03*
X-264350D02*
D03*
X-259350D02*
D03*
X-254350D02*
D03*
X-249350D02*
D03*
X-244350D02*
D03*
X-239350D02*
D03*
X-234350D02*
D03*
X-229350D02*
D03*
X-224350D02*
D03*
X-219350D02*
D03*
X-214350D02*
D03*
X-209350D02*
D03*
X-204350D02*
D03*
X-199350D02*
D03*
X-194350D02*
D03*
X-189350D02*
D03*
X-184350D02*
D03*
X-179350D02*
D03*
X-174350D02*
D03*
X-169350D02*
D03*
X-164350D02*
D03*
X-159350D02*
D03*
X-154350D02*
D03*
X-149350D02*
D03*
X-144350D02*
D03*
X-139350D02*
D03*
X-134350D02*
D03*
X-129350D02*
D03*
X-124350D02*
D03*
X-119350D02*
D03*
X-114350D02*
D03*
X-109350D02*
D03*
X-104350D02*
D03*
X-99350D02*
D03*
X-94350D02*
D03*
X-89350D02*
D03*
X-84350D02*
D03*
X-79350D02*
D03*
X-74350D02*
D03*
X-319350Y401378D02*
D03*
X-314350D02*
D03*
X-309350D02*
D03*
X-304350D02*
D03*
X-299350D02*
D03*
X-294350D02*
D03*
X-289350D02*
D03*
X-284350D02*
D03*
X-279350D02*
D03*
X-274350D02*
D03*
X-269350D02*
D03*
X-264350D02*
D03*
X-259350D02*
D03*
X-254350D02*
D03*
X-249350D02*
D03*
X-244350D02*
D03*
X-239350D02*
D03*
X-234350D02*
D03*
X-229350D02*
D03*
X-224350D02*
D03*
X-219350D02*
D03*
X-214350D02*
D03*
X-209350D02*
D03*
X-204350D02*
D03*
X-199350D02*
D03*
X-194350D02*
D03*
X-189350D02*
D03*
X-184350D02*
D03*
X-179350D02*
D03*
X-174350D02*
D03*
X-169350D02*
D03*
X-164350D02*
D03*
X-159350D02*
D03*
X-154350D02*
D03*
X-149350D02*
D03*
X-144350D02*
D03*
X-139350D02*
D03*
X-134350D02*
D03*
X-129350D02*
D03*
X-124350D02*
D03*
X-119350D02*
D03*
X-114350D02*
D03*
X-109350D02*
D03*
X-104350D02*
D03*
X-99350D02*
D03*
X-94350D02*
D03*
X-89350D02*
D03*
X-84350D02*
D03*
X-79350D02*
D03*
X-74350D02*
D03*
X319350Y-386024D02*
D03*
X314350D02*
D03*
X309350D02*
D03*
X304350D02*
D03*
X299350D02*
D03*
X294350D02*
D03*
X289350D02*
D03*
X284350D02*
D03*
X279350D02*
D03*
X274350D02*
D03*
X269350D02*
D03*
X264350D02*
D03*
X259350D02*
D03*
X254350D02*
D03*
X249350D02*
D03*
X244350D02*
D03*
X239350D02*
D03*
X234350D02*
D03*
X229350D02*
D03*
X224350D02*
D03*
X219350D02*
D03*
X214350D02*
D03*
X209350D02*
D03*
X204350D02*
D03*
X199350D02*
D03*
X194350D02*
D03*
X189350D02*
D03*
X184350D02*
D03*
X179350D02*
D03*
X174350D02*
D03*
X169350D02*
D03*
X164350D02*
D03*
X159350D02*
D03*
X154350D02*
D03*
X149350D02*
D03*
X144350D02*
D03*
X139350D02*
D03*
X134350D02*
D03*
X129350D02*
D03*
X124350D02*
D03*
X119350D02*
D03*
X114350D02*
D03*
X109350D02*
D03*
X104350D02*
D03*
X99350D02*
D03*
X94350D02*
D03*
X89350D02*
D03*
X84350D02*
D03*
X79350D02*
D03*
X74350D02*
D03*
X319350Y-401378D02*
D03*
X314350D02*
D03*
X309350D02*
D03*
X304350D02*
D03*
X299350D02*
D03*
X294350D02*
D03*
X289350D02*
D03*
X284350D02*
D03*
X279350D02*
D03*
X274350D02*
D03*
X269350D02*
D03*
X264350D02*
D03*
X259350D02*
D03*
X254350D02*
D03*
X249350D02*
D03*
X244350D02*
D03*
X239350D02*
D03*
X234350D02*
D03*
X229350D02*
D03*
X224350D02*
D03*
X219350D02*
D03*
X214350D02*
D03*
X209350D02*
D03*
X204350D02*
D03*
X199350D02*
D03*
X194350D02*
D03*
X189350D02*
D03*
X184350D02*
D03*
X179350D02*
D03*
X174350D02*
D03*
X169350D02*
D03*
X164350D02*
D03*
X159350D02*
D03*
X154350D02*
D03*
X149350D02*
D03*
X144350D02*
D03*
X139350D02*
D03*
X134350D02*
D03*
X129350D02*
D03*
X124350D02*
D03*
X119350D02*
D03*
X114350D02*
D03*
X109350D02*
D03*
X104350D02*
D03*
X99350D02*
D03*
X94350D02*
D03*
X89350D02*
D03*
X84350D02*
D03*
X79350D02*
D03*
X74350D02*
D03*
X-319350Y-386024D02*
D03*
X-314350D02*
D03*
X-309350D02*
D03*
X-304350D02*
D03*
X-299350D02*
D03*
X-294350D02*
D03*
X-289350D02*
D03*
X-284350D02*
D03*
X-279350D02*
D03*
X-274350D02*
D03*
X-269350D02*
D03*
X-264350D02*
D03*
X-259350D02*
D03*
X-254350D02*
D03*
X-249350D02*
D03*
X-244350D02*
D03*
X-239350D02*
D03*
X-234350D02*
D03*
X-229350D02*
D03*
X-224350D02*
D03*
X-219350D02*
D03*
X-214350D02*
D03*
X-209350D02*
D03*
X-204350D02*
D03*
X-199350D02*
D03*
X-194350D02*
D03*
X-189350D02*
D03*
X-184350D02*
D03*
X-179350D02*
D03*
X-174350D02*
D03*
X-169350D02*
D03*
X-164350D02*
D03*
X-159350D02*
D03*
X-154350D02*
D03*
X-149350D02*
D03*
X-144350D02*
D03*
X-139350D02*
D03*
X-134350D02*
D03*
X-129350D02*
D03*
X-124350D02*
D03*
X-119350D02*
D03*
X-114350D02*
D03*
X-109350D02*
D03*
X-104350D02*
D03*
X-99350D02*
D03*
X-94350D02*
D03*
X-89350D02*
D03*
X-84350D02*
D03*
X-79350D02*
D03*
X-74350D02*
D03*
X-319350Y-401378D02*
D03*
X-314350D02*
D03*
X-309350D02*
D03*
X-304350D02*
D03*
X-299350D02*
D03*
X-294350D02*
D03*
X-289350D02*
D03*
X-284350D02*
D03*
X-279350D02*
D03*
X-274350D02*
D03*
X-269350D02*
D03*
X-264350D02*
D03*
X-259350D02*
D03*
X-254350D02*
D03*
X-249350D02*
D03*
X-244350D02*
D03*
X-239350D02*
D03*
X-234350D02*
D03*
X-229350D02*
D03*
X-224350D02*
D03*
X-219350D02*
D03*
X-214350D02*
D03*
X-209350D02*
D03*
X-204350D02*
D03*
X-199350D02*
D03*
X-194350D02*
D03*
X-189350D02*
D03*
X-184350D02*
D03*
X-179350D02*
D03*
X-174350D02*
D03*
X-169350D02*
D03*
X-164350D02*
D03*
X-159350D02*
D03*
X-154350D02*
D03*
X-149350D02*
D03*
X-144350D02*
D03*
X-139350D02*
D03*
X-134350D02*
D03*
X-129350D02*
D03*
X-124350D02*
D03*
X-119350D02*
D03*
X-114350D02*
D03*
X-109350D02*
D03*
X-104350D02*
D03*
X-99350D02*
D03*
X-94350D02*
D03*
X-89350D02*
D03*
X-84350D02*
D03*
X-79350D02*
D03*
X-74350D02*
D03*
D25*
X-351793Y-350446D02*
D03*
Y-344146D02*
D03*
X-302619Y-350446D02*
D03*
Y-344146D02*
D03*
X-253445Y-350446D02*
D03*
Y-344146D02*
D03*
X-204271Y-350446D02*
D03*
Y-344146D02*
D03*
X-155097Y-350446D02*
D03*
Y-344146D02*
D03*
X-105923Y-350446D02*
D03*
Y-344146D02*
D03*
X-56749Y-350446D02*
D03*
Y-344146D02*
D03*
X-7575Y-350446D02*
D03*
Y-344146D02*
D03*
X41599Y-350446D02*
D03*
Y-344146D02*
D03*
X90773Y-350446D02*
D03*
Y-344146D02*
D03*
X139947Y-350446D02*
D03*
Y-344146D02*
D03*
X189121Y-350446D02*
D03*
Y-344146D02*
D03*
X238295Y-350446D02*
D03*
Y-344146D02*
D03*
X287469Y-350446D02*
D03*
Y-344146D02*
D03*
X-336230Y-210144D02*
D03*
Y-203845D02*
D03*
X-291516Y-208870D02*
D03*
Y-202571D02*
D03*
X-246280Y-208870D02*
D03*
Y-202571D02*
D03*
X-201043Y-208870D02*
D03*
Y-202571D02*
D03*
X-155806Y-208870D02*
D03*
Y-202571D02*
D03*
X-110569Y-208870D02*
D03*
Y-202571D02*
D03*
X-65332Y-208870D02*
D03*
Y-202571D02*
D03*
X-20094Y-208870D02*
D03*
Y-202571D02*
D03*
X336638Y-350365D02*
D03*
Y-344066D02*
D03*
X24496Y-228972D02*
D03*
Y-222673D02*
D03*
X69733Y-228972D02*
D03*
Y-222673D02*
D03*
X114970Y-228972D02*
D03*
Y-222673D02*
D03*
X160207Y-228972D02*
D03*
Y-222673D02*
D03*
X205444Y-228972D02*
D03*
Y-222673D02*
D03*
X250681Y-228972D02*
D03*
Y-222673D02*
D03*
X295918Y-228972D02*
D03*
Y-222673D02*
D03*
X-351193Y-80024D02*
D03*
Y-73725D02*
D03*
X-302019Y-80024D02*
D03*
Y-73725D02*
D03*
X-252845Y-80024D02*
D03*
Y-73725D02*
D03*
X-203671Y-80024D02*
D03*
Y-73725D02*
D03*
X-154497Y-80024D02*
D03*
Y-73725D02*
D03*
X-105323Y-80024D02*
D03*
Y-73725D02*
D03*
X-56149Y-80024D02*
D03*
Y-73725D02*
D03*
X-6975Y-80024D02*
D03*
Y-73725D02*
D03*
X42199Y-80024D02*
D03*
Y-73725D02*
D03*
X91373Y-80024D02*
D03*
Y-73725D02*
D03*
X140547Y-80024D02*
D03*
Y-73725D02*
D03*
X189721Y-80024D02*
D03*
Y-73725D02*
D03*
X238895Y-80024D02*
D03*
Y-73725D02*
D03*
X288069Y-80024D02*
D03*
Y-73725D02*
D03*
X337795Y-80315D02*
D03*
Y-74016D02*
D03*
X-349663Y-290132D02*
D03*
Y-296431D02*
D03*
X-300489Y-290132D02*
D03*
Y-296431D02*
D03*
X-251315Y-290132D02*
D03*
Y-296431D02*
D03*
X-202141Y-290132D02*
D03*
Y-296431D02*
D03*
X-152967Y-290132D02*
D03*
Y-296431D02*
D03*
X-103793Y-290132D02*
D03*
Y-296431D02*
D03*
X-54619Y-290132D02*
D03*
Y-296431D02*
D03*
X-5445Y-290132D02*
D03*
Y-296431D02*
D03*
X43729Y-290132D02*
D03*
Y-296431D02*
D03*
X92903Y-290132D02*
D03*
Y-296431D02*
D03*
X142077Y-290132D02*
D03*
Y-296431D02*
D03*
X191251Y-290132D02*
D03*
Y-296431D02*
D03*
X240425Y-290132D02*
D03*
Y-296431D02*
D03*
X289599Y-290132D02*
D03*
Y-296431D02*
D03*
X-334261Y-148727D02*
D03*
Y-155026D02*
D03*
X-289387Y-148556D02*
D03*
Y-154855D02*
D03*
X-244149Y-148556D02*
D03*
Y-154855D02*
D03*
X-198913Y-148556D02*
D03*
Y-154855D02*
D03*
X-153676Y-148556D02*
D03*
Y-154855D02*
D03*
X-108439Y-148556D02*
D03*
Y-154855D02*
D03*
X-63202Y-148556D02*
D03*
Y-154855D02*
D03*
X-17965Y-148556D02*
D03*
Y-154855D02*
D03*
X338768Y-290051D02*
D03*
Y-296350D02*
D03*
X26626Y-168658D02*
D03*
Y-174957D02*
D03*
X71863Y-168658D02*
D03*
Y-174957D02*
D03*
X117100Y-168658D02*
D03*
Y-174957D02*
D03*
X162337Y-168658D02*
D03*
Y-174957D02*
D03*
X207574Y-168658D02*
D03*
Y-174957D02*
D03*
X252811Y-168658D02*
D03*
Y-174957D02*
D03*
X298048Y-168658D02*
D03*
Y-174957D02*
D03*
X-349063Y-19710D02*
D03*
Y-26009D02*
D03*
X-299889Y-19710D02*
D03*
Y-26009D02*
D03*
X-250715Y-19710D02*
D03*
Y-26009D02*
D03*
X-201541Y-19710D02*
D03*
Y-26009D02*
D03*
X-152367Y-19710D02*
D03*
Y-26009D02*
D03*
X-103193Y-19710D02*
D03*
Y-26009D02*
D03*
X-54019Y-19710D02*
D03*
Y-26009D02*
D03*
X-4845Y-19710D02*
D03*
Y-26009D02*
D03*
X44329Y-19710D02*
D03*
Y-26009D02*
D03*
X93503Y-19710D02*
D03*
Y-26009D02*
D03*
X142677Y-19710D02*
D03*
Y-26009D02*
D03*
X191851Y-19710D02*
D03*
Y-26009D02*
D03*
X241025Y-19710D02*
D03*
Y-26009D02*
D03*
X290199Y-19710D02*
D03*
Y-26009D02*
D03*
X339373Y-19710D02*
D03*
Y-26009D02*
D03*
X-345163Y-277132D02*
D03*
Y-283431D02*
D03*
X-295989Y-277132D02*
D03*
Y-283431D02*
D03*
X-246815Y-277132D02*
D03*
Y-283431D02*
D03*
X-197641Y-277132D02*
D03*
Y-283431D02*
D03*
X-148467Y-277132D02*
D03*
Y-283431D02*
D03*
X-99293Y-277132D02*
D03*
Y-283431D02*
D03*
X-50119Y-277132D02*
D03*
Y-283431D02*
D03*
X-945Y-277132D02*
D03*
Y-283431D02*
D03*
X48229Y-277132D02*
D03*
Y-283431D02*
D03*
X97403Y-277132D02*
D03*
Y-283431D02*
D03*
X146577Y-277132D02*
D03*
Y-283431D02*
D03*
X195751Y-277132D02*
D03*
Y-283431D02*
D03*
X244925Y-277132D02*
D03*
Y-283431D02*
D03*
X294099Y-277132D02*
D03*
Y-283431D02*
D03*
X-329761Y-135727D02*
D03*
Y-142026D02*
D03*
X-284887Y-135556D02*
D03*
Y-141855D02*
D03*
X-239650Y-135556D02*
D03*
Y-141855D02*
D03*
X-194413Y-135556D02*
D03*
Y-141855D02*
D03*
X-149176Y-135556D02*
D03*
Y-141855D02*
D03*
X-103939Y-135556D02*
D03*
Y-141855D02*
D03*
X-58702Y-135556D02*
D03*
Y-141855D02*
D03*
X-13465Y-135556D02*
D03*
Y-141855D02*
D03*
X343268Y-277051D02*
D03*
Y-283350D02*
D03*
X31126Y-155658D02*
D03*
Y-161957D02*
D03*
X76363Y-155658D02*
D03*
Y-161957D02*
D03*
X121600Y-155658D02*
D03*
Y-161957D02*
D03*
X166837Y-155658D02*
D03*
Y-161957D02*
D03*
X212074Y-155658D02*
D03*
Y-161957D02*
D03*
X257311Y-155658D02*
D03*
Y-161957D02*
D03*
X302548Y-155658D02*
D03*
Y-161957D02*
D03*
X-344563Y-6709D02*
D03*
Y-13009D02*
D03*
X-295389Y-6709D02*
D03*
Y-13009D02*
D03*
X-246215Y-6709D02*
D03*
Y-13009D02*
D03*
X-197041Y-6709D02*
D03*
Y-13009D02*
D03*
X-147867Y-6709D02*
D03*
Y-13009D02*
D03*
X-98693Y-6709D02*
D03*
Y-13009D02*
D03*
X-49519Y-6709D02*
D03*
Y-13009D02*
D03*
X-345Y-6709D02*
D03*
Y-13009D02*
D03*
X48829Y-6709D02*
D03*
Y-13009D02*
D03*
X98003Y-6709D02*
D03*
Y-13009D02*
D03*
X147177Y-6709D02*
D03*
Y-13009D02*
D03*
X196351Y-6709D02*
D03*
Y-13009D02*
D03*
X245525Y-6709D02*
D03*
Y-13009D02*
D03*
X294699Y-6709D02*
D03*
Y-13009D02*
D03*
X343873Y-6709D02*
D03*
Y-13009D02*
D03*
X-337795Y80315D02*
D03*
Y74016D02*
D03*
X-288069Y80024D02*
D03*
Y73725D02*
D03*
X-238895Y80024D02*
D03*
Y73725D02*
D03*
X-189721Y80024D02*
D03*
Y73725D02*
D03*
X-140547Y80024D02*
D03*
Y73725D02*
D03*
X-91373Y80024D02*
D03*
Y73725D02*
D03*
X-42199Y80024D02*
D03*
Y73725D02*
D03*
X6975Y80024D02*
D03*
Y73725D02*
D03*
X56149Y80024D02*
D03*
Y73725D02*
D03*
X105323Y80024D02*
D03*
Y73725D02*
D03*
X154497Y80024D02*
D03*
Y73725D02*
D03*
X203671Y80024D02*
D03*
Y73725D02*
D03*
X252845Y80024D02*
D03*
Y73725D02*
D03*
X302019Y80024D02*
D03*
Y73725D02*
D03*
X351193Y80024D02*
D03*
Y73725D02*
D03*
X-295918Y228972D02*
D03*
Y222673D02*
D03*
X-250681Y228972D02*
D03*
Y222673D02*
D03*
X-205444Y228972D02*
D03*
Y222673D02*
D03*
X-160207Y228972D02*
D03*
Y222673D02*
D03*
X-114970Y228972D02*
D03*
Y222673D02*
D03*
X-69733Y228972D02*
D03*
Y222673D02*
D03*
X-24496Y228972D02*
D03*
Y222673D02*
D03*
X-336638Y350365D02*
D03*
Y344066D02*
D03*
X20094Y208870D02*
D03*
Y202571D02*
D03*
X65332Y208870D02*
D03*
Y202571D02*
D03*
X110569Y208870D02*
D03*
Y202571D02*
D03*
X155806Y208870D02*
D03*
Y202571D02*
D03*
X201043Y208870D02*
D03*
Y202571D02*
D03*
X246280Y208870D02*
D03*
Y202571D02*
D03*
X291516Y208870D02*
D03*
Y202571D02*
D03*
X336230Y210144D02*
D03*
Y203845D02*
D03*
X-287469Y350446D02*
D03*
Y344146D02*
D03*
X-238295Y350446D02*
D03*
Y344146D02*
D03*
X-189121Y350446D02*
D03*
Y344146D02*
D03*
X-139947Y350446D02*
D03*
Y344146D02*
D03*
X-90773Y350446D02*
D03*
Y344146D02*
D03*
X-41599Y350446D02*
D03*
Y344146D02*
D03*
X7575Y350446D02*
D03*
Y344146D02*
D03*
X56749Y350446D02*
D03*
Y344146D02*
D03*
X105923Y350446D02*
D03*
Y344146D02*
D03*
X155097Y350446D02*
D03*
Y344146D02*
D03*
X204271Y350446D02*
D03*
Y344146D02*
D03*
X253445Y350446D02*
D03*
Y344146D02*
D03*
X302619Y350446D02*
D03*
Y344146D02*
D03*
X351793Y350446D02*
D03*
Y344146D02*
D03*
X-339373Y19710D02*
D03*
Y26009D02*
D03*
X-343873Y6709D02*
D03*
Y13009D02*
D03*
X-290199Y19710D02*
D03*
Y26009D02*
D03*
X-294699Y6709D02*
D03*
Y13009D02*
D03*
X-241025Y19710D02*
D03*
Y26009D02*
D03*
X-245525Y6709D02*
D03*
Y13009D02*
D03*
X-191851Y19710D02*
D03*
Y26009D02*
D03*
X-196351Y6709D02*
D03*
Y13009D02*
D03*
X-142677Y19710D02*
D03*
Y26009D02*
D03*
X-147177Y6709D02*
D03*
Y13009D02*
D03*
X-93503Y19710D02*
D03*
Y26009D02*
D03*
X-98003Y6709D02*
D03*
Y13009D02*
D03*
X-44329Y19710D02*
D03*
Y26009D02*
D03*
X-48829Y6709D02*
D03*
Y13009D02*
D03*
X4845Y19710D02*
D03*
Y26009D02*
D03*
X345Y6709D02*
D03*
Y13009D02*
D03*
X54019Y19710D02*
D03*
Y26009D02*
D03*
X49519Y6709D02*
D03*
Y13009D02*
D03*
X103193Y19710D02*
D03*
Y26009D02*
D03*
X98693Y6709D02*
D03*
Y13009D02*
D03*
X152367Y19710D02*
D03*
Y26009D02*
D03*
X147867Y6709D02*
D03*
Y13009D02*
D03*
X201541Y19710D02*
D03*
Y26009D02*
D03*
X197041Y6709D02*
D03*
Y13009D02*
D03*
X250715Y19710D02*
D03*
Y26009D02*
D03*
X246215Y6709D02*
D03*
Y13009D02*
D03*
X299889Y19710D02*
D03*
Y26009D02*
D03*
X295389Y6709D02*
D03*
Y13009D02*
D03*
X349063Y19710D02*
D03*
Y26009D02*
D03*
X344563Y6709D02*
D03*
Y13009D02*
D03*
X-298048Y168658D02*
D03*
Y174957D02*
D03*
X-302548Y155658D02*
D03*
Y161957D02*
D03*
X-252811Y168658D02*
D03*
Y174957D02*
D03*
X-257311Y155658D02*
D03*
Y161957D02*
D03*
X-207574Y168658D02*
D03*
Y174957D02*
D03*
X-212074Y155658D02*
D03*
Y161957D02*
D03*
X-162337Y168658D02*
D03*
Y174957D02*
D03*
X-166837Y155658D02*
D03*
Y161957D02*
D03*
X-117100Y168658D02*
D03*
Y174957D02*
D03*
X-121600Y155658D02*
D03*
Y161957D02*
D03*
X-71863Y168658D02*
D03*
Y174957D02*
D03*
X-76363Y155658D02*
D03*
Y161957D02*
D03*
X-26626Y168658D02*
D03*
Y174957D02*
D03*
X-31126Y155658D02*
D03*
Y161957D02*
D03*
X-338768Y290051D02*
D03*
Y296350D02*
D03*
X-343268Y277051D02*
D03*
Y283350D02*
D03*
X17965Y148556D02*
D03*
Y154855D02*
D03*
X13465Y135556D02*
D03*
Y141855D02*
D03*
X63202Y148556D02*
D03*
Y154855D02*
D03*
X58702Y135556D02*
D03*
Y141855D02*
D03*
X108439Y148556D02*
D03*
Y154855D02*
D03*
X103939Y135556D02*
D03*
Y141855D02*
D03*
X153676Y148556D02*
D03*
Y154855D02*
D03*
X149176Y135556D02*
D03*
Y141855D02*
D03*
X198913Y148556D02*
D03*
Y154855D02*
D03*
X194413Y135556D02*
D03*
Y141855D02*
D03*
X244149Y148556D02*
D03*
Y154855D02*
D03*
X239650Y135556D02*
D03*
Y141855D02*
D03*
X289387Y148556D02*
D03*
Y154855D02*
D03*
X284887Y135556D02*
D03*
Y141855D02*
D03*
X334261Y148727D02*
D03*
Y155026D02*
D03*
X329761Y135727D02*
D03*
Y142026D02*
D03*
X-289599Y290132D02*
D03*
Y296431D02*
D03*
X-294099Y277132D02*
D03*
Y283431D02*
D03*
X-240425Y290132D02*
D03*
Y296431D02*
D03*
X-244925Y277132D02*
D03*
Y283431D02*
D03*
X-191251Y290132D02*
D03*
Y296431D02*
D03*
X-195751Y277132D02*
D03*
Y283431D02*
D03*
X-142077Y290132D02*
D03*
Y296431D02*
D03*
X-146577Y277132D02*
D03*
Y283431D02*
D03*
X-92903Y290132D02*
D03*
Y296431D02*
D03*
X-97403Y277132D02*
D03*
Y283431D02*
D03*
X-43729Y290132D02*
D03*
Y296431D02*
D03*
X-48229Y277132D02*
D03*
Y283431D02*
D03*
X5445Y290132D02*
D03*
Y296431D02*
D03*
X945Y277132D02*
D03*
Y283431D02*
D03*
X54619Y290132D02*
D03*
Y296431D02*
D03*
X50119Y277132D02*
D03*
Y283431D02*
D03*
X103793Y290132D02*
D03*
Y296431D02*
D03*
X99293Y277132D02*
D03*
Y283431D02*
D03*
X152967Y290132D02*
D03*
Y296431D02*
D03*
X148467Y277132D02*
D03*
Y283431D02*
D03*
X202141Y290132D02*
D03*
Y296431D02*
D03*
X197641Y277132D02*
D03*
Y283431D02*
D03*
X251315Y290132D02*
D03*
Y296431D02*
D03*
X246815Y277132D02*
D03*
Y283431D02*
D03*
X300489Y290132D02*
D03*
Y296431D02*
D03*
X295989Y277132D02*
D03*
Y283431D02*
D03*
X349663Y290132D02*
D03*
Y296431D02*
D03*
X345163Y277132D02*
D03*
Y283431D02*
D03*
D26*
X-349513Y-329681D02*
D03*
X-343213D02*
D03*
X-300339D02*
D03*
X-294039D02*
D03*
X-251165D02*
D03*
X-244865D02*
D03*
X-201991D02*
D03*
X-195691D02*
D03*
X-152817D02*
D03*
X-146517D02*
D03*
X-103643D02*
D03*
X-97343D02*
D03*
X-54469D02*
D03*
X-48169D02*
D03*
X-5295D02*
D03*
X1005D02*
D03*
X43879D02*
D03*
X50179D02*
D03*
X93053D02*
D03*
X99353D02*
D03*
X142228D02*
D03*
X148527D02*
D03*
X191402D02*
D03*
X197701D02*
D03*
X240576D02*
D03*
X246875D02*
D03*
X289750D02*
D03*
X296049D02*
D03*
X-334111Y-188276D02*
D03*
X-327812D02*
D03*
X-289236Y-188105D02*
D03*
X-282937D02*
D03*
X-243999D02*
D03*
X-237700D02*
D03*
X-198762D02*
D03*
X-192463D02*
D03*
X-153525D02*
D03*
X-147226D02*
D03*
X-108288D02*
D03*
X-101989D02*
D03*
X-63051D02*
D03*
X-56752D02*
D03*
X-17814D02*
D03*
X-11515D02*
D03*
X338918Y-329601D02*
D03*
X345218D02*
D03*
X26776Y-208208D02*
D03*
X33075D02*
D03*
X72013D02*
D03*
X78312D02*
D03*
X117250D02*
D03*
X123550D02*
D03*
X162487D02*
D03*
X168787D02*
D03*
X207724D02*
D03*
X214024D02*
D03*
X252961D02*
D03*
X259261D02*
D03*
X298198D02*
D03*
X304498D02*
D03*
X-348913Y-59259D02*
D03*
X-342613D02*
D03*
X-299739D02*
D03*
X-293439D02*
D03*
X-250565D02*
D03*
X-244265D02*
D03*
X-201391D02*
D03*
X-195091D02*
D03*
X-152217D02*
D03*
X-145917D02*
D03*
X-103043D02*
D03*
X-96743D02*
D03*
X-53869D02*
D03*
X-47569D02*
D03*
X-4695D02*
D03*
X1605D02*
D03*
X44479D02*
D03*
X50779D02*
D03*
X93653D02*
D03*
X99953D02*
D03*
X142828D02*
D03*
X149127D02*
D03*
X192002D02*
D03*
X198301D02*
D03*
X241176D02*
D03*
X247475D02*
D03*
X290350D02*
D03*
X296649D02*
D03*
X339524D02*
D03*
X345823D02*
D03*
X-339524Y59259D02*
D03*
X-345823D02*
D03*
X-290350D02*
D03*
X-296649D02*
D03*
X-241176D02*
D03*
X-247475D02*
D03*
X-192002D02*
D03*
X-198301D02*
D03*
X-142828D02*
D03*
X-149127D02*
D03*
X-93653D02*
D03*
X-99953D02*
D03*
X-44479D02*
D03*
X-50779D02*
D03*
X4695D02*
D03*
X-1605D02*
D03*
X53869D02*
D03*
X47569D02*
D03*
X103043D02*
D03*
X96743D02*
D03*
X152217D02*
D03*
X145917D02*
D03*
X201391D02*
D03*
X195091D02*
D03*
X250565D02*
D03*
X244265D02*
D03*
X299739D02*
D03*
X293439D02*
D03*
X348913D02*
D03*
X342613D02*
D03*
X-298198Y208208D02*
D03*
X-304498D02*
D03*
X-252961D02*
D03*
X-259261D02*
D03*
X-207724D02*
D03*
X-214024D02*
D03*
X-162487D02*
D03*
X-168787D02*
D03*
X-117250D02*
D03*
X-123550D02*
D03*
X-72013D02*
D03*
X-78312D02*
D03*
X-26776D02*
D03*
X-33075D02*
D03*
X-338918Y329601D02*
D03*
X-345218D02*
D03*
X17814Y188105D02*
D03*
X11515D02*
D03*
X63051D02*
D03*
X56752D02*
D03*
X108288D02*
D03*
X101989D02*
D03*
X153525D02*
D03*
X147226D02*
D03*
X198762D02*
D03*
X192463D02*
D03*
X243999D02*
D03*
X237700D02*
D03*
X289236D02*
D03*
X282937D02*
D03*
X334111Y188276D02*
D03*
X327812D02*
D03*
X-289750Y329681D02*
D03*
X-296049D02*
D03*
X-240576D02*
D03*
X-246875D02*
D03*
X-191402D02*
D03*
X-197701D02*
D03*
X-142228D02*
D03*
X-148527D02*
D03*
X-93053D02*
D03*
X-99353D02*
D03*
X-43879D02*
D03*
X-50179D02*
D03*
X5295D02*
D03*
X-1005D02*
D03*
X54469D02*
D03*
X48169D02*
D03*
X103643D02*
D03*
X97343D02*
D03*
X152817D02*
D03*
X146517D02*
D03*
X201991D02*
D03*
X195691D02*
D03*
X251165D02*
D03*
X244865D02*
D03*
X300339D02*
D03*
X294039D02*
D03*
X349513D02*
D03*
X343213D02*
D03*
D27*
X-342163Y-290541D02*
D03*
Y-298021D02*
D03*
X-292989Y-290541D02*
D03*
Y-298021D02*
D03*
X-243815Y-290541D02*
D03*
Y-298021D02*
D03*
X-194641Y-290541D02*
D03*
Y-298021D02*
D03*
X-145467Y-290541D02*
D03*
Y-298021D02*
D03*
X-96293Y-290541D02*
D03*
Y-298021D02*
D03*
X-47119Y-290541D02*
D03*
Y-298021D02*
D03*
X2055Y-290541D02*
D03*
Y-298021D02*
D03*
X51229Y-290541D02*
D03*
Y-298021D02*
D03*
X100403Y-290541D02*
D03*
Y-298021D02*
D03*
X149577Y-290541D02*
D03*
Y-298021D02*
D03*
X198751Y-290541D02*
D03*
Y-298021D02*
D03*
X247925Y-290541D02*
D03*
Y-298021D02*
D03*
X297099Y-290541D02*
D03*
Y-298021D02*
D03*
X-326761Y-149136D02*
D03*
Y-156616D02*
D03*
X-281887Y-148966D02*
D03*
Y-156446D02*
D03*
X-236649Y-148966D02*
D03*
Y-156446D02*
D03*
X-191413Y-148966D02*
D03*
Y-156446D02*
D03*
X-146176Y-148966D02*
D03*
Y-156446D02*
D03*
X-100939Y-148966D02*
D03*
Y-156446D02*
D03*
X-55702Y-148966D02*
D03*
Y-156446D02*
D03*
X-10465Y-148966D02*
D03*
Y-156446D02*
D03*
X346268Y-290461D02*
D03*
Y-297941D02*
D03*
X34126Y-169068D02*
D03*
Y-176548D02*
D03*
X79363Y-169068D02*
D03*
Y-176548D02*
D03*
X124600Y-169068D02*
D03*
Y-176548D02*
D03*
X169837Y-169068D02*
D03*
Y-176548D02*
D03*
X215074Y-169068D02*
D03*
Y-176548D02*
D03*
X260311Y-169068D02*
D03*
Y-176548D02*
D03*
X305548Y-169068D02*
D03*
Y-176548D02*
D03*
X-341563Y-20119D02*
D03*
Y-27599D02*
D03*
X-292389Y-20119D02*
D03*
Y-27599D02*
D03*
X-243215Y-20119D02*
D03*
Y-27599D02*
D03*
X-194041Y-20119D02*
D03*
Y-27599D02*
D03*
X-144867Y-20119D02*
D03*
Y-27599D02*
D03*
X-95693Y-20119D02*
D03*
Y-27599D02*
D03*
X-46519Y-20119D02*
D03*
Y-27599D02*
D03*
X2655Y-20119D02*
D03*
Y-27599D02*
D03*
X51829Y-20119D02*
D03*
Y-27599D02*
D03*
X101003Y-20119D02*
D03*
Y-27599D02*
D03*
X150177Y-20119D02*
D03*
Y-27599D02*
D03*
X199351Y-20119D02*
D03*
Y-27599D02*
D03*
X248525Y-20119D02*
D03*
Y-27599D02*
D03*
X297699Y-20119D02*
D03*
Y-27599D02*
D03*
X346873Y-20119D02*
D03*
Y-27599D02*
D03*
X-346873Y20119D02*
D03*
Y27599D02*
D03*
X-297699Y20119D02*
D03*
Y27599D02*
D03*
X-248525Y20119D02*
D03*
Y27599D02*
D03*
X-199351Y20119D02*
D03*
Y27599D02*
D03*
X-150177Y20119D02*
D03*
Y27599D02*
D03*
X-101003Y20119D02*
D03*
Y27599D02*
D03*
X-51829Y20119D02*
D03*
Y27599D02*
D03*
X-2655Y20119D02*
D03*
Y27599D02*
D03*
X46519Y20119D02*
D03*
Y27599D02*
D03*
X95693Y20119D02*
D03*
Y27599D02*
D03*
X144867Y20119D02*
D03*
Y27599D02*
D03*
X194041Y20119D02*
D03*
Y27599D02*
D03*
X243215Y20119D02*
D03*
Y27599D02*
D03*
X292389Y20119D02*
D03*
Y27599D02*
D03*
X341563Y20119D02*
D03*
Y27599D02*
D03*
X-305548Y169068D02*
D03*
Y176548D02*
D03*
X-260311Y169068D02*
D03*
Y176548D02*
D03*
X-215074Y169068D02*
D03*
Y176548D02*
D03*
X-169837Y169068D02*
D03*
Y176548D02*
D03*
X-124600Y169068D02*
D03*
Y176548D02*
D03*
X-79363Y169068D02*
D03*
Y176548D02*
D03*
X-34126Y169068D02*
D03*
Y176548D02*
D03*
X-346268Y290461D02*
D03*
Y297941D02*
D03*
X10465Y148966D02*
D03*
Y156446D02*
D03*
X55702Y148966D02*
D03*
Y156446D02*
D03*
X100939Y148966D02*
D03*
Y156446D02*
D03*
X146176Y148966D02*
D03*
Y156446D02*
D03*
X191413Y148966D02*
D03*
Y156446D02*
D03*
X236649Y148966D02*
D03*
Y156446D02*
D03*
X281887Y148966D02*
D03*
Y156446D02*
D03*
X326761Y149136D02*
D03*
Y156616D02*
D03*
X-297099Y290541D02*
D03*
Y298021D02*
D03*
X-247925Y290541D02*
D03*
Y298021D02*
D03*
X-198751Y290541D02*
D03*
Y298021D02*
D03*
X-149577Y290541D02*
D03*
Y298021D02*
D03*
X-100403Y290541D02*
D03*
Y298021D02*
D03*
X-51229Y290541D02*
D03*
Y298021D02*
D03*
X-2055Y290541D02*
D03*
Y298021D02*
D03*
X47119Y290541D02*
D03*
Y298021D02*
D03*
X96293Y290541D02*
D03*
Y298021D02*
D03*
X145467Y290541D02*
D03*
Y298021D02*
D03*
X194641Y290541D02*
D03*
Y298021D02*
D03*
X243815Y290541D02*
D03*
Y298021D02*
D03*
X292989Y290541D02*
D03*
Y298021D02*
D03*
X342163Y290541D02*
D03*
Y298021D02*
D03*
D28*
X-346116Y-344313D02*
D03*
X-344147D02*
D03*
X-342179D02*
D03*
X-340210D02*
D03*
X-346116Y-348250D02*
D03*
X-344147D02*
D03*
X-342179D02*
D03*
X-340210D02*
D03*
X-296942Y-344313D02*
D03*
X-294973D02*
D03*
X-293005D02*
D03*
X-291036D02*
D03*
X-296942Y-348250D02*
D03*
X-294973D02*
D03*
X-293005D02*
D03*
X-291036D02*
D03*
X-247768Y-344313D02*
D03*
X-245799D02*
D03*
X-243831D02*
D03*
X-241862D02*
D03*
X-247768Y-348250D02*
D03*
X-245799D02*
D03*
X-243831D02*
D03*
X-241862D02*
D03*
X-198594Y-344313D02*
D03*
X-196625D02*
D03*
X-194657D02*
D03*
X-192688D02*
D03*
X-198594Y-348250D02*
D03*
X-196625D02*
D03*
X-194657D02*
D03*
X-192688D02*
D03*
X-149420Y-344313D02*
D03*
X-147451D02*
D03*
X-145483D02*
D03*
X-143514D02*
D03*
X-149420Y-348250D02*
D03*
X-147451D02*
D03*
X-145483D02*
D03*
X-143514D02*
D03*
X-100246Y-344313D02*
D03*
X-98277D02*
D03*
X-96309D02*
D03*
X-94340D02*
D03*
X-100246Y-348250D02*
D03*
X-98277D02*
D03*
X-96309D02*
D03*
X-94340D02*
D03*
X-51072Y-344313D02*
D03*
X-49103D02*
D03*
X-47135D02*
D03*
X-45166D02*
D03*
X-51072Y-348250D02*
D03*
X-49103D02*
D03*
X-47135D02*
D03*
X-45166D02*
D03*
X-1898Y-344313D02*
D03*
X71D02*
D03*
X2039D02*
D03*
X4008D02*
D03*
X-1898Y-348250D02*
D03*
X71D02*
D03*
X2039D02*
D03*
X4008D02*
D03*
X47276Y-344313D02*
D03*
X49245D02*
D03*
X51213D02*
D03*
X53182D02*
D03*
X47276Y-348250D02*
D03*
X49245D02*
D03*
X51213D02*
D03*
X53182D02*
D03*
X96450Y-344313D02*
D03*
X98419D02*
D03*
X100387D02*
D03*
X102356D02*
D03*
X96450Y-348250D02*
D03*
X98419D02*
D03*
X100387D02*
D03*
X102356D02*
D03*
X145624Y-344313D02*
D03*
X147593D02*
D03*
X149561D02*
D03*
X151530D02*
D03*
X145624Y-348250D02*
D03*
X147593D02*
D03*
X149561D02*
D03*
X151530D02*
D03*
X194798Y-344313D02*
D03*
X196767D02*
D03*
X198735D02*
D03*
X200704D02*
D03*
X194798Y-348250D02*
D03*
X196767D02*
D03*
X198735D02*
D03*
X200704D02*
D03*
X243972Y-344313D02*
D03*
X245941D02*
D03*
X247909D02*
D03*
X249878D02*
D03*
X243972Y-348250D02*
D03*
X245941D02*
D03*
X247909D02*
D03*
X249878D02*
D03*
X293146Y-344313D02*
D03*
X295115D02*
D03*
X297083D02*
D03*
X299052D02*
D03*
X293146Y-348250D02*
D03*
X295115D02*
D03*
X297083D02*
D03*
X299052D02*
D03*
X-330714Y-202908D02*
D03*
X-328746D02*
D03*
X-326777D02*
D03*
X-324809D02*
D03*
X-330714Y-206845D02*
D03*
X-328746D02*
D03*
X-326777D02*
D03*
X-324809D02*
D03*
X-285839Y-202737D02*
D03*
X-283871D02*
D03*
X-281902D02*
D03*
X-279934D02*
D03*
X-285839Y-206674D02*
D03*
X-283871D02*
D03*
X-281902D02*
D03*
X-279934D02*
D03*
X-240602Y-202737D02*
D03*
X-238634D02*
D03*
X-236665D02*
D03*
X-234697D02*
D03*
X-240602Y-206674D02*
D03*
X-238634D02*
D03*
X-236665D02*
D03*
X-234697D02*
D03*
X-195365Y-202737D02*
D03*
X-193397D02*
D03*
X-191428D02*
D03*
X-189460D02*
D03*
X-195365Y-206674D02*
D03*
X-193397D02*
D03*
X-191428D02*
D03*
X-189460D02*
D03*
X-150128Y-202737D02*
D03*
X-148160D02*
D03*
X-146191D02*
D03*
X-144223D02*
D03*
X-150128Y-206674D02*
D03*
X-148160D02*
D03*
X-146191D02*
D03*
X-144223D02*
D03*
X-104891Y-202737D02*
D03*
X-102923D02*
D03*
X-100954D02*
D03*
X-98986D02*
D03*
X-104891Y-206674D02*
D03*
X-102923D02*
D03*
X-100954D02*
D03*
X-98986D02*
D03*
X-59654Y-202737D02*
D03*
X-57686D02*
D03*
X-55717D02*
D03*
X-53749D02*
D03*
X-59654Y-206674D02*
D03*
X-57686D02*
D03*
X-55717D02*
D03*
X-53749D02*
D03*
X-14417Y-202737D02*
D03*
X-12449D02*
D03*
X-10480D02*
D03*
X-8512D02*
D03*
X-14417Y-206674D02*
D03*
X-12449D02*
D03*
X-10480D02*
D03*
X-8512D02*
D03*
X342315Y-344232D02*
D03*
X344284D02*
D03*
X346252D02*
D03*
X348221D02*
D03*
X342315Y-348169D02*
D03*
X344284D02*
D03*
X346252D02*
D03*
X348221D02*
D03*
X30173Y-222839D02*
D03*
X32142D02*
D03*
X34110D02*
D03*
X36079D02*
D03*
X30173Y-226776D02*
D03*
X32142D02*
D03*
X34110D02*
D03*
X36079D02*
D03*
X75410Y-222839D02*
D03*
X77379D02*
D03*
X79347D02*
D03*
X81316D02*
D03*
X75410Y-226776D02*
D03*
X77379D02*
D03*
X79347D02*
D03*
X81316D02*
D03*
X120647Y-222839D02*
D03*
X122616D02*
D03*
X124584D02*
D03*
X126553D02*
D03*
X120647Y-226776D02*
D03*
X122616D02*
D03*
X124584D02*
D03*
X126553D02*
D03*
X165884Y-222839D02*
D03*
X167853D02*
D03*
X169821D02*
D03*
X171790D02*
D03*
X165884Y-226776D02*
D03*
X167853D02*
D03*
X169821D02*
D03*
X171790D02*
D03*
X211121Y-222839D02*
D03*
X213090D02*
D03*
X215058D02*
D03*
X217027D02*
D03*
X211121Y-226776D02*
D03*
X213090D02*
D03*
X215058D02*
D03*
X217027D02*
D03*
X256358Y-222839D02*
D03*
X258327D02*
D03*
X260295D02*
D03*
X262264D02*
D03*
X256358Y-226776D02*
D03*
X258327D02*
D03*
X260295D02*
D03*
X262264D02*
D03*
X301595Y-222839D02*
D03*
X303564D02*
D03*
X305532D02*
D03*
X307501D02*
D03*
X301595Y-226776D02*
D03*
X303564D02*
D03*
X305532D02*
D03*
X307501D02*
D03*
X-345516Y-73891D02*
D03*
X-343547D02*
D03*
X-341579D02*
D03*
X-339610D02*
D03*
X-345516Y-77828D02*
D03*
X-343547D02*
D03*
X-341579D02*
D03*
X-339610D02*
D03*
X-296342Y-73891D02*
D03*
X-294373D02*
D03*
X-292405D02*
D03*
X-290436D02*
D03*
X-296342Y-77828D02*
D03*
X-294373D02*
D03*
X-292405D02*
D03*
X-290436D02*
D03*
X-247168Y-73891D02*
D03*
X-245199D02*
D03*
X-243231D02*
D03*
X-241262D02*
D03*
X-247168Y-77828D02*
D03*
X-245199D02*
D03*
X-243231D02*
D03*
X-241262D02*
D03*
X-197994Y-73891D02*
D03*
X-196025D02*
D03*
X-194057D02*
D03*
X-192088D02*
D03*
X-197994Y-77828D02*
D03*
X-196025D02*
D03*
X-194057D02*
D03*
X-192088D02*
D03*
X-148820Y-73891D02*
D03*
X-146851D02*
D03*
X-144883D02*
D03*
X-142914D02*
D03*
X-148820Y-77828D02*
D03*
X-146851D02*
D03*
X-144883D02*
D03*
X-142914D02*
D03*
X-99646Y-73891D02*
D03*
X-97677D02*
D03*
X-95709D02*
D03*
X-93740D02*
D03*
X-99646Y-77828D02*
D03*
X-97677D02*
D03*
X-95709D02*
D03*
X-93740D02*
D03*
X-50472Y-73891D02*
D03*
X-48503D02*
D03*
X-46535D02*
D03*
X-44566D02*
D03*
X-50472Y-77828D02*
D03*
X-48503D02*
D03*
X-46535D02*
D03*
X-44566D02*
D03*
X-1298Y-73891D02*
D03*
X671D02*
D03*
X2639D02*
D03*
X4608D02*
D03*
X-1298Y-77828D02*
D03*
X671D02*
D03*
X2639D02*
D03*
X4608D02*
D03*
X47876Y-73891D02*
D03*
X49845D02*
D03*
X51813D02*
D03*
X53782D02*
D03*
X47876Y-77828D02*
D03*
X49845D02*
D03*
X51813D02*
D03*
X53782D02*
D03*
X97050Y-73891D02*
D03*
X99019D02*
D03*
X100987D02*
D03*
X102956D02*
D03*
X97050Y-77828D02*
D03*
X99019D02*
D03*
X100987D02*
D03*
X102956D02*
D03*
X146224Y-73891D02*
D03*
X148193D02*
D03*
X150161D02*
D03*
X152130D02*
D03*
X146224Y-77828D02*
D03*
X148193D02*
D03*
X150161D02*
D03*
X152130D02*
D03*
X195398Y-73891D02*
D03*
X197367D02*
D03*
X199335D02*
D03*
X201304D02*
D03*
X195398Y-77828D02*
D03*
X197367D02*
D03*
X199335D02*
D03*
X201304D02*
D03*
X244572Y-73891D02*
D03*
X246541D02*
D03*
X248509D02*
D03*
X250478D02*
D03*
X244572Y-77828D02*
D03*
X246541D02*
D03*
X248509D02*
D03*
X250478D02*
D03*
X293746Y-73891D02*
D03*
X295715D02*
D03*
X297683D02*
D03*
X299652D02*
D03*
X293746Y-77828D02*
D03*
X295715D02*
D03*
X297683D02*
D03*
X299652D02*
D03*
X342920Y-73891D02*
D03*
X344889D02*
D03*
X346857D02*
D03*
X348826D02*
D03*
X342920Y-77828D02*
D03*
X344889D02*
D03*
X346857D02*
D03*
X348826D02*
D03*
X-342920Y73891D02*
D03*
X-344889D02*
D03*
X-346857D02*
D03*
X-348826D02*
D03*
X-342920Y77828D02*
D03*
X-344889D02*
D03*
X-346857D02*
D03*
X-348826D02*
D03*
X-293746Y73891D02*
D03*
X-295715D02*
D03*
X-297683D02*
D03*
X-299652D02*
D03*
X-293746Y77828D02*
D03*
X-295715D02*
D03*
X-297683D02*
D03*
X-299652D02*
D03*
X-244572Y73891D02*
D03*
X-246541D02*
D03*
X-248509D02*
D03*
X-250478D02*
D03*
X-244572Y77828D02*
D03*
X-246541D02*
D03*
X-248509D02*
D03*
X-250478D02*
D03*
X-195398Y73891D02*
D03*
X-197367D02*
D03*
X-199335D02*
D03*
X-201304D02*
D03*
X-195398Y77828D02*
D03*
X-197367D02*
D03*
X-199335D02*
D03*
X-201304D02*
D03*
X-146224Y73891D02*
D03*
X-148193D02*
D03*
X-150161D02*
D03*
X-152130D02*
D03*
X-146224Y77828D02*
D03*
X-148193D02*
D03*
X-150161D02*
D03*
X-152130D02*
D03*
X-97050Y73891D02*
D03*
X-99019D02*
D03*
X-100987D02*
D03*
X-102956D02*
D03*
X-97050Y77828D02*
D03*
X-99019D02*
D03*
X-100987D02*
D03*
X-102956D02*
D03*
X-47876Y73891D02*
D03*
X-49845D02*
D03*
X-51813D02*
D03*
X-53782D02*
D03*
X-47876Y77828D02*
D03*
X-49845D02*
D03*
X-51813D02*
D03*
X-53782D02*
D03*
X1298Y73891D02*
D03*
X-671D02*
D03*
X-2639D02*
D03*
X-4608D02*
D03*
X1298Y77828D02*
D03*
X-671D02*
D03*
X-2639D02*
D03*
X-4608D02*
D03*
X50472Y73891D02*
D03*
X48503D02*
D03*
X46535D02*
D03*
X44566D02*
D03*
X50472Y77828D02*
D03*
X48503D02*
D03*
X46535D02*
D03*
X44566D02*
D03*
X99646Y73891D02*
D03*
X97677D02*
D03*
X95709D02*
D03*
X93740D02*
D03*
X99646Y77828D02*
D03*
X97677D02*
D03*
X95709D02*
D03*
X93740D02*
D03*
X148820Y73891D02*
D03*
X146851D02*
D03*
X144883D02*
D03*
X142914D02*
D03*
X148820Y77828D02*
D03*
X146851D02*
D03*
X144883D02*
D03*
X142914D02*
D03*
X197994Y73891D02*
D03*
X196025D02*
D03*
X194057D02*
D03*
X192088D02*
D03*
X197994Y77828D02*
D03*
X196025D02*
D03*
X194057D02*
D03*
X192088D02*
D03*
X247168Y73891D02*
D03*
X245199D02*
D03*
X243231D02*
D03*
X241262D02*
D03*
X247168Y77828D02*
D03*
X245199D02*
D03*
X243231D02*
D03*
X241262D02*
D03*
X296342Y73891D02*
D03*
X294373D02*
D03*
X292405D02*
D03*
X290436D02*
D03*
X296342Y77828D02*
D03*
X294373D02*
D03*
X292405D02*
D03*
X290436D02*
D03*
X345516Y73891D02*
D03*
X343547D02*
D03*
X341579D02*
D03*
X339610D02*
D03*
X345516Y77828D02*
D03*
X343547D02*
D03*
X341579D02*
D03*
X339610D02*
D03*
X-301595Y222839D02*
D03*
X-303564D02*
D03*
X-305532D02*
D03*
X-307501D02*
D03*
X-301595Y226776D02*
D03*
X-303564D02*
D03*
X-305532D02*
D03*
X-307501D02*
D03*
X-256358Y222839D02*
D03*
X-258327D02*
D03*
X-260295D02*
D03*
X-262264D02*
D03*
X-256358Y226776D02*
D03*
X-258327D02*
D03*
X-260295D02*
D03*
X-262264D02*
D03*
X-211121Y222839D02*
D03*
X-213090D02*
D03*
X-215058D02*
D03*
X-217027D02*
D03*
X-211121Y226776D02*
D03*
X-213090D02*
D03*
X-215058D02*
D03*
X-217027D02*
D03*
X-165884Y222839D02*
D03*
X-167853D02*
D03*
X-169821D02*
D03*
X-171790D02*
D03*
X-165884Y226776D02*
D03*
X-167853D02*
D03*
X-169821D02*
D03*
X-171790D02*
D03*
X-120647Y222839D02*
D03*
X-122616D02*
D03*
X-124584D02*
D03*
X-126553D02*
D03*
X-120647Y226776D02*
D03*
X-122616D02*
D03*
X-124584D02*
D03*
X-126553D02*
D03*
X-75410Y222839D02*
D03*
X-77379D02*
D03*
X-79347D02*
D03*
X-81316D02*
D03*
X-75410Y226776D02*
D03*
X-77379D02*
D03*
X-79347D02*
D03*
X-81316D02*
D03*
X-30173Y222839D02*
D03*
X-32142D02*
D03*
X-34110D02*
D03*
X-36079D02*
D03*
X-30173Y226776D02*
D03*
X-32142D02*
D03*
X-34110D02*
D03*
X-36079D02*
D03*
X-342315Y344232D02*
D03*
X-344284D02*
D03*
X-346252D02*
D03*
X-348221D02*
D03*
X-342315Y348169D02*
D03*
X-344284D02*
D03*
X-346252D02*
D03*
X-348221D02*
D03*
X14417Y202737D02*
D03*
X12449D02*
D03*
X10480D02*
D03*
X8512D02*
D03*
X14417Y206674D02*
D03*
X12449D02*
D03*
X10480D02*
D03*
X8512D02*
D03*
X59654Y202737D02*
D03*
X57686D02*
D03*
X55717D02*
D03*
X53749D02*
D03*
X59654Y206674D02*
D03*
X57686D02*
D03*
X55717D02*
D03*
X53749D02*
D03*
X104891Y202737D02*
D03*
X102923D02*
D03*
X100954D02*
D03*
X98986D02*
D03*
X104891Y206674D02*
D03*
X102923D02*
D03*
X100954D02*
D03*
X98986D02*
D03*
X150128Y202737D02*
D03*
X148160D02*
D03*
X146191D02*
D03*
X144223D02*
D03*
X150128Y206674D02*
D03*
X148160D02*
D03*
X146191D02*
D03*
X144223D02*
D03*
X195365Y202737D02*
D03*
X193397D02*
D03*
X191428D02*
D03*
X189460D02*
D03*
X195365Y206674D02*
D03*
X193397D02*
D03*
X191428D02*
D03*
X189460D02*
D03*
X240602Y202737D02*
D03*
X238634D02*
D03*
X236665D02*
D03*
X234697D02*
D03*
X240602Y206674D02*
D03*
X238634D02*
D03*
X236665D02*
D03*
X234697D02*
D03*
X285839Y202737D02*
D03*
X283871D02*
D03*
X281902D02*
D03*
X279934D02*
D03*
X285839Y206674D02*
D03*
X283871D02*
D03*
X281902D02*
D03*
X279934D02*
D03*
X330714Y202908D02*
D03*
X328746D02*
D03*
X326777D02*
D03*
X324809D02*
D03*
X330714Y206845D02*
D03*
X328746D02*
D03*
X326777D02*
D03*
X324809D02*
D03*
X-293146Y344313D02*
D03*
X-295115D02*
D03*
X-297083D02*
D03*
X-299052D02*
D03*
X-293146Y348250D02*
D03*
X-295115D02*
D03*
X-297083D02*
D03*
X-299052D02*
D03*
X-243972Y344313D02*
D03*
X-245941D02*
D03*
X-247909D02*
D03*
X-249878D02*
D03*
X-243972Y348250D02*
D03*
X-245941D02*
D03*
X-247909D02*
D03*
X-249878D02*
D03*
X-194798Y344313D02*
D03*
X-196767D02*
D03*
X-198735D02*
D03*
X-200704D02*
D03*
X-194798Y348250D02*
D03*
X-196767D02*
D03*
X-198735D02*
D03*
X-200704D02*
D03*
X-145624Y344313D02*
D03*
X-147593D02*
D03*
X-149561D02*
D03*
X-151530D02*
D03*
X-145624Y348250D02*
D03*
X-147593D02*
D03*
X-149561D02*
D03*
X-151530D02*
D03*
X-96450Y344313D02*
D03*
X-98419D02*
D03*
X-100387D02*
D03*
X-102356D02*
D03*
X-96450Y348250D02*
D03*
X-98419D02*
D03*
X-100387D02*
D03*
X-102356D02*
D03*
X-47276Y344313D02*
D03*
X-49245D02*
D03*
X-51213D02*
D03*
X-53182D02*
D03*
X-47276Y348250D02*
D03*
X-49245D02*
D03*
X-51213D02*
D03*
X-53182D02*
D03*
X1898Y344313D02*
D03*
X-71D02*
D03*
X-2039D02*
D03*
X-4008D02*
D03*
X1898Y348250D02*
D03*
X-71D02*
D03*
X-2039D02*
D03*
X-4008D02*
D03*
X51072Y344313D02*
D03*
X49103D02*
D03*
X47135D02*
D03*
X45166D02*
D03*
X51072Y348250D02*
D03*
X49103D02*
D03*
X47135D02*
D03*
X45166D02*
D03*
X100246Y344313D02*
D03*
X98277D02*
D03*
X96309D02*
D03*
X94340D02*
D03*
X100246Y348250D02*
D03*
X98277D02*
D03*
X96309D02*
D03*
X94340D02*
D03*
X149420Y344313D02*
D03*
X147451D02*
D03*
X145483D02*
D03*
X143514D02*
D03*
X149420Y348250D02*
D03*
X147451D02*
D03*
X145483D02*
D03*
X143514D02*
D03*
X198594Y344313D02*
D03*
X196625D02*
D03*
X194657D02*
D03*
X192688D02*
D03*
X198594Y348250D02*
D03*
X196625D02*
D03*
X194657D02*
D03*
X192688D02*
D03*
X247768Y344313D02*
D03*
X245799D02*
D03*
X243831D02*
D03*
X241862D02*
D03*
X247768Y348250D02*
D03*
X245799D02*
D03*
X243831D02*
D03*
X241862D02*
D03*
X296942Y344313D02*
D03*
X294973D02*
D03*
X293005D02*
D03*
X291036D02*
D03*
X296942Y348250D02*
D03*
X294973D02*
D03*
X293005D02*
D03*
X291036D02*
D03*
X346116Y344313D02*
D03*
X344147D02*
D03*
X342179D02*
D03*
X340210D02*
D03*
X346116Y348250D02*
D03*
X344147D02*
D03*
X342179D02*
D03*
X340210D02*
D03*
D29*
X-351722Y-311832D02*
D03*
Y-317738D02*
D03*
X-338730D02*
D03*
Y-311832D02*
D03*
X-302548D02*
D03*
Y-317738D02*
D03*
X-289556D02*
D03*
Y-311832D02*
D03*
X-253374D02*
D03*
Y-317738D02*
D03*
X-240382D02*
D03*
Y-311832D02*
D03*
X-204200D02*
D03*
Y-317738D02*
D03*
X-191208D02*
D03*
Y-311832D02*
D03*
X-155026D02*
D03*
Y-317738D02*
D03*
X-142034D02*
D03*
Y-311832D02*
D03*
X-105852D02*
D03*
Y-317738D02*
D03*
X-92860D02*
D03*
Y-311832D02*
D03*
X-56678D02*
D03*
Y-317738D02*
D03*
X-43686D02*
D03*
Y-311832D02*
D03*
X-7504D02*
D03*
Y-317738D02*
D03*
X5488D02*
D03*
Y-311832D02*
D03*
X41670D02*
D03*
Y-317738D02*
D03*
X54662D02*
D03*
Y-311832D02*
D03*
X90844D02*
D03*
Y-317738D02*
D03*
X103836D02*
D03*
Y-311832D02*
D03*
X140018D02*
D03*
Y-317738D02*
D03*
X153010D02*
D03*
Y-311832D02*
D03*
X189192D02*
D03*
Y-317738D02*
D03*
X202184D02*
D03*
Y-311832D02*
D03*
X238366D02*
D03*
Y-317738D02*
D03*
X251358D02*
D03*
Y-311832D02*
D03*
X287540D02*
D03*
Y-317738D02*
D03*
X300532D02*
D03*
Y-311832D02*
D03*
X-336321Y-170427D02*
D03*
Y-176333D02*
D03*
X-323329D02*
D03*
Y-170427D02*
D03*
X-291446Y-170256D02*
D03*
Y-176162D02*
D03*
X-278454D02*
D03*
Y-170256D02*
D03*
X-246209D02*
D03*
Y-176162D02*
D03*
X-233217D02*
D03*
Y-170256D02*
D03*
X-200972D02*
D03*
Y-176162D02*
D03*
X-187980D02*
D03*
Y-170256D02*
D03*
X-155735D02*
D03*
Y-176162D02*
D03*
X-142743D02*
D03*
Y-170256D02*
D03*
X-110498D02*
D03*
Y-176162D02*
D03*
X-97506D02*
D03*
Y-170256D02*
D03*
X-65261D02*
D03*
Y-176162D02*
D03*
X-52269D02*
D03*
Y-170256D02*
D03*
X-20024D02*
D03*
Y-176162D02*
D03*
X-7032D02*
D03*
Y-170256D02*
D03*
X336709Y-311752D02*
D03*
Y-317657D02*
D03*
X349701D02*
D03*
Y-311752D02*
D03*
X24567Y-190359D02*
D03*
Y-196264D02*
D03*
X37559D02*
D03*
Y-190359D02*
D03*
X69804D02*
D03*
Y-196264D02*
D03*
X82796D02*
D03*
Y-190359D02*
D03*
X115041D02*
D03*
Y-196264D02*
D03*
X128033D02*
D03*
Y-190359D02*
D03*
X160278D02*
D03*
Y-196264D02*
D03*
X173270D02*
D03*
Y-190359D02*
D03*
X205515D02*
D03*
Y-196264D02*
D03*
X218507D02*
D03*
Y-190359D02*
D03*
X250751D02*
D03*
Y-196264D02*
D03*
X263744D02*
D03*
Y-190359D02*
D03*
X295988D02*
D03*
Y-196264D02*
D03*
X308981D02*
D03*
Y-190359D02*
D03*
X-351122Y-41410D02*
D03*
Y-47315D02*
D03*
X-338130D02*
D03*
Y-41410D02*
D03*
X-301948D02*
D03*
Y-47315D02*
D03*
X-288956D02*
D03*
Y-41410D02*
D03*
X-252774D02*
D03*
Y-47315D02*
D03*
X-239782D02*
D03*
Y-41410D02*
D03*
X-203600D02*
D03*
Y-47315D02*
D03*
X-190608D02*
D03*
Y-41410D02*
D03*
X-154426D02*
D03*
Y-47315D02*
D03*
X-141434D02*
D03*
Y-41410D02*
D03*
X-105252D02*
D03*
Y-47315D02*
D03*
X-92260D02*
D03*
Y-41410D02*
D03*
X-56078D02*
D03*
Y-47315D02*
D03*
X-43086D02*
D03*
Y-41410D02*
D03*
X-6904D02*
D03*
Y-47315D02*
D03*
X6088D02*
D03*
Y-41410D02*
D03*
X42270D02*
D03*
Y-47315D02*
D03*
X55262D02*
D03*
Y-41410D02*
D03*
X91444D02*
D03*
Y-47315D02*
D03*
X104436D02*
D03*
Y-41410D02*
D03*
X140618D02*
D03*
Y-47315D02*
D03*
X153610D02*
D03*
Y-41410D02*
D03*
X189792D02*
D03*
Y-47315D02*
D03*
X202784D02*
D03*
Y-41410D02*
D03*
X238966D02*
D03*
Y-47315D02*
D03*
X251958D02*
D03*
Y-41410D02*
D03*
X288140D02*
D03*
Y-47315D02*
D03*
X301132D02*
D03*
Y-41410D02*
D03*
X337314D02*
D03*
Y-47315D02*
D03*
X350306D02*
D03*
Y-41410D02*
D03*
X-337314Y41410D02*
D03*
Y47315D02*
D03*
X-350306D02*
D03*
Y41410D02*
D03*
X-288140D02*
D03*
Y47315D02*
D03*
X-301132D02*
D03*
Y41410D02*
D03*
X-238966D02*
D03*
Y47315D02*
D03*
X-251958D02*
D03*
Y41410D02*
D03*
X-189792D02*
D03*
Y47315D02*
D03*
X-202784D02*
D03*
Y41410D02*
D03*
X-140618D02*
D03*
Y47315D02*
D03*
X-153610D02*
D03*
Y41410D02*
D03*
X-91444D02*
D03*
Y47315D02*
D03*
X-104436D02*
D03*
Y41410D02*
D03*
X-42270D02*
D03*
Y47315D02*
D03*
X-55262D02*
D03*
Y41410D02*
D03*
X6904D02*
D03*
Y47315D02*
D03*
X-6088D02*
D03*
Y41410D02*
D03*
X56078D02*
D03*
Y47315D02*
D03*
X43086D02*
D03*
Y41410D02*
D03*
X105252D02*
D03*
Y47315D02*
D03*
X92260D02*
D03*
Y41410D02*
D03*
X154426D02*
D03*
Y47315D02*
D03*
X141434D02*
D03*
Y41410D02*
D03*
X203600D02*
D03*
Y47315D02*
D03*
X190608D02*
D03*
Y41410D02*
D03*
X252774D02*
D03*
Y47315D02*
D03*
X239782D02*
D03*
Y41410D02*
D03*
X301948D02*
D03*
Y47315D02*
D03*
X288956D02*
D03*
Y41410D02*
D03*
X351122D02*
D03*
Y47315D02*
D03*
X338130D02*
D03*
Y41410D02*
D03*
X-295988Y190359D02*
D03*
Y196264D02*
D03*
X-308981D02*
D03*
Y190359D02*
D03*
X-250751D02*
D03*
Y196264D02*
D03*
X-263744D02*
D03*
Y190359D02*
D03*
X-205515D02*
D03*
Y196264D02*
D03*
X-218507D02*
D03*
Y190359D02*
D03*
X-160278D02*
D03*
Y196264D02*
D03*
X-173270D02*
D03*
Y190359D02*
D03*
X-115041D02*
D03*
Y196264D02*
D03*
X-128033D02*
D03*
Y190359D02*
D03*
X-69804D02*
D03*
Y196264D02*
D03*
X-82796D02*
D03*
Y190359D02*
D03*
X-24567D02*
D03*
Y196264D02*
D03*
X-37559D02*
D03*
Y190359D02*
D03*
X-336709Y311752D02*
D03*
Y317657D02*
D03*
X-349701D02*
D03*
Y311752D02*
D03*
X20024Y170256D02*
D03*
Y176162D02*
D03*
X7032D02*
D03*
Y170256D02*
D03*
X65261D02*
D03*
Y176162D02*
D03*
X52269D02*
D03*
Y170256D02*
D03*
X110498D02*
D03*
Y176162D02*
D03*
X97506D02*
D03*
Y170256D02*
D03*
X155735D02*
D03*
Y176162D02*
D03*
X142743D02*
D03*
Y170256D02*
D03*
X200972D02*
D03*
Y176162D02*
D03*
X187980D02*
D03*
Y170256D02*
D03*
X246209D02*
D03*
Y176162D02*
D03*
X233217D02*
D03*
Y170256D02*
D03*
X291446D02*
D03*
Y176162D02*
D03*
X278454D02*
D03*
Y170256D02*
D03*
X336321Y170427D02*
D03*
Y176333D02*
D03*
X323329D02*
D03*
Y170427D02*
D03*
X-287540Y311832D02*
D03*
Y317738D02*
D03*
X-300532D02*
D03*
Y311832D02*
D03*
X-238366D02*
D03*
Y317738D02*
D03*
X-251358D02*
D03*
Y311832D02*
D03*
X-189192D02*
D03*
Y317738D02*
D03*
X-202184D02*
D03*
Y311832D02*
D03*
X-140018D02*
D03*
Y317738D02*
D03*
X-153010D02*
D03*
Y311832D02*
D03*
X-90844D02*
D03*
Y317738D02*
D03*
X-103836D02*
D03*
Y311832D02*
D03*
X-41670D02*
D03*
Y317738D02*
D03*
X-54662D02*
D03*
Y311832D02*
D03*
X7504D02*
D03*
Y317738D02*
D03*
X-5488D02*
D03*
Y311832D02*
D03*
X56678D02*
D03*
Y317738D02*
D03*
X43686D02*
D03*
Y311832D02*
D03*
X105852D02*
D03*
Y317738D02*
D03*
X92860D02*
D03*
Y311832D02*
D03*
X155026D02*
D03*
Y317738D02*
D03*
X142034D02*
D03*
Y311832D02*
D03*
X204200D02*
D03*
Y317738D02*
D03*
X191208D02*
D03*
Y311832D02*
D03*
X253374D02*
D03*
Y317738D02*
D03*
X240382D02*
D03*
Y311832D02*
D03*
X302548D02*
D03*
Y317738D02*
D03*
X289556D02*
D03*
Y311832D02*
D03*
X351722D02*
D03*
Y317738D02*
D03*
X338730D02*
D03*
Y311832D02*
D03*
D30*
X-349163Y-321281D02*
D03*
X-347195D02*
D03*
X-345226D02*
D03*
X-343258D02*
D03*
X-341289D02*
D03*
Y-308289D02*
D03*
X-343258D02*
D03*
X-345226D02*
D03*
X-347195D02*
D03*
X-349163D02*
D03*
X-299989Y-321281D02*
D03*
X-298021D02*
D03*
X-296052D02*
D03*
X-294084D02*
D03*
X-292115D02*
D03*
Y-308289D02*
D03*
X-294084D02*
D03*
X-296052D02*
D03*
X-298021D02*
D03*
X-299989D02*
D03*
X-250815Y-321281D02*
D03*
X-248847D02*
D03*
X-246878D02*
D03*
X-244910D02*
D03*
X-242941D02*
D03*
Y-308289D02*
D03*
X-244910D02*
D03*
X-246878D02*
D03*
X-248847D02*
D03*
X-250815D02*
D03*
X-201641Y-321281D02*
D03*
X-199673D02*
D03*
X-197704D02*
D03*
X-195736D02*
D03*
X-193767D02*
D03*
Y-308289D02*
D03*
X-195736D02*
D03*
X-197704D02*
D03*
X-199673D02*
D03*
X-201641D02*
D03*
X-152467Y-321281D02*
D03*
X-150499D02*
D03*
X-148530D02*
D03*
X-146561D02*
D03*
X-144593D02*
D03*
Y-308289D02*
D03*
X-146561D02*
D03*
X-148530D02*
D03*
X-150499D02*
D03*
X-152467D02*
D03*
X-103293Y-321281D02*
D03*
X-101324D02*
D03*
X-99356D02*
D03*
X-97387D02*
D03*
X-95419D02*
D03*
Y-308289D02*
D03*
X-97387D02*
D03*
X-99356D02*
D03*
X-101324D02*
D03*
X-103293D02*
D03*
X-54119Y-321281D02*
D03*
X-52150D02*
D03*
X-50182D02*
D03*
X-48213D02*
D03*
X-46245D02*
D03*
Y-308289D02*
D03*
X-48213D02*
D03*
X-50182D02*
D03*
X-52150D02*
D03*
X-54119D02*
D03*
X-4945Y-321281D02*
D03*
X-2976D02*
D03*
X-1008D02*
D03*
X961D02*
D03*
X2929D02*
D03*
Y-308289D02*
D03*
X961D02*
D03*
X-1008D02*
D03*
X-2976D02*
D03*
X-4945D02*
D03*
X44229Y-321281D02*
D03*
X46198D02*
D03*
X48166D02*
D03*
X50135D02*
D03*
X52103D02*
D03*
Y-308289D02*
D03*
X50135D02*
D03*
X48166D02*
D03*
X46198D02*
D03*
X44229D02*
D03*
X93403Y-321281D02*
D03*
X95372D02*
D03*
X97340D02*
D03*
X99309D02*
D03*
X101277D02*
D03*
Y-308289D02*
D03*
X99309D02*
D03*
X97340D02*
D03*
X95372D02*
D03*
X93403D02*
D03*
X142577Y-321281D02*
D03*
X144546D02*
D03*
X146514D02*
D03*
X148483D02*
D03*
X150451D02*
D03*
Y-308289D02*
D03*
X148483D02*
D03*
X146514D02*
D03*
X144546D02*
D03*
X142577D02*
D03*
X191751Y-321281D02*
D03*
X193720D02*
D03*
X195688D02*
D03*
X197657D02*
D03*
X199625D02*
D03*
Y-308289D02*
D03*
X197657D02*
D03*
X195688D02*
D03*
X193720D02*
D03*
X191751D02*
D03*
X240925Y-321281D02*
D03*
X242894D02*
D03*
X244862D02*
D03*
X246831D02*
D03*
X248799D02*
D03*
Y-308289D02*
D03*
X246831D02*
D03*
X244862D02*
D03*
X242894D02*
D03*
X240925D02*
D03*
X290099Y-321281D02*
D03*
X292068D02*
D03*
X294036D02*
D03*
X296005D02*
D03*
X297973D02*
D03*
Y-308289D02*
D03*
X296005D02*
D03*
X294036D02*
D03*
X292068D02*
D03*
X290099D02*
D03*
X-333761Y-179876D02*
D03*
X-331793D02*
D03*
X-329824D02*
D03*
X-327856D02*
D03*
X-325887D02*
D03*
Y-166884D02*
D03*
X-327856D02*
D03*
X-329824D02*
D03*
X-331793D02*
D03*
X-333761D02*
D03*
X-288886Y-179706D02*
D03*
X-286918D02*
D03*
X-284949D02*
D03*
X-282981D02*
D03*
X-281013D02*
D03*
Y-166714D02*
D03*
X-282981D02*
D03*
X-284949D02*
D03*
X-286918D02*
D03*
X-288886D02*
D03*
X-243650Y-179706D02*
D03*
X-241681D02*
D03*
X-239713D02*
D03*
X-237744D02*
D03*
X-235775D02*
D03*
Y-166714D02*
D03*
X-237744D02*
D03*
X-239713D02*
D03*
X-241681D02*
D03*
X-243650D02*
D03*
X-198413Y-179706D02*
D03*
X-196444D02*
D03*
X-194475D02*
D03*
X-192507D02*
D03*
X-190539D02*
D03*
Y-166714D02*
D03*
X-192507D02*
D03*
X-194475D02*
D03*
X-196444D02*
D03*
X-198413D02*
D03*
X-153176Y-179706D02*
D03*
X-151207D02*
D03*
X-149239D02*
D03*
X-147270D02*
D03*
X-145302D02*
D03*
Y-166714D02*
D03*
X-147270D02*
D03*
X-149239D02*
D03*
X-151207D02*
D03*
X-153176D02*
D03*
X-107939Y-179706D02*
D03*
X-105970D02*
D03*
X-104002D02*
D03*
X-102033D02*
D03*
X-100065D02*
D03*
Y-166714D02*
D03*
X-102033D02*
D03*
X-104002D02*
D03*
X-105970D02*
D03*
X-107939D02*
D03*
X-62702Y-179706D02*
D03*
X-60733D02*
D03*
X-58765D02*
D03*
X-56796D02*
D03*
X-54828D02*
D03*
Y-166714D02*
D03*
X-56796D02*
D03*
X-58765D02*
D03*
X-60733D02*
D03*
X-62702D02*
D03*
X-17465Y-179706D02*
D03*
X-15496D02*
D03*
X-13528D02*
D03*
X-11559D02*
D03*
X-9591D02*
D03*
Y-166714D02*
D03*
X-11559D02*
D03*
X-13528D02*
D03*
X-15496D02*
D03*
X-17465D02*
D03*
X339268Y-321201D02*
D03*
X341237D02*
D03*
X343205D02*
D03*
X345174D02*
D03*
X347142D02*
D03*
Y-308209D02*
D03*
X345174D02*
D03*
X343205D02*
D03*
X341237D02*
D03*
X339268D02*
D03*
X27126Y-199808D02*
D03*
X29094D02*
D03*
X31063D02*
D03*
X33031D02*
D03*
X35000D02*
D03*
Y-186816D02*
D03*
X33031D02*
D03*
X31063D02*
D03*
X29094D02*
D03*
X27126D02*
D03*
X72363Y-199808D02*
D03*
X74331D02*
D03*
X76300D02*
D03*
X78268D02*
D03*
X80237D02*
D03*
Y-186816D02*
D03*
X78268D02*
D03*
X76300D02*
D03*
X74331D02*
D03*
X72363D02*
D03*
X117600Y-199808D02*
D03*
X119568D02*
D03*
X121537D02*
D03*
X123505D02*
D03*
X125474D02*
D03*
Y-186816D02*
D03*
X123505D02*
D03*
X121537D02*
D03*
X119568D02*
D03*
X117600D02*
D03*
X162837Y-199808D02*
D03*
X164805D02*
D03*
X166774D02*
D03*
X168742D02*
D03*
X170711D02*
D03*
Y-186816D02*
D03*
X168742D02*
D03*
X166774D02*
D03*
X164805D02*
D03*
X162837D02*
D03*
X208074Y-199808D02*
D03*
X210042D02*
D03*
X212011D02*
D03*
X213979D02*
D03*
X215948D02*
D03*
Y-186816D02*
D03*
X213979D02*
D03*
X212011D02*
D03*
X210042D02*
D03*
X208074D02*
D03*
X253311Y-199808D02*
D03*
X255279D02*
D03*
X257248D02*
D03*
X259216D02*
D03*
X261185D02*
D03*
Y-186816D02*
D03*
X259216D02*
D03*
X257248D02*
D03*
X255279D02*
D03*
X253311D02*
D03*
X298548Y-199808D02*
D03*
X300516D02*
D03*
X302485D02*
D03*
X304453D02*
D03*
X306422D02*
D03*
Y-186816D02*
D03*
X304453D02*
D03*
X302485D02*
D03*
X300516D02*
D03*
X298548D02*
D03*
X-348563Y-50859D02*
D03*
X-346595D02*
D03*
X-344626D02*
D03*
X-342658D02*
D03*
X-340689D02*
D03*
Y-37867D02*
D03*
X-342658D02*
D03*
X-344626D02*
D03*
X-346595D02*
D03*
X-348563D02*
D03*
X-299389Y-50859D02*
D03*
X-297421D02*
D03*
X-295452D02*
D03*
X-293484D02*
D03*
X-291515D02*
D03*
Y-37867D02*
D03*
X-293484D02*
D03*
X-295452D02*
D03*
X-297421D02*
D03*
X-299389D02*
D03*
X-250215Y-50859D02*
D03*
X-248247D02*
D03*
X-246278D02*
D03*
X-244310D02*
D03*
X-242341D02*
D03*
Y-37867D02*
D03*
X-244310D02*
D03*
X-246278D02*
D03*
X-248247D02*
D03*
X-250215D02*
D03*
X-201041Y-50859D02*
D03*
X-199073D02*
D03*
X-197104D02*
D03*
X-195136D02*
D03*
X-193167D02*
D03*
Y-37867D02*
D03*
X-195136D02*
D03*
X-197104D02*
D03*
X-199073D02*
D03*
X-201041D02*
D03*
X-151867Y-50859D02*
D03*
X-149899D02*
D03*
X-147930D02*
D03*
X-145961D02*
D03*
X-143993D02*
D03*
Y-37867D02*
D03*
X-145961D02*
D03*
X-147930D02*
D03*
X-149899D02*
D03*
X-151867D02*
D03*
X-102693Y-50859D02*
D03*
X-100724D02*
D03*
X-98756D02*
D03*
X-96787D02*
D03*
X-94819D02*
D03*
Y-37867D02*
D03*
X-96787D02*
D03*
X-98756D02*
D03*
X-100724D02*
D03*
X-102693D02*
D03*
X-53519Y-50859D02*
D03*
X-51550D02*
D03*
X-49582D02*
D03*
X-47613D02*
D03*
X-45645D02*
D03*
Y-37867D02*
D03*
X-47613D02*
D03*
X-49582D02*
D03*
X-51550D02*
D03*
X-53519D02*
D03*
X-4345Y-50859D02*
D03*
X-2376D02*
D03*
X-408D02*
D03*
X1561D02*
D03*
X3529D02*
D03*
Y-37867D02*
D03*
X1561D02*
D03*
X-408D02*
D03*
X-2376D02*
D03*
X-4345D02*
D03*
X44829Y-50859D02*
D03*
X46798D02*
D03*
X48766D02*
D03*
X50735D02*
D03*
X52703D02*
D03*
Y-37867D02*
D03*
X50735D02*
D03*
X48766D02*
D03*
X46798D02*
D03*
X44829D02*
D03*
X94003Y-50859D02*
D03*
X95972D02*
D03*
X97940D02*
D03*
X99909D02*
D03*
X101877D02*
D03*
Y-37867D02*
D03*
X99909D02*
D03*
X97940D02*
D03*
X95972D02*
D03*
X94003D02*
D03*
X143177Y-50859D02*
D03*
X145146D02*
D03*
X147114D02*
D03*
X149083D02*
D03*
X151051D02*
D03*
Y-37867D02*
D03*
X149083D02*
D03*
X147114D02*
D03*
X145146D02*
D03*
X143177D02*
D03*
X192351Y-50859D02*
D03*
X194320D02*
D03*
X196288D02*
D03*
X198257D02*
D03*
X200225D02*
D03*
Y-37867D02*
D03*
X198257D02*
D03*
X196288D02*
D03*
X194320D02*
D03*
X192351D02*
D03*
X241525Y-50859D02*
D03*
X243494D02*
D03*
X245462D02*
D03*
X247431D02*
D03*
X249399D02*
D03*
Y-37867D02*
D03*
X247431D02*
D03*
X245462D02*
D03*
X243494D02*
D03*
X241525D02*
D03*
X290699Y-50859D02*
D03*
X292668D02*
D03*
X294636D02*
D03*
X296605D02*
D03*
X298573D02*
D03*
Y-37867D02*
D03*
X296605D02*
D03*
X294636D02*
D03*
X292668D02*
D03*
X290699D02*
D03*
X339873Y-50859D02*
D03*
X341842D02*
D03*
X343810D02*
D03*
X345779D02*
D03*
X347747D02*
D03*
Y-37867D02*
D03*
X345779D02*
D03*
X343810D02*
D03*
X341842D02*
D03*
X339873D02*
D03*
X-339873Y50859D02*
D03*
X-341842D02*
D03*
X-343810D02*
D03*
X-345779D02*
D03*
X-347747D02*
D03*
Y37867D02*
D03*
X-345779D02*
D03*
X-343810D02*
D03*
X-341842D02*
D03*
X-339873D02*
D03*
X-290699Y50859D02*
D03*
X-292668D02*
D03*
X-294636D02*
D03*
X-296605D02*
D03*
X-298573D02*
D03*
Y37867D02*
D03*
X-296605D02*
D03*
X-294636D02*
D03*
X-292668D02*
D03*
X-290699D02*
D03*
X-241525Y50859D02*
D03*
X-243494D02*
D03*
X-245462D02*
D03*
X-247431D02*
D03*
X-249399D02*
D03*
Y37867D02*
D03*
X-247431D02*
D03*
X-245462D02*
D03*
X-243494D02*
D03*
X-241525D02*
D03*
X-192351Y50859D02*
D03*
X-194320D02*
D03*
X-196288D02*
D03*
X-198257D02*
D03*
X-200225D02*
D03*
Y37867D02*
D03*
X-198257D02*
D03*
X-196288D02*
D03*
X-194320D02*
D03*
X-192351D02*
D03*
X-143177Y50859D02*
D03*
X-145146D02*
D03*
X-147114D02*
D03*
X-149083D02*
D03*
X-151051D02*
D03*
Y37867D02*
D03*
X-149083D02*
D03*
X-147114D02*
D03*
X-145146D02*
D03*
X-143177D02*
D03*
X-94003Y50859D02*
D03*
X-95972D02*
D03*
X-97940D02*
D03*
X-99909D02*
D03*
X-101877D02*
D03*
Y37867D02*
D03*
X-99909D02*
D03*
X-97940D02*
D03*
X-95972D02*
D03*
X-94003D02*
D03*
X-44829Y50859D02*
D03*
X-46798D02*
D03*
X-48766D02*
D03*
X-50735D02*
D03*
X-52703D02*
D03*
Y37867D02*
D03*
X-50735D02*
D03*
X-48766D02*
D03*
X-46798D02*
D03*
X-44829D02*
D03*
X4345Y50859D02*
D03*
X2376D02*
D03*
X408D02*
D03*
X-1561D02*
D03*
X-3529D02*
D03*
Y37867D02*
D03*
X-1561D02*
D03*
X408D02*
D03*
X2376D02*
D03*
X4345D02*
D03*
X53519Y50859D02*
D03*
X51550D02*
D03*
X49582D02*
D03*
X47613D02*
D03*
X45645D02*
D03*
Y37867D02*
D03*
X47613D02*
D03*
X49582D02*
D03*
X51550D02*
D03*
X53519D02*
D03*
X102693Y50859D02*
D03*
X100724D02*
D03*
X98756D02*
D03*
X96787D02*
D03*
X94819D02*
D03*
Y37867D02*
D03*
X96787D02*
D03*
X98756D02*
D03*
X100724D02*
D03*
X102693D02*
D03*
X151867Y50859D02*
D03*
X149899D02*
D03*
X147930D02*
D03*
X145961D02*
D03*
X143993D02*
D03*
Y37867D02*
D03*
X145961D02*
D03*
X147930D02*
D03*
X149899D02*
D03*
X151867D02*
D03*
X201041Y50859D02*
D03*
X199073D02*
D03*
X197104D02*
D03*
X195136D02*
D03*
X193167D02*
D03*
Y37867D02*
D03*
X195136D02*
D03*
X197104D02*
D03*
X199073D02*
D03*
X201041D02*
D03*
X250215Y50859D02*
D03*
X248247D02*
D03*
X246278D02*
D03*
X244310D02*
D03*
X242341D02*
D03*
Y37867D02*
D03*
X244310D02*
D03*
X246278D02*
D03*
X248247D02*
D03*
X250215D02*
D03*
X299389Y50859D02*
D03*
X297421D02*
D03*
X295452D02*
D03*
X293484D02*
D03*
X291515D02*
D03*
Y37867D02*
D03*
X293484D02*
D03*
X295452D02*
D03*
X297421D02*
D03*
X299389D02*
D03*
X348563Y50859D02*
D03*
X346595D02*
D03*
X344626D02*
D03*
X342658D02*
D03*
X340689D02*
D03*
Y37867D02*
D03*
X342658D02*
D03*
X344626D02*
D03*
X346595D02*
D03*
X348563D02*
D03*
X-298548Y199808D02*
D03*
X-300516D02*
D03*
X-302485D02*
D03*
X-304453D02*
D03*
X-306422D02*
D03*
Y186816D02*
D03*
X-304453D02*
D03*
X-302485D02*
D03*
X-300516D02*
D03*
X-298548D02*
D03*
X-253311Y199808D02*
D03*
X-255279D02*
D03*
X-257248D02*
D03*
X-259216D02*
D03*
X-261185D02*
D03*
Y186816D02*
D03*
X-259216D02*
D03*
X-257248D02*
D03*
X-255279D02*
D03*
X-253311D02*
D03*
X-208074Y199808D02*
D03*
X-210042D02*
D03*
X-212011D02*
D03*
X-213979D02*
D03*
X-215948D02*
D03*
Y186816D02*
D03*
X-213979D02*
D03*
X-212011D02*
D03*
X-210042D02*
D03*
X-208074D02*
D03*
X-162837Y199808D02*
D03*
X-164805D02*
D03*
X-166774D02*
D03*
X-168742D02*
D03*
X-170711D02*
D03*
Y186816D02*
D03*
X-168742D02*
D03*
X-166774D02*
D03*
X-164805D02*
D03*
X-162837D02*
D03*
X-117600Y199808D02*
D03*
X-119568D02*
D03*
X-121537D02*
D03*
X-123505D02*
D03*
X-125474D02*
D03*
Y186816D02*
D03*
X-123505D02*
D03*
X-121537D02*
D03*
X-119568D02*
D03*
X-117600D02*
D03*
X-72363Y199808D02*
D03*
X-74331D02*
D03*
X-76300D02*
D03*
X-78268D02*
D03*
X-80237D02*
D03*
Y186816D02*
D03*
X-78268D02*
D03*
X-76300D02*
D03*
X-74331D02*
D03*
X-72363D02*
D03*
X-27126Y199808D02*
D03*
X-29094D02*
D03*
X-31063D02*
D03*
X-33031D02*
D03*
X-35000D02*
D03*
Y186816D02*
D03*
X-33031D02*
D03*
X-31063D02*
D03*
X-29094D02*
D03*
X-27126D02*
D03*
X-339268Y321201D02*
D03*
X-341237D02*
D03*
X-343205D02*
D03*
X-345174D02*
D03*
X-347142D02*
D03*
Y308209D02*
D03*
X-345174D02*
D03*
X-343205D02*
D03*
X-341237D02*
D03*
X-339268D02*
D03*
X17465Y179706D02*
D03*
X15496D02*
D03*
X13528D02*
D03*
X11559D02*
D03*
X9591D02*
D03*
Y166714D02*
D03*
X11559D02*
D03*
X13528D02*
D03*
X15496D02*
D03*
X17465D02*
D03*
X62702Y179706D02*
D03*
X60733D02*
D03*
X58765D02*
D03*
X56796D02*
D03*
X54828D02*
D03*
Y166714D02*
D03*
X56796D02*
D03*
X58765D02*
D03*
X60733D02*
D03*
X62702D02*
D03*
X107939Y179706D02*
D03*
X105970D02*
D03*
X104002D02*
D03*
X102033D02*
D03*
X100065D02*
D03*
Y166714D02*
D03*
X102033D02*
D03*
X104002D02*
D03*
X105970D02*
D03*
X107939D02*
D03*
X153176Y179706D02*
D03*
X151207D02*
D03*
X149239D02*
D03*
X147270D02*
D03*
X145302D02*
D03*
Y166714D02*
D03*
X147270D02*
D03*
X149239D02*
D03*
X151207D02*
D03*
X153176D02*
D03*
X198413Y179706D02*
D03*
X196444D02*
D03*
X194475D02*
D03*
X192507D02*
D03*
X190539D02*
D03*
Y166714D02*
D03*
X192507D02*
D03*
X194475D02*
D03*
X196444D02*
D03*
X198413D02*
D03*
X243650Y179706D02*
D03*
X241681D02*
D03*
X239713D02*
D03*
X237744D02*
D03*
X235775D02*
D03*
Y166714D02*
D03*
X237744D02*
D03*
X239713D02*
D03*
X241681D02*
D03*
X243650D02*
D03*
X288886Y179706D02*
D03*
X286918D02*
D03*
X284949D02*
D03*
X282981D02*
D03*
X281013D02*
D03*
Y166714D02*
D03*
X282981D02*
D03*
X284949D02*
D03*
X286918D02*
D03*
X288886D02*
D03*
X333761Y179876D02*
D03*
X331793D02*
D03*
X329824D02*
D03*
X327856D02*
D03*
X325887D02*
D03*
Y166884D02*
D03*
X327856D02*
D03*
X329824D02*
D03*
X331793D02*
D03*
X333761D02*
D03*
X-290099Y321281D02*
D03*
X-292068D02*
D03*
X-294036D02*
D03*
X-296005D02*
D03*
X-297973D02*
D03*
Y308289D02*
D03*
X-296005D02*
D03*
X-294036D02*
D03*
X-292068D02*
D03*
X-290099D02*
D03*
X-240925Y321281D02*
D03*
X-242894D02*
D03*
X-244862D02*
D03*
X-246831D02*
D03*
X-248799D02*
D03*
Y308289D02*
D03*
X-246831D02*
D03*
X-244862D02*
D03*
X-242894D02*
D03*
X-240925D02*
D03*
X-191751Y321281D02*
D03*
X-193720D02*
D03*
X-195688D02*
D03*
X-197657D02*
D03*
X-199625D02*
D03*
Y308289D02*
D03*
X-197657D02*
D03*
X-195688D02*
D03*
X-193720D02*
D03*
X-191751D02*
D03*
X-142577Y321281D02*
D03*
X-144546D02*
D03*
X-146514D02*
D03*
X-148483D02*
D03*
X-150451D02*
D03*
Y308289D02*
D03*
X-148483D02*
D03*
X-146514D02*
D03*
X-144546D02*
D03*
X-142577D02*
D03*
X-93403Y321281D02*
D03*
X-95372D02*
D03*
X-97340D02*
D03*
X-99309D02*
D03*
X-101277D02*
D03*
Y308289D02*
D03*
X-99309D02*
D03*
X-97340D02*
D03*
X-95372D02*
D03*
X-93403D02*
D03*
X-44229Y321281D02*
D03*
X-46198D02*
D03*
X-48166D02*
D03*
X-50135D02*
D03*
X-52103D02*
D03*
Y308289D02*
D03*
X-50135D02*
D03*
X-48166D02*
D03*
X-46198D02*
D03*
X-44229D02*
D03*
X4945Y321281D02*
D03*
X2976D02*
D03*
X1008D02*
D03*
X-961D02*
D03*
X-2929D02*
D03*
Y308289D02*
D03*
X-961D02*
D03*
X1008D02*
D03*
X2976D02*
D03*
X4945D02*
D03*
X54119Y321281D02*
D03*
X52150D02*
D03*
X50182D02*
D03*
X48213D02*
D03*
X46245D02*
D03*
Y308289D02*
D03*
X48213D02*
D03*
X50182D02*
D03*
X52150D02*
D03*
X54119D02*
D03*
X103293Y321281D02*
D03*
X101324D02*
D03*
X99356D02*
D03*
X97387D02*
D03*
X95419D02*
D03*
Y308289D02*
D03*
X97387D02*
D03*
X99356D02*
D03*
X101324D02*
D03*
X103293D02*
D03*
X152467Y321281D02*
D03*
X150499D02*
D03*
X148530D02*
D03*
X146561D02*
D03*
X144593D02*
D03*
Y308289D02*
D03*
X146561D02*
D03*
X148530D02*
D03*
X150499D02*
D03*
X152467D02*
D03*
X201641Y321281D02*
D03*
X199673D02*
D03*
X197704D02*
D03*
X195736D02*
D03*
X193767D02*
D03*
Y308289D02*
D03*
X195736D02*
D03*
X197704D02*
D03*
X199673D02*
D03*
X201641D02*
D03*
X250815Y321281D02*
D03*
X248847D02*
D03*
X246878D02*
D03*
X244910D02*
D03*
X242941D02*
D03*
Y308289D02*
D03*
X244910D02*
D03*
X246878D02*
D03*
X248847D02*
D03*
X250815D02*
D03*
X299989Y321281D02*
D03*
X298021D02*
D03*
X296052D02*
D03*
X294084D02*
D03*
X292115D02*
D03*
Y308289D02*
D03*
X294084D02*
D03*
X296052D02*
D03*
X298021D02*
D03*
X299989D02*
D03*
X349163Y321281D02*
D03*
X347195D02*
D03*
X345226D02*
D03*
X343258D02*
D03*
X341289D02*
D03*
Y308289D02*
D03*
X343258D02*
D03*
X345226D02*
D03*
X347195D02*
D03*
X349163D02*
D03*
D54*
X-347431Y-316990D02*
D03*
Y-312580D02*
D03*
X-343022D02*
D03*
Y-316990D02*
D03*
X-298257D02*
D03*
Y-312580D02*
D03*
X-293848D02*
D03*
Y-316990D02*
D03*
X-249083D02*
D03*
Y-312580D02*
D03*
X-244674D02*
D03*
Y-316990D02*
D03*
X-199909D02*
D03*
Y-312580D02*
D03*
X-195500D02*
D03*
Y-316990D02*
D03*
X-150735D02*
D03*
Y-312580D02*
D03*
X-146326D02*
D03*
Y-316990D02*
D03*
X-101561D02*
D03*
Y-312580D02*
D03*
X-97152D02*
D03*
Y-316990D02*
D03*
X-52387D02*
D03*
Y-312580D02*
D03*
X-47978D02*
D03*
Y-316990D02*
D03*
X-3213D02*
D03*
Y-312580D02*
D03*
X1196D02*
D03*
Y-316990D02*
D03*
X45961D02*
D03*
Y-312580D02*
D03*
X50370D02*
D03*
Y-316990D02*
D03*
X95135D02*
D03*
Y-312580D02*
D03*
X99545D02*
D03*
Y-316990D02*
D03*
X144309D02*
D03*
Y-312580D02*
D03*
X148719D02*
D03*
Y-316990D02*
D03*
X193483D02*
D03*
Y-312580D02*
D03*
X197893D02*
D03*
Y-316990D02*
D03*
X242657D02*
D03*
Y-312580D02*
D03*
X247067D02*
D03*
Y-316990D02*
D03*
X291831D02*
D03*
Y-312580D02*
D03*
X296241D02*
D03*
Y-316990D02*
D03*
X-332029Y-175585D02*
D03*
Y-171176D02*
D03*
X-327620D02*
D03*
Y-175585D02*
D03*
X-287155Y-175414D02*
D03*
Y-171005D02*
D03*
X-282745D02*
D03*
Y-175414D02*
D03*
X-241917D02*
D03*
Y-171005D02*
D03*
X-237508D02*
D03*
Y-175414D02*
D03*
X-196680D02*
D03*
Y-171005D02*
D03*
X-192271D02*
D03*
Y-175414D02*
D03*
X-151444D02*
D03*
Y-171005D02*
D03*
X-147034D02*
D03*
Y-175414D02*
D03*
X-106207D02*
D03*
Y-171005D02*
D03*
X-101797D02*
D03*
Y-175414D02*
D03*
X-60970D02*
D03*
Y-171005D02*
D03*
X-56560D02*
D03*
Y-175414D02*
D03*
X-15733D02*
D03*
Y-171005D02*
D03*
X-11323D02*
D03*
Y-175414D02*
D03*
X341000Y-316910D02*
D03*
Y-312500D02*
D03*
X345409D02*
D03*
Y-316910D02*
D03*
X28858Y-195517D02*
D03*
Y-191107D02*
D03*
X33267D02*
D03*
Y-195517D02*
D03*
X74095D02*
D03*
Y-191107D02*
D03*
X78504D02*
D03*
Y-195517D02*
D03*
X119332D02*
D03*
Y-191107D02*
D03*
X123741D02*
D03*
Y-195517D02*
D03*
X164569D02*
D03*
Y-191107D02*
D03*
X168978D02*
D03*
Y-195517D02*
D03*
X209806D02*
D03*
Y-191107D02*
D03*
X214215D02*
D03*
Y-195517D02*
D03*
X255043D02*
D03*
Y-191107D02*
D03*
X259452D02*
D03*
Y-195517D02*
D03*
X300280D02*
D03*
Y-191107D02*
D03*
X304689D02*
D03*
Y-195517D02*
D03*
X-346831Y-46568D02*
D03*
Y-42158D02*
D03*
X-342422D02*
D03*
Y-46568D02*
D03*
X-297657D02*
D03*
Y-42158D02*
D03*
X-293248D02*
D03*
Y-46568D02*
D03*
X-248483D02*
D03*
Y-42158D02*
D03*
X-244074D02*
D03*
Y-46568D02*
D03*
X-199309D02*
D03*
Y-42158D02*
D03*
X-194900D02*
D03*
Y-46568D02*
D03*
X-150135D02*
D03*
Y-42158D02*
D03*
X-145726D02*
D03*
Y-46568D02*
D03*
X-100961D02*
D03*
Y-42158D02*
D03*
X-96552D02*
D03*
Y-46568D02*
D03*
X-51787D02*
D03*
Y-42158D02*
D03*
X-47378D02*
D03*
Y-46568D02*
D03*
X-2613D02*
D03*
Y-42158D02*
D03*
X1796D02*
D03*
Y-46568D02*
D03*
X46561D02*
D03*
Y-42158D02*
D03*
X50970D02*
D03*
Y-46568D02*
D03*
X95735D02*
D03*
Y-42158D02*
D03*
X100145D02*
D03*
Y-46568D02*
D03*
X144909D02*
D03*
Y-42158D02*
D03*
X149319D02*
D03*
Y-46568D02*
D03*
X194083D02*
D03*
Y-42158D02*
D03*
X198493D02*
D03*
Y-46568D02*
D03*
X243257D02*
D03*
Y-42158D02*
D03*
X247667D02*
D03*
Y-46568D02*
D03*
X292431D02*
D03*
Y-42158D02*
D03*
X296841D02*
D03*
Y-46568D02*
D03*
X341605D02*
D03*
Y-42158D02*
D03*
X346015D02*
D03*
Y-46568D02*
D03*
X-341605Y46568D02*
D03*
Y42158D02*
D03*
X-346015D02*
D03*
Y46568D02*
D03*
X-292431D02*
D03*
Y42158D02*
D03*
X-296841D02*
D03*
Y46568D02*
D03*
X-243257D02*
D03*
Y42158D02*
D03*
X-247667D02*
D03*
Y46568D02*
D03*
X-194083D02*
D03*
Y42158D02*
D03*
X-198493D02*
D03*
Y46568D02*
D03*
X-144909D02*
D03*
Y42158D02*
D03*
X-149319D02*
D03*
Y46568D02*
D03*
X-95735D02*
D03*
Y42158D02*
D03*
X-100145D02*
D03*
Y46568D02*
D03*
X-46561D02*
D03*
Y42158D02*
D03*
X-50970D02*
D03*
Y46568D02*
D03*
X2613D02*
D03*
Y42158D02*
D03*
X-1796D02*
D03*
Y46568D02*
D03*
X51787D02*
D03*
Y42158D02*
D03*
X47378D02*
D03*
Y46568D02*
D03*
X100961D02*
D03*
Y42158D02*
D03*
X96552D02*
D03*
Y46568D02*
D03*
X150135D02*
D03*
Y42158D02*
D03*
X145726D02*
D03*
Y46568D02*
D03*
X199309D02*
D03*
Y42158D02*
D03*
X194900D02*
D03*
Y46568D02*
D03*
X248483D02*
D03*
Y42158D02*
D03*
X244074D02*
D03*
Y46568D02*
D03*
X297657D02*
D03*
Y42158D02*
D03*
X293248D02*
D03*
Y46568D02*
D03*
X346831D02*
D03*
Y42158D02*
D03*
X342422D02*
D03*
Y46568D02*
D03*
X-300280Y195517D02*
D03*
Y191107D02*
D03*
X-304689D02*
D03*
Y195517D02*
D03*
X-255043D02*
D03*
Y191107D02*
D03*
X-259452D02*
D03*
Y195517D02*
D03*
X-209806D02*
D03*
Y191107D02*
D03*
X-214215D02*
D03*
Y195517D02*
D03*
X-164569D02*
D03*
Y191107D02*
D03*
X-168978D02*
D03*
Y195517D02*
D03*
X-119332D02*
D03*
Y191107D02*
D03*
X-123741D02*
D03*
Y195517D02*
D03*
X-74095D02*
D03*
Y191107D02*
D03*
X-78504D02*
D03*
Y195517D02*
D03*
X-28858D02*
D03*
Y191107D02*
D03*
X-33267D02*
D03*
Y195517D02*
D03*
X-341000Y316910D02*
D03*
Y312500D02*
D03*
X-345409D02*
D03*
Y316910D02*
D03*
X15733Y175414D02*
D03*
Y171005D02*
D03*
X11323D02*
D03*
Y175414D02*
D03*
X60970D02*
D03*
Y171005D02*
D03*
X56560D02*
D03*
Y175414D02*
D03*
X106207D02*
D03*
Y171005D02*
D03*
X101797D02*
D03*
Y175414D02*
D03*
X151444D02*
D03*
Y171005D02*
D03*
X147034D02*
D03*
Y175414D02*
D03*
X196680D02*
D03*
Y171005D02*
D03*
X192271D02*
D03*
Y175414D02*
D03*
X241917D02*
D03*
Y171005D02*
D03*
X237508D02*
D03*
Y175414D02*
D03*
X287155D02*
D03*
Y171005D02*
D03*
X282745D02*
D03*
Y175414D02*
D03*
X332029Y175585D02*
D03*
Y171176D02*
D03*
X327620D02*
D03*
Y175585D02*
D03*
X-291831Y316990D02*
D03*
Y312580D02*
D03*
X-296241D02*
D03*
Y316990D02*
D03*
X-242657D02*
D03*
Y312580D02*
D03*
X-247067D02*
D03*
Y316990D02*
D03*
X-193483D02*
D03*
Y312580D02*
D03*
X-197893D02*
D03*
Y316990D02*
D03*
X-144309D02*
D03*
Y312580D02*
D03*
X-148719D02*
D03*
Y316990D02*
D03*
X-95135D02*
D03*
Y312580D02*
D03*
X-99545D02*
D03*
Y316990D02*
D03*
X-45961D02*
D03*
Y312580D02*
D03*
X-50370D02*
D03*
Y316990D02*
D03*
X3213D02*
D03*
Y312580D02*
D03*
X-1196D02*
D03*
Y316990D02*
D03*
X52387D02*
D03*
Y312580D02*
D03*
X47978D02*
D03*
Y316990D02*
D03*
X101561D02*
D03*
Y312580D02*
D03*
X97152D02*
D03*
Y316990D02*
D03*
X150735D02*
D03*
Y312580D02*
D03*
X146326D02*
D03*
Y316990D02*
D03*
X199909D02*
D03*
Y312580D02*
D03*
X195500D02*
D03*
Y316990D02*
D03*
X249083D02*
D03*
Y312580D02*
D03*
X244674D02*
D03*
Y316990D02*
D03*
X298257D02*
D03*
Y312580D02*
D03*
X293848D02*
D03*
Y316990D02*
D03*
X347431D02*
D03*
Y312580D02*
D03*
X343022D02*
D03*
Y316990D02*
D03*
M02*
