G04 Layer_Color=16711935*
%FSLAX25Y25*%
%MOIN*%
G70*
G01*
G75*
%ADD43C,0.00787*%
%ADD46C,0.00600*%
%ADD65R,0.03713X0.10249*%
%ADD92C,0.20485*%
%ADD93O,0.28359X0.24422*%
%ADD94C,0.06706*%
%ADD95R,0.06706X0.06706*%
%ADD96R,0.06706X0.06706*%
%ADD97O,0.09461X0.09855*%
%ADD98C,0.03162*%
%ADD99R,0.10249X0.03713*%
D43*
X408386Y-413386D02*
G03*
X413386Y-408386I0J5000D01*
G01*
Y408386D02*
G03*
X408386Y413386I-5000J0D01*
G01*
X-408386D02*
G03*
X-413386Y408386I0J-5000D01*
G01*
Y-408386D02*
G03*
X-408386Y-413386I5000J0D01*
G01*
X408386D01*
X-413386Y-408386D02*
Y408386D01*
X-408386Y413386D02*
X408386D01*
X413386Y-408386D02*
Y408386D01*
X86642Y115372D02*
Y108812D01*
X87954Y107500D01*
X90578D01*
X91889Y108812D01*
Y115372D01*
X99761Y107500D02*
X94513D01*
X99761Y112748D01*
Y114060D01*
X98449Y115372D01*
X95825D01*
X94513Y114060D01*
X107632Y115372D02*
X102385D01*
Y111436D01*
X105008Y112748D01*
X106320D01*
X107632Y111436D01*
Y108812D01*
X106320Y107500D01*
X103697D01*
X102385Y108812D01*
D46*
X81500Y196999D02*
Y193667D01*
X82166Y193000D01*
X83499D01*
X84166Y193667D01*
Y196999D01*
X88165Y193000D02*
X85499D01*
X88165Y195666D01*
Y196332D01*
X87498Y196999D01*
X86165D01*
X85499Y196332D01*
X92163Y196999D02*
X90830Y196332D01*
X89497Y194999D01*
Y193667D01*
X90164Y193000D01*
X91497D01*
X92163Y193667D01*
Y194333D01*
X91497Y194999D01*
X89497D01*
D65*
X74350Y401378D02*
D03*
X79350D02*
D03*
X84350D02*
D03*
X89350D02*
D03*
X94350D02*
D03*
X99350D02*
D03*
X104350D02*
D03*
X109350D02*
D03*
X114350D02*
D03*
X119350D02*
D03*
X124350D02*
D03*
X129350D02*
D03*
X134350D02*
D03*
X139350D02*
D03*
X144350D02*
D03*
X149350D02*
D03*
X154350D02*
D03*
X159350D02*
D03*
X164350D02*
D03*
X169350D02*
D03*
X174350D02*
D03*
X179350D02*
D03*
X184350D02*
D03*
X189350D02*
D03*
X194350D02*
D03*
X199350D02*
D03*
X204350D02*
D03*
X209350D02*
D03*
X214350D02*
D03*
X219350D02*
D03*
X224350D02*
D03*
X229350D02*
D03*
X234350D02*
D03*
X239350D02*
D03*
X244350D02*
D03*
X249350D02*
D03*
X254350D02*
D03*
X259350D02*
D03*
X264350D02*
D03*
X269350D02*
D03*
X274350D02*
D03*
X279350D02*
D03*
X284350D02*
D03*
X289350D02*
D03*
X294350D02*
D03*
X299350D02*
D03*
X304350D02*
D03*
X309350D02*
D03*
X314350D02*
D03*
X319350D02*
D03*
X74350Y386024D02*
D03*
X79350D02*
D03*
X84350D02*
D03*
X89350D02*
D03*
X94350D02*
D03*
X99350D02*
D03*
X104350D02*
D03*
X109350D02*
D03*
X114350D02*
D03*
X119350D02*
D03*
X124350D02*
D03*
X129350D02*
D03*
X134350D02*
D03*
X139350D02*
D03*
X144350D02*
D03*
X149350D02*
D03*
X154350D02*
D03*
X159350D02*
D03*
X164350D02*
D03*
X169350D02*
D03*
X174350D02*
D03*
X179350D02*
D03*
X184350D02*
D03*
X189350D02*
D03*
X194350D02*
D03*
X199350D02*
D03*
X204350D02*
D03*
X209350D02*
D03*
X214350D02*
D03*
X219350D02*
D03*
X224350D02*
D03*
X229350D02*
D03*
X234350D02*
D03*
X239350D02*
D03*
X244350D02*
D03*
X249350D02*
D03*
X254350D02*
D03*
X259350D02*
D03*
X264350D02*
D03*
X269350D02*
D03*
X274350D02*
D03*
X279350D02*
D03*
X284350D02*
D03*
X289350D02*
D03*
X294350D02*
D03*
X299350D02*
D03*
X304350D02*
D03*
X309350D02*
D03*
X314350D02*
D03*
X319350D02*
D03*
X-74350Y386024D02*
D03*
X-79350D02*
D03*
X-84350D02*
D03*
X-89350D02*
D03*
X-94350D02*
D03*
X-99350D02*
D03*
X-104350D02*
D03*
X-109350D02*
D03*
X-114350D02*
D03*
X-119350D02*
D03*
X-124350D02*
D03*
X-129350D02*
D03*
X-134350D02*
D03*
X-139350D02*
D03*
X-144350D02*
D03*
X-149350D02*
D03*
X-154350D02*
D03*
X-159350D02*
D03*
X-164350D02*
D03*
X-169350D02*
D03*
X-174350D02*
D03*
X-179350D02*
D03*
X-184350D02*
D03*
X-189350D02*
D03*
X-194350D02*
D03*
X-199350D02*
D03*
X-204350D02*
D03*
X-209350D02*
D03*
X-214350D02*
D03*
X-219350D02*
D03*
X-224350D02*
D03*
X-229350D02*
D03*
X-234350D02*
D03*
X-239350D02*
D03*
X-244350D02*
D03*
X-249350D02*
D03*
X-254350D02*
D03*
X-259350D02*
D03*
X-264350D02*
D03*
X-269350D02*
D03*
X-274350D02*
D03*
X-279350D02*
D03*
X-284350D02*
D03*
X-289350D02*
D03*
X-294350D02*
D03*
X-299350D02*
D03*
X-304350D02*
D03*
X-309350D02*
D03*
X-314350D02*
D03*
X-319350D02*
D03*
X-74350Y401378D02*
D03*
X-79350D02*
D03*
X-84350D02*
D03*
X-89350D02*
D03*
X-94350D02*
D03*
X-99350D02*
D03*
X-104350D02*
D03*
X-109350D02*
D03*
X-114350D02*
D03*
X-119350D02*
D03*
X-124350D02*
D03*
X-129350D02*
D03*
X-134350D02*
D03*
X-139350D02*
D03*
X-144350D02*
D03*
X-149350D02*
D03*
X-154350D02*
D03*
X-159350D02*
D03*
X-164350D02*
D03*
X-169350D02*
D03*
X-174350D02*
D03*
X-179350D02*
D03*
X-184350D02*
D03*
X-189350D02*
D03*
X-194350D02*
D03*
X-199350D02*
D03*
X-204350D02*
D03*
X-209350D02*
D03*
X-214350D02*
D03*
X-219350D02*
D03*
X-224350D02*
D03*
X-229350D02*
D03*
X-234350D02*
D03*
X-239350D02*
D03*
X-244350D02*
D03*
X-249350D02*
D03*
X-254350D02*
D03*
X-259350D02*
D03*
X-264350D02*
D03*
X-269350D02*
D03*
X-274350D02*
D03*
X-279350D02*
D03*
X-284350D02*
D03*
X-289350D02*
D03*
X-294350D02*
D03*
X-299350D02*
D03*
X-304350D02*
D03*
X-309350D02*
D03*
X-314350D02*
D03*
X-319350D02*
D03*
X-74350Y-401378D02*
D03*
X-79350D02*
D03*
X-84350D02*
D03*
X-89350D02*
D03*
X-94350D02*
D03*
X-99350D02*
D03*
X-104350D02*
D03*
X-109350D02*
D03*
X-114350D02*
D03*
X-119350D02*
D03*
X-124350D02*
D03*
X-129350D02*
D03*
X-134350D02*
D03*
X-139350D02*
D03*
X-144350D02*
D03*
X-149350D02*
D03*
X-154350D02*
D03*
X-159350D02*
D03*
X-164350D02*
D03*
X-169350D02*
D03*
X-174350D02*
D03*
X-179350D02*
D03*
X-184350D02*
D03*
X-189350D02*
D03*
X-194350D02*
D03*
X-199350D02*
D03*
X-204350D02*
D03*
X-209350D02*
D03*
X-214350D02*
D03*
X-219350D02*
D03*
X-224350D02*
D03*
X-229350D02*
D03*
X-234350D02*
D03*
X-239350D02*
D03*
X-244350D02*
D03*
X-249350D02*
D03*
X-254350D02*
D03*
X-259350D02*
D03*
X-264350D02*
D03*
X-269350D02*
D03*
X-274350D02*
D03*
X-279350D02*
D03*
X-284350D02*
D03*
X-289350D02*
D03*
X-294350D02*
D03*
X-299350D02*
D03*
X-304350D02*
D03*
X-309350D02*
D03*
X-314350D02*
D03*
X-319350D02*
D03*
X-74350Y-386024D02*
D03*
X-79350D02*
D03*
X-84350D02*
D03*
X-89350D02*
D03*
X-94350D02*
D03*
X-99350D02*
D03*
X-104350D02*
D03*
X-109350D02*
D03*
X-114350D02*
D03*
X-119350D02*
D03*
X-124350D02*
D03*
X-129350D02*
D03*
X-134350D02*
D03*
X-139350D02*
D03*
X-144350D02*
D03*
X-149350D02*
D03*
X-154350D02*
D03*
X-159350D02*
D03*
X-164350D02*
D03*
X-169350D02*
D03*
X-174350D02*
D03*
X-179350D02*
D03*
X-184350D02*
D03*
X-189350D02*
D03*
X-194350D02*
D03*
X-199350D02*
D03*
X-204350D02*
D03*
X-209350D02*
D03*
X-214350D02*
D03*
X-219350D02*
D03*
X-224350D02*
D03*
X-229350D02*
D03*
X-234350D02*
D03*
X-239350D02*
D03*
X-244350D02*
D03*
X-249350D02*
D03*
X-254350D02*
D03*
X-259350D02*
D03*
X-264350D02*
D03*
X-269350D02*
D03*
X-274350D02*
D03*
X-279350D02*
D03*
X-284350D02*
D03*
X-289350D02*
D03*
X-294350D02*
D03*
X-299350D02*
D03*
X-304350D02*
D03*
X-309350D02*
D03*
X-314350D02*
D03*
X-319350D02*
D03*
X74350D02*
D03*
X79350D02*
D03*
X84350D02*
D03*
X89350D02*
D03*
X94350D02*
D03*
X99350D02*
D03*
X104350D02*
D03*
X109350D02*
D03*
X114350D02*
D03*
X119350D02*
D03*
X124350D02*
D03*
X129350D02*
D03*
X134350D02*
D03*
X139350D02*
D03*
X144350D02*
D03*
X149350D02*
D03*
X154350D02*
D03*
X159350D02*
D03*
X164350D02*
D03*
X169350D02*
D03*
X174350D02*
D03*
X179350D02*
D03*
X184350D02*
D03*
X189350D02*
D03*
X194350D02*
D03*
X199350D02*
D03*
X204350D02*
D03*
X209350D02*
D03*
X214350D02*
D03*
X219350D02*
D03*
X224350D02*
D03*
X229350D02*
D03*
X234350D02*
D03*
X239350D02*
D03*
X244350D02*
D03*
X249350D02*
D03*
X254350D02*
D03*
X259350D02*
D03*
X264350D02*
D03*
X269350D02*
D03*
X274350D02*
D03*
X279350D02*
D03*
X284350D02*
D03*
X289350D02*
D03*
X294350D02*
D03*
X299350D02*
D03*
X304350D02*
D03*
X309350D02*
D03*
X314350D02*
D03*
X319350D02*
D03*
X74350Y-401378D02*
D03*
X79350D02*
D03*
X84350D02*
D03*
X89350D02*
D03*
X94350D02*
D03*
X99350D02*
D03*
X104350D02*
D03*
X109350D02*
D03*
X114350D02*
D03*
X119350D02*
D03*
X124350D02*
D03*
X129350D02*
D03*
X134350D02*
D03*
X139350D02*
D03*
X144350D02*
D03*
X149350D02*
D03*
X154350D02*
D03*
X159350D02*
D03*
X164350D02*
D03*
X169350D02*
D03*
X174350D02*
D03*
X179350D02*
D03*
X184350D02*
D03*
X189350D02*
D03*
X194350D02*
D03*
X199350D02*
D03*
X204350D02*
D03*
X209350D02*
D03*
X214350D02*
D03*
X219350D02*
D03*
X224350D02*
D03*
X229350D02*
D03*
X234350D02*
D03*
X239350D02*
D03*
X244350D02*
D03*
X249350D02*
D03*
X254350D02*
D03*
X259350D02*
D03*
X264350D02*
D03*
X269350D02*
D03*
X274350D02*
D03*
X279350D02*
D03*
X284350D02*
D03*
X289350D02*
D03*
X294350D02*
D03*
X299350D02*
D03*
X304350D02*
D03*
X309350D02*
D03*
X314350D02*
D03*
X319350D02*
D03*
D92*
X-289370Y-297244D02*
D03*
X88583D02*
D03*
Y-72835D02*
D03*
X-289370D02*
D03*
X163386Y295276D02*
D03*
Y-35433D02*
D03*
X-289370D02*
D03*
Y295276D02*
D03*
X-393701Y-393701D02*
D03*
X393701D02*
D03*
X-393701Y393701D02*
D03*
X393701D02*
D03*
D93*
X362205Y-12795D02*
D03*
Y12795D02*
D03*
D94*
X393701Y-364331D02*
D03*
Y-354331D02*
D03*
X130000Y230000D02*
D03*
X120000D02*
D03*
X364331Y393701D02*
D03*
X354331D02*
D03*
X-364331Y-393701D02*
D03*
X-354331D02*
D03*
X-393701Y364331D02*
D03*
Y354331D02*
D03*
D95*
X393701Y-344331D02*
D03*
X-393701Y344331D02*
D03*
D96*
X110000Y230000D02*
D03*
X344331Y393701D02*
D03*
X-344331Y-393701D02*
D03*
D97*
X287402Y87402D02*
D03*
Y176378D02*
D03*
X240158Y87402D02*
D03*
Y176378D02*
D03*
D98*
X-359900Y-53900D02*
D03*
X-381400Y-46000D02*
D03*
X-383100Y-66500D02*
D03*
D99*
X386024Y74350D02*
D03*
Y79350D02*
D03*
Y84350D02*
D03*
Y89350D02*
D03*
Y94350D02*
D03*
Y99350D02*
D03*
Y104350D02*
D03*
Y109350D02*
D03*
Y114350D02*
D03*
Y119350D02*
D03*
Y124350D02*
D03*
Y129350D02*
D03*
Y134350D02*
D03*
Y139350D02*
D03*
Y144350D02*
D03*
Y149350D02*
D03*
Y154350D02*
D03*
Y159350D02*
D03*
Y164350D02*
D03*
Y169350D02*
D03*
Y174350D02*
D03*
Y179350D02*
D03*
Y184350D02*
D03*
Y189350D02*
D03*
Y194350D02*
D03*
Y199350D02*
D03*
Y204350D02*
D03*
Y209350D02*
D03*
Y214350D02*
D03*
Y219350D02*
D03*
Y224350D02*
D03*
Y229350D02*
D03*
Y234350D02*
D03*
Y239350D02*
D03*
Y244350D02*
D03*
Y249350D02*
D03*
Y254350D02*
D03*
Y259350D02*
D03*
Y264350D02*
D03*
Y269350D02*
D03*
Y274350D02*
D03*
Y279350D02*
D03*
Y284350D02*
D03*
Y289350D02*
D03*
Y294350D02*
D03*
Y299350D02*
D03*
Y304350D02*
D03*
Y309350D02*
D03*
Y314350D02*
D03*
Y319350D02*
D03*
X401378Y74350D02*
D03*
Y79350D02*
D03*
Y84350D02*
D03*
Y89350D02*
D03*
Y94350D02*
D03*
Y99350D02*
D03*
Y104350D02*
D03*
Y109350D02*
D03*
Y114350D02*
D03*
Y119350D02*
D03*
Y124350D02*
D03*
Y129350D02*
D03*
Y134350D02*
D03*
Y139350D02*
D03*
Y144350D02*
D03*
Y149350D02*
D03*
Y154350D02*
D03*
Y159350D02*
D03*
Y164350D02*
D03*
Y169350D02*
D03*
Y174350D02*
D03*
Y179350D02*
D03*
Y184350D02*
D03*
Y189350D02*
D03*
Y194350D02*
D03*
Y199350D02*
D03*
Y204350D02*
D03*
Y209350D02*
D03*
Y214350D02*
D03*
Y219350D02*
D03*
Y224350D02*
D03*
Y229350D02*
D03*
Y234350D02*
D03*
Y239350D02*
D03*
Y244350D02*
D03*
Y249350D02*
D03*
Y254350D02*
D03*
Y259350D02*
D03*
Y264350D02*
D03*
Y269350D02*
D03*
Y274350D02*
D03*
Y279350D02*
D03*
Y284350D02*
D03*
Y289350D02*
D03*
Y294350D02*
D03*
Y299350D02*
D03*
Y304350D02*
D03*
Y309350D02*
D03*
Y314350D02*
D03*
Y319350D02*
D03*
X-401378Y74350D02*
D03*
Y79350D02*
D03*
Y84350D02*
D03*
Y89350D02*
D03*
Y94350D02*
D03*
Y99350D02*
D03*
Y104350D02*
D03*
Y109350D02*
D03*
Y114350D02*
D03*
Y119350D02*
D03*
Y124350D02*
D03*
Y129350D02*
D03*
Y134350D02*
D03*
Y139350D02*
D03*
Y144350D02*
D03*
Y149350D02*
D03*
Y154350D02*
D03*
Y159350D02*
D03*
Y164350D02*
D03*
Y169350D02*
D03*
Y174350D02*
D03*
Y179350D02*
D03*
Y184350D02*
D03*
Y189350D02*
D03*
Y194350D02*
D03*
Y199350D02*
D03*
Y204350D02*
D03*
Y209350D02*
D03*
Y214350D02*
D03*
Y219350D02*
D03*
Y224350D02*
D03*
Y229350D02*
D03*
Y234350D02*
D03*
Y239350D02*
D03*
Y244350D02*
D03*
Y249350D02*
D03*
Y254350D02*
D03*
Y259350D02*
D03*
Y264350D02*
D03*
Y269350D02*
D03*
Y274350D02*
D03*
Y279350D02*
D03*
Y284350D02*
D03*
Y289350D02*
D03*
Y294350D02*
D03*
Y299350D02*
D03*
Y304350D02*
D03*
Y309350D02*
D03*
Y314350D02*
D03*
Y319350D02*
D03*
X-386024Y74350D02*
D03*
Y79350D02*
D03*
Y84350D02*
D03*
Y89350D02*
D03*
Y94350D02*
D03*
Y99350D02*
D03*
Y104350D02*
D03*
Y109350D02*
D03*
Y114350D02*
D03*
Y119350D02*
D03*
Y124350D02*
D03*
Y129350D02*
D03*
Y134350D02*
D03*
Y139350D02*
D03*
Y144350D02*
D03*
Y149350D02*
D03*
Y154350D02*
D03*
Y159350D02*
D03*
Y164350D02*
D03*
Y169350D02*
D03*
Y174350D02*
D03*
Y179350D02*
D03*
Y184350D02*
D03*
Y189350D02*
D03*
Y194350D02*
D03*
Y199350D02*
D03*
Y204350D02*
D03*
Y209350D02*
D03*
Y214350D02*
D03*
Y219350D02*
D03*
Y224350D02*
D03*
Y229350D02*
D03*
Y234350D02*
D03*
Y239350D02*
D03*
Y244350D02*
D03*
Y249350D02*
D03*
Y254350D02*
D03*
Y259350D02*
D03*
Y264350D02*
D03*
Y269350D02*
D03*
Y274350D02*
D03*
Y279350D02*
D03*
Y284350D02*
D03*
Y289350D02*
D03*
Y294350D02*
D03*
Y299350D02*
D03*
Y304350D02*
D03*
Y309350D02*
D03*
Y314350D02*
D03*
Y319350D02*
D03*
Y-74350D02*
D03*
Y-79350D02*
D03*
Y-84350D02*
D03*
Y-89350D02*
D03*
Y-94350D02*
D03*
Y-99350D02*
D03*
Y-104350D02*
D03*
Y-109350D02*
D03*
Y-114350D02*
D03*
Y-119350D02*
D03*
Y-124350D02*
D03*
Y-129350D02*
D03*
Y-134350D02*
D03*
Y-139350D02*
D03*
Y-144350D02*
D03*
Y-149350D02*
D03*
Y-154350D02*
D03*
Y-159350D02*
D03*
Y-164350D02*
D03*
Y-169350D02*
D03*
Y-174350D02*
D03*
Y-179350D02*
D03*
Y-184350D02*
D03*
Y-189350D02*
D03*
Y-194350D02*
D03*
Y-199350D02*
D03*
Y-204350D02*
D03*
Y-209350D02*
D03*
Y-214350D02*
D03*
Y-219350D02*
D03*
Y-224350D02*
D03*
Y-229350D02*
D03*
Y-234350D02*
D03*
Y-239350D02*
D03*
Y-244350D02*
D03*
Y-249350D02*
D03*
Y-254350D02*
D03*
Y-259350D02*
D03*
Y-264350D02*
D03*
Y-269350D02*
D03*
Y-274350D02*
D03*
Y-279350D02*
D03*
Y-284350D02*
D03*
Y-289350D02*
D03*
Y-294350D02*
D03*
Y-299350D02*
D03*
Y-304350D02*
D03*
Y-309350D02*
D03*
Y-314350D02*
D03*
Y-319350D02*
D03*
X-401378Y-74350D02*
D03*
Y-79350D02*
D03*
Y-84350D02*
D03*
Y-89350D02*
D03*
Y-94350D02*
D03*
Y-99350D02*
D03*
Y-104350D02*
D03*
Y-109350D02*
D03*
Y-114350D02*
D03*
Y-119350D02*
D03*
Y-124350D02*
D03*
Y-129350D02*
D03*
Y-134350D02*
D03*
Y-139350D02*
D03*
Y-144350D02*
D03*
Y-149350D02*
D03*
Y-154350D02*
D03*
Y-159350D02*
D03*
Y-164350D02*
D03*
Y-169350D02*
D03*
Y-174350D02*
D03*
Y-179350D02*
D03*
Y-184350D02*
D03*
Y-189350D02*
D03*
Y-194350D02*
D03*
Y-199350D02*
D03*
Y-204350D02*
D03*
Y-209350D02*
D03*
Y-214350D02*
D03*
Y-219350D02*
D03*
Y-224350D02*
D03*
Y-229350D02*
D03*
Y-234350D02*
D03*
Y-239350D02*
D03*
Y-244350D02*
D03*
Y-249350D02*
D03*
Y-254350D02*
D03*
Y-259350D02*
D03*
Y-264350D02*
D03*
Y-269350D02*
D03*
Y-274350D02*
D03*
Y-279350D02*
D03*
Y-284350D02*
D03*
Y-289350D02*
D03*
Y-294350D02*
D03*
Y-299350D02*
D03*
Y-304350D02*
D03*
Y-309350D02*
D03*
Y-314350D02*
D03*
Y-319350D02*
D03*
X401378Y-74350D02*
D03*
Y-79350D02*
D03*
Y-84350D02*
D03*
Y-89350D02*
D03*
Y-94350D02*
D03*
Y-99350D02*
D03*
Y-104350D02*
D03*
Y-109350D02*
D03*
Y-114350D02*
D03*
Y-119350D02*
D03*
Y-124350D02*
D03*
Y-129350D02*
D03*
Y-134350D02*
D03*
Y-139350D02*
D03*
Y-144350D02*
D03*
Y-149350D02*
D03*
Y-154350D02*
D03*
Y-159350D02*
D03*
Y-164350D02*
D03*
Y-169350D02*
D03*
Y-174350D02*
D03*
Y-179350D02*
D03*
Y-184350D02*
D03*
Y-189350D02*
D03*
Y-194350D02*
D03*
Y-199350D02*
D03*
Y-204350D02*
D03*
Y-209350D02*
D03*
Y-214350D02*
D03*
Y-219350D02*
D03*
Y-224350D02*
D03*
Y-229350D02*
D03*
Y-234350D02*
D03*
Y-239350D02*
D03*
Y-244350D02*
D03*
Y-249350D02*
D03*
Y-254350D02*
D03*
Y-259350D02*
D03*
Y-264350D02*
D03*
Y-269350D02*
D03*
Y-274350D02*
D03*
Y-279350D02*
D03*
Y-284350D02*
D03*
Y-289350D02*
D03*
Y-294350D02*
D03*
Y-299350D02*
D03*
Y-304350D02*
D03*
Y-309350D02*
D03*
Y-314350D02*
D03*
Y-319350D02*
D03*
X386024Y-74350D02*
D03*
Y-79350D02*
D03*
Y-84350D02*
D03*
Y-89350D02*
D03*
Y-94350D02*
D03*
Y-99350D02*
D03*
Y-104350D02*
D03*
Y-109350D02*
D03*
Y-114350D02*
D03*
Y-119350D02*
D03*
Y-124350D02*
D03*
Y-129350D02*
D03*
Y-134350D02*
D03*
Y-139350D02*
D03*
Y-144350D02*
D03*
Y-149350D02*
D03*
Y-154350D02*
D03*
Y-159350D02*
D03*
Y-164350D02*
D03*
Y-169350D02*
D03*
Y-174350D02*
D03*
Y-179350D02*
D03*
Y-184350D02*
D03*
Y-189350D02*
D03*
Y-194350D02*
D03*
Y-199350D02*
D03*
Y-204350D02*
D03*
Y-209350D02*
D03*
Y-214350D02*
D03*
Y-219350D02*
D03*
Y-224350D02*
D03*
Y-229350D02*
D03*
Y-234350D02*
D03*
Y-239350D02*
D03*
Y-244350D02*
D03*
Y-249350D02*
D03*
Y-254350D02*
D03*
Y-259350D02*
D03*
Y-264350D02*
D03*
Y-269350D02*
D03*
Y-274350D02*
D03*
Y-279350D02*
D03*
Y-284350D02*
D03*
Y-289350D02*
D03*
Y-294350D02*
D03*
Y-299350D02*
D03*
Y-304350D02*
D03*
Y-309350D02*
D03*
Y-314350D02*
D03*
Y-319350D02*
D03*
M02*
