G04 Layer_Color=255*
%FSLAX25Y25*%
%MOIN*%
G70*
G01*
G75*
G04:AMPARAMS|DCode=10|XSize=100.39mil|YSize=98.42mil|CornerRadius=14.76mil|HoleSize=0mil|Usage=FLASHONLY|Rotation=0.000|XOffset=0mil|YOffset=0mil|HoleType=Round|Shape=RoundedRectangle|*
%AMROUNDEDRECTD10*
21,1,0.10039,0.06890,0,0,0.0*
21,1,0.07087,0.09842,0,0,0.0*
1,1,0.02953,0.03543,-0.03445*
1,1,0.02953,-0.03543,-0.03445*
1,1,0.02953,-0.03543,0.03445*
1,1,0.02953,0.03543,0.03445*
%
%ADD10ROUNDEDRECTD10*%
%ADD11R,0.01181X0.03150*%
%ADD12R,0.02913X0.09449*%
%ADD13R,0.02756X0.03543*%
G04:AMPARAMS|DCode=14|XSize=275.59mil|YSize=275.59mil|CornerRadius=13.78mil|HoleSize=0mil|Usage=FLASHONLY|Rotation=0.000|XOffset=0mil|YOffset=0mil|HoleType=Round|Shape=RoundedRectangle|*
%AMROUNDEDRECTD14*
21,1,0.27559,0.24803,0,0,0.0*
21,1,0.24803,0.27559,0,0,0.0*
1,1,0.02756,0.12402,-0.12402*
1,1,0.02756,-0.12402,-0.12402*
1,1,0.02756,-0.12402,0.12402*
1,1,0.02756,0.12402,0.12402*
%
%ADD14ROUNDEDRECTD14*%
G04:AMPARAMS|DCode=15|XSize=59.05mil|YSize=98.42mil|CornerRadius=14.76mil|HoleSize=0mil|Usage=FLASHONLY|Rotation=0.000|XOffset=0mil|YOffset=0mil|HoleType=Round|Shape=RoundedRectangle|*
%AMROUNDEDRECTD15*
21,1,0.05905,0.06890,0,0,0.0*
21,1,0.02953,0.09842,0,0,0.0*
1,1,0.02953,0.01476,-0.03445*
1,1,0.02953,-0.01476,-0.03445*
1,1,0.02953,-0.01476,0.03445*
1,1,0.02953,0.01476,0.03445*
%
%ADD15ROUNDEDRECTD15*%
%ADD16R,0.04724X0.02756*%
%ADD17R,0.02362X0.05118*%
G04:AMPARAMS|DCode=18|XSize=100.39mil|YSize=98.42mil|CornerRadius=14.76mil|HoleSize=0mil|Usage=FLASHONLY|Rotation=270.000|XOffset=0mil|YOffset=0mil|HoleType=Round|Shape=RoundedRectangle|*
%AMROUNDEDRECTD18*
21,1,0.10039,0.06890,0,0,270.0*
21,1,0.07087,0.09842,0,0,270.0*
1,1,0.02953,-0.03445,-0.03543*
1,1,0.02953,-0.03445,0.03543*
1,1,0.02953,0.03445,0.03543*
1,1,0.02953,0.03445,-0.03543*
%
%ADD18ROUNDEDRECTD18*%
%ADD19R,0.03543X0.02756*%
G04:AMPARAMS|DCode=20|XSize=359.29mil|YSize=526.38mil|CornerRadius=1.8mil|HoleSize=0mil|Usage=FLASHONLY|Rotation=90.000|XOffset=0mil|YOffset=0mil|HoleType=Round|Shape=RoundedRectangle|*
%AMROUNDEDRECTD20*
21,1,0.35929,0.52278,0,0,90.0*
21,1,0.35570,0.52638,0,0,90.0*
1,1,0.00359,0.26139,0.17785*
1,1,0.00359,0.26139,-0.17785*
1,1,0.00359,-0.26139,-0.17785*
1,1,0.00359,-0.26139,0.17785*
%
%ADD20ROUNDEDRECTD20*%
G04:AMPARAMS|DCode=21|XSize=35.43mil|YSize=153.54mil|CornerRadius=1.95mil|HoleSize=0mil|Usage=FLASHONLY|Rotation=90.000|XOffset=0mil|YOffset=0mil|HoleType=Round|Shape=RoundedRectangle|*
%AMROUNDEDRECTD21*
21,1,0.03543,0.14965,0,0,90.0*
21,1,0.03154,0.15354,0,0,90.0*
1,1,0.00390,0.07482,0.01577*
1,1,0.00390,0.07482,-0.01577*
1,1,0.00390,-0.07482,-0.01577*
1,1,0.00390,-0.07482,0.01577*
%
%ADD21ROUNDEDRECTD21*%
%ADD22R,0.05315X0.20866*%
%ADD23O,0.05905X0.01575*%
G04:AMPARAMS|DCode=24|XSize=35.04mil|YSize=94.88mil|CornerRadius=1.93mil|HoleSize=0mil|Usage=FLASHONLY|Rotation=90.000|XOffset=0mil|YOffset=0mil|HoleType=Round|Shape=RoundedRectangle|*
%AMROUNDEDRECTD24*
21,1,0.03504,0.09103,0,0,90.0*
21,1,0.03118,0.09488,0,0,90.0*
1,1,0.00385,0.04551,0.01559*
1,1,0.00385,0.04551,-0.01559*
1,1,0.00385,-0.04551,-0.01559*
1,1,0.00385,-0.04551,0.01559*
%
%ADD24ROUNDEDRECTD24*%
G04:AMPARAMS|DCode=25|XSize=210.63mil|YSize=336.22mil|CornerRadius=2.11mil|HoleSize=0mil|Usage=FLASHONLY|Rotation=90.000|XOffset=0mil|YOffset=0mil|HoleType=Round|Shape=RoundedRectangle|*
%AMROUNDEDRECTD25*
21,1,0.21063,0.33201,0,0,90.0*
21,1,0.20642,0.33622,0,0,90.0*
1,1,0.00421,0.16600,0.10321*
1,1,0.00421,0.16600,-0.10321*
1,1,0.00421,-0.16600,-0.10321*
1,1,0.00421,-0.16600,0.10321*
%
%ADD25ROUNDEDRECTD25*%
%ADD26R,0.03740X0.06693*%
%ADD27R,0.03937X0.03543*%
%ADD28O,0.07874X0.01378*%
%ADD29R,0.03543X0.03937*%
G04:AMPARAMS|DCode=30|XSize=15.75mil|YSize=47.24mil|CornerRadius=1.97mil|HoleSize=0mil|Usage=FLASHONLY|Rotation=270.000|XOffset=0mil|YOffset=0mil|HoleType=Round|Shape=RoundedRectangle|*
%AMROUNDEDRECTD30*
21,1,0.01575,0.04331,0,0,270.0*
21,1,0.01181,0.04724,0,0,270.0*
1,1,0.00394,-0.02165,-0.00591*
1,1,0.00394,-0.02165,0.00591*
1,1,0.00394,0.02165,0.00591*
1,1,0.00394,0.02165,-0.00591*
%
%ADD30ROUNDEDRECTD30*%
G04:AMPARAMS|DCode=31|XSize=15.75mil|YSize=47.24mil|CornerRadius=1.97mil|HoleSize=0mil|Usage=FLASHONLY|Rotation=0.000|XOffset=0mil|YOffset=0mil|HoleType=Round|Shape=RoundedRectangle|*
%AMROUNDEDRECTD31*
21,1,0.01575,0.04331,0,0,0.0*
21,1,0.01181,0.04724,0,0,0.0*
1,1,0.00394,0.00591,-0.02165*
1,1,0.00394,-0.00591,-0.02165*
1,1,0.00394,-0.00591,0.02165*
1,1,0.00394,0.00591,0.02165*
%
%ADD31ROUNDEDRECTD31*%
%ADD32R,0.03150X0.01181*%
%ADD33R,0.04134X0.05512*%
%ADD34R,0.05512X0.04134*%
%ADD35O,0.07087X0.17716*%
%ADD36O,0.17716X0.07087*%
G04:AMPARAMS|DCode=37|XSize=200.79mil|YSize=700.79mil|CornerRadius=25.1mil|HoleSize=0mil|Usage=FLASHONLY|Rotation=180.000|XOffset=0mil|YOffset=0mil|HoleType=Round|Shape=RoundedRectangle|*
%AMROUNDEDRECTD37*
21,1,0.20079,0.65059,0,0,180.0*
21,1,0.15059,0.70079,0,0,180.0*
1,1,0.05020,-0.07530,0.32530*
1,1,0.05020,0.07530,0.32530*
1,1,0.05020,0.07530,-0.32530*
1,1,0.05020,-0.07530,-0.32530*
%
%ADD37ROUNDEDRECTD37*%
%ADD38R,0.06693X0.03740*%
%ADD43C,0.00787*%
%ADD46C,0.00600*%
%ADD47C,0.19685*%
%ADD48O,0.27559X0.23622*%
%ADD49C,0.05905*%
%ADD50R,0.05905X0.05905*%
%ADD51R,0.05905X0.05905*%
%ADD52O,0.08661X0.09055*%
D10*
X346358Y348425D02*
D03*
X366240D02*
D03*
X133441Y41500D02*
D03*
X113559D02*
D03*
X133441Y61500D02*
D03*
X113559D02*
D03*
X-346358Y-348425D02*
D03*
X-366240D02*
D03*
D11*
X320906Y371937D02*
D03*
X318937D02*
D03*
X316969D02*
D03*
X315000D02*
D03*
X320906Y368000D02*
D03*
X318937D02*
D03*
X316969D02*
D03*
X315000D02*
D03*
X-168047Y-264032D02*
D03*
X-170016D02*
D03*
X-171984D02*
D03*
X-173953D02*
D03*
X-168047Y-267969D02*
D03*
X-170016D02*
D03*
X-171984D02*
D03*
X-173953D02*
D03*
X-143047Y-264032D02*
D03*
X-145016D02*
D03*
X-146984D02*
D03*
X-148953D02*
D03*
X-143047Y-267969D02*
D03*
X-145016D02*
D03*
X-146984D02*
D03*
X-148953D02*
D03*
X-153953Y-310968D02*
D03*
X-151984D02*
D03*
X-150016D02*
D03*
X-148047D02*
D03*
X-153953Y-307031D02*
D03*
X-151984D02*
D03*
X-150016D02*
D03*
X-148047D02*
D03*
X-128047Y-53031D02*
D03*
X-130016D02*
D03*
X-131984D02*
D03*
X-133953D02*
D03*
X-128047Y-56968D02*
D03*
X-130016D02*
D03*
X-131984D02*
D03*
X-133953D02*
D03*
X-138953Y-105968D02*
D03*
X-136984D02*
D03*
X-135016D02*
D03*
X-133047D02*
D03*
X-138953Y-102032D02*
D03*
X-136984D02*
D03*
X-135016D02*
D03*
X-133047D02*
D03*
X-118047Y-264032D02*
D03*
X-120016D02*
D03*
X-121984D02*
D03*
X-123953D02*
D03*
X-118047Y-267969D02*
D03*
X-120016D02*
D03*
X-121984D02*
D03*
X-123953D02*
D03*
X-127953Y-310968D02*
D03*
X-125984D02*
D03*
X-124016D02*
D03*
X-122047D02*
D03*
X-127953Y-307031D02*
D03*
X-125984D02*
D03*
X-124016D02*
D03*
X-122047D02*
D03*
X-103047Y-53031D02*
D03*
X-105016D02*
D03*
X-106984D02*
D03*
X-108953D02*
D03*
X-103047Y-56968D02*
D03*
X-105016D02*
D03*
X-106984D02*
D03*
X-108953D02*
D03*
X-96047Y-264032D02*
D03*
X-98016D02*
D03*
X-99984D02*
D03*
X-101953D02*
D03*
X-96047Y-267969D02*
D03*
X-98016D02*
D03*
X-99984D02*
D03*
X-101953D02*
D03*
X-112953Y-105968D02*
D03*
X-110984D02*
D03*
X-109016D02*
D03*
X-107047D02*
D03*
X-112953Y-102032D02*
D03*
X-110984D02*
D03*
X-109016D02*
D03*
X-107047D02*
D03*
X-78047Y-53031D02*
D03*
X-80016D02*
D03*
X-81984D02*
D03*
X-83953D02*
D03*
X-78047Y-56968D02*
D03*
X-80016D02*
D03*
X-81984D02*
D03*
X-83953D02*
D03*
X-88953Y-106968D02*
D03*
X-86984D02*
D03*
X-85016D02*
D03*
X-83047D02*
D03*
X-88953Y-103032D02*
D03*
X-86984D02*
D03*
X-85016D02*
D03*
X-83047D02*
D03*
X-78953Y-310968D02*
D03*
X-76984D02*
D03*
X-75016D02*
D03*
X-73047D02*
D03*
X-78953Y-307031D02*
D03*
X-76984D02*
D03*
X-75016D02*
D03*
X-73047D02*
D03*
X-57047Y-264032D02*
D03*
X-59016D02*
D03*
X-60984D02*
D03*
X-62953D02*
D03*
X-57047Y-267969D02*
D03*
X-59016D02*
D03*
X-60984D02*
D03*
X-62953D02*
D03*
X-53047Y-53031D02*
D03*
X-55016D02*
D03*
X-56984D02*
D03*
X-58953D02*
D03*
X-53047Y-56968D02*
D03*
X-55016D02*
D03*
X-56984D02*
D03*
X-58953D02*
D03*
X-63953Y-106968D02*
D03*
X-61984D02*
D03*
X-60016D02*
D03*
X-58047D02*
D03*
X-63953Y-103032D02*
D03*
X-61984D02*
D03*
X-60016D02*
D03*
X-58047D02*
D03*
X-38047Y-264032D02*
D03*
X-40016D02*
D03*
X-41984D02*
D03*
X-43953D02*
D03*
X-38047Y-267969D02*
D03*
X-40016D02*
D03*
X-41984D02*
D03*
X-43953D02*
D03*
X-53953Y-310968D02*
D03*
X-51984D02*
D03*
X-50016D02*
D03*
X-48047D02*
D03*
X-53953Y-307031D02*
D03*
X-51984D02*
D03*
X-50016D02*
D03*
X-48047D02*
D03*
X-28047Y-53031D02*
D03*
X-30016D02*
D03*
X-31984D02*
D03*
X-33953D02*
D03*
X-28047Y-56968D02*
D03*
X-30016D02*
D03*
X-31984D02*
D03*
X-33953D02*
D03*
X-37953Y-106968D02*
D03*
X-35984D02*
D03*
X-34016D02*
D03*
X-32047D02*
D03*
X-37953Y-103032D02*
D03*
X-35984D02*
D03*
X-34016D02*
D03*
X-32047D02*
D03*
X-32953Y-310968D02*
D03*
X-30984D02*
D03*
X-29016D02*
D03*
X-27047D02*
D03*
X-32953Y-307031D02*
D03*
X-30984D02*
D03*
X-29016D02*
D03*
X-27047D02*
D03*
X-3047Y-54031D02*
D03*
X-5016D02*
D03*
X-6984D02*
D03*
X-8953D02*
D03*
X-3047Y-57968D02*
D03*
X-5016D02*
D03*
X-6984D02*
D03*
X-8953D02*
D03*
X-13953Y-106968D02*
D03*
X-11984D02*
D03*
X-10016D02*
D03*
X-8047D02*
D03*
X-13953Y-103032D02*
D03*
X-11984D02*
D03*
X-10016D02*
D03*
X-8047D02*
D03*
X330953Y371969D02*
D03*
X328984D02*
D03*
X327016D02*
D03*
X325047D02*
D03*
X330953Y368032D02*
D03*
X328984D02*
D03*
X327016D02*
D03*
X325047D02*
D03*
X182953Y371969D02*
D03*
X180984D02*
D03*
X179016D02*
D03*
X177047D02*
D03*
X182953Y368032D02*
D03*
X180984D02*
D03*
X179016D02*
D03*
X177047D02*
D03*
X192953Y371969D02*
D03*
X190984D02*
D03*
X189016D02*
D03*
X187047D02*
D03*
X192953Y368032D02*
D03*
X190984D02*
D03*
X189016D02*
D03*
X187047D02*
D03*
X205968Y372000D02*
D03*
X204000D02*
D03*
X202031D02*
D03*
X200063D02*
D03*
X205968Y368063D02*
D03*
X204000D02*
D03*
X202031D02*
D03*
X200063D02*
D03*
X215937Y372000D02*
D03*
X213968D02*
D03*
X212000D02*
D03*
X210031D02*
D03*
X215937Y368063D02*
D03*
X213968D02*
D03*
X212000D02*
D03*
X210031D02*
D03*
X228953Y371969D02*
D03*
X226984D02*
D03*
X225016D02*
D03*
X223047D02*
D03*
X228953Y368032D02*
D03*
X226984D02*
D03*
X225016D02*
D03*
X223047D02*
D03*
X238953Y371969D02*
D03*
X236984D02*
D03*
X235016D02*
D03*
X233047D02*
D03*
X238953Y368032D02*
D03*
X236984D02*
D03*
X235016D02*
D03*
X233047D02*
D03*
X251953Y371969D02*
D03*
X249984D02*
D03*
X248016D02*
D03*
X246047D02*
D03*
X251953Y368032D02*
D03*
X249984D02*
D03*
X248016D02*
D03*
X246047D02*
D03*
X261953Y371969D02*
D03*
X259984D02*
D03*
X258016D02*
D03*
X256047D02*
D03*
X261953Y368032D02*
D03*
X259984D02*
D03*
X258016D02*
D03*
X256047D02*
D03*
X275000Y371937D02*
D03*
X273031D02*
D03*
X271063D02*
D03*
X269094D02*
D03*
X275000Y368000D02*
D03*
X273031D02*
D03*
X271063D02*
D03*
X269094D02*
D03*
X285000Y372000D02*
D03*
X283031D02*
D03*
X281063D02*
D03*
X279094D02*
D03*
X285000Y368063D02*
D03*
X283031D02*
D03*
X281063D02*
D03*
X279094D02*
D03*
X296706Y371100D02*
D03*
X294737D02*
D03*
X292769D02*
D03*
X290800D02*
D03*
X296706Y367163D02*
D03*
X294737D02*
D03*
X292769D02*
D03*
X290800D02*
D03*
X306253Y371369D02*
D03*
X304284D02*
D03*
X302316D02*
D03*
X300347D02*
D03*
X306253Y367432D02*
D03*
X304284D02*
D03*
X302316D02*
D03*
X300347D02*
D03*
X90953Y371969D02*
D03*
X88984D02*
D03*
X87016D02*
D03*
X85047D02*
D03*
X90953Y368032D02*
D03*
X88984D02*
D03*
X87016D02*
D03*
X85047D02*
D03*
X100953Y371969D02*
D03*
X98984D02*
D03*
X97016D02*
D03*
X95047D02*
D03*
X100953Y368032D02*
D03*
X98984D02*
D03*
X97016D02*
D03*
X95047D02*
D03*
X113937Y372000D02*
D03*
X111969D02*
D03*
X110000D02*
D03*
X108032D02*
D03*
X113937Y368063D02*
D03*
X111969D02*
D03*
X110000D02*
D03*
X108032D02*
D03*
X123953Y371969D02*
D03*
X121984D02*
D03*
X120016D02*
D03*
X118047D02*
D03*
X123953Y368032D02*
D03*
X121984D02*
D03*
X120016D02*
D03*
X118047D02*
D03*
X136968Y371937D02*
D03*
X135000D02*
D03*
X133031D02*
D03*
X131063D02*
D03*
X136968Y368000D02*
D03*
X135000D02*
D03*
X133031D02*
D03*
X131063D02*
D03*
X146937Y371937D02*
D03*
X144969D02*
D03*
X143000D02*
D03*
X141032D02*
D03*
X146937Y368000D02*
D03*
X144969D02*
D03*
X143000D02*
D03*
X141032D02*
D03*
X159968Y372000D02*
D03*
X158000D02*
D03*
X156031D02*
D03*
X154063D02*
D03*
X159968Y368063D02*
D03*
X158000D02*
D03*
X156031D02*
D03*
X154063D02*
D03*
X169953Y371969D02*
D03*
X167984D02*
D03*
X166016D02*
D03*
X164047D02*
D03*
X169953Y368032D02*
D03*
X167984D02*
D03*
X166016D02*
D03*
X164047D02*
D03*
X-164063Y372000D02*
D03*
X-166031D02*
D03*
X-168000D02*
D03*
X-169968D02*
D03*
X-164063Y368063D02*
D03*
X-166031D02*
D03*
X-168000D02*
D03*
X-169968D02*
D03*
X-154047Y371968D02*
D03*
X-156016D02*
D03*
X-157984D02*
D03*
X-159953D02*
D03*
X-154047Y368031D02*
D03*
X-156016D02*
D03*
X-157984D02*
D03*
X-159953D02*
D03*
X-187032Y372000D02*
D03*
X-189000D02*
D03*
X-190969D02*
D03*
X-192937D02*
D03*
X-187032Y368063D02*
D03*
X-189000D02*
D03*
X-190969D02*
D03*
X-192937D02*
D03*
X-177032Y371937D02*
D03*
X-179000D02*
D03*
X-180969D02*
D03*
X-182937D02*
D03*
X-177032Y368000D02*
D03*
X-179000D02*
D03*
X-180969D02*
D03*
X-182937D02*
D03*
X-210047Y371969D02*
D03*
X-212016D02*
D03*
X-213984D02*
D03*
X-215953D02*
D03*
X-210047Y368032D02*
D03*
X-212016D02*
D03*
X-213984D02*
D03*
X-215953D02*
D03*
X-200047Y371969D02*
D03*
X-202016D02*
D03*
X-203984D02*
D03*
X-205953D02*
D03*
X-200047Y368032D02*
D03*
X-202016D02*
D03*
X-203984D02*
D03*
X-205953D02*
D03*
X-233047Y371969D02*
D03*
X-235016D02*
D03*
X-236984D02*
D03*
X-238953D02*
D03*
X-233047Y368032D02*
D03*
X-235016D02*
D03*
X-236984D02*
D03*
X-238953D02*
D03*
X-223047Y371969D02*
D03*
X-225016D02*
D03*
X-226984D02*
D03*
X-228953D02*
D03*
X-223047Y368032D02*
D03*
X-225016D02*
D03*
X-226984D02*
D03*
X-228953D02*
D03*
X-256047Y371969D02*
D03*
X-258016D02*
D03*
X-259984D02*
D03*
X-261953D02*
D03*
X-256047Y368032D02*
D03*
X-258016D02*
D03*
X-259984D02*
D03*
X-261953D02*
D03*
X-246047Y371969D02*
D03*
X-248016D02*
D03*
X-249984D02*
D03*
X-251953D02*
D03*
X-246047Y368032D02*
D03*
X-248016D02*
D03*
X-249984D02*
D03*
X-251953D02*
D03*
X-279063Y372000D02*
D03*
X-281032D02*
D03*
X-283000D02*
D03*
X-284969D02*
D03*
X-279063Y368063D02*
D03*
X-281032D02*
D03*
X-283000D02*
D03*
X-284969D02*
D03*
X-269047Y371969D02*
D03*
X-271016D02*
D03*
X-272984D02*
D03*
X-274953D02*
D03*
X-269047Y368032D02*
D03*
X-271016D02*
D03*
X-272984D02*
D03*
X-274953D02*
D03*
X-302047Y371969D02*
D03*
X-304016D02*
D03*
X-305984D02*
D03*
X-307953D02*
D03*
X-302047Y368032D02*
D03*
X-304016D02*
D03*
X-305984D02*
D03*
X-307953D02*
D03*
X-292047Y371969D02*
D03*
X-294016D02*
D03*
X-295984D02*
D03*
X-297953D02*
D03*
X-292047Y368032D02*
D03*
X-294016D02*
D03*
X-295984D02*
D03*
X-297953D02*
D03*
X-325047Y371969D02*
D03*
X-327016D02*
D03*
X-328984D02*
D03*
X-330953D02*
D03*
X-325047Y368032D02*
D03*
X-327016D02*
D03*
X-328984D02*
D03*
X-330953D02*
D03*
X-315094Y371937D02*
D03*
X-317063D02*
D03*
X-319031D02*
D03*
X-321000D02*
D03*
X-315094Y368000D02*
D03*
X-317063D02*
D03*
X-319031D02*
D03*
X-321000D02*
D03*
X-72063Y372000D02*
D03*
X-74032D02*
D03*
X-76000D02*
D03*
X-77969D02*
D03*
X-72063Y368063D02*
D03*
X-74032D02*
D03*
X-76000D02*
D03*
X-77969D02*
D03*
X-62047Y371969D02*
D03*
X-64016D02*
D03*
X-65984D02*
D03*
X-67953D02*
D03*
X-62047Y368032D02*
D03*
X-64016D02*
D03*
X-65984D02*
D03*
X-67953D02*
D03*
X-95047Y371969D02*
D03*
X-97016D02*
D03*
X-98984D02*
D03*
X-100953D02*
D03*
X-95047Y368032D02*
D03*
X-97016D02*
D03*
X-98984D02*
D03*
X-100953D02*
D03*
X-85047Y371969D02*
D03*
X-87016D02*
D03*
X-88984D02*
D03*
X-90953D02*
D03*
X-85047Y368032D02*
D03*
X-87016D02*
D03*
X-88984D02*
D03*
X-90953D02*
D03*
X-118032Y372000D02*
D03*
X-120000D02*
D03*
X-121969D02*
D03*
X-123937D02*
D03*
X-118032Y368063D02*
D03*
X-120000D02*
D03*
X-121969D02*
D03*
X-123937D02*
D03*
X-108047Y371969D02*
D03*
X-110016D02*
D03*
X-111984D02*
D03*
X-113953D02*
D03*
X-108047Y368032D02*
D03*
X-110016D02*
D03*
X-111984D02*
D03*
X-113953D02*
D03*
X-141063Y371937D02*
D03*
X-143031D02*
D03*
X-145000D02*
D03*
X-146968D02*
D03*
X-141063Y368000D02*
D03*
X-143031D02*
D03*
X-145000D02*
D03*
X-146968D02*
D03*
X-131032Y372000D02*
D03*
X-133000D02*
D03*
X-134969D02*
D03*
X-136937D02*
D03*
X-131032Y368063D02*
D03*
X-133000D02*
D03*
X-134969D02*
D03*
X-136937D02*
D03*
X-113953Y-371969D02*
D03*
X-111984D02*
D03*
X-110016D02*
D03*
X-108047D02*
D03*
X-113953Y-368032D02*
D03*
X-111984D02*
D03*
X-110016D02*
D03*
X-108047D02*
D03*
X-123969Y-371937D02*
D03*
X-122000D02*
D03*
X-120032D02*
D03*
X-118063D02*
D03*
X-123969Y-368000D02*
D03*
X-122000D02*
D03*
X-120032D02*
D03*
X-118063D02*
D03*
X-136953Y-371969D02*
D03*
X-134984D02*
D03*
X-133016D02*
D03*
X-131047D02*
D03*
X-136953Y-368032D02*
D03*
X-134984D02*
D03*
X-133016D02*
D03*
X-131047D02*
D03*
X-146953Y-371969D02*
D03*
X-144984D02*
D03*
X-143016D02*
D03*
X-141047D02*
D03*
X-146953Y-368032D02*
D03*
X-144984D02*
D03*
X-143016D02*
D03*
X-141047D02*
D03*
X-159937Y-371937D02*
D03*
X-157969D02*
D03*
X-156000D02*
D03*
X-154032D02*
D03*
X-159937Y-368000D02*
D03*
X-157969D02*
D03*
X-156000D02*
D03*
X-154032D02*
D03*
X-169905Y-371937D02*
D03*
X-167937D02*
D03*
X-165968D02*
D03*
X-164000D02*
D03*
X-169905Y-368000D02*
D03*
X-167937D02*
D03*
X-165968D02*
D03*
X-164000D02*
D03*
X-183000Y-371937D02*
D03*
X-181032D02*
D03*
X-179063D02*
D03*
X-177095D02*
D03*
X-183000Y-368000D02*
D03*
X-181032D02*
D03*
X-179063D02*
D03*
X-177095D02*
D03*
X-192905Y-371937D02*
D03*
X-190937D02*
D03*
X-188968D02*
D03*
X-187000D02*
D03*
X-192905Y-368000D02*
D03*
X-190937D02*
D03*
X-188968D02*
D03*
X-187000D02*
D03*
X-205937Y-371937D02*
D03*
X-203969D02*
D03*
X-202000D02*
D03*
X-200032D02*
D03*
X-205937Y-368000D02*
D03*
X-203969D02*
D03*
X-202000D02*
D03*
X-200032D02*
D03*
X-215937Y-371937D02*
D03*
X-213969D02*
D03*
X-212000D02*
D03*
X-210032D02*
D03*
X-215937Y-368000D02*
D03*
X-213969D02*
D03*
X-212000D02*
D03*
X-210032D02*
D03*
X-228953Y-371969D02*
D03*
X-226984D02*
D03*
X-225016D02*
D03*
X-223047D02*
D03*
X-228953Y-368032D02*
D03*
X-226984D02*
D03*
X-225016D02*
D03*
X-223047D02*
D03*
X-238937Y-372000D02*
D03*
X-236969D02*
D03*
X-235000D02*
D03*
X-233032D02*
D03*
X-238937Y-368063D02*
D03*
X-236969D02*
D03*
X-235000D02*
D03*
X-233032D02*
D03*
X-251953Y-371968D02*
D03*
X-249984D02*
D03*
X-248016D02*
D03*
X-246047D02*
D03*
X-251953Y-368031D02*
D03*
X-249984D02*
D03*
X-248016D02*
D03*
X-246047D02*
D03*
X-261937Y-371937D02*
D03*
X-259969D02*
D03*
X-258000D02*
D03*
X-256032D02*
D03*
X-261937Y-368000D02*
D03*
X-259969D02*
D03*
X-258000D02*
D03*
X-256032D02*
D03*
X-274953Y-371969D02*
D03*
X-272984D02*
D03*
X-271016D02*
D03*
X-269047D02*
D03*
X-274953Y-368032D02*
D03*
X-272984D02*
D03*
X-271016D02*
D03*
X-269047D02*
D03*
X-284937Y-371937D02*
D03*
X-282968D02*
D03*
X-281000D02*
D03*
X-279031D02*
D03*
X-284937Y-368000D02*
D03*
X-282968D02*
D03*
X-281000D02*
D03*
X-279031D02*
D03*
X-297953Y-371969D02*
D03*
X-295984D02*
D03*
X-294016D02*
D03*
X-292047D02*
D03*
X-297953Y-368032D02*
D03*
X-295984D02*
D03*
X-294016D02*
D03*
X-292047D02*
D03*
X-308000Y-372000D02*
D03*
X-306031D02*
D03*
X-304063D02*
D03*
X-302094D02*
D03*
X-308000Y-368063D02*
D03*
X-306031D02*
D03*
X-304063D02*
D03*
X-302094D02*
D03*
X-320937Y-371937D02*
D03*
X-318968D02*
D03*
X-317000D02*
D03*
X-315031D02*
D03*
X-320937Y-368000D02*
D03*
X-318968D02*
D03*
X-317000D02*
D03*
X-315031D02*
D03*
X-330937Y-371937D02*
D03*
X-328968D02*
D03*
X-327000D02*
D03*
X-325031D02*
D03*
X-330937Y-368000D02*
D03*
X-328968D02*
D03*
X-327000D02*
D03*
X-325031D02*
D03*
X117000Y-371937D02*
D03*
X118968D02*
D03*
X120937D02*
D03*
X122905D02*
D03*
X117000Y-368000D02*
D03*
X118968D02*
D03*
X120937D02*
D03*
X122905D02*
D03*
X107047Y-371968D02*
D03*
X109016D02*
D03*
X110984D02*
D03*
X112953D02*
D03*
X107047Y-368031D02*
D03*
X109016D02*
D03*
X110984D02*
D03*
X112953D02*
D03*
X140032Y-371937D02*
D03*
X142000D02*
D03*
X143969D02*
D03*
X145937D02*
D03*
X140032Y-368000D02*
D03*
X142000D02*
D03*
X143969D02*
D03*
X145937D02*
D03*
X130095Y-371937D02*
D03*
X132063D02*
D03*
X134032D02*
D03*
X136000D02*
D03*
X130095Y-368000D02*
D03*
X132063D02*
D03*
X134032D02*
D03*
X136000D02*
D03*
X163032Y-371937D02*
D03*
X165000D02*
D03*
X166969D02*
D03*
X168937D02*
D03*
X163032Y-368000D02*
D03*
X165000D02*
D03*
X166969D02*
D03*
X168937D02*
D03*
X153047Y-371968D02*
D03*
X155016D02*
D03*
X156984D02*
D03*
X158953D02*
D03*
X153047Y-368031D02*
D03*
X155016D02*
D03*
X156984D02*
D03*
X158953D02*
D03*
X187032Y-371937D02*
D03*
X189000D02*
D03*
X190969D02*
D03*
X192937D02*
D03*
X187032Y-368000D02*
D03*
X189000D02*
D03*
X190969D02*
D03*
X192937D02*
D03*
X177032Y-371937D02*
D03*
X179000D02*
D03*
X180969D02*
D03*
X182937D02*
D03*
X177032Y-368000D02*
D03*
X179000D02*
D03*
X180969D02*
D03*
X182937D02*
D03*
X210095Y-372000D02*
D03*
X212063D02*
D03*
X214032D02*
D03*
X216000D02*
D03*
X210095Y-368063D02*
D03*
X212063D02*
D03*
X214032D02*
D03*
X216000D02*
D03*
X200000Y-372000D02*
D03*
X201968D02*
D03*
X203937D02*
D03*
X205905D02*
D03*
X200000Y-368063D02*
D03*
X201968D02*
D03*
X203937D02*
D03*
X205905D02*
D03*
X233047Y-371968D02*
D03*
X235016D02*
D03*
X236984D02*
D03*
X238953D02*
D03*
X233047Y-368031D02*
D03*
X235016D02*
D03*
X236984D02*
D03*
X238953D02*
D03*
X223047Y-371968D02*
D03*
X225016D02*
D03*
X226984D02*
D03*
X228953D02*
D03*
X223047Y-368031D02*
D03*
X225016D02*
D03*
X226984D02*
D03*
X228953D02*
D03*
X256047Y-371968D02*
D03*
X258016D02*
D03*
X259984D02*
D03*
X261953D02*
D03*
X256047Y-368031D02*
D03*
X258016D02*
D03*
X259984D02*
D03*
X261953D02*
D03*
X246031Y-372000D02*
D03*
X248000D02*
D03*
X249968D02*
D03*
X251937D02*
D03*
X246031Y-368063D02*
D03*
X248000D02*
D03*
X249968D02*
D03*
X251937D02*
D03*
X279047Y-371968D02*
D03*
X281016D02*
D03*
X282984D02*
D03*
X284953D02*
D03*
X279047Y-368031D02*
D03*
X281016D02*
D03*
X282984D02*
D03*
X284953D02*
D03*
X269031Y-371937D02*
D03*
X271000D02*
D03*
X272968D02*
D03*
X274937D02*
D03*
X269031Y-368000D02*
D03*
X271000D02*
D03*
X272968D02*
D03*
X274937D02*
D03*
X302031Y-372000D02*
D03*
X304000D02*
D03*
X305968D02*
D03*
X307937D02*
D03*
X302031Y-368063D02*
D03*
X304000D02*
D03*
X305968D02*
D03*
X307937D02*
D03*
X292047Y-371968D02*
D03*
X294016D02*
D03*
X295984D02*
D03*
X297953D02*
D03*
X292047Y-368031D02*
D03*
X294016D02*
D03*
X295984D02*
D03*
X297953D02*
D03*
X325047Y-371969D02*
D03*
X327016D02*
D03*
X328984D02*
D03*
X330953D02*
D03*
X325047Y-368032D02*
D03*
X327016D02*
D03*
X328984D02*
D03*
X330953D02*
D03*
X315047Y-371968D02*
D03*
X317016D02*
D03*
X318984D02*
D03*
X320953D02*
D03*
X315047Y-368031D02*
D03*
X317016D02*
D03*
X318984D02*
D03*
X320953D02*
D03*
X-67953Y-371969D02*
D03*
X-65984D02*
D03*
X-64016D02*
D03*
X-62047D02*
D03*
X-67953Y-368032D02*
D03*
X-65984D02*
D03*
X-64016D02*
D03*
X-62047D02*
D03*
X-77953Y-371969D02*
D03*
X-75984D02*
D03*
X-74016D02*
D03*
X-72047D02*
D03*
X-77953Y-368032D02*
D03*
X-75984D02*
D03*
X-74016D02*
D03*
X-72047D02*
D03*
X-90953Y-371968D02*
D03*
X-88984D02*
D03*
X-87016D02*
D03*
X-85047D02*
D03*
X-90953Y-368031D02*
D03*
X-88984D02*
D03*
X-87016D02*
D03*
X-85047D02*
D03*
X-100953Y-371969D02*
D03*
X-98984D02*
D03*
X-97016D02*
D03*
X-95047D02*
D03*
X-100953Y-368032D02*
D03*
X-98984D02*
D03*
X-97016D02*
D03*
X-95047D02*
D03*
D12*
X-193366Y-73032D02*
D03*
X-188366D02*
D03*
X-183366D02*
D03*
X-178366D02*
D03*
X-173366D02*
D03*
X-168366D02*
D03*
X-163366D02*
D03*
X-158366D02*
D03*
X-153366D02*
D03*
X-148366D02*
D03*
X-143366D02*
D03*
X-138366D02*
D03*
X-133366D02*
D03*
X-128366D02*
D03*
X-123366D02*
D03*
X-118366D02*
D03*
X-113366D02*
D03*
X-108366D02*
D03*
X-103366D02*
D03*
X-98366D02*
D03*
X-93366D02*
D03*
X-88366D02*
D03*
X-83366D02*
D03*
X-78366D02*
D03*
X-73366D02*
D03*
X-68366D02*
D03*
X-63366D02*
D03*
X-58366D02*
D03*
X-53366D02*
D03*
X-48366D02*
D03*
X-43366D02*
D03*
X-38366D02*
D03*
X-33366D02*
D03*
X-28366D02*
D03*
X-23366D02*
D03*
X-18366D02*
D03*
X-13366D02*
D03*
X-8366D02*
D03*
X-3366D02*
D03*
X1634D02*
D03*
X-193366Y-88386D02*
D03*
X-188366D02*
D03*
X-183366D02*
D03*
X-178366D02*
D03*
X-173366D02*
D03*
X-168366D02*
D03*
X-163366D02*
D03*
X-158366D02*
D03*
X-153366D02*
D03*
X-148366D02*
D03*
X-143366D02*
D03*
X-138366D02*
D03*
X-133366D02*
D03*
X-128366D02*
D03*
X-123366D02*
D03*
X-118366D02*
D03*
X-113366D02*
D03*
X-108366D02*
D03*
X-103366D02*
D03*
X-98366D02*
D03*
X-93366D02*
D03*
X-88366D02*
D03*
X-83366D02*
D03*
X-78366D02*
D03*
X-73366D02*
D03*
X-68366D02*
D03*
X-63366D02*
D03*
X-58366D02*
D03*
X-53366D02*
D03*
X-48366D02*
D03*
X-43366D02*
D03*
X-38366D02*
D03*
X-33366D02*
D03*
X-28366D02*
D03*
X-23366D02*
D03*
X-18366D02*
D03*
X-13366D02*
D03*
X-8366D02*
D03*
X-3366D02*
D03*
X1634D02*
D03*
X-193366Y-281693D02*
D03*
X-188366D02*
D03*
X-183366D02*
D03*
X-178366D02*
D03*
X-173366D02*
D03*
X-168366D02*
D03*
X-163366D02*
D03*
X-158366D02*
D03*
X-153366D02*
D03*
X-148366D02*
D03*
X-143366D02*
D03*
X-138366D02*
D03*
X-133366D02*
D03*
X-128366D02*
D03*
X-123366D02*
D03*
X-118366D02*
D03*
X-113366D02*
D03*
X-108366D02*
D03*
X-103366D02*
D03*
X-98366D02*
D03*
X-93366D02*
D03*
X-88366D02*
D03*
X-83366D02*
D03*
X-78366D02*
D03*
X-73366D02*
D03*
X-68366D02*
D03*
X-63366D02*
D03*
X-58366D02*
D03*
X-53366D02*
D03*
X-48366D02*
D03*
X-43366D02*
D03*
X-38366D02*
D03*
X-33366D02*
D03*
X-28366D02*
D03*
X-23366D02*
D03*
X-18366D02*
D03*
X-13366D02*
D03*
X-8366D02*
D03*
X-3366D02*
D03*
X1634D02*
D03*
X-193366Y-297047D02*
D03*
X-188366D02*
D03*
X-183366D02*
D03*
X-178366D02*
D03*
X-173366D02*
D03*
X-168366D02*
D03*
X-163366D02*
D03*
X-158366D02*
D03*
X-153366D02*
D03*
X-148366D02*
D03*
X-143366D02*
D03*
X-138366D02*
D03*
X-133366D02*
D03*
X-128366D02*
D03*
X-123366D02*
D03*
X-118366D02*
D03*
X-113366D02*
D03*
X-108366D02*
D03*
X-103366D02*
D03*
X-98366D02*
D03*
X-93366D02*
D03*
X-88366D02*
D03*
X-83366D02*
D03*
X-78366D02*
D03*
X-73366D02*
D03*
X-68366D02*
D03*
X-63366D02*
D03*
X-58366D02*
D03*
X-53366D02*
D03*
X-48366D02*
D03*
X-43366D02*
D03*
X-38366D02*
D03*
X-33366D02*
D03*
X-28366D02*
D03*
X-23366D02*
D03*
X-18366D02*
D03*
X-13366D02*
D03*
X-8366D02*
D03*
X-3366D02*
D03*
X1634D02*
D03*
D13*
X13756Y249000D02*
D03*
X8244D02*
D03*
X18244Y249000D02*
D03*
X23756D02*
D03*
X-326756Y154000D02*
D03*
X-321244D02*
D03*
X-326756Y-124000D02*
D03*
X-321244D02*
D03*
X328756Y216000D02*
D03*
X323244D02*
D03*
X328756Y211000D02*
D03*
X323244D02*
D03*
X-326756Y177000D02*
D03*
X-321244D02*
D03*
X-326756Y-147000D02*
D03*
X-321244D02*
D03*
X328756Y240000D02*
D03*
X323244D02*
D03*
X328756Y235000D02*
D03*
X323244D02*
D03*
X-326756Y200000D02*
D03*
X-321244D02*
D03*
X-326756Y-170000D02*
D03*
X-321244D02*
D03*
X328756Y263000D02*
D03*
X323244D02*
D03*
X328756Y258000D02*
D03*
X323244D02*
D03*
X-326756Y223000D02*
D03*
X-321244D02*
D03*
X-326756Y-193000D02*
D03*
X-321244D02*
D03*
X328756Y286000D02*
D03*
X323244D02*
D03*
X328756Y281000D02*
D03*
X323244D02*
D03*
X-326756Y246000D02*
D03*
X-321244D02*
D03*
X-326756Y-216000D02*
D03*
X-321244D02*
D03*
X328756Y310000D02*
D03*
X323244D02*
D03*
X328756Y304000D02*
D03*
X323244D02*
D03*
X-326756Y269000D02*
D03*
X-321244D02*
D03*
X-326756Y-240000D02*
D03*
X-321244D02*
D03*
X328756Y316000D02*
D03*
X323244D02*
D03*
X328756Y323000D02*
D03*
X323244D02*
D03*
X-326756Y292000D02*
D03*
X-321244D02*
D03*
X-326756Y-263000D02*
D03*
X-321244D02*
D03*
X328756Y101000D02*
D03*
X323244D02*
D03*
X-326756Y314000D02*
D03*
X-321244D02*
D03*
X-326756Y-286000D02*
D03*
X-321244D02*
D03*
X-326756Y-309000D02*
D03*
X-321244D02*
D03*
X328756Y123000D02*
D03*
X323244D02*
D03*
X318756Y-329000D02*
D03*
X313244D02*
D03*
X328756Y147000D02*
D03*
X323244D02*
D03*
X-327000Y108000D02*
D03*
X-321488D02*
D03*
X-326756Y-78000D02*
D03*
X-321244D02*
D03*
X328756Y170000D02*
D03*
X323244D02*
D03*
X-326756Y131000D02*
D03*
X-321244D02*
D03*
X-326756Y-101000D02*
D03*
X-321244D02*
D03*
X328756Y193000D02*
D03*
X323244D02*
D03*
X328756Y-63000D02*
D03*
X323244D02*
D03*
X-326756Y159000D02*
D03*
X-321244D02*
D03*
X-326756Y-119000D02*
D03*
X-321244D02*
D03*
X328756Y-68000D02*
D03*
X323244D02*
D03*
X328756Y-86000D02*
D03*
X323244D02*
D03*
X-326756Y182000D02*
D03*
X-321244D02*
D03*
X-326756Y-142000D02*
D03*
X-321244D02*
D03*
X328756Y-91000D02*
D03*
X323244D02*
D03*
X328756Y-109000D02*
D03*
X323244D02*
D03*
X-326756Y205000D02*
D03*
X-321244D02*
D03*
X-326756Y-165000D02*
D03*
X-321244D02*
D03*
X328756Y-114000D02*
D03*
X323244D02*
D03*
X328756Y-132000D02*
D03*
X323244D02*
D03*
X-326756Y228000D02*
D03*
X-321244D02*
D03*
X-326756Y-188000D02*
D03*
X-321244D02*
D03*
X328756Y-137000D02*
D03*
X323244D02*
D03*
X328756Y-155000D02*
D03*
X323244D02*
D03*
X-326756Y251000D02*
D03*
X-321244D02*
D03*
X-326756Y-211000D02*
D03*
X-321244D02*
D03*
X328756Y-160000D02*
D03*
X323244D02*
D03*
X328756Y-178000D02*
D03*
X323244D02*
D03*
X-326756Y274000D02*
D03*
X-321244D02*
D03*
X-326756Y-235000D02*
D03*
X-321244D02*
D03*
X328756Y-183000D02*
D03*
X323244D02*
D03*
X328756Y-200000D02*
D03*
X323244D02*
D03*
X-326756Y297000D02*
D03*
X-321244D02*
D03*
X-326756Y-258000D02*
D03*
X-321244D02*
D03*
X328756Y-205000D02*
D03*
X323244D02*
D03*
X328756Y-224000D02*
D03*
X323244D02*
D03*
X328756Y96000D02*
D03*
X323244D02*
D03*
X-326756Y319000D02*
D03*
X-321244D02*
D03*
X-326756Y-281000D02*
D03*
X-321244D02*
D03*
X328756Y-229000D02*
D03*
X323244D02*
D03*
X328756Y-246000D02*
D03*
X323244D02*
D03*
X-326756Y-304000D02*
D03*
X-321244D02*
D03*
X328756Y-251000D02*
D03*
X323244D02*
D03*
X328756Y118000D02*
D03*
X323244D02*
D03*
X328756Y-270000D02*
D03*
X323244D02*
D03*
X-329756Y-324000D02*
D03*
X-324244D02*
D03*
X328756Y-275000D02*
D03*
X323244D02*
D03*
X328756Y142000D02*
D03*
X323244D02*
D03*
X328756Y-292000D02*
D03*
X323244D02*
D03*
X-327000Y113000D02*
D03*
X-321488D02*
D03*
X-326756Y-73000D02*
D03*
X-321244D02*
D03*
X328756Y-297000D02*
D03*
X323244D02*
D03*
X328756Y165000D02*
D03*
X323244D02*
D03*
X328756Y-314000D02*
D03*
X323244D02*
D03*
X-326756Y136000D02*
D03*
X-321244D02*
D03*
X-326756Y-96000D02*
D03*
X-321244D02*
D03*
X328756Y-319000D02*
D03*
X323244D02*
D03*
X328756Y188000D02*
D03*
X323244D02*
D03*
D14*
X25000Y285000D02*
D03*
D15*
X15945Y257835D02*
D03*
X34055D02*
D03*
D16*
X16716Y241000D02*
D03*
X31284D02*
D03*
D17*
X-740Y237866D02*
D03*
X6740D02*
D03*
X3000Y246134D02*
D03*
D18*
X348425Y-346358D02*
D03*
Y-366240D02*
D03*
X135000Y190059D02*
D03*
Y209941D02*
D03*
Y173941D02*
D03*
Y154059D02*
D03*
X-348425Y346358D02*
D03*
Y366240D02*
D03*
D19*
X55000Y107756D02*
D03*
Y102244D02*
D03*
Y92244D02*
D03*
Y97756D02*
D03*
X50000D02*
D03*
Y92244D02*
D03*
Y102244D02*
D03*
Y107756D02*
D03*
X58000Y179744D02*
D03*
Y185256D02*
D03*
X53000D02*
D03*
Y179744D02*
D03*
Y189744D02*
D03*
Y195256D02*
D03*
X58000D02*
D03*
Y189744D02*
D03*
Y204244D02*
D03*
Y209756D02*
D03*
X176000Y328756D02*
D03*
Y323244D02*
D03*
X-170000Y328756D02*
D03*
Y323244D02*
D03*
X-107000Y-328756D02*
D03*
Y-323244D02*
D03*
X199000Y328756D02*
D03*
Y323244D02*
D03*
X-193000Y328756D02*
D03*
Y323244D02*
D03*
X-130000Y-328756D02*
D03*
Y-323244D02*
D03*
X222000Y328756D02*
D03*
Y323244D02*
D03*
X-216000Y328756D02*
D03*
Y323244D02*
D03*
X-153000Y-328756D02*
D03*
Y-323244D02*
D03*
X245000Y328756D02*
D03*
Y323244D02*
D03*
X-240000Y328756D02*
D03*
Y323244D02*
D03*
X-176000Y-328756D02*
D03*
Y-323244D02*
D03*
X269000Y328756D02*
D03*
Y323244D02*
D03*
X-263000Y328756D02*
D03*
Y323244D02*
D03*
X-199000Y-328756D02*
D03*
Y-323244D02*
D03*
X292000Y328756D02*
D03*
Y323244D02*
D03*
X-286000Y328756D02*
D03*
Y323244D02*
D03*
X-222000Y-328756D02*
D03*
Y-323244D02*
D03*
X313000Y328756D02*
D03*
Y323244D02*
D03*
X-309000Y328756D02*
D03*
Y323244D02*
D03*
X-244000Y-328756D02*
D03*
Y-323244D02*
D03*
X263000Y-328756D02*
D03*
Y-323244D02*
D03*
X-323000Y330756D02*
D03*
Y325244D02*
D03*
X-269000Y-328756D02*
D03*
Y-323244D02*
D03*
X286000Y-328756D02*
D03*
Y-323244D02*
D03*
X-78000Y328756D02*
D03*
Y323244D02*
D03*
X-291000Y-328756D02*
D03*
Y-323244D02*
D03*
X308000Y-328756D02*
D03*
Y-323244D02*
D03*
X84000Y328756D02*
D03*
Y323244D02*
D03*
X-101000Y328756D02*
D03*
Y323244D02*
D03*
X-329000Y-319756D02*
D03*
Y-314244D02*
D03*
X-313000Y-328756D02*
D03*
Y-323244D02*
D03*
X107000Y328756D02*
D03*
Y323244D02*
D03*
X-124000Y328756D02*
D03*
Y323244D02*
D03*
X-61000Y-328756D02*
D03*
Y-323244D02*
D03*
X130000Y328756D02*
D03*
Y323244D02*
D03*
X-147000Y328756D02*
D03*
Y323244D02*
D03*
X-84000Y-328756D02*
D03*
Y-323244D02*
D03*
X153000Y328756D02*
D03*
Y323244D02*
D03*
X124000Y-328756D02*
D03*
Y-323244D02*
D03*
X181000Y328756D02*
D03*
Y323244D02*
D03*
X-165000Y328756D02*
D03*
Y323244D02*
D03*
X-112000Y-328756D02*
D03*
Y-323244D02*
D03*
X119000Y-328756D02*
D03*
Y-323244D02*
D03*
X147000Y-328756D02*
D03*
Y-323244D02*
D03*
X204000Y328756D02*
D03*
Y323244D02*
D03*
X-188000Y328756D02*
D03*
Y323244D02*
D03*
X-135000Y-328756D02*
D03*
Y-323244D02*
D03*
X142000Y-328756D02*
D03*
Y-323244D02*
D03*
X170000Y-328756D02*
D03*
Y-323244D02*
D03*
X227000Y328756D02*
D03*
Y323244D02*
D03*
X-211000Y328756D02*
D03*
Y323244D02*
D03*
X-158000Y-328756D02*
D03*
Y-323244D02*
D03*
X165000Y-328756D02*
D03*
Y-323244D02*
D03*
X193000Y-328756D02*
D03*
Y-323244D02*
D03*
X250000Y328756D02*
D03*
Y323244D02*
D03*
X-235000Y328756D02*
D03*
Y323244D02*
D03*
X-181000Y-328756D02*
D03*
Y-323244D02*
D03*
X188000Y-328756D02*
D03*
Y-323244D02*
D03*
X216000Y-328756D02*
D03*
Y-323244D02*
D03*
X274000Y328756D02*
D03*
Y323244D02*
D03*
X-258000Y328756D02*
D03*
Y323244D02*
D03*
X-204000Y-328756D02*
D03*
Y-323244D02*
D03*
X211000Y-328756D02*
D03*
Y-323244D02*
D03*
X240000Y-328756D02*
D03*
Y-323244D02*
D03*
X297000Y328756D02*
D03*
Y323244D02*
D03*
X-281000Y328756D02*
D03*
Y323244D02*
D03*
X-227000Y-328756D02*
D03*
Y-323244D02*
D03*
X235000Y-328756D02*
D03*
Y-323244D02*
D03*
X318000Y328756D02*
D03*
Y323244D02*
D03*
X-304000Y328756D02*
D03*
Y323244D02*
D03*
X-249000Y-328756D02*
D03*
Y-323244D02*
D03*
X258000Y-328756D02*
D03*
Y-323244D02*
D03*
X-314800Y328856D02*
D03*
Y323344D02*
D03*
X-274000Y-328756D02*
D03*
Y-323244D02*
D03*
X281000Y-328756D02*
D03*
Y-323244D02*
D03*
X-73000Y328756D02*
D03*
Y323244D02*
D03*
X-296000Y-328756D02*
D03*
Y-323244D02*
D03*
X303000Y-328756D02*
D03*
Y-323244D02*
D03*
X89000Y328756D02*
D03*
Y323244D02*
D03*
X-96000Y328756D02*
D03*
Y323244D02*
D03*
X-318000Y-328756D02*
D03*
Y-323244D02*
D03*
X323000Y-331756D02*
D03*
Y-326244D02*
D03*
X112000Y328756D02*
D03*
Y323244D02*
D03*
X-119000Y328756D02*
D03*
Y323244D02*
D03*
X-66000Y-328756D02*
D03*
Y-323244D02*
D03*
X135000Y328756D02*
D03*
Y323244D02*
D03*
X-142000Y328756D02*
D03*
Y323244D02*
D03*
X-89000Y-328756D02*
D03*
Y-323244D02*
D03*
X158000Y328756D02*
D03*
Y323244D02*
D03*
D20*
X107500Y110000D02*
D03*
D21*
X68327Y85000D02*
D03*
Y90000D02*
D03*
Y95000D02*
D03*
Y100000D02*
D03*
Y105000D02*
D03*
Y110000D02*
D03*
Y115000D02*
D03*
Y120000D02*
D03*
Y125000D02*
D03*
Y130000D02*
D03*
Y135000D02*
D03*
D22*
X79941Y155000D02*
D03*
X60059D02*
D03*
X112441D02*
D03*
X92559D02*
D03*
X80000Y230000D02*
D03*
X60118D02*
D03*
D23*
X162583Y-160161D02*
D03*
Y-162721D02*
D03*
Y-165279D02*
D03*
Y-167839D02*
D03*
X185417Y-160161D02*
D03*
Y-162721D02*
D03*
Y-165279D02*
D03*
Y-167839D02*
D03*
D24*
X66437Y210000D02*
D03*
Y205000D02*
D03*
Y200000D02*
D03*
Y195000D02*
D03*
Y190000D02*
D03*
Y185000D02*
D03*
Y180000D02*
D03*
D25*
X96476Y195000D02*
D03*
D26*
X345079Y377953D02*
D03*
X355709D02*
D03*
X-345079Y-377953D02*
D03*
X-355709D02*
D03*
D27*
X193000Y-171150D02*
D03*
Y-164850D02*
D03*
X154000Y-136150D02*
D03*
Y-129850D02*
D03*
X194000Y-132150D02*
D03*
Y-125850D02*
D03*
X-329000Y118850D02*
D03*
Y125150D02*
D03*
Y164850D02*
D03*
Y171150D02*
D03*
Y187850D02*
D03*
Y194150D02*
D03*
X-329000Y210850D02*
D03*
Y217150D02*
D03*
Y233850D02*
D03*
Y240150D02*
D03*
Y256850D02*
D03*
Y263150D02*
D03*
X-329000Y279850D02*
D03*
Y286150D02*
D03*
Y302850D02*
D03*
Y309150D02*
D03*
X-329000Y141851D02*
D03*
Y148150D02*
D03*
X329000Y90150D02*
D03*
Y83850D02*
D03*
Y113150D02*
D03*
Y106850D02*
D03*
Y136150D02*
D03*
Y129850D02*
D03*
X329000Y159150D02*
D03*
Y152850D02*
D03*
X329000Y182150D02*
D03*
Y175850D02*
D03*
X329000Y205150D02*
D03*
Y198850D02*
D03*
X329000Y229150D02*
D03*
Y222850D02*
D03*
Y252150D02*
D03*
Y245850D02*
D03*
Y275150D02*
D03*
Y268850D02*
D03*
X329000Y298150D02*
D03*
Y291850D02*
D03*
X330000Y-72850D02*
D03*
Y-79150D02*
D03*
Y-96850D02*
D03*
Y-103150D02*
D03*
Y-118850D02*
D03*
Y-125150D02*
D03*
Y-142850D02*
D03*
Y-149150D02*
D03*
Y-164850D02*
D03*
Y-171150D02*
D03*
Y-188850D02*
D03*
Y-195150D02*
D03*
Y-210850D02*
D03*
Y-217150D02*
D03*
Y-234850D02*
D03*
Y-241150D02*
D03*
Y-256850D02*
D03*
Y-263150D02*
D03*
X330000Y-280850D02*
D03*
Y-287150D02*
D03*
X330000Y-302850D02*
D03*
Y-309150D02*
D03*
Y-324850D02*
D03*
Y-331150D02*
D03*
X-292100Y323850D02*
D03*
Y330150D02*
D03*
X-329000Y324850D02*
D03*
Y331150D02*
D03*
X-329000Y-298150D02*
D03*
Y-291850D02*
D03*
X-329000Y-275150D02*
D03*
Y-268850D02*
D03*
X-329000Y-252150D02*
D03*
Y-245850D02*
D03*
Y-229150D02*
D03*
Y-222850D02*
D03*
Y-205149D02*
D03*
Y-198850D02*
D03*
Y-182150D02*
D03*
Y-175850D02*
D03*
Y-159150D02*
D03*
Y-152850D02*
D03*
Y-136149D02*
D03*
Y-129850D02*
D03*
Y-113150D02*
D03*
Y-106850D02*
D03*
Y-90150D02*
D03*
Y-83850D02*
D03*
X-329000Y-67149D02*
D03*
Y-60850D02*
D03*
X-203000Y-286850D02*
D03*
Y-293150D02*
D03*
X84000Y33850D02*
D03*
Y40150D02*
D03*
X75000Y33850D02*
D03*
Y40150D02*
D03*
D28*
X185417Y-142516D02*
D03*
Y-139957D02*
D03*
Y-137398D02*
D03*
Y-134839D02*
D03*
Y-132280D02*
D03*
Y-129720D02*
D03*
Y-127161D02*
D03*
Y-124602D02*
D03*
Y-122043D02*
D03*
Y-119484D02*
D03*
X162583Y-142516D02*
D03*
Y-139957D02*
D03*
Y-137398D02*
D03*
Y-134839D02*
D03*
Y-132280D02*
D03*
Y-129720D02*
D03*
Y-127161D02*
D03*
Y-124602D02*
D03*
Y-122043D02*
D03*
Y-119484D02*
D03*
D29*
X-170850Y-100000D02*
D03*
X-177150D02*
D03*
X-71850Y-330000D02*
D03*
X-78150D02*
D03*
X-94850D02*
D03*
X-101150D02*
D03*
X-117850D02*
D03*
X-124150D02*
D03*
X-140701D02*
D03*
X-147000D02*
D03*
X-163850Y-330000D02*
D03*
X-170150D02*
D03*
X-186850D02*
D03*
X-193150D02*
D03*
X-209850D02*
D03*
X-216150D02*
D03*
X-232850Y-330000D02*
D03*
X-239150D02*
D03*
X-255850Y-330000D02*
D03*
X-262150D02*
D03*
X-278850D02*
D03*
X-285150D02*
D03*
X-301850Y-330000D02*
D03*
X-308150D02*
D03*
X-323850D02*
D03*
X-330150D02*
D03*
X322850Y330000D02*
D03*
X329150D02*
D03*
X302000Y330000D02*
D03*
X308299D02*
D03*
X279850D02*
D03*
X286150D02*
D03*
X255850D02*
D03*
X262150D02*
D03*
X232851Y330000D02*
D03*
X239150D02*
D03*
X298150Y-330000D02*
D03*
X291850D02*
D03*
X275150Y-330000D02*
D03*
X268850D02*
D03*
X252150D02*
D03*
X245850D02*
D03*
X229150D02*
D03*
X222850D02*
D03*
X205150Y-330000D02*
D03*
X198850D02*
D03*
X182299D02*
D03*
X176000D02*
D03*
X159150D02*
D03*
X152850D02*
D03*
X136150D02*
D03*
X129850D02*
D03*
X113150D02*
D03*
X106850D02*
D03*
X-252150Y330000D02*
D03*
X-245850D02*
D03*
X-275150Y330000D02*
D03*
X-268850D02*
D03*
X209850D02*
D03*
X216150D02*
D03*
X186850D02*
D03*
X193150D02*
D03*
X163850Y330000D02*
D03*
X170150D02*
D03*
X140850D02*
D03*
X147150D02*
D03*
X117850D02*
D03*
X124150D02*
D03*
X94850Y330000D02*
D03*
X101150D02*
D03*
X-67150Y330000D02*
D03*
X-60850D02*
D03*
X-90299D02*
D03*
X-84000D02*
D03*
X-113150D02*
D03*
X-106850D02*
D03*
X-136150Y330000D02*
D03*
X-129850D02*
D03*
X-159150Y330000D02*
D03*
X-152850D02*
D03*
X-182150Y330000D02*
D03*
X-175850D02*
D03*
X-205150Y330000D02*
D03*
X-198850D02*
D03*
X-229150Y330000D02*
D03*
X-222850D02*
D03*
D30*
X358221Y198543D02*
D03*
Y201102D02*
D03*
Y203661D02*
D03*
Y206220D02*
D03*
Y208780D02*
D03*
Y211339D02*
D03*
Y213898D02*
D03*
Y216457D02*
D03*
X335780Y198543D02*
D03*
Y201102D02*
D03*
Y203661D02*
D03*
Y206220D02*
D03*
Y208780D02*
D03*
Y211339D02*
D03*
Y213898D02*
D03*
Y216457D02*
D03*
X358221Y222043D02*
D03*
Y224602D02*
D03*
Y227162D02*
D03*
Y229720D02*
D03*
Y232279D02*
D03*
Y234839D02*
D03*
Y237398D02*
D03*
Y239957D02*
D03*
X335780Y222043D02*
D03*
Y224602D02*
D03*
Y227162D02*
D03*
Y229720D02*
D03*
Y232279D02*
D03*
Y234839D02*
D03*
Y237398D02*
D03*
Y239957D02*
D03*
X358221Y245043D02*
D03*
Y247602D02*
D03*
Y250162D02*
D03*
Y252720D02*
D03*
Y255279D02*
D03*
Y257839D02*
D03*
Y260398D02*
D03*
Y262957D02*
D03*
X335780Y245043D02*
D03*
Y247602D02*
D03*
Y250162D02*
D03*
Y252720D02*
D03*
Y255279D02*
D03*
Y257839D02*
D03*
Y260398D02*
D03*
Y262957D02*
D03*
X358221Y268043D02*
D03*
Y270602D02*
D03*
Y273161D02*
D03*
Y275720D02*
D03*
Y278280D02*
D03*
Y280839D02*
D03*
Y283398D02*
D03*
Y285957D02*
D03*
X335780Y268043D02*
D03*
Y270602D02*
D03*
Y273161D02*
D03*
Y275720D02*
D03*
Y278280D02*
D03*
Y280839D02*
D03*
Y283398D02*
D03*
Y285957D02*
D03*
X358220Y291043D02*
D03*
Y293602D02*
D03*
Y296161D02*
D03*
Y298721D02*
D03*
Y301280D02*
D03*
Y303839D02*
D03*
Y306398D02*
D03*
Y308957D02*
D03*
X335779Y291043D02*
D03*
Y293602D02*
D03*
Y296161D02*
D03*
Y298721D02*
D03*
Y301280D02*
D03*
Y303839D02*
D03*
Y306398D02*
D03*
Y308957D02*
D03*
X358221Y314043D02*
D03*
Y316602D02*
D03*
Y319162D02*
D03*
Y321721D02*
D03*
Y324279D02*
D03*
Y326838D02*
D03*
Y329398D02*
D03*
Y331957D02*
D03*
X335780Y314043D02*
D03*
Y316602D02*
D03*
Y319162D02*
D03*
Y321721D02*
D03*
Y324279D02*
D03*
Y326838D02*
D03*
Y329398D02*
D03*
Y331957D02*
D03*
X358220Y83043D02*
D03*
Y85602D02*
D03*
Y88161D02*
D03*
Y90720D02*
D03*
Y93280D02*
D03*
Y95839D02*
D03*
Y98398D02*
D03*
Y100957D02*
D03*
X335780Y83043D02*
D03*
Y85602D02*
D03*
Y88161D02*
D03*
Y90720D02*
D03*
Y93280D02*
D03*
Y95839D02*
D03*
Y98398D02*
D03*
Y100957D02*
D03*
X358220Y106043D02*
D03*
Y108602D02*
D03*
Y111161D02*
D03*
Y113721D02*
D03*
Y116279D02*
D03*
Y118839D02*
D03*
Y121398D02*
D03*
Y123957D02*
D03*
X335780Y106043D02*
D03*
Y108602D02*
D03*
Y111161D02*
D03*
Y113721D02*
D03*
Y116279D02*
D03*
Y118839D02*
D03*
Y121398D02*
D03*
Y123957D02*
D03*
X358221Y129043D02*
D03*
Y131602D02*
D03*
Y134161D02*
D03*
Y136721D02*
D03*
Y139279D02*
D03*
Y141839D02*
D03*
Y144398D02*
D03*
Y146957D02*
D03*
X335780Y129043D02*
D03*
Y131602D02*
D03*
Y134161D02*
D03*
Y136721D02*
D03*
Y139279D02*
D03*
Y141839D02*
D03*
Y144398D02*
D03*
Y146957D02*
D03*
X358220Y152043D02*
D03*
Y154602D02*
D03*
Y157161D02*
D03*
Y159721D02*
D03*
Y162279D02*
D03*
Y164839D02*
D03*
Y167398D02*
D03*
Y169957D02*
D03*
X335779Y152043D02*
D03*
Y154602D02*
D03*
Y157161D02*
D03*
Y159721D02*
D03*
Y162279D02*
D03*
Y164839D02*
D03*
Y167398D02*
D03*
Y169957D02*
D03*
X358221Y175043D02*
D03*
Y177602D02*
D03*
Y180161D02*
D03*
Y182720D02*
D03*
Y185280D02*
D03*
Y187838D02*
D03*
Y190398D02*
D03*
Y192957D02*
D03*
X335780Y175043D02*
D03*
Y177602D02*
D03*
Y180161D02*
D03*
Y182720D02*
D03*
Y185280D02*
D03*
Y187838D02*
D03*
Y190398D02*
D03*
Y192957D02*
D03*
X-358221Y171957D02*
D03*
Y169398D02*
D03*
Y166839D02*
D03*
Y164280D02*
D03*
Y161720D02*
D03*
Y159161D02*
D03*
Y156602D02*
D03*
Y154043D02*
D03*
X-335780Y171957D02*
D03*
Y169398D02*
D03*
Y166839D02*
D03*
Y164280D02*
D03*
Y161720D02*
D03*
Y159161D02*
D03*
Y156602D02*
D03*
Y154043D02*
D03*
X-358221Y194957D02*
D03*
Y192398D02*
D03*
Y189839D02*
D03*
Y187279D02*
D03*
Y184721D02*
D03*
Y182161D02*
D03*
Y179602D02*
D03*
Y177043D02*
D03*
X-335780Y194957D02*
D03*
Y192398D02*
D03*
Y189839D02*
D03*
Y187279D02*
D03*
Y184721D02*
D03*
Y182161D02*
D03*
Y179602D02*
D03*
Y177043D02*
D03*
X-358221Y217957D02*
D03*
Y215398D02*
D03*
Y212839D02*
D03*
Y210279D02*
D03*
Y207720D02*
D03*
Y205161D02*
D03*
Y202602D02*
D03*
Y200043D02*
D03*
X-335780Y217957D02*
D03*
Y215398D02*
D03*
Y212839D02*
D03*
Y210279D02*
D03*
Y207720D02*
D03*
Y205161D02*
D03*
Y202602D02*
D03*
Y200043D02*
D03*
X-358221Y240957D02*
D03*
Y238398D02*
D03*
Y235839D02*
D03*
Y233280D02*
D03*
Y230720D02*
D03*
Y228161D02*
D03*
Y225602D02*
D03*
Y223043D02*
D03*
X-335780Y240957D02*
D03*
Y238398D02*
D03*
Y235839D02*
D03*
Y233280D02*
D03*
Y230720D02*
D03*
Y228161D02*
D03*
Y225602D02*
D03*
Y223043D02*
D03*
X-358221Y263957D02*
D03*
Y261398D02*
D03*
Y258839D02*
D03*
Y256280D02*
D03*
Y253720D02*
D03*
Y251161D02*
D03*
Y248602D02*
D03*
Y246043D02*
D03*
X-335780Y263957D02*
D03*
Y261398D02*
D03*
Y258839D02*
D03*
Y256280D02*
D03*
Y253720D02*
D03*
Y251161D02*
D03*
Y248602D02*
D03*
Y246043D02*
D03*
X-358221Y286957D02*
D03*
Y284398D02*
D03*
Y281839D02*
D03*
Y279280D02*
D03*
Y276720D02*
D03*
Y274161D02*
D03*
Y271602D02*
D03*
Y269043D02*
D03*
X-335780Y286957D02*
D03*
Y284398D02*
D03*
Y281839D02*
D03*
Y279280D02*
D03*
Y276720D02*
D03*
Y274161D02*
D03*
Y271602D02*
D03*
Y269043D02*
D03*
X-358221Y309957D02*
D03*
Y307398D02*
D03*
Y304838D02*
D03*
Y302279D02*
D03*
Y299721D02*
D03*
Y297162D02*
D03*
Y294602D02*
D03*
Y292043D02*
D03*
X-335780Y309957D02*
D03*
Y307398D02*
D03*
Y304838D02*
D03*
Y302279D02*
D03*
Y299721D02*
D03*
Y297162D02*
D03*
Y294602D02*
D03*
Y292043D02*
D03*
X-358220Y332957D02*
D03*
Y330398D02*
D03*
Y327838D02*
D03*
Y325279D02*
D03*
Y322721D02*
D03*
Y320162D02*
D03*
Y317602D02*
D03*
Y315043D02*
D03*
X-335780Y332957D02*
D03*
Y330398D02*
D03*
Y327838D02*
D03*
Y325279D02*
D03*
Y322721D02*
D03*
Y320162D02*
D03*
Y317602D02*
D03*
Y315043D02*
D03*
X-358220Y-106043D02*
D03*
Y-108602D02*
D03*
Y-111161D02*
D03*
Y-113720D02*
D03*
Y-116279D02*
D03*
Y-118838D02*
D03*
Y-121398D02*
D03*
Y-123957D02*
D03*
X-335779Y-106043D02*
D03*
Y-108602D02*
D03*
Y-111161D02*
D03*
Y-113720D02*
D03*
Y-116279D02*
D03*
Y-118838D02*
D03*
Y-121398D02*
D03*
Y-123957D02*
D03*
X-358520Y-128843D02*
D03*
Y-131402D02*
D03*
Y-133961D02*
D03*
Y-136520D02*
D03*
Y-139080D02*
D03*
Y-141639D02*
D03*
Y-144198D02*
D03*
Y-146757D02*
D03*
X-336079Y-128843D02*
D03*
Y-131402D02*
D03*
Y-133961D02*
D03*
Y-136520D02*
D03*
Y-139080D02*
D03*
Y-141639D02*
D03*
Y-144198D02*
D03*
Y-146757D02*
D03*
X-358441Y-152205D02*
D03*
Y-154764D02*
D03*
Y-157323D02*
D03*
Y-159882D02*
D03*
Y-162441D02*
D03*
Y-165000D02*
D03*
Y-167559D02*
D03*
Y-170118D02*
D03*
X-336000Y-152205D02*
D03*
Y-154764D02*
D03*
Y-157323D02*
D03*
Y-159882D02*
D03*
Y-162441D02*
D03*
Y-165000D02*
D03*
Y-167559D02*
D03*
Y-170118D02*
D03*
X-358220Y-175043D02*
D03*
Y-177602D02*
D03*
Y-180161D02*
D03*
Y-182720D02*
D03*
Y-185279D02*
D03*
Y-187838D02*
D03*
Y-190398D02*
D03*
Y-192957D02*
D03*
X-335779Y-175043D02*
D03*
Y-177602D02*
D03*
Y-180161D02*
D03*
Y-182720D02*
D03*
Y-185279D02*
D03*
Y-187838D02*
D03*
Y-190398D02*
D03*
Y-192957D02*
D03*
X-358220Y-198543D02*
D03*
Y-201102D02*
D03*
Y-203661D02*
D03*
Y-206220D02*
D03*
Y-208780D02*
D03*
Y-211339D02*
D03*
Y-213898D02*
D03*
Y-216457D02*
D03*
X-335779Y-198543D02*
D03*
Y-201102D02*
D03*
Y-203661D02*
D03*
Y-206220D02*
D03*
Y-208780D02*
D03*
Y-211339D02*
D03*
Y-213898D02*
D03*
Y-216457D02*
D03*
X-358220Y-222043D02*
D03*
Y-224602D02*
D03*
Y-227161D02*
D03*
Y-229720D02*
D03*
Y-232279D02*
D03*
Y-234838D02*
D03*
Y-237398D02*
D03*
Y-239957D02*
D03*
X-335779Y-222043D02*
D03*
Y-224602D02*
D03*
Y-227161D02*
D03*
Y-229720D02*
D03*
Y-232279D02*
D03*
Y-234838D02*
D03*
Y-237398D02*
D03*
Y-239957D02*
D03*
X-358220Y-245043D02*
D03*
Y-247602D02*
D03*
Y-250161D02*
D03*
Y-252720D02*
D03*
Y-255279D02*
D03*
Y-257838D02*
D03*
Y-260398D02*
D03*
Y-262957D02*
D03*
X-335779Y-245043D02*
D03*
Y-247602D02*
D03*
Y-250161D02*
D03*
Y-252720D02*
D03*
Y-255279D02*
D03*
Y-257838D02*
D03*
Y-260398D02*
D03*
Y-262957D02*
D03*
X-358220Y-268043D02*
D03*
Y-270602D02*
D03*
Y-273161D02*
D03*
Y-275720D02*
D03*
Y-278280D02*
D03*
Y-280839D02*
D03*
Y-283398D02*
D03*
Y-285957D02*
D03*
X-335780Y-268043D02*
D03*
Y-270602D02*
D03*
Y-273161D02*
D03*
Y-275720D02*
D03*
Y-278280D02*
D03*
Y-280839D02*
D03*
Y-283398D02*
D03*
Y-285957D02*
D03*
X-358220Y-291043D02*
D03*
Y-293602D02*
D03*
Y-296161D02*
D03*
Y-298720D02*
D03*
Y-301280D02*
D03*
Y-303839D02*
D03*
Y-306398D02*
D03*
Y-308957D02*
D03*
X-335780Y-291043D02*
D03*
Y-293602D02*
D03*
Y-296161D02*
D03*
Y-298720D02*
D03*
Y-301280D02*
D03*
Y-303839D02*
D03*
Y-306398D02*
D03*
Y-308957D02*
D03*
X-358220Y-314043D02*
D03*
Y-316602D02*
D03*
Y-319161D02*
D03*
Y-321720D02*
D03*
Y-324280D02*
D03*
Y-326839D02*
D03*
Y-329398D02*
D03*
Y-331957D02*
D03*
X-335779Y-314043D02*
D03*
Y-316602D02*
D03*
Y-319161D02*
D03*
Y-321720D02*
D03*
Y-324280D02*
D03*
Y-326839D02*
D03*
Y-329398D02*
D03*
Y-331957D02*
D03*
X-358220Y125957D02*
D03*
Y123398D02*
D03*
Y120839D02*
D03*
Y118280D02*
D03*
Y115720D02*
D03*
Y113161D02*
D03*
Y110602D02*
D03*
Y108043D02*
D03*
X-335779Y125957D02*
D03*
Y123398D02*
D03*
Y120839D02*
D03*
Y118280D02*
D03*
Y115720D02*
D03*
Y113161D02*
D03*
Y110602D02*
D03*
Y108043D02*
D03*
X-358221Y148957D02*
D03*
Y146398D02*
D03*
Y143839D02*
D03*
Y141280D02*
D03*
Y138720D02*
D03*
Y136161D02*
D03*
Y133602D02*
D03*
Y131043D02*
D03*
X-335780Y148957D02*
D03*
Y146398D02*
D03*
Y143839D02*
D03*
Y141280D02*
D03*
Y138720D02*
D03*
Y136161D02*
D03*
Y133602D02*
D03*
Y131043D02*
D03*
X-358220Y-60043D02*
D03*
Y-62602D02*
D03*
Y-65161D02*
D03*
Y-67720D02*
D03*
Y-70280D02*
D03*
Y-72839D02*
D03*
Y-75398D02*
D03*
Y-77957D02*
D03*
X-335779Y-60043D02*
D03*
Y-62602D02*
D03*
Y-65161D02*
D03*
Y-67720D02*
D03*
Y-70280D02*
D03*
Y-72839D02*
D03*
Y-75398D02*
D03*
Y-77957D02*
D03*
X-358220Y-83043D02*
D03*
Y-85602D02*
D03*
Y-88161D02*
D03*
Y-90720D02*
D03*
Y-93280D02*
D03*
Y-95839D02*
D03*
Y-98398D02*
D03*
Y-100957D02*
D03*
X-335779Y-83043D02*
D03*
Y-85602D02*
D03*
Y-88161D02*
D03*
Y-90720D02*
D03*
Y-93280D02*
D03*
Y-95839D02*
D03*
Y-98398D02*
D03*
Y-100957D02*
D03*
X358937Y-79957D02*
D03*
Y-77398D02*
D03*
Y-74839D02*
D03*
Y-72279D02*
D03*
Y-69720D02*
D03*
Y-67161D02*
D03*
Y-64602D02*
D03*
Y-62043D02*
D03*
X336496Y-79957D02*
D03*
Y-77398D02*
D03*
Y-74839D02*
D03*
Y-72279D02*
D03*
Y-69720D02*
D03*
Y-67161D02*
D03*
X336496Y-64602D02*
D03*
X336496Y-62043D02*
D03*
X358937Y-102957D02*
D03*
Y-100398D02*
D03*
Y-97839D02*
D03*
Y-95279D02*
D03*
Y-92720D02*
D03*
Y-90161D02*
D03*
Y-87602D02*
D03*
Y-85043D02*
D03*
X336496Y-102957D02*
D03*
Y-100398D02*
D03*
Y-97839D02*
D03*
Y-95279D02*
D03*
Y-92720D02*
D03*
Y-90161D02*
D03*
X336496Y-87602D02*
D03*
X336496Y-85043D02*
D03*
X358937Y-125957D02*
D03*
Y-123398D02*
D03*
Y-120839D02*
D03*
Y-118279D02*
D03*
Y-115720D02*
D03*
Y-113161D02*
D03*
Y-110602D02*
D03*
Y-108043D02*
D03*
X336496Y-125957D02*
D03*
Y-123398D02*
D03*
Y-120839D02*
D03*
Y-118279D02*
D03*
Y-115720D02*
D03*
Y-113161D02*
D03*
X336496Y-110602D02*
D03*
X336496Y-108043D02*
D03*
X358937Y-148957D02*
D03*
Y-146398D02*
D03*
Y-143839D02*
D03*
Y-141279D02*
D03*
Y-138720D02*
D03*
Y-136161D02*
D03*
Y-133602D02*
D03*
Y-131043D02*
D03*
X336496Y-148957D02*
D03*
Y-146398D02*
D03*
Y-143839D02*
D03*
Y-141279D02*
D03*
Y-138720D02*
D03*
Y-136161D02*
D03*
X336496Y-133602D02*
D03*
X336496Y-131043D02*
D03*
X358937Y-171957D02*
D03*
Y-169398D02*
D03*
Y-166839D02*
D03*
Y-164279D02*
D03*
Y-161720D02*
D03*
Y-159161D02*
D03*
Y-156602D02*
D03*
Y-154043D02*
D03*
X336496Y-171957D02*
D03*
Y-169398D02*
D03*
Y-166839D02*
D03*
Y-164279D02*
D03*
Y-161720D02*
D03*
Y-159161D02*
D03*
X336496Y-156602D02*
D03*
X336496Y-154043D02*
D03*
X358937Y-194957D02*
D03*
Y-192398D02*
D03*
Y-189839D02*
D03*
Y-187279D02*
D03*
Y-184720D02*
D03*
Y-182161D02*
D03*
Y-179602D02*
D03*
Y-177043D02*
D03*
X336496Y-194957D02*
D03*
Y-192398D02*
D03*
Y-189839D02*
D03*
Y-187279D02*
D03*
Y-184720D02*
D03*
Y-182161D02*
D03*
X336496Y-179602D02*
D03*
X336496Y-177043D02*
D03*
X358937Y-218122D02*
D03*
Y-215563D02*
D03*
Y-213004D02*
D03*
Y-210445D02*
D03*
Y-207886D02*
D03*
Y-205327D02*
D03*
Y-202768D02*
D03*
Y-200209D02*
D03*
X336496Y-218122D02*
D03*
Y-215563D02*
D03*
Y-213004D02*
D03*
Y-210445D02*
D03*
Y-207886D02*
D03*
Y-205327D02*
D03*
X336496Y-202768D02*
D03*
X336496Y-200209D02*
D03*
X358937Y-241185D02*
D03*
Y-238626D02*
D03*
Y-236067D02*
D03*
Y-233508D02*
D03*
Y-230949D02*
D03*
Y-228390D02*
D03*
Y-225831D02*
D03*
Y-223272D02*
D03*
X336496Y-241185D02*
D03*
Y-238626D02*
D03*
Y-236067D02*
D03*
Y-233508D02*
D03*
Y-230949D02*
D03*
Y-228390D02*
D03*
X336496Y-225831D02*
D03*
X336496Y-223272D02*
D03*
X358937Y-264122D02*
D03*
Y-261563D02*
D03*
Y-259004D02*
D03*
Y-256445D02*
D03*
Y-253886D02*
D03*
Y-251327D02*
D03*
Y-248768D02*
D03*
Y-246209D02*
D03*
X336496Y-264122D02*
D03*
Y-261563D02*
D03*
Y-259004D02*
D03*
Y-256445D02*
D03*
Y-253886D02*
D03*
Y-251327D02*
D03*
X336496Y-248768D02*
D03*
X336496Y-246209D02*
D03*
X358937Y-287185D02*
D03*
Y-284626D02*
D03*
Y-282067D02*
D03*
Y-279508D02*
D03*
Y-276949D02*
D03*
Y-274390D02*
D03*
Y-271831D02*
D03*
Y-269272D02*
D03*
X336496Y-287185D02*
D03*
Y-284626D02*
D03*
Y-282067D02*
D03*
Y-279508D02*
D03*
Y-276949D02*
D03*
Y-274390D02*
D03*
X336496Y-271831D02*
D03*
X336496Y-269272D02*
D03*
X358937Y-309957D02*
D03*
Y-307398D02*
D03*
Y-304839D02*
D03*
Y-302279D02*
D03*
Y-299720D02*
D03*
Y-297161D02*
D03*
Y-294602D02*
D03*
Y-292043D02*
D03*
X336496Y-309957D02*
D03*
Y-307398D02*
D03*
Y-304839D02*
D03*
Y-302279D02*
D03*
Y-299720D02*
D03*
Y-297161D02*
D03*
X336496Y-294602D02*
D03*
X336496Y-292043D02*
D03*
X358937Y-332957D02*
D03*
Y-330398D02*
D03*
Y-327839D02*
D03*
Y-325279D02*
D03*
Y-322720D02*
D03*
Y-320161D02*
D03*
Y-317602D02*
D03*
Y-315043D02*
D03*
X336496Y-332957D02*
D03*
Y-330398D02*
D03*
Y-327839D02*
D03*
Y-325279D02*
D03*
Y-322720D02*
D03*
Y-320161D02*
D03*
X336496Y-317602D02*
D03*
X336496Y-315043D02*
D03*
D31*
X331957Y359221D02*
D03*
X329398D02*
D03*
X326839D02*
D03*
X324280D02*
D03*
X321720D02*
D03*
X319161D02*
D03*
X316602D02*
D03*
X314043D02*
D03*
X331957Y336779D02*
D03*
X329398D02*
D03*
X326839D02*
D03*
X324280D02*
D03*
X321720D02*
D03*
X319161D02*
D03*
X316602D02*
D03*
X314043D02*
D03*
X193957Y359221D02*
D03*
X191398D02*
D03*
X188839D02*
D03*
X186279D02*
D03*
X183721D02*
D03*
X181161D02*
D03*
X178602D02*
D03*
X176043D02*
D03*
X193957Y336779D02*
D03*
X191398D02*
D03*
X188839D02*
D03*
X186279D02*
D03*
X183721D02*
D03*
X181161D02*
D03*
X178602D02*
D03*
X176043D02*
D03*
X216957Y359221D02*
D03*
X214398D02*
D03*
X211839D02*
D03*
X209279D02*
D03*
X206720D02*
D03*
X204162D02*
D03*
X201602D02*
D03*
X199043D02*
D03*
X216957Y336779D02*
D03*
X214398D02*
D03*
X211839D02*
D03*
X209279D02*
D03*
X206720D02*
D03*
X204162D02*
D03*
X201602D02*
D03*
X199043D02*
D03*
X239957Y359221D02*
D03*
X237398D02*
D03*
X234839D02*
D03*
X232280D02*
D03*
X229720D02*
D03*
X227161D02*
D03*
X224602D02*
D03*
X222043D02*
D03*
X239957Y336779D02*
D03*
X237398D02*
D03*
X234839D02*
D03*
X232280D02*
D03*
X229720D02*
D03*
X227161D02*
D03*
X224602D02*
D03*
X222043D02*
D03*
X262957Y359221D02*
D03*
X260398D02*
D03*
X257839D02*
D03*
X255279D02*
D03*
X252720D02*
D03*
X250162D02*
D03*
X247602D02*
D03*
X245043D02*
D03*
X262957Y336779D02*
D03*
X260398D02*
D03*
X257839D02*
D03*
X255279D02*
D03*
X252720D02*
D03*
X250162D02*
D03*
X247602D02*
D03*
X245043D02*
D03*
X285957Y359221D02*
D03*
X283398D02*
D03*
X280838D02*
D03*
X278279D02*
D03*
X275721D02*
D03*
X273162D02*
D03*
X270602D02*
D03*
X268043D02*
D03*
X285957Y336779D02*
D03*
X283398D02*
D03*
X280838D02*
D03*
X278279D02*
D03*
X275721D02*
D03*
X273162D02*
D03*
X270602D02*
D03*
X268043D02*
D03*
X308957Y359221D02*
D03*
X306398D02*
D03*
X303839D02*
D03*
X301280D02*
D03*
X298720D02*
D03*
X296161D02*
D03*
X293602D02*
D03*
X291043D02*
D03*
X308957Y336779D02*
D03*
X306398D02*
D03*
X303839D02*
D03*
X301280D02*
D03*
X298720D02*
D03*
X296161D02*
D03*
X293602D02*
D03*
X291043D02*
D03*
X101957Y359220D02*
D03*
X99398D02*
D03*
X96839D02*
D03*
X94280D02*
D03*
X91720D02*
D03*
X89161D02*
D03*
X86602D02*
D03*
X84043D02*
D03*
X101957Y336780D02*
D03*
X99398D02*
D03*
X96839D02*
D03*
X94280D02*
D03*
X91720D02*
D03*
X89161D02*
D03*
X86602D02*
D03*
X84043D02*
D03*
X124957Y359221D02*
D03*
X122398D02*
D03*
X119839D02*
D03*
X117280D02*
D03*
X114720D02*
D03*
X112161D02*
D03*
X109602D02*
D03*
X107043D02*
D03*
X124957Y336779D02*
D03*
X122398D02*
D03*
X119839D02*
D03*
X117280D02*
D03*
X114720D02*
D03*
X112161D02*
D03*
X109602D02*
D03*
X107043D02*
D03*
X147957Y359220D02*
D03*
X145398D02*
D03*
X142839D02*
D03*
X140280D02*
D03*
X137720D02*
D03*
X135161D02*
D03*
X132602D02*
D03*
X130043D02*
D03*
X147957Y336779D02*
D03*
X145398D02*
D03*
X142839D02*
D03*
X140280D02*
D03*
X137720D02*
D03*
X135161D02*
D03*
X132602D02*
D03*
X130043D02*
D03*
X170957Y359221D02*
D03*
X168398D02*
D03*
X165839D02*
D03*
X163279D02*
D03*
X160721D02*
D03*
X158161D02*
D03*
X155602D02*
D03*
X153043D02*
D03*
X170957Y336779D02*
D03*
X168398D02*
D03*
X165839D02*
D03*
X163279D02*
D03*
X160721D02*
D03*
X158161D02*
D03*
X155602D02*
D03*
X153043D02*
D03*
X-152043Y359221D02*
D03*
X-154602D02*
D03*
X-157161D02*
D03*
X-159720D02*
D03*
X-162280D02*
D03*
X-164839D02*
D03*
X-167398D02*
D03*
X-169957D02*
D03*
X-152043Y336779D02*
D03*
X-154602D02*
D03*
X-157161D02*
D03*
X-159720D02*
D03*
X-162280D02*
D03*
X-164839D02*
D03*
X-167398D02*
D03*
X-169957D02*
D03*
X-175043Y359221D02*
D03*
X-177602D02*
D03*
X-180161D02*
D03*
X-182720D02*
D03*
X-185280D02*
D03*
X-187838D02*
D03*
X-190398D02*
D03*
X-192957D02*
D03*
X-175043Y336779D02*
D03*
X-177602D02*
D03*
X-180161D02*
D03*
X-182720D02*
D03*
X-185280D02*
D03*
X-187838D02*
D03*
X-190398D02*
D03*
X-192957D02*
D03*
X-198543Y359221D02*
D03*
X-201102D02*
D03*
X-203661D02*
D03*
X-206220D02*
D03*
X-208780D02*
D03*
X-211339D02*
D03*
X-213898D02*
D03*
X-216457D02*
D03*
X-198543Y336779D02*
D03*
X-201102D02*
D03*
X-203661D02*
D03*
X-206220D02*
D03*
X-208780D02*
D03*
X-211339D02*
D03*
X-213898D02*
D03*
X-216457D02*
D03*
X-222043Y359221D02*
D03*
X-224602D02*
D03*
X-227161D02*
D03*
X-229720D02*
D03*
X-232280D02*
D03*
X-234839D02*
D03*
X-237398D02*
D03*
X-239957D02*
D03*
X-222043Y336779D02*
D03*
X-224602D02*
D03*
X-227161D02*
D03*
X-229720D02*
D03*
X-232280D02*
D03*
X-234839D02*
D03*
X-237398D02*
D03*
X-239957D02*
D03*
X-245043Y359221D02*
D03*
X-247602D02*
D03*
X-250162D02*
D03*
X-252720D02*
D03*
X-255279D02*
D03*
X-257839D02*
D03*
X-260398D02*
D03*
X-262957D02*
D03*
X-245043Y336779D02*
D03*
X-247602D02*
D03*
X-250162D02*
D03*
X-252720D02*
D03*
X-255279D02*
D03*
X-257839D02*
D03*
X-260398D02*
D03*
X-262957D02*
D03*
X-268043Y359221D02*
D03*
X-270602D02*
D03*
X-273161D02*
D03*
X-275720D02*
D03*
X-278280D02*
D03*
X-280839D02*
D03*
X-283398D02*
D03*
X-285957D02*
D03*
X-268043Y336779D02*
D03*
X-270602D02*
D03*
X-273161D02*
D03*
X-275720D02*
D03*
X-278280D02*
D03*
X-280839D02*
D03*
X-283398D02*
D03*
X-285957D02*
D03*
X-291043Y359221D02*
D03*
X-293602D02*
D03*
X-296161D02*
D03*
X-298720D02*
D03*
X-301280D02*
D03*
X-303839D02*
D03*
X-306398D02*
D03*
X-308957D02*
D03*
X-291043Y336779D02*
D03*
X-293602D02*
D03*
X-296161D02*
D03*
X-298720D02*
D03*
X-301280D02*
D03*
X-303839D02*
D03*
X-306398D02*
D03*
X-308957D02*
D03*
X-314043Y359220D02*
D03*
X-316602D02*
D03*
X-319162D02*
D03*
X-321721D02*
D03*
X-324279D02*
D03*
X-326838D02*
D03*
X-329398D02*
D03*
X-331957D02*
D03*
X-314043Y336780D02*
D03*
X-316602D02*
D03*
X-319162D02*
D03*
X-321721D02*
D03*
X-324279D02*
D03*
X-326838D02*
D03*
X-329398D02*
D03*
X-331957D02*
D03*
X-60043Y359220D02*
D03*
X-62602D02*
D03*
X-65161D02*
D03*
X-67720D02*
D03*
X-70280D02*
D03*
X-72839D02*
D03*
X-75398D02*
D03*
X-77957D02*
D03*
X-60043Y336780D02*
D03*
X-62602D02*
D03*
X-65161D02*
D03*
X-67720D02*
D03*
X-70280D02*
D03*
X-72839D02*
D03*
X-75398D02*
D03*
X-77957D02*
D03*
X-83043Y359221D02*
D03*
X-85602D02*
D03*
X-88161D02*
D03*
X-90720D02*
D03*
X-93280D02*
D03*
X-95839D02*
D03*
X-98398D02*
D03*
X-100957D02*
D03*
X-83043Y336779D02*
D03*
X-85602D02*
D03*
X-88161D02*
D03*
X-90720D02*
D03*
X-93280D02*
D03*
X-95839D02*
D03*
X-98398D02*
D03*
X-100957D02*
D03*
X-106043Y359220D02*
D03*
X-108602D02*
D03*
X-111161D02*
D03*
X-113721D02*
D03*
X-116279D02*
D03*
X-118839D02*
D03*
X-121398D02*
D03*
X-123957D02*
D03*
X-106043Y336779D02*
D03*
X-108602D02*
D03*
X-111161D02*
D03*
X-113721D02*
D03*
X-116279D02*
D03*
X-118839D02*
D03*
X-121398D02*
D03*
X-123957D02*
D03*
X-129043Y359221D02*
D03*
X-131602D02*
D03*
X-134161D02*
D03*
X-136721D02*
D03*
X-139279D02*
D03*
X-141839D02*
D03*
X-144398D02*
D03*
X-146957D02*
D03*
X-129043Y336779D02*
D03*
X-131602D02*
D03*
X-134161D02*
D03*
X-136721D02*
D03*
X-139279D02*
D03*
X-141839D02*
D03*
X-144398D02*
D03*
X-146957D02*
D03*
X-125236Y-359000D02*
D03*
X-122677D02*
D03*
X-120118D02*
D03*
X-117559D02*
D03*
X-115000D02*
D03*
X-112441D02*
D03*
X-109882D02*
D03*
X-107323D02*
D03*
X-125236Y-336559D02*
D03*
X-122677D02*
D03*
X-120118D02*
D03*
X-117559D02*
D03*
X-115000D02*
D03*
X-112441D02*
D03*
X-109882D02*
D03*
X-107323D02*
D03*
X-148118Y-359000D02*
D03*
X-145559D02*
D03*
X-143000D02*
D03*
X-140441D02*
D03*
X-137882D02*
D03*
X-135323D02*
D03*
X-132764D02*
D03*
X-130205D02*
D03*
X-148118Y-336559D02*
D03*
X-145559D02*
D03*
X-143000D02*
D03*
X-140441D02*
D03*
X-137882D02*
D03*
X-135323D02*
D03*
X-132764D02*
D03*
X-130205D02*
D03*
X-170795Y-359000D02*
D03*
X-168236D02*
D03*
X-165677D02*
D03*
X-163118D02*
D03*
X-160559D02*
D03*
X-158000D02*
D03*
X-155441D02*
D03*
X-152882D02*
D03*
X-170795Y-336559D02*
D03*
X-168236D02*
D03*
X-165677D02*
D03*
X-163118D02*
D03*
X-160559D02*
D03*
X-158000D02*
D03*
X-155441D02*
D03*
X-152882D02*
D03*
X-193957Y-359220D02*
D03*
X-191398D02*
D03*
X-188838D02*
D03*
X-186279D02*
D03*
X-183720D02*
D03*
X-181161D02*
D03*
X-178602D02*
D03*
X-176043D02*
D03*
X-193957Y-336779D02*
D03*
X-191398D02*
D03*
X-188838D02*
D03*
X-186279D02*
D03*
X-183720D02*
D03*
X-181161D02*
D03*
X-178602D02*
D03*
X-176043D02*
D03*
X-216957Y-359220D02*
D03*
X-214398D02*
D03*
X-211839D02*
D03*
X-209280D02*
D03*
X-206720D02*
D03*
X-204161D02*
D03*
X-201602D02*
D03*
X-199043D02*
D03*
X-216957Y-336779D02*
D03*
X-214398D02*
D03*
X-211839D02*
D03*
X-209280D02*
D03*
X-206720D02*
D03*
X-204161D02*
D03*
X-201602D02*
D03*
X-199043D02*
D03*
X-239957Y-359220D02*
D03*
X-237398D02*
D03*
X-234838D02*
D03*
X-232279D02*
D03*
X-229720D02*
D03*
X-227161D02*
D03*
X-224602D02*
D03*
X-222043D02*
D03*
X-239957Y-336779D02*
D03*
X-237398D02*
D03*
X-234838D02*
D03*
X-232279D02*
D03*
X-229720D02*
D03*
X-227161D02*
D03*
X-224602D02*
D03*
X-222043D02*
D03*
X-262957Y-359220D02*
D03*
X-260398D02*
D03*
X-257838D02*
D03*
X-255279D02*
D03*
X-252720D02*
D03*
X-250161D02*
D03*
X-247602D02*
D03*
X-245043D02*
D03*
X-262957Y-336779D02*
D03*
X-260398D02*
D03*
X-257838D02*
D03*
X-255279D02*
D03*
X-252720D02*
D03*
X-250161D02*
D03*
X-247602D02*
D03*
X-245043D02*
D03*
X-285957Y-359220D02*
D03*
X-283398D02*
D03*
X-280839D02*
D03*
X-278280D02*
D03*
X-275720D02*
D03*
X-273161D02*
D03*
X-270602D02*
D03*
X-268043D02*
D03*
X-285957Y-336780D02*
D03*
X-283398D02*
D03*
X-280839D02*
D03*
X-278280D02*
D03*
X-275720D02*
D03*
X-273161D02*
D03*
X-270602D02*
D03*
X-268043D02*
D03*
X-308957Y-359220D02*
D03*
X-306398D02*
D03*
X-303838D02*
D03*
X-301279D02*
D03*
X-298720D02*
D03*
X-296161D02*
D03*
X-293602D02*
D03*
X-291043D02*
D03*
X-308957Y-336780D02*
D03*
X-306398D02*
D03*
X-303838D02*
D03*
X-301279D02*
D03*
X-298720D02*
D03*
X-296161D02*
D03*
X-293602D02*
D03*
X-291043D02*
D03*
X-331957Y-359220D02*
D03*
X-329398D02*
D03*
X-326838D02*
D03*
X-324279D02*
D03*
X-321720D02*
D03*
X-319161D02*
D03*
X-316602D02*
D03*
X-314043D02*
D03*
X-331957Y-336779D02*
D03*
X-329398D02*
D03*
X-326838D02*
D03*
X-324279D02*
D03*
X-321720D02*
D03*
X-319161D02*
D03*
X-316602D02*
D03*
X-314043D02*
D03*
X106043Y-359220D02*
D03*
X108602D02*
D03*
X111162D02*
D03*
X113721D02*
D03*
X116280D02*
D03*
X118839D02*
D03*
X121398D02*
D03*
X123957D02*
D03*
X106043Y-336779D02*
D03*
X108602D02*
D03*
X111162D02*
D03*
X113721D02*
D03*
X116280D02*
D03*
X118839D02*
D03*
X121398D02*
D03*
X123957D02*
D03*
X128882Y-359441D02*
D03*
X131441D02*
D03*
X134000D02*
D03*
X136559D02*
D03*
X139118D02*
D03*
X141677D02*
D03*
X144236D02*
D03*
X146795D02*
D03*
X128882Y-337000D02*
D03*
X131441D02*
D03*
X134000D02*
D03*
X136559D02*
D03*
X139118D02*
D03*
X141677D02*
D03*
X144236D02*
D03*
X146795D02*
D03*
X152043Y-359220D02*
D03*
X154602D02*
D03*
X157161D02*
D03*
X159720D02*
D03*
X162280D02*
D03*
X164839D02*
D03*
X167398D02*
D03*
X169957D02*
D03*
X152043Y-336779D02*
D03*
X154602D02*
D03*
X157161D02*
D03*
X159720D02*
D03*
X162280D02*
D03*
X164839D02*
D03*
X167398D02*
D03*
X169957D02*
D03*
X175043Y-359220D02*
D03*
X177602D02*
D03*
X180161D02*
D03*
X182720D02*
D03*
X185280D02*
D03*
X187839D02*
D03*
X190398D02*
D03*
X192957D02*
D03*
X175043Y-336779D02*
D03*
X177602D02*
D03*
X180161D02*
D03*
X182720D02*
D03*
X185280D02*
D03*
X187839D02*
D03*
X190398D02*
D03*
X192957D02*
D03*
X198441Y-359000D02*
D03*
X201000D02*
D03*
X203559D02*
D03*
X206118D02*
D03*
X208677D02*
D03*
X211236D02*
D03*
X213795D02*
D03*
X216354D02*
D03*
X198441Y-336559D02*
D03*
X201000D02*
D03*
X203559D02*
D03*
X206118D02*
D03*
X208677D02*
D03*
X211236D02*
D03*
X213795D02*
D03*
X216354D02*
D03*
X222043Y-359220D02*
D03*
X224602D02*
D03*
X227161D02*
D03*
X229720D02*
D03*
X232280D02*
D03*
X234839D02*
D03*
X237398D02*
D03*
X239957D02*
D03*
X222043Y-336779D02*
D03*
X224602D02*
D03*
X227161D02*
D03*
X229720D02*
D03*
X232280D02*
D03*
X234839D02*
D03*
X237398D02*
D03*
X239957D02*
D03*
X245043Y-359220D02*
D03*
X247602D02*
D03*
X250161D02*
D03*
X252721D02*
D03*
X255280D02*
D03*
X257839D02*
D03*
X260398D02*
D03*
X262957D02*
D03*
X245043Y-336779D02*
D03*
X247602D02*
D03*
X250161D02*
D03*
X252721D02*
D03*
X255280D02*
D03*
X257839D02*
D03*
X260398D02*
D03*
X262957D02*
D03*
X268043Y-359220D02*
D03*
X270602D02*
D03*
X273162D02*
D03*
X275721D02*
D03*
X278280D02*
D03*
X280839D02*
D03*
X283398D02*
D03*
X285957D02*
D03*
X268043Y-336780D02*
D03*
X270602D02*
D03*
X273162D02*
D03*
X275721D02*
D03*
X278280D02*
D03*
X280839D02*
D03*
X283398D02*
D03*
X285957D02*
D03*
X291000Y-359441D02*
D03*
X293559D02*
D03*
X296118D02*
D03*
X298677D02*
D03*
X301236D02*
D03*
X303795D02*
D03*
X306354D02*
D03*
X308913D02*
D03*
X291000Y-337000D02*
D03*
X293559D02*
D03*
X296118D02*
D03*
X298677D02*
D03*
X301236D02*
D03*
X303795D02*
D03*
X306354D02*
D03*
X308913D02*
D03*
X314043Y-359220D02*
D03*
X316602D02*
D03*
X319162D02*
D03*
X321721D02*
D03*
X324280D02*
D03*
X326839D02*
D03*
X329398D02*
D03*
X331957D02*
D03*
X314043Y-336779D02*
D03*
X316602D02*
D03*
X319162D02*
D03*
X321721D02*
D03*
X324280D02*
D03*
X326839D02*
D03*
X329398D02*
D03*
X331957D02*
D03*
X-78957Y-359220D02*
D03*
X-76398D02*
D03*
X-73838D02*
D03*
X-71279D02*
D03*
X-68720D02*
D03*
X-66161D02*
D03*
X-63602D02*
D03*
X-61043D02*
D03*
X-78957Y-336779D02*
D03*
X-76398D02*
D03*
X-73838D02*
D03*
X-71279D02*
D03*
X-68720D02*
D03*
X-66161D02*
D03*
X-63602D02*
D03*
X-61043D02*
D03*
X-101957Y-359220D02*
D03*
X-99398D02*
D03*
X-96839D02*
D03*
X-94280D02*
D03*
X-91720D02*
D03*
X-89161D02*
D03*
X-86602D02*
D03*
X-84043D02*
D03*
X-101957Y-336779D02*
D03*
X-99398D02*
D03*
X-96839D02*
D03*
X-94280D02*
D03*
X-91720D02*
D03*
X-89161D02*
D03*
X-86602D02*
D03*
X-84043D02*
D03*
D32*
X370969Y209047D02*
D03*
Y211016D02*
D03*
Y212984D02*
D03*
Y214953D02*
D03*
X367032Y209047D02*
D03*
Y211016D02*
D03*
Y212984D02*
D03*
Y214953D02*
D03*
X370969Y199047D02*
D03*
Y201016D02*
D03*
Y202984D02*
D03*
Y204953D02*
D03*
X367032Y199047D02*
D03*
Y201016D02*
D03*
Y202984D02*
D03*
Y204953D02*
D03*
X370969Y233047D02*
D03*
Y235016D02*
D03*
Y236984D02*
D03*
Y238953D02*
D03*
X367032Y233047D02*
D03*
Y235016D02*
D03*
Y236984D02*
D03*
Y238953D02*
D03*
X370969Y223047D02*
D03*
Y225016D02*
D03*
Y226984D02*
D03*
Y228953D02*
D03*
X367032Y223047D02*
D03*
Y225016D02*
D03*
Y226984D02*
D03*
Y228953D02*
D03*
X370969Y256047D02*
D03*
Y258016D02*
D03*
Y259984D02*
D03*
Y261953D02*
D03*
X367032Y256047D02*
D03*
Y258016D02*
D03*
Y259984D02*
D03*
Y261953D02*
D03*
X370969Y246047D02*
D03*
Y248016D02*
D03*
Y249984D02*
D03*
Y251953D02*
D03*
X367032Y246047D02*
D03*
Y248016D02*
D03*
Y249984D02*
D03*
Y251953D02*
D03*
X370969Y279047D02*
D03*
Y281016D02*
D03*
Y282984D02*
D03*
Y284953D02*
D03*
X367032Y279047D02*
D03*
Y281016D02*
D03*
Y282984D02*
D03*
Y284953D02*
D03*
X370969Y269047D02*
D03*
Y271016D02*
D03*
Y272984D02*
D03*
Y274953D02*
D03*
X367032Y269047D02*
D03*
Y271016D02*
D03*
Y272984D02*
D03*
Y274953D02*
D03*
X370969Y302047D02*
D03*
Y304016D02*
D03*
Y305984D02*
D03*
Y307953D02*
D03*
X367032Y302047D02*
D03*
Y304016D02*
D03*
Y305984D02*
D03*
Y307953D02*
D03*
X370969Y292047D02*
D03*
Y294016D02*
D03*
Y295984D02*
D03*
Y297953D02*
D03*
X367032Y292047D02*
D03*
Y294016D02*
D03*
Y295984D02*
D03*
Y297953D02*
D03*
X370969Y325047D02*
D03*
Y327016D02*
D03*
Y328984D02*
D03*
Y330953D02*
D03*
X367032Y325047D02*
D03*
Y327016D02*
D03*
Y328984D02*
D03*
Y330953D02*
D03*
X371000Y315063D02*
D03*
Y317031D02*
D03*
Y319000D02*
D03*
Y320968D02*
D03*
X367063Y315063D02*
D03*
Y317031D02*
D03*
Y319000D02*
D03*
Y320968D02*
D03*
X371000Y94094D02*
D03*
Y96063D02*
D03*
Y98031D02*
D03*
Y100000D02*
D03*
X367063Y94094D02*
D03*
Y96063D02*
D03*
Y98031D02*
D03*
Y100000D02*
D03*
X371000Y84032D02*
D03*
Y86000D02*
D03*
Y87969D02*
D03*
Y89937D02*
D03*
X367063Y84032D02*
D03*
Y86000D02*
D03*
Y87969D02*
D03*
Y89937D02*
D03*
X370969Y117047D02*
D03*
Y119016D02*
D03*
Y120984D02*
D03*
Y122953D02*
D03*
X367032Y117047D02*
D03*
Y119016D02*
D03*
Y120984D02*
D03*
Y122953D02*
D03*
X370969Y107047D02*
D03*
Y109016D02*
D03*
Y110984D02*
D03*
Y112953D02*
D03*
X367032Y107047D02*
D03*
Y109016D02*
D03*
Y110984D02*
D03*
Y112953D02*
D03*
X370937Y140000D02*
D03*
Y141968D02*
D03*
Y143937D02*
D03*
Y145905D02*
D03*
X367000Y140000D02*
D03*
Y141968D02*
D03*
Y143937D02*
D03*
Y145905D02*
D03*
X370969Y130047D02*
D03*
Y132016D02*
D03*
Y133984D02*
D03*
Y135953D02*
D03*
X367032Y130047D02*
D03*
Y132016D02*
D03*
Y133984D02*
D03*
Y135953D02*
D03*
X370937Y163000D02*
D03*
Y164968D02*
D03*
Y166937D02*
D03*
Y168905D02*
D03*
X367000Y163000D02*
D03*
Y164968D02*
D03*
Y166937D02*
D03*
Y168905D02*
D03*
X370969Y153047D02*
D03*
Y155016D02*
D03*
Y156984D02*
D03*
Y158953D02*
D03*
X367032Y153047D02*
D03*
Y155016D02*
D03*
Y156984D02*
D03*
Y158953D02*
D03*
X370969Y186047D02*
D03*
Y188016D02*
D03*
Y189984D02*
D03*
Y191953D02*
D03*
X367032Y186047D02*
D03*
Y188016D02*
D03*
Y189984D02*
D03*
Y191953D02*
D03*
X370937Y176095D02*
D03*
Y178063D02*
D03*
Y180032D02*
D03*
Y182000D02*
D03*
X367000Y176095D02*
D03*
Y178063D02*
D03*
Y180032D02*
D03*
Y182000D02*
D03*
X-370969Y160953D02*
D03*
Y158984D02*
D03*
Y157016D02*
D03*
Y155047D02*
D03*
X-367032Y160953D02*
D03*
Y158984D02*
D03*
Y157016D02*
D03*
Y155047D02*
D03*
X-370969Y170953D02*
D03*
Y168984D02*
D03*
Y167016D02*
D03*
Y165047D02*
D03*
X-367032Y170953D02*
D03*
Y168984D02*
D03*
Y167016D02*
D03*
Y165047D02*
D03*
X-371000Y183905D02*
D03*
Y181937D02*
D03*
Y179968D02*
D03*
Y178000D02*
D03*
X-367063Y183905D02*
D03*
Y181937D02*
D03*
Y179968D02*
D03*
Y178000D02*
D03*
X-370969Y193953D02*
D03*
Y191984D02*
D03*
Y190016D02*
D03*
Y188047D02*
D03*
X-367032Y193953D02*
D03*
Y191984D02*
D03*
Y190016D02*
D03*
Y188047D02*
D03*
X-370969Y206953D02*
D03*
Y204984D02*
D03*
Y203016D02*
D03*
Y201047D02*
D03*
X-367032Y206953D02*
D03*
Y204984D02*
D03*
Y203016D02*
D03*
Y201047D02*
D03*
X-371000Y216906D02*
D03*
Y214937D02*
D03*
Y212969D02*
D03*
Y211000D02*
D03*
X-367063Y216906D02*
D03*
Y214937D02*
D03*
Y212969D02*
D03*
Y211000D02*
D03*
X-370969Y229953D02*
D03*
Y227984D02*
D03*
Y226016D02*
D03*
Y224047D02*
D03*
X-367032Y229953D02*
D03*
Y227984D02*
D03*
Y226016D02*
D03*
Y224047D02*
D03*
X-370969Y239953D02*
D03*
Y237984D02*
D03*
Y236016D02*
D03*
Y234047D02*
D03*
X-367032Y239953D02*
D03*
Y237984D02*
D03*
Y236016D02*
D03*
Y234047D02*
D03*
X-371000Y252937D02*
D03*
Y250968D02*
D03*
Y249000D02*
D03*
Y247031D02*
D03*
X-367063Y252937D02*
D03*
Y250968D02*
D03*
Y249000D02*
D03*
Y247031D02*
D03*
X-370937Y262937D02*
D03*
Y260969D02*
D03*
Y259000D02*
D03*
Y257032D02*
D03*
X-367000Y262937D02*
D03*
Y260969D02*
D03*
Y259000D02*
D03*
Y257032D02*
D03*
X-370969Y275953D02*
D03*
Y273984D02*
D03*
Y272016D02*
D03*
Y270047D02*
D03*
X-367032Y275953D02*
D03*
Y273984D02*
D03*
Y272016D02*
D03*
Y270047D02*
D03*
X-370969Y285953D02*
D03*
Y283984D02*
D03*
Y282016D02*
D03*
Y280047D02*
D03*
X-367032Y285953D02*
D03*
Y283984D02*
D03*
Y282016D02*
D03*
Y280047D02*
D03*
X-370968Y298953D02*
D03*
Y296984D02*
D03*
Y295016D02*
D03*
Y293047D02*
D03*
X-367031Y298953D02*
D03*
Y296984D02*
D03*
Y295016D02*
D03*
Y293047D02*
D03*
X-370969Y308953D02*
D03*
Y306984D02*
D03*
Y305016D02*
D03*
Y303047D02*
D03*
X-367032Y308953D02*
D03*
Y306984D02*
D03*
Y305016D02*
D03*
Y303047D02*
D03*
X-370969Y321953D02*
D03*
Y319984D02*
D03*
Y318016D02*
D03*
Y316047D02*
D03*
X-367032Y321953D02*
D03*
Y319984D02*
D03*
Y318016D02*
D03*
Y316047D02*
D03*
X-371000Y331906D02*
D03*
Y329937D02*
D03*
Y327969D02*
D03*
Y326000D02*
D03*
X-367063Y331906D02*
D03*
Y329937D02*
D03*
Y327969D02*
D03*
Y326000D02*
D03*
X-370968Y-117047D02*
D03*
Y-119016D02*
D03*
Y-120984D02*
D03*
Y-122953D02*
D03*
X-367031Y-117047D02*
D03*
Y-119016D02*
D03*
Y-120984D02*
D03*
Y-122953D02*
D03*
X-371000Y-107094D02*
D03*
Y-109063D02*
D03*
Y-111031D02*
D03*
Y-113000D02*
D03*
X-367063Y-107094D02*
D03*
Y-109063D02*
D03*
Y-111031D02*
D03*
Y-113000D02*
D03*
X-370969Y-140047D02*
D03*
Y-142016D02*
D03*
Y-143984D02*
D03*
Y-145953D02*
D03*
X-367032Y-140047D02*
D03*
Y-142016D02*
D03*
Y-143984D02*
D03*
Y-145953D02*
D03*
X-370968Y-130047D02*
D03*
Y-132016D02*
D03*
Y-133984D02*
D03*
Y-135953D02*
D03*
X-367031Y-130047D02*
D03*
Y-132016D02*
D03*
Y-133984D02*
D03*
Y-135953D02*
D03*
X-370937Y-163095D02*
D03*
Y-165063D02*
D03*
Y-167032D02*
D03*
Y-169000D02*
D03*
X-367000Y-163095D02*
D03*
Y-165063D02*
D03*
Y-167032D02*
D03*
Y-169000D02*
D03*
X-370969Y-153047D02*
D03*
Y-155016D02*
D03*
Y-156984D02*
D03*
Y-158953D02*
D03*
X-367032Y-153047D02*
D03*
Y-155016D02*
D03*
Y-156984D02*
D03*
Y-158953D02*
D03*
X-370937Y-186000D02*
D03*
Y-187968D02*
D03*
Y-189937D02*
D03*
Y-191905D02*
D03*
X-367000Y-186000D02*
D03*
Y-187968D02*
D03*
Y-189937D02*
D03*
Y-191905D02*
D03*
X-370968Y-176047D02*
D03*
Y-178016D02*
D03*
Y-179984D02*
D03*
Y-181953D02*
D03*
X-367031Y-176047D02*
D03*
Y-178016D02*
D03*
Y-179984D02*
D03*
Y-181953D02*
D03*
X-370937Y-210063D02*
D03*
Y-212031D02*
D03*
Y-214000D02*
D03*
Y-215968D02*
D03*
X-367000Y-210063D02*
D03*
Y-212031D02*
D03*
Y-214000D02*
D03*
Y-215968D02*
D03*
X-370937Y-200063D02*
D03*
Y-202031D02*
D03*
Y-204000D02*
D03*
Y-205968D02*
D03*
X-367000Y-200063D02*
D03*
Y-202031D02*
D03*
Y-204000D02*
D03*
Y-205968D02*
D03*
X-371000Y-233063D02*
D03*
Y-235031D02*
D03*
Y-237000D02*
D03*
Y-238968D02*
D03*
X-367063Y-233063D02*
D03*
Y-235031D02*
D03*
Y-237000D02*
D03*
Y-238968D02*
D03*
X-370969Y-223047D02*
D03*
Y-225016D02*
D03*
Y-226984D02*
D03*
Y-228953D02*
D03*
X-367032Y-223047D02*
D03*
Y-225016D02*
D03*
Y-226984D02*
D03*
Y-228953D02*
D03*
X-370968Y-256047D02*
D03*
Y-258016D02*
D03*
Y-259984D02*
D03*
Y-261953D02*
D03*
X-367031Y-256047D02*
D03*
Y-258016D02*
D03*
Y-259984D02*
D03*
Y-261953D02*
D03*
X-370968Y-246047D02*
D03*
Y-248016D02*
D03*
Y-249984D02*
D03*
Y-251953D02*
D03*
X-367031Y-246047D02*
D03*
Y-248016D02*
D03*
Y-249984D02*
D03*
Y-251953D02*
D03*
X-371000Y-279031D02*
D03*
Y-281000D02*
D03*
Y-282968D02*
D03*
Y-284937D02*
D03*
X-367063Y-279031D02*
D03*
Y-281000D02*
D03*
Y-282968D02*
D03*
Y-284937D02*
D03*
X-371000Y-269094D02*
D03*
Y-271063D02*
D03*
Y-273031D02*
D03*
Y-275000D02*
D03*
X-367063Y-269094D02*
D03*
Y-271063D02*
D03*
Y-273031D02*
D03*
Y-275000D02*
D03*
X-371000Y-302094D02*
D03*
Y-304063D02*
D03*
Y-306031D02*
D03*
Y-308000D02*
D03*
X-367063Y-302094D02*
D03*
Y-304063D02*
D03*
Y-306031D02*
D03*
Y-308000D02*
D03*
X-370968Y-292047D02*
D03*
Y-294016D02*
D03*
Y-295984D02*
D03*
Y-297953D02*
D03*
X-367031Y-292047D02*
D03*
Y-294016D02*
D03*
Y-295984D02*
D03*
Y-297953D02*
D03*
X-370968Y-325047D02*
D03*
Y-327016D02*
D03*
Y-328984D02*
D03*
Y-330953D02*
D03*
X-367031Y-325047D02*
D03*
Y-327016D02*
D03*
Y-328984D02*
D03*
Y-330953D02*
D03*
X-371000Y-315031D02*
D03*
Y-317000D02*
D03*
Y-318968D02*
D03*
Y-320937D02*
D03*
X-367063Y-315031D02*
D03*
Y-317000D02*
D03*
Y-318968D02*
D03*
Y-320937D02*
D03*
X-371000Y114968D02*
D03*
Y113000D02*
D03*
Y111031D02*
D03*
Y109063D02*
D03*
X-367063Y114968D02*
D03*
Y113000D02*
D03*
Y111031D02*
D03*
Y109063D02*
D03*
X-370937Y124937D02*
D03*
Y122969D02*
D03*
Y121000D02*
D03*
Y119032D02*
D03*
X-367000Y124937D02*
D03*
Y122969D02*
D03*
Y121000D02*
D03*
Y119032D02*
D03*
X-370937Y137937D02*
D03*
Y135969D02*
D03*
Y134000D02*
D03*
Y132032D02*
D03*
X-367000Y137937D02*
D03*
Y135969D02*
D03*
Y134000D02*
D03*
Y132032D02*
D03*
X-370969Y147953D02*
D03*
Y145984D02*
D03*
Y144016D02*
D03*
Y142047D02*
D03*
X-367032Y147953D02*
D03*
Y145984D02*
D03*
Y144016D02*
D03*
Y142047D02*
D03*
X-370969Y-71047D02*
D03*
Y-73016D02*
D03*
Y-74984D02*
D03*
Y-76953D02*
D03*
X-367032Y-71047D02*
D03*
Y-73016D02*
D03*
Y-74984D02*
D03*
Y-76953D02*
D03*
X-371000Y-61095D02*
D03*
Y-63063D02*
D03*
Y-65032D02*
D03*
Y-67000D02*
D03*
X-367063Y-61095D02*
D03*
Y-63063D02*
D03*
Y-65032D02*
D03*
Y-67000D02*
D03*
X-370969Y-94047D02*
D03*
Y-96016D02*
D03*
Y-97984D02*
D03*
Y-99953D02*
D03*
X-367032Y-94047D02*
D03*
Y-96016D02*
D03*
Y-97984D02*
D03*
Y-99953D02*
D03*
X-370968Y-84047D02*
D03*
Y-86016D02*
D03*
Y-87984D02*
D03*
Y-89953D02*
D03*
X-367031Y-84047D02*
D03*
Y-86016D02*
D03*
Y-87984D02*
D03*
Y-89953D02*
D03*
X371654Y-69000D02*
D03*
Y-67031D02*
D03*
Y-65063D02*
D03*
Y-63094D02*
D03*
X367717Y-69000D02*
D03*
Y-67031D02*
D03*
Y-65063D02*
D03*
Y-63094D02*
D03*
X371717Y-79000D02*
D03*
Y-77031D02*
D03*
Y-75063D02*
D03*
Y-73094D02*
D03*
X367780Y-79000D02*
D03*
Y-77031D02*
D03*
Y-75063D02*
D03*
Y-73094D02*
D03*
X371654Y-91937D02*
D03*
Y-89968D02*
D03*
Y-88000D02*
D03*
Y-86031D02*
D03*
X367717Y-91937D02*
D03*
Y-89968D02*
D03*
Y-88000D02*
D03*
Y-86031D02*
D03*
X371654Y-101905D02*
D03*
Y-99937D02*
D03*
Y-97968D02*
D03*
Y-96000D02*
D03*
X367717Y-101905D02*
D03*
Y-99937D02*
D03*
Y-97968D02*
D03*
Y-96000D02*
D03*
X371685Y-114953D02*
D03*
Y-112984D02*
D03*
Y-111016D02*
D03*
Y-109047D02*
D03*
X367748Y-114953D02*
D03*
Y-112984D02*
D03*
Y-111016D02*
D03*
Y-109047D02*
D03*
X371685Y-124953D02*
D03*
Y-122984D02*
D03*
Y-121016D02*
D03*
Y-119047D02*
D03*
X367748Y-124953D02*
D03*
Y-122984D02*
D03*
Y-121016D02*
D03*
Y-119047D02*
D03*
X371654Y-137937D02*
D03*
Y-135968D02*
D03*
Y-134000D02*
D03*
Y-132031D02*
D03*
X367717Y-137937D02*
D03*
Y-135968D02*
D03*
Y-134000D02*
D03*
Y-132031D02*
D03*
X371685Y-147953D02*
D03*
Y-145984D02*
D03*
Y-144016D02*
D03*
Y-142047D02*
D03*
X367748Y-147953D02*
D03*
Y-145984D02*
D03*
Y-144016D02*
D03*
Y-142047D02*
D03*
X371685Y-160953D02*
D03*
Y-158984D02*
D03*
Y-157016D02*
D03*
Y-155047D02*
D03*
X367748Y-160953D02*
D03*
Y-158984D02*
D03*
Y-157016D02*
D03*
Y-155047D02*
D03*
X371685Y-170953D02*
D03*
Y-168984D02*
D03*
Y-167016D02*
D03*
Y-165047D02*
D03*
X367748Y-170953D02*
D03*
Y-168984D02*
D03*
Y-167016D02*
D03*
Y-165047D02*
D03*
X371717Y-183968D02*
D03*
Y-182000D02*
D03*
Y-180031D02*
D03*
Y-178063D02*
D03*
X367780Y-183968D02*
D03*
Y-182000D02*
D03*
Y-180031D02*
D03*
Y-178063D02*
D03*
X371654Y-193937D02*
D03*
Y-191968D02*
D03*
Y-190000D02*
D03*
Y-188031D02*
D03*
X367717Y-193937D02*
D03*
Y-191968D02*
D03*
Y-190000D02*
D03*
Y-188031D02*
D03*
X371654Y-206134D02*
D03*
Y-204165D02*
D03*
Y-202197D02*
D03*
Y-200228D02*
D03*
X367717Y-206134D02*
D03*
Y-204165D02*
D03*
Y-202197D02*
D03*
Y-200228D02*
D03*
X371685Y-216118D02*
D03*
Y-214150D02*
D03*
Y-212181D02*
D03*
Y-210213D02*
D03*
X367748Y-216118D02*
D03*
Y-214150D02*
D03*
Y-212181D02*
D03*
Y-210213D02*
D03*
X371654Y-230197D02*
D03*
Y-228228D02*
D03*
Y-226260D02*
D03*
Y-224291D02*
D03*
X367717Y-230197D02*
D03*
Y-228228D02*
D03*
Y-226260D02*
D03*
Y-224291D02*
D03*
X371685Y-240181D02*
D03*
Y-238213D02*
D03*
Y-236244D02*
D03*
Y-234276D02*
D03*
X367748Y-240181D02*
D03*
Y-238213D02*
D03*
Y-236244D02*
D03*
Y-234276D02*
D03*
X371654Y-253102D02*
D03*
Y-251134D02*
D03*
Y-249165D02*
D03*
Y-247197D02*
D03*
X367717Y-253102D02*
D03*
Y-251134D02*
D03*
Y-249165D02*
D03*
Y-247197D02*
D03*
X371654Y-263134D02*
D03*
Y-261165D02*
D03*
Y-259197D02*
D03*
Y-257228D02*
D03*
X367717Y-263134D02*
D03*
Y-261165D02*
D03*
Y-259197D02*
D03*
Y-257228D02*
D03*
X371685Y-276181D02*
D03*
Y-274213D02*
D03*
Y-272244D02*
D03*
Y-270276D02*
D03*
X367748Y-276181D02*
D03*
Y-274213D02*
D03*
Y-272244D02*
D03*
Y-270276D02*
D03*
X371685Y-286181D02*
D03*
Y-284213D02*
D03*
Y-282244D02*
D03*
Y-280276D02*
D03*
X367748Y-286181D02*
D03*
Y-284213D02*
D03*
Y-282244D02*
D03*
Y-280276D02*
D03*
X371654Y-298937D02*
D03*
Y-296968D02*
D03*
Y-295000D02*
D03*
Y-293031D02*
D03*
X367717Y-298937D02*
D03*
Y-296968D02*
D03*
Y-295000D02*
D03*
Y-293031D02*
D03*
X371654Y-308968D02*
D03*
Y-307000D02*
D03*
Y-305031D02*
D03*
Y-303063D02*
D03*
X367717Y-308968D02*
D03*
Y-307000D02*
D03*
Y-305031D02*
D03*
Y-303063D02*
D03*
X371654Y-321905D02*
D03*
Y-319937D02*
D03*
Y-317968D02*
D03*
Y-316000D02*
D03*
X367717Y-321905D02*
D03*
Y-319937D02*
D03*
Y-317968D02*
D03*
Y-316000D02*
D03*
X371717Y-332000D02*
D03*
Y-330031D02*
D03*
Y-328063D02*
D03*
Y-326094D02*
D03*
X367780Y-332000D02*
D03*
Y-330031D02*
D03*
Y-328063D02*
D03*
Y-326094D02*
D03*
D33*
X-79740Y394000D02*
D03*
X-72260D02*
D03*
X314260D02*
D03*
X321740D02*
D03*
X79740Y-394000D02*
D03*
X72260D02*
D03*
X-314260D02*
D03*
X-321740D02*
D03*
D34*
X394000Y-313520D02*
D03*
Y-321000D02*
D03*
X394000Y79740D02*
D03*
Y72260D02*
D03*
X-394000Y-79740D02*
D03*
Y-72260D02*
D03*
Y313520D02*
D03*
Y321000D02*
D03*
D35*
X312992Y66929D02*
D03*
Y35433D02*
D03*
X267717Y66929D02*
D03*
Y35433D02*
D03*
X222441Y66929D02*
D03*
Y35433D02*
D03*
X177165Y66929D02*
D03*
Y35433D02*
D03*
X-23622Y-389764D02*
D03*
Y-358268D02*
D03*
X23622Y-389764D02*
D03*
Y-358268D02*
D03*
X-23622Y389764D02*
D03*
Y358268D02*
D03*
X23622Y389764D02*
D03*
Y358268D02*
D03*
X72835Y261811D02*
D03*
Y293307D02*
D03*
X118110Y261811D02*
D03*
Y293307D02*
D03*
D36*
X192913Y155512D02*
D03*
X161417D02*
D03*
X192913Y112205D02*
D03*
X161417D02*
D03*
X-389764Y-23622D02*
D03*
X-358268D02*
D03*
X-389764Y23622D02*
D03*
X-358268D02*
D03*
D37*
X174213Y236221D02*
D03*
X294291D02*
D03*
D38*
X-377953Y345079D02*
D03*
Y355709D02*
D03*
X377953Y-345079D02*
D03*
Y-355709D02*
D03*
D43*
X408386Y-413386D02*
G03*
X413386Y-408386I0J5000D01*
G01*
Y408386D02*
G03*
X408386Y413386I-5000J0D01*
G01*
X-408386D02*
G03*
X-413386Y408386I0J-5000D01*
G01*
Y-408386D02*
G03*
X-408386Y-413386I5000J0D01*
G01*
X408386D01*
X-413386Y-408386D02*
Y408386D01*
X-408386Y413386D02*
X408386D01*
X413386Y-408386D02*
Y408386D01*
X86642Y115372D02*
Y108812D01*
X87954Y107500D01*
X90578D01*
X91889Y108812D01*
Y115372D01*
X99761Y107500D02*
X94513D01*
X99761Y112748D01*
Y114060D01*
X98449Y115372D01*
X95825D01*
X94513Y114060D01*
X107632Y115372D02*
X102385D01*
Y111436D01*
X105008Y112748D01*
X106320D01*
X107632Y111436D01*
Y108812D01*
X106320Y107500D01*
X103697D01*
X102385Y108812D01*
D46*
X81500Y196999D02*
Y193667D01*
X82166Y193000D01*
X83499D01*
X84166Y193667D01*
Y196999D01*
X88165Y193000D02*
X85499D01*
X88165Y195666D01*
Y196332D01*
X87498Y196999D01*
X86165D01*
X85499Y196332D01*
X92163Y196999D02*
X90830Y196332D01*
X89497Y194999D01*
Y193667D01*
X90164Y193000D01*
X91497D01*
X92163Y193667D01*
Y194333D01*
X91497Y194999D01*
X89497D01*
D47*
X-289370Y-297244D02*
D03*
X88583D02*
D03*
Y-72835D02*
D03*
X-289370D02*
D03*
X163386Y295276D02*
D03*
Y-35433D02*
D03*
X-289370D02*
D03*
Y295276D02*
D03*
X-393701Y-393701D02*
D03*
X393701D02*
D03*
X-393701Y393701D02*
D03*
X393701D02*
D03*
D48*
X362205Y-12795D02*
D03*
Y12795D02*
D03*
D49*
X393701Y-364331D02*
D03*
Y-354331D02*
D03*
X130000Y230000D02*
D03*
X120000D02*
D03*
X364331Y393701D02*
D03*
X354331D02*
D03*
X-364331Y-393701D02*
D03*
X-354331D02*
D03*
X-393701Y364331D02*
D03*
Y354331D02*
D03*
D50*
X393701Y-344331D02*
D03*
X-393701Y344331D02*
D03*
D51*
X110000Y230000D02*
D03*
X344331Y393701D02*
D03*
X-344331Y-393701D02*
D03*
D52*
X287402Y87402D02*
D03*
Y176378D02*
D03*
X240158Y87402D02*
D03*
Y176378D02*
D03*
M02*
