M48
;Layer_Color=9474304
;FILE_FORMAT=2:5
INCH,TZ
;TYPE=PLATED
T1F00S00C0.01181
T2F00S00C0.01575
T3F00S00C0.03543
T4F00S00C0.05118
T5F00S00C0.12598
T6F00S00C0.17717
%
T01
X-365378Y-388748
X-345693
X-321740Y-394000
X-314200Y-394700
Y-399100
X-314400Y-389900
X-309350Y-386024
X-304500Y-386000
X-299350Y-386024
X-294500Y-386000
X-289350Y-386024
X-284350
X-279350
X-274500Y-386000
X-269350Y-386024
X-264350
X-259350
X-254350
X-249350
X-244350
X-239350
X-234350
X-229350
X-224500Y-386000
X-219350Y-386024
X-214350
X-209350
X-204350
X-199350
X-194000Y-383000
X-189500
X-184500Y-384500
X-179350Y-386024
X-174350
X-169350
X-164350
X-159350
X-149500Y-386000
X-144350Y-386024
X-139350
X-134350
X-129350
X-124350
X-119350
Y-401378
X-114350
X-109500Y-400000
X-104500Y-399500
X-99500Y-399000
X-94000Y-398500
X-89500Y-397500
X-87200Y-408000
X-89500Y-384500
X-94500Y-382500
X-124350Y-401378
X-129350
X-134350
X-139350
X-144350
X-159350
X-164350
X-169350
X-174500Y-399500
X-199350Y-401378
X-204500Y-401500
X-239350Y-401378
X-79200Y-403800
X-67800Y-401300
X-65975Y-399475
X-64600Y-398100
X-63200Y-396700
X-80400Y-387600
X-79500Y-384600
X-32700Y-386779
Y-394654
Y-402528
X-24826
X-16952
Y-394654
Y-386779
X-9078
Y-394654
Y-402528
X-1204
Y-394654
Y-386779
X6670
Y-394654
Y-402528
X14544
Y-394654
Y-386779
X30292
Y-394654
Y-402528
X22418
X38166
Y-394654
Y-386779
X46040
Y-394654
Y-402528
X53914
Y-394654
Y-386779
X61788
Y-394654
Y-402528
X69662
Y-386779
X79350Y-386024
X79300Y-391100
X79100Y-395700
X79200Y-400000
X89000Y-386000
X94500
X99350Y-386024
X104350
X109350
X114350
X119350
X124350
Y-401378
X119350
X114472Y-401500
X109350Y-401378
X104350
X129350
X134350
X139500Y-401528
X144350Y-401378
X149350
X154350
X159350
X164350
X169228Y-401500
X174350Y-401378
X179500Y-401500
X184350Y-401378
X189350
X194472Y-401500
X199350Y-401378
X204350
X209350
X214000Y-401500
X219350Y-401378
X224350
Y-386024
X204500Y-386000
X199350Y-386024
X194350
X189350
X184350
X164175Y-386012
X159500Y-386000
X154350Y-386024
X149350
X144350
X229350
X234374Y-386000
X239350Y-386024
X244350
X249350
X264350
X269350
X274350
X279350
X284350
X289500Y-386000
X294350Y-386024
X299350
Y-401378
X294350
X289350
X284350
X279350
X274350
X269350
X264350
X259350
X254350
X249350
X244472Y-401500
X239228
X234228
X229350Y-401378
X314350
X314800Y-396000
X392496Y-369063
Y-359221
Y-339535
X394000Y-321000
X401378Y-309350
Y-304350
Y-299350
Y-294350
Y-289350
Y-284350
Y-279350
Y-274350
Y-269350
Y-264350
Y-259350
Y-254350
Y-249350
Y-244350
Y-239350
Y-234350
Y-229350
X401575Y-224409
X386024Y-229350
Y-234350
X385827Y-239370
X386024Y-244350
Y-259350
Y-264350
Y-269350
Y-274350
Y-279350
Y-284350
X376772Y-268110
Y-262598
Y-227953
Y-224016
X350941Y-233166
X331000Y-233400
X324000Y-233000
X320000Y-224000
Y-246000
X313756Y-241110
Y-250953
Y-260795
X303913
X294071
Y-270638
X284228
Y-280480
X274386
X264543
Y-290323
X274386
X284228
X294071
X303913
Y-280480
Y-270638
X313756
X320000Y-270000
X324000Y-279000
X331500Y-279400
X313756Y-280480
Y-290323
X320000Y-292000
X324000Y-301000
X331600Y-302200
X350941Y-304819
Y-315055
Y-325292
X345100Y-338700
X342400Y-337800
X343400Y-340900
X340452Y-349549
X330311Y-350941
X320075
X309839
X299602
X298100Y-332300
X299000Y-324000
X308000Y-320000
X313756Y-319850
Y-310008
X303913
X294071
X284228
X278000Y-312000
X269000Y-313000
X263000Y-320000
X254000Y-324000
X253300Y-332100
X275700
X277000Y-324000
X286000Y-320000
X279130Y-350941
X268894
X258657
X248421
X238185
X230000Y-331300
X231000Y-324000
X240000Y-317000
X244858Y-290323
X235016
Y-280480
X254701
Y-270638
X244858
Y-260795
Y-250953
Y-241110
X254701
Y-231268
X244858
X235016
Y-241110
Y-250953
Y-260795
X254701
X264543
X274386
Y-250953
X284228
Y-260795
X294071Y-250953
Y-241110
Y-231268
X303913
Y-241110
Y-250953
X324000Y-255000
X331600Y-255700
X350941Y-253638
Y-274111
Y-284347
Y-294583
X371654Y-312992
X374803Y-314173
X375984Y-318898
X377000Y-322000
X376378Y-325197
X377000Y-333000
X380500
X374000Y-335500
X356600Y-340900
X356700Y-343700
X353126Y-359221
X362968
Y-369063
X333441
X312900Y-377900
X264500Y-372000
X254250Y-378500
X264543Y-270638
X274386
X294071Y-280480
X284228Y-241110
Y-231268
X274386
X264543
Y-241110
Y-250953
X254701
X274386Y-241110
X320000Y-314000
X324000Y-323000
X330600Y-323900
X219541Y-326790
X216000Y-317000
X224000Y-313000
X225173Y-290323
X215331
X205488
Y-280480
X195646
Y-290323
X185803
X175961
Y-280480
Y-270638
X185803
Y-260795
Y-250953
X195646
X205488
Y-260795
X215331
Y-270638
X225173
Y-280480
X215331
X205488Y-270638
X195646
Y-260795
Y-241110
Y-231268
X185803
Y-241110
X175961
Y-250953
X166118
Y-260795
X156276
Y-250953
Y-241110
Y-231268
X146433
X136591
X126748
X116905
Y-241110
X126748
Y-250953
Y-260795
X116905
X107063
Y-270638
X116905
Y-280480
X126748
Y-270638
X136591
Y-260795
X146433
Y-250953
X136591
Y-241110
X146433
X166118
Y-231268
X175961
X205488
Y-241110
X225173
Y-250953
Y-231268
X175961Y-260795
X166118Y-270638
X156276
Y-280480
X146433
Y-290323
X136591
X126748
X136591Y-280480
X146433Y-270638
X166118Y-280480
Y-290323
X156276
X147000Y-317000
X153000Y-326000
X161000Y-324000
X160600Y-328400
X170000Y-317000
X184000Y-324000
X183300Y-330600
X180103Y-333740
X187004Y-350941
X166531
X157200Y-351100
X146059Y-350941
X135823
X125587
X115350
X105114
X94878
X84600Y-346300
Y-342400
X87732Y-335059
X95900Y-335100
X97220Y-329693
X113900Y-331600
X115000Y-324000
X124000Y-317000
X138000Y-324000
X137000Y-330800
X134000Y-334000
X126500Y-373500
X124500Y-376000
X128500Y-379000
X146433Y-378906
X168500Y-378500
X172500Y-378000
X175000Y-375500
X210000Y-379000
X214350Y-378350
X219000Y-373000
X217712Y-350941
X207476
X227949
X206200Y-330900
X207000Y-324000
X193000Y-317000
X185803Y-280480
X87378
X77535
Y-270638
Y-290323
X107063Y-300165
Y-250953
X97220
Y-241110
X107063
X102000Y-236000
X97220Y-231268
X87378
X90000Y-236000
X77535Y-231268
X87378Y-250953
X97220Y-260795
X116905Y-250953
X77496Y-335059
X80486Y-352688
X80586Y-362924
X79800Y-373500
X84500Y-376300
X84600Y-378300
X88403Y-379507
X97220Y-378906
X77535
X70400Y-350941
X60164
X49927
X39691
X29455
X26314Y-335059
X36551
X44000Y-332500
X57023Y-335059
X67259
X67693Y-300165
X57850
Y-290323
Y-280480
Y-270638
X67693
Y-280480
Y-290323
X44000Y-299000
X42700Y-301800
X44700Y-303100
X44000Y-316000
X28323Y-300165
X18480
Y-290323
X8638
Y-300165
X-1205Y-290323
X-11047
X-30732
X-40575
X-50417
X-60260
X-70102
X-79945
Y-270638
X-70102
Y-260795
X-64000Y-260000
X-60260Y-250953
X-53000Y-248000
X-50417Y-241110
X-50000Y-260000
X-41000Y-259000
X-37000Y-248000
X-28000Y-252000
X-30732Y-270638
X-20890
X-11047
X-1205
X8638
X18480
Y-280480
X28323
Y-290323
Y-270638
X8638Y-280480
Y-231268
X-1205
X-11047
X-20890
X-30732
X-40575
X-60260
X-70102
Y-241110
X-79945
Y-250953
X-50417Y-270638
X-60260Y-310008
X-70102
X-70000Y-324000
X-71400Y-330800
X-55575Y-335059
X-56900Y-342700
Y-345300
Y-347400
X-52435Y-350941
X-62671
X-72907
X-83144
X-82000Y-379500
X-78600Y-378300
X-76000Y-375000
X-50417Y-378906
X-40575
X-42199Y-350941
X-31962
X-35103Y-335059
X-24867
X-14630
X-4394
X5842
X16078
X8982Y-350941
X-1254
X-11490
X-45339Y-335059
X-50417Y-329693
X-61000Y-320000
X-40575Y-310008
X-32000Y-317000
X-26000Y-315000
X18480Y-231268
X28323
X57850
X67693
X-89787Y-241110
X-99630
X-103000Y-243000
X-109472Y-231268
Y-260795
X-89787
Y-250953
X-97000Y-274000
X-100371Y-273000
X-103300Y-274600
X-99630Y-290323
X-89787
Y-310008
X-99630
X-109472
X-119315
X-133000Y-309000
Y-313000
X-139000Y-310008
X-139000Y-324000
X-139600Y-330500
X-130000Y-320000
X-116000Y-324000
X-116200Y-330700
X-107000Y-320000
X-93000Y-324000
X-94300Y-331300
X-93380Y-350941
X-103616
X-113852
X-134325
X-154797
X-165033
X-175269
X-185506
X-195742
X-205978
X-226451
X-232000Y-329600
X-231000Y-324000
X-222000Y-320000
X-217740Y-310008
X-207898
Y-300165
Y-290323
Y-280480
X-217740
Y-270638
X-207898
X-199014Y-266687
X-195000Y-272000
X-190986Y-272931
X-188000Y-271000
X-199014Y-276923
X-199024Y-287159
X-198055Y-290323
X-188213
X-178370
X-168527
X-158685
X-148843
X-139000
X-129157
X-119315
X-139000Y-260795
X-158685
Y-270638
X-163710Y-232387
X-169950Y-227273
X-178370Y-231268
X-177188Y-234511
X-188213Y-231268
X-198055
X-207898
X-217740
X-227583
X-237425
Y-260795
X-227583
X-237425Y-270638
Y-290323
Y-300165
X-227583
X-217740
Y-290323
X-227583
Y-280480
Y-310008
X-237425
X-198055
X-188213
X-178370
X-168527
X-176000Y-320000
X-185000Y-324000
X-185600Y-330300
X-163100Y-330400
X-162000Y-324000
X-153000Y-320300
X-199000Y-320000
X-207000Y-324000
X-208600Y-330100
X-198055Y-300165
X-204000Y-377500
X-207000Y-378500
X-211500Y-379500
X-214000Y-377000
X-217500
X-221000Y-376000
X-174000Y-378500
X-170500
X-167500
X-163500
X-153500Y-379500
X-125500Y-376000
X-123000Y-378000
X-95500Y-377000
X-93000Y-375000
X-87500Y-375500
X-84500
X-86500Y-379000
X-89787Y-378906
X-84000Y-320000
X-244000
X-247268Y-319850
Y-310008
X-257110
X-253000Y-324000
X-254600Y-329700
X-257159Y-350941
X-267395
X-277632
X-287868
X-298104
X-318577
X-334900Y-353200
X-337900Y-346000
X-337200Y-343100
X-339800Y-343500
X-349888Y-336637
X-349941Y-326401
Y-305928
Y-295692
Y-285456
Y-275220
Y-264983
Y-254747
Y-244511
Y-234275
X-329900Y-230500
X-322000Y-231000
X-318000Y-240000
X-325100Y-243900
X-322000Y-254000
X-329800Y-254100
X-318000Y-263000
X-306323Y-260795
Y-270638
X-296480Y-260795
Y-250953
Y-241110
X-286638
X-276795Y-231268
X-266953
X-257110
X-247268
Y-260795
Y-270638
X-257110
Y-260795
X-266953
Y-270638
Y-280480
Y-290323
X-276795
Y-300165
X-266953
X-247268
Y-280480
X-257110
Y-290323
X-276795Y-280480
X-286638
X-276795Y-270638
X-306323Y-250953
Y-231268
X-296480
X-322000Y-277000
X-329500Y-275900
X-318000Y-286000
X-322000Y-299000
X-329100Y-299300
X-318000Y-309000
X-311024Y-312205
X-313000Y-320000
X-321000Y-324000
X-323850Y-330000
X-326900Y-333200
X-301100Y-329200
X-299000Y-324000
X-291000Y-320000
X-285400Y-326200
X-278850Y-330000
X-277000Y-324000
X-269000Y-320000
X-296480Y-310008
X-296500Y-378000
X-293500
X-289500
Y-375000
X-299500Y-378000
X-303500Y-376000
X-306500Y-375500
X-310700Y-372400
X-335850Y-378906
X-339600Y-360800
X-348797Y-355382
X-355535Y-369063
X-365378
X-375220
Y-378906
X-365378
Y-359221
X-375220
Y-349378
Y-339535
X-370500Y-334500
X-366500Y-333500
X-365378Y-339535
X-356400Y-341900
X-374000Y-327000
Y-323000
X-369500Y-312500
X-366500Y-311500
X-376500Y-308500
X-377000Y-305000
X-386024Y-304350
Y-299350
Y-294350
Y-279350
Y-274350
Y-269350
Y-264350
Y-259350
Y-254350
Y-234350
Y-229350
Y-224350
X-374300Y-263400
X-373200Y-266500
X-383800Y-309300
X-246923Y-350941
X-247000Y-377500
X-250000
X-253000
X-256500
X-259500Y-377000
X-264000Y-376500
X-264500Y-373500
X-399900Y-314600
X-404500Y-314400
X-401378Y-309350
Y-304350
Y-299350
Y-294350
Y-289350
X-401300Y-284300
X-401378Y-279350
Y-274350
Y-269350
Y-264350
Y-259350
Y-254350
Y-249350
Y-244350
Y-239350
Y-234350
Y-229350
Y-224350
Y-219350
Y-214350
Y-209350
Y-204350
Y-199350
Y-194350
Y-189350
Y-184350
Y-179350
Y-174350
Y-169350
Y-164350
X-401200Y-159300
X-401378Y-154350
Y-149350
Y-144350
X-401500Y-139300
X-401378Y-134350
Y-129350
X-401300Y-124500
X-401378Y-119350
Y-114350
X-399400Y-79500
X-394500Y-79100
X-388600Y-79300
X-393700Y-84700
X-386024Y-94350
Y-99350
X-387200Y-104300
X-388000Y-109200
X-387000Y-114300
X-386024Y-119350
X-374700Y-118200
Y-115000
X-375200Y-112000
X-373800Y-125500
X-370700Y-126800
X-374700Y-129100
X-386024Y-134350
Y-139350
Y-174350
Y-179350
Y-184350
Y-189350
Y-194350
Y-214350
Y-219350
X-394905Y-221425
Y-211583
X-373900Y-218500
X-371000Y-220000
X-375900Y-223300
X-349941Y-213802
Y-203566
Y-193330
Y-183094
Y-172857
Y-162621
Y-152385
Y-142149
Y-121676
Y-111440
Y-101204
Y-90968
Y-80731
X-342000Y-81000
X-331200Y-79600
X-325104Y-81681
X-318000Y-78000
X-322000Y-69000
X-327700Y-68100
X-329000Y-90150
X-322000Y-92000
X-318000Y-101000
X-324500Y-105100
X-322000Y-115000
X-329300Y-114300
X-318000Y-124000
X-306323Y-123000
Y-132843
Y-142685
Y-152527
X-305000Y-158000
X-300000Y-163000
X-296480Y-172213
X-306323
Y-182055
X-296480
Y-191898
Y-201740
Y-211583
X-286638
Y-201740
X-276795
X-266953
X-257110
X-247268
Y-211583
Y-221425
X-257110
X-266953
X-276795
X-286638
X-306323
X-318000Y-216000
X-325600Y-219600
X-322000Y-207000
X-329800Y-206200
X-329500Y-183200
X-322000Y-184000
X-318000Y-193000
X-306323Y-191898
Y-201740
X-286638Y-191898
X-276795
Y-182055
X-266953
X-257110
Y-191898
X-266953
Y-211583
X-276795
X-257110
X-247268Y-191898
Y-182055
Y-142685
X-257110Y-132843
X-266953Y-123000
Y-113157
X-276795
Y-103315
Y-93472
X-286638
X-296480
Y-83630
X-306323
Y-73787
X-276795
Y-83630
X-266953
Y-73787
Y-93472
Y-103315
X-286638
Y-132843
X-296480
Y-123000
Y-142685
Y-152527
X-286638
X-276795
X-266953
X-276795Y-142685
X-286638
Y-172213
Y-182055
X-318000Y-170000
X-322000Y-161000
X-329400Y-160800
X-314000Y-156000
X-318000Y-147000
X-322000Y-138000
X-329500Y-137800
X-306323Y-113157
X-349941Y-70495
X-369400Y-80800
X-373200Y-79600
X-374600Y-82700
X-374700Y-86100
X-374500Y-89100
X-374400Y-92200
X-374500Y-170700
X-371100Y-171700
X-377100Y-177100
X-394905Y-172213
Y-182055
X-237425
X-227583
X-217740
Y-191898
X-207898
Y-201740
X-198055
Y-211583
X-207898
X-217740
Y-221425
X-207898
X-198055
X-188213
X-178370
X-188213Y-211583
X-217740Y-201740
X-227583
X-237425
Y-211583
Y-221425
X-227583
Y-211583
Y-191898
X-237425
Y-113157
Y-103315
Y-93472
Y-83630
Y-73787
X-194945Y-79739
X-182014Y-99261
X-178000Y-100000
X-173986Y-95338
X-158685Y-103315
X-148843
X-129157
X-119315
X-99630
Y-113157
X-109472Y-123000
Y-142685
X-119315
X-129157
X-139000
X-148843
X-158685
X-168527
X-171192Y-146131
X-178000Y-145000
X-188213Y-142685
X-198055
X-207898
X-217740Y-132843
X-227583Y-123000
X-129157Y-113157
X-99630Y-142685
X-103000Y-148000
X-89787Y-142685
Y-132843
Y-172213
X-99630
X-109472
X-119315
X-129157
X-139000
X-142240Y-175083
X-149478Y-167845
X-156716Y-160607
X-153700Y-182000
X-153000Y-186000
X-156400Y-185700
X-154300Y-188900
X-150500Y-188700
X-150100Y-184000
X-143014Y-196754
X-139000Y-202000
X-135157Y-203057
X-129157Y-201740
Y-191898
X-134986Y-192822
X-119315Y-191898
X-109472
X-99630
X-89787
Y-211583
X-99630
Y-221425
X-89787
X-109472
Y-211583
X-119315
Y-221425
X-79945
Y-211583
X-75000Y-204000
X-70102Y-201740
Y-191898
X-79945
Y-172213
X-70102
X-60260
X-50417
X-40575
Y-182055
X-51200Y-182300
X-54000Y-184000
X-57200Y-183600
X-54700Y-187200
X-51500Y-186600
X-54300Y-180000
X-60260Y-191898
Y-201740
X-50417Y-211583
Y-221425
X-60260
X-30732
X-20890
X-11047
X-1205
X8638
X18480
X28323
X28400Y-206600
X26000Y-204000
X23300Y-202300
X23500Y-206900
X27100Y-200700
X38165Y-201740
X48008
X57850
X67693
Y-211583
Y-221425
X57850
Y-211583
X48008
Y-162370
X38165
X28323
X8638
Y-152527
X-1205
X-3000Y-160000
X-11000Y-165000
X-19000Y-156000
Y-150000
X-11047Y-142685
X-1205
X8638
Y-132843
X5000Y-136000
X-1205Y-132843
X-11047
Y-123000
X-12000Y-117000
X-11000Y-114000
X-20890Y-113157
Y-103315
X-4000Y-104000
X-2000Y-108000
X1000Y-114000
X-1205Y-123000
X8638
X14000Y-115000
X28323Y-113157
Y-123000
Y-132843
Y-142685
X38165Y-152527
X49000Y-150000
X48008Y-142685
X57850
Y-132843
X67693
Y-142685
Y-152527
X57850
Y-162370
X67693
Y-123000
Y-113157
Y-103315
Y-93472
Y-83630
Y-73787
X57850
X48008
Y-83630
X38165
Y-93472
Y-103315
X48008
Y-113157
Y-123000
X38165
Y-113157
X28323Y-103315
Y-93472
X48008
X57850
Y-103315
Y-113157
Y-83630
X38165Y-132843
X-20890
Y-123000
X-30732
Y-132843
X-40575
Y-142685
Y-123000
Y-113157
X-50417
Y-103315
X-70102
X-79945
Y-113157
X-70102
Y-123000
X-79945
Y-132843
Y-142685
X-70102
Y-132843
X-50417
Y-123000
X-30732Y-191898
X-20890
X-40575Y-211583
X77535
Y-201740
X87378
X97220
X107063
X116905
Y-211583
X126748
Y-201740
X136591
X146433
Y-211583
X156276
X166118
X175961
X185803
X195646
X205488
Y-201740
X195646
X184000Y-201000
X175961Y-201740
X166118
X156276
X136591Y-211583
X126748Y-221425
X107063
X97220
X87378
X77535
X87378Y-211583
X97220
Y-162370
Y-152527
X87378
X77535
Y-142685
Y-132843
X87378
Y-142685
X97220
X107063
X116905
Y-132843
Y-123000
X107063
Y-132843
X97220
Y-123000
Y-113157
Y-103315
X87378
Y-93472
X77535
Y-83630
X97220
X107063
Y-93472
X116905
X126748
Y-103315
Y-113157
Y-123000
X136591
Y-132843
Y-142685
X146433
Y-152527
Y-162370
X153000Y-160000
X156276Y-162370
X155800Y-170000
X156276Y-152527
X166118
X175000Y-145000
X179000Y-148000
X177600Y-159900
X174000Y-164000
X171700Y-167700
X185803Y-172213
X197000Y-167000
X198000Y-155000
X202000Y-159000
X205488Y-162370
X215331
X225173
Y-152527
X215331
Y-132843
X205488
Y-142685
X194000Y-146000
X190200Y-143100
X194000Y-138000
X199000Y-129000
X195646Y-113157
X205488
X215331
Y-103315
X225173
Y-113157
Y-93472
Y-83630
Y-73787
X215331
X205488
Y-83630
X195646
Y-93472
X205488
Y-103315
X195646
X166118
X156276
Y-113157
X153000Y-119000
X149000Y-122000
X150000Y-130000
X155000Y-141000
X169000Y-134000
Y-125000
X166118Y-113157
X146433
Y-103315
X136591
Y-93472
Y-83630
X146433
Y-73787
X156276
Y-83630
X166118
X175961Y-73787
X195646
X215331Y-83630
Y-93472
X225173Y-132843
Y-172213
X215000Y-172000
X225173Y-201740
Y-211583
X136591Y-162370
Y-152527
X126748
X116905
X107063
Y-162370
X116905
X126748
Y-142685
Y-132843
X116905Y-113157
X107063
Y-103315
X116905
Y-83630
X126748
Y-73787
X136591
X116905
X107063
X97220Y-93472
X77535Y-103315
Y-113157
Y-123000
X87378
Y-113157
X136591
X146433Y-93472
X156276
X87378Y-162370
X77535
X235016
Y-152527
X244858
Y-162370
X254701
Y-152527
X264543
X284228
X294071Y-162370
Y-172213
X284228
Y-182055
X294071
X303913
X313756
Y-172213
Y-162370
X303913
Y-152527
X313756
X320000Y-155000
X324000Y-164000
X332100Y-164500
X350941Y-161512
Y-171748
Y-181985
Y-192221
Y-202457
Y-212693
Y-222930
X376864Y-221000
X376772Y-217943
Y-183858
Y-179921
Y-176378
X376551Y-173228
X372811Y-152527
X362968
X350941Y-141040
Y-130804
Y-120567
Y-110331
Y-100095
Y-89859
Y-79623
Y-69386
X331000Y-72600
X324000Y-72000
X313756Y-73787
Y-83630
X320000Y-86000
X324000Y-95000
X331200Y-96200
X313756Y-93472
Y-103315
X303913
Y-113157
X294071
X284228
X274386
Y-103315
X264543
Y-93472
X254701
Y-103315
Y-113157
X244858
Y-103315
Y-93472
X235016
Y-83630
Y-73787
X244858
X254701
X264543
X274386
X284228
X294071
X303913
Y-83630
Y-93472
X294071
X284228
X274386
Y-83630
X264543
X254701
X244858
X235016Y-103315
Y-113157
Y-132843
X244858
X254701
X264543
X274386
X284228
X303913
X320000Y-132000
X317000Y-141000
X324000Y-141000
X331500Y-141500
X332100Y-129700
X331400Y-118100
X324000Y-118000
X320000Y-109000
X294071Y-103315
X284228
Y-83630
X294071
X264543Y-113157
X274386Y-162370
X264543Y-172213
X254701Y-182055
Y-201740
X244858
X235016
Y-211583
X244858
X254701
X264543
X274386
X284228
X294071
Y-221425
X284228
X274386
X264543
Y-201740
X274386
X284228
X294071
X303913
X313756
X320000Y-200000
X324000Y-209000
X330000Y-210850
X313756Y-211583
Y-221425
X303913Y-211583
Y-172213
X320000Y-178000
X324000Y-187000
X331800Y-187400
X274386Y-182055
X244858Y-172213
X235016
X376126Y-134000
X373228Y-128740
X369788Y-81549
X362968Y-83630
X386024Y-89350
Y-94350
Y-99350
Y-104350
Y-109350
Y-114350
X386221Y-119291
X386024Y-124350
Y-139350
Y-144350
Y-149350
X385827Y-154331
X386024Y-159350
Y-164350
X392496Y-162370
X401378Y-164350
Y-159350
Y-154350
Y-149350
Y-144350
Y-139350
Y-134350
Y-129350
Y-124350
Y-119350
Y-114350
Y-109350
Y-104350
Y-99350
Y-94350
X401575Y-89370
X408007Y-86323
X401378Y-169350
Y-174350
Y-179350
Y-184350
Y-189350
Y-194350
Y-199350
Y-204350
Y-209350
Y-214350
Y-219350
X392496Y-201740
X386024Y-199350
Y-194350
Y-189350
X392496Y-191898
X385827Y-204331
X394000Y72260
X378971Y75894
X369900Y76100
X371349Y80114
X374100Y82900
X374800Y85900
X378595Y87344
X370113Y70764
X372811Y64008
X362968
X359906Y69986
X361330Y78014
X344700Y79200
X342000Y82000
X339573Y68343
X349670Y70024
X333441Y60146
Y49910
Y39674
Y29438
X333441Y24638
X333441Y19201
X333441Y14795
X333441Y8965
X333441Y4953
X333441Y-1271
X333441Y-4890
X333441Y-11507
X333441Y-14732
X333441Y-21744
X333441Y-24575
X333441Y-31980
X333441Y-34417
X333441Y-42216
X329900Y-47800
X325500Y-47500
X318349Y-50906
X313756Y-54102
Y-44260
X317559Y-40701
X313756Y-34417
X317559Y-30464
X313756Y-24575
X317559Y-20228
X313756Y-14732
X317559Y-9992
X313756Y-4890
X317559Y244
Y10481
Y20717
X303913Y14795
Y4953
X294071
Y-4890
X284228
Y-14732
X274386
Y-24575
X264543
Y-34417
X254701
Y-44260
Y-54102
X244858
Y-63945
X254701
X264543
X274386
Y-54102
Y-44260
X284228
X294071
X303913
Y-34417
X294071
Y-24575
X303913
Y-14732
Y-54102
Y-63945
X294071
Y-54102
X284228
Y-63945
X264543Y-54102
X244858Y-44260
X235016
Y-34417
X244858
X235016Y-54102
Y-63945
X284228Y-34417
Y24638
X284000Y32000
X289000Y30000
X317559Y51425
X320000Y83000
X323000Y80000
X324000Y87000
X372811Y54165
Y-24575
Y-34417
Y-44260
X371498Y-50921
X368700Y-53800
X362968Y-54102
X364063Y-43886
X362968Y-34417
X353126
X353835Y-43486
X353126Y-24575
X342124Y-51514
X343284Y-54102
X348634Y-59413
X325242Y-58473
X320000Y-63000
X313756Y-63945
X377014Y-59544
X225173Y-63945
X215331
X205488
X215331Y-54102
Y-44260
X225173
Y-34417
X205488
X195646
X185803
X175961
Y-44260
X185803
X195646
X185803Y-54102
X175961
Y-63945
X166118
Y-54102
X156276
X146433Y-63945
X136591
X126748
Y-54102
Y-44260
X116905
Y-54102
X107063
Y-63945
X97220
Y-54102
Y-44260
X87378
X77535
Y-54102
Y-63945
X87378Y-54102
Y-34417
X97220
X107063
X116905
X136591
X146433
Y-44260
X136591Y-54102
X116905Y-63945
X107063Y-44260
Y24638
X97220
X87378
X77535
X93509Y37059
X101754Y30993
X111990
X116905Y24638
X126748
Y34480
X121790Y33951
X123007Y44115
Y54351
X126748Y54165
X136591
X146433
Y64008
X156276
Y54165
X166118
Y44323
Y34480
Y24638
X156276
X146433
Y34480
X136591
Y24638
X156276Y34480
Y44323
X146433
Y73850
Y83693
X136591
Y73850
X126748
Y83693
X116905
Y73850
X107063
Y83693
X97220
X96163Y75676
X88925Y82914
X123007Y64587
X156276Y73850
Y83693
X166118
Y73850
Y64008
X175961Y83693
X185803
X195646
X205488
Y44323
Y34480
X195646
Y44323
X185803
Y34480
Y24638
X195646
X205488
X215331Y34480
Y44323
X175961Y24638
X225173Y-54102
X67693
Y-63945
X57850
X38165Y-34417
X48008Y-24575
X57850Y-14732
Y24638
X48008
Y34480
X38165
Y44323
X28323
Y34480
Y24638
X38165
X28323Y4953
X18480Y-4890
X8638Y-14732
X-1205Y-24575
X-11047Y-34417
X-15000Y-41000
X-9000Y-43000
X-6000Y-45000
X-4000Y-48000
X0Y-52000
X18480Y-54102
X28323Y-44260
X8638Y-63945
X-11047
X-20890
Y-54102
Y-44260
X-25000Y-45000
X-32000
X-30000Y-38000
X-40575Y-44260
X-49000Y-43000
Y-39000
X-52000Y-47000
X-58000
X-60260Y-44260
X-76000Y-46000
X-75000Y-50000
X-70102Y-54102
Y-63945
Y-34417
X-79945
Y-44260
Y-24575
Y-14732
Y-4890
X-70102
Y4953
X-60260
Y14795
X-70102
X-79945
Y4953
X-77524Y26245
X-70102Y24638
X-70286Y33484
X-60260Y34480
X-63048Y40722
X-55810Y47960
X-50417Y44323
Y34480
X-40575
Y24638
X-30732
Y34480
X-20890
Y44323
Y54165
X-30732
Y64008
X-34095Y69674
X-41333Y62436
X-40575Y54165
X-48572Y55198
X-40575Y44323
X-30732
X-11047
Y54165
X-1205
X8638
Y64008
X-1205
Y73850
X-11047
X-20890
X-26857Y76912
X-20890Y64008
X-11047
Y83693
X-1205
X8638Y73850
Y44323
X-1205
Y34480
X-11047
Y24638
X-20890
Y14795
X-30732
Y4953
X-40575
X-50417
Y14795
Y24638
X-60260
Y-4890
Y-14732
Y-24575
X-70102
Y-14732
X-50417
Y-4890
X-40575
Y14795
Y-54102
X-50417
X-40575Y-63945
X-44788Y81442
X-52026Y74204
X-60260Y73850
X-59264Y66966
X-70102Y64008
X-66503Y59728
X-73741Y52490
X-79945Y54165
Y64008
X-70102Y73850
X-80979Y45252
X28323Y54165
X32866Y64903
X40104Y57665
X47342Y50427
X54580Y43189
X62854Y37162
X67693Y34480
Y54165
X70732Y52941
X68282Y62880
X61980Y58250
X57850Y64008
X54742Y65488
X61044Y70118
X57850Y73850
X57993Y79889
X57850Y83693
X48008
Y73850
X40266Y79964
X38165Y83693
X33028Y87202
X-99630Y73850
X-109472Y64008
X-114000Y68000
X-119315Y64008
X-129157
Y73850
X-139000
X-148843
Y64008
X-158685
Y54165
X-148843
Y44323
X-139000
X-129157
Y54165
X-119315
Y73850
Y83693
X-114000Y85000
X-129157Y83693
X-139000
X-148843
X-158685
Y73850
X-139000Y64008
Y54165
X-158685Y44323
X-148843Y14795
X-139000
Y4953
X-129157
X-124407Y1823
X-117169Y9061
X-119315Y14795
Y24638
X-109472
X-102693Y23537
X-99630Y34480
X-95455Y30775
X-88217Y38013
X-89787Y44323
X-99630
X-109472Y34480
X-109931Y16299
X-129157Y14795
X-131646Y-5415
X-120953Y-17183
X-109472Y-14732
X-99630
Y-4890
X-106476Y-2707
X-99238Y4531
X-89787Y4953
X-92000Y11769
X-84762Y19007
X-89787Y-4890
Y-14732
Y-24575
Y-34417
X-99000Y-43000
X-96000Y-60000
X-119315Y-63945
X-148843
X-158685
X-164000Y-61000
X-168527Y-63945
X-173986Y-64630
X-188859Y-60941
X-190000Y-53000
X-192600Y-55400
X-188213Y-44260
X-178370
Y-34417
X-168527
X-167836Y-41606
X-160598Y-34367
X-168527Y-24575
X-178370
X-188213
Y-14732
Y-4890
X-178370Y-14732
X-188213Y-34417
X-237425
Y-44260
Y-54102
Y-63945
Y-24575
Y-14732
Y-4890
Y4953
Y14795
Y44323
Y54165
Y64008
Y73850
Y83693
X-89787Y54165
X-102000Y-26000
X-109472Y-24575
X-149905Y-46136
X-266953Y-44260
X-276795
Y-34417
X-266953
X-276795Y-24575
X-296480
X-306323
Y-14732
X-296480
X-286638
X-288700Y-1600
X-291600
X-291000Y1000
X-291100Y3400
X-288600Y4000
X-288100Y1200
X-294000Y100
Y3100
X-296480Y14795
X-306323
Y24638
Y34480
Y44323
X-296480
Y34480
X-286638
Y24638
Y14795
X-296480Y24638
X-276795
Y34480
X-266953
Y44323
Y54165
Y64008
X-276795
Y73850
X-286638
Y83693
X-296480
X-306323
Y73850
Y64008
Y54165
X-296480
X-286638
Y44323
X-276795
Y54165
X-286638Y64008
X-296480
Y73850
X-276795Y83693
X-266953
X-257110
X-247268
Y73850
Y64008
Y54165
Y44323
X-257110
Y54165
Y64008
Y73850
X-266953
X-326008
X-332130Y72165
Y61929
X-326008Y64008
Y54165
X-332130Y51693
Y41456
X-326008Y44323
Y34480
X-332130Y31220
Y20984
X-326008Y24638
Y14795
X-332130Y10748
X-348012Y11211
Y21447
Y31684
Y41920
Y52156
Y62392
Y72628
X-348340Y88414
X-343500Y84500
X-340071Y84400
X-332130Y82401
X-326008Y83693
X-362500Y84400
X-364927Y80336
X-365378Y73850
Y64008
Y54165
X-375220
Y64008
Y44323
X-365378
Y34480
X-375220
Y24638
Y14795
X-365378
X-359300Y2600
X-356700Y3200
X-357000Y1000
X-356700Y-1500
X-359000Y-700
X-353700Y-600
X-354300Y1700
X-365378Y-14732
X-375220
Y-24575
Y-34417
X-365378
Y-44260
Y-54102
X-359900Y-53900
X-349941Y-50023
Y-39786
Y-29550
X-334059Y-30106
Y-40342
Y-50578
X-326008Y-54102
X-326272Y-57223
X-326008Y-44260
Y-34417
Y-24575
Y-14732
X-333061Y-9682
X-334059Y-19870
X-306323Y-34417
Y-44260
Y-54102
X-296480
X-286638
X-276795
Y-63945
X-266953
Y-54102
Y-4890
X-257110
Y4953
Y14795
X-247268
Y4953
Y-4890
Y-14732
X-257110
X-247268Y-24575
X-266953Y4953
X-306323Y-63945
X-342000Y-60000
X-349941Y-60259
X-375500Y-60500
Y-57500
Y-54500
Y-51500
X-381400Y-46000
X-387031Y-48197
Y-40323
Y-32449
Y-16701
Y-8827
Y-953
Y6922
Y14796
Y30544
X-379049Y88364
X-368813
X-358576Y88414
X-383100Y-66500
X-387031Y-63945
X-394905
Y-56071
X-402779
Y-63945
Y-48197
Y-40323
Y-32449
Y-24575
Y-16701
Y-8827
Y-953
Y6922
Y14796
Y22670
Y30544
X-401378Y99350
Y104350
Y109350
Y114350
Y119350
Y124350
Y129350
Y134350
Y139350
Y144350
Y149350
Y154350
Y159350
X-399600Y164400
X-399400Y169600
X-399500Y174300
X-399700Y179300
X-399300Y184500
X-398700Y189300
X-399100Y194400
X-399000Y199600
X-399100Y204300
X-399200Y209300
Y214300
X-399600Y219400
X-399300Y224400
X-398800Y229500
Y234400
X-399200Y239300
X-399000Y244300
X-377400Y233600
X-374400Y233300
X-375100Y230000
X-375000Y226500
X-372400Y221500
X-369000Y221000
X-365378Y221488
X-383200Y219300
X-383600Y224400
X-386024Y184350
X-387600Y179300
X-385100Y174400
X-384500Y169400
X-373500Y173900
X-370500Y175100
X-374500Y181100
X-374100Y184600
X-394905Y182118
X-386024Y144350
Y139350
X-386000Y134500
Y129000
X-378000Y127500
X-376000Y124500
X-373500Y129500
X-371412Y127412
X-375220Y103378
X-365378
Y93536
X-348012Y98645
X-332130Y102874
X-326008Y103378
Y93536
X-332130Y92638
X-306323Y93536
X-296480
X-286638
X-276795
X-266953
X-257110
X-247268
X-257110Y103378
X-266953
Y113221
X-276795
X-286638
Y103378
X-296480
Y113221
X-306323
Y103378
X-311000Y100000
X-318000Y107929
X-322031Y118000
X-329300Y117800
X-330900Y130100
X-329800Y139800
X-322031Y141000
X-318000Y130929
X-306323Y132905
X-296480
X-286638
X-276795
X-266953Y142748
Y152591
X-257110
Y142748
Y132905
X-247268
Y142748
Y162433
Y172276
X-257110
Y182118
X-266953
X-276795
Y172276
X-266953
Y162433
X-276795
X-286638
X-296480
Y172276
Y182118
X-306323
Y172276
Y162433
Y152591
X-296480
X-286638
X-276795
X-286638Y172276
Y182118
Y201803
Y211646
X-296480
X-306323
Y201803
X-296480
Y221488
X-286638
X-276795
Y231331
X-286638
Y241173
X-296480
X-306323
Y231331
X-296480
X-306323Y221488
X-318110Y222835
X-322031Y233000
X-330200Y232600
X-331400Y221400
X-330300Y209800
X-322031Y209000
X-318110Y200000
X-331200Y198200
X-322031Y187000
X-318000Y176929
X-331200Y175800
X-329500Y163600
X-322031Y164000
X-318000Y153929
X-331400Y153000
X-365378Y152591
X-386024Y104350
Y99350
X-276795Y103378
X-247268Y123063
Y191961
Y201803
X-257110
Y211646
X-266953
Y221488
X-247268
X-257110Y231331
X-266953Y241173
X-247268
X-266953Y191961
X-276795
Y201803
X-237425Y191961
Y182118
X-227583
Y172276
X-217740
Y162433
X-227583Y152591
X-237425
Y162433
Y132905
Y123063
X-227583
Y113221
Y103378
X-237425Y113221
X-227583Y142748
X-217740Y191961
X-207898Y201803
Y211646
X-217740
Y221488
X-227583
Y231331
X-237425
Y241173
X-227583
X-217740
Y231331
X-207898
Y221488
X-198055Y241173
X-158685
X-148843
X-139000
Y231331
X-129157
Y241173
X-119315
X-109472
X-99630
X-89787
Y231331
Y221488
Y211646
X-99630
Y221488
X-109472
Y231331
X-119315
Y221488
Y211646
X-129157
Y201803
X-119315
X-109472
Y191961
Y182118
X-119315
Y191961
X-129157
X-139000
X-148843
Y182118
Y172276
X-158685
Y162433
Y152591
Y142748
X-148843
X-139000
X-129157
Y152591
X-119315
X-109472
X-99630
X-89787
Y142748
Y132905
Y123063
Y113221
Y103378
X-109472
Y113221
X-119315
X-129157
Y123063
Y132905
X-139000
X-148843
Y123063
Y113221
X-158685
Y123063
Y132905
X-139000Y123063
Y113221
Y103378
X-148843
Y93536
X-139000
X-129157
X-119315Y103378
Y123063
X-109472
Y132905
Y142748
X-119315
Y132905
X-98000Y140000
X-99630Y142748
Y162433
Y172276
X-89787
Y182118
Y191961
X-99630
Y182118
X-109472Y172276
Y162433
X-119315
Y172276
X-129157
X-139000
Y162433
Y152591
X-148843
Y162433
X-129157
Y182118
X-139000
X-158685
Y191961
Y201803
Y211646
X-148843
Y201803
X-139000
Y211646
Y221488
X-129157
X-148843
X-158685
Y231331
X-152000Y230000
X-148843Y231331
X-99630
X-109472Y211646
X-99630Y201803
X-89787
Y162433
X-158685Y103378
Y93536
X-227583Y201803
X-237425Y211646
X-78500Y203500
X-75500Y202500
X-77000Y200000
X-73600
X-74500Y197000
X-78300
X-80600Y200000
X-79945Y221488
Y231331
X-70102
Y241173
X-60260
X-79945
X-60260Y211646
Y201803
Y191961
Y182118
Y172276
Y162433
Y152591
Y142748
Y132905
Y123063
X-50417
Y113221
X-60260
Y103378
X-50417
X-40575
X-30732
X-23074Y103156
X-15836Y110395
X-7600Y110500
X-4000Y111000
X-1000Y111700
X-2400Y108300
X-5400Y107500
X-6400Y114200
X-2900Y114600
X4076Y116155
X8638Y113221
Y123063
Y132905
Y142748
Y152591
Y162433
X-1205
Y172276
Y182118
Y191961
X-11047
Y182118
Y172276
Y162433
Y152591
X-1205
Y142748
X-11047
Y132905
X-11331Y129562
X-1205Y132905
Y123063
X-4093Y122324
X-5143Y98627
X3914Y93856
X28323Y93536
Y103378
Y113221
X38165
Y123063
Y132905
Y142748
X48008
Y152591
X38165
X28323
Y162433
Y172276
X30400Y183500
X32900Y181100
X28323Y191961
Y201803
Y211646
X38165
Y221488
Y231331
Y241173
X48008
Y231331
Y221488
X28323
Y231331
X8638
Y221488
Y211646
X-1205
X-11047
Y221488
X-1205
Y231331
X-11047
Y241173
X-35659Y232826
Y222590
Y212354
X-27800Y204900
X-25600Y205300
X-30732Y201803
Y191961
X-35659Y191882
Y181645
X-30732Y182118
Y172276
X-35659Y171409
Y161173
X-30732Y162433
Y152591
X-25807Y144038
X-18569Y136800
X-36919Y132689
X-40575Y132905
Y123063
X-30732
X-29681Y125451
X-30732Y113221
X-40575
X-30312Y95918
X-37550Y88680
X-50417Y132905
Y142748
X-50927Y147605
X-51541Y157823
Y168059
Y178295
Y198768
Y209004
Y219240
X-22000Y199000
X8638Y191961
Y182118
Y172276
X38165Y162433
X28323Y142748
Y132905
Y123063
X48008
Y113221
X57850
Y123063
X48008Y132905
X38165Y103378
Y93536
X53106Y88883
X-44157Y139927
X87378Y132905
X97220
X107063
X116905
X126748
Y142748
X136591
Y132905
X146433
Y123063
Y113221
Y103378
X156276
Y93536
X146433
X136591
Y103378
Y113221
Y123063
X156276
X166118
Y132905
X175961
Y123063
Y113221
Y103378
X166118
Y93536
X175961
X185803
X195646
X205488
X215331
Y103378
Y113221
X225173
Y123063
Y132905
Y142748
X215331
Y152591
X225173
Y162433
X194400Y155900
X191000Y156000
X190900Y152000
X191300Y148900
X188100Y148800
Y151300
X187600Y154500
X187800Y157000
X184700Y155500
X184900Y152100
X185000Y148700
X182600Y150400
X182400Y153700
X182300Y156800
X175961Y162433
Y172276
Y182118
Y191961
X185803
X195646
Y201803
Y211646
Y221488
X205488
X215331
Y211646
Y201803
X205488
Y211646
X225173
Y201803
Y221488
Y231331
X215331
Y241173
X205488
X195646
Y231331
X205488
X225173Y241173
X146433Y231331
Y221488
Y211646
Y201803
X136591
X126748
X116905
Y211646
Y221488
X126748
X136591
Y231331
Y241173
X126748
X116905
X107063
X97220
X87378
Y231331
Y221488
X97220
Y211646
X107063
Y221488
X97220Y231331
X87378Y211646
X77535
Y201803
Y191961
X76300Y179100
X80800Y179000
X85900Y178800
X89900Y178600
X94200Y179000
X98900Y179300
X104200
X109700
X107063Y172276
Y162433
X116905
X126748
X136591
X146433
X156276
Y172276
Y182118
Y191961
X166118
Y182118
Y172276
Y162433
Y142748
X156276
X146433
X156276Y132905
X175961Y142748
X195100Y149500
X193500Y152900
X197000Y152800
X215331Y132905
Y123063
X225173Y103378
X185803Y182118
X116905Y172276
Y191961
X126748Y211646
X116905Y142748
X107063
X96300Y149400
X93600Y149100
X93700Y151800
X91000Y151500
X89500Y153700
X89800Y156600
X92559Y155000
X92700Y158300
X96000Y157000
X96200Y153600
X81687Y90152
X235016Y103378
X244858
Y113221
Y123063
X235016
Y132905
X244858
Y142748
X235016
Y152591
Y162433
X244858
Y152591
X284228
Y162433
X294071
X303913
Y152591
X313000Y152000
X314000Y156000
X313756Y142748
X303913
Y132905
X294071
Y123063
X303913
Y113221
X294071
X284228
Y123063
Y132905
Y142748
X294071
Y152591
X320472Y147244
X323969Y138000
X330300Y137200
X313756Y132905
X320472Y122835
X323969Y115000
X329000Y113150
X320472Y101181
X317000Y103000
X303913Y103378
X294071
X284228
X323969Y92000
X329200Y91100
X349941Y88737
Y98974
Y119446
Y139919
Y150155
Y160391
Y170627
Y180863
Y191100
Y211572
Y221808
Y232045
Y242281
X320472Y240158
X313756Y241173
Y231331
Y221488
X320472Y216142
X326400Y219300
X323969Y231000
X330000Y229900
X330500Y205800
X323969Y207000
X313000Y204000
X310000Y201000
X320472Y192913
X323969Y184000
X329000Y182150
X314000Y179000
X313756Y172276
X320472Y170079
X323969Y161000
X329500Y159900
X374400Y165800
X372800Y171700
X369500Y171800
X384900Y169500
Y174400
X384500Y164400
X384400Y134200
X383100Y129300
X383300Y124400
X383200Y119500
X383600Y114300
X372600Y125900
X369600Y126300
X374800Y128500
X375700Y90000
X384900Y199600
X383300Y214300
X382800Y219200
X372700Y219100
X369600Y218900
X264543Y231331
Y241173
X244858
Y231331
Y221488
X235016
Y211646
Y201803
X244858
Y211646
X235016Y231331
Y241173
Y113221
X401378Y114350
X400600Y119500
X400300Y124200
X401378Y129350
X398900Y134500
X398800Y139200
X398200Y144800
X398300Y149600
X400900Y154400
X401378Y159350
Y164350
X401200Y169500
X400700Y174100
X400300Y179500
X401378Y184350
X399200Y189300
X401378Y194350
X401400Y199500
X401378Y204350
Y209350
X401100Y214500
X401378Y219350
X400300Y224700
X401378Y229350
X400500Y234600
X401378Y239350
X400900Y244300
X386024Y244350
X386500Y239700
X386024Y234350
Y209350
Y204350
X392496Y201803
X386024Y194350
Y159350
X385500Y154400
X398900Y109400
X398600Y104300
X399300Y99200
X398900Y94300
X400200Y89400
X401000Y249600
X401100Y254400
X400600Y259200
Y264200
X399100Y269500
X400400Y274500
Y279400
X400100Y284700
X400200Y289200
X400100Y294500
X400400Y299500
X400100Y304400
X400800Y309000
X385600Y279200
X385200Y259300
X385700Y254300
X386024Y249350
X384700Y274300
X385000Y284400
X384200Y289300
X383900Y294200
X383700Y299100
X383900Y304100
X383700Y309400
X349941Y313934
Y303698
Y283226
Y272989
Y262753
Y252517
X329000Y253900
X323969Y254000
X320472Y262992
X313756Y260858
X313000Y272000
X313756Y280543
X303913
X294071Y290386
Y300228
X284228
Y310071
X274386
Y300228
X264543
Y290386
Y280543
Y270701
Y260858
X244858
Y251016
X235016
Y260858
Y270701
X244858
Y280543
Y290386
Y300228
X235016
Y290386
Y280543
Y310071
X244858
X246000Y314000
X244882Y320079
X253543Y324000
X254500Y331400
X265368Y326654
X268898Y320079
X266000Y316000
X258000
X277559Y324016
X277800Y331700
X300900Y331800
X300000Y324016
X303000Y317000
X306000Y307000
X313756Y310071
X320472Y309055
X324016Y300787
X329300Y299600
X313756Y300228
X311000Y295000
X313756Y290386
X320472Y285827
X323969Y277000
X328800Y276800
X314000Y249000
X284228Y280543
X274386
Y290386
X284228
X294071Y310071
X291732Y320079
X312992
X320866Y324016
X322600Y331200
X337300Y342900
X337800Y345800
X339800Y344000
X337600Y361300
X339400Y363700
X336600Y365500
X333441Y369126
X330000Y377200
X326800Y378200
X326600Y382400
X329600Y382000
X331800Y384300
X335800Y381000
X343284Y388811
X362968
Y378969
X372811
Y369126
X362968
X358800Y369600
X359400Y366000
X358000Y362900
X358700Y359800
X366201Y358647
X366900Y361600
X366700Y364600
X369700Y356300
X372811Y339598
X349941Y334407
Y324170
X350300Y359100
X323268Y370923
X323000Y374600
X307700Y377100
X308615Y369391
X310200Y365500
X314200Y363500
X315100Y353200
X312482Y350941
X302246
X292010
X271537
X251065
X240829
X230592
X232100Y331200
X230709Y324016
X243200Y370900
X241600Y373600
X242300Y377900
X239300Y377200
X239400Y384500
X244200Y386800
X249300Y385800
X254350Y386024
X254200Y399000
X259300Y399200
X264600Y398800
X269400Y398500
X274600Y398900
X279200Y398600
X284500Y398700
X289400Y398200
X294300Y398600
X299300Y398800
X304400Y398300
X309400Y398500
X321740Y394000
X294350Y386024
X289400Y383700
X284500Y383400
X284200Y376900
X286900Y374900
X288438Y372262
X288200Y369300
X281700Y379200
X264543Y369126
X249400Y398400
X244400Y398900
X239500Y398700
X234300Y399100
X229300Y400000
X372811Y388811
X372000Y265000
X369000Y264900
X225173Y260858
Y270701
X215331
Y280543
Y290386
X225173
Y280543
X205488
X195646
X185803
Y290386
Y300228
X175961
Y290386
Y280543
X166118
X156276
X146433
Y290386
Y300228
X136591
X139000Y307000
X143000
X138583Y324000
X138800Y330800
X129921Y320079
X119000Y315000
X115748Y324000
X116000Y331100
X107087Y320079
X98000Y313000
X97220Y300228
X107063
Y290386
X97220
X87378
Y280543
X77535
X97220
X107063
X116905
X126748
X136591
Y290386
X126748
Y300228
X152756Y320079
X156276Y319913
X165000Y320000
X161669Y324016
X161900Y329600
X175984Y320079
X181000Y315000
X185039Y324000
X185400Y331600
X195700Y326400
X198819Y320079
X207480Y324000
X208000Y328700
X205488Y310071
X215331
X225173
Y300228
X215331
X205488
X195646
Y290386
X205488
Y270701
X195646
Y260858
Y251016
X205488
X215331
X225173
X215331Y260858
X205488
X221654Y320079
X220356Y350941
X210120
X199884
X179411
X158939
X148703
X138467
X128230
X117994
X107758
X87285Y350941
X75800Y346900
X75900Y343700
X78564Y335059
X77535Y329756
X83858Y320079
X93307Y324016
X93500Y330100
X76400Y366200
X75128Y370605
X77535Y378969
X80336Y379417
X89100Y393200
X92194Y394882
X89300Y399000
X94100Y400500
X99500Y399000
X104100Y398900
X109100Y398500
X114200Y398800
X119400Y398500
X124400Y398800
X129100Y398600
X134400Y398300
X139400Y398400
X144200Y398200
X149500Y398400
X154500Y398500
X159200Y398400
X164500Y398500
X169300Y398600
X174300
X179300Y398800
X184200Y399100
X189400Y398800
X194500Y399000
X199200Y398900
X204500Y398800
X209400Y398500
X214200Y398300
X219400Y399400
X224600Y399100
X214200Y383900
X209400Y383300
X204300Y383400
X199200Y383600
X194300Y384100
X193500Y376700
X196200Y373200
X196300Y370100
X174400Y383500
X169300Y384000
X164300Y383300
X159400Y383400
X154400
X149500Y383800
X151300Y376400
X151000Y373400
X134300Y385100
X129300Y384600
X124300Y384500
X119500Y384700
X114000Y384600
X109300Y384100
X104300Y383800
X99500Y383100
X126748Y369126
X67693
X57850
X48008
X38165
X28323
X30292Y384875
Y392748
Y400623
X22418
X14544
X6670
X-1204
X-9078
X-16952
X-24826
X-32700
X-40574
X-48449
X-56323
X-64197
Y392748
Y384875
X-56323
Y392748
X-48449
Y384875
X-40574
Y392748
X-32700
Y384875
X-16952
Y392748
X-9078
Y384875
X-1204
Y392748
X6670
Y384875
X14544
Y392748
X-20890Y369126
X-30732
X-40575
X-50417
X-53374Y368529
X-54000Y364600
X-58200Y352400
X-59500Y342900
X-53300Y341900
X-53500Y345600
X-43163Y350941
X-41700Y356400
X-39200
X-34034Y335059
X-23798
X-20890Y329756
X-13562Y335059
X-3326
X6910
X17147
X27383
X37619
X47855
X48008Y329756
X57850
X58091Y335059
X68328
X67693Y329756
Y310071
X57850
Y300228
X59199Y350941
X69435
X72386Y360743
X48963Y350941
X38726
X-12455
X-35659Y324952
X-33400Y320300
X-35659Y314716
Y304480
Y294244
Y284008
X-27800Y283000
Y280100
X-35659Y273771
Y263535
X-51541Y260185
X-60260Y260858
Y251016
X-51541Y249949
X-70102Y251016
X-79945
Y260858
X-70102
Y270701
Y280543
Y290386
Y300228
Y310071
X-79945
X-78347Y317717
X-69685Y324016
X-66400Y326600
X-67900Y332200
X-80000Y332600
X-82700Y343100
X-82100Y351400
X-81200Y366000
X-81400Y371284
X-51541Y331838
X-59800Y320400
X-60260Y310071
Y300228
X-51541Y301130
Y311366
Y290894
X-60260Y290386
Y280543
X-51541Y280657
Y270421
X-60260Y270701
X-79945
Y280543
Y290386
Y300228
X-11047Y260858
Y251016
X-1205
Y260858
Y270701
X8638Y260858
X-89787
X-99630
X-109472
X-119315
Y251016
X-129157
X-139000
Y260858
X-129157
Y270701
X-119315
Y280543
X-109472
Y290386
X-99630
Y300228
X-89787
Y290386
Y280543
X-99630
Y270701
X-89787
X-109472
Y251016
X-99630
X-89787
Y310071
X-92520Y324000
X-100787Y317717
X-109472Y310071
X-119315
Y300228
X-129157
X-139000
X-148843
Y290386
X-139000
Y280543
X-148843
X-158685
X-168527
Y270701
X-158685
Y260858
X-148843Y251016
Y270701
X-158685Y290386
X-168527Y300228
X-175000Y311600
X-170079Y317717
X-160630Y324000
X-159150Y330000
X-171700Y332700
X-182600Y331900
X-183858Y324016
X-192913Y317323
X-188213Y310071
X-198055
X-207898
Y300228
Y290386
Y280543
X-198055
Y270701
X-188213
Y260858
Y280543
Y290386
Y300228
X-198055
Y290386
X-217740
Y300228
Y310071
X-216142Y317323
X-206693Y324016
X-206000Y331300
X-218400Y332600
X-229400Y332100
X-231102Y324016
X-237425Y310071
Y300228
Y280543
Y260858
Y251016
X-227583
X-207898
X-217740Y260858
X-227583Y270701
X-158685Y310071
X-146850Y317717
X-138189Y324000
X-139000Y310071
X-129157
X-124016Y317717
X-115354Y324000
X-129157Y290386
X-126500Y369200
X-128500Y371400
X-127800Y374700
X-130900Y376900
X-129400Y384400
X-124300Y384800
X-134200Y383700
X-134400Y398500
X-139200Y398400
X-144300Y398600
X-149800Y399100
X-154700Y398400
X-159400Y399100
X-164400Y398700
X-169100Y398900
X-174200
X-179500Y399100
X-184300Y399000
X-189300Y399100
X-194200Y399200
X-199200Y399500
X-204400Y398900
X-209300
X-214600Y399100
X-219300Y398700
X-224500Y398500
X-229400Y398600
X-234400Y398500
X-239200Y399100
X-219300Y386700
X-214350Y386024
X-209500Y385800
X-204350Y386024
X-210800Y375600
X-219300Y375100
X-218700Y372100
X-222000Y377500
X-173800Y376000
X-173700Y373000
X-173500Y370000
X-164800Y375700
X-161200Y375000
X-164400Y384000
X-169100Y384900
X-174500Y384500
X-129200Y399200
X-124400Y398900
X-119500Y398600
X-114500Y398500
X-109200
X-104200Y398700
X-99300Y398200
X-94200Y398600
X-89500Y398800
X-89600Y386800
X-94350Y386024
X-98700Y387500
X-91400Y379500
X-88100Y377700
X-116900Y375700
X-244350Y386024
X-249000Y385300
X-254200Y385400
X-259350Y386024
X-264500Y385500
X-263300Y378500
X-262600Y375500
X-266500
X-264400Y400100
X-269400
X-274300Y400400
X-279300Y400900
X-284400Y399400
X-289300Y399600
X-294500
X-299500Y399800
X-304600Y399600
X-309400Y399500
X-309350Y386024
X-304500Y385700
X-299700Y385500
X-294350Y386024
X-289500Y385900
X-284350Y386024
X-307200Y376700
X-311100Y373800
X-333300Y377500
X-336400Y376500
X-335850Y369126
X-336200Y352600
X-338600Y350800
X-343800Y340000
X-342700Y336900
X-346200Y337700
X-350941Y333697
Y323461
X-355535Y339598
X-355382Y342920
X-355535Y349441
X-365378
Y339598
X-385063
X-394905
Y349441
Y359283
X-385063Y369126
X-375220
X-365378
X-355535
X-375220Y349441
X-374600Y327400
X-373800Y324400
X-375000Y321200
X-375700Y318100
X-372600Y313300
X-369000Y313100
X-384300Y309300
X-383300Y304400
X-383400Y299500
X-372300Y290400
X-369500Y288600
X-365378Y290386
X-374200Y281800
Y278500
X-374800Y275300
X-374700Y267000
X-371600Y267400
X-368600
X-383800Y269200
X-384000Y274200
X-383000Y264600
X-376400Y283900
X-329700Y278500
X-322031Y279000
X-316165Y280543
X-306323
Y270701
X-296480
X-276795
Y280543
Y290386
Y300228
X-279000Y307000
X-266953Y310071
X-254900Y311500
X-253937Y324016
X-252700Y332200
X-241300Y332500
X-240158Y320472
X-262992
X-264400Y332700
X-276100Y331800
X-277165Y324016
X-286221Y320472
X-290000Y315000
X-296480Y310071
X-306323
Y300228
X-322031Y301000
X-328000Y302200
X-330700Y290400
X-318110Y291732
Y313779
X-316165Y319913
X-318898Y324016
X-329000Y324850
X-309055Y320472
X-300276Y324000
X-298700Y332100
X-287500Y332400
X-286638Y280543
X-266953
X-257110
Y270701
X-247268
Y260858
X-257110
X-266953
Y270701
Y290386
X-257110Y300228
X-247268Y290386
Y251016
X-257110
X-276795
X-296480
X-306323
X-318110Y246063
X-322031Y255000
X-329000Y254700
X-331200Y244900
Y267900
X-318110Y268898
X-286638Y260858
X-259400Y400100
X-254400Y399700
X-249200
X-244400Y399600
X-394000Y321000
X-400400Y309000
X-399200Y304200
X-399100Y299300
X-398900Y294300
X-398700Y289500
X-399200Y284500
Y279200
X-399100Y274600
X-399200Y269400
X-399100Y264400
X-398900Y259400
Y254400
X-399300Y249500
T02
X241200Y-343100
X263700Y-343000
X287900Y-342900
X308800Y-343000
X333150Y-343100
X343000Y-314835
Y-291835
Y-269063
Y-246000
X217800Y-343000
X194700
X172200Y-343100
X149100Y-343000
X126000
X105000
X-64000
X-83500
X-106500
X-129000
X-152500
X-176000
X-199000
X-222063
X-245000
X-268063
X-290835
X-313835
X-342100Y-333150
X-342000Y-308800
X-341900Y-287900
X-342000Y-263700
X-342100Y-241200
X-342000Y-217800
Y-194700
X-342100Y-172200
X-342000Y-149100
Y-126000
Y-105000
X343000Y-107500
Y-130000
Y-153500
Y-177000
Y-200000
Y-223063
Y-84500
Y-65000
X-343000Y110000
X-343000Y130000
Y153500
Y177000
Y200000
Y223063
X342000Y217800
Y194700
X342100Y172200
X342000Y149100
Y126000
Y105000
X342100Y241200
X342000Y263700
X341900Y287900
X342000Y308800
X342100Y333150
X313835Y343000
X290835
X268063
X245000
X222063
X199000
X176000
X152500
X129000
X106500
X86000Y343000
X-105000Y343000
X-126000
X-149100
X-172200Y343100
X-194700Y343000
X-217800
X-241200Y343100
X-263700Y343000
X-287900Y342900
X-308800Y343000
X-333150Y343100
X-343000Y314835
Y291835
Y269063
Y246000
T03
X-364331Y-393701
X-354331
X-344331
X393701Y-364331
Y-354331
Y-344331
X130000Y230000
X120000
X110000
X344331Y393701
X354331
X364331
X-393701Y364331
Y354331
Y344331
T04
X240158Y87402
X287402
Y176378
X240158
T05
X-393701Y-393701
X393701
X88583Y-297244
X-289370
Y-72835
X88583
X163386Y-35433
X-289370
X393701Y393701
X163386Y295276
X-289370
X-393701Y393701
T06
X362205Y-12795
Y12795
M30
